%TF.GenerationSoftware,KiCad,Pcbnew,10.0.6*%
%TF.CreationDate,2026-09-09T15:11:14+03:00*%
%TF.ProjectId,candidate,63616e64-6964-4617-9465-2e6b69636164,rev?*%
%TF.SameCoordinates,Original*%
%TF.FileFunction,Legend,Top*%
%TF.FilePolarity,Positive*%
%FSLAX46Y46*%
G04 Gerber Fmt 4.6, Leading zero omitted, Abs format (unit mm)*
G04 Created by KiCad (PCBNEW 10.0.6) date 2026-09-09 15:11:14*
%MOMM*%
%LPD*%
G01*
G04 APERTURE LIST*
%ADD10C,0.120000*%
G04 APERTURE END LIST*
D10*
X50200000Y-61830117D02*
X50200000Y-62472974D01*
X50200000Y-62472974D02*
X50157143Y-62601545D01*
X50157143Y-62601545D02*
X50071429Y-62687260D01*
X50071429Y-62687260D02*
X49942857Y-62730117D01*
X49942857Y-62730117D02*
X49857143Y-62730117D01*
X51014286Y-61830117D02*
X50842857Y-61830117D01*
X50842857Y-61830117D02*
X50757143Y-61872974D01*
X50757143Y-61872974D02*
X50714286Y-61915831D01*
X50714286Y-61915831D02*
X50628571Y-62044402D01*
X50628571Y-62044402D02*
X50585714Y-62215831D01*
X50585714Y-62215831D02*
X50585714Y-62558688D01*
X50585714Y-62558688D02*
X50628571Y-62644402D01*
X50628571Y-62644402D02*
X50671428Y-62687260D01*
X50671428Y-62687260D02*
X50757143Y-62730117D01*
X50757143Y-62730117D02*
X50928571Y-62730117D01*
X50928571Y-62730117D02*
X51014286Y-62687260D01*
X51014286Y-62687260D02*
X51057143Y-62644402D01*
X51057143Y-62644402D02*
X51100000Y-62558688D01*
X51100000Y-62558688D02*
X51100000Y-62344402D01*
X51100000Y-62344402D02*
X51057143Y-62258688D01*
X51057143Y-62258688D02*
X51014286Y-62215831D01*
X51014286Y-62215831D02*
X50928571Y-62172974D01*
X50928571Y-62172974D02*
X50757143Y-62172974D01*
X50757143Y-62172974D02*
X50671428Y-62215831D01*
X50671428Y-62215831D02*
X50628571Y-62258688D01*
X50628571Y-62258688D02*
X50585714Y-62344402D01*
X48921428Y-82410117D02*
X48621428Y-81981545D01*
X48407142Y-82410117D02*
X48407142Y-81510117D01*
X48407142Y-81510117D02*
X48749999Y-81510117D01*
X48749999Y-81510117D02*
X48835714Y-81552974D01*
X48835714Y-81552974D02*
X48878571Y-81595831D01*
X48878571Y-81595831D02*
X48921428Y-81681545D01*
X48921428Y-81681545D02*
X48921428Y-81810117D01*
X48921428Y-81810117D02*
X48878571Y-81895831D01*
X48878571Y-81895831D02*
X48835714Y-81938688D01*
X48835714Y-81938688D02*
X48749999Y-81981545D01*
X48749999Y-81981545D02*
X48407142Y-81981545D01*
X49778571Y-82410117D02*
X49264285Y-82410117D01*
X49521428Y-82410117D02*
X49521428Y-81510117D01*
X49521428Y-81510117D02*
X49435714Y-81638688D01*
X49435714Y-81638688D02*
X49349999Y-81724402D01*
X49349999Y-81724402D02*
X49264285Y-81767260D01*
X50078571Y-81510117D02*
X50635714Y-81510117D01*
X50635714Y-81510117D02*
X50335714Y-81852974D01*
X50335714Y-81852974D02*
X50464285Y-81852974D01*
X50464285Y-81852974D02*
X50550000Y-81895831D01*
X50550000Y-81895831D02*
X50592857Y-81938688D01*
X50592857Y-81938688D02*
X50635714Y-82024402D01*
X50635714Y-82024402D02*
X50635714Y-82238688D01*
X50635714Y-82238688D02*
X50592857Y-82324402D01*
X50592857Y-82324402D02*
X50550000Y-82367260D01*
X50550000Y-82367260D02*
X50464285Y-82410117D01*
X50464285Y-82410117D02*
X50207142Y-82410117D01*
X50207142Y-82410117D02*
X50121428Y-82367260D01*
X50121428Y-82367260D02*
X50078571Y-82324402D01*
X39271428Y-67010117D02*
X39271428Y-67652974D01*
X39271428Y-67652974D02*
X39228571Y-67781545D01*
X39228571Y-67781545D02*
X39142857Y-67867260D01*
X39142857Y-67867260D02*
X39014285Y-67910117D01*
X39014285Y-67910117D02*
X38928571Y-67910117D01*
X39657142Y-67095831D02*
X39699999Y-67052974D01*
X39699999Y-67052974D02*
X39785714Y-67010117D01*
X39785714Y-67010117D02*
X39999999Y-67010117D01*
X39999999Y-67010117D02*
X40085714Y-67052974D01*
X40085714Y-67052974D02*
X40128571Y-67095831D01*
X40128571Y-67095831D02*
X40171428Y-67181545D01*
X40171428Y-67181545D02*
X40171428Y-67267260D01*
X40171428Y-67267260D02*
X40128571Y-67395831D01*
X40128571Y-67395831D02*
X39614285Y-67910117D01*
X39614285Y-67910117D02*
X40171428Y-67910117D01*
X40514285Y-67095831D02*
X40557142Y-67052974D01*
X40557142Y-67052974D02*
X40642857Y-67010117D01*
X40642857Y-67010117D02*
X40857142Y-67010117D01*
X40857142Y-67010117D02*
X40942857Y-67052974D01*
X40942857Y-67052974D02*
X40985714Y-67095831D01*
X40985714Y-67095831D02*
X41028571Y-67181545D01*
X41028571Y-67181545D02*
X41028571Y-67267260D01*
X41028571Y-67267260D02*
X40985714Y-67395831D01*
X40985714Y-67395831D02*
X40471428Y-67910117D01*
X40471428Y-67910117D02*
X41028571Y-67910117D01*
X41914285Y-85995831D02*
X41828571Y-85952974D01*
X41828571Y-85952974D02*
X41742857Y-85867260D01*
X41742857Y-85867260D02*
X41614285Y-85738688D01*
X41614285Y-85738688D02*
X41528571Y-85695831D01*
X41528571Y-85695831D02*
X41442857Y-85695831D01*
X41485714Y-85910117D02*
X41400000Y-85867260D01*
X41400000Y-85867260D02*
X41314285Y-85781545D01*
X41314285Y-85781545D02*
X41271428Y-85610117D01*
X41271428Y-85610117D02*
X41271428Y-85310117D01*
X41271428Y-85310117D02*
X41314285Y-85138688D01*
X41314285Y-85138688D02*
X41400000Y-85052974D01*
X41400000Y-85052974D02*
X41485714Y-85010117D01*
X41485714Y-85010117D02*
X41657142Y-85010117D01*
X41657142Y-85010117D02*
X41742857Y-85052974D01*
X41742857Y-85052974D02*
X41828571Y-85138688D01*
X41828571Y-85138688D02*
X41871428Y-85310117D01*
X41871428Y-85310117D02*
X41871428Y-85610117D01*
X41871428Y-85610117D02*
X41828571Y-85781545D01*
X41828571Y-85781545D02*
X41742857Y-85867260D01*
X41742857Y-85867260D02*
X41657142Y-85910117D01*
X41657142Y-85910117D02*
X41485714Y-85910117D01*
X42214285Y-85095831D02*
X42257142Y-85052974D01*
X42257142Y-85052974D02*
X42342857Y-85010117D01*
X42342857Y-85010117D02*
X42557142Y-85010117D01*
X42557142Y-85010117D02*
X42642857Y-85052974D01*
X42642857Y-85052974D02*
X42685714Y-85095831D01*
X42685714Y-85095831D02*
X42728571Y-85181545D01*
X42728571Y-85181545D02*
X42728571Y-85267260D01*
X42728571Y-85267260D02*
X42685714Y-85395831D01*
X42685714Y-85395831D02*
X42171428Y-85910117D01*
X42171428Y-85910117D02*
X42728571Y-85910117D01*
X52421428Y-80470117D02*
X52121428Y-80041545D01*
X51907142Y-80470117D02*
X51907142Y-79570117D01*
X51907142Y-79570117D02*
X52249999Y-79570117D01*
X52249999Y-79570117D02*
X52335714Y-79612974D01*
X52335714Y-79612974D02*
X52378571Y-79655831D01*
X52378571Y-79655831D02*
X52421428Y-79741545D01*
X52421428Y-79741545D02*
X52421428Y-79870117D01*
X52421428Y-79870117D02*
X52378571Y-79955831D01*
X52378571Y-79955831D02*
X52335714Y-79998688D01*
X52335714Y-79998688D02*
X52249999Y-80041545D01*
X52249999Y-80041545D02*
X51907142Y-80041545D01*
X53278571Y-80470117D02*
X52764285Y-80470117D01*
X53021428Y-80470117D02*
X53021428Y-79570117D01*
X53021428Y-79570117D02*
X52935714Y-79698688D01*
X52935714Y-79698688D02*
X52849999Y-79784402D01*
X52849999Y-79784402D02*
X52764285Y-79827260D01*
X54050000Y-79870117D02*
X54050000Y-80470117D01*
X53835714Y-79527260D02*
X53621428Y-80170117D01*
X53621428Y-80170117D02*
X54178571Y-80170117D01*
X100771428Y-58510117D02*
X100771428Y-59152974D01*
X100771428Y-59152974D02*
X100728571Y-59281545D01*
X100728571Y-59281545D02*
X100642857Y-59367260D01*
X100642857Y-59367260D02*
X100514285Y-59410117D01*
X100514285Y-59410117D02*
X100428571Y-59410117D01*
X101157142Y-58595831D02*
X101199999Y-58552974D01*
X101199999Y-58552974D02*
X101285714Y-58510117D01*
X101285714Y-58510117D02*
X101499999Y-58510117D01*
X101499999Y-58510117D02*
X101585714Y-58552974D01*
X101585714Y-58552974D02*
X101628571Y-58595831D01*
X101628571Y-58595831D02*
X101671428Y-58681545D01*
X101671428Y-58681545D02*
X101671428Y-58767260D01*
X101671428Y-58767260D02*
X101628571Y-58895831D01*
X101628571Y-58895831D02*
X101114285Y-59410117D01*
X101114285Y-59410117D02*
X101671428Y-59410117D01*
X102528571Y-59410117D02*
X102014285Y-59410117D01*
X102271428Y-59410117D02*
X102271428Y-58510117D01*
X102271428Y-58510117D02*
X102185714Y-58638688D01*
X102185714Y-58638688D02*
X102099999Y-58724402D01*
X102099999Y-58724402D02*
X102014285Y-58767260D01*
X92271428Y-35010117D02*
X92271428Y-35652974D01*
X92271428Y-35652974D02*
X92228571Y-35781545D01*
X92228571Y-35781545D02*
X92142857Y-35867260D01*
X92142857Y-35867260D02*
X92014285Y-35910117D01*
X92014285Y-35910117D02*
X91928571Y-35910117D01*
X93171428Y-35910117D02*
X92657142Y-35910117D01*
X92914285Y-35910117D02*
X92914285Y-35010117D01*
X92914285Y-35010117D02*
X92828571Y-35138688D01*
X92828571Y-35138688D02*
X92742856Y-35224402D01*
X92742856Y-35224402D02*
X92657142Y-35267260D01*
X93728571Y-35010117D02*
X93814285Y-35010117D01*
X93814285Y-35010117D02*
X93899999Y-35052974D01*
X93899999Y-35052974D02*
X93942857Y-35095831D01*
X93942857Y-35095831D02*
X93985714Y-35181545D01*
X93985714Y-35181545D02*
X94028571Y-35352974D01*
X94028571Y-35352974D02*
X94028571Y-35567260D01*
X94028571Y-35567260D02*
X93985714Y-35738688D01*
X93985714Y-35738688D02*
X93942857Y-35824402D01*
X93942857Y-35824402D02*
X93899999Y-35867260D01*
X93899999Y-35867260D02*
X93814285Y-35910117D01*
X93814285Y-35910117D02*
X93728571Y-35910117D01*
X93728571Y-35910117D02*
X93642857Y-35867260D01*
X93642857Y-35867260D02*
X93599999Y-35824402D01*
X93599999Y-35824402D02*
X93557142Y-35738688D01*
X93557142Y-35738688D02*
X93514285Y-35567260D01*
X93514285Y-35567260D02*
X93514285Y-35352974D01*
X93514285Y-35352974D02*
X93557142Y-35181545D01*
X93557142Y-35181545D02*
X93599999Y-35095831D01*
X93599999Y-35095831D02*
X93642857Y-35052974D01*
X93642857Y-35052974D02*
X93728571Y-35010117D01*
X57271428Y-96010117D02*
X57271428Y-96652974D01*
X57271428Y-96652974D02*
X57228571Y-96781545D01*
X57228571Y-96781545D02*
X57142857Y-96867260D01*
X57142857Y-96867260D02*
X57014285Y-96910117D01*
X57014285Y-96910117D02*
X56928571Y-96910117D01*
X57657142Y-96095831D02*
X57699999Y-96052974D01*
X57699999Y-96052974D02*
X57785714Y-96010117D01*
X57785714Y-96010117D02*
X57999999Y-96010117D01*
X57999999Y-96010117D02*
X58085714Y-96052974D01*
X58085714Y-96052974D02*
X58128571Y-96095831D01*
X58128571Y-96095831D02*
X58171428Y-96181545D01*
X58171428Y-96181545D02*
X58171428Y-96267260D01*
X58171428Y-96267260D02*
X58128571Y-96395831D01*
X58128571Y-96395831D02*
X57614285Y-96910117D01*
X57614285Y-96910117D02*
X58171428Y-96910117D01*
X58942857Y-96010117D02*
X58771428Y-96010117D01*
X58771428Y-96010117D02*
X58685714Y-96052974D01*
X58685714Y-96052974D02*
X58642857Y-96095831D01*
X58642857Y-96095831D02*
X58557142Y-96224402D01*
X58557142Y-96224402D02*
X58514285Y-96395831D01*
X58514285Y-96395831D02*
X58514285Y-96738688D01*
X58514285Y-96738688D02*
X58557142Y-96824402D01*
X58557142Y-96824402D02*
X58599999Y-96867260D01*
X58599999Y-96867260D02*
X58685714Y-96910117D01*
X58685714Y-96910117D02*
X58857142Y-96910117D01*
X58857142Y-96910117D02*
X58942857Y-96867260D01*
X58942857Y-96867260D02*
X58985714Y-96824402D01*
X58985714Y-96824402D02*
X59028571Y-96738688D01*
X59028571Y-96738688D02*
X59028571Y-96524402D01*
X59028571Y-96524402D02*
X58985714Y-96438688D01*
X58985714Y-96438688D02*
X58942857Y-96395831D01*
X58942857Y-96395831D02*
X58857142Y-96352974D01*
X58857142Y-96352974D02*
X58685714Y-96352974D01*
X58685714Y-96352974D02*
X58599999Y-96395831D01*
X58599999Y-96395831D02*
X58557142Y-96438688D01*
X58557142Y-96438688D02*
X58514285Y-96524402D01*
X91700000Y-72010117D02*
X91700000Y-72652974D01*
X91700000Y-72652974D02*
X91657143Y-72781545D01*
X91657143Y-72781545D02*
X91571429Y-72867260D01*
X91571429Y-72867260D02*
X91442857Y-72910117D01*
X91442857Y-72910117D02*
X91357143Y-72910117D01*
X92171428Y-72910117D02*
X92342857Y-72910117D01*
X92342857Y-72910117D02*
X92428571Y-72867260D01*
X92428571Y-72867260D02*
X92471428Y-72824402D01*
X92471428Y-72824402D02*
X92557143Y-72695831D01*
X92557143Y-72695831D02*
X92600000Y-72524402D01*
X92600000Y-72524402D02*
X92600000Y-72181545D01*
X92600000Y-72181545D02*
X92557143Y-72095831D01*
X92557143Y-72095831D02*
X92514286Y-72052974D01*
X92514286Y-72052974D02*
X92428571Y-72010117D01*
X92428571Y-72010117D02*
X92257143Y-72010117D01*
X92257143Y-72010117D02*
X92171428Y-72052974D01*
X92171428Y-72052974D02*
X92128571Y-72095831D01*
X92128571Y-72095831D02*
X92085714Y-72181545D01*
X92085714Y-72181545D02*
X92085714Y-72395831D01*
X92085714Y-72395831D02*
X92128571Y-72481545D01*
X92128571Y-72481545D02*
X92171428Y-72524402D01*
X92171428Y-72524402D02*
X92257143Y-72567260D01*
X92257143Y-72567260D02*
X92428571Y-72567260D01*
X92428571Y-72567260D02*
X92514286Y-72524402D01*
X92514286Y-72524402D02*
X92557143Y-72481545D01*
X92557143Y-72481545D02*
X92600000Y-72395831D01*
X36271428Y-95010117D02*
X36271428Y-95652974D01*
X36271428Y-95652974D02*
X36228571Y-95781545D01*
X36228571Y-95781545D02*
X36142857Y-95867260D01*
X36142857Y-95867260D02*
X36014285Y-95910117D01*
X36014285Y-95910117D02*
X35928571Y-95910117D01*
X36657142Y-95095831D02*
X36699999Y-95052974D01*
X36699999Y-95052974D02*
X36785714Y-95010117D01*
X36785714Y-95010117D02*
X36999999Y-95010117D01*
X36999999Y-95010117D02*
X37085714Y-95052974D01*
X37085714Y-95052974D02*
X37128571Y-95095831D01*
X37128571Y-95095831D02*
X37171428Y-95181545D01*
X37171428Y-95181545D02*
X37171428Y-95267260D01*
X37171428Y-95267260D02*
X37128571Y-95395831D01*
X37128571Y-95395831D02*
X36614285Y-95910117D01*
X36614285Y-95910117D02*
X37171428Y-95910117D01*
X37685714Y-95395831D02*
X37599999Y-95352974D01*
X37599999Y-95352974D02*
X37557142Y-95310117D01*
X37557142Y-95310117D02*
X37514285Y-95224402D01*
X37514285Y-95224402D02*
X37514285Y-95181545D01*
X37514285Y-95181545D02*
X37557142Y-95095831D01*
X37557142Y-95095831D02*
X37599999Y-95052974D01*
X37599999Y-95052974D02*
X37685714Y-95010117D01*
X37685714Y-95010117D02*
X37857142Y-95010117D01*
X37857142Y-95010117D02*
X37942857Y-95052974D01*
X37942857Y-95052974D02*
X37985714Y-95095831D01*
X37985714Y-95095831D02*
X38028571Y-95181545D01*
X38028571Y-95181545D02*
X38028571Y-95224402D01*
X38028571Y-95224402D02*
X37985714Y-95310117D01*
X37985714Y-95310117D02*
X37942857Y-95352974D01*
X37942857Y-95352974D02*
X37857142Y-95395831D01*
X37857142Y-95395831D02*
X37685714Y-95395831D01*
X37685714Y-95395831D02*
X37599999Y-95438688D01*
X37599999Y-95438688D02*
X37557142Y-95481545D01*
X37557142Y-95481545D02*
X37514285Y-95567260D01*
X37514285Y-95567260D02*
X37514285Y-95738688D01*
X37514285Y-95738688D02*
X37557142Y-95824402D01*
X37557142Y-95824402D02*
X37599999Y-95867260D01*
X37599999Y-95867260D02*
X37685714Y-95910117D01*
X37685714Y-95910117D02*
X37857142Y-95910117D01*
X37857142Y-95910117D02*
X37942857Y-95867260D01*
X37942857Y-95867260D02*
X37985714Y-95824402D01*
X37985714Y-95824402D02*
X38028571Y-95738688D01*
X38028571Y-95738688D02*
X38028571Y-95567260D01*
X38028571Y-95567260D02*
X37985714Y-95481545D01*
X37985714Y-95481545D02*
X37942857Y-95438688D01*
X37942857Y-95438688D02*
X37857142Y-95395831D01*
X43271428Y-51010117D02*
X43271428Y-51652974D01*
X43271428Y-51652974D02*
X43228571Y-51781545D01*
X43228571Y-51781545D02*
X43142857Y-51867260D01*
X43142857Y-51867260D02*
X43014285Y-51910117D01*
X43014285Y-51910117D02*
X42928571Y-51910117D01*
X44171428Y-51910117D02*
X43657142Y-51910117D01*
X43914285Y-51910117D02*
X43914285Y-51010117D01*
X43914285Y-51010117D02*
X43828571Y-51138688D01*
X43828571Y-51138688D02*
X43742856Y-51224402D01*
X43742856Y-51224402D02*
X43657142Y-51267260D01*
X45028571Y-51910117D02*
X44514285Y-51910117D01*
X44771428Y-51910117D02*
X44771428Y-51010117D01*
X44771428Y-51010117D02*
X44685714Y-51138688D01*
X44685714Y-51138688D02*
X44599999Y-51224402D01*
X44599999Y-51224402D02*
X44514285Y-51267260D01*
X52421428Y-70310117D02*
X52121428Y-69881545D01*
X51907142Y-70310117D02*
X51907142Y-69410117D01*
X51907142Y-69410117D02*
X52249999Y-69410117D01*
X52249999Y-69410117D02*
X52335714Y-69452974D01*
X52335714Y-69452974D02*
X52378571Y-69495831D01*
X52378571Y-69495831D02*
X52421428Y-69581545D01*
X52421428Y-69581545D02*
X52421428Y-69710117D01*
X52421428Y-69710117D02*
X52378571Y-69795831D01*
X52378571Y-69795831D02*
X52335714Y-69838688D01*
X52335714Y-69838688D02*
X52249999Y-69881545D01*
X52249999Y-69881545D02*
X51907142Y-69881545D01*
X53278571Y-70310117D02*
X52764285Y-70310117D01*
X53021428Y-70310117D02*
X53021428Y-69410117D01*
X53021428Y-69410117D02*
X52935714Y-69538688D01*
X52935714Y-69538688D02*
X52849999Y-69624402D01*
X52849999Y-69624402D02*
X52764285Y-69667260D01*
X53621428Y-69495831D02*
X53664285Y-69452974D01*
X53664285Y-69452974D02*
X53750000Y-69410117D01*
X53750000Y-69410117D02*
X53964285Y-69410117D01*
X53964285Y-69410117D02*
X54050000Y-69452974D01*
X54050000Y-69452974D02*
X54092857Y-69495831D01*
X54092857Y-69495831D02*
X54135714Y-69581545D01*
X54135714Y-69581545D02*
X54135714Y-69667260D01*
X54135714Y-69667260D02*
X54092857Y-69795831D01*
X54092857Y-69795831D02*
X53578571Y-70310117D01*
X53578571Y-70310117D02*
X54135714Y-70310117D01*
X57700000Y-39010117D02*
X57700000Y-39652974D01*
X57700000Y-39652974D02*
X57657143Y-39781545D01*
X57657143Y-39781545D02*
X57571429Y-39867260D01*
X57571429Y-39867260D02*
X57442857Y-39910117D01*
X57442857Y-39910117D02*
X57357143Y-39910117D01*
X58600000Y-39910117D02*
X58085714Y-39910117D01*
X58342857Y-39910117D02*
X58342857Y-39010117D01*
X58342857Y-39010117D02*
X58257143Y-39138688D01*
X58257143Y-39138688D02*
X58171428Y-39224402D01*
X58171428Y-39224402D02*
X58085714Y-39267260D01*
X41914285Y-76995831D02*
X41828571Y-76952974D01*
X41828571Y-76952974D02*
X41742857Y-76867260D01*
X41742857Y-76867260D02*
X41614285Y-76738688D01*
X41614285Y-76738688D02*
X41528571Y-76695831D01*
X41528571Y-76695831D02*
X41442857Y-76695831D01*
X41485714Y-76910117D02*
X41400000Y-76867260D01*
X41400000Y-76867260D02*
X41314285Y-76781545D01*
X41314285Y-76781545D02*
X41271428Y-76610117D01*
X41271428Y-76610117D02*
X41271428Y-76310117D01*
X41271428Y-76310117D02*
X41314285Y-76138688D01*
X41314285Y-76138688D02*
X41400000Y-76052974D01*
X41400000Y-76052974D02*
X41485714Y-76010117D01*
X41485714Y-76010117D02*
X41657142Y-76010117D01*
X41657142Y-76010117D02*
X41742857Y-76052974D01*
X41742857Y-76052974D02*
X41828571Y-76138688D01*
X41828571Y-76138688D02*
X41871428Y-76310117D01*
X41871428Y-76310117D02*
X41871428Y-76610117D01*
X41871428Y-76610117D02*
X41828571Y-76781545D01*
X41828571Y-76781545D02*
X41742857Y-76867260D01*
X41742857Y-76867260D02*
X41657142Y-76910117D01*
X41657142Y-76910117D02*
X41485714Y-76910117D01*
X42728571Y-76910117D02*
X42214285Y-76910117D01*
X42471428Y-76910117D02*
X42471428Y-76010117D01*
X42471428Y-76010117D02*
X42385714Y-76138688D01*
X42385714Y-76138688D02*
X42299999Y-76224402D01*
X42299999Y-76224402D02*
X42214285Y-76267260D01*
X97921428Y-83410117D02*
X97621428Y-82981545D01*
X97407142Y-83410117D02*
X97407142Y-82510117D01*
X97407142Y-82510117D02*
X97749999Y-82510117D01*
X97749999Y-82510117D02*
X97835714Y-82552974D01*
X97835714Y-82552974D02*
X97878571Y-82595831D01*
X97878571Y-82595831D02*
X97921428Y-82681545D01*
X97921428Y-82681545D02*
X97921428Y-82810117D01*
X97921428Y-82810117D02*
X97878571Y-82895831D01*
X97878571Y-82895831D02*
X97835714Y-82938688D01*
X97835714Y-82938688D02*
X97749999Y-82981545D01*
X97749999Y-82981545D02*
X97407142Y-82981545D01*
X98778571Y-83410117D02*
X98264285Y-83410117D01*
X98521428Y-83410117D02*
X98521428Y-82510117D01*
X98521428Y-82510117D02*
X98435714Y-82638688D01*
X98435714Y-82638688D02*
X98349999Y-82724402D01*
X98349999Y-82724402D02*
X98264285Y-82767260D01*
X99292857Y-82895831D02*
X99207142Y-82852974D01*
X99207142Y-82852974D02*
X99164285Y-82810117D01*
X99164285Y-82810117D02*
X99121428Y-82724402D01*
X99121428Y-82724402D02*
X99121428Y-82681545D01*
X99121428Y-82681545D02*
X99164285Y-82595831D01*
X99164285Y-82595831D02*
X99207142Y-82552974D01*
X99207142Y-82552974D02*
X99292857Y-82510117D01*
X99292857Y-82510117D02*
X99464285Y-82510117D01*
X99464285Y-82510117D02*
X99550000Y-82552974D01*
X99550000Y-82552974D02*
X99592857Y-82595831D01*
X99592857Y-82595831D02*
X99635714Y-82681545D01*
X99635714Y-82681545D02*
X99635714Y-82724402D01*
X99635714Y-82724402D02*
X99592857Y-82810117D01*
X99592857Y-82810117D02*
X99550000Y-82852974D01*
X99550000Y-82852974D02*
X99464285Y-82895831D01*
X99464285Y-82895831D02*
X99292857Y-82895831D01*
X99292857Y-82895831D02*
X99207142Y-82938688D01*
X99207142Y-82938688D02*
X99164285Y-82981545D01*
X99164285Y-82981545D02*
X99121428Y-83067260D01*
X99121428Y-83067260D02*
X99121428Y-83238688D01*
X99121428Y-83238688D02*
X99164285Y-83324402D01*
X99164285Y-83324402D02*
X99207142Y-83367260D01*
X99207142Y-83367260D02*
X99292857Y-83410117D01*
X99292857Y-83410117D02*
X99464285Y-83410117D01*
X99464285Y-83410117D02*
X99550000Y-83367260D01*
X99550000Y-83367260D02*
X99592857Y-83324402D01*
X99592857Y-83324402D02*
X99635714Y-83238688D01*
X99635714Y-83238688D02*
X99635714Y-83067260D01*
X99635714Y-83067260D02*
X99592857Y-82981545D01*
X99592857Y-82981545D02*
X99550000Y-82938688D01*
X99550000Y-82938688D02*
X99464285Y-82895831D01*
X69271428Y-99010117D02*
X69271428Y-99652974D01*
X69271428Y-99652974D02*
X69228571Y-99781545D01*
X69228571Y-99781545D02*
X69142857Y-99867260D01*
X69142857Y-99867260D02*
X69014285Y-99910117D01*
X69014285Y-99910117D02*
X68928571Y-99910117D01*
X70171428Y-99910117D02*
X69657142Y-99910117D01*
X69914285Y-99910117D02*
X69914285Y-99010117D01*
X69914285Y-99010117D02*
X69828571Y-99138688D01*
X69828571Y-99138688D02*
X69742856Y-99224402D01*
X69742856Y-99224402D02*
X69657142Y-99267260D01*
X70514285Y-99095831D02*
X70557142Y-99052974D01*
X70557142Y-99052974D02*
X70642857Y-99010117D01*
X70642857Y-99010117D02*
X70857142Y-99010117D01*
X70857142Y-99010117D02*
X70942857Y-99052974D01*
X70942857Y-99052974D02*
X70985714Y-99095831D01*
X70985714Y-99095831D02*
X71028571Y-99181545D01*
X71028571Y-99181545D02*
X71028571Y-99267260D01*
X71028571Y-99267260D02*
X70985714Y-99395831D01*
X70985714Y-99395831D02*
X70471428Y-99910117D01*
X70471428Y-99910117D02*
X71028571Y-99910117D01*
X50200000Y-65310117D02*
X50200000Y-65952974D01*
X50200000Y-65952974D02*
X50157143Y-66081545D01*
X50157143Y-66081545D02*
X50071429Y-66167260D01*
X50071429Y-66167260D02*
X49942857Y-66210117D01*
X49942857Y-66210117D02*
X49857143Y-66210117D01*
X50542857Y-65310117D02*
X51142857Y-65310117D01*
X51142857Y-65310117D02*
X50757143Y-66210117D01*
X89271428Y-86010117D02*
X89871428Y-86910117D01*
X89871428Y-86010117D02*
X89271428Y-86910117D01*
X90600000Y-86310117D02*
X90600000Y-86910117D01*
X90385714Y-85967260D02*
X90171428Y-86610117D01*
X90171428Y-86610117D02*
X90728571Y-86610117D01*
X48921428Y-91410117D02*
X48621428Y-90981545D01*
X48407142Y-91410117D02*
X48407142Y-90510117D01*
X48407142Y-90510117D02*
X48749999Y-90510117D01*
X48749999Y-90510117D02*
X48835714Y-90552974D01*
X48835714Y-90552974D02*
X48878571Y-90595831D01*
X48878571Y-90595831D02*
X48921428Y-90681545D01*
X48921428Y-90681545D02*
X48921428Y-90810117D01*
X48921428Y-90810117D02*
X48878571Y-90895831D01*
X48878571Y-90895831D02*
X48835714Y-90938688D01*
X48835714Y-90938688D02*
X48749999Y-90981545D01*
X48749999Y-90981545D02*
X48407142Y-90981545D01*
X49778571Y-91410117D02*
X49264285Y-91410117D01*
X49521428Y-91410117D02*
X49521428Y-90510117D01*
X49521428Y-90510117D02*
X49435714Y-90638688D01*
X49435714Y-90638688D02*
X49349999Y-90724402D01*
X49349999Y-90724402D02*
X49264285Y-90767260D01*
X50592857Y-90510117D02*
X50164285Y-90510117D01*
X50164285Y-90510117D02*
X50121428Y-90938688D01*
X50121428Y-90938688D02*
X50164285Y-90895831D01*
X50164285Y-90895831D02*
X50250000Y-90852974D01*
X50250000Y-90852974D02*
X50464285Y-90852974D01*
X50464285Y-90852974D02*
X50550000Y-90895831D01*
X50550000Y-90895831D02*
X50592857Y-90938688D01*
X50592857Y-90938688D02*
X50635714Y-91024402D01*
X50635714Y-91024402D02*
X50635714Y-91238688D01*
X50635714Y-91238688D02*
X50592857Y-91324402D01*
X50592857Y-91324402D02*
X50550000Y-91367260D01*
X50550000Y-91367260D02*
X50464285Y-91410117D01*
X50464285Y-91410117D02*
X50250000Y-91410117D01*
X50250000Y-91410117D02*
X50164285Y-91367260D01*
X50164285Y-91367260D02*
X50121428Y-91324402D01*
X100771428Y-46510117D02*
X100771428Y-47152974D01*
X100771428Y-47152974D02*
X100728571Y-47281545D01*
X100728571Y-47281545D02*
X100642857Y-47367260D01*
X100642857Y-47367260D02*
X100514285Y-47410117D01*
X100514285Y-47410117D02*
X100428571Y-47410117D01*
X101157142Y-46595831D02*
X101199999Y-46552974D01*
X101199999Y-46552974D02*
X101285714Y-46510117D01*
X101285714Y-46510117D02*
X101499999Y-46510117D01*
X101499999Y-46510117D02*
X101585714Y-46552974D01*
X101585714Y-46552974D02*
X101628571Y-46595831D01*
X101628571Y-46595831D02*
X101671428Y-46681545D01*
X101671428Y-46681545D02*
X101671428Y-46767260D01*
X101671428Y-46767260D02*
X101628571Y-46895831D01*
X101628571Y-46895831D02*
X101114285Y-47410117D01*
X101114285Y-47410117D02*
X101671428Y-47410117D01*
X102228571Y-46510117D02*
X102314285Y-46510117D01*
X102314285Y-46510117D02*
X102399999Y-46552974D01*
X102399999Y-46552974D02*
X102442857Y-46595831D01*
X102442857Y-46595831D02*
X102485714Y-46681545D01*
X102485714Y-46681545D02*
X102528571Y-46852974D01*
X102528571Y-46852974D02*
X102528571Y-47067260D01*
X102528571Y-47067260D02*
X102485714Y-47238688D01*
X102485714Y-47238688D02*
X102442857Y-47324402D01*
X102442857Y-47324402D02*
X102399999Y-47367260D01*
X102399999Y-47367260D02*
X102314285Y-47410117D01*
X102314285Y-47410117D02*
X102228571Y-47410117D01*
X102228571Y-47410117D02*
X102142857Y-47367260D01*
X102142857Y-47367260D02*
X102099999Y-47324402D01*
X102099999Y-47324402D02*
X102057142Y-47238688D01*
X102057142Y-47238688D02*
X102014285Y-47067260D01*
X102014285Y-47067260D02*
X102014285Y-46852974D01*
X102014285Y-46852974D02*
X102057142Y-46681545D01*
X102057142Y-46681545D02*
X102099999Y-46595831D01*
X102099999Y-46595831D02*
X102142857Y-46552974D01*
X102142857Y-46552974D02*
X102228571Y-46510117D01*
X91421428Y-48910117D02*
X91121428Y-48481545D01*
X90907142Y-48910117D02*
X90907142Y-48010117D01*
X90907142Y-48010117D02*
X91249999Y-48010117D01*
X91249999Y-48010117D02*
X91335714Y-48052974D01*
X91335714Y-48052974D02*
X91378571Y-48095831D01*
X91378571Y-48095831D02*
X91421428Y-48181545D01*
X91421428Y-48181545D02*
X91421428Y-48310117D01*
X91421428Y-48310117D02*
X91378571Y-48395831D01*
X91378571Y-48395831D02*
X91335714Y-48438688D01*
X91335714Y-48438688D02*
X91249999Y-48481545D01*
X91249999Y-48481545D02*
X90907142Y-48481545D01*
X92278571Y-48910117D02*
X91764285Y-48910117D01*
X92021428Y-48910117D02*
X92021428Y-48010117D01*
X92021428Y-48010117D02*
X91935714Y-48138688D01*
X91935714Y-48138688D02*
X91849999Y-48224402D01*
X91849999Y-48224402D02*
X91764285Y-48267260D01*
X92578571Y-48010117D02*
X93178571Y-48010117D01*
X93178571Y-48010117D02*
X92792857Y-48910117D01*
X91421428Y-52910117D02*
X91121428Y-52481545D01*
X90907142Y-52910117D02*
X90907142Y-52010117D01*
X90907142Y-52010117D02*
X91249999Y-52010117D01*
X91249999Y-52010117D02*
X91335714Y-52052974D01*
X91335714Y-52052974D02*
X91378571Y-52095831D01*
X91378571Y-52095831D02*
X91421428Y-52181545D01*
X91421428Y-52181545D02*
X91421428Y-52310117D01*
X91421428Y-52310117D02*
X91378571Y-52395831D01*
X91378571Y-52395831D02*
X91335714Y-52438688D01*
X91335714Y-52438688D02*
X91249999Y-52481545D01*
X91249999Y-52481545D02*
X90907142Y-52481545D01*
X92278571Y-52910117D02*
X91764285Y-52910117D01*
X92021428Y-52910117D02*
X92021428Y-52010117D01*
X92021428Y-52010117D02*
X91935714Y-52138688D01*
X91935714Y-52138688D02*
X91849999Y-52224402D01*
X91849999Y-52224402D02*
X91764285Y-52267260D01*
X93050000Y-52010117D02*
X92878571Y-52010117D01*
X92878571Y-52010117D02*
X92792857Y-52052974D01*
X92792857Y-52052974D02*
X92750000Y-52095831D01*
X92750000Y-52095831D02*
X92664285Y-52224402D01*
X92664285Y-52224402D02*
X92621428Y-52395831D01*
X92621428Y-52395831D02*
X92621428Y-52738688D01*
X92621428Y-52738688D02*
X92664285Y-52824402D01*
X92664285Y-52824402D02*
X92707142Y-52867260D01*
X92707142Y-52867260D02*
X92792857Y-52910117D01*
X92792857Y-52910117D02*
X92964285Y-52910117D01*
X92964285Y-52910117D02*
X93050000Y-52867260D01*
X93050000Y-52867260D02*
X93092857Y-52824402D01*
X93092857Y-52824402D02*
X93135714Y-52738688D01*
X93135714Y-52738688D02*
X93135714Y-52524402D01*
X93135714Y-52524402D02*
X93092857Y-52438688D01*
X93092857Y-52438688D02*
X93050000Y-52395831D01*
X93050000Y-52395831D02*
X92964285Y-52352974D01*
X92964285Y-52352974D02*
X92792857Y-52352974D01*
X92792857Y-52352974D02*
X92707142Y-52395831D01*
X92707142Y-52395831D02*
X92664285Y-52438688D01*
X92664285Y-52438688D02*
X92621428Y-52524402D01*
M02*
