%TF.GenerationSoftware,KiCad,Pcbnew,10.0.6*%
%TF.CreationDate,2026-09-09T21:24:54+03:00*%
%TF.ProjectId,candidate,63616e64-6964-4617-9465-2e6b69636164,rev?*%
%TF.SameCoordinates,Original*%
%TF.FileFunction,Copper,L2,Bot*%
%TF.FilePolarity,Positive*%
%FSLAX46Y46*%
G04 Gerber Fmt 4.6, Leading zero omitted, Abs format (unit mm)*
G04 Created by KiCad (PCBNEW 10.0.6) date 2026-09-09 21:24:54*
%MOMM*%
%LPD*%
G01*
G04 APERTURE LIST*
%TA.AperFunction,EtchedComponent*%
%ADD10C,0.700000*%
%TD*%
%TA.AperFunction,ComponentPad*%
%ADD11C,2.400000*%
%TD*%
%TA.AperFunction,ComponentPad*%
%ADD12C,3.500000*%
%TD*%
%TA.AperFunction,ComponentPad*%
%ADD13C,2.000000*%
%TD*%
%TA.AperFunction,SMDPad,CuDef*%
%ADD14R,2.000000X1.600000*%
%TD*%
%TA.AperFunction,Conductor*%
%ADD15C,1.200000*%
%TD*%
%TA.AperFunction,Conductor*%
%ADD16C,1.000000*%
%TD*%
%TA.AperFunction,Conductor*%
%ADD17C,0.800000*%
%TD*%
G04 APERTURE END LIST*
%TO.C,NT1*%
D10*
X133000000Y-133000000D02*
X133000000Y-136500000D01*
X133000000Y-133000000D02*
X136500000Y-136500000D01*
%TD*%
D11*
%TO.P,VD2,1*%
%TO.N,VIN_DC*%
X115810000Y-146000000D03*
%TO.P,VD2,2*%
%TO.N,B2*%
X108190000Y-146000000D03*
%TD*%
D12*
%TO.P,X2,1*%
%TO.N,VIN_DC*%
X117000000Y-133000000D03*
%TO.P,X2,2*%
%TO.N,GND*%
X122000000Y-133000000D03*
%TD*%
D11*
%TO.P,VD1,1*%
%TO.N,VIN_DC*%
X107810000Y-141000000D03*
%TO.P,VD1,2*%
%TO.N,B1*%
X100190000Y-141000000D03*
%TD*%
D13*
%TO.P,J27,1*%
%TO.N,+5V*%
X124000000Y-146000000D03*
%TO.P,J27,2*%
%TO.N,GND*%
X126540000Y-146000000D03*
%TD*%
%TO.P,C13,1*%
%TO.N,+5V*%
X122460000Y-139000000D03*
D14*
X123100000Y-139000000D03*
%TO.P,C13,2*%
%TO.N,GND*%
X126900000Y-139000000D03*
D13*
X127540000Y-139000000D03*
%TD*%
D12*
%TO.P,X6,1*%
%TO.N,B1*%
X98000000Y-157000000D03*
%TO.P,X6,2*%
%TO.N,B2*%
X103000000Y-157000000D03*
%TO.P,X6,3*%
%TO.N,GND*%
X108000000Y-157000000D03*
%TD*%
%TO.P,X1,1*%
%TO.N,B1*%
X98000000Y-133000000D03*
%TO.P,X1,2*%
%TO.N,B2*%
X103000000Y-133000000D03*
%TO.P,X1,3*%
%TO.N,GND*%
X108000000Y-133000000D03*
%TD*%
%TO.P,X3,1*%
%TO.N,+5V*%
X133000000Y-133000000D03*
%TO.P,X3,2*%
%TO.N,GND*%
X138000000Y-133000000D03*
%TD*%
D13*
%TO.P,J29,1*%
%TO.N,RELAY_IN1*%
X128000000Y-159000000D03*
%TO.P,J29,2*%
%TO.N,RELAY_IN2*%
X125460000Y-159000000D03*
%TO.P,J29,3*%
%TO.N,GND*%
X122920000Y-159000000D03*
%TD*%
%TO.P,J31,1*%
%TO.N,+5V*%
X124000000Y-152000000D03*
%TO.P,J31,2*%
%TO.N,GND*%
X126540000Y-152000000D03*
%TD*%
D14*
%TO.P,NT1,1*%
%TO.N,+5V*%
X133000000Y-133000000D03*
%TO.P,NT1,2*%
%TO.N,+5V_RELAY_VCC*%
X133000000Y-136500000D03*
%TO.P,NT1,3*%
%TO.N,+5V_RELAY_COIL*%
X136500000Y-136500000D03*
%TD*%
D13*
%TO.P,J8,1*%
%TO.N,RELAY_IN1*%
X138000000Y-157000000D03*
%TO.P,J8,2*%
%TO.N,GND*%
X140540000Y-157000000D03*
%TO.P,J8,3*%
%TO.N,RELAY_IN2*%
X143080000Y-157000000D03*
%TO.P,J8,4*%
%TO.N,+5V_RELAY_VCC*%
X145620000Y-157000000D03*
%TO.P,J8,5*%
%TO.N,+5V_RELAY_COIL*%
X148160000Y-157000000D03*
%TD*%
%TO.N,VIN_DC*%
D15*
X107810000Y-141000000D02*
X117000000Y-133000000D01*
X107810000Y-141000000D02*
X115810000Y-146000000D01*
%TO.N,B2*%
X103000000Y-157000000D02*
X108190000Y-146000000D01*
X102836285Y-139902172D02*
X108190000Y-146000000D01*
X103000000Y-133000000D02*
X102836285Y-139902172D01*
%TO.N,B1*%
X98000000Y-133000000D02*
X100190000Y-141000000D01*
X98000000Y-157000000D02*
X100190000Y-141000000D01*
%TO.N,+5V*%
D16*
X123100000Y-139000000D02*
X124000000Y-146000000D01*
X122460000Y-139000000D02*
X124685000Y-139800000D01*
X129100000Y-133000000D02*
X133000000Y-133000000D01*
X123100000Y-139000000D02*
X129100000Y-133000000D01*
X124000000Y-146000000D02*
X124000000Y-152000000D01*
X124685000Y-139800000D02*
X123100000Y-139000000D01*
%TO.N,RELAY_IN1*%
D17*
X128000000Y-159000000D02*
X138000000Y-157000000D01*
%TO.N,RELAY_IN2*%
X146946269Y-162680964D02*
X143080000Y-157000000D01*
X127901983Y-161110185D02*
X146946269Y-162680964D01*
X124553633Y-160343229D02*
X127901983Y-161110185D01*
X125460000Y-159000000D02*
X124553633Y-160343229D01*
%TO.N,+5V_RELAY_VCC*%
D16*
X133000000Y-136500000D02*
X144793425Y-155596366D01*
X144793425Y-155596366D02*
X145620000Y-157000000D01*
%TO.N,+5V_RELAY_COIL*%
X136500000Y-136500000D02*
X148160000Y-157000000D01*
%TD*%
%TA.AperFunction,Conductor*%
%TO.N,GND*%
G36*
X152189320Y-125593909D02*
G01*
X152290360Y-125648589D01*
X152368171Y-125733114D01*
X152414321Y-125838325D01*
X152425000Y-125923999D01*
X152425000Y-164076000D01*
X152406090Y-164189320D01*
X152351410Y-164290360D01*
X152266885Y-164368171D01*
X152161674Y-164414321D01*
X152076000Y-164425000D01*
X90923999Y-164425000D01*
X90810679Y-164406090D01*
X90709639Y-164351410D01*
X90631828Y-164266885D01*
X90585678Y-164161674D01*
X90574999Y-164076000D01*
X90574999Y-161372158D01*
X91549500Y-161372158D01*
X91549500Y-161627841D01*
X91582872Y-161881329D01*
X91582875Y-161881346D01*
X91649050Y-162128313D01*
X91649050Y-162128315D01*
X91746891Y-162364524D01*
X91746896Y-162364535D01*
X91746897Y-162364536D01*
X91874738Y-162585964D01*
X91874739Y-162585966D01*
X91961833Y-162699468D01*
X92030390Y-162788813D01*
X92030396Y-162788819D01*
X92030401Y-162788825D01*
X92211174Y-162969598D01*
X92211180Y-162969603D01*
X92211187Y-162969610D01*
X92308615Y-163044369D01*
X92414033Y-163125260D01*
X92414035Y-163125261D01*
X92635465Y-163253104D01*
X92871687Y-163350950D01*
X93118660Y-163417126D01*
X93372157Y-163450500D01*
X93372159Y-163450500D01*
X93627841Y-163450500D01*
X93627843Y-163450500D01*
X93881340Y-163417126D01*
X94128313Y-163350950D01*
X94364535Y-163253104D01*
X94585965Y-163125261D01*
X94788813Y-162969610D01*
X94969610Y-162788813D01*
X95125261Y-162585965D01*
X95253104Y-162364535D01*
X95350950Y-162128313D01*
X95417126Y-161881340D01*
X95450500Y-161627843D01*
X95450500Y-161372157D01*
X95417126Y-161118660D01*
X95350950Y-160871687D01*
X95336414Y-160836595D01*
X95289248Y-160722725D01*
X95253104Y-160635465D01*
X95125261Y-160414035D01*
X95125260Y-160414033D01*
X95057466Y-160325683D01*
X94969610Y-160211187D01*
X94969603Y-160211180D01*
X94969598Y-160211174D01*
X94788825Y-160030401D01*
X94788819Y-160030396D01*
X94788813Y-160030390D01*
X94699468Y-159961833D01*
X94585966Y-159874739D01*
X94585964Y-159874738D01*
X94475250Y-159810817D01*
X94364535Y-159746896D01*
X94364529Y-159746893D01*
X94364524Y-159746891D01*
X94128314Y-159649050D01*
X93881346Y-159582875D01*
X93881329Y-159582872D01*
X93709726Y-159560280D01*
X93627843Y-159549500D01*
X93372157Y-159549500D01*
X93301660Y-159558781D01*
X93118670Y-159582872D01*
X93118653Y-159582875D01*
X92871686Y-159649050D01*
X92871684Y-159649050D01*
X92635475Y-159746891D01*
X92635463Y-159746897D01*
X92414035Y-159874738D01*
X92414033Y-159874739D01*
X92211192Y-160030386D01*
X92211174Y-160030401D01*
X92030401Y-160211174D01*
X92030386Y-160211192D01*
X91874739Y-160414033D01*
X91874738Y-160414035D01*
X91746897Y-160635463D01*
X91746891Y-160635475D01*
X91649050Y-160871684D01*
X91649050Y-160871686D01*
X91582875Y-161118653D01*
X91582872Y-161118670D01*
X91558078Y-161306999D01*
X91552547Y-161349017D01*
X91549500Y-161372158D01*
X90574999Y-161372158D01*
X90574999Y-132845535D01*
X95249500Y-132845535D01*
X95249500Y-133154465D01*
X95281672Y-133439998D01*
X95284090Y-133461457D01*
X95352830Y-133762629D01*
X95352835Y-133762646D01*
X95454863Y-134054224D01*
X95454871Y-134054244D01*
X95550585Y-134252994D01*
X95588905Y-134332565D01*
X95588909Y-134332571D01*
X95743299Y-134578283D01*
X95753265Y-134594143D01*
X95809277Y-134664380D01*
X95945874Y-134835667D01*
X95945881Y-134835675D01*
X96164324Y-135054118D01*
X96164332Y-135054125D01*
X96211458Y-135091707D01*
X96405857Y-135246735D01*
X96667435Y-135411095D01*
X96908032Y-135526960D01*
X97001924Y-135593165D01*
X97069233Y-135686270D01*
X97093220Y-135749250D01*
X98211594Y-139834639D01*
X98223276Y-139948930D01*
X98197414Y-140060341D01*
X98101810Y-140291152D01*
X98101807Y-140291162D01*
X98027152Y-140569777D01*
X98027149Y-140569793D01*
X97989500Y-140855767D01*
X97989500Y-141144232D01*
X98027149Y-141430206D01*
X98027150Y-141430215D01*
X98027151Y-141430217D01*
X98101809Y-141708845D01*
X98212196Y-141975345D01*
X98337480Y-142192343D01*
X98377762Y-142299932D01*
X98381012Y-142414168D01*
X96741133Y-154395013D01*
X96707030Y-154504722D01*
X96639153Y-154597414D01*
X96581038Y-154643191D01*
X96405857Y-154753265D01*
X96405854Y-154753267D01*
X96164332Y-154945874D01*
X96164324Y-154945881D01*
X95945881Y-155164324D01*
X95945874Y-155164332D01*
X95753267Y-155405854D01*
X95753263Y-155405859D01*
X95588909Y-155667428D01*
X95588897Y-155667450D01*
X95454871Y-155945755D01*
X95454863Y-155945775D01*
X95352835Y-156237353D01*
X95352830Y-156237370D01*
X95310230Y-156424015D01*
X95284089Y-156538548D01*
X95249500Y-156845535D01*
X95249500Y-157154465D01*
X95284089Y-157461452D01*
X95284090Y-157461457D01*
X95352830Y-157762629D01*
X95352835Y-157762646D01*
X95454863Y-158054224D01*
X95454871Y-158054244D01*
X95588897Y-158332549D01*
X95588905Y-158332565D01*
X95625349Y-158390565D01*
X95744364Y-158579978D01*
X95753265Y-158594143D01*
X95819601Y-158677325D01*
X95908824Y-158789208D01*
X95945880Y-158835674D01*
X96164326Y-159054120D01*
X96405857Y-159246735D01*
X96667435Y-159411095D01*
X96667450Y-159411102D01*
X96945755Y-159545128D01*
X96945763Y-159545131D01*
X96945771Y-159545135D01*
X97237364Y-159647168D01*
X97538548Y-159715911D01*
X97845535Y-159750500D01*
X97845539Y-159750500D01*
X98154461Y-159750500D01*
X98154465Y-159750500D01*
X98461452Y-159715911D01*
X98762636Y-159647168D01*
X99054229Y-159545135D01*
X99332565Y-159411095D01*
X99594143Y-159246735D01*
X99835674Y-159054120D01*
X100054120Y-158835674D01*
X100227143Y-158618709D01*
X100312578Y-158541905D01*
X100418326Y-158497001D01*
X100532925Y-158488867D01*
X100643956Y-158518383D01*
X100739387Y-158582351D01*
X100772852Y-158618704D01*
X100819601Y-158677325D01*
X100945876Y-158835670D01*
X100945880Y-158835674D01*
X101164326Y-159054120D01*
X101405857Y-159246735D01*
X101667435Y-159411095D01*
X101667450Y-159411102D01*
X101945755Y-159545128D01*
X101945763Y-159545131D01*
X101945771Y-159545135D01*
X102237364Y-159647168D01*
X102538548Y-159715911D01*
X102845535Y-159750500D01*
X102845539Y-159750500D01*
X103154461Y-159750500D01*
X103154465Y-159750500D01*
X103461452Y-159715911D01*
X103762636Y-159647168D01*
X104054229Y-159545135D01*
X104332565Y-159411095D01*
X104594143Y-159246735D01*
X104835674Y-159054120D01*
X105054120Y-158835674D01*
X105246735Y-158594143D01*
X105411095Y-158332565D01*
X105545135Y-158054229D01*
X105647168Y-157762636D01*
X105715911Y-157461452D01*
X105750500Y-157154465D01*
X105750500Y-156845535D01*
X105715911Y-156538548D01*
X105647168Y-156237364D01*
X105545135Y-155945771D01*
X105545127Y-155945755D01*
X105476880Y-155804038D01*
X105444749Y-155693736D01*
X105450174Y-155578977D01*
X105475683Y-155503697D01*
X108935298Y-148171182D01*
X109000751Y-148076770D01*
X109093318Y-148008723D01*
X109117347Y-147997684D01*
X109165345Y-147977804D01*
X109415156Y-147833575D01*
X109644004Y-147657974D01*
X109847974Y-147454004D01*
X110023575Y-147225156D01*
X110167804Y-146975345D01*
X110278191Y-146708845D01*
X110352849Y-146430217D01*
X110370160Y-146298724D01*
X110390500Y-146144232D01*
X110390500Y-145855767D01*
X110352850Y-145569793D01*
X110352849Y-145569783D01*
X110278191Y-145291155D01*
X110214186Y-145136632D01*
X110188293Y-145024705D01*
X110200145Y-144910431D01*
X110248459Y-144806197D01*
X110328001Y-144723299D01*
X110430150Y-144670719D01*
X110543836Y-144654156D01*
X110656741Y-144675404D01*
X110721586Y-144707127D01*
X113564510Y-146483954D01*
X113650581Y-146560047D01*
X113707282Y-146659966D01*
X113716641Y-146689560D01*
X113721809Y-146708845D01*
X113832196Y-146975345D01*
X113976425Y-147225156D01*
X114152026Y-147454004D01*
X114355996Y-147657974D01*
X114584844Y-147833575D01*
X114834655Y-147977804D01*
X115101155Y-148088191D01*
X115379783Y-148162849D01*
X115443117Y-148171187D01*
X115665767Y-148200500D01*
X115665772Y-148200500D01*
X115954233Y-148200500D01*
X116124369Y-148178100D01*
X116240217Y-148162849D01*
X116518845Y-148088191D01*
X116785345Y-147977804D01*
X117035156Y-147833575D01*
X117264004Y-147657974D01*
X117467974Y-147454004D01*
X117643575Y-147225156D01*
X117787804Y-146975345D01*
X117898191Y-146708845D01*
X117972849Y-146430217D01*
X117990160Y-146298724D01*
X118010500Y-146144232D01*
X118010500Y-145855767D01*
X117972850Y-145569793D01*
X117972849Y-145569783D01*
X117898191Y-145291155D01*
X117787804Y-145024655D01*
X117643575Y-144774844D01*
X117467974Y-144545996D01*
X117264004Y-144342026D01*
X117035156Y-144166425D01*
X117035154Y-144166424D01*
X117035155Y-144166424D01*
X116785350Y-144022199D01*
X116785343Y-144022195D01*
X116730145Y-143999332D01*
X116518845Y-143911809D01*
X116436065Y-143889628D01*
X116240222Y-143837152D01*
X116240206Y-143837149D01*
X115954233Y-143799500D01*
X115954228Y-143799500D01*
X115665772Y-143799500D01*
X115665767Y-143799500D01*
X115495341Y-143821937D01*
X115380522Y-143817980D01*
X115273209Y-143776956D01*
X115264817Y-143771874D01*
X110890550Y-141037957D01*
X110804477Y-140961862D01*
X110747776Y-140861943D01*
X110726591Y-140749026D01*
X110743217Y-140635348D01*
X110795854Y-140533229D01*
X110846372Y-140478772D01*
X112680775Y-138881903D01*
X120959500Y-138881903D01*
X120959500Y-139118096D01*
X120996445Y-139351361D01*
X120996449Y-139351376D01*
X121069429Y-139575984D01*
X121069436Y-139576000D01*
X121176653Y-139786427D01*
X121176656Y-139786432D01*
X121197863Y-139815621D01*
X121315483Y-139977510D01*
X121482490Y-140144517D01*
X121635302Y-140255542D01*
X121673567Y-140283343D01*
X121673572Y-140283346D01*
X121766968Y-140330933D01*
X121884008Y-140390568D01*
X121918926Y-140401913D01*
X122020853Y-140454914D01*
X122100051Y-140538140D01*
X122147935Y-140642573D01*
X122157228Y-140689326D01*
X122720686Y-145071775D01*
X122716381Y-145186581D01*
X122685497Y-145274721D01*
X122609434Y-145424003D01*
X122609429Y-145424015D01*
X122536449Y-145648623D01*
X122536445Y-145648638D01*
X122499500Y-145881903D01*
X122499500Y-146118096D01*
X122536445Y-146351361D01*
X122536449Y-146351376D01*
X122609429Y-146575984D01*
X122609436Y-146576000D01*
X122716653Y-146786427D01*
X122716656Y-146786432D01*
X122782847Y-146877535D01*
X122834156Y-146980328D01*
X122849500Y-147082673D01*
X122849500Y-150917327D01*
X122830590Y-151030647D01*
X122782848Y-151122463D01*
X122716655Y-151213569D01*
X122716653Y-151213572D01*
X122609436Y-151423999D01*
X122609429Y-151424015D01*
X122536449Y-151648623D01*
X122536445Y-151648638D01*
X122499500Y-151881903D01*
X122499500Y-152118096D01*
X122536445Y-152351361D01*
X122536449Y-152351376D01*
X122609429Y-152575984D01*
X122609436Y-152576000D01*
X122716653Y-152786427D01*
X122716656Y-152786432D01*
X122716657Y-152786433D01*
X122855483Y-152977510D01*
X123022490Y-153144517D01*
X123213567Y-153283343D01*
X123213572Y-153283346D01*
X123323411Y-153339311D01*
X123424008Y-153390568D01*
X123648632Y-153463553D01*
X123881908Y-153500500D01*
X123881912Y-153500500D01*
X124118088Y-153500500D01*
X124118092Y-153500500D01*
X124351368Y-153463553D01*
X124575992Y-153390568D01*
X124786433Y-153283343D01*
X124977510Y-153144517D01*
X125144517Y-152977510D01*
X125283343Y-152786433D01*
X125390568Y-152575992D01*
X125463553Y-152351368D01*
X125500500Y-152118092D01*
X125500500Y-151881908D01*
X125463553Y-151648632D01*
X125390568Y-151424008D01*
X125283343Y-151213567D01*
X125217151Y-151122462D01*
X125165843Y-151019670D01*
X125150500Y-150917327D01*
X125150500Y-147082673D01*
X125169410Y-146969353D01*
X125217153Y-146877535D01*
X125283343Y-146786433D01*
X125390568Y-146575992D01*
X125463553Y-146351368D01*
X125500500Y-146118092D01*
X125500500Y-145881908D01*
X125463553Y-145648632D01*
X125390568Y-145424008D01*
X125283343Y-145213567D01*
X125144517Y-145022490D01*
X125102215Y-144980188D01*
X125035457Y-144886688D01*
X125002844Y-144777913D01*
X124559291Y-141328056D01*
X124563596Y-141213254D01*
X124604945Y-141106066D01*
X124678857Y-141018111D01*
X124775574Y-140959618D01*
X124812302Y-140944893D01*
X124849561Y-140938846D01*
X124919500Y-140929982D01*
X124938813Y-140924362D01*
X124958687Y-140921137D01*
X125025686Y-140899084D01*
X125093381Y-140879387D01*
X125111587Y-140870810D01*
X125130702Y-140864519D01*
X125193401Y-140832269D01*
X125257207Y-140802213D01*
X125273850Y-140790891D01*
X125291741Y-140781690D01*
X125348632Y-140740024D01*
X125406942Y-140700361D01*
X125406950Y-140700352D01*
X125410382Y-140697602D01*
X125434512Y-140677554D01*
X125437836Y-140674694D01*
X125437838Y-140674691D01*
X125437842Y-140674689D01*
X125483264Y-140628917D01*
X125491926Y-140620488D01*
X125538902Y-140576339D01*
X125538905Y-140576334D01*
X125541893Y-140573048D01*
X125562488Y-140549588D01*
X125565393Y-140546159D01*
X125565404Y-140546149D01*
X125603093Y-140493854D01*
X125610340Y-140484159D01*
X125649834Y-140433201D01*
X125649837Y-140433195D01*
X125652288Y-140429460D01*
X125668977Y-140403038D01*
X125671289Y-140399235D01*
X125675666Y-140390563D01*
X125700347Y-140341660D01*
X125705984Y-140330960D01*
X125737010Y-140274472D01*
X125737013Y-140274462D01*
X125738846Y-140270398D01*
X125751224Y-140241628D01*
X125752879Y-140237585D01*
X125752887Y-140237571D01*
X125772583Y-140176153D01*
X125776485Y-140164682D01*
X125798282Y-140104060D01*
X125798284Y-140104049D01*
X125799437Y-140099828D01*
X125807183Y-140069388D01*
X125808186Y-140065139D01*
X125808190Y-140065129D01*
X125818036Y-140001388D01*
X125820084Y-139989504D01*
X125832141Y-139926161D01*
X125832141Y-139926155D01*
X125832628Y-139921732D01*
X125835508Y-139890565D01*
X125835838Y-139886158D01*
X125835591Y-139821711D01*
X125835756Y-139809546D01*
X125836474Y-139786432D01*
X125837754Y-139745155D01*
X125837753Y-139745151D01*
X125837543Y-139740742D01*
X125835506Y-139709421D01*
X125835147Y-139705074D01*
X125835147Y-139705067D01*
X125824814Y-139641404D01*
X125823087Y-139629453D01*
X125814982Y-139565499D01*
X125814977Y-139565484D01*
X125814067Y-139561094D01*
X125807180Y-139530589D01*
X125806137Y-139526316D01*
X125806137Y-139526314D01*
X125785962Y-139465019D01*
X125782393Y-139453505D01*
X125764386Y-139391619D01*
X125764385Y-139391617D01*
X125762812Y-139387461D01*
X125751207Y-139358329D01*
X125749521Y-139354302D01*
X125749520Y-139354301D01*
X125749520Y-139354299D01*
X125720020Y-139296946D01*
X125714664Y-139286069D01*
X125687211Y-139227791D01*
X125685028Y-139223967D01*
X125669010Y-139197013D01*
X125666690Y-139193259D01*
X125628614Y-139141270D01*
X125621608Y-139131346D01*
X125585364Y-139078063D01*
X125585361Y-139078058D01*
X125585354Y-139078050D01*
X125582592Y-139074606D01*
X125562526Y-139050453D01*
X125559691Y-139047160D01*
X125513938Y-139001755D01*
X125505462Y-138993045D01*
X125461341Y-138946100D01*
X125458134Y-138943184D01*
X125434426Y-138922372D01*
X125431158Y-138919603D01*
X125431150Y-138919597D01*
X125431149Y-138919596D01*
X125401471Y-138898206D01*
X125320598Y-138816609D01*
X125270600Y-138713172D01*
X125256897Y-138599106D01*
X125280974Y-138486770D01*
X125340221Y-138388338D01*
X125358737Y-138368314D01*
X129474333Y-134252720D01*
X129567833Y-134185962D01*
X129677944Y-134153180D01*
X129721113Y-134150500D01*
X130874008Y-134150500D01*
X130987328Y-134169410D01*
X131088368Y-134224090D01*
X131150888Y-134287042D01*
X131304349Y-134487036D01*
X131304365Y-134487054D01*
X131512945Y-134695634D01*
X131512954Y-134695642D01*
X131512958Y-134695646D01*
X131512961Y-134695648D01*
X131512963Y-134695650D01*
X131638265Y-134791798D01*
X131716657Y-134875785D01*
X131763530Y-134980676D01*
X131773805Y-135095102D01*
X131746370Y-135206665D01*
X131684196Y-135303275D01*
X131655809Y-135329097D01*
X131642457Y-135342449D01*
X131556202Y-135457670D01*
X131505909Y-135592515D01*
X131499500Y-135652129D01*
X131499500Y-137347870D01*
X131505909Y-137407485D01*
X131505910Y-137407488D01*
X131556202Y-137542328D01*
X131556203Y-137542330D01*
X131556204Y-137542331D01*
X131642454Y-137657546D01*
X131721411Y-137716653D01*
X131757670Y-137743797D01*
X131825093Y-137768943D01*
X131892517Y-137794091D01*
X131952127Y-137800500D01*
X132256284Y-137800499D01*
X132369602Y-137819408D01*
X132470642Y-137874088D01*
X132548453Y-137958613D01*
X132553221Y-137966118D01*
X143068530Y-154992911D01*
X143111985Y-155099262D01*
X143118553Y-155213962D01*
X143087523Y-155324579D01*
X143022256Y-155419126D01*
X142929826Y-155487359D01*
X142826190Y-155520995D01*
X142728633Y-155536446D01*
X142728623Y-155536449D01*
X142504015Y-155609429D01*
X142503999Y-155609436D01*
X142293572Y-155716653D01*
X142293567Y-155716656D01*
X142102488Y-155855484D01*
X141935484Y-156022488D01*
X141796656Y-156213567D01*
X141796653Y-156213572D01*
X141689436Y-156423999D01*
X141689429Y-156424015D01*
X141616449Y-156648623D01*
X141616445Y-156648638D01*
X141579500Y-156881903D01*
X141579500Y-157118096D01*
X141616445Y-157351361D01*
X141616449Y-157351376D01*
X141689429Y-157575984D01*
X141689436Y-157576000D01*
X141796653Y-157786427D01*
X141796656Y-157786432D01*
X141796657Y-157786433D01*
X141935483Y-157977510D01*
X142102490Y-158144517D01*
X142197529Y-158213567D01*
X142293567Y-158283343D01*
X142293572Y-158283346D01*
X142324413Y-158299060D01*
X142504008Y-158390568D01*
X142713606Y-158458671D01*
X142815534Y-158511672D01*
X142894277Y-158594230D01*
X144428733Y-160848908D01*
X144476858Y-160953230D01*
X144488501Y-161067526D01*
X144462402Y-161179409D01*
X144401389Y-161276756D01*
X144312073Y-161349017D01*
X144204133Y-161388362D01*
X144111524Y-161393085D01*
X130496088Y-160270079D01*
X130384706Y-160241918D01*
X130288502Y-160179117D01*
X130217903Y-160088482D01*
X130180558Y-159979834D01*
X130180514Y-159864947D01*
X130217777Y-159756271D01*
X130288307Y-159665582D01*
X130384463Y-159602708D01*
X130456325Y-159580038D01*
X137017529Y-158267797D01*
X137132354Y-158264117D01*
X137242156Y-158297920D01*
X137244344Y-158299024D01*
X137424008Y-158390568D01*
X137648632Y-158463553D01*
X137881908Y-158500500D01*
X137881912Y-158500500D01*
X138118088Y-158500500D01*
X138118092Y-158500500D01*
X138351368Y-158463553D01*
X138575992Y-158390568D01*
X138786433Y-158283343D01*
X138977510Y-158144517D01*
X139144517Y-157977510D01*
X139283343Y-157786433D01*
X139390568Y-157575992D01*
X139463553Y-157351368D01*
X139500500Y-157118092D01*
X139500500Y-156881908D01*
X139463553Y-156648632D01*
X139390568Y-156424008D01*
X139339311Y-156323411D01*
X139283346Y-156213572D01*
X139283343Y-156213567D01*
X139179205Y-156070234D01*
X139144517Y-156022490D01*
X138977510Y-155855483D01*
X138786433Y-155716657D01*
X138786434Y-155716657D01*
X138786432Y-155716656D01*
X138786427Y-155716653D01*
X138576000Y-155609436D01*
X138575998Y-155609435D01*
X138575992Y-155609432D01*
X138575987Y-155609430D01*
X138575984Y-155609429D01*
X138351376Y-155536449D01*
X138351361Y-155536445D01*
X138118096Y-155499500D01*
X138118092Y-155499500D01*
X137881908Y-155499500D01*
X137881903Y-155499500D01*
X137648638Y-155536445D01*
X137648623Y-155536449D01*
X137424015Y-155609429D01*
X137423999Y-155609436D01*
X137213572Y-155716653D01*
X137213567Y-155716656D01*
X137022491Y-155855482D01*
X136855481Y-156022491D01*
X136855479Y-156022494D01*
X136820793Y-156070234D01*
X136738886Y-156150796D01*
X136635258Y-156200397D01*
X136606895Y-156207315D01*
X128982471Y-157732200D01*
X128867643Y-157735881D01*
X128757841Y-157702078D01*
X128755654Y-157700974D01*
X128575992Y-157609432D01*
X128575986Y-157609430D01*
X128575984Y-157609429D01*
X128351376Y-157536449D01*
X128351361Y-157536445D01*
X128118096Y-157499500D01*
X128118092Y-157499500D01*
X127881908Y-157499500D01*
X127881903Y-157499500D01*
X127648638Y-157536445D01*
X127648623Y-157536449D01*
X127424015Y-157609429D01*
X127423999Y-157609436D01*
X127213572Y-157716653D01*
X127213567Y-157716656D01*
X127022487Y-157855485D01*
X126976778Y-157901194D01*
X126883277Y-157967952D01*
X126773166Y-158000732D01*
X126658377Y-157995984D01*
X126551349Y-157954220D01*
X126483222Y-157901194D01*
X126437512Y-157855485D01*
X126437511Y-157855484D01*
X126437510Y-157855483D01*
X126305525Y-157759590D01*
X126246432Y-157716656D01*
X126246427Y-157716653D01*
X126036000Y-157609436D01*
X126035998Y-157609435D01*
X126035992Y-157609432D01*
X126035987Y-157609430D01*
X126035984Y-157609429D01*
X125811376Y-157536449D01*
X125811361Y-157536445D01*
X125578096Y-157499500D01*
X125578092Y-157499500D01*
X125341908Y-157499500D01*
X125341903Y-157499500D01*
X125108638Y-157536445D01*
X125108623Y-157536449D01*
X124884015Y-157609429D01*
X124883999Y-157609436D01*
X124673572Y-157716653D01*
X124673567Y-157716656D01*
X124482488Y-157855484D01*
X124315484Y-158022488D01*
X124176656Y-158213567D01*
X124176653Y-158213572D01*
X124069436Y-158423999D01*
X124069429Y-158424015D01*
X123996449Y-158648623D01*
X123996445Y-158648638D01*
X123959500Y-158881903D01*
X123959500Y-159118098D01*
X123967175Y-159166552D01*
X123966225Y-159281435D01*
X123928024Y-159389785D01*
X123911771Y-159416356D01*
X123692321Y-159741579D01*
X123687497Y-159748545D01*
X123637414Y-159819014D01*
X123631035Y-159830163D01*
X123624964Y-159841399D01*
X123591500Y-159921161D01*
X123588131Y-159928925D01*
X123552752Y-160007828D01*
X123548677Y-160019988D01*
X123544904Y-160032227D01*
X123527653Y-160116943D01*
X123525863Y-160125222D01*
X123506548Y-160209546D01*
X123504927Y-160222240D01*
X123503613Y-160234992D01*
X123503221Y-160321430D01*
X123503080Y-160329903D01*
X123500587Y-160416378D01*
X123501473Y-160429134D01*
X123502674Y-160441921D01*
X123519159Y-160526816D01*
X123520671Y-160535143D01*
X123535092Y-160620412D01*
X123538470Y-160632822D01*
X123542120Y-160645054D01*
X123574848Y-160725091D01*
X123577945Y-160732934D01*
X123604280Y-160802086D01*
X123608737Y-160813789D01*
X123614473Y-160825307D01*
X123620438Y-160836590D01*
X123668143Y-160908691D01*
X123672733Y-160915815D01*
X123718695Y-160989089D01*
X123726517Y-160999201D01*
X123734620Y-161009166D01*
X123734623Y-161009171D01*
X123734626Y-161009174D01*
X123734631Y-161009180D01*
X123795476Y-161070579D01*
X123801366Y-161076668D01*
X123860747Y-161139573D01*
X123870402Y-161147974D01*
X123880276Y-161156152D01*
X123880280Y-161156156D01*
X123952038Y-161204576D01*
X123958877Y-161209313D01*
X124012738Y-161247592D01*
X124029415Y-161259445D01*
X124040539Y-161265808D01*
X124051808Y-161271899D01*
X124051810Y-161271900D01*
X124051812Y-161271901D01*
X124131593Y-161305372D01*
X124139313Y-161308723D01*
X124218222Y-161344105D01*
X124218226Y-161344106D01*
X124218232Y-161344109D01*
X124218238Y-161344110D01*
X124230388Y-161348182D01*
X124242621Y-161351953D01*
X124242630Y-161351957D01*
X124327390Y-161369216D01*
X124335642Y-161371001D01*
X127630970Y-162125813D01*
X127648994Y-162130452D01*
X127712516Y-162148625D01*
X127715824Y-162148897D01*
X127765062Y-162156527D01*
X127768289Y-162157267D01*
X127834322Y-162159170D01*
X127852893Y-162160203D01*
X146786255Y-163721832D01*
X146822720Y-163726788D01*
X146851752Y-163732307D01*
X146907483Y-163731832D01*
X146963031Y-163736414D01*
X147010699Y-163730953D01*
X147058675Y-163730545D01*
X147097719Y-163722432D01*
X147129001Y-163717402D01*
X147168610Y-163712865D01*
X147168610Y-163712864D01*
X147168618Y-163712864D01*
X147196761Y-163703835D01*
X147232338Y-163694461D01*
X147261278Y-163688449D01*
X147298006Y-163672867D01*
X147327695Y-163661835D01*
X147365658Y-163649658D01*
X147391501Y-163635312D01*
X147424568Y-163619175D01*
X147451776Y-163607634D01*
X147497848Y-163576278D01*
X147546583Y-163549226D01*
X147583186Y-163518200D01*
X147622847Y-163491209D01*
X147661917Y-163451467D01*
X147704438Y-163415427D01*
X147734282Y-163377860D01*
X147767918Y-163343647D01*
X147798490Y-163297036D01*
X147833156Y-163253402D01*
X147855095Y-163210740D01*
X147881413Y-163170618D01*
X147884884Y-163162029D01*
X147914625Y-163131347D01*
X147934560Y-163116638D01*
X147951378Y-163098438D01*
X147980478Y-163082759D01*
X148007073Y-163063138D01*
X148030704Y-163055699D01*
X148052520Y-163043946D01*
X148085134Y-163038566D01*
X148116659Y-163028643D01*
X148141428Y-163029280D01*
X148165875Y-163025248D01*
X148198463Y-163030748D01*
X148231508Y-163031599D01*
X148254730Y-163040245D01*
X148279160Y-163044369D01*
X148309189Y-163060522D01*
X148339174Y-163071687D01*
X148356744Y-163086103D01*
X148377683Y-163097367D01*
X148414033Y-163125260D01*
X148414035Y-163125261D01*
X148635465Y-163253104D01*
X148871687Y-163350950D01*
X149118660Y-163417126D01*
X149372157Y-163450500D01*
X149372159Y-163450500D01*
X149627841Y-163450500D01*
X149627843Y-163450500D01*
X149881340Y-163417126D01*
X150128313Y-163350950D01*
X150364535Y-163253104D01*
X150585965Y-163125261D01*
X150788813Y-162969610D01*
X150969610Y-162788813D01*
X151125261Y-162585965D01*
X151253104Y-162364535D01*
X151350950Y-162128313D01*
X151417126Y-161881340D01*
X151450500Y-161627843D01*
X151450500Y-161372157D01*
X151417126Y-161118660D01*
X151350950Y-160871687D01*
X151336414Y-160836595D01*
X151289248Y-160722725D01*
X151253104Y-160635465D01*
X151125261Y-160414035D01*
X151125260Y-160414033D01*
X151057466Y-160325683D01*
X150969610Y-160211187D01*
X150969603Y-160211180D01*
X150969598Y-160211174D01*
X150788825Y-160030401D01*
X150788819Y-160030396D01*
X150788813Y-160030390D01*
X150699468Y-159961833D01*
X150585966Y-159874739D01*
X150585964Y-159874738D01*
X150475250Y-159810817D01*
X150364535Y-159746896D01*
X150364529Y-159746893D01*
X150364524Y-159746891D01*
X150128314Y-159649050D01*
X149881346Y-159582875D01*
X149881329Y-159582872D01*
X149709726Y-159560280D01*
X149627843Y-159549500D01*
X149372157Y-159549500D01*
X149301660Y-159558781D01*
X149118670Y-159582872D01*
X149118653Y-159582875D01*
X148871686Y-159649050D01*
X148871684Y-159649050D01*
X148635475Y-159746891D01*
X148635463Y-159746897D01*
X148414035Y-159874738D01*
X148414033Y-159874739D01*
X148211192Y-160030386D01*
X148211174Y-160030401D01*
X148030401Y-160211174D01*
X148030386Y-160211192D01*
X147874739Y-160414033D01*
X147874738Y-160414035D01*
X147746897Y-160635463D01*
X147746893Y-160635471D01*
X147645373Y-160880562D01*
X147584536Y-160978020D01*
X147495352Y-161050443D01*
X147387484Y-161089984D01*
X147272622Y-161092359D01*
X147163212Y-161057308D01*
X147071111Y-160988632D01*
X147034421Y-160943367D01*
X145792201Y-159118092D01*
X145717158Y-159007826D01*
X145669033Y-158903504D01*
X145657390Y-158789208D01*
X145683489Y-158677325D01*
X145744502Y-158579978D01*
X145833818Y-158507717D01*
X145941758Y-158468372D01*
X145950993Y-158466779D01*
X145971368Y-158463553D01*
X146195992Y-158390568D01*
X146406433Y-158283343D01*
X146597510Y-158144517D01*
X146643220Y-158098807D01*
X146736720Y-158032049D01*
X146846831Y-157999267D01*
X146961620Y-158004015D01*
X147068648Y-158045777D01*
X147136780Y-158098807D01*
X147182490Y-158144517D01*
X147277529Y-158213567D01*
X147373567Y-158283343D01*
X147373572Y-158283346D01*
X147404413Y-158299060D01*
X147584008Y-158390568D01*
X147808632Y-158463553D01*
X148041908Y-158500500D01*
X148041912Y-158500500D01*
X148278088Y-158500500D01*
X148278092Y-158500500D01*
X148511368Y-158463553D01*
X148735992Y-158390568D01*
X148946433Y-158283343D01*
X149137510Y-158144517D01*
X149304517Y-157977510D01*
X149443343Y-157786433D01*
X149550568Y-157575992D01*
X149623553Y-157351368D01*
X149660500Y-157118092D01*
X149660500Y-156881908D01*
X149623553Y-156648632D01*
X149550568Y-156424008D01*
X149499311Y-156323411D01*
X149443346Y-156213572D01*
X149443343Y-156213567D01*
X149339205Y-156070234D01*
X149304517Y-156022490D01*
X149137510Y-155855483D01*
X148946433Y-155716657D01*
X148946434Y-155716657D01*
X148946432Y-155716656D01*
X148768169Y-155625827D01*
X148675785Y-155557532D01*
X148623252Y-155487416D01*
X140199691Y-140677554D01*
X138046137Y-136891288D01*
X138006548Y-136783437D01*
X138000499Y-136718741D01*
X138000499Y-135652129D01*
X137999965Y-135647164D01*
X137994091Y-135592517D01*
X137943796Y-135457669D01*
X137857546Y-135342454D01*
X137769288Y-135276384D01*
X137742329Y-135256202D01*
X137607483Y-135205909D01*
X137607485Y-135205909D01*
X137577678Y-135202704D01*
X137547873Y-135199500D01*
X137547871Y-135199500D01*
X136546848Y-135199500D01*
X136433528Y-135180590D01*
X136332488Y-135125910D01*
X136300068Y-135097280D01*
X135234183Y-134031395D01*
X135167425Y-133937895D01*
X135134643Y-133827784D01*
X135139391Y-133712995D01*
X135143850Y-133694307D01*
X135211993Y-133439993D01*
X135249584Y-133154465D01*
X135250500Y-133147510D01*
X135250500Y-132852489D01*
X135211994Y-132560016D01*
X135211993Y-132560007D01*
X135135639Y-132275048D01*
X135125470Y-132250499D01*
X135022744Y-132002495D01*
X135022744Y-132002494D01*
X134900839Y-131791349D01*
X134875238Y-131747006D01*
X134814181Y-131667435D01*
X134695650Y-131512963D01*
X134695634Y-131512945D01*
X134487054Y-131304365D01*
X134487036Y-131304349D01*
X134253001Y-131124767D01*
X134252997Y-131124764D01*
X134252994Y-131124762D01*
X134213469Y-131101942D01*
X133997505Y-130977255D01*
X133724954Y-130864361D01*
X133724948Y-130864360D01*
X133440003Y-130788009D01*
X133439983Y-130788005D01*
X133147511Y-130749500D01*
X133147506Y-130749500D01*
X132852494Y-130749500D01*
X132852489Y-130749500D01*
X132560016Y-130788005D01*
X132559996Y-130788009D01*
X132275051Y-130864360D01*
X132275045Y-130864361D01*
X132002495Y-130977255D01*
X132002494Y-130977255D01*
X131747007Y-131124761D01*
X131746998Y-131124767D01*
X131512963Y-131304349D01*
X131512945Y-131304365D01*
X131304365Y-131512945D01*
X131304349Y-131512963D01*
X131150888Y-131712958D01*
X131066901Y-131791349D01*
X130962011Y-131838223D01*
X130874008Y-131849500D01*
X129204975Y-131849500D01*
X129204951Y-131849499D01*
X129190546Y-131849499D01*
X129009453Y-131849499D01*
X129009452Y-131849499D01*
X128830590Y-131877829D01*
X128658370Y-131933785D01*
X128658356Y-131933791D01*
X128497019Y-132015996D01*
X128497003Y-132016006D01*
X128350499Y-132122447D01*
X128350495Y-132122450D01*
X128222444Y-132250502D01*
X123045130Y-137427815D01*
X122951630Y-137494573D01*
X122841519Y-137527355D01*
X122743755Y-137525738D01*
X122578096Y-137499500D01*
X122578092Y-137499500D01*
X122341908Y-137499500D01*
X122341903Y-137499500D01*
X122108638Y-137536445D01*
X122108623Y-137536449D01*
X121884015Y-137609429D01*
X121883999Y-137609436D01*
X121673572Y-137716653D01*
X121673567Y-137716656D01*
X121482488Y-137855484D01*
X121315484Y-138022488D01*
X121176656Y-138213567D01*
X121176653Y-138213572D01*
X121069436Y-138423999D01*
X121069429Y-138424015D01*
X120996449Y-138648623D01*
X120996445Y-138648638D01*
X120959500Y-138881903D01*
X112680775Y-138881903D01*
X116229759Y-135792472D01*
X116327644Y-135732333D01*
X116439756Y-135707234D01*
X116528793Y-135714798D01*
X116528884Y-135714269D01*
X116535215Y-135715344D01*
X116536570Y-135715459D01*
X116538548Y-135715911D01*
X116845535Y-135750500D01*
X116845539Y-135750500D01*
X117154461Y-135750500D01*
X117154465Y-135750500D01*
X117461452Y-135715911D01*
X117762636Y-135647168D01*
X118054229Y-135545135D01*
X118332565Y-135411095D01*
X118594143Y-135246735D01*
X118835674Y-135054120D01*
X119054120Y-134835674D01*
X119246735Y-134594143D01*
X119411095Y-134332565D01*
X119545135Y-134054229D01*
X119647168Y-133762636D01*
X119715911Y-133461452D01*
X119750500Y-133154465D01*
X119750500Y-132845535D01*
X119715911Y-132538548D01*
X119647168Y-132237364D01*
X119545135Y-131945771D01*
X119545131Y-131945763D01*
X119545128Y-131945755D01*
X119411102Y-131667450D01*
X119411095Y-131667435D01*
X119246735Y-131405857D01*
X119054120Y-131164326D01*
X118835674Y-130945880D01*
X118835672Y-130945878D01*
X118835667Y-130945874D01*
X118637705Y-130788005D01*
X118594143Y-130753265D01*
X118332565Y-130588905D01*
X118332553Y-130588899D01*
X118332549Y-130588897D01*
X118054244Y-130454871D01*
X118054224Y-130454863D01*
X117762646Y-130352835D01*
X117762629Y-130352830D01*
X117461457Y-130284090D01*
X117461455Y-130284089D01*
X117461452Y-130284089D01*
X117154465Y-130249500D01*
X116845535Y-130249500D01*
X116538548Y-130284089D01*
X116538545Y-130284089D01*
X116538542Y-130284090D01*
X116237370Y-130352830D01*
X116237353Y-130352835D01*
X115945775Y-130454863D01*
X115945755Y-130454871D01*
X115667450Y-130588897D01*
X115667428Y-130588909D01*
X115405859Y-130753263D01*
X115405854Y-130753267D01*
X115164332Y-130945874D01*
X115164324Y-130945881D01*
X114945881Y-131164324D01*
X114945874Y-131164332D01*
X114753267Y-131405854D01*
X114753263Y-131405859D01*
X114588909Y-131667428D01*
X114588897Y-131667450D01*
X114454871Y-131945755D01*
X114454863Y-131945775D01*
X114352835Y-132237353D01*
X114352830Y-132237370D01*
X114344230Y-132275051D01*
X114284089Y-132538548D01*
X114281673Y-132559996D01*
X114249500Y-132845538D01*
X114249500Y-133113469D01*
X114230590Y-133226789D01*
X114175910Y-133327829D01*
X114129648Y-133376703D01*
X110092270Y-136891288D01*
X107999382Y-138713172D01*
X107998736Y-138713734D01*
X107900848Y-138773875D01*
X107788737Y-138798974D01*
X107769588Y-138799500D01*
X107665767Y-138799500D01*
X107379793Y-138837149D01*
X107379777Y-138837152D01*
X107101162Y-138911807D01*
X107101158Y-138911808D01*
X107101156Y-138911808D01*
X107101155Y-138911809D01*
X107048141Y-138933768D01*
X106834656Y-139022195D01*
X106834649Y-139022199D01*
X106584844Y-139166424D01*
X106355995Y-139342026D01*
X106152026Y-139545995D01*
X105976424Y-139774844D01*
X105832199Y-140024649D01*
X105832192Y-140024662D01*
X105803682Y-140093493D01*
X105742845Y-140190950D01*
X105653661Y-140263373D01*
X105545792Y-140302914D01*
X105430930Y-140305287D01*
X105321520Y-140270237D01*
X105229420Y-140201560D01*
X105218986Y-140190193D01*
X104824381Y-139740742D01*
X104541014Y-139417990D01*
X104480460Y-139320358D01*
X104454888Y-139208354D01*
X104454376Y-139179480D01*
X104542897Y-135447467D01*
X104564488Y-135334633D01*
X104621548Y-135234918D01*
X104674191Y-135182897D01*
X104835674Y-135054120D01*
X105054120Y-134835674D01*
X105246735Y-134594143D01*
X105411095Y-134332565D01*
X105545135Y-134054229D01*
X105647168Y-133762636D01*
X105715911Y-133461452D01*
X105750500Y-133154465D01*
X105750500Y-132845535D01*
X105715911Y-132538548D01*
X105647168Y-132237364D01*
X105545135Y-131945771D01*
X105545131Y-131945763D01*
X105545128Y-131945755D01*
X105411102Y-131667450D01*
X105411095Y-131667435D01*
X105246735Y-131405857D01*
X105054120Y-131164326D01*
X104835674Y-130945880D01*
X104835672Y-130945878D01*
X104835667Y-130945874D01*
X104637705Y-130788005D01*
X104594143Y-130753265D01*
X104332565Y-130588905D01*
X104332553Y-130588899D01*
X104332549Y-130588897D01*
X104054244Y-130454871D01*
X104054224Y-130454863D01*
X103762646Y-130352835D01*
X103762629Y-130352830D01*
X103461457Y-130284090D01*
X103461455Y-130284089D01*
X103461452Y-130284089D01*
X103154465Y-130249500D01*
X102845535Y-130249500D01*
X102538548Y-130284089D01*
X102538545Y-130284089D01*
X102538542Y-130284090D01*
X102237370Y-130352830D01*
X102237353Y-130352835D01*
X101945775Y-130454863D01*
X101945755Y-130454871D01*
X101667450Y-130588897D01*
X101667428Y-130588909D01*
X101405859Y-130753263D01*
X101405854Y-130753267D01*
X101164332Y-130945874D01*
X101164324Y-130945881D01*
X100945881Y-131164324D01*
X100945874Y-131164332D01*
X100772859Y-131381287D01*
X100687421Y-131458094D01*
X100581673Y-131502998D01*
X100467074Y-131511132D01*
X100356044Y-131481616D01*
X100260613Y-131417647D01*
X100227141Y-131381287D01*
X100054125Y-131164332D01*
X100054118Y-131164324D01*
X99835675Y-130945881D01*
X99835667Y-130945874D01*
X99637705Y-130788005D01*
X99594143Y-130753265D01*
X99332565Y-130588905D01*
X99332553Y-130588899D01*
X99332549Y-130588897D01*
X99054244Y-130454871D01*
X99054224Y-130454863D01*
X98762646Y-130352835D01*
X98762629Y-130352830D01*
X98461457Y-130284090D01*
X98461455Y-130284089D01*
X98461452Y-130284089D01*
X98154465Y-130249500D01*
X97845535Y-130249500D01*
X97538548Y-130284089D01*
X97538545Y-130284089D01*
X97538542Y-130284090D01*
X97237370Y-130352830D01*
X97237353Y-130352835D01*
X96945775Y-130454863D01*
X96945755Y-130454871D01*
X96667450Y-130588897D01*
X96667428Y-130588909D01*
X96405859Y-130753263D01*
X96405854Y-130753267D01*
X96164332Y-130945874D01*
X96164324Y-130945881D01*
X95945881Y-131164324D01*
X95945874Y-131164332D01*
X95753267Y-131405854D01*
X95753263Y-131405859D01*
X95588909Y-131667428D01*
X95588897Y-131667450D01*
X95454871Y-131945755D01*
X95454863Y-131945775D01*
X95352835Y-132237353D01*
X95352830Y-132237370D01*
X95344230Y-132275051D01*
X95284089Y-132538548D01*
X95249500Y-132845535D01*
X90574999Y-132845535D01*
X90574999Y-128372158D01*
X91549500Y-128372158D01*
X91549500Y-128627841D01*
X91582872Y-128881329D01*
X91582875Y-128881346D01*
X91649050Y-129128313D01*
X91649050Y-129128315D01*
X91746891Y-129364524D01*
X91746896Y-129364535D01*
X91746897Y-129364536D01*
X91874738Y-129585964D01*
X91874739Y-129585966D01*
X91961833Y-129699468D01*
X92030390Y-129788813D01*
X92030396Y-129788819D01*
X92030401Y-129788825D01*
X92211174Y-129969598D01*
X92211180Y-129969603D01*
X92211187Y-129969610D01*
X92334947Y-130064574D01*
X92414033Y-130125260D01*
X92414035Y-130125261D01*
X92635465Y-130253104D01*
X92871687Y-130350950D01*
X93118660Y-130417126D01*
X93372157Y-130450500D01*
X93372159Y-130450500D01*
X93627841Y-130450500D01*
X93627843Y-130450500D01*
X93881340Y-130417126D01*
X94128313Y-130350950D01*
X94364535Y-130253104D01*
X94585965Y-130125261D01*
X94788813Y-129969610D01*
X94969610Y-129788813D01*
X95125261Y-129585965D01*
X95253104Y-129364535D01*
X95350950Y-129128313D01*
X95417126Y-128881340D01*
X95450500Y-128627843D01*
X95450500Y-128372158D01*
X147549500Y-128372158D01*
X147549500Y-128627841D01*
X147582872Y-128881329D01*
X147582875Y-128881346D01*
X147649050Y-129128313D01*
X147649050Y-129128315D01*
X147746891Y-129364524D01*
X147746896Y-129364535D01*
X147746897Y-129364536D01*
X147874738Y-129585964D01*
X147874739Y-129585966D01*
X147961833Y-129699468D01*
X148030390Y-129788813D01*
X148030396Y-129788819D01*
X148030401Y-129788825D01*
X148211174Y-129969598D01*
X148211180Y-129969603D01*
X148211187Y-129969610D01*
X148334947Y-130064574D01*
X148414033Y-130125260D01*
X148414035Y-130125261D01*
X148635465Y-130253104D01*
X148871687Y-130350950D01*
X149118660Y-130417126D01*
X149372157Y-130450500D01*
X149372159Y-130450500D01*
X149627841Y-130450500D01*
X149627843Y-130450500D01*
X149881340Y-130417126D01*
X150128313Y-130350950D01*
X150364535Y-130253104D01*
X150585965Y-130125261D01*
X150788813Y-129969610D01*
X150969610Y-129788813D01*
X151125261Y-129585965D01*
X151253104Y-129364535D01*
X151350950Y-129128313D01*
X151417126Y-128881340D01*
X151450500Y-128627843D01*
X151450500Y-128372157D01*
X151417126Y-128118660D01*
X151350950Y-127871687D01*
X151253104Y-127635465D01*
X151125261Y-127414035D01*
X151125260Y-127414033D01*
X151064574Y-127334947D01*
X150969610Y-127211187D01*
X150969603Y-127211180D01*
X150969598Y-127211174D01*
X150788825Y-127030401D01*
X150788819Y-127030396D01*
X150788813Y-127030390D01*
X150699468Y-126961833D01*
X150585966Y-126874739D01*
X150585964Y-126874738D01*
X150475250Y-126810817D01*
X150364535Y-126746896D01*
X150364529Y-126746893D01*
X150364524Y-126746891D01*
X150128314Y-126649050D01*
X149881346Y-126582875D01*
X149881329Y-126582872D01*
X149709726Y-126560280D01*
X149627843Y-126549500D01*
X149372157Y-126549500D01*
X149301660Y-126558781D01*
X149118670Y-126582872D01*
X149118653Y-126582875D01*
X148871686Y-126649050D01*
X148871684Y-126649050D01*
X148635475Y-126746891D01*
X148635463Y-126746897D01*
X148414035Y-126874738D01*
X148414033Y-126874739D01*
X148211192Y-127030386D01*
X148211174Y-127030401D01*
X148030401Y-127211174D01*
X148030386Y-127211192D01*
X147874739Y-127414033D01*
X147874738Y-127414035D01*
X147746897Y-127635463D01*
X147746891Y-127635475D01*
X147649050Y-127871684D01*
X147649050Y-127871686D01*
X147582875Y-128118653D01*
X147582872Y-128118670D01*
X147549500Y-128372158D01*
X95450500Y-128372158D01*
X95450500Y-128372157D01*
X95417126Y-128118660D01*
X95350950Y-127871687D01*
X95253104Y-127635465D01*
X95125261Y-127414035D01*
X95125260Y-127414033D01*
X95064574Y-127334947D01*
X94969610Y-127211187D01*
X94969603Y-127211180D01*
X94969598Y-127211174D01*
X94788825Y-127030401D01*
X94788819Y-127030396D01*
X94788813Y-127030390D01*
X94699468Y-126961833D01*
X94585966Y-126874739D01*
X94585964Y-126874738D01*
X94475250Y-126810817D01*
X94364535Y-126746896D01*
X94364529Y-126746893D01*
X94364524Y-126746891D01*
X94128314Y-126649050D01*
X93881346Y-126582875D01*
X93881329Y-126582872D01*
X93709726Y-126560280D01*
X93627843Y-126549500D01*
X93372157Y-126549500D01*
X93301660Y-126558781D01*
X93118670Y-126582872D01*
X93118653Y-126582875D01*
X92871686Y-126649050D01*
X92871684Y-126649050D01*
X92635475Y-126746891D01*
X92635463Y-126746897D01*
X92414035Y-126874738D01*
X92414033Y-126874739D01*
X92211192Y-127030386D01*
X92211174Y-127030401D01*
X92030401Y-127211174D01*
X92030386Y-127211192D01*
X91874739Y-127414033D01*
X91874738Y-127414035D01*
X91746897Y-127635463D01*
X91746891Y-127635475D01*
X91649050Y-127871684D01*
X91649050Y-127871686D01*
X91582875Y-128118653D01*
X91582872Y-128118670D01*
X91549500Y-128372158D01*
X90574999Y-128372158D01*
X90574999Y-125923999D01*
X90593909Y-125810679D01*
X90648589Y-125709639D01*
X90733114Y-125631828D01*
X90838325Y-125585678D01*
X90923999Y-125574999D01*
X152076000Y-125574999D01*
X152189320Y-125593909D01*
G37*
%TD.AperFunction*%
%TD*%
M02*
