%TF.GenerationSoftware,KiCad,Pcbnew,10.0.6*%
%TF.CreationDate,2026-09-09T21:24:54+03:00*%
%TF.ProjectId,candidate,63616e64-6964-4617-9465-2e6b69636164,rev?*%
%TF.SameCoordinates,Original*%
%TF.FileFunction,Legend,Top*%
%TF.FilePolarity,Positive*%
%FSLAX46Y46*%
G04 Gerber Fmt 4.6, Leading zero omitted, Abs format (unit mm)*
G04 Created by KiCad (PCBNEW 10.0.6) date 2026-09-09 21:24:54*
%MOMM*%
%LPD*%
G01*
G04 APERTURE LIST*
%ADD10C,0.120000*%
G04 APERTURE END LIST*
D10*
X110821428Y-148010117D02*
X111121428Y-148910117D01*
X111121428Y-148910117D02*
X111421428Y-148010117D01*
X111721428Y-148910117D02*
X111721428Y-148010117D01*
X111721428Y-148010117D02*
X111935714Y-148010117D01*
X111935714Y-148010117D02*
X112064285Y-148052974D01*
X112064285Y-148052974D02*
X112150000Y-148138688D01*
X112150000Y-148138688D02*
X112192857Y-148224402D01*
X112192857Y-148224402D02*
X112235714Y-148395831D01*
X112235714Y-148395831D02*
X112235714Y-148524402D01*
X112235714Y-148524402D02*
X112192857Y-148695831D01*
X112192857Y-148695831D02*
X112150000Y-148781545D01*
X112150000Y-148781545D02*
X112064285Y-148867260D01*
X112064285Y-148867260D02*
X111935714Y-148910117D01*
X111935714Y-148910117D02*
X111721428Y-148910117D01*
X112578571Y-148095831D02*
X112621428Y-148052974D01*
X112621428Y-148052974D02*
X112707143Y-148010117D01*
X112707143Y-148010117D02*
X112921428Y-148010117D01*
X112921428Y-148010117D02*
X113007143Y-148052974D01*
X113007143Y-148052974D02*
X113050000Y-148095831D01*
X113050000Y-148095831D02*
X113092857Y-148181545D01*
X113092857Y-148181545D02*
X113092857Y-148267260D01*
X113092857Y-148267260D02*
X113050000Y-148395831D01*
X113050000Y-148395831D02*
X112535714Y-148910117D01*
X112535714Y-148910117D02*
X113092857Y-148910117D01*
X116271428Y-129510117D02*
X116871428Y-130410117D01*
X116871428Y-129510117D02*
X116271428Y-130410117D01*
X117171428Y-129595831D02*
X117214285Y-129552974D01*
X117214285Y-129552974D02*
X117300000Y-129510117D01*
X117300000Y-129510117D02*
X117514285Y-129510117D01*
X117514285Y-129510117D02*
X117600000Y-129552974D01*
X117600000Y-129552974D02*
X117642857Y-129595831D01*
X117642857Y-129595831D02*
X117685714Y-129681545D01*
X117685714Y-129681545D02*
X117685714Y-129767260D01*
X117685714Y-129767260D02*
X117642857Y-129895831D01*
X117642857Y-129895831D02*
X117128571Y-130410117D01*
X117128571Y-130410117D02*
X117685714Y-130410117D01*
X102821428Y-143010117D02*
X103121428Y-143910117D01*
X103121428Y-143910117D02*
X103421428Y-143010117D01*
X103721428Y-143910117D02*
X103721428Y-143010117D01*
X103721428Y-143010117D02*
X103935714Y-143010117D01*
X103935714Y-143010117D02*
X104064285Y-143052974D01*
X104064285Y-143052974D02*
X104150000Y-143138688D01*
X104150000Y-143138688D02*
X104192857Y-143224402D01*
X104192857Y-143224402D02*
X104235714Y-143395831D01*
X104235714Y-143395831D02*
X104235714Y-143524402D01*
X104235714Y-143524402D02*
X104192857Y-143695831D01*
X104192857Y-143695831D02*
X104150000Y-143781545D01*
X104150000Y-143781545D02*
X104064285Y-143867260D01*
X104064285Y-143867260D02*
X103935714Y-143910117D01*
X103935714Y-143910117D02*
X103721428Y-143910117D01*
X105092857Y-143910117D02*
X104578571Y-143910117D01*
X104835714Y-143910117D02*
X104835714Y-143010117D01*
X104835714Y-143010117D02*
X104750000Y-143138688D01*
X104750000Y-143138688D02*
X104664285Y-143224402D01*
X104664285Y-143224402D02*
X104578571Y-143267260D01*
X123271428Y-143010117D02*
X123271428Y-143652974D01*
X123271428Y-143652974D02*
X123228571Y-143781545D01*
X123228571Y-143781545D02*
X123142857Y-143867260D01*
X123142857Y-143867260D02*
X123014285Y-143910117D01*
X123014285Y-143910117D02*
X122928571Y-143910117D01*
X123657142Y-143095831D02*
X123699999Y-143052974D01*
X123699999Y-143052974D02*
X123785714Y-143010117D01*
X123785714Y-143010117D02*
X123999999Y-143010117D01*
X123999999Y-143010117D02*
X124085714Y-143052974D01*
X124085714Y-143052974D02*
X124128571Y-143095831D01*
X124128571Y-143095831D02*
X124171428Y-143181545D01*
X124171428Y-143181545D02*
X124171428Y-143267260D01*
X124171428Y-143267260D02*
X124128571Y-143395831D01*
X124128571Y-143395831D02*
X123614285Y-143910117D01*
X123614285Y-143910117D02*
X124171428Y-143910117D01*
X124471428Y-143010117D02*
X125071428Y-143010117D01*
X125071428Y-143010117D02*
X124685714Y-143910117D01*
X124421428Y-136824402D02*
X124378571Y-136867260D01*
X124378571Y-136867260D02*
X124249999Y-136910117D01*
X124249999Y-136910117D02*
X124164285Y-136910117D01*
X124164285Y-136910117D02*
X124035714Y-136867260D01*
X124035714Y-136867260D02*
X123949999Y-136781545D01*
X123949999Y-136781545D02*
X123907142Y-136695831D01*
X123907142Y-136695831D02*
X123864285Y-136524402D01*
X123864285Y-136524402D02*
X123864285Y-136395831D01*
X123864285Y-136395831D02*
X123907142Y-136224402D01*
X123907142Y-136224402D02*
X123949999Y-136138688D01*
X123949999Y-136138688D02*
X124035714Y-136052974D01*
X124035714Y-136052974D02*
X124164285Y-136010117D01*
X124164285Y-136010117D02*
X124249999Y-136010117D01*
X124249999Y-136010117D02*
X124378571Y-136052974D01*
X124378571Y-136052974D02*
X124421428Y-136095831D01*
X125278571Y-136910117D02*
X124764285Y-136910117D01*
X125021428Y-136910117D02*
X125021428Y-136010117D01*
X125021428Y-136010117D02*
X124935714Y-136138688D01*
X124935714Y-136138688D02*
X124849999Y-136224402D01*
X124849999Y-136224402D02*
X124764285Y-136267260D01*
X125578571Y-136010117D02*
X126135714Y-136010117D01*
X126135714Y-136010117D02*
X125835714Y-136352974D01*
X125835714Y-136352974D02*
X125964285Y-136352974D01*
X125964285Y-136352974D02*
X126050000Y-136395831D01*
X126050000Y-136395831D02*
X126092857Y-136438688D01*
X126092857Y-136438688D02*
X126135714Y-136524402D01*
X126135714Y-136524402D02*
X126135714Y-136738688D01*
X126135714Y-136738688D02*
X126092857Y-136824402D01*
X126092857Y-136824402D02*
X126050000Y-136867260D01*
X126050000Y-136867260D02*
X125964285Y-136910117D01*
X125964285Y-136910117D02*
X125707142Y-136910117D01*
X125707142Y-136910117D02*
X125621428Y-136867260D01*
X125621428Y-136867260D02*
X125578571Y-136824402D01*
X97271428Y-153510117D02*
X97871428Y-154410117D01*
X97871428Y-153510117D02*
X97271428Y-154410117D01*
X98600000Y-153510117D02*
X98428571Y-153510117D01*
X98428571Y-153510117D02*
X98342857Y-153552974D01*
X98342857Y-153552974D02*
X98300000Y-153595831D01*
X98300000Y-153595831D02*
X98214285Y-153724402D01*
X98214285Y-153724402D02*
X98171428Y-153895831D01*
X98171428Y-153895831D02*
X98171428Y-154238688D01*
X98171428Y-154238688D02*
X98214285Y-154324402D01*
X98214285Y-154324402D02*
X98257142Y-154367260D01*
X98257142Y-154367260D02*
X98342857Y-154410117D01*
X98342857Y-154410117D02*
X98514285Y-154410117D01*
X98514285Y-154410117D02*
X98600000Y-154367260D01*
X98600000Y-154367260D02*
X98642857Y-154324402D01*
X98642857Y-154324402D02*
X98685714Y-154238688D01*
X98685714Y-154238688D02*
X98685714Y-154024402D01*
X98685714Y-154024402D02*
X98642857Y-153938688D01*
X98642857Y-153938688D02*
X98600000Y-153895831D01*
X98600000Y-153895831D02*
X98514285Y-153852974D01*
X98514285Y-153852974D02*
X98342857Y-153852974D01*
X98342857Y-153852974D02*
X98257142Y-153895831D01*
X98257142Y-153895831D02*
X98214285Y-153938688D01*
X98214285Y-153938688D02*
X98171428Y-154024402D01*
X97271428Y-129510117D02*
X97871428Y-130410117D01*
X97871428Y-129510117D02*
X97271428Y-130410117D01*
X98685714Y-130410117D02*
X98171428Y-130410117D01*
X98428571Y-130410117D02*
X98428571Y-129510117D01*
X98428571Y-129510117D02*
X98342857Y-129638688D01*
X98342857Y-129638688D02*
X98257142Y-129724402D01*
X98257142Y-129724402D02*
X98171428Y-129767260D01*
X132271428Y-129510117D02*
X132871428Y-130410117D01*
X132871428Y-129510117D02*
X132271428Y-130410117D01*
X133128571Y-129510117D02*
X133685714Y-129510117D01*
X133685714Y-129510117D02*
X133385714Y-129852974D01*
X133385714Y-129852974D02*
X133514285Y-129852974D01*
X133514285Y-129852974D02*
X133600000Y-129895831D01*
X133600000Y-129895831D02*
X133642857Y-129938688D01*
X133642857Y-129938688D02*
X133685714Y-130024402D01*
X133685714Y-130024402D02*
X133685714Y-130238688D01*
X133685714Y-130238688D02*
X133642857Y-130324402D01*
X133642857Y-130324402D02*
X133600000Y-130367260D01*
X133600000Y-130367260D02*
X133514285Y-130410117D01*
X133514285Y-130410117D02*
X133257142Y-130410117D01*
X133257142Y-130410117D02*
X133171428Y-130367260D01*
X133171428Y-130367260D02*
X133128571Y-130324402D01*
X127271428Y-161010117D02*
X127271428Y-161652974D01*
X127271428Y-161652974D02*
X127228571Y-161781545D01*
X127228571Y-161781545D02*
X127142857Y-161867260D01*
X127142857Y-161867260D02*
X127014285Y-161910117D01*
X127014285Y-161910117D02*
X126928571Y-161910117D01*
X127657142Y-161095831D02*
X127699999Y-161052974D01*
X127699999Y-161052974D02*
X127785714Y-161010117D01*
X127785714Y-161010117D02*
X127999999Y-161010117D01*
X127999999Y-161010117D02*
X128085714Y-161052974D01*
X128085714Y-161052974D02*
X128128571Y-161095831D01*
X128128571Y-161095831D02*
X128171428Y-161181545D01*
X128171428Y-161181545D02*
X128171428Y-161267260D01*
X128171428Y-161267260D02*
X128128571Y-161395831D01*
X128128571Y-161395831D02*
X127614285Y-161910117D01*
X127614285Y-161910117D02*
X128171428Y-161910117D01*
X128599999Y-161910117D02*
X128771428Y-161910117D01*
X128771428Y-161910117D02*
X128857142Y-161867260D01*
X128857142Y-161867260D02*
X128899999Y-161824402D01*
X128899999Y-161824402D02*
X128985714Y-161695831D01*
X128985714Y-161695831D02*
X129028571Y-161524402D01*
X129028571Y-161524402D02*
X129028571Y-161181545D01*
X129028571Y-161181545D02*
X128985714Y-161095831D01*
X128985714Y-161095831D02*
X128942857Y-161052974D01*
X128942857Y-161052974D02*
X128857142Y-161010117D01*
X128857142Y-161010117D02*
X128685714Y-161010117D01*
X128685714Y-161010117D02*
X128599999Y-161052974D01*
X128599999Y-161052974D02*
X128557142Y-161095831D01*
X128557142Y-161095831D02*
X128514285Y-161181545D01*
X128514285Y-161181545D02*
X128514285Y-161395831D01*
X128514285Y-161395831D02*
X128557142Y-161481545D01*
X128557142Y-161481545D02*
X128599999Y-161524402D01*
X128599999Y-161524402D02*
X128685714Y-161567260D01*
X128685714Y-161567260D02*
X128857142Y-161567260D01*
X128857142Y-161567260D02*
X128942857Y-161524402D01*
X128942857Y-161524402D02*
X128985714Y-161481545D01*
X128985714Y-161481545D02*
X129028571Y-161395831D01*
X123271428Y-149010117D02*
X123271428Y-149652974D01*
X123271428Y-149652974D02*
X123228571Y-149781545D01*
X123228571Y-149781545D02*
X123142857Y-149867260D01*
X123142857Y-149867260D02*
X123014285Y-149910117D01*
X123014285Y-149910117D02*
X122928571Y-149910117D01*
X123614285Y-149010117D02*
X124171428Y-149010117D01*
X124171428Y-149010117D02*
X123871428Y-149352974D01*
X123871428Y-149352974D02*
X123999999Y-149352974D01*
X123999999Y-149352974D02*
X124085714Y-149395831D01*
X124085714Y-149395831D02*
X124128571Y-149438688D01*
X124128571Y-149438688D02*
X124171428Y-149524402D01*
X124171428Y-149524402D02*
X124171428Y-149738688D01*
X124171428Y-149738688D02*
X124128571Y-149824402D01*
X124128571Y-149824402D02*
X124085714Y-149867260D01*
X124085714Y-149867260D02*
X123999999Y-149910117D01*
X123999999Y-149910117D02*
X123742856Y-149910117D01*
X123742856Y-149910117D02*
X123657142Y-149867260D01*
X123657142Y-149867260D02*
X123614285Y-149824402D01*
X125028571Y-149910117D02*
X124514285Y-149910117D01*
X124771428Y-149910117D02*
X124771428Y-149010117D01*
X124771428Y-149010117D02*
X124685714Y-149138688D01*
X124685714Y-149138688D02*
X124599999Y-149224402D01*
X124599999Y-149224402D02*
X124514285Y-149267260D01*
X135200000Y-156510117D02*
X135200000Y-157152974D01*
X135200000Y-157152974D02*
X135157143Y-157281545D01*
X135157143Y-157281545D02*
X135071429Y-157367260D01*
X135071429Y-157367260D02*
X134942857Y-157410117D01*
X134942857Y-157410117D02*
X134857143Y-157410117D01*
X135757143Y-156895831D02*
X135671428Y-156852974D01*
X135671428Y-156852974D02*
X135628571Y-156810117D01*
X135628571Y-156810117D02*
X135585714Y-156724402D01*
X135585714Y-156724402D02*
X135585714Y-156681545D01*
X135585714Y-156681545D02*
X135628571Y-156595831D01*
X135628571Y-156595831D02*
X135671428Y-156552974D01*
X135671428Y-156552974D02*
X135757143Y-156510117D01*
X135757143Y-156510117D02*
X135928571Y-156510117D01*
X135928571Y-156510117D02*
X136014286Y-156552974D01*
X136014286Y-156552974D02*
X136057143Y-156595831D01*
X136057143Y-156595831D02*
X136100000Y-156681545D01*
X136100000Y-156681545D02*
X136100000Y-156724402D01*
X136100000Y-156724402D02*
X136057143Y-156810117D01*
X136057143Y-156810117D02*
X136014286Y-156852974D01*
X136014286Y-156852974D02*
X135928571Y-156895831D01*
X135928571Y-156895831D02*
X135757143Y-156895831D01*
X135757143Y-156895831D02*
X135671428Y-156938688D01*
X135671428Y-156938688D02*
X135628571Y-156981545D01*
X135628571Y-156981545D02*
X135585714Y-157067260D01*
X135585714Y-157067260D02*
X135585714Y-157238688D01*
X135585714Y-157238688D02*
X135628571Y-157324402D01*
X135628571Y-157324402D02*
X135671428Y-157367260D01*
X135671428Y-157367260D02*
X135757143Y-157410117D01*
X135757143Y-157410117D02*
X135928571Y-157410117D01*
X135928571Y-157410117D02*
X136014286Y-157367260D01*
X136014286Y-157367260D02*
X136057143Y-157324402D01*
X136057143Y-157324402D02*
X136100000Y-157238688D01*
X136100000Y-157238688D02*
X136100000Y-157067260D01*
X136100000Y-157067260D02*
X136057143Y-156981545D01*
X136057143Y-156981545D02*
X136014286Y-156938688D01*
X136014286Y-156938688D02*
X135928571Y-156895831D01*
M02*
