%TF.GenerationSoftware,KiCad,Pcbnew,10.0.6*%
%TF.CreationDate,2026-09-09T21:23:45+03:00*%
%TF.ProjectId,candidate,63616e64-6964-4617-9465-2e6b69636164,rev?*%
%TF.SameCoordinates,Original*%
%TF.FileFunction,Legend,Top*%
%TF.FilePolarity,Positive*%
%FSLAX46Y46*%
G04 Gerber Fmt 4.6, Leading zero omitted, Abs format (unit mm)*
G04 Created by KiCad (PCBNEW 10.0.6) date 2026-09-09 21:23:45*
%MOMM*%
%LPD*%
G01*
G04 APERTURE LIST*
%ADD10C,0.120000*%
G04 APERTURE END LIST*
D10*
X89271428Y-85510117D02*
X89871428Y-86410117D01*
X89871428Y-85510117D02*
X89271428Y-86410117D01*
X90600000Y-85810117D02*
X90600000Y-86410117D01*
X90385714Y-85467260D02*
X90171428Y-86110117D01*
X90171428Y-86110117D02*
X90728571Y-86110117D01*
X96271428Y-41510117D02*
X96271428Y-42152974D01*
X96271428Y-42152974D02*
X96228571Y-42281545D01*
X96228571Y-42281545D02*
X96142857Y-42367260D01*
X96142857Y-42367260D02*
X96014285Y-42410117D01*
X96014285Y-42410117D02*
X95928571Y-42410117D01*
X96657142Y-41595831D02*
X96699999Y-41552974D01*
X96699999Y-41552974D02*
X96785714Y-41510117D01*
X96785714Y-41510117D02*
X96999999Y-41510117D01*
X96999999Y-41510117D02*
X97085714Y-41552974D01*
X97085714Y-41552974D02*
X97128571Y-41595831D01*
X97128571Y-41595831D02*
X97171428Y-41681545D01*
X97171428Y-41681545D02*
X97171428Y-41767260D01*
X97171428Y-41767260D02*
X97128571Y-41895831D01*
X97128571Y-41895831D02*
X96614285Y-42410117D01*
X96614285Y-42410117D02*
X97171428Y-42410117D01*
X97728571Y-41510117D02*
X97814285Y-41510117D01*
X97814285Y-41510117D02*
X97899999Y-41552974D01*
X97899999Y-41552974D02*
X97942857Y-41595831D01*
X97942857Y-41595831D02*
X97985714Y-41681545D01*
X97985714Y-41681545D02*
X98028571Y-41852974D01*
X98028571Y-41852974D02*
X98028571Y-42067260D01*
X98028571Y-42067260D02*
X97985714Y-42238688D01*
X97985714Y-42238688D02*
X97942857Y-42324402D01*
X97942857Y-42324402D02*
X97899999Y-42367260D01*
X97899999Y-42367260D02*
X97814285Y-42410117D01*
X97814285Y-42410117D02*
X97728571Y-42410117D01*
X97728571Y-42410117D02*
X97642857Y-42367260D01*
X97642857Y-42367260D02*
X97599999Y-42324402D01*
X97599999Y-42324402D02*
X97557142Y-42238688D01*
X97557142Y-42238688D02*
X97514285Y-42067260D01*
X97514285Y-42067260D02*
X97514285Y-41852974D01*
X97514285Y-41852974D02*
X97557142Y-41681545D01*
X97557142Y-41681545D02*
X97599999Y-41595831D01*
X97599999Y-41595831D02*
X97642857Y-41552974D01*
X97642857Y-41552974D02*
X97728571Y-41510117D01*
X92271428Y-35010117D02*
X92271428Y-35652974D01*
X92271428Y-35652974D02*
X92228571Y-35781545D01*
X92228571Y-35781545D02*
X92142857Y-35867260D01*
X92142857Y-35867260D02*
X92014285Y-35910117D01*
X92014285Y-35910117D02*
X91928571Y-35910117D01*
X93171428Y-35910117D02*
X92657142Y-35910117D01*
X92914285Y-35910117D02*
X92914285Y-35010117D01*
X92914285Y-35010117D02*
X92828571Y-35138688D01*
X92828571Y-35138688D02*
X92742856Y-35224402D01*
X92742856Y-35224402D02*
X92657142Y-35267260D01*
X93728571Y-35010117D02*
X93814285Y-35010117D01*
X93814285Y-35010117D02*
X93899999Y-35052974D01*
X93899999Y-35052974D02*
X93942857Y-35095831D01*
X93942857Y-35095831D02*
X93985714Y-35181545D01*
X93985714Y-35181545D02*
X94028571Y-35352974D01*
X94028571Y-35352974D02*
X94028571Y-35567260D01*
X94028571Y-35567260D02*
X93985714Y-35738688D01*
X93985714Y-35738688D02*
X93942857Y-35824402D01*
X93942857Y-35824402D02*
X93899999Y-35867260D01*
X93899999Y-35867260D02*
X93814285Y-35910117D01*
X93814285Y-35910117D02*
X93728571Y-35910117D01*
X93728571Y-35910117D02*
X93642857Y-35867260D01*
X93642857Y-35867260D02*
X93599999Y-35824402D01*
X93599999Y-35824402D02*
X93557142Y-35738688D01*
X93557142Y-35738688D02*
X93514285Y-35567260D01*
X93514285Y-35567260D02*
X93514285Y-35352974D01*
X93514285Y-35352974D02*
X93557142Y-35181545D01*
X93557142Y-35181545D02*
X93599999Y-35095831D01*
X93599999Y-35095831D02*
X93642857Y-35052974D01*
X93642857Y-35052974D02*
X93728571Y-35010117D01*
X41914285Y-76995831D02*
X41828571Y-76952974D01*
X41828571Y-76952974D02*
X41742857Y-76867260D01*
X41742857Y-76867260D02*
X41614285Y-76738688D01*
X41614285Y-76738688D02*
X41528571Y-76695831D01*
X41528571Y-76695831D02*
X41442857Y-76695831D01*
X41485714Y-76910117D02*
X41400000Y-76867260D01*
X41400000Y-76867260D02*
X41314285Y-76781545D01*
X41314285Y-76781545D02*
X41271428Y-76610117D01*
X41271428Y-76610117D02*
X41271428Y-76310117D01*
X41271428Y-76310117D02*
X41314285Y-76138688D01*
X41314285Y-76138688D02*
X41400000Y-76052974D01*
X41400000Y-76052974D02*
X41485714Y-76010117D01*
X41485714Y-76010117D02*
X41657142Y-76010117D01*
X41657142Y-76010117D02*
X41742857Y-76052974D01*
X41742857Y-76052974D02*
X41828571Y-76138688D01*
X41828571Y-76138688D02*
X41871428Y-76310117D01*
X41871428Y-76310117D02*
X41871428Y-76610117D01*
X41871428Y-76610117D02*
X41828571Y-76781545D01*
X41828571Y-76781545D02*
X41742857Y-76867260D01*
X41742857Y-76867260D02*
X41657142Y-76910117D01*
X41657142Y-76910117D02*
X41485714Y-76910117D01*
X42728571Y-76910117D02*
X42214285Y-76910117D01*
X42471428Y-76910117D02*
X42471428Y-76010117D01*
X42471428Y-76010117D02*
X42385714Y-76138688D01*
X42385714Y-76138688D02*
X42299999Y-76224402D01*
X42299999Y-76224402D02*
X42214285Y-76267260D01*
X54271428Y-54210117D02*
X54271428Y-54852974D01*
X54271428Y-54852974D02*
X54228571Y-54981545D01*
X54228571Y-54981545D02*
X54142857Y-55067260D01*
X54142857Y-55067260D02*
X54014285Y-55110117D01*
X54014285Y-55110117D02*
X53928571Y-55110117D01*
X54657142Y-54295831D02*
X54699999Y-54252974D01*
X54699999Y-54252974D02*
X54785714Y-54210117D01*
X54785714Y-54210117D02*
X54999999Y-54210117D01*
X54999999Y-54210117D02*
X55085714Y-54252974D01*
X55085714Y-54252974D02*
X55128571Y-54295831D01*
X55128571Y-54295831D02*
X55171428Y-54381545D01*
X55171428Y-54381545D02*
X55171428Y-54467260D01*
X55171428Y-54467260D02*
X55128571Y-54595831D01*
X55128571Y-54595831D02*
X54614285Y-55110117D01*
X54614285Y-55110117D02*
X55171428Y-55110117D01*
X55514285Y-54295831D02*
X55557142Y-54252974D01*
X55557142Y-54252974D02*
X55642857Y-54210117D01*
X55642857Y-54210117D02*
X55857142Y-54210117D01*
X55857142Y-54210117D02*
X55942857Y-54252974D01*
X55942857Y-54252974D02*
X55985714Y-54295831D01*
X55985714Y-54295831D02*
X56028571Y-54381545D01*
X56028571Y-54381545D02*
X56028571Y-54467260D01*
X56028571Y-54467260D02*
X55985714Y-54595831D01*
X55985714Y-54595831D02*
X55471428Y-55110117D01*
X55471428Y-55110117D02*
X56028571Y-55110117D01*
X59811428Y-100372617D02*
X59811428Y-101015474D01*
X59811428Y-101015474D02*
X59768571Y-101144045D01*
X59768571Y-101144045D02*
X59682857Y-101229760D01*
X59682857Y-101229760D02*
X59554285Y-101272617D01*
X59554285Y-101272617D02*
X59468571Y-101272617D01*
X60197142Y-100458331D02*
X60239999Y-100415474D01*
X60239999Y-100415474D02*
X60325714Y-100372617D01*
X60325714Y-100372617D02*
X60539999Y-100372617D01*
X60539999Y-100372617D02*
X60625714Y-100415474D01*
X60625714Y-100415474D02*
X60668571Y-100458331D01*
X60668571Y-100458331D02*
X60711428Y-100544045D01*
X60711428Y-100544045D02*
X60711428Y-100629760D01*
X60711428Y-100629760D02*
X60668571Y-100758331D01*
X60668571Y-100758331D02*
X60154285Y-101272617D01*
X60154285Y-101272617D02*
X60711428Y-101272617D01*
X61482857Y-100372617D02*
X61311428Y-100372617D01*
X61311428Y-100372617D02*
X61225714Y-100415474D01*
X61225714Y-100415474D02*
X61182857Y-100458331D01*
X61182857Y-100458331D02*
X61097142Y-100586902D01*
X61097142Y-100586902D02*
X61054285Y-100758331D01*
X61054285Y-100758331D02*
X61054285Y-101101188D01*
X61054285Y-101101188D02*
X61097142Y-101186902D01*
X61097142Y-101186902D02*
X61139999Y-101229760D01*
X61139999Y-101229760D02*
X61225714Y-101272617D01*
X61225714Y-101272617D02*
X61397142Y-101272617D01*
X61397142Y-101272617D02*
X61482857Y-101229760D01*
X61482857Y-101229760D02*
X61525714Y-101186902D01*
X61525714Y-101186902D02*
X61568571Y-101101188D01*
X61568571Y-101101188D02*
X61568571Y-100886902D01*
X61568571Y-100886902D02*
X61525714Y-100801188D01*
X61525714Y-100801188D02*
X61482857Y-100758331D01*
X61482857Y-100758331D02*
X61397142Y-100715474D01*
X61397142Y-100715474D02*
X61225714Y-100715474D01*
X61225714Y-100715474D02*
X61139999Y-100758331D01*
X61139999Y-100758331D02*
X61097142Y-100801188D01*
X61097142Y-100801188D02*
X61054285Y-100886902D01*
X41914285Y-85995831D02*
X41828571Y-85952974D01*
X41828571Y-85952974D02*
X41742857Y-85867260D01*
X41742857Y-85867260D02*
X41614285Y-85738688D01*
X41614285Y-85738688D02*
X41528571Y-85695831D01*
X41528571Y-85695831D02*
X41442857Y-85695831D01*
X41485714Y-85910117D02*
X41400000Y-85867260D01*
X41400000Y-85867260D02*
X41314285Y-85781545D01*
X41314285Y-85781545D02*
X41271428Y-85610117D01*
X41271428Y-85610117D02*
X41271428Y-85310117D01*
X41271428Y-85310117D02*
X41314285Y-85138688D01*
X41314285Y-85138688D02*
X41400000Y-85052974D01*
X41400000Y-85052974D02*
X41485714Y-85010117D01*
X41485714Y-85010117D02*
X41657142Y-85010117D01*
X41657142Y-85010117D02*
X41742857Y-85052974D01*
X41742857Y-85052974D02*
X41828571Y-85138688D01*
X41828571Y-85138688D02*
X41871428Y-85310117D01*
X41871428Y-85310117D02*
X41871428Y-85610117D01*
X41871428Y-85610117D02*
X41828571Y-85781545D01*
X41828571Y-85781545D02*
X41742857Y-85867260D01*
X41742857Y-85867260D02*
X41657142Y-85910117D01*
X41657142Y-85910117D02*
X41485714Y-85910117D01*
X42214285Y-85095831D02*
X42257142Y-85052974D01*
X42257142Y-85052974D02*
X42342857Y-85010117D01*
X42342857Y-85010117D02*
X42557142Y-85010117D01*
X42557142Y-85010117D02*
X42642857Y-85052974D01*
X42642857Y-85052974D02*
X42685714Y-85095831D01*
X42685714Y-85095831D02*
X42728571Y-85181545D01*
X42728571Y-85181545D02*
X42728571Y-85267260D01*
X42728571Y-85267260D02*
X42685714Y-85395831D01*
X42685714Y-85395831D02*
X42171428Y-85910117D01*
X42171428Y-85910117D02*
X42728571Y-85910117D01*
X90921428Y-56410117D02*
X90621428Y-55981545D01*
X90407142Y-56410117D02*
X90407142Y-55510117D01*
X90407142Y-55510117D02*
X90749999Y-55510117D01*
X90749999Y-55510117D02*
X90835714Y-55552974D01*
X90835714Y-55552974D02*
X90878571Y-55595831D01*
X90878571Y-55595831D02*
X90921428Y-55681545D01*
X90921428Y-55681545D02*
X90921428Y-55810117D01*
X90921428Y-55810117D02*
X90878571Y-55895831D01*
X90878571Y-55895831D02*
X90835714Y-55938688D01*
X90835714Y-55938688D02*
X90749999Y-55981545D01*
X90749999Y-55981545D02*
X90407142Y-55981545D01*
X91778571Y-56410117D02*
X91264285Y-56410117D01*
X91521428Y-56410117D02*
X91521428Y-55510117D01*
X91521428Y-55510117D02*
X91435714Y-55638688D01*
X91435714Y-55638688D02*
X91349999Y-55724402D01*
X91349999Y-55724402D02*
X91264285Y-55767260D01*
X92550000Y-55510117D02*
X92378571Y-55510117D01*
X92378571Y-55510117D02*
X92292857Y-55552974D01*
X92292857Y-55552974D02*
X92250000Y-55595831D01*
X92250000Y-55595831D02*
X92164285Y-55724402D01*
X92164285Y-55724402D02*
X92121428Y-55895831D01*
X92121428Y-55895831D02*
X92121428Y-56238688D01*
X92121428Y-56238688D02*
X92164285Y-56324402D01*
X92164285Y-56324402D02*
X92207142Y-56367260D01*
X92207142Y-56367260D02*
X92292857Y-56410117D01*
X92292857Y-56410117D02*
X92464285Y-56410117D01*
X92464285Y-56410117D02*
X92550000Y-56367260D01*
X92550000Y-56367260D02*
X92592857Y-56324402D01*
X92592857Y-56324402D02*
X92635714Y-56238688D01*
X92635714Y-56238688D02*
X92635714Y-56024402D01*
X92635714Y-56024402D02*
X92592857Y-55938688D01*
X92592857Y-55938688D02*
X92550000Y-55895831D01*
X92550000Y-55895831D02*
X92464285Y-55852974D01*
X92464285Y-55852974D02*
X92292857Y-55852974D01*
X92292857Y-55852974D02*
X92207142Y-55895831D01*
X92207142Y-55895831D02*
X92164285Y-55938688D01*
X92164285Y-55938688D02*
X92121428Y-56024402D01*
X52421428Y-80470117D02*
X52121428Y-80041545D01*
X51907142Y-80470117D02*
X51907142Y-79570117D01*
X51907142Y-79570117D02*
X52249999Y-79570117D01*
X52249999Y-79570117D02*
X52335714Y-79612974D01*
X52335714Y-79612974D02*
X52378571Y-79655831D01*
X52378571Y-79655831D02*
X52421428Y-79741545D01*
X52421428Y-79741545D02*
X52421428Y-79870117D01*
X52421428Y-79870117D02*
X52378571Y-79955831D01*
X52378571Y-79955831D02*
X52335714Y-79998688D01*
X52335714Y-79998688D02*
X52249999Y-80041545D01*
X52249999Y-80041545D02*
X51907142Y-80041545D01*
X53278571Y-80470117D02*
X52764285Y-80470117D01*
X53021428Y-80470117D02*
X53021428Y-79570117D01*
X53021428Y-79570117D02*
X52935714Y-79698688D01*
X52935714Y-79698688D02*
X52849999Y-79784402D01*
X52849999Y-79784402D02*
X52764285Y-79827260D01*
X54050000Y-79870117D02*
X54050000Y-80470117D01*
X53835714Y-79527260D02*
X53621428Y-80170117D01*
X53621428Y-80170117D02*
X54178571Y-80170117D01*
X69271428Y-99010117D02*
X69271428Y-99652974D01*
X69271428Y-99652974D02*
X69228571Y-99781545D01*
X69228571Y-99781545D02*
X69142857Y-99867260D01*
X69142857Y-99867260D02*
X69014285Y-99910117D01*
X69014285Y-99910117D02*
X68928571Y-99910117D01*
X70171428Y-99910117D02*
X69657142Y-99910117D01*
X69914285Y-99910117D02*
X69914285Y-99010117D01*
X69914285Y-99010117D02*
X69828571Y-99138688D01*
X69828571Y-99138688D02*
X69742856Y-99224402D01*
X69742856Y-99224402D02*
X69657142Y-99267260D01*
X70514285Y-99095831D02*
X70557142Y-99052974D01*
X70557142Y-99052974D02*
X70642857Y-99010117D01*
X70642857Y-99010117D02*
X70857142Y-99010117D01*
X70857142Y-99010117D02*
X70942857Y-99052974D01*
X70942857Y-99052974D02*
X70985714Y-99095831D01*
X70985714Y-99095831D02*
X71028571Y-99181545D01*
X71028571Y-99181545D02*
X71028571Y-99267260D01*
X71028571Y-99267260D02*
X70985714Y-99395831D01*
X70985714Y-99395831D02*
X70471428Y-99910117D01*
X70471428Y-99910117D02*
X71028571Y-99910117D01*
X91700000Y-72010117D02*
X91700000Y-72652974D01*
X91700000Y-72652974D02*
X91657143Y-72781545D01*
X91657143Y-72781545D02*
X91571429Y-72867260D01*
X91571429Y-72867260D02*
X91442857Y-72910117D01*
X91442857Y-72910117D02*
X91357143Y-72910117D01*
X92171428Y-72910117D02*
X92342857Y-72910117D01*
X92342857Y-72910117D02*
X92428571Y-72867260D01*
X92428571Y-72867260D02*
X92471428Y-72824402D01*
X92471428Y-72824402D02*
X92557143Y-72695831D01*
X92557143Y-72695831D02*
X92600000Y-72524402D01*
X92600000Y-72524402D02*
X92600000Y-72181545D01*
X92600000Y-72181545D02*
X92557143Y-72095831D01*
X92557143Y-72095831D02*
X92514286Y-72052974D01*
X92514286Y-72052974D02*
X92428571Y-72010117D01*
X92428571Y-72010117D02*
X92257143Y-72010117D01*
X92257143Y-72010117D02*
X92171428Y-72052974D01*
X92171428Y-72052974D02*
X92128571Y-72095831D01*
X92128571Y-72095831D02*
X92085714Y-72181545D01*
X92085714Y-72181545D02*
X92085714Y-72395831D01*
X92085714Y-72395831D02*
X92128571Y-72481545D01*
X92128571Y-72481545D02*
X92171428Y-72524402D01*
X92171428Y-72524402D02*
X92257143Y-72567260D01*
X92257143Y-72567260D02*
X92428571Y-72567260D01*
X92428571Y-72567260D02*
X92514286Y-72524402D01*
X92514286Y-72524402D02*
X92557143Y-72481545D01*
X92557143Y-72481545D02*
X92600000Y-72395831D01*
X51821428Y-70410117D02*
X51521428Y-69981545D01*
X51307142Y-70410117D02*
X51307142Y-69510117D01*
X51307142Y-69510117D02*
X51649999Y-69510117D01*
X51649999Y-69510117D02*
X51735714Y-69552974D01*
X51735714Y-69552974D02*
X51778571Y-69595831D01*
X51778571Y-69595831D02*
X51821428Y-69681545D01*
X51821428Y-69681545D02*
X51821428Y-69810117D01*
X51821428Y-69810117D02*
X51778571Y-69895831D01*
X51778571Y-69895831D02*
X51735714Y-69938688D01*
X51735714Y-69938688D02*
X51649999Y-69981545D01*
X51649999Y-69981545D02*
X51307142Y-69981545D01*
X52678571Y-70410117D02*
X52164285Y-70410117D01*
X52421428Y-70410117D02*
X52421428Y-69510117D01*
X52421428Y-69510117D02*
X52335714Y-69638688D01*
X52335714Y-69638688D02*
X52249999Y-69724402D01*
X52249999Y-69724402D02*
X52164285Y-69767260D01*
X52978571Y-69510117D02*
X53535714Y-69510117D01*
X53535714Y-69510117D02*
X53235714Y-69852974D01*
X53235714Y-69852974D02*
X53364285Y-69852974D01*
X53364285Y-69852974D02*
X53450000Y-69895831D01*
X53450000Y-69895831D02*
X53492857Y-69938688D01*
X53492857Y-69938688D02*
X53535714Y-70024402D01*
X53535714Y-70024402D02*
X53535714Y-70238688D01*
X53535714Y-70238688D02*
X53492857Y-70324402D01*
X53492857Y-70324402D02*
X53450000Y-70367260D01*
X53450000Y-70367260D02*
X53364285Y-70410117D01*
X53364285Y-70410117D02*
X53107142Y-70410117D01*
X53107142Y-70410117D02*
X53021428Y-70367260D01*
X53021428Y-70367260D02*
X52978571Y-70324402D01*
X42160000Y-63510117D02*
X42160000Y-64152974D01*
X42160000Y-64152974D02*
X42117143Y-64281545D01*
X42117143Y-64281545D02*
X42031429Y-64367260D01*
X42031429Y-64367260D02*
X41902857Y-64410117D01*
X41902857Y-64410117D02*
X41817143Y-64410117D01*
X42502857Y-63510117D02*
X43102857Y-63510117D01*
X43102857Y-63510117D02*
X42717143Y-64410117D01*
X104271428Y-41510117D02*
X104271428Y-42152974D01*
X104271428Y-42152974D02*
X104228571Y-42281545D01*
X104228571Y-42281545D02*
X104142857Y-42367260D01*
X104142857Y-42367260D02*
X104014285Y-42410117D01*
X104014285Y-42410117D02*
X103928571Y-42410117D01*
X104657142Y-41595831D02*
X104699999Y-41552974D01*
X104699999Y-41552974D02*
X104785714Y-41510117D01*
X104785714Y-41510117D02*
X104999999Y-41510117D01*
X104999999Y-41510117D02*
X105085714Y-41552974D01*
X105085714Y-41552974D02*
X105128571Y-41595831D01*
X105128571Y-41595831D02*
X105171428Y-41681545D01*
X105171428Y-41681545D02*
X105171428Y-41767260D01*
X105171428Y-41767260D02*
X105128571Y-41895831D01*
X105128571Y-41895831D02*
X104614285Y-42410117D01*
X104614285Y-42410117D02*
X105171428Y-42410117D01*
X106028571Y-42410117D02*
X105514285Y-42410117D01*
X105771428Y-42410117D02*
X105771428Y-41510117D01*
X105771428Y-41510117D02*
X105685714Y-41638688D01*
X105685714Y-41638688D02*
X105599999Y-41724402D01*
X105599999Y-41724402D02*
X105514285Y-41767260D01*
X57700000Y-39010117D02*
X57700000Y-39652974D01*
X57700000Y-39652974D02*
X57657143Y-39781545D01*
X57657143Y-39781545D02*
X57571429Y-39867260D01*
X57571429Y-39867260D02*
X57442857Y-39910117D01*
X57442857Y-39910117D02*
X57357143Y-39910117D01*
X58600000Y-39910117D02*
X58085714Y-39910117D01*
X58342857Y-39910117D02*
X58342857Y-39010117D01*
X58342857Y-39010117D02*
X58257143Y-39138688D01*
X58257143Y-39138688D02*
X58171428Y-39224402D01*
X58171428Y-39224402D02*
X58085714Y-39267260D01*
X42160000Y-60510117D02*
X42160000Y-61152974D01*
X42160000Y-61152974D02*
X42117143Y-61281545D01*
X42117143Y-61281545D02*
X42031429Y-61367260D01*
X42031429Y-61367260D02*
X41902857Y-61410117D01*
X41902857Y-61410117D02*
X41817143Y-61410117D01*
X42974286Y-60510117D02*
X42802857Y-60510117D01*
X42802857Y-60510117D02*
X42717143Y-60552974D01*
X42717143Y-60552974D02*
X42674286Y-60595831D01*
X42674286Y-60595831D02*
X42588571Y-60724402D01*
X42588571Y-60724402D02*
X42545714Y-60895831D01*
X42545714Y-60895831D02*
X42545714Y-61238688D01*
X42545714Y-61238688D02*
X42588571Y-61324402D01*
X42588571Y-61324402D02*
X42631428Y-61367260D01*
X42631428Y-61367260D02*
X42717143Y-61410117D01*
X42717143Y-61410117D02*
X42888571Y-61410117D01*
X42888571Y-61410117D02*
X42974286Y-61367260D01*
X42974286Y-61367260D02*
X43017143Y-61324402D01*
X43017143Y-61324402D02*
X43060000Y-61238688D01*
X43060000Y-61238688D02*
X43060000Y-61024402D01*
X43060000Y-61024402D02*
X43017143Y-60938688D01*
X43017143Y-60938688D02*
X42974286Y-60895831D01*
X42974286Y-60895831D02*
X42888571Y-60852974D01*
X42888571Y-60852974D02*
X42717143Y-60852974D01*
X42717143Y-60852974D02*
X42631428Y-60895831D01*
X42631428Y-60895831D02*
X42588571Y-60938688D01*
X42588571Y-60938688D02*
X42545714Y-61024402D01*
X98921428Y-56410117D02*
X98621428Y-55981545D01*
X98407142Y-56410117D02*
X98407142Y-55510117D01*
X98407142Y-55510117D02*
X98749999Y-55510117D01*
X98749999Y-55510117D02*
X98835714Y-55552974D01*
X98835714Y-55552974D02*
X98878571Y-55595831D01*
X98878571Y-55595831D02*
X98921428Y-55681545D01*
X98921428Y-55681545D02*
X98921428Y-55810117D01*
X98921428Y-55810117D02*
X98878571Y-55895831D01*
X98878571Y-55895831D02*
X98835714Y-55938688D01*
X98835714Y-55938688D02*
X98749999Y-55981545D01*
X98749999Y-55981545D02*
X98407142Y-55981545D01*
X99778571Y-56410117D02*
X99264285Y-56410117D01*
X99521428Y-56410117D02*
X99521428Y-55510117D01*
X99521428Y-55510117D02*
X99435714Y-55638688D01*
X99435714Y-55638688D02*
X99349999Y-55724402D01*
X99349999Y-55724402D02*
X99264285Y-55767260D01*
X100078571Y-55510117D02*
X100678571Y-55510117D01*
X100678571Y-55510117D02*
X100292857Y-56410117D01*
X48421428Y-70310117D02*
X48121428Y-69881545D01*
X47907142Y-70310117D02*
X47907142Y-69410117D01*
X47907142Y-69410117D02*
X48249999Y-69410117D01*
X48249999Y-69410117D02*
X48335714Y-69452974D01*
X48335714Y-69452974D02*
X48378571Y-69495831D01*
X48378571Y-69495831D02*
X48421428Y-69581545D01*
X48421428Y-69581545D02*
X48421428Y-69710117D01*
X48421428Y-69710117D02*
X48378571Y-69795831D01*
X48378571Y-69795831D02*
X48335714Y-69838688D01*
X48335714Y-69838688D02*
X48249999Y-69881545D01*
X48249999Y-69881545D02*
X47907142Y-69881545D01*
X49278571Y-70310117D02*
X48764285Y-70310117D01*
X49021428Y-70310117D02*
X49021428Y-69410117D01*
X49021428Y-69410117D02*
X48935714Y-69538688D01*
X48935714Y-69538688D02*
X48849999Y-69624402D01*
X48849999Y-69624402D02*
X48764285Y-69667260D01*
X49621428Y-69495831D02*
X49664285Y-69452974D01*
X49664285Y-69452974D02*
X49750000Y-69410117D01*
X49750000Y-69410117D02*
X49964285Y-69410117D01*
X49964285Y-69410117D02*
X50050000Y-69452974D01*
X50050000Y-69452974D02*
X50092857Y-69495831D01*
X50092857Y-69495831D02*
X50135714Y-69581545D01*
X50135714Y-69581545D02*
X50135714Y-69667260D01*
X50135714Y-69667260D02*
X50092857Y-69795831D01*
X50092857Y-69795831D02*
X49578571Y-70310117D01*
X49578571Y-70310117D02*
X50135714Y-70310117D01*
X94521428Y-81910117D02*
X94221428Y-81481545D01*
X94007142Y-81910117D02*
X94007142Y-81010117D01*
X94007142Y-81010117D02*
X94349999Y-81010117D01*
X94349999Y-81010117D02*
X94435714Y-81052974D01*
X94435714Y-81052974D02*
X94478571Y-81095831D01*
X94478571Y-81095831D02*
X94521428Y-81181545D01*
X94521428Y-81181545D02*
X94521428Y-81310117D01*
X94521428Y-81310117D02*
X94478571Y-81395831D01*
X94478571Y-81395831D02*
X94435714Y-81438688D01*
X94435714Y-81438688D02*
X94349999Y-81481545D01*
X94349999Y-81481545D02*
X94007142Y-81481545D01*
X95378571Y-81910117D02*
X94864285Y-81910117D01*
X95121428Y-81910117D02*
X95121428Y-81010117D01*
X95121428Y-81010117D02*
X95035714Y-81138688D01*
X95035714Y-81138688D02*
X94949999Y-81224402D01*
X94949999Y-81224402D02*
X94864285Y-81267260D01*
X95892857Y-81395831D02*
X95807142Y-81352974D01*
X95807142Y-81352974D02*
X95764285Y-81310117D01*
X95764285Y-81310117D02*
X95721428Y-81224402D01*
X95721428Y-81224402D02*
X95721428Y-81181545D01*
X95721428Y-81181545D02*
X95764285Y-81095831D01*
X95764285Y-81095831D02*
X95807142Y-81052974D01*
X95807142Y-81052974D02*
X95892857Y-81010117D01*
X95892857Y-81010117D02*
X96064285Y-81010117D01*
X96064285Y-81010117D02*
X96150000Y-81052974D01*
X96150000Y-81052974D02*
X96192857Y-81095831D01*
X96192857Y-81095831D02*
X96235714Y-81181545D01*
X96235714Y-81181545D02*
X96235714Y-81224402D01*
X96235714Y-81224402D02*
X96192857Y-81310117D01*
X96192857Y-81310117D02*
X96150000Y-81352974D01*
X96150000Y-81352974D02*
X96064285Y-81395831D01*
X96064285Y-81395831D02*
X95892857Y-81395831D01*
X95892857Y-81395831D02*
X95807142Y-81438688D01*
X95807142Y-81438688D02*
X95764285Y-81481545D01*
X95764285Y-81481545D02*
X95721428Y-81567260D01*
X95721428Y-81567260D02*
X95721428Y-81738688D01*
X95721428Y-81738688D02*
X95764285Y-81824402D01*
X95764285Y-81824402D02*
X95807142Y-81867260D01*
X95807142Y-81867260D02*
X95892857Y-81910117D01*
X95892857Y-81910117D02*
X96064285Y-81910117D01*
X96064285Y-81910117D02*
X96150000Y-81867260D01*
X96150000Y-81867260D02*
X96192857Y-81824402D01*
X96192857Y-81824402D02*
X96235714Y-81738688D01*
X96235714Y-81738688D02*
X96235714Y-81567260D01*
X96235714Y-81567260D02*
X96192857Y-81481545D01*
X96192857Y-81481545D02*
X96150000Y-81438688D01*
X96150000Y-81438688D02*
X96064285Y-81395831D01*
X48921428Y-91410117D02*
X48621428Y-90981545D01*
X48407142Y-91410117D02*
X48407142Y-90510117D01*
X48407142Y-90510117D02*
X48749999Y-90510117D01*
X48749999Y-90510117D02*
X48835714Y-90552974D01*
X48835714Y-90552974D02*
X48878571Y-90595831D01*
X48878571Y-90595831D02*
X48921428Y-90681545D01*
X48921428Y-90681545D02*
X48921428Y-90810117D01*
X48921428Y-90810117D02*
X48878571Y-90895831D01*
X48878571Y-90895831D02*
X48835714Y-90938688D01*
X48835714Y-90938688D02*
X48749999Y-90981545D01*
X48749999Y-90981545D02*
X48407142Y-90981545D01*
X49778571Y-91410117D02*
X49264285Y-91410117D01*
X49521428Y-91410117D02*
X49521428Y-90510117D01*
X49521428Y-90510117D02*
X49435714Y-90638688D01*
X49435714Y-90638688D02*
X49349999Y-90724402D01*
X49349999Y-90724402D02*
X49264285Y-90767260D01*
X50592857Y-90510117D02*
X50164285Y-90510117D01*
X50164285Y-90510117D02*
X50121428Y-90938688D01*
X50121428Y-90938688D02*
X50164285Y-90895831D01*
X50164285Y-90895831D02*
X50250000Y-90852974D01*
X50250000Y-90852974D02*
X50464285Y-90852974D01*
X50464285Y-90852974D02*
X50550000Y-90895831D01*
X50550000Y-90895831D02*
X50592857Y-90938688D01*
X50592857Y-90938688D02*
X50635714Y-91024402D01*
X50635714Y-91024402D02*
X50635714Y-91238688D01*
X50635714Y-91238688D02*
X50592857Y-91324402D01*
X50592857Y-91324402D02*
X50550000Y-91367260D01*
X50550000Y-91367260D02*
X50464285Y-91410117D01*
X50464285Y-91410117D02*
X50250000Y-91410117D01*
X50250000Y-91410117D02*
X50164285Y-91367260D01*
X50164285Y-91367260D02*
X50121428Y-91324402D01*
X39271428Y-66010117D02*
X39271428Y-66652974D01*
X39271428Y-66652974D02*
X39228571Y-66781545D01*
X39228571Y-66781545D02*
X39142857Y-66867260D01*
X39142857Y-66867260D02*
X39014285Y-66910117D01*
X39014285Y-66910117D02*
X38928571Y-66910117D01*
X40171428Y-66910117D02*
X39657142Y-66910117D01*
X39914285Y-66910117D02*
X39914285Y-66010117D01*
X39914285Y-66010117D02*
X39828571Y-66138688D01*
X39828571Y-66138688D02*
X39742856Y-66224402D01*
X39742856Y-66224402D02*
X39657142Y-66267260D01*
X41028571Y-66910117D02*
X40514285Y-66910117D01*
X40771428Y-66910117D02*
X40771428Y-66010117D01*
X40771428Y-66010117D02*
X40685714Y-66138688D01*
X40685714Y-66138688D02*
X40599999Y-66224402D01*
X40599999Y-66224402D02*
X40514285Y-66267260D01*
X36271428Y-95010117D02*
X36271428Y-95652974D01*
X36271428Y-95652974D02*
X36228571Y-95781545D01*
X36228571Y-95781545D02*
X36142857Y-95867260D01*
X36142857Y-95867260D02*
X36014285Y-95910117D01*
X36014285Y-95910117D02*
X35928571Y-95910117D01*
X36657142Y-95095831D02*
X36699999Y-95052974D01*
X36699999Y-95052974D02*
X36785714Y-95010117D01*
X36785714Y-95010117D02*
X36999999Y-95010117D01*
X36999999Y-95010117D02*
X37085714Y-95052974D01*
X37085714Y-95052974D02*
X37128571Y-95095831D01*
X37128571Y-95095831D02*
X37171428Y-95181545D01*
X37171428Y-95181545D02*
X37171428Y-95267260D01*
X37171428Y-95267260D02*
X37128571Y-95395831D01*
X37128571Y-95395831D02*
X36614285Y-95910117D01*
X36614285Y-95910117D02*
X37171428Y-95910117D01*
X37685714Y-95395831D02*
X37599999Y-95352974D01*
X37599999Y-95352974D02*
X37557142Y-95310117D01*
X37557142Y-95310117D02*
X37514285Y-95224402D01*
X37514285Y-95224402D02*
X37514285Y-95181545D01*
X37514285Y-95181545D02*
X37557142Y-95095831D01*
X37557142Y-95095831D02*
X37599999Y-95052974D01*
X37599999Y-95052974D02*
X37685714Y-95010117D01*
X37685714Y-95010117D02*
X37857142Y-95010117D01*
X37857142Y-95010117D02*
X37942857Y-95052974D01*
X37942857Y-95052974D02*
X37985714Y-95095831D01*
X37985714Y-95095831D02*
X38028571Y-95181545D01*
X38028571Y-95181545D02*
X38028571Y-95224402D01*
X38028571Y-95224402D02*
X37985714Y-95310117D01*
X37985714Y-95310117D02*
X37942857Y-95352974D01*
X37942857Y-95352974D02*
X37857142Y-95395831D01*
X37857142Y-95395831D02*
X37685714Y-95395831D01*
X37685714Y-95395831D02*
X37599999Y-95438688D01*
X37599999Y-95438688D02*
X37557142Y-95481545D01*
X37557142Y-95481545D02*
X37514285Y-95567260D01*
X37514285Y-95567260D02*
X37514285Y-95738688D01*
X37514285Y-95738688D02*
X37557142Y-95824402D01*
X37557142Y-95824402D02*
X37599999Y-95867260D01*
X37599999Y-95867260D02*
X37685714Y-95910117D01*
X37685714Y-95910117D02*
X37857142Y-95910117D01*
X37857142Y-95910117D02*
X37942857Y-95867260D01*
X37942857Y-95867260D02*
X37985714Y-95824402D01*
X37985714Y-95824402D02*
X38028571Y-95738688D01*
X38028571Y-95738688D02*
X38028571Y-95567260D01*
X38028571Y-95567260D02*
X37985714Y-95481545D01*
X37985714Y-95481545D02*
X37942857Y-95438688D01*
X37942857Y-95438688D02*
X37857142Y-95395831D01*
M02*
