%TF.GenerationSoftware,KiCad,Pcbnew,10.0.6*%
%TF.CreationDate,2026-09-09T21:23:45+03:00*%
%TF.ProjectId,candidate,63616e64-6964-4617-9465-2e6b69636164,rev?*%
%TF.SameCoordinates,Original*%
%TF.FileFunction,Copper,L2,Bot*%
%TF.FilePolarity,Positive*%
%FSLAX46Y46*%
G04 Gerber Fmt 4.6, Leading zero omitted, Abs format (unit mm)*
G04 Created by KiCad (PCBNEW 10.0.6) date 2026-09-09 21:23:45*
%MOMM*%
%LPD*%
G01*
G04 APERTURE LIST*
%TA.AperFunction,ComponentPad*%
%ADD10C,3.500000*%
%TD*%
%TA.AperFunction,ComponentPad*%
%ADD11C,2.000000*%
%TD*%
%TA.AperFunction,SMDPad,CuDef*%
%ADD12C,2.000000*%
%TD*%
%TA.AperFunction,SMDPad,CuDef*%
%ADD13R,1.600000X2.000000*%
%TD*%
%TA.AperFunction,SMDPad,CuDef*%
%ADD14R,2.000000X1.600000*%
%TD*%
%TA.AperFunction,Conductor*%
%ADD15C,0.800000*%
%TD*%
%TA.AperFunction,Conductor*%
%ADD16C,1.000000*%
%TD*%
G04 APERTURE END LIST*
D10*
%TO.P,X4,1*%
%TO.N,OW*%
X90000000Y-89000000D03*
%TO.P,X4,2*%
%TO.N,+3V3*%
X95000000Y-89000000D03*
%TO.P,X4,3*%
%TO.N,GND*%
X100000000Y-89000000D03*
%TD*%
D11*
%TO.P,J20,1*%
%TO.N,+3V3*%
X94000000Y-42000000D03*
%TO.P,J20,2*%
%TO.N,GND*%
X94000000Y-44540000D03*
%TO.P,J20,3*%
%TO.N,SCL*%
X94000000Y-47080000D03*
%TO.P,J20,4*%
%TO.N,SDA*%
X94000000Y-49620000D03*
%TD*%
%TO.P,J10,1*%
%TO.N,+3V3*%
X93000000Y-38000000D03*
%TO.P,J10,2*%
%TO.N,SCL*%
X95540000Y-38000000D03*
%TO.P,J10,3*%
%TO.N,SDA*%
X98080000Y-38000000D03*
%TO.P,J10,4*%
%TO.N,GND*%
X100620000Y-38000000D03*
%TD*%
D12*
%TO.P,WA2,1*%
%TO.N,BTN*%
X42540000Y-69000000D03*
X58000000Y-57240000D03*
%TD*%
%TO.P,WA1,1*%
%TO.N,+3V3*%
X94000000Y-42000000D03*
D13*
X94000000Y-54100000D03*
%TD*%
D11*
%TO.P,Q1,1*%
%TO.N,RELAY_IN1*%
X39460000Y-79000000D03*
%TO.P,Q1,2*%
%TO.N,BASE1*%
X42000000Y-81540000D03*
%TO.P,Q1,3*%
%TO.N,GND*%
X44540000Y-79000000D03*
%TD*%
D12*
%TO.P,WA3,1*%
%TO.N,SCL*%
X94000000Y-47080000D03*
X95540000Y-38000000D03*
%TD*%
D11*
%TO.P,J22,1*%
%TO.N,+3V3*%
X52000000Y-54700000D03*
%TO.P,J22,2*%
%TO.N,GND*%
X52000000Y-57240000D03*
%TO.P,J22,3*%
%TO.N,SENS_PWR*%
X52000000Y-59780000D03*
%TD*%
D12*
%TO.P,WA4,1*%
%TO.N,SCL*%
X102000000Y-47080000D03*
D13*
X102000000Y-57900000D03*
%TD*%
D11*
%TO.P,J26,1*%
%TO.N,+5V*%
X60540000Y-98362500D03*
%TO.P,J26,2*%
%TO.N,GND*%
X58000000Y-98362500D03*
%TD*%
%TO.P,Q2,1*%
%TO.N,RELAY_IN2*%
X39460000Y-88000000D03*
%TO.P,Q2,2*%
%TO.N,BASE2*%
X42000000Y-90540000D03*
%TO.P,Q2,3*%
%TO.N,GND*%
X44540000Y-88000000D03*
%TD*%
D13*
%TO.P,R16,1*%
%TO.N,SDA*%
X94000000Y-57900000D03*
%TO.P,R16,2*%
%TO.N,+3V3*%
X94000000Y-54100000D03*
%TD*%
D14*
%TO.P,R14,1*%
%TO.N,K2*%
X54900000Y-77560000D03*
%TO.P,R14,2*%
%TO.N,BASE2*%
X51100000Y-77560000D03*
%TD*%
D11*
%TO.P,J12,1*%
%TO.N,MOSI*%
X70000000Y-102000000D03*
%TO.P,J12,2*%
%TO.N,GND*%
X72540000Y-102000000D03*
%TO.P,J12,3*%
%TO.N,MISO*%
X75080000Y-102000000D03*
%TO.P,J12,4*%
%TO.N,SCK*%
X77620000Y-102000000D03*
%TO.P,J12,5*%
%TO.N,CS*%
X80160000Y-102000000D03*
%TO.P,J12,6*%
%TO.N,+3V3*%
X82700000Y-102000000D03*
%TD*%
%TO.P,J9,1*%
%TO.N,DPS_TX*%
X92000000Y-75000000D03*
%TO.P,J9,2*%
%TO.N,DPS_RX*%
X92000000Y-77540000D03*
%TO.P,J9,3*%
%TO.N,GND*%
X92000000Y-80080000D03*
%TD*%
D14*
%TO.P,R13,1*%
%TO.N,BASE1*%
X50500000Y-72500000D03*
%TO.P,R13,2*%
%TO.N,GND*%
X54300000Y-72500000D03*
%TD*%
D11*
%TO.P,J7,1*%
%TO.N,GND*%
X44960000Y-64000000D03*
%TO.P,J7,2*%
%TO.N,SW2_ON*%
X47500000Y-64000000D03*
%TD*%
%TO.P,J21,1*%
%TO.N,+3V3*%
X102000000Y-42000000D03*
%TO.P,J21,2*%
%TO.N,GND*%
X102000000Y-44540000D03*
%TO.P,J21,3*%
%TO.N,SCL*%
X102000000Y-47080000D03*
%TO.P,J21,4*%
%TO.N,SDA*%
X102000000Y-49620000D03*
%TD*%
%TO.P,J1,1*%
%TO.N,+3V3*%
X58000000Y-42000000D03*
%TO.P,J1,2*%
%TO.N,unconnected-(J1-EN-Pad2)*%
X58000000Y-44540000D03*
%TO.P,J1,3*%
%TO.N,unconnected-(J1-GPIO36-Pad3)*%
X58000000Y-47080000D03*
%TO.P,J1,4*%
%TO.N,unconnected-(J1-GPIO39-Pad4)*%
X58000000Y-49620000D03*
%TO.P,J1,5*%
%TO.N,unconnected-(J1-GPIO34-Pad5)*%
X58000000Y-52160000D03*
%TO.P,J1,6*%
%TO.N,unconnected-(J1-GPIO35-Pad6)*%
X58000000Y-54700000D03*
%TO.P,J1,7*%
%TO.N,BTN*%
X58000000Y-57240000D03*
%TO.P,J1,8*%
%TO.N,SENS_PWR*%
X58000000Y-59780000D03*
%TO.P,J1,9*%
%TO.N,SW1_ON*%
X58000000Y-62320000D03*
%TO.P,J1,10*%
%TO.N,SW2_ON*%
X58000000Y-64860000D03*
%TO.P,J1,11*%
%TO.N,K1*%
X58000000Y-67400000D03*
%TO.P,J1,12*%
%TO.N,unconnected-(J1-GPIO14-Pad12)*%
X58000000Y-69940000D03*
%TO.P,J1,13*%
%TO.N,unconnected-(J1-GPIO12-Pad13)*%
X58000000Y-72480000D03*
%TO.P,J1,14*%
%TO.N,GND*%
X58000000Y-75020000D03*
%TO.P,J1,15*%
%TO.N,K2*%
X58000000Y-77560000D03*
%TO.P,J1,16*%
%TO.N,unconnected-(J1-GPIO9-Pad16)*%
X58000000Y-80100000D03*
%TO.P,J1,17*%
%TO.N,unconnected-(J1-GPIO10-Pad17)*%
X58000000Y-82640000D03*
%TO.P,J1,18*%
%TO.N,unconnected-(J1-GPIO11-Pad18)*%
X58000000Y-85180000D03*
%TO.P,J1,19*%
%TO.N,+5V*%
X58000000Y-87720000D03*
%TO.P,J1,20*%
%TO.N,GND*%
X83400000Y-42000000D03*
%TO.P,J1,21*%
%TO.N,MOSI*%
X83400000Y-44540000D03*
%TO.P,J1,22*%
%TO.N,SCL*%
X83400000Y-47080000D03*
%TO.P,J1,23*%
%TO.N,unconnected-(J1-GPIO1-Pad23)*%
X83400000Y-49620000D03*
%TO.P,J1,24*%
%TO.N,unconnected-(J1-GPIO3-Pad24)*%
X83400000Y-52160000D03*
%TO.P,J1,25*%
%TO.N,SDA*%
X83400000Y-54700000D03*
%TO.P,J1,26*%
%TO.N,GND*%
X83400000Y-57240000D03*
%TO.P,J1,27*%
%TO.N,MISO*%
X83400000Y-59780000D03*
%TO.P,J1,28*%
%TO.N,SCK*%
X83400000Y-62320000D03*
%TO.P,J1,29*%
%TO.N,CS*%
X83400000Y-64860000D03*
%TO.P,J1,30*%
%TO.N,DPS_TX*%
X83400000Y-67400000D03*
%TO.P,J1,31*%
%TO.N,DPS_RX*%
X83400000Y-69940000D03*
%TO.P,J1,32*%
%TO.N,OW*%
X83400000Y-72480000D03*
%TO.P,J1,33*%
%TO.N,unconnected-(J1-GPIO0-Pad33)*%
X83400000Y-75020000D03*
%TO.P,J1,34*%
%TO.N,unconnected-(J1-GPIO2-Pad34)*%
X83400000Y-77560000D03*
%TO.P,J1,35*%
%TO.N,unconnected-(J1-GPIO15-Pad35)*%
X83400000Y-80100000D03*
%TO.P,J1,36*%
%TO.N,unconnected-(J1-GPIO8-Pad36)*%
X83400000Y-82640000D03*
%TO.P,J1,37*%
%TO.N,unconnected-(J1-GPIO7-Pad37)*%
X83400000Y-85180000D03*
%TO.P,J1,38*%
%TO.N,unconnected-(J1-GPIO6-Pad38)*%
X83400000Y-87720000D03*
%TD*%
%TO.P,J6,1*%
%TO.N,GND*%
X44960000Y-61000000D03*
%TO.P,J6,2*%
%TO.N,SW1_ON*%
X47500000Y-61000000D03*
%TD*%
D13*
%TO.P,R17,1*%
%TO.N,SCL*%
X102000000Y-57900000D03*
%TO.P,R17,2*%
%TO.N,+3V3*%
X102000000Y-54100000D03*
%TD*%
D14*
%TO.P,R12,1*%
%TO.N,K1*%
X54900000Y-67400000D03*
%TO.P,R12,2*%
%TO.N,BASE1*%
X51100000Y-67400000D03*
%TD*%
%TO.P,R18,1*%
%TO.N,OW*%
X91199999Y-84000000D03*
%TO.P,R18,2*%
%TO.N,+3V3*%
X95000000Y-84000000D03*
%TD*%
D13*
%TO.P,R15,1*%
%TO.N,BASE2*%
X47000000Y-89100000D03*
%TO.P,R15,2*%
%TO.N,GND*%
X47000000Y-92900000D03*
%TD*%
D11*
%TO.P,J11,1*%
%TO.N,GND*%
X40000000Y-69000000D03*
%TO.P,J11,2*%
%TO.N,BTN*%
X42540000Y-69000000D03*
%TD*%
%TO.P,J28,1*%
%TO.N,RELAY_IN1*%
X37000000Y-98000000D03*
%TO.P,J28,2*%
%TO.N,RELAY_IN2*%
X39540000Y-98000000D03*
%TO.P,J28,3*%
%TO.N,GND*%
X42080000Y-98000000D03*
%TD*%
%TO.N,OW*%
D15*
X90000000Y-89000000D02*
X91199999Y-84000000D01*
X83892440Y-71993573D02*
X85036124Y-73679805D01*
X85036124Y-73679805D02*
X91199999Y-84000000D01*
X83400000Y-72480000D02*
X84395252Y-73153855D01*
X84395252Y-73153855D02*
X83892440Y-71993573D01*
%TO.N,+3V3*%
D16*
X94000000Y-42000000D02*
X102000000Y-42000000D01*
X93000000Y-38000000D02*
X94000000Y-42000000D01*
X58000000Y-42000000D02*
X32636581Y-36282621D01*
X104007176Y-101628486D02*
X100625545Y-59970567D01*
X104007176Y-101628486D02*
X97307961Y-90238968D01*
X66427499Y-105890500D02*
X70902000Y-105890500D01*
X100625545Y-59970567D02*
X104007176Y-101628486D01*
X100625545Y-59970567D02*
X94000000Y-54100000D01*
X32636581Y-36282621D02*
X33143083Y-99243795D01*
X33769773Y-101599034D02*
X66427499Y-105890500D01*
X97307961Y-90238968D02*
X95000000Y-84000000D01*
X52000000Y-42000000D02*
X58000000Y-42000000D01*
X52000000Y-54700000D02*
X52000000Y-42000000D01*
X70902000Y-105890500D02*
X104007176Y-101628486D01*
X33143083Y-99243795D02*
X33769773Y-101599034D01*
X94000000Y-54100000D02*
X100625545Y-59970567D01*
X82700000Y-102000000D02*
X95000000Y-89000000D01*
X94000000Y-54100000D02*
X102000000Y-54100000D01*
X95000000Y-84000000D02*
X95000000Y-89000000D01*
%TO.N,SCL*%
D15*
X83400000Y-47080000D02*
X94000000Y-47080000D01*
X94000000Y-47080000D02*
X102000000Y-47080000D01*
%TO.N,SDA*%
X100521983Y-35889815D02*
X103882310Y-36244936D01*
X105748104Y-43231736D02*
X102800000Y-51985000D01*
X97173633Y-36656771D02*
X100521983Y-35889815D01*
X103882310Y-36244936D02*
X105748104Y-40713064D01*
X98080000Y-38000000D02*
X97173633Y-36656771D01*
X94000000Y-49620000D02*
X85504960Y-52365350D01*
X94000000Y-49620000D02*
X102000000Y-49620000D01*
X83400000Y-54700000D02*
X94000000Y-57900000D01*
X102800000Y-51985000D02*
X102000000Y-49620000D01*
X85504960Y-52365350D02*
X94000000Y-57900000D01*
X105748104Y-40713064D02*
X105748104Y-43231736D01*
%TO.N,RELAY_IN1*%
X37000000Y-81460000D02*
X39460000Y-79000000D01*
X37000000Y-98000000D02*
X37000000Y-81460000D01*
%TO.N,BASE1*%
X42000000Y-81540000D02*
X42552228Y-78284855D01*
X42552228Y-78284855D02*
X45833677Y-71083077D01*
X45833677Y-71083077D02*
X50500000Y-72500000D01*
X50500000Y-72500000D02*
X51100000Y-67400000D01*
%TO.N,SENS_PWR*%
X52000000Y-59780000D02*
X58000000Y-59780000D01*
%TO.N,+5V*%
D16*
X58000000Y-87720000D02*
X60540000Y-98362500D01*
%TO.N,RELAY_IN2*%
D15*
X39460000Y-88000000D02*
X39540000Y-98000000D01*
%TO.N,BASE2*%
X47000000Y-89100000D02*
X51100000Y-77560000D01*
X42000000Y-90540000D02*
X45560000Y-90540000D01*
X45560000Y-90540000D02*
X47000000Y-89100000D01*
%TO.N,K2*%
X54900000Y-77560000D02*
X58000000Y-77560000D01*
%TO.N,MOSI*%
X70000000Y-102000000D02*
X70000000Y-44540000D01*
X70000000Y-44540000D02*
X83400000Y-44540000D01*
%TO.N,MISO*%
X75080000Y-102000000D02*
X74155000Y-68223255D01*
X74155000Y-68223255D02*
X82056771Y-60686367D01*
X82056771Y-60686367D02*
X83400000Y-59780000D01*
%TO.N,SCK*%
X75687864Y-68854824D02*
X82144539Y-63161033D01*
X82144539Y-63161033D02*
X83400000Y-62320000D01*
X77620000Y-102000000D02*
X75687864Y-68854824D01*
%TO.N,CS*%
X80160000Y-102000000D02*
X77243229Y-69503160D01*
X77243229Y-69503160D02*
X82401286Y-65535705D01*
X82401286Y-65535705D02*
X83400000Y-64860000D01*
%TO.N,DPS_TX*%
X84400000Y-67400000D02*
X92000000Y-75000000D01*
X83400000Y-67400000D02*
X84400000Y-67400000D01*
%TO.N,DPS_RX*%
X83400000Y-69940000D02*
X84944741Y-70903736D01*
X90659805Y-76636124D02*
X92000000Y-77540000D01*
X84944741Y-70903736D02*
X90659805Y-76636124D01*
%TO.N,SW2_ON*%
X47500000Y-64000000D02*
X58000000Y-64860000D01*
%TO.N,SW1_ON*%
X47500000Y-61000000D02*
X48820000Y-62320000D01*
X48820000Y-62320000D02*
X58000000Y-62320000D01*
%TO.N,K1*%
X54900000Y-67400000D02*
X58000000Y-67400000D01*
%TD*%
%TA.AperFunction,Conductor*%
%TO.N,GND*%
G36*
X107189320Y-30593910D02*
G01*
X107290360Y-30648590D01*
X107368171Y-30733115D01*
X107414321Y-30838326D01*
X107425000Y-30924000D01*
X107425000Y-40261125D01*
X107406090Y-40374445D01*
X107351410Y-40475485D01*
X107266885Y-40553296D01*
X107161674Y-40599446D01*
X107047180Y-40608933D01*
X106935808Y-40580730D01*
X106839629Y-40517893D01*
X106769064Y-40427231D01*
X106753950Y-40395604D01*
X106718263Y-40310141D01*
X106717879Y-40309220D01*
X106679045Y-40215466D01*
X106679042Y-40215461D01*
X106674142Y-40203632D01*
X106671181Y-40197394D01*
X104880875Y-35910041D01*
X104868242Y-35874491D01*
X104860391Y-35847931D01*
X104853944Y-35832047D01*
X104857384Y-35830650D01*
X104831641Y-35752578D01*
X104833042Y-35637699D01*
X104871667Y-35529500D01*
X104943332Y-35439704D01*
X105040270Y-35378044D01*
X105086220Y-35362228D01*
X105128313Y-35350950D01*
X105364535Y-35253104D01*
X105585965Y-35125261D01*
X105788813Y-34969610D01*
X105969610Y-34788813D01*
X106125261Y-34585965D01*
X106253104Y-34364535D01*
X106350950Y-34128313D01*
X106417126Y-33881340D01*
X106450500Y-33627843D01*
X106450500Y-33372157D01*
X106417126Y-33118660D01*
X106350950Y-32871687D01*
X106253104Y-32635465D01*
X106125261Y-32414035D01*
X106125260Y-32414033D01*
X106064574Y-32334947D01*
X105969610Y-32211187D01*
X105969603Y-32211180D01*
X105969598Y-32211174D01*
X105788825Y-32030401D01*
X105788819Y-32030396D01*
X105788813Y-32030390D01*
X105699468Y-31961833D01*
X105585966Y-31874739D01*
X105585964Y-31874738D01*
X105475250Y-31810817D01*
X105364535Y-31746896D01*
X105364529Y-31746893D01*
X105364524Y-31746891D01*
X105128314Y-31649050D01*
X104881346Y-31582875D01*
X104881329Y-31582872D01*
X104709726Y-31560280D01*
X104627843Y-31549500D01*
X104372157Y-31549500D01*
X104301660Y-31558781D01*
X104118670Y-31582872D01*
X104118653Y-31582875D01*
X103871686Y-31649050D01*
X103871684Y-31649050D01*
X103635475Y-31746891D01*
X103635463Y-31746897D01*
X103414035Y-31874738D01*
X103414033Y-31874739D01*
X103211192Y-32030386D01*
X103211174Y-32030401D01*
X103030401Y-32211174D01*
X103030386Y-32211192D01*
X102874739Y-32414033D01*
X102874738Y-32414035D01*
X102746897Y-32635463D01*
X102746891Y-32635475D01*
X102649050Y-32871684D01*
X102649050Y-32871686D01*
X102582875Y-33118653D01*
X102582872Y-33118670D01*
X102549500Y-33372158D01*
X102549500Y-33627841D01*
X102582872Y-33881329D01*
X102582875Y-33881346D01*
X102649050Y-34128313D01*
X102649050Y-34128315D01*
X102746891Y-34364524D01*
X102746897Y-34364537D01*
X102837081Y-34520740D01*
X102877365Y-34628333D01*
X102880530Y-34743177D01*
X102846235Y-34852826D01*
X102778194Y-34945397D01*
X102683783Y-35010861D01*
X102573230Y-35042122D01*
X102498160Y-35042307D01*
X100675727Y-34849712D01*
X100654215Y-34846760D01*
X100595128Y-34836768D01*
X100585640Y-34837042D01*
X100538932Y-34835256D01*
X100529494Y-34834259D01*
X100529492Y-34834259D01*
X100469844Y-34839705D01*
X100448178Y-34841005D01*
X100388289Y-34842732D01*
X100388285Y-34842733D01*
X100379039Y-34844851D01*
X100332868Y-34852213D01*
X100323419Y-34853076D01*
X100323413Y-34853077D01*
X100265972Y-34870056D01*
X100244966Y-34875561D01*
X96955634Y-35628999D01*
X96947352Y-35630790D01*
X96862631Y-35648042D01*
X96850392Y-35651815D01*
X96838227Y-35655892D01*
X96759327Y-35691269D01*
X96751567Y-35694636D01*
X96671818Y-35728095D01*
X96660486Y-35734219D01*
X96649413Y-35740555D01*
X96578905Y-35790664D01*
X96571948Y-35795483D01*
X96500274Y-35843848D01*
X96490425Y-35852004D01*
X96480742Y-35860430D01*
X96421365Y-35923330D01*
X96415481Y-35929414D01*
X96354626Y-35990824D01*
X96346520Y-36000792D01*
X96338698Y-36010904D01*
X96292731Y-36084185D01*
X96288148Y-36091297D01*
X96240442Y-36163402D01*
X96234447Y-36174741D01*
X96228739Y-36186202D01*
X96197956Y-36267033D01*
X96194846Y-36274910D01*
X96180569Y-36309826D01*
X96120177Y-36407559D01*
X96031323Y-36480388D01*
X95923636Y-36520419D01*
X95808785Y-36523316D01*
X95802938Y-36522441D01*
X95771813Y-36517511D01*
X95658092Y-36499500D01*
X95421908Y-36499500D01*
X95421903Y-36499500D01*
X95188638Y-36536445D01*
X95188623Y-36536449D01*
X94964015Y-36609429D01*
X94963999Y-36609436D01*
X94753572Y-36716653D01*
X94753567Y-36716656D01*
X94562487Y-36855485D01*
X94516778Y-36901194D01*
X94423277Y-36967952D01*
X94313166Y-37000732D01*
X94198377Y-36995984D01*
X94091349Y-36954220D01*
X94023222Y-36901194D01*
X93977512Y-36855485D01*
X93977511Y-36855484D01*
X93977510Y-36855483D01*
X93786433Y-36716657D01*
X93786434Y-36716657D01*
X93786432Y-36716656D01*
X93786427Y-36716653D01*
X93576000Y-36609436D01*
X93575998Y-36609435D01*
X93575992Y-36609432D01*
X93575987Y-36609430D01*
X93575984Y-36609429D01*
X93351376Y-36536449D01*
X93351361Y-36536445D01*
X93118096Y-36499500D01*
X93118092Y-36499500D01*
X92881908Y-36499500D01*
X92881903Y-36499500D01*
X92648638Y-36536445D01*
X92648623Y-36536449D01*
X92424015Y-36609429D01*
X92423999Y-36609436D01*
X92213572Y-36716653D01*
X92213567Y-36716656D01*
X92022488Y-36855484D01*
X91855484Y-37022488D01*
X91716656Y-37213567D01*
X91716653Y-37213572D01*
X91609436Y-37423999D01*
X91609429Y-37424015D01*
X91536449Y-37648623D01*
X91536445Y-37648638D01*
X91499500Y-37881903D01*
X91499500Y-38118096D01*
X91536445Y-38351361D01*
X91536449Y-38351376D01*
X91609429Y-38575984D01*
X91609436Y-38576000D01*
X91716653Y-38786427D01*
X91716656Y-38786432D01*
X91716657Y-38786433D01*
X91855483Y-38977510D01*
X92022490Y-39144517D01*
X92022494Y-39144520D01*
X92032917Y-39153422D01*
X92031125Y-39155519D01*
X92095389Y-39220868D01*
X92144982Y-39324500D01*
X92148250Y-39336637D01*
X92619414Y-41221293D01*
X92628553Y-41335816D01*
X92612753Y-41413784D01*
X92536448Y-41648626D01*
X92536445Y-41648638D01*
X92499500Y-41881903D01*
X92499500Y-42118096D01*
X92536445Y-42351361D01*
X92536449Y-42351376D01*
X92609429Y-42575984D01*
X92609436Y-42576000D01*
X92716653Y-42786427D01*
X92716656Y-42786432D01*
X92716657Y-42786433D01*
X92855483Y-42977510D01*
X93022490Y-43144517D01*
X93195202Y-43270000D01*
X93213567Y-43283343D01*
X93213572Y-43283346D01*
X93315344Y-43335201D01*
X93424008Y-43390568D01*
X93648632Y-43463553D01*
X93648637Y-43463553D01*
X93648638Y-43463554D01*
X93693611Y-43470676D01*
X93881908Y-43500500D01*
X93881912Y-43500500D01*
X94118088Y-43500500D01*
X94118092Y-43500500D01*
X94351368Y-43463553D01*
X94575992Y-43390568D01*
X94786433Y-43283343D01*
X94877536Y-43217152D01*
X94980328Y-43165844D01*
X95082673Y-43150500D01*
X100917327Y-43150500D01*
X101030647Y-43169410D01*
X101122463Y-43217152D01*
X101195202Y-43270000D01*
X101213567Y-43283343D01*
X101213572Y-43283346D01*
X101315344Y-43335201D01*
X101424008Y-43390568D01*
X101648632Y-43463553D01*
X101648637Y-43463553D01*
X101648638Y-43463554D01*
X101693611Y-43470676D01*
X101881908Y-43500500D01*
X101881912Y-43500500D01*
X102118088Y-43500500D01*
X102118092Y-43500500D01*
X102351368Y-43463553D01*
X102575992Y-43390568D01*
X102786433Y-43283343D01*
X102977510Y-43144517D01*
X103144517Y-42977510D01*
X103283343Y-42786433D01*
X103390568Y-42575992D01*
X103463553Y-42351368D01*
X103500500Y-42118092D01*
X103500500Y-41881908D01*
X103463553Y-41648632D01*
X103390568Y-41424008D01*
X103283343Y-41213567D01*
X103144517Y-41022490D01*
X102977510Y-40855483D01*
X102867988Y-40775910D01*
X102786432Y-40716656D01*
X102786427Y-40716653D01*
X102576000Y-40609436D01*
X102575998Y-40609435D01*
X102575992Y-40609432D01*
X102575987Y-40609430D01*
X102575984Y-40609429D01*
X102351376Y-40536449D01*
X102351361Y-40536445D01*
X102118096Y-40499500D01*
X102118092Y-40499500D01*
X101881908Y-40499500D01*
X101881903Y-40499500D01*
X101648638Y-40536445D01*
X101648623Y-40536449D01*
X101424015Y-40609429D01*
X101423999Y-40609436D01*
X101213572Y-40716653D01*
X101213567Y-40716656D01*
X101122465Y-40782847D01*
X101019672Y-40834156D01*
X100917327Y-40849500D01*
X95170774Y-40849500D01*
X95057454Y-40830590D01*
X94956414Y-40775910D01*
X94878603Y-40691385D01*
X94832453Y-40586174D01*
X94832194Y-40585145D01*
X94820020Y-40536449D01*
X94648308Y-39849603D01*
X94639170Y-39735085D01*
X94667712Y-39623800D01*
X94730841Y-39527812D01*
X94821717Y-39457523D01*
X94930493Y-39420550D01*
X95045379Y-39420899D01*
X95094732Y-39433043D01*
X95188632Y-39463553D01*
X95421908Y-39500500D01*
X95421912Y-39500500D01*
X95658088Y-39500500D01*
X95658092Y-39500500D01*
X95891368Y-39463553D01*
X96115992Y-39390568D01*
X96326433Y-39283343D01*
X96517510Y-39144517D01*
X96563220Y-39098807D01*
X96656720Y-39032049D01*
X96766831Y-38999267D01*
X96881620Y-39004015D01*
X96988648Y-39045777D01*
X97056780Y-39098807D01*
X97102490Y-39144517D01*
X97207578Y-39220868D01*
X97293567Y-39283343D01*
X97293572Y-39283346D01*
X97374342Y-39324500D01*
X97504008Y-39390568D01*
X97728632Y-39463553D01*
X97961908Y-39500500D01*
X97961912Y-39500500D01*
X98198088Y-39500500D01*
X98198092Y-39500500D01*
X98431368Y-39463553D01*
X98655992Y-39390568D01*
X98866433Y-39283343D01*
X99057510Y-39144517D01*
X99224517Y-38977510D01*
X99363343Y-38786433D01*
X99470568Y-38575992D01*
X99543553Y-38351368D01*
X99580500Y-38118092D01*
X99580500Y-37881908D01*
X99543553Y-37648632D01*
X99523248Y-37586141D01*
X99506215Y-37472527D01*
X99526995Y-37359535D01*
X99583338Y-37259412D01*
X99669137Y-37183009D01*
X99775096Y-37138604D01*
X99777073Y-37138144D01*
X100529056Y-36965899D01*
X100643653Y-36959023D01*
X102763121Y-37183009D01*
X102947138Y-37202456D01*
X103057843Y-37233170D01*
X103152577Y-37298166D01*
X103221074Y-37390401D01*
X103232509Y-37415042D01*
X104238016Y-39822987D01*
X104669165Y-40855484D01*
X104670653Y-40859046D01*
X104696870Y-40970902D01*
X104697604Y-40993527D01*
X104697604Y-43002388D01*
X104679349Y-43113783D01*
X103719278Y-45964341D01*
X103665187Y-46065698D01*
X103581117Y-46144000D01*
X103476177Y-46190762D01*
X103361740Y-46200916D01*
X103250206Y-46173362D01*
X103153662Y-46111086D01*
X103141753Y-46099726D01*
X102977511Y-45935484D01*
X102786432Y-45796656D01*
X102786427Y-45796653D01*
X102576000Y-45689436D01*
X102575998Y-45689435D01*
X102575992Y-45689432D01*
X102575987Y-45689430D01*
X102575984Y-45689429D01*
X102351376Y-45616449D01*
X102351361Y-45616445D01*
X102118096Y-45579500D01*
X102118092Y-45579500D01*
X101881908Y-45579500D01*
X101881903Y-45579500D01*
X101648638Y-45616445D01*
X101648623Y-45616449D01*
X101424015Y-45689429D01*
X101423999Y-45689436D01*
X101213572Y-45796653D01*
X101213567Y-45796656D01*
X101022487Y-45935485D01*
X101012070Y-45944383D01*
X101010050Y-45942018D01*
X100937193Y-45994038D01*
X100827082Y-46026820D01*
X100783913Y-46029500D01*
X95216087Y-46029500D01*
X95102767Y-46010590D01*
X95001727Y-45955910D01*
X94988249Y-45944008D01*
X94987930Y-45944383D01*
X94977512Y-45935485D01*
X94977511Y-45935484D01*
X94977510Y-45935483D01*
X94786433Y-45796657D01*
X94786434Y-45796657D01*
X94786432Y-45796656D01*
X94786427Y-45796653D01*
X94576000Y-45689436D01*
X94575998Y-45689435D01*
X94575992Y-45689432D01*
X94575987Y-45689430D01*
X94575984Y-45689429D01*
X94351376Y-45616449D01*
X94351361Y-45616445D01*
X94118096Y-45579500D01*
X94118092Y-45579500D01*
X93881908Y-45579500D01*
X93881903Y-45579500D01*
X93648638Y-45616445D01*
X93648623Y-45616449D01*
X93424015Y-45689429D01*
X93423999Y-45689436D01*
X93213572Y-45796653D01*
X93213567Y-45796656D01*
X93022487Y-45935485D01*
X93012070Y-45944383D01*
X93010050Y-45942018D01*
X92937193Y-45994038D01*
X92827082Y-46026820D01*
X92783913Y-46029500D01*
X84857486Y-46029500D01*
X84744166Y-46010590D01*
X84643126Y-45955910D01*
X84565315Y-45871385D01*
X84519165Y-45766174D01*
X84509678Y-45651680D01*
X84537881Y-45540308D01*
X84575139Y-45475362D01*
X84683343Y-45326433D01*
X84790568Y-45115992D01*
X84863553Y-44891368D01*
X84900500Y-44658092D01*
X84900500Y-44421908D01*
X84863553Y-44188632D01*
X84790568Y-43964008D01*
X84683343Y-43753567D01*
X84544517Y-43562490D01*
X84377510Y-43395483D01*
X84245170Y-43299332D01*
X84186432Y-43256656D01*
X84186427Y-43256653D01*
X83976000Y-43149436D01*
X83975998Y-43149435D01*
X83975992Y-43149432D01*
X83975987Y-43149430D01*
X83975984Y-43149429D01*
X83751376Y-43076449D01*
X83751361Y-43076445D01*
X83518096Y-43039500D01*
X83518092Y-43039500D01*
X83281908Y-43039500D01*
X83281903Y-43039500D01*
X83048638Y-43076445D01*
X83048623Y-43076449D01*
X82824015Y-43149429D01*
X82823999Y-43149436D01*
X82613572Y-43256653D01*
X82613567Y-43256656D01*
X82422487Y-43395485D01*
X82412070Y-43404383D01*
X82410050Y-43402018D01*
X82337193Y-43454038D01*
X82227082Y-43486820D01*
X82183913Y-43489500D01*
X69896535Y-43489500D01*
X69693580Y-43529870D01*
X69502400Y-43609059D01*
X69330341Y-43724025D01*
X69184025Y-43870341D01*
X69069059Y-44042400D01*
X68989870Y-44233580D01*
X68949500Y-44436534D01*
X68949500Y-100783913D01*
X68930590Y-100897233D01*
X68875910Y-100998273D01*
X68864008Y-101011750D01*
X68864383Y-101012070D01*
X68855485Y-101022487D01*
X68716656Y-101213567D01*
X68716653Y-101213572D01*
X68609436Y-101423999D01*
X68609429Y-101424015D01*
X68536449Y-101648623D01*
X68536445Y-101648638D01*
X68499500Y-101881903D01*
X68499500Y-102118096D01*
X68536445Y-102351361D01*
X68536449Y-102351376D01*
X68609429Y-102575984D01*
X68609436Y-102576000D01*
X68716653Y-102786427D01*
X68716656Y-102786432D01*
X68716657Y-102786433D01*
X68855483Y-102977510D01*
X69022490Y-103144517D01*
X69114253Y-103211187D01*
X69213567Y-103283343D01*
X69213572Y-103283346D01*
X69259808Y-103306904D01*
X69424008Y-103390568D01*
X69648632Y-103463553D01*
X69881908Y-103500500D01*
X69881912Y-103500500D01*
X70118088Y-103500500D01*
X70118092Y-103500500D01*
X70351368Y-103463553D01*
X70575992Y-103390568D01*
X70786433Y-103283343D01*
X70977510Y-103144517D01*
X71144517Y-102977510D01*
X71283343Y-102786433D01*
X71390568Y-102575992D01*
X71463553Y-102351368D01*
X71500500Y-102118092D01*
X71500500Y-101881908D01*
X71463553Y-101648632D01*
X71390568Y-101424008D01*
X71283343Y-101213567D01*
X71144517Y-101022490D01*
X71144514Y-101022487D01*
X71135617Y-101012070D01*
X71137981Y-101010050D01*
X71085962Y-100937193D01*
X71053180Y-100827082D01*
X71050500Y-100783913D01*
X71050500Y-45939500D01*
X71069410Y-45826180D01*
X71124090Y-45725140D01*
X71208615Y-45647329D01*
X71313826Y-45601179D01*
X71399500Y-45590500D01*
X81942514Y-45590500D01*
X82055834Y-45609410D01*
X82156874Y-45664090D01*
X82234685Y-45748615D01*
X82280835Y-45853826D01*
X82290322Y-45968320D01*
X82262119Y-46079692D01*
X82224861Y-46144638D01*
X82116656Y-46293567D01*
X82116653Y-46293572D01*
X82009436Y-46503999D01*
X82009429Y-46504015D01*
X81936449Y-46728623D01*
X81936445Y-46728638D01*
X81899500Y-46961903D01*
X81899500Y-47198096D01*
X81936445Y-47431361D01*
X81936449Y-47431376D01*
X82009429Y-47655984D01*
X82009436Y-47656000D01*
X82116653Y-47866427D01*
X82116656Y-47866432D01*
X82116657Y-47866433D01*
X82255483Y-48057510D01*
X82255484Y-48057511D01*
X82255485Y-48057512D01*
X82301194Y-48103222D01*
X82367952Y-48196723D01*
X82400732Y-48306834D01*
X82395984Y-48421623D01*
X82354220Y-48528651D01*
X82301194Y-48596778D01*
X82255485Y-48642487D01*
X82116656Y-48833567D01*
X82116653Y-48833572D01*
X82009436Y-49043999D01*
X82009429Y-49044015D01*
X81936449Y-49268623D01*
X81936445Y-49268638D01*
X81899500Y-49501903D01*
X81899500Y-49738096D01*
X81936445Y-49971361D01*
X81936449Y-49971376D01*
X82009429Y-50195984D01*
X82009436Y-50196000D01*
X82116653Y-50406427D01*
X82116656Y-50406432D01*
X82116657Y-50406433D01*
X82255483Y-50597510D01*
X82255484Y-50597511D01*
X82255485Y-50597512D01*
X82301194Y-50643222D01*
X82367952Y-50736723D01*
X82400732Y-50846834D01*
X82395984Y-50961623D01*
X82354220Y-51068651D01*
X82301194Y-51136778D01*
X82255485Y-51182487D01*
X82116656Y-51373567D01*
X82116653Y-51373572D01*
X82009436Y-51583999D01*
X82009429Y-51584015D01*
X81936449Y-51808623D01*
X81936445Y-51808638D01*
X81899500Y-52041903D01*
X81899500Y-52278096D01*
X81936445Y-52511361D01*
X81936449Y-52511376D01*
X82009429Y-52735984D01*
X82009436Y-52736000D01*
X82116653Y-52946427D01*
X82116656Y-52946432D01*
X82116657Y-52946433D01*
X82255483Y-53137510D01*
X82255484Y-53137511D01*
X82255485Y-53137512D01*
X82301194Y-53183222D01*
X82367952Y-53276723D01*
X82400732Y-53386834D01*
X82395984Y-53501623D01*
X82354220Y-53608651D01*
X82301194Y-53676778D01*
X82255485Y-53722487D01*
X82116656Y-53913567D01*
X82116653Y-53913572D01*
X82009436Y-54123999D01*
X82009429Y-54124015D01*
X81936449Y-54348623D01*
X81936445Y-54348638D01*
X81899500Y-54581903D01*
X81899500Y-54818096D01*
X81936445Y-55051361D01*
X81936449Y-55051376D01*
X82009429Y-55275984D01*
X82009436Y-55276000D01*
X82116653Y-55486427D01*
X82116656Y-55486432D01*
X82161831Y-55548609D01*
X82255483Y-55677510D01*
X82422490Y-55844517D01*
X82595202Y-55970000D01*
X82613567Y-55983343D01*
X82613572Y-55983346D01*
X82676908Y-56015617D01*
X82824008Y-56090568D01*
X83048632Y-56163553D01*
X83281908Y-56200500D01*
X83281912Y-56200500D01*
X83518088Y-56200500D01*
X83518092Y-56200500D01*
X83751368Y-56163553D01*
X83975992Y-56090568D01*
X83998089Y-56079308D01*
X84107635Y-56044710D01*
X84222487Y-56047557D01*
X84257379Y-56056157D01*
X92451366Y-58529812D01*
X92554382Y-58580664D01*
X92635308Y-58662211D01*
X92685370Y-58765617D01*
X92699500Y-58863914D01*
X92699500Y-58947869D01*
X92705909Y-59007485D01*
X92705910Y-59007488D01*
X92756202Y-59142328D01*
X92756203Y-59142329D01*
X92756204Y-59142331D01*
X92842454Y-59257546D01*
X92934523Y-59326469D01*
X92957670Y-59343797D01*
X93025093Y-59368943D01*
X93092517Y-59394091D01*
X93152127Y-59400500D01*
X94847872Y-59400499D01*
X94907483Y-59394091D01*
X95042331Y-59343796D01*
X95157546Y-59257546D01*
X95243796Y-59142331D01*
X95294091Y-59007483D01*
X95300500Y-58947873D01*
X95300499Y-57564975D01*
X95319409Y-57451658D01*
X95374089Y-57350618D01*
X95458614Y-57272807D01*
X95563824Y-57226657D01*
X95678319Y-57217170D01*
X95789690Y-57245373D01*
X95880947Y-57303764D01*
X99411201Y-60431747D01*
X99483477Y-60521052D01*
X99522839Y-60628985D01*
X99527609Y-60664723D01*
X102331199Y-95201836D01*
X102321520Y-95316315D01*
X102275194Y-95421448D01*
X102197242Y-95505843D01*
X102096110Y-95560354D01*
X101982758Y-95579074D01*
X101869470Y-95559974D01*
X101768522Y-95505125D01*
X101690853Y-95420469D01*
X101682522Y-95407014D01*
X99574636Y-91823339D01*
X98367238Y-89770608D01*
X98340738Y-89714754D01*
X98284411Y-89562490D01*
X97424938Y-87239129D01*
X96522177Y-84798753D01*
X96500596Y-84685911D01*
X96500499Y-84677668D01*
X96500499Y-83152129D01*
X96500499Y-83152127D01*
X96494091Y-83092517D01*
X96460910Y-83003553D01*
X96443797Y-82957671D01*
X96443796Y-82957669D01*
X96357546Y-82842454D01*
X96288621Y-82790857D01*
X96242329Y-82756202D01*
X96107483Y-82705909D01*
X96107485Y-82705909D01*
X96083639Y-82703345D01*
X96047873Y-82699500D01*
X96047870Y-82699500D01*
X93952129Y-82699500D01*
X93892514Y-82705909D01*
X93892511Y-82705910D01*
X93757671Y-82756202D01*
X93642454Y-82842454D01*
X93556202Y-82957670D01*
X93505909Y-83092515D01*
X93499500Y-83152129D01*
X93499500Y-84847870D01*
X93505909Y-84907485D01*
X93505910Y-84907488D01*
X93556202Y-85042328D01*
X93556203Y-85042330D01*
X93556204Y-85042331D01*
X93642454Y-85157546D01*
X93709649Y-85207848D01*
X93789033Y-85290896D01*
X93837151Y-85395220D01*
X93849500Y-85487236D01*
X93849500Y-86874008D01*
X93830590Y-86987328D01*
X93775910Y-87088368D01*
X93712958Y-87150888D01*
X93512963Y-87304349D01*
X93512945Y-87304365D01*
X93304365Y-87512945D01*
X93304349Y-87512963D01*
X93124767Y-87746998D01*
X93124761Y-87747007D01*
X92977255Y-88002494D01*
X92977255Y-88002495D01*
X92864361Y-88275045D01*
X92864361Y-88275047D01*
X92837108Y-88376758D01*
X92789513Y-88481323D01*
X92710545Y-88564768D01*
X92608761Y-88618050D01*
X92495191Y-88635397D01*
X92382142Y-88614927D01*
X92281865Y-88558860D01*
X92205226Y-88473271D01*
X92162892Y-88376758D01*
X92144745Y-88309034D01*
X92135639Y-88275048D01*
X92120191Y-88237754D01*
X92022744Y-88002495D01*
X92022744Y-88002494D01*
X91939129Y-87857669D01*
X91875238Y-87747006D01*
X91805563Y-87656204D01*
X91695650Y-87512963D01*
X91695634Y-87512945D01*
X91625429Y-87442740D01*
X91558671Y-87349240D01*
X91525889Y-87239129D01*
X91530637Y-87124340D01*
X91532833Y-87114569D01*
X91903997Y-85568050D01*
X91948830Y-85462274D01*
X92025581Y-85376785D01*
X92125931Y-85320848D01*
X92239006Y-85300526D01*
X92243360Y-85300499D01*
X92247870Y-85300499D01*
X92247871Y-85300499D01*
X92307482Y-85294091D01*
X92442330Y-85243796D01*
X92557545Y-85157546D01*
X92643795Y-85042331D01*
X92694090Y-84907483D01*
X92700499Y-84847873D01*
X92700498Y-83152128D01*
X92694090Y-83092517D01*
X92660909Y-83003553D01*
X92643796Y-82957671D01*
X92643795Y-82957669D01*
X92557545Y-82842454D01*
X92488620Y-82790857D01*
X92442328Y-82756202D01*
X92307482Y-82705909D01*
X92307484Y-82705909D01*
X92277677Y-82702704D01*
X92247872Y-82699500D01*
X92247870Y-82699500D01*
X91844929Y-82699500D01*
X91731609Y-82680590D01*
X91630569Y-82625910D01*
X91552758Y-82541385D01*
X91545303Y-82529456D01*
X90761256Y-81216723D01*
X87756278Y-76185478D01*
X87714407Y-76078496D01*
X87709541Y-75963712D01*
X87742209Y-75853568D01*
X87808871Y-75759998D01*
X87902303Y-75693144D01*
X88012381Y-75660250D01*
X88127174Y-75664879D01*
X88234245Y-75706532D01*
X88303058Y-75760119D01*
X89914381Y-77376327D01*
X89915068Y-77377017D01*
X89986665Y-77449233D01*
X89987315Y-77449768D01*
X89988094Y-77450411D01*
X89988878Y-77451060D01*
X89988914Y-77451084D01*
X89988916Y-77451086D01*
X90073157Y-77507558D01*
X90073884Y-77508047D01*
X90407122Y-77732795D01*
X90490496Y-77811834D01*
X90543691Y-77913664D01*
X90543894Y-77914289D01*
X90609429Y-78115984D01*
X90609436Y-78116000D01*
X90716653Y-78326427D01*
X90716656Y-78326432D01*
X90731187Y-78346432D01*
X90855483Y-78517510D01*
X91022490Y-78684517D01*
X91138241Y-78768615D01*
X91213567Y-78823343D01*
X91213572Y-78823346D01*
X91323411Y-78879311D01*
X91424008Y-78930568D01*
X91648632Y-79003553D01*
X91881908Y-79040500D01*
X91881912Y-79040500D01*
X92118088Y-79040500D01*
X92118092Y-79040500D01*
X92351368Y-79003553D01*
X92575992Y-78930568D01*
X92786433Y-78823343D01*
X92977510Y-78684517D01*
X93144517Y-78517510D01*
X93283343Y-78326433D01*
X93390568Y-78115992D01*
X93463553Y-77891368D01*
X93500500Y-77658092D01*
X93500500Y-77421908D01*
X93463553Y-77188632D01*
X93390568Y-76964008D01*
X93283343Y-76753567D01*
X93144517Y-76562490D01*
X93098807Y-76516780D01*
X93032049Y-76423280D01*
X92999267Y-76313169D01*
X93004015Y-76198380D01*
X93045777Y-76091352D01*
X93098807Y-76023220D01*
X93144517Y-75977510D01*
X93283343Y-75786433D01*
X93390568Y-75575992D01*
X93463553Y-75351368D01*
X93500500Y-75118092D01*
X93500500Y-74881908D01*
X93463553Y-74648632D01*
X93390568Y-74424008D01*
X93283343Y-74213567D01*
X93144517Y-74022490D01*
X92977510Y-73855483D01*
X92786433Y-73716657D01*
X92786434Y-73716657D01*
X92786432Y-73716656D01*
X92786427Y-73716653D01*
X92576000Y-73609436D01*
X92575998Y-73609435D01*
X92575992Y-73609432D01*
X92575987Y-73609430D01*
X92575984Y-73609429D01*
X92351376Y-73536449D01*
X92351361Y-73536445D01*
X92118096Y-73499500D01*
X92104418Y-73498424D01*
X92104662Y-73495323D01*
X92016371Y-73480590D01*
X91915331Y-73425910D01*
X91882911Y-73397280D01*
X85228169Y-66742538D01*
X85228164Y-66742532D01*
X85228164Y-66742533D01*
X85215978Y-66730347D01*
X85215977Y-66730345D01*
X85069655Y-66584023D01*
X85021922Y-66552129D01*
X84897599Y-66469059D01*
X84690580Y-66383309D01*
X84691505Y-66381075D01*
X84610805Y-66341107D01*
X84529987Y-66259453D01*
X84480061Y-66155981D01*
X84466438Y-66041904D01*
X84490593Y-65929585D01*
X84538481Y-65850074D01*
X84536457Y-65848603D01*
X84544517Y-65837510D01*
X84683343Y-65646433D01*
X84790568Y-65435992D01*
X84863553Y-65211368D01*
X84900500Y-64978092D01*
X84900500Y-64741908D01*
X84863553Y-64508632D01*
X84790568Y-64284008D01*
X84683343Y-64073567D01*
X84544517Y-63882490D01*
X84498807Y-63836780D01*
X84432049Y-63743280D01*
X84399267Y-63633169D01*
X84404015Y-63518380D01*
X84445777Y-63411352D01*
X84498807Y-63343220D01*
X84544517Y-63297510D01*
X84683343Y-63106433D01*
X84790568Y-62895992D01*
X84863553Y-62671368D01*
X84900500Y-62438092D01*
X84900500Y-62201908D01*
X84863553Y-61968632D01*
X84790568Y-61744008D01*
X84683343Y-61533567D01*
X84544517Y-61342490D01*
X84498807Y-61296780D01*
X84432049Y-61203280D01*
X84399267Y-61093169D01*
X84404015Y-60978380D01*
X84445777Y-60871352D01*
X84498807Y-60803220D01*
X84544517Y-60757510D01*
X84683343Y-60566433D01*
X84790568Y-60355992D01*
X84863553Y-60131368D01*
X84900500Y-59898092D01*
X84900500Y-59661908D01*
X84863553Y-59428632D01*
X84790568Y-59204008D01*
X84683343Y-58993567D01*
X84544517Y-58802490D01*
X84377510Y-58635483D01*
X84264215Y-58553169D01*
X84186432Y-58496656D01*
X84186427Y-58496653D01*
X83976000Y-58389436D01*
X83975998Y-58389435D01*
X83975992Y-58389432D01*
X83975987Y-58389430D01*
X83975984Y-58389429D01*
X83751376Y-58316449D01*
X83751361Y-58316445D01*
X83518096Y-58279500D01*
X83518092Y-58279500D01*
X83281908Y-58279500D01*
X83281903Y-58279500D01*
X83048638Y-58316445D01*
X83048623Y-58316449D01*
X82824015Y-58389429D01*
X82823999Y-58389436D01*
X82613572Y-58496653D01*
X82613567Y-58496656D01*
X82422488Y-58635484D01*
X82255484Y-58802488D01*
X82116656Y-58993567D01*
X82116653Y-58993572D01*
X82009436Y-59203999D01*
X82009430Y-59204012D01*
X81943755Y-59406137D01*
X81890752Y-59508067D01*
X81807525Y-59587264D01*
X81807047Y-59587587D01*
X81485542Y-59804528D01*
X81477321Y-59809909D01*
X81406580Y-59854797D01*
X81394874Y-59863949D01*
X81383419Y-59873438D01*
X81364053Y-59892981D01*
X81324451Y-59932942D01*
X81317456Y-59939805D01*
X73503664Y-67392776D01*
X73464556Y-67424995D01*
X73463265Y-67425909D01*
X73463253Y-67425920D01*
X73416660Y-67475135D01*
X73404107Y-67487736D01*
X73355075Y-67534505D01*
X73355068Y-67534512D01*
X73354149Y-67535821D01*
X73322100Y-67575023D01*
X73320997Y-67576187D01*
X73284902Y-67633547D01*
X73275043Y-67648362D01*
X73236074Y-67703802D01*
X73235428Y-67705263D01*
X73211638Y-67749973D01*
X73210793Y-67751315D01*
X73210788Y-67751324D01*
X73210786Y-67751328D01*
X73210784Y-67751332D01*
X73210781Y-67751339D01*
X73186572Y-67814629D01*
X73179797Y-67831074D01*
X73152390Y-67893057D01*
X73152389Y-67893059D01*
X73152043Y-67894611D01*
X73137432Y-67943105D01*
X73136862Y-67944593D01*
X73136858Y-67944610D01*
X73125463Y-68011402D01*
X73122024Y-68028861D01*
X73107238Y-68094987D01*
X73107235Y-68095010D01*
X73107198Y-68096610D01*
X73102331Y-68147001D01*
X73102061Y-68148578D01*
X73102061Y-68148589D01*
X73103915Y-68216307D01*
X73103949Y-68234101D01*
X73102347Y-68301872D01*
X73102621Y-68303439D01*
X73107681Y-68353854D01*
X73996658Y-100815158D01*
X73980858Y-100928953D01*
X73930136Y-101029850D01*
X73796656Y-101213567D01*
X73796653Y-101213572D01*
X73689436Y-101423999D01*
X73689429Y-101424015D01*
X73616449Y-101648623D01*
X73616445Y-101648638D01*
X73579500Y-101881903D01*
X73579500Y-102118096D01*
X73616445Y-102351361D01*
X73616449Y-102351376D01*
X73689429Y-102575984D01*
X73689436Y-102576000D01*
X73796653Y-102786427D01*
X73796656Y-102786432D01*
X73796657Y-102786433D01*
X73935483Y-102977510D01*
X74102490Y-103144517D01*
X74194253Y-103211187D01*
X74293567Y-103283343D01*
X74293572Y-103283346D01*
X74339808Y-103306904D01*
X74504008Y-103390568D01*
X74728632Y-103463553D01*
X74961908Y-103500500D01*
X74961912Y-103500500D01*
X74989598Y-103500500D01*
X75198092Y-103500500D01*
X75431368Y-103463553D01*
X75655992Y-103390568D01*
X75866433Y-103283343D01*
X76057510Y-103144517D01*
X76103220Y-103098807D01*
X76196720Y-103032049D01*
X76306831Y-102999267D01*
X76421620Y-103004015D01*
X76528648Y-103045777D01*
X76596780Y-103098807D01*
X76642490Y-103144517D01*
X76734253Y-103211187D01*
X76833567Y-103283343D01*
X76897927Y-103316136D01*
X76990311Y-103384431D01*
X77055514Y-103479023D01*
X77086470Y-103589660D01*
X77079825Y-103704355D01*
X77036299Y-103810678D01*
X76960608Y-103897106D01*
X76860955Y-103954276D01*
X76784047Y-103973240D01*
X75654378Y-104118674D01*
X75654377Y-104118675D01*
X75194659Y-104177860D01*
X70850436Y-104737143D01*
X70805873Y-104740000D01*
X66525601Y-104740000D01*
X66480131Y-104737025D01*
X65649264Y-104627843D01*
X61774497Y-104118670D01*
X34915195Y-100589160D01*
X34805304Y-100555647D01*
X34712249Y-100488269D01*
X34646114Y-100394327D01*
X34623400Y-100332875D01*
X34498374Y-99863000D01*
X34341117Y-99271992D01*
X34303741Y-99131523D01*
X34292017Y-99044591D01*
X34291652Y-98999267D01*
X34282663Y-97881903D01*
X35499500Y-97881903D01*
X35499500Y-98118096D01*
X35536445Y-98351361D01*
X35536449Y-98351376D01*
X35609429Y-98575984D01*
X35609436Y-98576000D01*
X35716653Y-98786427D01*
X35716656Y-98786432D01*
X35716657Y-98786433D01*
X35855483Y-98977510D01*
X36022490Y-99144517D01*
X36197944Y-99271992D01*
X36213567Y-99283343D01*
X36213572Y-99283346D01*
X36261378Y-99307704D01*
X36424008Y-99390568D01*
X36648632Y-99463553D01*
X36881908Y-99500500D01*
X36881912Y-99500500D01*
X37118088Y-99500500D01*
X37118092Y-99500500D01*
X37351368Y-99463553D01*
X37575992Y-99390568D01*
X37786433Y-99283343D01*
X37977510Y-99144517D01*
X38023220Y-99098807D01*
X38116720Y-99032049D01*
X38226831Y-98999267D01*
X38341620Y-99004015D01*
X38448648Y-99045777D01*
X38516780Y-99098807D01*
X38562490Y-99144517D01*
X38737944Y-99271992D01*
X38753567Y-99283343D01*
X38753572Y-99283346D01*
X38801378Y-99307704D01*
X38964008Y-99390568D01*
X39188632Y-99463553D01*
X39421908Y-99500500D01*
X39421912Y-99500500D01*
X39658088Y-99500500D01*
X39658092Y-99500500D01*
X39891368Y-99463553D01*
X40115992Y-99390568D01*
X40326433Y-99283343D01*
X40517510Y-99144517D01*
X40684517Y-98977510D01*
X40823343Y-98786433D01*
X40930568Y-98575992D01*
X41003553Y-98351368D01*
X41040500Y-98118092D01*
X41040500Y-97881908D01*
X41003553Y-97648632D01*
X40930568Y-97424008D01*
X40823343Y-97213567D01*
X40684517Y-97022490D01*
X40682957Y-97020930D01*
X40681797Y-97019306D01*
X40675617Y-97012070D01*
X40676246Y-97011531D01*
X40616199Y-96927430D01*
X40583417Y-96817319D01*
X40580748Y-96776952D01*
X40542722Y-92023677D01*
X40560725Y-91910213D01*
X40614595Y-91808739D01*
X40698495Y-91730254D01*
X40803333Y-91683265D01*
X40917748Y-91672862D01*
X41029341Y-91700173D01*
X41096848Y-91738542D01*
X41213561Y-91823339D01*
X41213572Y-91823346D01*
X41323411Y-91879311D01*
X41424008Y-91930568D01*
X41648632Y-92003553D01*
X41881908Y-92040500D01*
X41881912Y-92040500D01*
X42118088Y-92040500D01*
X42118092Y-92040500D01*
X42351368Y-92003553D01*
X42575992Y-91930568D01*
X42786433Y-91823343D01*
X42977510Y-91684517D01*
X42977518Y-91684508D01*
X42987930Y-91675617D01*
X42989949Y-91677981D01*
X43062807Y-91625962D01*
X43172918Y-91593180D01*
X43216087Y-91590500D01*
X45663465Y-91590500D01*
X45866420Y-91550130D01*
X46057598Y-91470941D01*
X46154948Y-91405894D01*
X46229655Y-91355977D01*
X46375977Y-91209655D01*
X46375977Y-91209653D01*
X46404704Y-91180927D01*
X46404707Y-91180922D01*
X46882914Y-90702715D01*
X46976412Y-90635960D01*
X47086523Y-90603179D01*
X47129691Y-90600499D01*
X47847871Y-90600499D01*
X47847872Y-90600499D01*
X47907483Y-90594091D01*
X48042331Y-90543796D01*
X48157546Y-90457546D01*
X48243796Y-90342331D01*
X48294091Y-90207483D01*
X48300500Y-90147873D01*
X48300499Y-88637566D01*
X48319409Y-88524247D01*
X48320638Y-88520727D01*
X48325717Y-88506433D01*
X50845854Y-81413169D01*
X51670299Y-79092659D01*
X51726055Y-78992209D01*
X51811407Y-78915306D01*
X51917104Y-78870282D01*
X51999160Y-78860499D01*
X52147871Y-78860499D01*
X52147872Y-78860499D01*
X52207483Y-78854091D01*
X52342331Y-78803796D01*
X52457546Y-78717546D01*
X52543796Y-78602331D01*
X52594091Y-78467483D01*
X52600500Y-78407873D01*
X52600499Y-76712129D01*
X53399500Y-76712129D01*
X53399500Y-78407870D01*
X53405909Y-78467485D01*
X53405910Y-78467488D01*
X53456202Y-78602328D01*
X53456203Y-78602329D01*
X53456204Y-78602331D01*
X53542454Y-78717546D01*
X53634523Y-78786469D01*
X53657670Y-78803797D01*
X53710077Y-78823343D01*
X53792517Y-78854091D01*
X53852127Y-78860500D01*
X55947872Y-78860499D01*
X56007483Y-78854091D01*
X56142331Y-78803796D01*
X56257546Y-78717546D01*
X56257551Y-78717538D01*
X56262366Y-78712725D01*
X56355865Y-78645965D01*
X56465976Y-78613181D01*
X56509152Y-78610500D01*
X56542514Y-78610500D01*
X56655834Y-78629410D01*
X56756874Y-78684090D01*
X56834685Y-78768615D01*
X56880835Y-78873826D01*
X56890322Y-78988320D01*
X56862119Y-79099692D01*
X56824861Y-79164638D01*
X56716656Y-79313567D01*
X56716653Y-79313572D01*
X56609436Y-79523999D01*
X56609429Y-79524015D01*
X56536449Y-79748623D01*
X56536445Y-79748638D01*
X56499500Y-79981903D01*
X56499500Y-80218096D01*
X56536445Y-80451361D01*
X56536449Y-80451376D01*
X56609429Y-80675984D01*
X56609436Y-80676000D01*
X56716653Y-80886427D01*
X56716656Y-80886432D01*
X56716657Y-80886433D01*
X56855483Y-81077510D01*
X56855484Y-81077511D01*
X56855485Y-81077512D01*
X56901194Y-81123222D01*
X56967952Y-81216723D01*
X57000732Y-81326834D01*
X56995984Y-81441623D01*
X56954220Y-81548651D01*
X56901194Y-81616778D01*
X56855485Y-81662487D01*
X56716656Y-81853567D01*
X56716653Y-81853572D01*
X56609436Y-82063999D01*
X56609429Y-82064015D01*
X56536449Y-82288623D01*
X56536445Y-82288638D01*
X56499500Y-82521903D01*
X56499500Y-82758096D01*
X56536445Y-82991361D01*
X56536449Y-82991376D01*
X56609429Y-83215984D01*
X56609436Y-83216000D01*
X56716653Y-83426427D01*
X56716656Y-83426432D01*
X56716657Y-83426433D01*
X56855483Y-83617510D01*
X56855484Y-83617511D01*
X56855485Y-83617512D01*
X56901194Y-83663222D01*
X56967952Y-83756723D01*
X57000732Y-83866834D01*
X56995984Y-83981623D01*
X56954220Y-84088651D01*
X56901194Y-84156778D01*
X56855485Y-84202487D01*
X56716656Y-84393567D01*
X56716653Y-84393572D01*
X56609436Y-84603999D01*
X56609429Y-84604015D01*
X56536449Y-84828623D01*
X56536445Y-84828638D01*
X56499500Y-85061903D01*
X56499500Y-85298096D01*
X56536445Y-85531361D01*
X56536449Y-85531376D01*
X56609429Y-85755984D01*
X56609436Y-85756000D01*
X56716653Y-85966427D01*
X56716656Y-85966432D01*
X56716657Y-85966433D01*
X56855483Y-86157510D01*
X56855484Y-86157511D01*
X56855485Y-86157512D01*
X56901194Y-86203222D01*
X56967952Y-86296723D01*
X57000732Y-86406834D01*
X56995984Y-86521623D01*
X56954220Y-86628651D01*
X56901194Y-86696778D01*
X56855485Y-86742487D01*
X56716656Y-86933567D01*
X56716653Y-86933572D01*
X56609436Y-87143999D01*
X56609429Y-87144015D01*
X56536449Y-87368623D01*
X56536445Y-87368638D01*
X56499500Y-87601903D01*
X56499500Y-87838096D01*
X56536445Y-88071361D01*
X56536449Y-88071376D01*
X56609429Y-88295984D01*
X56609436Y-88296000D01*
X56716653Y-88506427D01*
X56716656Y-88506432D01*
X56855484Y-88697511D01*
X57032186Y-88874213D01*
X57031158Y-88875240D01*
X57095186Y-88951478D01*
X57134100Y-89047856D01*
X59167758Y-97568807D01*
X59175671Y-97683421D01*
X59153236Y-97773326D01*
X59153669Y-97773467D01*
X59151651Y-97779676D01*
X59150727Y-97783381D01*
X59149431Y-97786508D01*
X59076447Y-98011130D01*
X59076445Y-98011138D01*
X59039500Y-98244403D01*
X59039500Y-98480596D01*
X59076445Y-98713861D01*
X59076449Y-98713876D01*
X59149429Y-98938484D01*
X59149436Y-98938500D01*
X59256653Y-99148927D01*
X59256656Y-99148932D01*
X59256657Y-99148933D01*
X59395483Y-99340010D01*
X59562490Y-99507017D01*
X59669373Y-99584672D01*
X59753567Y-99645843D01*
X59753572Y-99645846D01*
X59863411Y-99701811D01*
X59964008Y-99753068D01*
X60188632Y-99826053D01*
X60421908Y-99863000D01*
X60421912Y-99863000D01*
X60658088Y-99863000D01*
X60658092Y-99863000D01*
X60891368Y-99826053D01*
X61115992Y-99753068D01*
X61326433Y-99645843D01*
X61517510Y-99507017D01*
X61684517Y-99340010D01*
X61823343Y-99148933D01*
X61930568Y-98938492D01*
X62003553Y-98713868D01*
X62040500Y-98480592D01*
X62040500Y-98244408D01*
X62003553Y-98011132D01*
X61930568Y-97786508D01*
X61823343Y-97576067D01*
X61684517Y-97384990D01*
X61517510Y-97217983D01*
X61507814Y-97208287D01*
X61508841Y-97207259D01*
X61444820Y-97131034D01*
X61405898Y-97034643D01*
X59372239Y-88513688D01*
X59364327Y-88399079D01*
X59386765Y-88309175D01*
X59386330Y-88309034D01*
X59388361Y-88302780D01*
X59389282Y-88299094D01*
X59390560Y-88296007D01*
X59390568Y-88295992D01*
X59463553Y-88071368D01*
X59500500Y-87838092D01*
X59500500Y-87601908D01*
X59463553Y-87368632D01*
X59390568Y-87144008D01*
X59328652Y-87022490D01*
X59283346Y-86933572D01*
X59283343Y-86933567D01*
X59233062Y-86864361D01*
X59144517Y-86742490D01*
X59098807Y-86696780D01*
X59032049Y-86603280D01*
X58999267Y-86493169D01*
X59004015Y-86378380D01*
X59045777Y-86271352D01*
X59098807Y-86203220D01*
X59144517Y-86157510D01*
X59283343Y-85966433D01*
X59390568Y-85755992D01*
X59463553Y-85531368D01*
X59500500Y-85298092D01*
X59500500Y-85061908D01*
X59463553Y-84828632D01*
X59390568Y-84604008D01*
X59283343Y-84393567D01*
X59144517Y-84202490D01*
X59098807Y-84156780D01*
X59032049Y-84063280D01*
X58999267Y-83953169D01*
X59004015Y-83838380D01*
X59045777Y-83731352D01*
X59098807Y-83663220D01*
X59144517Y-83617510D01*
X59283343Y-83426433D01*
X59390568Y-83215992D01*
X59463553Y-82991368D01*
X59500500Y-82758092D01*
X59500500Y-82521908D01*
X59463553Y-82288632D01*
X59390568Y-82064008D01*
X59339311Y-81963411D01*
X59283346Y-81853572D01*
X59283343Y-81853567D01*
X59239274Y-81792911D01*
X59144517Y-81662490D01*
X59098807Y-81616780D01*
X59032049Y-81523280D01*
X58999267Y-81413169D01*
X59004015Y-81298380D01*
X59045777Y-81191352D01*
X59098807Y-81123220D01*
X59144517Y-81077510D01*
X59283343Y-80886433D01*
X59390568Y-80675992D01*
X59463553Y-80451368D01*
X59500500Y-80218092D01*
X59500500Y-79981908D01*
X59463553Y-79748632D01*
X59390568Y-79524008D01*
X59283343Y-79313567D01*
X59144517Y-79122490D01*
X59098807Y-79076780D01*
X59032049Y-78983280D01*
X58999267Y-78873169D01*
X59004015Y-78758380D01*
X59045777Y-78651352D01*
X59098807Y-78583220D01*
X59115957Y-78566070D01*
X59144517Y-78537510D01*
X59283343Y-78346433D01*
X59390568Y-78135992D01*
X59463553Y-77911368D01*
X59500500Y-77678092D01*
X59500500Y-77441908D01*
X59463553Y-77208632D01*
X59390568Y-76984008D01*
X59283343Y-76773567D01*
X59144517Y-76582490D01*
X58977510Y-76415483D01*
X58786433Y-76276657D01*
X58786434Y-76276657D01*
X58786432Y-76276656D01*
X58786427Y-76276653D01*
X58576000Y-76169436D01*
X58575998Y-76169435D01*
X58575992Y-76169432D01*
X58575987Y-76169430D01*
X58575984Y-76169429D01*
X58351376Y-76096449D01*
X58351361Y-76096445D01*
X58118096Y-76059500D01*
X58118092Y-76059500D01*
X57881908Y-76059500D01*
X57881903Y-76059500D01*
X57648638Y-76096445D01*
X57648623Y-76096449D01*
X57424015Y-76169429D01*
X57423999Y-76169436D01*
X57213572Y-76276653D01*
X57213567Y-76276656D01*
X57022487Y-76415485D01*
X57012070Y-76424383D01*
X57010050Y-76422018D01*
X56937193Y-76474038D01*
X56827082Y-76506820D01*
X56783913Y-76509500D01*
X56509152Y-76509500D01*
X56395832Y-76490590D01*
X56294792Y-76435910D01*
X56262366Y-76407275D01*
X56257548Y-76402457D01*
X56257546Y-76402454D01*
X56203003Y-76361623D01*
X56142329Y-76316202D01*
X56007483Y-76265909D01*
X56007485Y-76265909D01*
X55983639Y-76263345D01*
X55947873Y-76259500D01*
X55947870Y-76259500D01*
X53852129Y-76259500D01*
X53792514Y-76265909D01*
X53792511Y-76265910D01*
X53657671Y-76316202D01*
X53542454Y-76402454D01*
X53456202Y-76517670D01*
X53405909Y-76652515D01*
X53399500Y-76712129D01*
X52600499Y-76712129D01*
X52600499Y-76712128D01*
X52594091Y-76652517D01*
X52560513Y-76562490D01*
X52543797Y-76517671D01*
X52543130Y-76516780D01*
X52457546Y-76402454D01*
X52388621Y-76350857D01*
X52342329Y-76316202D01*
X52207483Y-76265909D01*
X52207485Y-76265909D01*
X52183639Y-76263345D01*
X52147873Y-76259500D01*
X52147870Y-76259500D01*
X50052129Y-76259500D01*
X49992514Y-76265909D01*
X49992511Y-76265910D01*
X49857671Y-76316202D01*
X49742454Y-76402454D01*
X49656202Y-76517670D01*
X49605909Y-76652515D01*
X49599500Y-76712129D01*
X49599500Y-78407870D01*
X49608243Y-78489189D01*
X49606683Y-78489356D01*
X49612605Y-78578078D01*
X49594165Y-78660527D01*
X46500756Y-87367340D01*
X46445000Y-87467790D01*
X46359648Y-87544693D01*
X46253951Y-87589717D01*
X46171907Y-87599500D01*
X46152132Y-87599500D01*
X46092514Y-87605909D01*
X46092511Y-87605910D01*
X45957671Y-87656202D01*
X45842454Y-87742454D01*
X45756202Y-87857670D01*
X45705909Y-87992515D01*
X45699500Y-88052129D01*
X45699500Y-88770306D01*
X45680590Y-88883626D01*
X45625910Y-88984666D01*
X45597281Y-89017086D01*
X45227089Y-89387280D01*
X45133588Y-89454038D01*
X45023478Y-89486820D01*
X44980308Y-89489500D01*
X43216087Y-89489500D01*
X43102767Y-89470590D01*
X43001727Y-89415910D01*
X42988249Y-89404008D01*
X42987930Y-89404383D01*
X42977512Y-89395485D01*
X42977510Y-89395483D01*
X42786433Y-89256657D01*
X42786434Y-89256657D01*
X42786432Y-89256656D01*
X42786427Y-89256653D01*
X42576000Y-89149436D01*
X42575998Y-89149435D01*
X42575992Y-89149432D01*
X42575987Y-89149430D01*
X42575984Y-89149429D01*
X42351376Y-89076449D01*
X42351361Y-89076445D01*
X42118096Y-89039500D01*
X42118092Y-89039500D01*
X41881908Y-89039500D01*
X41881903Y-89039500D01*
X41648638Y-89076445D01*
X41648623Y-89076449D01*
X41424015Y-89149429D01*
X41424010Y-89149431D01*
X41424008Y-89149432D01*
X41228065Y-89249270D01*
X41211893Y-89257510D01*
X41102339Y-89292107D01*
X40987487Y-89289257D01*
X40879784Y-89249270D01*
X40790900Y-89176478D01*
X40730467Y-89078770D01*
X40705035Y-88966733D01*
X40717359Y-88852509D01*
X40742490Y-88788105D01*
X40743339Y-88786437D01*
X40743343Y-88786433D01*
X40850568Y-88575992D01*
X40923553Y-88351368D01*
X40960500Y-88118092D01*
X40960500Y-87881908D01*
X40923553Y-87648632D01*
X40850568Y-87424008D01*
X40789599Y-87304349D01*
X40743346Y-87213572D01*
X40743343Y-87213567D01*
X40678821Y-87124761D01*
X40604517Y-87022490D01*
X40437510Y-86855483D01*
X40281985Y-86742487D01*
X40246432Y-86716656D01*
X40246427Y-86716653D01*
X40036000Y-86609436D01*
X40035998Y-86609435D01*
X40035992Y-86609432D01*
X40035987Y-86609430D01*
X40035984Y-86609429D01*
X39811376Y-86536449D01*
X39811361Y-86536445D01*
X39578096Y-86499500D01*
X39578092Y-86499500D01*
X39341908Y-86499500D01*
X39341903Y-86499500D01*
X39108638Y-86536445D01*
X39108623Y-86536449D01*
X38884015Y-86609429D01*
X38883999Y-86609436D01*
X38673572Y-86716653D01*
X38673560Y-86716660D01*
X38604637Y-86766737D01*
X38501844Y-86818047D01*
X38387961Y-86833199D01*
X38275328Y-86810553D01*
X38176151Y-86752562D01*
X38101177Y-86665510D01*
X38058532Y-86558831D01*
X38050500Y-86484390D01*
X38050500Y-82039691D01*
X38069410Y-81926371D01*
X38124090Y-81825331D01*
X38152720Y-81792911D01*
X39342911Y-80602720D01*
X39436411Y-80535962D01*
X39546522Y-80503180D01*
X39564456Y-80502066D01*
X39564418Y-80501576D01*
X39578083Y-80500500D01*
X39578092Y-80500500D01*
X39811368Y-80463553D01*
X40035992Y-80390568D01*
X40246433Y-80283343D01*
X40246437Y-80283339D01*
X40248105Y-80282490D01*
X40357658Y-80247892D01*
X40472510Y-80250741D01*
X40580214Y-80290728D01*
X40669098Y-80363520D01*
X40729531Y-80461228D01*
X40754964Y-80573264D01*
X40742640Y-80687489D01*
X40717510Y-80751893D01*
X40716657Y-80753566D01*
X40716657Y-80753567D01*
X40609432Y-80964008D01*
X40609432Y-80964009D01*
X40609429Y-80964015D01*
X40536449Y-81188623D01*
X40536445Y-81188638D01*
X40499500Y-81421903D01*
X40499500Y-81658096D01*
X40536445Y-81891361D01*
X40536449Y-81891376D01*
X40609429Y-82115984D01*
X40609436Y-82116000D01*
X40716653Y-82326427D01*
X40716656Y-82326432D01*
X40716657Y-82326433D01*
X40855483Y-82517510D01*
X41022490Y-82684517D01*
X41213567Y-82823343D01*
X41213572Y-82823346D01*
X41251074Y-82842454D01*
X41424008Y-82930568D01*
X41648632Y-83003553D01*
X41881908Y-83040500D01*
X41881912Y-83040500D01*
X42118088Y-83040500D01*
X42118092Y-83040500D01*
X42351368Y-83003553D01*
X42575992Y-82930568D01*
X42786433Y-82823343D01*
X42977510Y-82684517D01*
X43144517Y-82517510D01*
X43283343Y-82326433D01*
X43390568Y-82115992D01*
X43463553Y-81891368D01*
X43500500Y-81658092D01*
X43500500Y-81421908D01*
X43463553Y-81188632D01*
X43390568Y-80964008D01*
X43283343Y-80753567D01*
X43283342Y-80753566D01*
X43277117Y-80741348D01*
X43278828Y-80740475D01*
X43242557Y-80650830D01*
X43236381Y-80536109D01*
X43239124Y-80516608D01*
X43557388Y-78640585D01*
X43583886Y-78554254D01*
X43586752Y-78547964D01*
X46281675Y-72633430D01*
X46345866Y-72538155D01*
X46437519Y-72468882D01*
X46546699Y-72433122D01*
X46661575Y-72434749D01*
X46700662Y-72444197D01*
X48755730Y-73068215D01*
X48858664Y-73119233D01*
X48939458Y-73200911D01*
X48989353Y-73304398D01*
X49001325Y-73364850D01*
X49005908Y-73407478D01*
X49005910Y-73407488D01*
X49056202Y-73542328D01*
X49056203Y-73542329D01*
X49056204Y-73542331D01*
X49142454Y-73657546D01*
X49221411Y-73716653D01*
X49257670Y-73743797D01*
X49310077Y-73763343D01*
X49392517Y-73794091D01*
X49452127Y-73800500D01*
X51547872Y-73800499D01*
X51607483Y-73794091D01*
X51742331Y-73743796D01*
X51857546Y-73657546D01*
X51943796Y-73542331D01*
X51945992Y-73536445D01*
X51975431Y-73457512D01*
X51994091Y-73407483D01*
X52000500Y-73347873D01*
X52000499Y-71652128D01*
X51994091Y-71592517D01*
X51960513Y-71502490D01*
X51943797Y-71457671D01*
X51857542Y-71342449D01*
X51839897Y-71324804D01*
X51841833Y-71322867D01*
X51788741Y-71267328D01*
X51740621Y-71163004D01*
X51728983Y-71048708D01*
X51730658Y-71030237D01*
X51971321Y-68984597D01*
X52003341Y-68874269D01*
X52069452Y-68780310D01*
X52162490Y-68712908D01*
X52195970Y-68698384D01*
X52207478Y-68694091D01*
X52207483Y-68694091D01*
X52342331Y-68643796D01*
X52457546Y-68557546D01*
X52543796Y-68442331D01*
X52550628Y-68424015D01*
X52567972Y-68377511D01*
X52594091Y-68307483D01*
X52600500Y-68247873D01*
X52600499Y-66552128D01*
X52594091Y-66492517D01*
X52543796Y-66357669D01*
X52457546Y-66242454D01*
X52342331Y-66156204D01*
X52342330Y-66156203D01*
X52342328Y-66156202D01*
X52342329Y-66156202D01*
X52324328Y-66149488D01*
X52324323Y-66149487D01*
X52207483Y-66105909D01*
X52147873Y-66099500D01*
X51713998Y-66099500D01*
X51713996Y-66099500D01*
X50052129Y-66099500D01*
X49992514Y-66105909D01*
X49992511Y-66105910D01*
X49857671Y-66156202D01*
X49742454Y-66242454D01*
X49656202Y-66357670D01*
X49605909Y-66492515D01*
X49599500Y-66552129D01*
X49599500Y-68247870D01*
X49605909Y-68307485D01*
X49605910Y-68307488D01*
X49656202Y-68442328D01*
X49656203Y-68442329D01*
X49656204Y-68442331D01*
X49738845Y-68552725D01*
X49742457Y-68557550D01*
X49760103Y-68575196D01*
X49758166Y-68577132D01*
X49811250Y-68632660D01*
X49859374Y-68736982D01*
X49871016Y-68851278D01*
X49869337Y-68869793D01*
X49652195Y-70715498D01*
X49620174Y-70825832D01*
X49554062Y-70919791D01*
X49461025Y-70987193D01*
X49351143Y-71020734D01*
X49236324Y-71016778D01*
X49204183Y-71008664D01*
X46358304Y-70144517D01*
X46227899Y-70104919D01*
X46184603Y-70088565D01*
X46175095Y-70084233D01*
X46117711Y-70070724D01*
X46096298Y-70064959D01*
X46039901Y-70047834D01*
X46029493Y-70046806D01*
X45983836Y-70039211D01*
X45973672Y-70036818D01*
X45973665Y-70036817D01*
X45914762Y-70034764D01*
X45892623Y-70033286D01*
X45833974Y-70027494D01*
X45833959Y-70027493D01*
X45823549Y-70028516D01*
X45777311Y-70029974D01*
X45766866Y-70029611D01*
X45766865Y-70029611D01*
X45766862Y-70029611D01*
X45708701Y-70039087D01*
X45686697Y-70041958D01*
X45628025Y-70047720D01*
X45618025Y-70050751D01*
X45572957Y-70061202D01*
X45562635Y-70062883D01*
X45562618Y-70062888D01*
X45507403Y-70083536D01*
X45486384Y-70090643D01*
X45429993Y-70107732D01*
X45420766Y-70112661D01*
X45378596Y-70131707D01*
X45368808Y-70135367D01*
X45368805Y-70135368D01*
X45318697Y-70166381D01*
X45299466Y-70177454D01*
X45247469Y-70205228D01*
X45239374Y-70211868D01*
X45201749Y-70238761D01*
X45192854Y-70244266D01*
X45192846Y-70244272D01*
X45149740Y-70284475D01*
X45133040Y-70299085D01*
X45087476Y-70336458D01*
X45080836Y-70344544D01*
X45049174Y-70378267D01*
X45041523Y-70385403D01*
X45007089Y-70433241D01*
X44993558Y-70450831D01*
X44956153Y-70496383D01*
X44956152Y-70496384D01*
X44951217Y-70505611D01*
X44926741Y-70544866D01*
X44920635Y-70553349D01*
X44896199Y-70606978D01*
X44886362Y-70626865D01*
X44858557Y-70678852D01*
X44855516Y-70688865D01*
X44839164Y-70732149D01*
X41634990Y-77764334D01*
X41612967Y-77805217D01*
X41607585Y-77813787D01*
X41607575Y-77813806D01*
X41586458Y-77869169D01*
X41577965Y-77889485D01*
X41553385Y-77943432D01*
X41553382Y-77943439D01*
X41551063Y-77953294D01*
X41537439Y-77997686D01*
X41533832Y-78007142D01*
X41533831Y-78007147D01*
X41523920Y-78065566D01*
X41519553Y-78087154D01*
X41505969Y-78144862D01*
X41505616Y-78154985D01*
X41500912Y-78201182D01*
X41486463Y-78286354D01*
X41448866Y-78394915D01*
X41378057Y-78485386D01*
X41281708Y-78547964D01*
X41170261Y-78575866D01*
X41055792Y-78566070D01*
X40950706Y-78519637D01*
X40866392Y-78441598D01*
X40831422Y-78386432D01*
X40743343Y-78213567D01*
X40604517Y-78022490D01*
X40437510Y-77855483D01*
X40312055Y-77764334D01*
X40246432Y-77716656D01*
X40246427Y-77716653D01*
X40036000Y-77609436D01*
X40035998Y-77609435D01*
X40035992Y-77609432D01*
X40035987Y-77609430D01*
X40035984Y-77609429D01*
X39811376Y-77536449D01*
X39811361Y-77536445D01*
X39578096Y-77499500D01*
X39578092Y-77499500D01*
X39341908Y-77499500D01*
X39341903Y-77499500D01*
X39108638Y-77536445D01*
X39108623Y-77536449D01*
X38884015Y-77609429D01*
X38883999Y-77609436D01*
X38673572Y-77716653D01*
X38673567Y-77716656D01*
X38482488Y-77855484D01*
X38315484Y-78022488D01*
X38176656Y-78213567D01*
X38176653Y-78213572D01*
X38069436Y-78423999D01*
X38069429Y-78424015D01*
X37996449Y-78648623D01*
X37996445Y-78648638D01*
X37959500Y-78881903D01*
X37958424Y-78895582D01*
X37955323Y-78895337D01*
X37940590Y-78983628D01*
X37885910Y-79084668D01*
X37857280Y-79117088D01*
X36330344Y-80644024D01*
X36184025Y-80790341D01*
X36069059Y-80962400D01*
X35989870Y-81153580D01*
X35949500Y-81356534D01*
X35949500Y-96783913D01*
X35930590Y-96897233D01*
X35875910Y-96998273D01*
X35864008Y-97011750D01*
X35864383Y-97012070D01*
X35855485Y-97022487D01*
X35716656Y-97213567D01*
X35716653Y-97213572D01*
X35609436Y-97423999D01*
X35609429Y-97424015D01*
X35536449Y-97648623D01*
X35536445Y-97648638D01*
X35499500Y-97881903D01*
X34282663Y-97881903D01*
X34049367Y-68881903D01*
X41039500Y-68881903D01*
X41039500Y-69118096D01*
X41076445Y-69351361D01*
X41076449Y-69351376D01*
X41149429Y-69575984D01*
X41149436Y-69576000D01*
X41256653Y-69786427D01*
X41256656Y-69786432D01*
X41282431Y-69821908D01*
X41395483Y-69977510D01*
X41562490Y-70144517D01*
X41699788Y-70244270D01*
X41753567Y-70283343D01*
X41753572Y-70283346D01*
X41784462Y-70299085D01*
X41964008Y-70390568D01*
X42188632Y-70463553D01*
X42421908Y-70500500D01*
X42421912Y-70500500D01*
X42658088Y-70500500D01*
X42658092Y-70500500D01*
X42891368Y-70463553D01*
X43115992Y-70390568D01*
X43326433Y-70283343D01*
X43517510Y-70144517D01*
X43684517Y-69977510D01*
X43823343Y-69786433D01*
X43930568Y-69575992D01*
X44003553Y-69351368D01*
X44040500Y-69118092D01*
X44040500Y-68881908D01*
X44003553Y-68648632D01*
X43930568Y-68424008D01*
X43840823Y-68247873D01*
X43823346Y-68213572D01*
X43823343Y-68213567D01*
X43803628Y-68186432D01*
X43684517Y-68022490D01*
X43517510Y-67855483D01*
X43421971Y-67786070D01*
X43326432Y-67716656D01*
X43326427Y-67716653D01*
X43116000Y-67609436D01*
X43115998Y-67609435D01*
X43115992Y-67609432D01*
X43115987Y-67609430D01*
X43115984Y-67609429D01*
X42891376Y-67536449D01*
X42891361Y-67536445D01*
X42658096Y-67499500D01*
X42658092Y-67499500D01*
X42421908Y-67499500D01*
X42421903Y-67499500D01*
X42188638Y-67536445D01*
X42188623Y-67536449D01*
X41964015Y-67609429D01*
X41963999Y-67609436D01*
X41753572Y-67716653D01*
X41753567Y-67716656D01*
X41562488Y-67855484D01*
X41395484Y-68022488D01*
X41256656Y-68213567D01*
X41256653Y-68213572D01*
X41149436Y-68423999D01*
X41149429Y-68424015D01*
X41076449Y-68648623D01*
X41076445Y-68648638D01*
X41039500Y-68881903D01*
X34049367Y-68881903D01*
X33802251Y-38163979D01*
X33820249Y-38050516D01*
X33874114Y-37949039D01*
X33958011Y-37870551D01*
X34062847Y-37823556D01*
X34177261Y-37813148D01*
X34227984Y-37820719D01*
X50582659Y-41507363D01*
X50689044Y-41550728D01*
X50775587Y-41626288D01*
X50832906Y-41725855D01*
X50854790Y-41838639D01*
X50850617Y-41902398D01*
X50849500Y-41909447D01*
X50849500Y-53617327D01*
X50830590Y-53730647D01*
X50782848Y-53822463D01*
X50716655Y-53913569D01*
X50716653Y-53913572D01*
X50609436Y-54123999D01*
X50609429Y-54124015D01*
X50536449Y-54348623D01*
X50536445Y-54348638D01*
X50499500Y-54581903D01*
X50499500Y-54818096D01*
X50536445Y-55051361D01*
X50536449Y-55051376D01*
X50609429Y-55275984D01*
X50609436Y-55276000D01*
X50716653Y-55486427D01*
X50716656Y-55486432D01*
X50761831Y-55548609D01*
X50855483Y-55677510D01*
X51022490Y-55844517D01*
X51195202Y-55970000D01*
X51213567Y-55983343D01*
X51213572Y-55983346D01*
X51276908Y-56015617D01*
X51424008Y-56090568D01*
X51648632Y-56163553D01*
X51881908Y-56200500D01*
X51881912Y-56200500D01*
X52118088Y-56200500D01*
X52118092Y-56200500D01*
X52351368Y-56163553D01*
X52575992Y-56090568D01*
X52786433Y-55983343D01*
X52977510Y-55844517D01*
X53144517Y-55677510D01*
X53283343Y-55486433D01*
X53390568Y-55275992D01*
X53463553Y-55051368D01*
X53500500Y-54818092D01*
X53500500Y-54581908D01*
X53463553Y-54348632D01*
X53390568Y-54124008D01*
X53283343Y-53913567D01*
X53217151Y-53822462D01*
X53165843Y-53719670D01*
X53150500Y-53617327D01*
X53150500Y-43499500D01*
X53169410Y-43386180D01*
X53224090Y-43285140D01*
X53308615Y-43207329D01*
X53413826Y-43161179D01*
X53499500Y-43150500D01*
X56469859Y-43150500D01*
X56583179Y-43169410D01*
X56684219Y-43224090D01*
X56762030Y-43308615D01*
X56808180Y-43413826D01*
X56817667Y-43528320D01*
X56789464Y-43639692D01*
X56752207Y-43704636D01*
X56716659Y-43753563D01*
X56716653Y-43753572D01*
X56609436Y-43963999D01*
X56609429Y-43964015D01*
X56536449Y-44188623D01*
X56536445Y-44188638D01*
X56499500Y-44421903D01*
X56499500Y-44658096D01*
X56536445Y-44891361D01*
X56536449Y-44891376D01*
X56609429Y-45115984D01*
X56609436Y-45116000D01*
X56716653Y-45326427D01*
X56716656Y-45326432D01*
X56716657Y-45326433D01*
X56855483Y-45517510D01*
X56855484Y-45517511D01*
X56855485Y-45517512D01*
X56901194Y-45563222D01*
X56967952Y-45656723D01*
X57000732Y-45766834D01*
X56995984Y-45881623D01*
X56954220Y-45988651D01*
X56901194Y-46056778D01*
X56855485Y-46102487D01*
X56716656Y-46293567D01*
X56716653Y-46293572D01*
X56609436Y-46503999D01*
X56609429Y-46504015D01*
X56536449Y-46728623D01*
X56536445Y-46728638D01*
X56499500Y-46961903D01*
X56499500Y-47198096D01*
X56536445Y-47431361D01*
X56536449Y-47431376D01*
X56609429Y-47655984D01*
X56609436Y-47656000D01*
X56716653Y-47866427D01*
X56716656Y-47866432D01*
X56716657Y-47866433D01*
X56855483Y-48057510D01*
X56855484Y-48057511D01*
X56855485Y-48057512D01*
X56901194Y-48103222D01*
X56967952Y-48196723D01*
X57000732Y-48306834D01*
X56995984Y-48421623D01*
X56954220Y-48528651D01*
X56901194Y-48596778D01*
X56855485Y-48642487D01*
X56716656Y-48833567D01*
X56716653Y-48833572D01*
X56609436Y-49043999D01*
X56609429Y-49044015D01*
X56536449Y-49268623D01*
X56536445Y-49268638D01*
X56499500Y-49501903D01*
X56499500Y-49738096D01*
X56536445Y-49971361D01*
X56536449Y-49971376D01*
X56609429Y-50195984D01*
X56609436Y-50196000D01*
X56716653Y-50406427D01*
X56716656Y-50406432D01*
X56716657Y-50406433D01*
X56855483Y-50597510D01*
X56855484Y-50597511D01*
X56855485Y-50597512D01*
X56901194Y-50643222D01*
X56967952Y-50736723D01*
X57000732Y-50846834D01*
X56995984Y-50961623D01*
X56954220Y-51068651D01*
X56901194Y-51136778D01*
X56855485Y-51182487D01*
X56716656Y-51373567D01*
X56716653Y-51373572D01*
X56609436Y-51583999D01*
X56609429Y-51584015D01*
X56536449Y-51808623D01*
X56536445Y-51808638D01*
X56499500Y-52041903D01*
X56499500Y-52278096D01*
X56536445Y-52511361D01*
X56536449Y-52511376D01*
X56609429Y-52735984D01*
X56609436Y-52736000D01*
X56716653Y-52946427D01*
X56716656Y-52946432D01*
X56716657Y-52946433D01*
X56855483Y-53137510D01*
X56855484Y-53137511D01*
X56855485Y-53137512D01*
X56901194Y-53183222D01*
X56967952Y-53276723D01*
X57000732Y-53386834D01*
X56995984Y-53501623D01*
X56954220Y-53608651D01*
X56901194Y-53676778D01*
X56855485Y-53722487D01*
X56716656Y-53913567D01*
X56716653Y-53913572D01*
X56609436Y-54123999D01*
X56609429Y-54124015D01*
X56536449Y-54348623D01*
X56536445Y-54348638D01*
X56499500Y-54581903D01*
X56499500Y-54818096D01*
X56536445Y-55051361D01*
X56536449Y-55051376D01*
X56609429Y-55275984D01*
X56609436Y-55276000D01*
X56716653Y-55486427D01*
X56716656Y-55486432D01*
X56761831Y-55548609D01*
X56855483Y-55677510D01*
X56855484Y-55677511D01*
X56855485Y-55677512D01*
X56901194Y-55723222D01*
X56967952Y-55816723D01*
X57000732Y-55926834D01*
X56995984Y-56041623D01*
X56954220Y-56148651D01*
X56901194Y-56216778D01*
X56855485Y-56262487D01*
X56716656Y-56453567D01*
X56716653Y-56453572D01*
X56609436Y-56663999D01*
X56609429Y-56664015D01*
X56536449Y-56888623D01*
X56536445Y-56888638D01*
X56499500Y-57121903D01*
X56499500Y-57358096D01*
X56536445Y-57591361D01*
X56536449Y-57591376D01*
X56609429Y-57815984D01*
X56609436Y-57816000D01*
X56716653Y-58026427D01*
X56716656Y-58026432D01*
X56824861Y-58175362D01*
X56876170Y-58278155D01*
X56891323Y-58392038D01*
X56868677Y-58504671D01*
X56810686Y-58603848D01*
X56723635Y-58678822D01*
X56616956Y-58721468D01*
X56542514Y-58729500D01*
X53216087Y-58729500D01*
X53102767Y-58710590D01*
X53001727Y-58655910D01*
X52988249Y-58644008D01*
X52987930Y-58644383D01*
X52977512Y-58635485D01*
X52977511Y-58635484D01*
X52977510Y-58635483D01*
X52850125Y-58542932D01*
X52786432Y-58496656D01*
X52786427Y-58496653D01*
X52576000Y-58389436D01*
X52575998Y-58389435D01*
X52575992Y-58389432D01*
X52575987Y-58389430D01*
X52575984Y-58389429D01*
X52351376Y-58316449D01*
X52351361Y-58316445D01*
X52118096Y-58279500D01*
X52118092Y-58279500D01*
X51881908Y-58279500D01*
X51881903Y-58279500D01*
X51648638Y-58316445D01*
X51648623Y-58316449D01*
X51424015Y-58389429D01*
X51423999Y-58389436D01*
X51213572Y-58496653D01*
X51213567Y-58496656D01*
X51022488Y-58635484D01*
X50855484Y-58802488D01*
X50716656Y-58993567D01*
X50716653Y-58993572D01*
X50609436Y-59203999D01*
X50609429Y-59204015D01*
X50536449Y-59428623D01*
X50536445Y-59428638D01*
X50499500Y-59661903D01*
X50499500Y-59898096D01*
X50536445Y-60131361D01*
X50536449Y-60131376D01*
X50609429Y-60355984D01*
X50609436Y-60356000D01*
X50716653Y-60566427D01*
X50716656Y-60566432D01*
X50824861Y-60715362D01*
X50876170Y-60818155D01*
X50891323Y-60932038D01*
X50868677Y-61044671D01*
X50810686Y-61143848D01*
X50723635Y-61218822D01*
X50616956Y-61261468D01*
X50542514Y-61269500D01*
X49399692Y-61269500D01*
X49286372Y-61250590D01*
X49185332Y-61195910D01*
X49152912Y-61167280D01*
X49102720Y-61117088D01*
X49035962Y-61023588D01*
X49003180Y-60913477D01*
X49002066Y-60895543D01*
X49001576Y-60895582D01*
X49000500Y-60881915D01*
X49000500Y-60881908D01*
X48963553Y-60648632D01*
X48890568Y-60424008D01*
X48783343Y-60213567D01*
X48644517Y-60022490D01*
X48477510Y-59855483D01*
X48286433Y-59716657D01*
X48286434Y-59716657D01*
X48286432Y-59716656D01*
X48286427Y-59716653D01*
X48076000Y-59609436D01*
X48075998Y-59609435D01*
X48075992Y-59609432D01*
X48075987Y-59609430D01*
X48075984Y-59609429D01*
X47851376Y-59536449D01*
X47851361Y-59536445D01*
X47618096Y-59499500D01*
X47618092Y-59499500D01*
X47381908Y-59499500D01*
X47381903Y-59499500D01*
X47148638Y-59536445D01*
X47148623Y-59536449D01*
X46924015Y-59609429D01*
X46923999Y-59609436D01*
X46713572Y-59716653D01*
X46713567Y-59716656D01*
X46522488Y-59855484D01*
X46355484Y-60022488D01*
X46216656Y-60213567D01*
X46216653Y-60213572D01*
X46109436Y-60423999D01*
X46109429Y-60424015D01*
X46036449Y-60648623D01*
X46036445Y-60648638D01*
X45999500Y-60881903D01*
X45999500Y-61118096D01*
X46036445Y-61351361D01*
X46036449Y-61351376D01*
X46109429Y-61575984D01*
X46109436Y-61576000D01*
X46216653Y-61786427D01*
X46216656Y-61786432D01*
X46355484Y-61977511D01*
X46522489Y-62144516D01*
X46522495Y-62144521D01*
X46623153Y-62217654D01*
X46703716Y-62299560D01*
X46753318Y-62403187D01*
X46766586Y-62517306D01*
X46742080Y-62629549D01*
X46682457Y-62727753D01*
X46623153Y-62782346D01*
X46522495Y-62855478D01*
X46522489Y-62855483D01*
X46355484Y-63022488D01*
X46216656Y-63213567D01*
X46216653Y-63213572D01*
X46109436Y-63423999D01*
X46109429Y-63424015D01*
X46036449Y-63648623D01*
X46036445Y-63648638D01*
X45999500Y-63881903D01*
X45999500Y-64118096D01*
X46036445Y-64351361D01*
X46036449Y-64351376D01*
X46109429Y-64575984D01*
X46109436Y-64576000D01*
X46216653Y-64786427D01*
X46216656Y-64786432D01*
X46216657Y-64786433D01*
X46355483Y-64977510D01*
X46522490Y-65144517D01*
X46713557Y-65283336D01*
X46713567Y-65283343D01*
X46713572Y-65283346D01*
X46823411Y-65339311D01*
X46924008Y-65390568D01*
X47148632Y-65463553D01*
X47381908Y-65500500D01*
X47381912Y-65500500D01*
X47618088Y-65500500D01*
X47618092Y-65500500D01*
X47851368Y-65463553D01*
X48075992Y-65390568D01*
X48286433Y-65283343D01*
X48385744Y-65211188D01*
X48488536Y-65159878D01*
X48602419Y-65144725D01*
X48619367Y-65145698D01*
X53459453Y-65542124D01*
X53570850Y-65570221D01*
X53667089Y-65632967D01*
X53737740Y-65723561D01*
X53775147Y-65832188D01*
X53775257Y-65947075D01*
X53738056Y-66055773D01*
X53667577Y-66146502D01*
X53640112Y-66169346D01*
X53542455Y-66242451D01*
X53456202Y-66357670D01*
X53405909Y-66492515D01*
X53399500Y-66552129D01*
X53399500Y-68247870D01*
X53405909Y-68307485D01*
X53405910Y-68307488D01*
X53456202Y-68442328D01*
X53456203Y-68442329D01*
X53456204Y-68442331D01*
X53542454Y-68557546D01*
X53634523Y-68626469D01*
X53657670Y-68643797D01*
X53725093Y-68668943D01*
X53792517Y-68694091D01*
X53852127Y-68700500D01*
X55947872Y-68700499D01*
X56007483Y-68694091D01*
X56142331Y-68643796D01*
X56257546Y-68557546D01*
X56257551Y-68557538D01*
X56262366Y-68552725D01*
X56355865Y-68485965D01*
X56465976Y-68453181D01*
X56509152Y-68450500D01*
X56542514Y-68450500D01*
X56655834Y-68469410D01*
X56756874Y-68524090D01*
X56834685Y-68608615D01*
X56880835Y-68713826D01*
X56890322Y-68828320D01*
X56862119Y-68939692D01*
X56824861Y-69004638D01*
X56716656Y-69153567D01*
X56716653Y-69153572D01*
X56609436Y-69363999D01*
X56609429Y-69364015D01*
X56536449Y-69588623D01*
X56536445Y-69588638D01*
X56499500Y-69821903D01*
X56499500Y-70058096D01*
X56536445Y-70291361D01*
X56536449Y-70291376D01*
X56609429Y-70515984D01*
X56609436Y-70516000D01*
X56716653Y-70726427D01*
X56716656Y-70726432D01*
X56716657Y-70726433D01*
X56855483Y-70917510D01*
X56855484Y-70917511D01*
X56855485Y-70917512D01*
X56901194Y-70963222D01*
X56967952Y-71056723D01*
X57000732Y-71166834D01*
X56995984Y-71281623D01*
X56954220Y-71388651D01*
X56901194Y-71456778D01*
X56855485Y-71502487D01*
X56716656Y-71693567D01*
X56716653Y-71693572D01*
X56609436Y-71903999D01*
X56609429Y-71904015D01*
X56536449Y-72128623D01*
X56536445Y-72128638D01*
X56499500Y-72361903D01*
X56499500Y-72598096D01*
X56536445Y-72831361D01*
X56536449Y-72831376D01*
X56609429Y-73055984D01*
X56609436Y-73056000D01*
X56716653Y-73266427D01*
X56716656Y-73266432D01*
X56716657Y-73266433D01*
X56855483Y-73457510D01*
X57022490Y-73624517D01*
X57186663Y-73743796D01*
X57213567Y-73763343D01*
X57213572Y-73763346D01*
X57323411Y-73819311D01*
X57424008Y-73870568D01*
X57648632Y-73943553D01*
X57881908Y-73980500D01*
X57881912Y-73980500D01*
X58118088Y-73980500D01*
X58118092Y-73980500D01*
X58351368Y-73943553D01*
X58575992Y-73870568D01*
X58786433Y-73763343D01*
X58977510Y-73624517D01*
X59144517Y-73457510D01*
X59283343Y-73266433D01*
X59390568Y-73055992D01*
X59463553Y-72831368D01*
X59500500Y-72598092D01*
X59500500Y-72361908D01*
X59463553Y-72128632D01*
X59390568Y-71904008D01*
X59283343Y-71693567D01*
X59144517Y-71502490D01*
X59098807Y-71456780D01*
X59032049Y-71363280D01*
X58999267Y-71253169D01*
X59004015Y-71138380D01*
X59045777Y-71031352D01*
X59098807Y-70963220D01*
X59144517Y-70917510D01*
X59283343Y-70726433D01*
X59390568Y-70515992D01*
X59463553Y-70291368D01*
X59500500Y-70058092D01*
X59500500Y-69821908D01*
X59463553Y-69588632D01*
X59390568Y-69364008D01*
X59339311Y-69263411D01*
X59283346Y-69153572D01*
X59283343Y-69153567D01*
X59160583Y-68984603D01*
X59144517Y-68962490D01*
X59098807Y-68916780D01*
X59032049Y-68823280D01*
X58999267Y-68713169D01*
X59004015Y-68598380D01*
X59045777Y-68491352D01*
X59098807Y-68423220D01*
X59144517Y-68377510D01*
X59283343Y-68186433D01*
X59390568Y-67975992D01*
X59463553Y-67751368D01*
X59500500Y-67518092D01*
X59500500Y-67281908D01*
X59463553Y-67048632D01*
X59390568Y-66824008D01*
X59283343Y-66613567D01*
X59144517Y-66422490D01*
X59098807Y-66376780D01*
X59032049Y-66283280D01*
X58999267Y-66173169D01*
X59004015Y-66058380D01*
X59045777Y-65951352D01*
X59098807Y-65883220D01*
X59144517Y-65837510D01*
X59283343Y-65646433D01*
X59390568Y-65435992D01*
X59463553Y-65211368D01*
X59500500Y-64978092D01*
X59500500Y-64741908D01*
X59463553Y-64508632D01*
X59390568Y-64284008D01*
X59283343Y-64073567D01*
X59144517Y-63882490D01*
X59098807Y-63836780D01*
X59032049Y-63743280D01*
X58999267Y-63633169D01*
X59004015Y-63518380D01*
X59045777Y-63411352D01*
X59098807Y-63343220D01*
X59144517Y-63297510D01*
X59283343Y-63106433D01*
X59390568Y-62895992D01*
X59463553Y-62671368D01*
X59500500Y-62438092D01*
X59500500Y-62201908D01*
X59463553Y-61968632D01*
X59390568Y-61744008D01*
X59283343Y-61533567D01*
X59144517Y-61342490D01*
X59098807Y-61296780D01*
X59032049Y-61203280D01*
X58999267Y-61093169D01*
X59004015Y-60978380D01*
X59045777Y-60871352D01*
X59098807Y-60803220D01*
X59144517Y-60757510D01*
X59283343Y-60566433D01*
X59390568Y-60355992D01*
X59463553Y-60131368D01*
X59500500Y-59898092D01*
X59500500Y-59661908D01*
X59463553Y-59428632D01*
X59390568Y-59204008D01*
X59283343Y-58993567D01*
X59144517Y-58802490D01*
X59098807Y-58756780D01*
X59032049Y-58663280D01*
X58999267Y-58553169D01*
X59004015Y-58438380D01*
X59045777Y-58331352D01*
X59098807Y-58263220D01*
X59144517Y-58217510D01*
X59283343Y-58026433D01*
X59390568Y-57815992D01*
X59463553Y-57591368D01*
X59500500Y-57358092D01*
X59500500Y-57121908D01*
X59463553Y-56888632D01*
X59390568Y-56664008D01*
X59283343Y-56453567D01*
X59144517Y-56262490D01*
X59098807Y-56216780D01*
X59032049Y-56123280D01*
X58999267Y-56013169D01*
X59004015Y-55898380D01*
X59045777Y-55791352D01*
X59098807Y-55723220D01*
X59144517Y-55677510D01*
X59283343Y-55486433D01*
X59390568Y-55275992D01*
X59463553Y-55051368D01*
X59500500Y-54818092D01*
X59500500Y-54581908D01*
X59463553Y-54348632D01*
X59390568Y-54124008D01*
X59283343Y-53913567D01*
X59144517Y-53722490D01*
X59098807Y-53676780D01*
X59032049Y-53583280D01*
X58999267Y-53473169D01*
X59004015Y-53358380D01*
X59045777Y-53251352D01*
X59098807Y-53183220D01*
X59144517Y-53137510D01*
X59283343Y-52946433D01*
X59390568Y-52735992D01*
X59463553Y-52511368D01*
X59500500Y-52278092D01*
X59500500Y-52041908D01*
X59463553Y-51808632D01*
X59390568Y-51584008D01*
X59317319Y-51440248D01*
X59283346Y-51373572D01*
X59283343Y-51373567D01*
X59144518Y-51182492D01*
X59144517Y-51182490D01*
X59098807Y-51136780D01*
X59032049Y-51043280D01*
X58999267Y-50933169D01*
X59004015Y-50818380D01*
X59045777Y-50711352D01*
X59098807Y-50643220D01*
X59144517Y-50597510D01*
X59283343Y-50406433D01*
X59390568Y-50195992D01*
X59463553Y-49971368D01*
X59500500Y-49738092D01*
X59500500Y-49501908D01*
X59463553Y-49268632D01*
X59390568Y-49044008D01*
X59283343Y-48833567D01*
X59144517Y-48642490D01*
X59098807Y-48596780D01*
X59032049Y-48503280D01*
X58999267Y-48393169D01*
X59004015Y-48278380D01*
X59045777Y-48171352D01*
X59098807Y-48103220D01*
X59144517Y-48057510D01*
X59283343Y-47866433D01*
X59390568Y-47655992D01*
X59463553Y-47431368D01*
X59500500Y-47198092D01*
X59500500Y-46961908D01*
X59463553Y-46728632D01*
X59390568Y-46504008D01*
X59283343Y-46293567D01*
X59144517Y-46102490D01*
X59098807Y-46056780D01*
X59032049Y-45963280D01*
X58999267Y-45853169D01*
X59004015Y-45738380D01*
X59045777Y-45631352D01*
X59098807Y-45563220D01*
X59144517Y-45517510D01*
X59283343Y-45326433D01*
X59390568Y-45115992D01*
X59463553Y-44891368D01*
X59500500Y-44658092D01*
X59500500Y-44421908D01*
X59463553Y-44188632D01*
X59390568Y-43964008D01*
X59283343Y-43753567D01*
X59144517Y-43562490D01*
X59098807Y-43516780D01*
X59032049Y-43423280D01*
X58999267Y-43313169D01*
X59004015Y-43198380D01*
X59045777Y-43091352D01*
X59098807Y-43023220D01*
X59119639Y-43002388D01*
X59144517Y-42977510D01*
X59283343Y-42786433D01*
X59390568Y-42575992D01*
X59463553Y-42351368D01*
X59500500Y-42118092D01*
X59500500Y-41881908D01*
X59463553Y-41648632D01*
X59390568Y-41424008D01*
X59283343Y-41213567D01*
X59144517Y-41022490D01*
X58977510Y-40855483D01*
X58786433Y-40716657D01*
X58675157Y-40659959D01*
X58582777Y-40591667D01*
X58517573Y-40497075D01*
X58486617Y-40386437D01*
X58493262Y-40271743D01*
X58536788Y-40165420D01*
X58612478Y-40078991D01*
X58712131Y-40021822D01*
X58824947Y-40000107D01*
X58833603Y-40000000D01*
X87800000Y-40000000D01*
X87800000Y-30924000D01*
X87818910Y-30810680D01*
X87873590Y-30709640D01*
X87958115Y-30631829D01*
X88063326Y-30585679D01*
X88149000Y-30575000D01*
X107076000Y-30575000D01*
X107189320Y-30593910D01*
G37*
%TD.AperFunction*%
%TD*%
M02*
