%TF.GenerationSoftware,KiCad,Pcbnew,10.0.6*%
%TF.CreationDate,2026-09-09T21:24:08+03:00*%
%TF.ProjectId,candidate,63616e64-6964-4617-9465-2e6b69636164,rev?*%
%TF.SameCoordinates,Original*%
%TF.FileFunction,Legend,Top*%
%TF.FilePolarity,Positive*%
%FSLAX46Y46*%
G04 Gerber Fmt 4.6, Leading zero omitted, Abs format (unit mm)*
G04 Created by KiCad (PCBNEW 10.0.6) date 2026-09-09 21:24:08*
%MOMM*%
%LPD*%
G01*
G04 APERTURE LIST*
%ADD10C,0.120000*%
G04 APERTURE END LIST*
D10*
X196850000Y-50824402D02*
X196807143Y-50867260D01*
X196807143Y-50867260D02*
X196678571Y-50910117D01*
X196678571Y-50910117D02*
X196592857Y-50910117D01*
X196592857Y-50910117D02*
X196464286Y-50867260D01*
X196464286Y-50867260D02*
X196378571Y-50781545D01*
X196378571Y-50781545D02*
X196335714Y-50695831D01*
X196335714Y-50695831D02*
X196292857Y-50524402D01*
X196292857Y-50524402D02*
X196292857Y-50395831D01*
X196292857Y-50395831D02*
X196335714Y-50224402D01*
X196335714Y-50224402D02*
X196378571Y-50138688D01*
X196378571Y-50138688D02*
X196464286Y-50052974D01*
X196464286Y-50052974D02*
X196592857Y-50010117D01*
X196592857Y-50010117D02*
X196678571Y-50010117D01*
X196678571Y-50010117D02*
X196807143Y-50052974D01*
X196807143Y-50052974D02*
X196850000Y-50095831D01*
X197664286Y-50010117D02*
X197235714Y-50010117D01*
X197235714Y-50010117D02*
X197192857Y-50438688D01*
X197192857Y-50438688D02*
X197235714Y-50395831D01*
X197235714Y-50395831D02*
X197321429Y-50352974D01*
X197321429Y-50352974D02*
X197535714Y-50352974D01*
X197535714Y-50352974D02*
X197621429Y-50395831D01*
X197621429Y-50395831D02*
X197664286Y-50438688D01*
X197664286Y-50438688D02*
X197707143Y-50524402D01*
X197707143Y-50524402D02*
X197707143Y-50738688D01*
X197707143Y-50738688D02*
X197664286Y-50824402D01*
X197664286Y-50824402D02*
X197621429Y-50867260D01*
X197621429Y-50867260D02*
X197535714Y-50910117D01*
X197535714Y-50910117D02*
X197321429Y-50910117D01*
X197321429Y-50910117D02*
X197235714Y-50867260D01*
X197235714Y-50867260D02*
X197192857Y-50824402D01*
X199350000Y-60410117D02*
X199050000Y-59981545D01*
X198835714Y-60410117D02*
X198835714Y-59510117D01*
X198835714Y-59510117D02*
X199178571Y-59510117D01*
X199178571Y-59510117D02*
X199264286Y-59552974D01*
X199264286Y-59552974D02*
X199307143Y-59595831D01*
X199307143Y-59595831D02*
X199350000Y-59681545D01*
X199350000Y-59681545D02*
X199350000Y-59810117D01*
X199350000Y-59810117D02*
X199307143Y-59895831D01*
X199307143Y-59895831D02*
X199264286Y-59938688D01*
X199264286Y-59938688D02*
X199178571Y-59981545D01*
X199178571Y-59981545D02*
X198835714Y-59981545D01*
X200121429Y-59510117D02*
X199950000Y-59510117D01*
X199950000Y-59510117D02*
X199864286Y-59552974D01*
X199864286Y-59552974D02*
X199821429Y-59595831D01*
X199821429Y-59595831D02*
X199735714Y-59724402D01*
X199735714Y-59724402D02*
X199692857Y-59895831D01*
X199692857Y-59895831D02*
X199692857Y-60238688D01*
X199692857Y-60238688D02*
X199735714Y-60324402D01*
X199735714Y-60324402D02*
X199778571Y-60367260D01*
X199778571Y-60367260D02*
X199864286Y-60410117D01*
X199864286Y-60410117D02*
X200035714Y-60410117D01*
X200035714Y-60410117D02*
X200121429Y-60367260D01*
X200121429Y-60367260D02*
X200164286Y-60324402D01*
X200164286Y-60324402D02*
X200207143Y-60238688D01*
X200207143Y-60238688D02*
X200207143Y-60024402D01*
X200207143Y-60024402D02*
X200164286Y-59938688D01*
X200164286Y-59938688D02*
X200121429Y-59895831D01*
X200121429Y-59895831D02*
X200035714Y-59852974D01*
X200035714Y-59852974D02*
X199864286Y-59852974D01*
X199864286Y-59852974D02*
X199778571Y-59895831D01*
X199778571Y-59895831D02*
X199735714Y-59938688D01*
X199735714Y-59938688D02*
X199692857Y-60024402D01*
X154271428Y-43010117D02*
X154271428Y-43652974D01*
X154271428Y-43652974D02*
X154228571Y-43781545D01*
X154228571Y-43781545D02*
X154142857Y-43867260D01*
X154142857Y-43867260D02*
X154014285Y-43910117D01*
X154014285Y-43910117D02*
X153928571Y-43910117D01*
X154614285Y-43010117D02*
X155171428Y-43010117D01*
X155171428Y-43010117D02*
X154871428Y-43352974D01*
X154871428Y-43352974D02*
X154999999Y-43352974D01*
X154999999Y-43352974D02*
X155085714Y-43395831D01*
X155085714Y-43395831D02*
X155128571Y-43438688D01*
X155128571Y-43438688D02*
X155171428Y-43524402D01*
X155171428Y-43524402D02*
X155171428Y-43738688D01*
X155171428Y-43738688D02*
X155128571Y-43824402D01*
X155128571Y-43824402D02*
X155085714Y-43867260D01*
X155085714Y-43867260D02*
X154999999Y-43910117D01*
X154999999Y-43910117D02*
X154742856Y-43910117D01*
X154742856Y-43910117D02*
X154657142Y-43867260D01*
X154657142Y-43867260D02*
X154614285Y-43824402D01*
X155514285Y-43095831D02*
X155557142Y-43052974D01*
X155557142Y-43052974D02*
X155642857Y-43010117D01*
X155642857Y-43010117D02*
X155857142Y-43010117D01*
X155857142Y-43010117D02*
X155942857Y-43052974D01*
X155942857Y-43052974D02*
X155985714Y-43095831D01*
X155985714Y-43095831D02*
X156028571Y-43181545D01*
X156028571Y-43181545D02*
X156028571Y-43267260D01*
X156028571Y-43267260D02*
X155985714Y-43395831D01*
X155985714Y-43395831D02*
X155471428Y-43910117D01*
X155471428Y-43910117D02*
X156028571Y-43910117D01*
X134200000Y-79510117D02*
X134200000Y-80152974D01*
X134200000Y-80152974D02*
X134157143Y-80281545D01*
X134157143Y-80281545D02*
X134071429Y-80367260D01*
X134071429Y-80367260D02*
X133942857Y-80410117D01*
X133942857Y-80410117D02*
X133857143Y-80410117D01*
X134542857Y-79510117D02*
X135100000Y-79510117D01*
X135100000Y-79510117D02*
X134800000Y-79852974D01*
X134800000Y-79852974D02*
X134928571Y-79852974D01*
X134928571Y-79852974D02*
X135014286Y-79895831D01*
X135014286Y-79895831D02*
X135057143Y-79938688D01*
X135057143Y-79938688D02*
X135100000Y-80024402D01*
X135100000Y-80024402D02*
X135100000Y-80238688D01*
X135100000Y-80238688D02*
X135057143Y-80324402D01*
X135057143Y-80324402D02*
X135014286Y-80367260D01*
X135014286Y-80367260D02*
X134928571Y-80410117D01*
X134928571Y-80410117D02*
X134671428Y-80410117D01*
X134671428Y-80410117D02*
X134585714Y-80367260D01*
X134585714Y-80367260D02*
X134542857Y-80324402D01*
X172350000Y-69410117D02*
X172050000Y-68981545D01*
X171835714Y-69410117D02*
X171835714Y-68510117D01*
X171835714Y-68510117D02*
X172178571Y-68510117D01*
X172178571Y-68510117D02*
X172264286Y-68552974D01*
X172264286Y-68552974D02*
X172307143Y-68595831D01*
X172307143Y-68595831D02*
X172350000Y-68681545D01*
X172350000Y-68681545D02*
X172350000Y-68810117D01*
X172350000Y-68810117D02*
X172307143Y-68895831D01*
X172307143Y-68895831D02*
X172264286Y-68938688D01*
X172264286Y-68938688D02*
X172178571Y-68981545D01*
X172178571Y-68981545D02*
X171835714Y-68981545D01*
X173121429Y-68810117D02*
X173121429Y-69410117D01*
X172907143Y-68467260D02*
X172692857Y-69110117D01*
X172692857Y-69110117D02*
X173250000Y-69110117D01*
X164350000Y-69410117D02*
X164050000Y-68981545D01*
X163835714Y-69410117D02*
X163835714Y-68510117D01*
X163835714Y-68510117D02*
X164178571Y-68510117D01*
X164178571Y-68510117D02*
X164264286Y-68552974D01*
X164264286Y-68552974D02*
X164307143Y-68595831D01*
X164307143Y-68595831D02*
X164350000Y-68681545D01*
X164350000Y-68681545D02*
X164350000Y-68810117D01*
X164350000Y-68810117D02*
X164307143Y-68895831D01*
X164307143Y-68895831D02*
X164264286Y-68938688D01*
X164264286Y-68938688D02*
X164178571Y-68981545D01*
X164178571Y-68981545D02*
X163835714Y-68981545D01*
X164692857Y-68595831D02*
X164735714Y-68552974D01*
X164735714Y-68552974D02*
X164821429Y-68510117D01*
X164821429Y-68510117D02*
X165035714Y-68510117D01*
X165035714Y-68510117D02*
X165121429Y-68552974D01*
X165121429Y-68552974D02*
X165164286Y-68595831D01*
X165164286Y-68595831D02*
X165207143Y-68681545D01*
X165207143Y-68681545D02*
X165207143Y-68767260D01*
X165207143Y-68767260D02*
X165164286Y-68895831D01*
X165164286Y-68895831D02*
X164650000Y-69410117D01*
X164650000Y-69410117D02*
X165207143Y-69410117D01*
X166850000Y-59824402D02*
X166807143Y-59867260D01*
X166807143Y-59867260D02*
X166678571Y-59910117D01*
X166678571Y-59910117D02*
X166592857Y-59910117D01*
X166592857Y-59910117D02*
X166464286Y-59867260D01*
X166464286Y-59867260D02*
X166378571Y-59781545D01*
X166378571Y-59781545D02*
X166335714Y-59695831D01*
X166335714Y-59695831D02*
X166292857Y-59524402D01*
X166292857Y-59524402D02*
X166292857Y-59395831D01*
X166292857Y-59395831D02*
X166335714Y-59224402D01*
X166335714Y-59224402D02*
X166378571Y-59138688D01*
X166378571Y-59138688D02*
X166464286Y-59052974D01*
X166464286Y-59052974D02*
X166592857Y-59010117D01*
X166592857Y-59010117D02*
X166678571Y-59010117D01*
X166678571Y-59010117D02*
X166807143Y-59052974D01*
X166807143Y-59052974D02*
X166850000Y-59095831D01*
X167150000Y-59010117D02*
X167707143Y-59010117D01*
X167707143Y-59010117D02*
X167407143Y-59352974D01*
X167407143Y-59352974D02*
X167535714Y-59352974D01*
X167535714Y-59352974D02*
X167621429Y-59395831D01*
X167621429Y-59395831D02*
X167664286Y-59438688D01*
X167664286Y-59438688D02*
X167707143Y-59524402D01*
X167707143Y-59524402D02*
X167707143Y-59738688D01*
X167707143Y-59738688D02*
X167664286Y-59824402D01*
X167664286Y-59824402D02*
X167621429Y-59867260D01*
X167621429Y-59867260D02*
X167535714Y-59910117D01*
X167535714Y-59910117D02*
X167278571Y-59910117D01*
X167278571Y-59910117D02*
X167192857Y-59867260D01*
X167192857Y-59867260D02*
X167150000Y-59824402D01*
X157850000Y-56824402D02*
X157807143Y-56867260D01*
X157807143Y-56867260D02*
X157678571Y-56910117D01*
X157678571Y-56910117D02*
X157592857Y-56910117D01*
X157592857Y-56910117D02*
X157464286Y-56867260D01*
X157464286Y-56867260D02*
X157378571Y-56781545D01*
X157378571Y-56781545D02*
X157335714Y-56695831D01*
X157335714Y-56695831D02*
X157292857Y-56524402D01*
X157292857Y-56524402D02*
X157292857Y-56395831D01*
X157292857Y-56395831D02*
X157335714Y-56224402D01*
X157335714Y-56224402D02*
X157378571Y-56138688D01*
X157378571Y-56138688D02*
X157464286Y-56052974D01*
X157464286Y-56052974D02*
X157592857Y-56010117D01*
X157592857Y-56010117D02*
X157678571Y-56010117D01*
X157678571Y-56010117D02*
X157807143Y-56052974D01*
X157807143Y-56052974D02*
X157850000Y-56095831D01*
X158364286Y-56395831D02*
X158278571Y-56352974D01*
X158278571Y-56352974D02*
X158235714Y-56310117D01*
X158235714Y-56310117D02*
X158192857Y-56224402D01*
X158192857Y-56224402D02*
X158192857Y-56181545D01*
X158192857Y-56181545D02*
X158235714Y-56095831D01*
X158235714Y-56095831D02*
X158278571Y-56052974D01*
X158278571Y-56052974D02*
X158364286Y-56010117D01*
X158364286Y-56010117D02*
X158535714Y-56010117D01*
X158535714Y-56010117D02*
X158621429Y-56052974D01*
X158621429Y-56052974D02*
X158664286Y-56095831D01*
X158664286Y-56095831D02*
X158707143Y-56181545D01*
X158707143Y-56181545D02*
X158707143Y-56224402D01*
X158707143Y-56224402D02*
X158664286Y-56310117D01*
X158664286Y-56310117D02*
X158621429Y-56352974D01*
X158621429Y-56352974D02*
X158535714Y-56395831D01*
X158535714Y-56395831D02*
X158364286Y-56395831D01*
X158364286Y-56395831D02*
X158278571Y-56438688D01*
X158278571Y-56438688D02*
X158235714Y-56481545D01*
X158235714Y-56481545D02*
X158192857Y-56567260D01*
X158192857Y-56567260D02*
X158192857Y-56738688D01*
X158192857Y-56738688D02*
X158235714Y-56824402D01*
X158235714Y-56824402D02*
X158278571Y-56867260D01*
X158278571Y-56867260D02*
X158364286Y-56910117D01*
X158364286Y-56910117D02*
X158535714Y-56910117D01*
X158535714Y-56910117D02*
X158621429Y-56867260D01*
X158621429Y-56867260D02*
X158664286Y-56824402D01*
X158664286Y-56824402D02*
X158707143Y-56738688D01*
X158707143Y-56738688D02*
X158707143Y-56567260D01*
X158707143Y-56567260D02*
X158664286Y-56481545D01*
X158664286Y-56481545D02*
X158621429Y-56438688D01*
X158621429Y-56438688D02*
X158535714Y-56395831D01*
X204271428Y-72510117D02*
X204871428Y-73410117D01*
X204871428Y-72510117D02*
X204271428Y-73410117D01*
X205642857Y-72510117D02*
X205214285Y-72510117D01*
X205214285Y-72510117D02*
X205171428Y-72938688D01*
X205171428Y-72938688D02*
X205214285Y-72895831D01*
X205214285Y-72895831D02*
X205300000Y-72852974D01*
X205300000Y-72852974D02*
X205514285Y-72852974D01*
X205514285Y-72852974D02*
X205600000Y-72895831D01*
X205600000Y-72895831D02*
X205642857Y-72938688D01*
X205642857Y-72938688D02*
X205685714Y-73024402D01*
X205685714Y-73024402D02*
X205685714Y-73238688D01*
X205685714Y-73238688D02*
X205642857Y-73324402D01*
X205642857Y-73324402D02*
X205600000Y-73367260D01*
X205600000Y-73367260D02*
X205514285Y-73410117D01*
X205514285Y-73410117D02*
X205300000Y-73410117D01*
X205300000Y-73410117D02*
X205214285Y-73367260D01*
X205214285Y-73367260D02*
X205171428Y-73324402D01*
X142350000Y-73410117D02*
X142050000Y-72981545D01*
X141835714Y-73410117D02*
X141835714Y-72510117D01*
X141835714Y-72510117D02*
X142178571Y-72510117D01*
X142178571Y-72510117D02*
X142264286Y-72552974D01*
X142264286Y-72552974D02*
X142307143Y-72595831D01*
X142307143Y-72595831D02*
X142350000Y-72681545D01*
X142350000Y-72681545D02*
X142350000Y-72810117D01*
X142350000Y-72810117D02*
X142307143Y-72895831D01*
X142307143Y-72895831D02*
X142264286Y-72938688D01*
X142264286Y-72938688D02*
X142178571Y-72981545D01*
X142178571Y-72981545D02*
X141835714Y-72981545D01*
X142650000Y-72510117D02*
X143250000Y-72510117D01*
X143250000Y-72510117D02*
X142864286Y-73410117D01*
X151850000Y-63824402D02*
X151807143Y-63867260D01*
X151807143Y-63867260D02*
X151678571Y-63910117D01*
X151678571Y-63910117D02*
X151592857Y-63910117D01*
X151592857Y-63910117D02*
X151464286Y-63867260D01*
X151464286Y-63867260D02*
X151378571Y-63781545D01*
X151378571Y-63781545D02*
X151335714Y-63695831D01*
X151335714Y-63695831D02*
X151292857Y-63524402D01*
X151292857Y-63524402D02*
X151292857Y-63395831D01*
X151292857Y-63395831D02*
X151335714Y-63224402D01*
X151335714Y-63224402D02*
X151378571Y-63138688D01*
X151378571Y-63138688D02*
X151464286Y-63052974D01*
X151464286Y-63052974D02*
X151592857Y-63010117D01*
X151592857Y-63010117D02*
X151678571Y-63010117D01*
X151678571Y-63010117D02*
X151807143Y-63052974D01*
X151807143Y-63052974D02*
X151850000Y-63095831D01*
X152150000Y-63010117D02*
X152750000Y-63010117D01*
X152750000Y-63010117D02*
X152364286Y-63910117D01*
X187271428Y-43010117D02*
X187271428Y-43652974D01*
X187271428Y-43652974D02*
X187228571Y-43781545D01*
X187228571Y-43781545D02*
X187142857Y-43867260D01*
X187142857Y-43867260D02*
X187014285Y-43910117D01*
X187014285Y-43910117D02*
X186928571Y-43910117D01*
X187614285Y-43010117D02*
X188171428Y-43010117D01*
X188171428Y-43010117D02*
X187871428Y-43352974D01*
X187871428Y-43352974D02*
X187999999Y-43352974D01*
X187999999Y-43352974D02*
X188085714Y-43395831D01*
X188085714Y-43395831D02*
X188128571Y-43438688D01*
X188128571Y-43438688D02*
X188171428Y-43524402D01*
X188171428Y-43524402D02*
X188171428Y-43738688D01*
X188171428Y-43738688D02*
X188128571Y-43824402D01*
X188128571Y-43824402D02*
X188085714Y-43867260D01*
X188085714Y-43867260D02*
X187999999Y-43910117D01*
X187999999Y-43910117D02*
X187742856Y-43910117D01*
X187742856Y-43910117D02*
X187657142Y-43867260D01*
X187657142Y-43867260D02*
X187614285Y-43824402D01*
X188471428Y-43010117D02*
X189028571Y-43010117D01*
X189028571Y-43010117D02*
X188728571Y-43352974D01*
X188728571Y-43352974D02*
X188857142Y-43352974D01*
X188857142Y-43352974D02*
X188942857Y-43395831D01*
X188942857Y-43395831D02*
X188985714Y-43438688D01*
X188985714Y-43438688D02*
X189028571Y-43524402D01*
X189028571Y-43524402D02*
X189028571Y-43738688D01*
X189028571Y-43738688D02*
X188985714Y-43824402D01*
X188985714Y-43824402D02*
X188942857Y-43867260D01*
X188942857Y-43867260D02*
X188857142Y-43910117D01*
X188857142Y-43910117D02*
X188599999Y-43910117D01*
X188599999Y-43910117D02*
X188514285Y-43867260D01*
X188514285Y-43867260D02*
X188471428Y-43824402D01*
X173350000Y-77410117D02*
X173050000Y-76981545D01*
X172835714Y-77410117D02*
X172835714Y-76510117D01*
X172835714Y-76510117D02*
X173178571Y-76510117D01*
X173178571Y-76510117D02*
X173264286Y-76552974D01*
X173264286Y-76552974D02*
X173307143Y-76595831D01*
X173307143Y-76595831D02*
X173350000Y-76681545D01*
X173350000Y-76681545D02*
X173350000Y-76810117D01*
X173350000Y-76810117D02*
X173307143Y-76895831D01*
X173307143Y-76895831D02*
X173264286Y-76938688D01*
X173264286Y-76938688D02*
X173178571Y-76981545D01*
X173178571Y-76981545D02*
X172835714Y-76981545D01*
X173650000Y-76510117D02*
X174207143Y-76510117D01*
X174207143Y-76510117D02*
X173907143Y-76852974D01*
X173907143Y-76852974D02*
X174035714Y-76852974D01*
X174035714Y-76852974D02*
X174121429Y-76895831D01*
X174121429Y-76895831D02*
X174164286Y-76938688D01*
X174164286Y-76938688D02*
X174207143Y-77024402D01*
X174207143Y-77024402D02*
X174207143Y-77238688D01*
X174207143Y-77238688D02*
X174164286Y-77324402D01*
X174164286Y-77324402D02*
X174121429Y-77367260D01*
X174121429Y-77367260D02*
X174035714Y-77410117D01*
X174035714Y-77410117D02*
X173778571Y-77410117D01*
X173778571Y-77410117D02*
X173692857Y-77367260D01*
X173692857Y-77367260D02*
X173650000Y-77324402D01*
X199350000Y-68410117D02*
X199050000Y-67981545D01*
X198835714Y-68410117D02*
X198835714Y-67510117D01*
X198835714Y-67510117D02*
X199178571Y-67510117D01*
X199178571Y-67510117D02*
X199264286Y-67552974D01*
X199264286Y-67552974D02*
X199307143Y-67595831D01*
X199307143Y-67595831D02*
X199350000Y-67681545D01*
X199350000Y-67681545D02*
X199350000Y-67810117D01*
X199350000Y-67810117D02*
X199307143Y-67895831D01*
X199307143Y-67895831D02*
X199264286Y-67938688D01*
X199264286Y-67938688D02*
X199178571Y-67981545D01*
X199178571Y-67981545D02*
X198835714Y-67981545D01*
X200164286Y-67510117D02*
X199735714Y-67510117D01*
X199735714Y-67510117D02*
X199692857Y-67938688D01*
X199692857Y-67938688D02*
X199735714Y-67895831D01*
X199735714Y-67895831D02*
X199821429Y-67852974D01*
X199821429Y-67852974D02*
X200035714Y-67852974D01*
X200035714Y-67852974D02*
X200121429Y-67895831D01*
X200121429Y-67895831D02*
X200164286Y-67938688D01*
X200164286Y-67938688D02*
X200207143Y-68024402D01*
X200207143Y-68024402D02*
X200207143Y-68238688D01*
X200207143Y-68238688D02*
X200164286Y-68324402D01*
X200164286Y-68324402D02*
X200121429Y-68367260D01*
X200121429Y-68367260D02*
X200035714Y-68410117D01*
X200035714Y-68410117D02*
X199821429Y-68410117D01*
X199821429Y-68410117D02*
X199735714Y-68367260D01*
X199735714Y-68367260D02*
X199692857Y-68324402D01*
X170850000Y-48824402D02*
X170807143Y-48867260D01*
X170807143Y-48867260D02*
X170678571Y-48910117D01*
X170678571Y-48910117D02*
X170592857Y-48910117D01*
X170592857Y-48910117D02*
X170464286Y-48867260D01*
X170464286Y-48867260D02*
X170378571Y-48781545D01*
X170378571Y-48781545D02*
X170335714Y-48695831D01*
X170335714Y-48695831D02*
X170292857Y-48524402D01*
X170292857Y-48524402D02*
X170292857Y-48395831D01*
X170292857Y-48395831D02*
X170335714Y-48224402D01*
X170335714Y-48224402D02*
X170378571Y-48138688D01*
X170378571Y-48138688D02*
X170464286Y-48052974D01*
X170464286Y-48052974D02*
X170592857Y-48010117D01*
X170592857Y-48010117D02*
X170678571Y-48010117D01*
X170678571Y-48010117D02*
X170807143Y-48052974D01*
X170807143Y-48052974D02*
X170850000Y-48095831D01*
X171621429Y-48310117D02*
X171621429Y-48910117D01*
X171407143Y-47967260D02*
X171192857Y-48610117D01*
X171192857Y-48610117D02*
X171750000Y-48610117D01*
X187350000Y-76410117D02*
X187050000Y-75981545D01*
X186835714Y-76410117D02*
X186835714Y-75510117D01*
X186835714Y-75510117D02*
X187178571Y-75510117D01*
X187178571Y-75510117D02*
X187264286Y-75552974D01*
X187264286Y-75552974D02*
X187307143Y-75595831D01*
X187307143Y-75595831D02*
X187350000Y-75681545D01*
X187350000Y-75681545D02*
X187350000Y-75810117D01*
X187350000Y-75810117D02*
X187307143Y-75895831D01*
X187307143Y-75895831D02*
X187264286Y-75938688D01*
X187264286Y-75938688D02*
X187178571Y-75981545D01*
X187178571Y-75981545D02*
X186835714Y-75981545D01*
X187778571Y-76410117D02*
X187950000Y-76410117D01*
X187950000Y-76410117D02*
X188035714Y-76367260D01*
X188035714Y-76367260D02*
X188078571Y-76324402D01*
X188078571Y-76324402D02*
X188164286Y-76195831D01*
X188164286Y-76195831D02*
X188207143Y-76024402D01*
X188207143Y-76024402D02*
X188207143Y-75681545D01*
X188207143Y-75681545D02*
X188164286Y-75595831D01*
X188164286Y-75595831D02*
X188121429Y-75552974D01*
X188121429Y-75552974D02*
X188035714Y-75510117D01*
X188035714Y-75510117D02*
X187864286Y-75510117D01*
X187864286Y-75510117D02*
X187778571Y-75552974D01*
X187778571Y-75552974D02*
X187735714Y-75595831D01*
X187735714Y-75595831D02*
X187692857Y-75681545D01*
X187692857Y-75681545D02*
X187692857Y-75895831D01*
X187692857Y-75895831D02*
X187735714Y-75981545D01*
X187735714Y-75981545D02*
X187778571Y-76024402D01*
X187778571Y-76024402D02*
X187864286Y-76067260D01*
X187864286Y-76067260D02*
X188035714Y-76067260D01*
X188035714Y-76067260D02*
X188121429Y-76024402D01*
X188121429Y-76024402D02*
X188164286Y-75981545D01*
X188164286Y-75981545D02*
X188207143Y-75895831D01*
X165350000Y-77410117D02*
X165050000Y-76981545D01*
X164835714Y-77410117D02*
X164835714Y-76510117D01*
X164835714Y-76510117D02*
X165178571Y-76510117D01*
X165178571Y-76510117D02*
X165264286Y-76552974D01*
X165264286Y-76552974D02*
X165307143Y-76595831D01*
X165307143Y-76595831D02*
X165350000Y-76681545D01*
X165350000Y-76681545D02*
X165350000Y-76810117D01*
X165350000Y-76810117D02*
X165307143Y-76895831D01*
X165307143Y-76895831D02*
X165264286Y-76938688D01*
X165264286Y-76938688D02*
X165178571Y-76981545D01*
X165178571Y-76981545D02*
X164835714Y-76981545D01*
X166207143Y-77410117D02*
X165692857Y-77410117D01*
X165950000Y-77410117D02*
X165950000Y-76510117D01*
X165950000Y-76510117D02*
X165864286Y-76638688D01*
X165864286Y-76638688D02*
X165778571Y-76724402D01*
X165778571Y-76724402D02*
X165692857Y-76767260D01*
X160271428Y-91510117D02*
X160871428Y-92410117D01*
X160871428Y-91510117D02*
X160271428Y-92410117D01*
X161342857Y-91895831D02*
X161257142Y-91852974D01*
X161257142Y-91852974D02*
X161214285Y-91810117D01*
X161214285Y-91810117D02*
X161171428Y-91724402D01*
X161171428Y-91724402D02*
X161171428Y-91681545D01*
X161171428Y-91681545D02*
X161214285Y-91595831D01*
X161214285Y-91595831D02*
X161257142Y-91552974D01*
X161257142Y-91552974D02*
X161342857Y-91510117D01*
X161342857Y-91510117D02*
X161514285Y-91510117D01*
X161514285Y-91510117D02*
X161600000Y-91552974D01*
X161600000Y-91552974D02*
X161642857Y-91595831D01*
X161642857Y-91595831D02*
X161685714Y-91681545D01*
X161685714Y-91681545D02*
X161685714Y-91724402D01*
X161685714Y-91724402D02*
X161642857Y-91810117D01*
X161642857Y-91810117D02*
X161600000Y-91852974D01*
X161600000Y-91852974D02*
X161514285Y-91895831D01*
X161514285Y-91895831D02*
X161342857Y-91895831D01*
X161342857Y-91895831D02*
X161257142Y-91938688D01*
X161257142Y-91938688D02*
X161214285Y-91981545D01*
X161214285Y-91981545D02*
X161171428Y-92067260D01*
X161171428Y-92067260D02*
X161171428Y-92238688D01*
X161171428Y-92238688D02*
X161214285Y-92324402D01*
X161214285Y-92324402D02*
X161257142Y-92367260D01*
X161257142Y-92367260D02*
X161342857Y-92410117D01*
X161342857Y-92410117D02*
X161514285Y-92410117D01*
X161514285Y-92410117D02*
X161600000Y-92367260D01*
X161600000Y-92367260D02*
X161642857Y-92324402D01*
X161642857Y-92324402D02*
X161685714Y-92238688D01*
X161685714Y-92238688D02*
X161685714Y-92067260D01*
X161685714Y-92067260D02*
X161642857Y-91981545D01*
X161642857Y-91981545D02*
X161600000Y-91938688D01*
X161600000Y-91938688D02*
X161514285Y-91895831D01*
X157350000Y-76410117D02*
X157050000Y-75981545D01*
X156835714Y-76410117D02*
X156835714Y-75510117D01*
X156835714Y-75510117D02*
X157178571Y-75510117D01*
X157178571Y-75510117D02*
X157264286Y-75552974D01*
X157264286Y-75552974D02*
X157307143Y-75595831D01*
X157307143Y-75595831D02*
X157350000Y-75681545D01*
X157350000Y-75681545D02*
X157350000Y-75810117D01*
X157350000Y-75810117D02*
X157307143Y-75895831D01*
X157307143Y-75895831D02*
X157264286Y-75938688D01*
X157264286Y-75938688D02*
X157178571Y-75981545D01*
X157178571Y-75981545D02*
X156835714Y-75981545D01*
X157864286Y-75895831D02*
X157778571Y-75852974D01*
X157778571Y-75852974D02*
X157735714Y-75810117D01*
X157735714Y-75810117D02*
X157692857Y-75724402D01*
X157692857Y-75724402D02*
X157692857Y-75681545D01*
X157692857Y-75681545D02*
X157735714Y-75595831D01*
X157735714Y-75595831D02*
X157778571Y-75552974D01*
X157778571Y-75552974D02*
X157864286Y-75510117D01*
X157864286Y-75510117D02*
X158035714Y-75510117D01*
X158035714Y-75510117D02*
X158121429Y-75552974D01*
X158121429Y-75552974D02*
X158164286Y-75595831D01*
X158164286Y-75595831D02*
X158207143Y-75681545D01*
X158207143Y-75681545D02*
X158207143Y-75724402D01*
X158207143Y-75724402D02*
X158164286Y-75810117D01*
X158164286Y-75810117D02*
X158121429Y-75852974D01*
X158121429Y-75852974D02*
X158035714Y-75895831D01*
X158035714Y-75895831D02*
X157864286Y-75895831D01*
X157864286Y-75895831D02*
X157778571Y-75938688D01*
X157778571Y-75938688D02*
X157735714Y-75981545D01*
X157735714Y-75981545D02*
X157692857Y-76067260D01*
X157692857Y-76067260D02*
X157692857Y-76238688D01*
X157692857Y-76238688D02*
X157735714Y-76324402D01*
X157735714Y-76324402D02*
X157778571Y-76367260D01*
X157778571Y-76367260D02*
X157864286Y-76410117D01*
X157864286Y-76410117D02*
X158035714Y-76410117D01*
X158035714Y-76410117D02*
X158121429Y-76367260D01*
X158121429Y-76367260D02*
X158164286Y-76324402D01*
X158164286Y-76324402D02*
X158207143Y-76238688D01*
X158207143Y-76238688D02*
X158207143Y-76067260D01*
X158207143Y-76067260D02*
X158164286Y-75981545D01*
X158164286Y-75981545D02*
X158121429Y-75938688D01*
X158121429Y-75938688D02*
X158035714Y-75895831D01*
X154700000Y-84010117D02*
X154700000Y-84652974D01*
X154700000Y-84652974D02*
X154657143Y-84781545D01*
X154657143Y-84781545D02*
X154571429Y-84867260D01*
X154571429Y-84867260D02*
X154442857Y-84910117D01*
X154442857Y-84910117D02*
X154357143Y-84910117D01*
X155514286Y-84310117D02*
X155514286Y-84910117D01*
X155300000Y-83967260D02*
X155085714Y-84610117D01*
X155085714Y-84610117D02*
X155642857Y-84610117D01*
X191850000Y-57824402D02*
X191807143Y-57867260D01*
X191807143Y-57867260D02*
X191678571Y-57910117D01*
X191678571Y-57910117D02*
X191592857Y-57910117D01*
X191592857Y-57910117D02*
X191464286Y-57867260D01*
X191464286Y-57867260D02*
X191378571Y-57781545D01*
X191378571Y-57781545D02*
X191335714Y-57695831D01*
X191335714Y-57695831D02*
X191292857Y-57524402D01*
X191292857Y-57524402D02*
X191292857Y-57395831D01*
X191292857Y-57395831D02*
X191335714Y-57224402D01*
X191335714Y-57224402D02*
X191378571Y-57138688D01*
X191378571Y-57138688D02*
X191464286Y-57052974D01*
X191464286Y-57052974D02*
X191592857Y-57010117D01*
X191592857Y-57010117D02*
X191678571Y-57010117D01*
X191678571Y-57010117D02*
X191807143Y-57052974D01*
X191807143Y-57052974D02*
X191850000Y-57095831D01*
X192278571Y-57910117D02*
X192450000Y-57910117D01*
X192450000Y-57910117D02*
X192535714Y-57867260D01*
X192535714Y-57867260D02*
X192578571Y-57824402D01*
X192578571Y-57824402D02*
X192664286Y-57695831D01*
X192664286Y-57695831D02*
X192707143Y-57524402D01*
X192707143Y-57524402D02*
X192707143Y-57181545D01*
X192707143Y-57181545D02*
X192664286Y-57095831D01*
X192664286Y-57095831D02*
X192621429Y-57052974D01*
X192621429Y-57052974D02*
X192535714Y-57010117D01*
X192535714Y-57010117D02*
X192364286Y-57010117D01*
X192364286Y-57010117D02*
X192278571Y-57052974D01*
X192278571Y-57052974D02*
X192235714Y-57095831D01*
X192235714Y-57095831D02*
X192192857Y-57181545D01*
X192192857Y-57181545D02*
X192192857Y-57395831D01*
X192192857Y-57395831D02*
X192235714Y-57481545D01*
X192235714Y-57481545D02*
X192278571Y-57524402D01*
X192278571Y-57524402D02*
X192364286Y-57567260D01*
X192364286Y-57567260D02*
X192535714Y-57567260D01*
X192535714Y-57567260D02*
X192621429Y-57524402D01*
X192621429Y-57524402D02*
X192664286Y-57481545D01*
X192664286Y-57481545D02*
X192707143Y-57395831D01*
X130271428Y-62010117D02*
X130271428Y-62652974D01*
X130271428Y-62652974D02*
X130228571Y-62781545D01*
X130228571Y-62781545D02*
X130142857Y-62867260D01*
X130142857Y-62867260D02*
X130014285Y-62910117D01*
X130014285Y-62910117D02*
X129928571Y-62910117D01*
X130657142Y-62095831D02*
X130699999Y-62052974D01*
X130699999Y-62052974D02*
X130785714Y-62010117D01*
X130785714Y-62010117D02*
X130999999Y-62010117D01*
X130999999Y-62010117D02*
X131085714Y-62052974D01*
X131085714Y-62052974D02*
X131128571Y-62095831D01*
X131128571Y-62095831D02*
X131171428Y-62181545D01*
X131171428Y-62181545D02*
X131171428Y-62267260D01*
X131171428Y-62267260D02*
X131128571Y-62395831D01*
X131128571Y-62395831D02*
X130614285Y-62910117D01*
X130614285Y-62910117D02*
X131171428Y-62910117D01*
X131985714Y-62010117D02*
X131557142Y-62010117D01*
X131557142Y-62010117D02*
X131514285Y-62438688D01*
X131514285Y-62438688D02*
X131557142Y-62395831D01*
X131557142Y-62395831D02*
X131642857Y-62352974D01*
X131642857Y-62352974D02*
X131857142Y-62352974D01*
X131857142Y-62352974D02*
X131942857Y-62395831D01*
X131942857Y-62395831D02*
X131985714Y-62438688D01*
X131985714Y-62438688D02*
X132028571Y-62524402D01*
X132028571Y-62524402D02*
X132028571Y-62738688D01*
X132028571Y-62738688D02*
X131985714Y-62824402D01*
X131985714Y-62824402D02*
X131942857Y-62867260D01*
X131942857Y-62867260D02*
X131857142Y-62910117D01*
X131857142Y-62910117D02*
X131642857Y-62910117D01*
X131642857Y-62910117D02*
X131557142Y-62867260D01*
X131557142Y-62867260D02*
X131514285Y-62824402D01*
X189700000Y-84010117D02*
X189700000Y-84652974D01*
X189700000Y-84652974D02*
X189657143Y-84781545D01*
X189657143Y-84781545D02*
X189571429Y-84867260D01*
X189571429Y-84867260D02*
X189442857Y-84910117D01*
X189442857Y-84910117D02*
X189357143Y-84910117D01*
X190557143Y-84010117D02*
X190128571Y-84010117D01*
X190128571Y-84010117D02*
X190085714Y-84438688D01*
X190085714Y-84438688D02*
X190128571Y-84395831D01*
X190128571Y-84395831D02*
X190214286Y-84352974D01*
X190214286Y-84352974D02*
X190428571Y-84352974D01*
X190428571Y-84352974D02*
X190514286Y-84395831D01*
X190514286Y-84395831D02*
X190557143Y-84438688D01*
X190557143Y-84438688D02*
X190600000Y-84524402D01*
X190600000Y-84524402D02*
X190600000Y-84738688D01*
X190600000Y-84738688D02*
X190557143Y-84824402D01*
X190557143Y-84824402D02*
X190514286Y-84867260D01*
X190514286Y-84867260D02*
X190428571Y-84910117D01*
X190428571Y-84910117D02*
X190214286Y-84910117D01*
X190214286Y-84910117D02*
X190128571Y-84867260D01*
X190128571Y-84867260D02*
X190085714Y-84824402D01*
M02*
