%TF.GenerationSoftware,KiCad,Pcbnew,10.0.6*%
%TF.CreationDate,2026-09-09T21:23:24+03:00*%
%TF.ProjectId,batman,6261746d-616e-42e6-9b69-6361645f7063,rev?*%
%TF.SameCoordinates,Original*%
%TF.FileFunction,Legend,Top*%
%TF.FilePolarity,Positive*%
%FSLAX46Y46*%
G04 Gerber Fmt 4.6, Leading zero omitted, Abs format (unit mm)*
G04 Created by KiCad (PCBNEW 10.0.6) date 2026-09-09 21:23:24*
%MOMM*%
%LPD*%
G01*
G04 APERTURE LIST*
%ADD10C,0.120000*%
G04 APERTURE END LIST*
D10*
X89271428Y-85510117D02*
X89871428Y-86410117D01*
X89871428Y-85510117D02*
X89271428Y-86410117D01*
X90600000Y-85810117D02*
X90600000Y-86410117D01*
X90385714Y-85467260D02*
X90171428Y-86110117D01*
X90171428Y-86110117D02*
X90728571Y-86110117D01*
X196850000Y-50824402D02*
X196807143Y-50867260D01*
X196807143Y-50867260D02*
X196678571Y-50910117D01*
X196678571Y-50910117D02*
X196592857Y-50910117D01*
X196592857Y-50910117D02*
X196464286Y-50867260D01*
X196464286Y-50867260D02*
X196378571Y-50781545D01*
X196378571Y-50781545D02*
X196335714Y-50695831D01*
X196335714Y-50695831D02*
X196292857Y-50524402D01*
X196292857Y-50524402D02*
X196292857Y-50395831D01*
X196292857Y-50395831D02*
X196335714Y-50224402D01*
X196335714Y-50224402D02*
X196378571Y-50138688D01*
X196378571Y-50138688D02*
X196464286Y-50052974D01*
X196464286Y-50052974D02*
X196592857Y-50010117D01*
X196592857Y-50010117D02*
X196678571Y-50010117D01*
X196678571Y-50010117D02*
X196807143Y-50052974D01*
X196807143Y-50052974D02*
X196850000Y-50095831D01*
X197664286Y-50010117D02*
X197235714Y-50010117D01*
X197235714Y-50010117D02*
X197192857Y-50438688D01*
X197192857Y-50438688D02*
X197235714Y-50395831D01*
X197235714Y-50395831D02*
X197321429Y-50352974D01*
X197321429Y-50352974D02*
X197535714Y-50352974D01*
X197535714Y-50352974D02*
X197621429Y-50395831D01*
X197621429Y-50395831D02*
X197664286Y-50438688D01*
X197664286Y-50438688D02*
X197707143Y-50524402D01*
X197707143Y-50524402D02*
X197707143Y-50738688D01*
X197707143Y-50738688D02*
X197664286Y-50824402D01*
X197664286Y-50824402D02*
X197621429Y-50867260D01*
X197621429Y-50867260D02*
X197535714Y-50910117D01*
X197535714Y-50910117D02*
X197321429Y-50910117D01*
X197321429Y-50910117D02*
X197235714Y-50867260D01*
X197235714Y-50867260D02*
X197192857Y-50824402D01*
X49271428Y-149010117D02*
X49271428Y-149652974D01*
X49271428Y-149652974D02*
X49228571Y-149781545D01*
X49228571Y-149781545D02*
X49142857Y-149867260D01*
X49142857Y-149867260D02*
X49014285Y-149910117D01*
X49014285Y-149910117D02*
X48928571Y-149910117D01*
X49614285Y-149010117D02*
X50171428Y-149010117D01*
X50171428Y-149010117D02*
X49871428Y-149352974D01*
X49871428Y-149352974D02*
X49999999Y-149352974D01*
X49999999Y-149352974D02*
X50085714Y-149395831D01*
X50085714Y-149395831D02*
X50128571Y-149438688D01*
X50128571Y-149438688D02*
X50171428Y-149524402D01*
X50171428Y-149524402D02*
X50171428Y-149738688D01*
X50171428Y-149738688D02*
X50128571Y-149824402D01*
X50128571Y-149824402D02*
X50085714Y-149867260D01*
X50085714Y-149867260D02*
X49999999Y-149910117D01*
X49999999Y-149910117D02*
X49742856Y-149910117D01*
X49742856Y-149910117D02*
X49657142Y-149867260D01*
X49657142Y-149867260D02*
X49614285Y-149824402D01*
X50728571Y-149010117D02*
X50814285Y-149010117D01*
X50814285Y-149010117D02*
X50899999Y-149052974D01*
X50899999Y-149052974D02*
X50942857Y-149095831D01*
X50942857Y-149095831D02*
X50985714Y-149181545D01*
X50985714Y-149181545D02*
X51028571Y-149352974D01*
X51028571Y-149352974D02*
X51028571Y-149567260D01*
X51028571Y-149567260D02*
X50985714Y-149738688D01*
X50985714Y-149738688D02*
X50942857Y-149824402D01*
X50942857Y-149824402D02*
X50899999Y-149867260D01*
X50899999Y-149867260D02*
X50814285Y-149910117D01*
X50814285Y-149910117D02*
X50728571Y-149910117D01*
X50728571Y-149910117D02*
X50642857Y-149867260D01*
X50642857Y-149867260D02*
X50599999Y-149824402D01*
X50599999Y-149824402D02*
X50557142Y-149738688D01*
X50557142Y-149738688D02*
X50514285Y-149567260D01*
X50514285Y-149567260D02*
X50514285Y-149352974D01*
X50514285Y-149352974D02*
X50557142Y-149181545D01*
X50557142Y-149181545D02*
X50599999Y-149095831D01*
X50599999Y-149095831D02*
X50642857Y-149052974D01*
X50642857Y-149052974D02*
X50728571Y-149010117D01*
X199350000Y-60410117D02*
X199050000Y-59981545D01*
X198835714Y-60410117D02*
X198835714Y-59510117D01*
X198835714Y-59510117D02*
X199178571Y-59510117D01*
X199178571Y-59510117D02*
X199264286Y-59552974D01*
X199264286Y-59552974D02*
X199307143Y-59595831D01*
X199307143Y-59595831D02*
X199350000Y-59681545D01*
X199350000Y-59681545D02*
X199350000Y-59810117D01*
X199350000Y-59810117D02*
X199307143Y-59895831D01*
X199307143Y-59895831D02*
X199264286Y-59938688D01*
X199264286Y-59938688D02*
X199178571Y-59981545D01*
X199178571Y-59981545D02*
X198835714Y-59981545D01*
X200121429Y-59510117D02*
X199950000Y-59510117D01*
X199950000Y-59510117D02*
X199864286Y-59552974D01*
X199864286Y-59552974D02*
X199821429Y-59595831D01*
X199821429Y-59595831D02*
X199735714Y-59724402D01*
X199735714Y-59724402D02*
X199692857Y-59895831D01*
X199692857Y-59895831D02*
X199692857Y-60238688D01*
X199692857Y-60238688D02*
X199735714Y-60324402D01*
X199735714Y-60324402D02*
X199778571Y-60367260D01*
X199778571Y-60367260D02*
X199864286Y-60410117D01*
X199864286Y-60410117D02*
X200035714Y-60410117D01*
X200035714Y-60410117D02*
X200121429Y-60367260D01*
X200121429Y-60367260D02*
X200164286Y-60324402D01*
X200164286Y-60324402D02*
X200207143Y-60238688D01*
X200207143Y-60238688D02*
X200207143Y-60024402D01*
X200207143Y-60024402D02*
X200164286Y-59938688D01*
X200164286Y-59938688D02*
X200121429Y-59895831D01*
X200121429Y-59895831D02*
X200035714Y-59852974D01*
X200035714Y-59852974D02*
X199864286Y-59852974D01*
X199864286Y-59852974D02*
X199778571Y-59895831D01*
X199778571Y-59895831D02*
X199735714Y-59938688D01*
X199735714Y-59938688D02*
X199692857Y-60024402D01*
X154271428Y-43010117D02*
X154271428Y-43652974D01*
X154271428Y-43652974D02*
X154228571Y-43781545D01*
X154228571Y-43781545D02*
X154142857Y-43867260D01*
X154142857Y-43867260D02*
X154014285Y-43910117D01*
X154014285Y-43910117D02*
X153928571Y-43910117D01*
X154614285Y-43010117D02*
X155171428Y-43010117D01*
X155171428Y-43010117D02*
X154871428Y-43352974D01*
X154871428Y-43352974D02*
X154999999Y-43352974D01*
X154999999Y-43352974D02*
X155085714Y-43395831D01*
X155085714Y-43395831D02*
X155128571Y-43438688D01*
X155128571Y-43438688D02*
X155171428Y-43524402D01*
X155171428Y-43524402D02*
X155171428Y-43738688D01*
X155171428Y-43738688D02*
X155128571Y-43824402D01*
X155128571Y-43824402D02*
X155085714Y-43867260D01*
X155085714Y-43867260D02*
X154999999Y-43910117D01*
X154999999Y-43910117D02*
X154742856Y-43910117D01*
X154742856Y-43910117D02*
X154657142Y-43867260D01*
X154657142Y-43867260D02*
X154614285Y-43824402D01*
X155514285Y-43095831D02*
X155557142Y-43052974D01*
X155557142Y-43052974D02*
X155642857Y-43010117D01*
X155642857Y-43010117D02*
X155857142Y-43010117D01*
X155857142Y-43010117D02*
X155942857Y-43052974D01*
X155942857Y-43052974D02*
X155985714Y-43095831D01*
X155985714Y-43095831D02*
X156028571Y-43181545D01*
X156028571Y-43181545D02*
X156028571Y-43267260D01*
X156028571Y-43267260D02*
X155985714Y-43395831D01*
X155985714Y-43395831D02*
X155471428Y-43910117D01*
X155471428Y-43910117D02*
X156028571Y-43910117D01*
X110821428Y-148010117D02*
X111121428Y-148910117D01*
X111121428Y-148910117D02*
X111421428Y-148010117D01*
X111721428Y-148910117D02*
X111721428Y-148010117D01*
X111721428Y-148010117D02*
X111935714Y-148010117D01*
X111935714Y-148010117D02*
X112064285Y-148052974D01*
X112064285Y-148052974D02*
X112150000Y-148138688D01*
X112150000Y-148138688D02*
X112192857Y-148224402D01*
X112192857Y-148224402D02*
X112235714Y-148395831D01*
X112235714Y-148395831D02*
X112235714Y-148524402D01*
X112235714Y-148524402D02*
X112192857Y-148695831D01*
X112192857Y-148695831D02*
X112150000Y-148781545D01*
X112150000Y-148781545D02*
X112064285Y-148867260D01*
X112064285Y-148867260D02*
X111935714Y-148910117D01*
X111935714Y-148910117D02*
X111721428Y-148910117D01*
X112578571Y-148095831D02*
X112621428Y-148052974D01*
X112621428Y-148052974D02*
X112707143Y-148010117D01*
X112707143Y-148010117D02*
X112921428Y-148010117D01*
X112921428Y-148010117D02*
X113007143Y-148052974D01*
X113007143Y-148052974D02*
X113050000Y-148095831D01*
X113050000Y-148095831D02*
X113092857Y-148181545D01*
X113092857Y-148181545D02*
X113092857Y-148267260D01*
X113092857Y-148267260D02*
X113050000Y-148395831D01*
X113050000Y-148395831D02*
X112535714Y-148910117D01*
X112535714Y-148910117D02*
X113092857Y-148910117D01*
X96271428Y-41510117D02*
X96271428Y-42152974D01*
X96271428Y-42152974D02*
X96228571Y-42281545D01*
X96228571Y-42281545D02*
X96142857Y-42367260D01*
X96142857Y-42367260D02*
X96014285Y-42410117D01*
X96014285Y-42410117D02*
X95928571Y-42410117D01*
X96657142Y-41595831D02*
X96699999Y-41552974D01*
X96699999Y-41552974D02*
X96785714Y-41510117D01*
X96785714Y-41510117D02*
X96999999Y-41510117D01*
X96999999Y-41510117D02*
X97085714Y-41552974D01*
X97085714Y-41552974D02*
X97128571Y-41595831D01*
X97128571Y-41595831D02*
X97171428Y-41681545D01*
X97171428Y-41681545D02*
X97171428Y-41767260D01*
X97171428Y-41767260D02*
X97128571Y-41895831D01*
X97128571Y-41895831D02*
X96614285Y-42410117D01*
X96614285Y-42410117D02*
X97171428Y-42410117D01*
X97728571Y-41510117D02*
X97814285Y-41510117D01*
X97814285Y-41510117D02*
X97899999Y-41552974D01*
X97899999Y-41552974D02*
X97942857Y-41595831D01*
X97942857Y-41595831D02*
X97985714Y-41681545D01*
X97985714Y-41681545D02*
X98028571Y-41852974D01*
X98028571Y-41852974D02*
X98028571Y-42067260D01*
X98028571Y-42067260D02*
X97985714Y-42238688D01*
X97985714Y-42238688D02*
X97942857Y-42324402D01*
X97942857Y-42324402D02*
X97899999Y-42367260D01*
X97899999Y-42367260D02*
X97814285Y-42410117D01*
X97814285Y-42410117D02*
X97728571Y-42410117D01*
X97728571Y-42410117D02*
X97642857Y-42367260D01*
X97642857Y-42367260D02*
X97599999Y-42324402D01*
X97599999Y-42324402D02*
X97557142Y-42238688D01*
X97557142Y-42238688D02*
X97514285Y-42067260D01*
X97514285Y-42067260D02*
X97514285Y-41852974D01*
X97514285Y-41852974D02*
X97557142Y-41681545D01*
X97557142Y-41681545D02*
X97599999Y-41595831D01*
X97599999Y-41595831D02*
X97642857Y-41552974D01*
X97642857Y-41552974D02*
X97728571Y-41510117D01*
X116271428Y-129510117D02*
X116871428Y-130410117D01*
X116871428Y-129510117D02*
X116271428Y-130410117D01*
X117171428Y-129595831D02*
X117214285Y-129552974D01*
X117214285Y-129552974D02*
X117300000Y-129510117D01*
X117300000Y-129510117D02*
X117514285Y-129510117D01*
X117514285Y-129510117D02*
X117600000Y-129552974D01*
X117600000Y-129552974D02*
X117642857Y-129595831D01*
X117642857Y-129595831D02*
X117685714Y-129681545D01*
X117685714Y-129681545D02*
X117685714Y-129767260D01*
X117685714Y-129767260D02*
X117642857Y-129895831D01*
X117642857Y-129895831D02*
X117128571Y-130410117D01*
X117128571Y-130410117D02*
X117685714Y-130410117D01*
X134200000Y-79510117D02*
X134200000Y-80152974D01*
X134200000Y-80152974D02*
X134157143Y-80281545D01*
X134157143Y-80281545D02*
X134071429Y-80367260D01*
X134071429Y-80367260D02*
X133942857Y-80410117D01*
X133942857Y-80410117D02*
X133857143Y-80410117D01*
X134542857Y-79510117D02*
X135100000Y-79510117D01*
X135100000Y-79510117D02*
X134800000Y-79852974D01*
X134800000Y-79852974D02*
X134928571Y-79852974D01*
X134928571Y-79852974D02*
X135014286Y-79895831D01*
X135014286Y-79895831D02*
X135057143Y-79938688D01*
X135057143Y-79938688D02*
X135100000Y-80024402D01*
X135100000Y-80024402D02*
X135100000Y-80238688D01*
X135100000Y-80238688D02*
X135057143Y-80324402D01*
X135057143Y-80324402D02*
X135014286Y-80367260D01*
X135014286Y-80367260D02*
X134928571Y-80410117D01*
X134928571Y-80410117D02*
X134671428Y-80410117D01*
X134671428Y-80410117D02*
X134585714Y-80367260D01*
X134585714Y-80367260D02*
X134542857Y-80324402D01*
X92271428Y-35010117D02*
X92271428Y-35652974D01*
X92271428Y-35652974D02*
X92228571Y-35781545D01*
X92228571Y-35781545D02*
X92142857Y-35867260D01*
X92142857Y-35867260D02*
X92014285Y-35910117D01*
X92014285Y-35910117D02*
X91928571Y-35910117D01*
X93171428Y-35910117D02*
X92657142Y-35910117D01*
X92914285Y-35910117D02*
X92914285Y-35010117D01*
X92914285Y-35010117D02*
X92828571Y-35138688D01*
X92828571Y-35138688D02*
X92742856Y-35224402D01*
X92742856Y-35224402D02*
X92657142Y-35267260D01*
X93728571Y-35010117D02*
X93814285Y-35010117D01*
X93814285Y-35010117D02*
X93899999Y-35052974D01*
X93899999Y-35052974D02*
X93942857Y-35095831D01*
X93942857Y-35095831D02*
X93985714Y-35181545D01*
X93985714Y-35181545D02*
X94028571Y-35352974D01*
X94028571Y-35352974D02*
X94028571Y-35567260D01*
X94028571Y-35567260D02*
X93985714Y-35738688D01*
X93985714Y-35738688D02*
X93942857Y-35824402D01*
X93942857Y-35824402D02*
X93899999Y-35867260D01*
X93899999Y-35867260D02*
X93814285Y-35910117D01*
X93814285Y-35910117D02*
X93728571Y-35910117D01*
X93728571Y-35910117D02*
X93642857Y-35867260D01*
X93642857Y-35867260D02*
X93599999Y-35824402D01*
X93599999Y-35824402D02*
X93557142Y-35738688D01*
X93557142Y-35738688D02*
X93514285Y-35567260D01*
X93514285Y-35567260D02*
X93514285Y-35352974D01*
X93514285Y-35352974D02*
X93557142Y-35181545D01*
X93557142Y-35181545D02*
X93599999Y-35095831D01*
X93599999Y-35095831D02*
X93642857Y-35052974D01*
X93642857Y-35052974D02*
X93728571Y-35010117D01*
X172350000Y-69410117D02*
X172050000Y-68981545D01*
X171835714Y-69410117D02*
X171835714Y-68510117D01*
X171835714Y-68510117D02*
X172178571Y-68510117D01*
X172178571Y-68510117D02*
X172264286Y-68552974D01*
X172264286Y-68552974D02*
X172307143Y-68595831D01*
X172307143Y-68595831D02*
X172350000Y-68681545D01*
X172350000Y-68681545D02*
X172350000Y-68810117D01*
X172350000Y-68810117D02*
X172307143Y-68895831D01*
X172307143Y-68895831D02*
X172264286Y-68938688D01*
X172264286Y-68938688D02*
X172178571Y-68981545D01*
X172178571Y-68981545D02*
X171835714Y-68981545D01*
X173121429Y-68810117D02*
X173121429Y-69410117D01*
X172907143Y-68467260D02*
X172692857Y-69110117D01*
X172692857Y-69110117D02*
X173250000Y-69110117D01*
X164350000Y-69410117D02*
X164050000Y-68981545D01*
X163835714Y-69410117D02*
X163835714Y-68510117D01*
X163835714Y-68510117D02*
X164178571Y-68510117D01*
X164178571Y-68510117D02*
X164264286Y-68552974D01*
X164264286Y-68552974D02*
X164307143Y-68595831D01*
X164307143Y-68595831D02*
X164350000Y-68681545D01*
X164350000Y-68681545D02*
X164350000Y-68810117D01*
X164350000Y-68810117D02*
X164307143Y-68895831D01*
X164307143Y-68895831D02*
X164264286Y-68938688D01*
X164264286Y-68938688D02*
X164178571Y-68981545D01*
X164178571Y-68981545D02*
X163835714Y-68981545D01*
X164692857Y-68595831D02*
X164735714Y-68552974D01*
X164735714Y-68552974D02*
X164821429Y-68510117D01*
X164821429Y-68510117D02*
X165035714Y-68510117D01*
X165035714Y-68510117D02*
X165121429Y-68552974D01*
X165121429Y-68552974D02*
X165164286Y-68595831D01*
X165164286Y-68595831D02*
X165207143Y-68681545D01*
X165207143Y-68681545D02*
X165207143Y-68767260D01*
X165207143Y-68767260D02*
X165164286Y-68895831D01*
X165164286Y-68895831D02*
X164650000Y-69410117D01*
X164650000Y-69410117D02*
X165207143Y-69410117D01*
X41914285Y-76995831D02*
X41828571Y-76952974D01*
X41828571Y-76952974D02*
X41742857Y-76867260D01*
X41742857Y-76867260D02*
X41614285Y-76738688D01*
X41614285Y-76738688D02*
X41528571Y-76695831D01*
X41528571Y-76695831D02*
X41442857Y-76695831D01*
X41485714Y-76910117D02*
X41400000Y-76867260D01*
X41400000Y-76867260D02*
X41314285Y-76781545D01*
X41314285Y-76781545D02*
X41271428Y-76610117D01*
X41271428Y-76610117D02*
X41271428Y-76310117D01*
X41271428Y-76310117D02*
X41314285Y-76138688D01*
X41314285Y-76138688D02*
X41400000Y-76052974D01*
X41400000Y-76052974D02*
X41485714Y-76010117D01*
X41485714Y-76010117D02*
X41657142Y-76010117D01*
X41657142Y-76010117D02*
X41742857Y-76052974D01*
X41742857Y-76052974D02*
X41828571Y-76138688D01*
X41828571Y-76138688D02*
X41871428Y-76310117D01*
X41871428Y-76310117D02*
X41871428Y-76610117D01*
X41871428Y-76610117D02*
X41828571Y-76781545D01*
X41828571Y-76781545D02*
X41742857Y-76867260D01*
X41742857Y-76867260D02*
X41657142Y-76910117D01*
X41657142Y-76910117D02*
X41485714Y-76910117D01*
X42728571Y-76910117D02*
X42214285Y-76910117D01*
X42471428Y-76910117D02*
X42471428Y-76010117D01*
X42471428Y-76010117D02*
X42385714Y-76138688D01*
X42385714Y-76138688D02*
X42299999Y-76224402D01*
X42299999Y-76224402D02*
X42214285Y-76267260D01*
X166850000Y-59824402D02*
X166807143Y-59867260D01*
X166807143Y-59867260D02*
X166678571Y-59910117D01*
X166678571Y-59910117D02*
X166592857Y-59910117D01*
X166592857Y-59910117D02*
X166464286Y-59867260D01*
X166464286Y-59867260D02*
X166378571Y-59781545D01*
X166378571Y-59781545D02*
X166335714Y-59695831D01*
X166335714Y-59695831D02*
X166292857Y-59524402D01*
X166292857Y-59524402D02*
X166292857Y-59395831D01*
X166292857Y-59395831D02*
X166335714Y-59224402D01*
X166335714Y-59224402D02*
X166378571Y-59138688D01*
X166378571Y-59138688D02*
X166464286Y-59052974D01*
X166464286Y-59052974D02*
X166592857Y-59010117D01*
X166592857Y-59010117D02*
X166678571Y-59010117D01*
X166678571Y-59010117D02*
X166807143Y-59052974D01*
X166807143Y-59052974D02*
X166850000Y-59095831D01*
X167150000Y-59010117D02*
X167707143Y-59010117D01*
X167707143Y-59010117D02*
X167407143Y-59352974D01*
X167407143Y-59352974D02*
X167535714Y-59352974D01*
X167535714Y-59352974D02*
X167621429Y-59395831D01*
X167621429Y-59395831D02*
X167664286Y-59438688D01*
X167664286Y-59438688D02*
X167707143Y-59524402D01*
X167707143Y-59524402D02*
X167707143Y-59738688D01*
X167707143Y-59738688D02*
X167664286Y-59824402D01*
X167664286Y-59824402D02*
X167621429Y-59867260D01*
X167621429Y-59867260D02*
X167535714Y-59910117D01*
X167535714Y-59910117D02*
X167278571Y-59910117D01*
X167278571Y-59910117D02*
X167192857Y-59867260D01*
X167192857Y-59867260D02*
X167150000Y-59824402D01*
X57921428Y-149324402D02*
X57878571Y-149367260D01*
X57878571Y-149367260D02*
X57749999Y-149410117D01*
X57749999Y-149410117D02*
X57664285Y-149410117D01*
X57664285Y-149410117D02*
X57535714Y-149367260D01*
X57535714Y-149367260D02*
X57449999Y-149281545D01*
X57449999Y-149281545D02*
X57407142Y-149195831D01*
X57407142Y-149195831D02*
X57364285Y-149024402D01*
X57364285Y-149024402D02*
X57364285Y-148895831D01*
X57364285Y-148895831D02*
X57407142Y-148724402D01*
X57407142Y-148724402D02*
X57449999Y-148638688D01*
X57449999Y-148638688D02*
X57535714Y-148552974D01*
X57535714Y-148552974D02*
X57664285Y-148510117D01*
X57664285Y-148510117D02*
X57749999Y-148510117D01*
X57749999Y-148510117D02*
X57878571Y-148552974D01*
X57878571Y-148552974D02*
X57921428Y-148595831D01*
X58778571Y-149410117D02*
X58264285Y-149410117D01*
X58521428Y-149410117D02*
X58521428Y-148510117D01*
X58521428Y-148510117D02*
X58435714Y-148638688D01*
X58435714Y-148638688D02*
X58349999Y-148724402D01*
X58349999Y-148724402D02*
X58264285Y-148767260D01*
X59121428Y-148595831D02*
X59164285Y-148552974D01*
X59164285Y-148552974D02*
X59250000Y-148510117D01*
X59250000Y-148510117D02*
X59464285Y-148510117D01*
X59464285Y-148510117D02*
X59550000Y-148552974D01*
X59550000Y-148552974D02*
X59592857Y-148595831D01*
X59592857Y-148595831D02*
X59635714Y-148681545D01*
X59635714Y-148681545D02*
X59635714Y-148767260D01*
X59635714Y-148767260D02*
X59592857Y-148895831D01*
X59592857Y-148895831D02*
X59078571Y-149410117D01*
X59078571Y-149410117D02*
X59635714Y-149410117D01*
X157850000Y-56824402D02*
X157807143Y-56867260D01*
X157807143Y-56867260D02*
X157678571Y-56910117D01*
X157678571Y-56910117D02*
X157592857Y-56910117D01*
X157592857Y-56910117D02*
X157464286Y-56867260D01*
X157464286Y-56867260D02*
X157378571Y-56781545D01*
X157378571Y-56781545D02*
X157335714Y-56695831D01*
X157335714Y-56695831D02*
X157292857Y-56524402D01*
X157292857Y-56524402D02*
X157292857Y-56395831D01*
X157292857Y-56395831D02*
X157335714Y-56224402D01*
X157335714Y-56224402D02*
X157378571Y-56138688D01*
X157378571Y-56138688D02*
X157464286Y-56052974D01*
X157464286Y-56052974D02*
X157592857Y-56010117D01*
X157592857Y-56010117D02*
X157678571Y-56010117D01*
X157678571Y-56010117D02*
X157807143Y-56052974D01*
X157807143Y-56052974D02*
X157850000Y-56095831D01*
X158364286Y-56395831D02*
X158278571Y-56352974D01*
X158278571Y-56352974D02*
X158235714Y-56310117D01*
X158235714Y-56310117D02*
X158192857Y-56224402D01*
X158192857Y-56224402D02*
X158192857Y-56181545D01*
X158192857Y-56181545D02*
X158235714Y-56095831D01*
X158235714Y-56095831D02*
X158278571Y-56052974D01*
X158278571Y-56052974D02*
X158364286Y-56010117D01*
X158364286Y-56010117D02*
X158535714Y-56010117D01*
X158535714Y-56010117D02*
X158621429Y-56052974D01*
X158621429Y-56052974D02*
X158664286Y-56095831D01*
X158664286Y-56095831D02*
X158707143Y-56181545D01*
X158707143Y-56181545D02*
X158707143Y-56224402D01*
X158707143Y-56224402D02*
X158664286Y-56310117D01*
X158664286Y-56310117D02*
X158621429Y-56352974D01*
X158621429Y-56352974D02*
X158535714Y-56395831D01*
X158535714Y-56395831D02*
X158364286Y-56395831D01*
X158364286Y-56395831D02*
X158278571Y-56438688D01*
X158278571Y-56438688D02*
X158235714Y-56481545D01*
X158235714Y-56481545D02*
X158192857Y-56567260D01*
X158192857Y-56567260D02*
X158192857Y-56738688D01*
X158192857Y-56738688D02*
X158235714Y-56824402D01*
X158235714Y-56824402D02*
X158278571Y-56867260D01*
X158278571Y-56867260D02*
X158364286Y-56910117D01*
X158364286Y-56910117D02*
X158535714Y-56910117D01*
X158535714Y-56910117D02*
X158621429Y-56867260D01*
X158621429Y-56867260D02*
X158664286Y-56824402D01*
X158664286Y-56824402D02*
X158707143Y-56738688D01*
X158707143Y-56738688D02*
X158707143Y-56567260D01*
X158707143Y-56567260D02*
X158664286Y-56481545D01*
X158664286Y-56481545D02*
X158621429Y-56438688D01*
X158621429Y-56438688D02*
X158535714Y-56395831D01*
X52421428Y-143910117D02*
X52121428Y-143481545D01*
X51907142Y-143910117D02*
X51907142Y-143010117D01*
X51907142Y-143010117D02*
X52249999Y-143010117D01*
X52249999Y-143010117D02*
X52335714Y-143052974D01*
X52335714Y-143052974D02*
X52378571Y-143095831D01*
X52378571Y-143095831D02*
X52421428Y-143181545D01*
X52421428Y-143181545D02*
X52421428Y-143310117D01*
X52421428Y-143310117D02*
X52378571Y-143395831D01*
X52378571Y-143395831D02*
X52335714Y-143438688D01*
X52335714Y-143438688D02*
X52249999Y-143481545D01*
X52249999Y-143481545D02*
X51907142Y-143481545D01*
X53278571Y-143910117D02*
X52764285Y-143910117D01*
X53021428Y-143910117D02*
X53021428Y-143010117D01*
X53021428Y-143010117D02*
X52935714Y-143138688D01*
X52935714Y-143138688D02*
X52849999Y-143224402D01*
X52849999Y-143224402D02*
X52764285Y-143267260D01*
X54135714Y-143910117D02*
X53621428Y-143910117D01*
X53878571Y-143910117D02*
X53878571Y-143010117D01*
X53878571Y-143010117D02*
X53792857Y-143138688D01*
X53792857Y-143138688D02*
X53707142Y-143224402D01*
X53707142Y-143224402D02*
X53621428Y-143267260D01*
X204271428Y-72510117D02*
X204871428Y-73410117D01*
X204871428Y-72510117D02*
X204271428Y-73410117D01*
X205642857Y-72510117D02*
X205214285Y-72510117D01*
X205214285Y-72510117D02*
X205171428Y-72938688D01*
X205171428Y-72938688D02*
X205214285Y-72895831D01*
X205214285Y-72895831D02*
X205300000Y-72852974D01*
X205300000Y-72852974D02*
X205514285Y-72852974D01*
X205514285Y-72852974D02*
X205600000Y-72895831D01*
X205600000Y-72895831D02*
X205642857Y-72938688D01*
X205642857Y-72938688D02*
X205685714Y-73024402D01*
X205685714Y-73024402D02*
X205685714Y-73238688D01*
X205685714Y-73238688D02*
X205642857Y-73324402D01*
X205642857Y-73324402D02*
X205600000Y-73367260D01*
X205600000Y-73367260D02*
X205514285Y-73410117D01*
X205514285Y-73410117D02*
X205300000Y-73410117D01*
X205300000Y-73410117D02*
X205214285Y-73367260D01*
X205214285Y-73367260D02*
X205171428Y-73324402D01*
X142350000Y-73410117D02*
X142050000Y-72981545D01*
X141835714Y-73410117D02*
X141835714Y-72510117D01*
X141835714Y-72510117D02*
X142178571Y-72510117D01*
X142178571Y-72510117D02*
X142264286Y-72552974D01*
X142264286Y-72552974D02*
X142307143Y-72595831D01*
X142307143Y-72595831D02*
X142350000Y-72681545D01*
X142350000Y-72681545D02*
X142350000Y-72810117D01*
X142350000Y-72810117D02*
X142307143Y-72895831D01*
X142307143Y-72895831D02*
X142264286Y-72938688D01*
X142264286Y-72938688D02*
X142178571Y-72981545D01*
X142178571Y-72981545D02*
X141835714Y-72981545D01*
X142650000Y-72510117D02*
X143250000Y-72510117D01*
X143250000Y-72510117D02*
X142864286Y-73410117D01*
X151850000Y-63824402D02*
X151807143Y-63867260D01*
X151807143Y-63867260D02*
X151678571Y-63910117D01*
X151678571Y-63910117D02*
X151592857Y-63910117D01*
X151592857Y-63910117D02*
X151464286Y-63867260D01*
X151464286Y-63867260D02*
X151378571Y-63781545D01*
X151378571Y-63781545D02*
X151335714Y-63695831D01*
X151335714Y-63695831D02*
X151292857Y-63524402D01*
X151292857Y-63524402D02*
X151292857Y-63395831D01*
X151292857Y-63395831D02*
X151335714Y-63224402D01*
X151335714Y-63224402D02*
X151378571Y-63138688D01*
X151378571Y-63138688D02*
X151464286Y-63052974D01*
X151464286Y-63052974D02*
X151592857Y-63010117D01*
X151592857Y-63010117D02*
X151678571Y-63010117D01*
X151678571Y-63010117D02*
X151807143Y-63052974D01*
X151807143Y-63052974D02*
X151850000Y-63095831D01*
X152150000Y-63010117D02*
X152750000Y-63010117D01*
X152750000Y-63010117D02*
X152364286Y-63910117D01*
X54271428Y-54210117D02*
X54271428Y-54852974D01*
X54271428Y-54852974D02*
X54228571Y-54981545D01*
X54228571Y-54981545D02*
X54142857Y-55067260D01*
X54142857Y-55067260D02*
X54014285Y-55110117D01*
X54014285Y-55110117D02*
X53928571Y-55110117D01*
X54657142Y-54295831D02*
X54699999Y-54252974D01*
X54699999Y-54252974D02*
X54785714Y-54210117D01*
X54785714Y-54210117D02*
X54999999Y-54210117D01*
X54999999Y-54210117D02*
X55085714Y-54252974D01*
X55085714Y-54252974D02*
X55128571Y-54295831D01*
X55128571Y-54295831D02*
X55171428Y-54381545D01*
X55171428Y-54381545D02*
X55171428Y-54467260D01*
X55171428Y-54467260D02*
X55128571Y-54595831D01*
X55128571Y-54595831D02*
X54614285Y-55110117D01*
X54614285Y-55110117D02*
X55171428Y-55110117D01*
X55514285Y-54295831D02*
X55557142Y-54252974D01*
X55557142Y-54252974D02*
X55642857Y-54210117D01*
X55642857Y-54210117D02*
X55857142Y-54210117D01*
X55857142Y-54210117D02*
X55942857Y-54252974D01*
X55942857Y-54252974D02*
X55985714Y-54295831D01*
X55985714Y-54295831D02*
X56028571Y-54381545D01*
X56028571Y-54381545D02*
X56028571Y-54467260D01*
X56028571Y-54467260D02*
X55985714Y-54595831D01*
X55985714Y-54595831D02*
X55471428Y-55110117D01*
X55471428Y-55110117D02*
X56028571Y-55110117D01*
X187271428Y-43010117D02*
X187271428Y-43652974D01*
X187271428Y-43652974D02*
X187228571Y-43781545D01*
X187228571Y-43781545D02*
X187142857Y-43867260D01*
X187142857Y-43867260D02*
X187014285Y-43910117D01*
X187014285Y-43910117D02*
X186928571Y-43910117D01*
X187614285Y-43010117D02*
X188171428Y-43010117D01*
X188171428Y-43010117D02*
X187871428Y-43352974D01*
X187871428Y-43352974D02*
X187999999Y-43352974D01*
X187999999Y-43352974D02*
X188085714Y-43395831D01*
X188085714Y-43395831D02*
X188128571Y-43438688D01*
X188128571Y-43438688D02*
X188171428Y-43524402D01*
X188171428Y-43524402D02*
X188171428Y-43738688D01*
X188171428Y-43738688D02*
X188128571Y-43824402D01*
X188128571Y-43824402D02*
X188085714Y-43867260D01*
X188085714Y-43867260D02*
X187999999Y-43910117D01*
X187999999Y-43910117D02*
X187742856Y-43910117D01*
X187742856Y-43910117D02*
X187657142Y-43867260D01*
X187657142Y-43867260D02*
X187614285Y-43824402D01*
X188471428Y-43010117D02*
X189028571Y-43010117D01*
X189028571Y-43010117D02*
X188728571Y-43352974D01*
X188728571Y-43352974D02*
X188857142Y-43352974D01*
X188857142Y-43352974D02*
X188942857Y-43395831D01*
X188942857Y-43395831D02*
X188985714Y-43438688D01*
X188985714Y-43438688D02*
X189028571Y-43524402D01*
X189028571Y-43524402D02*
X189028571Y-43738688D01*
X189028571Y-43738688D02*
X188985714Y-43824402D01*
X188985714Y-43824402D02*
X188942857Y-43867260D01*
X188942857Y-43867260D02*
X188857142Y-43910117D01*
X188857142Y-43910117D02*
X188599999Y-43910117D01*
X188599999Y-43910117D02*
X188514285Y-43867260D01*
X188514285Y-43867260D02*
X188471428Y-43824402D01*
X59811428Y-100372617D02*
X59811428Y-101015474D01*
X59811428Y-101015474D02*
X59768571Y-101144045D01*
X59768571Y-101144045D02*
X59682857Y-101229760D01*
X59682857Y-101229760D02*
X59554285Y-101272617D01*
X59554285Y-101272617D02*
X59468571Y-101272617D01*
X60197142Y-100458331D02*
X60239999Y-100415474D01*
X60239999Y-100415474D02*
X60325714Y-100372617D01*
X60325714Y-100372617D02*
X60539999Y-100372617D01*
X60539999Y-100372617D02*
X60625714Y-100415474D01*
X60625714Y-100415474D02*
X60668571Y-100458331D01*
X60668571Y-100458331D02*
X60711428Y-100544045D01*
X60711428Y-100544045D02*
X60711428Y-100629760D01*
X60711428Y-100629760D02*
X60668571Y-100758331D01*
X60668571Y-100758331D02*
X60154285Y-101272617D01*
X60154285Y-101272617D02*
X60711428Y-101272617D01*
X61482857Y-100372617D02*
X61311428Y-100372617D01*
X61311428Y-100372617D02*
X61225714Y-100415474D01*
X61225714Y-100415474D02*
X61182857Y-100458331D01*
X61182857Y-100458331D02*
X61097142Y-100586902D01*
X61097142Y-100586902D02*
X61054285Y-100758331D01*
X61054285Y-100758331D02*
X61054285Y-101101188D01*
X61054285Y-101101188D02*
X61097142Y-101186902D01*
X61097142Y-101186902D02*
X61139999Y-101229760D01*
X61139999Y-101229760D02*
X61225714Y-101272617D01*
X61225714Y-101272617D02*
X61397142Y-101272617D01*
X61397142Y-101272617D02*
X61482857Y-101229760D01*
X61482857Y-101229760D02*
X61525714Y-101186902D01*
X61525714Y-101186902D02*
X61568571Y-101101188D01*
X61568571Y-101101188D02*
X61568571Y-100886902D01*
X61568571Y-100886902D02*
X61525714Y-100801188D01*
X61525714Y-100801188D02*
X61482857Y-100758331D01*
X61482857Y-100758331D02*
X61397142Y-100715474D01*
X61397142Y-100715474D02*
X61225714Y-100715474D01*
X61225714Y-100715474D02*
X61139999Y-100758331D01*
X61139999Y-100758331D02*
X61097142Y-100801188D01*
X61097142Y-100801188D02*
X61054285Y-100886902D01*
X173350000Y-77410117D02*
X173050000Y-76981545D01*
X172835714Y-77410117D02*
X172835714Y-76510117D01*
X172835714Y-76510117D02*
X173178571Y-76510117D01*
X173178571Y-76510117D02*
X173264286Y-76552974D01*
X173264286Y-76552974D02*
X173307143Y-76595831D01*
X173307143Y-76595831D02*
X173350000Y-76681545D01*
X173350000Y-76681545D02*
X173350000Y-76810117D01*
X173350000Y-76810117D02*
X173307143Y-76895831D01*
X173307143Y-76895831D02*
X173264286Y-76938688D01*
X173264286Y-76938688D02*
X173178571Y-76981545D01*
X173178571Y-76981545D02*
X172835714Y-76981545D01*
X173650000Y-76510117D02*
X174207143Y-76510117D01*
X174207143Y-76510117D02*
X173907143Y-76852974D01*
X173907143Y-76852974D02*
X174035714Y-76852974D01*
X174035714Y-76852974D02*
X174121429Y-76895831D01*
X174121429Y-76895831D02*
X174164286Y-76938688D01*
X174164286Y-76938688D02*
X174207143Y-77024402D01*
X174207143Y-77024402D02*
X174207143Y-77238688D01*
X174207143Y-77238688D02*
X174164286Y-77324402D01*
X174164286Y-77324402D02*
X174121429Y-77367260D01*
X174121429Y-77367260D02*
X174035714Y-77410117D01*
X174035714Y-77410117D02*
X173778571Y-77410117D01*
X173778571Y-77410117D02*
X173692857Y-77367260D01*
X173692857Y-77367260D02*
X173650000Y-77324402D01*
X102821428Y-143010117D02*
X103121428Y-143910117D01*
X103121428Y-143910117D02*
X103421428Y-143010117D01*
X103721428Y-143910117D02*
X103721428Y-143010117D01*
X103721428Y-143010117D02*
X103935714Y-143010117D01*
X103935714Y-143010117D02*
X104064285Y-143052974D01*
X104064285Y-143052974D02*
X104150000Y-143138688D01*
X104150000Y-143138688D02*
X104192857Y-143224402D01*
X104192857Y-143224402D02*
X104235714Y-143395831D01*
X104235714Y-143395831D02*
X104235714Y-143524402D01*
X104235714Y-143524402D02*
X104192857Y-143695831D01*
X104192857Y-143695831D02*
X104150000Y-143781545D01*
X104150000Y-143781545D02*
X104064285Y-143867260D01*
X104064285Y-143867260D02*
X103935714Y-143910117D01*
X103935714Y-143910117D02*
X103721428Y-143910117D01*
X105092857Y-143910117D02*
X104578571Y-143910117D01*
X104835714Y-143910117D02*
X104835714Y-143010117D01*
X104835714Y-143010117D02*
X104750000Y-143138688D01*
X104750000Y-143138688D02*
X104664285Y-143224402D01*
X104664285Y-143224402D02*
X104578571Y-143267260D01*
X123271428Y-143010117D02*
X123271428Y-143652974D01*
X123271428Y-143652974D02*
X123228571Y-143781545D01*
X123228571Y-143781545D02*
X123142857Y-143867260D01*
X123142857Y-143867260D02*
X123014285Y-143910117D01*
X123014285Y-143910117D02*
X122928571Y-143910117D01*
X123657142Y-143095831D02*
X123699999Y-143052974D01*
X123699999Y-143052974D02*
X123785714Y-143010117D01*
X123785714Y-143010117D02*
X123999999Y-143010117D01*
X123999999Y-143010117D02*
X124085714Y-143052974D01*
X124085714Y-143052974D02*
X124128571Y-143095831D01*
X124128571Y-143095831D02*
X124171428Y-143181545D01*
X124171428Y-143181545D02*
X124171428Y-143267260D01*
X124171428Y-143267260D02*
X124128571Y-143395831D01*
X124128571Y-143395831D02*
X123614285Y-143910117D01*
X123614285Y-143910117D02*
X124171428Y-143910117D01*
X124471428Y-143010117D02*
X125071428Y-143010117D01*
X125071428Y-143010117D02*
X124685714Y-143910117D01*
X199350000Y-68410117D02*
X199050000Y-67981545D01*
X198835714Y-68410117D02*
X198835714Y-67510117D01*
X198835714Y-67510117D02*
X199178571Y-67510117D01*
X199178571Y-67510117D02*
X199264286Y-67552974D01*
X199264286Y-67552974D02*
X199307143Y-67595831D01*
X199307143Y-67595831D02*
X199350000Y-67681545D01*
X199350000Y-67681545D02*
X199350000Y-67810117D01*
X199350000Y-67810117D02*
X199307143Y-67895831D01*
X199307143Y-67895831D02*
X199264286Y-67938688D01*
X199264286Y-67938688D02*
X199178571Y-67981545D01*
X199178571Y-67981545D02*
X198835714Y-67981545D01*
X200164286Y-67510117D02*
X199735714Y-67510117D01*
X199735714Y-67510117D02*
X199692857Y-67938688D01*
X199692857Y-67938688D02*
X199735714Y-67895831D01*
X199735714Y-67895831D02*
X199821429Y-67852974D01*
X199821429Y-67852974D02*
X200035714Y-67852974D01*
X200035714Y-67852974D02*
X200121429Y-67895831D01*
X200121429Y-67895831D02*
X200164286Y-67938688D01*
X200164286Y-67938688D02*
X200207143Y-68024402D01*
X200207143Y-68024402D02*
X200207143Y-68238688D01*
X200207143Y-68238688D02*
X200164286Y-68324402D01*
X200164286Y-68324402D02*
X200121429Y-68367260D01*
X200121429Y-68367260D02*
X200035714Y-68410117D01*
X200035714Y-68410117D02*
X199821429Y-68410117D01*
X199821429Y-68410117D02*
X199735714Y-68367260D01*
X199735714Y-68367260D02*
X199692857Y-68324402D01*
X45421428Y-140910117D02*
X45121428Y-140481545D01*
X44907142Y-140910117D02*
X44907142Y-140010117D01*
X44907142Y-140010117D02*
X45249999Y-140010117D01*
X45249999Y-140010117D02*
X45335714Y-140052974D01*
X45335714Y-140052974D02*
X45378571Y-140095831D01*
X45378571Y-140095831D02*
X45421428Y-140181545D01*
X45421428Y-140181545D02*
X45421428Y-140310117D01*
X45421428Y-140310117D02*
X45378571Y-140395831D01*
X45378571Y-140395831D02*
X45335714Y-140438688D01*
X45335714Y-140438688D02*
X45249999Y-140481545D01*
X45249999Y-140481545D02*
X44907142Y-140481545D01*
X46278571Y-140910117D02*
X45764285Y-140910117D01*
X46021428Y-140910117D02*
X46021428Y-140010117D01*
X46021428Y-140010117D02*
X45935714Y-140138688D01*
X45935714Y-140138688D02*
X45849999Y-140224402D01*
X45849999Y-140224402D02*
X45764285Y-140267260D01*
X46835714Y-140010117D02*
X46921428Y-140010117D01*
X46921428Y-140010117D02*
X47007142Y-140052974D01*
X47007142Y-140052974D02*
X47050000Y-140095831D01*
X47050000Y-140095831D02*
X47092857Y-140181545D01*
X47092857Y-140181545D02*
X47135714Y-140352974D01*
X47135714Y-140352974D02*
X47135714Y-140567260D01*
X47135714Y-140567260D02*
X47092857Y-140738688D01*
X47092857Y-140738688D02*
X47050000Y-140824402D01*
X47050000Y-140824402D02*
X47007142Y-140867260D01*
X47007142Y-140867260D02*
X46921428Y-140910117D01*
X46921428Y-140910117D02*
X46835714Y-140910117D01*
X46835714Y-140910117D02*
X46750000Y-140867260D01*
X46750000Y-140867260D02*
X46707142Y-140824402D01*
X46707142Y-140824402D02*
X46664285Y-140738688D01*
X46664285Y-140738688D02*
X46621428Y-140567260D01*
X46621428Y-140567260D02*
X46621428Y-140352974D01*
X46621428Y-140352974D02*
X46664285Y-140181545D01*
X46664285Y-140181545D02*
X46707142Y-140095831D01*
X46707142Y-140095831D02*
X46750000Y-140052974D01*
X46750000Y-140052974D02*
X46835714Y-140010117D01*
X41914285Y-85995831D02*
X41828571Y-85952974D01*
X41828571Y-85952974D02*
X41742857Y-85867260D01*
X41742857Y-85867260D02*
X41614285Y-85738688D01*
X41614285Y-85738688D02*
X41528571Y-85695831D01*
X41528571Y-85695831D02*
X41442857Y-85695831D01*
X41485714Y-85910117D02*
X41400000Y-85867260D01*
X41400000Y-85867260D02*
X41314285Y-85781545D01*
X41314285Y-85781545D02*
X41271428Y-85610117D01*
X41271428Y-85610117D02*
X41271428Y-85310117D01*
X41271428Y-85310117D02*
X41314285Y-85138688D01*
X41314285Y-85138688D02*
X41400000Y-85052974D01*
X41400000Y-85052974D02*
X41485714Y-85010117D01*
X41485714Y-85010117D02*
X41657142Y-85010117D01*
X41657142Y-85010117D02*
X41742857Y-85052974D01*
X41742857Y-85052974D02*
X41828571Y-85138688D01*
X41828571Y-85138688D02*
X41871428Y-85310117D01*
X41871428Y-85310117D02*
X41871428Y-85610117D01*
X41871428Y-85610117D02*
X41828571Y-85781545D01*
X41828571Y-85781545D02*
X41742857Y-85867260D01*
X41742857Y-85867260D02*
X41657142Y-85910117D01*
X41657142Y-85910117D02*
X41485714Y-85910117D01*
X42214285Y-85095831D02*
X42257142Y-85052974D01*
X42257142Y-85052974D02*
X42342857Y-85010117D01*
X42342857Y-85010117D02*
X42557142Y-85010117D01*
X42557142Y-85010117D02*
X42642857Y-85052974D01*
X42642857Y-85052974D02*
X42685714Y-85095831D01*
X42685714Y-85095831D02*
X42728571Y-85181545D01*
X42728571Y-85181545D02*
X42728571Y-85267260D01*
X42728571Y-85267260D02*
X42685714Y-85395831D01*
X42685714Y-85395831D02*
X42171428Y-85910117D01*
X42171428Y-85910117D02*
X42728571Y-85910117D01*
X124421428Y-136824402D02*
X124378571Y-136867260D01*
X124378571Y-136867260D02*
X124249999Y-136910117D01*
X124249999Y-136910117D02*
X124164285Y-136910117D01*
X124164285Y-136910117D02*
X124035714Y-136867260D01*
X124035714Y-136867260D02*
X123949999Y-136781545D01*
X123949999Y-136781545D02*
X123907142Y-136695831D01*
X123907142Y-136695831D02*
X123864285Y-136524402D01*
X123864285Y-136524402D02*
X123864285Y-136395831D01*
X123864285Y-136395831D02*
X123907142Y-136224402D01*
X123907142Y-136224402D02*
X123949999Y-136138688D01*
X123949999Y-136138688D02*
X124035714Y-136052974D01*
X124035714Y-136052974D02*
X124164285Y-136010117D01*
X124164285Y-136010117D02*
X124249999Y-136010117D01*
X124249999Y-136010117D02*
X124378571Y-136052974D01*
X124378571Y-136052974D02*
X124421428Y-136095831D01*
X125278571Y-136910117D02*
X124764285Y-136910117D01*
X125021428Y-136910117D02*
X125021428Y-136010117D01*
X125021428Y-136010117D02*
X124935714Y-136138688D01*
X124935714Y-136138688D02*
X124849999Y-136224402D01*
X124849999Y-136224402D02*
X124764285Y-136267260D01*
X125578571Y-136010117D02*
X126135714Y-136010117D01*
X126135714Y-136010117D02*
X125835714Y-136352974D01*
X125835714Y-136352974D02*
X125964285Y-136352974D01*
X125964285Y-136352974D02*
X126050000Y-136395831D01*
X126050000Y-136395831D02*
X126092857Y-136438688D01*
X126092857Y-136438688D02*
X126135714Y-136524402D01*
X126135714Y-136524402D02*
X126135714Y-136738688D01*
X126135714Y-136738688D02*
X126092857Y-136824402D01*
X126092857Y-136824402D02*
X126050000Y-136867260D01*
X126050000Y-136867260D02*
X125964285Y-136910117D01*
X125964285Y-136910117D02*
X125707142Y-136910117D01*
X125707142Y-136910117D02*
X125621428Y-136867260D01*
X125621428Y-136867260D02*
X125578571Y-136824402D01*
X90921428Y-56410117D02*
X90621428Y-55981545D01*
X90407142Y-56410117D02*
X90407142Y-55510117D01*
X90407142Y-55510117D02*
X90749999Y-55510117D01*
X90749999Y-55510117D02*
X90835714Y-55552974D01*
X90835714Y-55552974D02*
X90878571Y-55595831D01*
X90878571Y-55595831D02*
X90921428Y-55681545D01*
X90921428Y-55681545D02*
X90921428Y-55810117D01*
X90921428Y-55810117D02*
X90878571Y-55895831D01*
X90878571Y-55895831D02*
X90835714Y-55938688D01*
X90835714Y-55938688D02*
X90749999Y-55981545D01*
X90749999Y-55981545D02*
X90407142Y-55981545D01*
X91778571Y-56410117D02*
X91264285Y-56410117D01*
X91521428Y-56410117D02*
X91521428Y-55510117D01*
X91521428Y-55510117D02*
X91435714Y-55638688D01*
X91435714Y-55638688D02*
X91349999Y-55724402D01*
X91349999Y-55724402D02*
X91264285Y-55767260D01*
X92550000Y-55510117D02*
X92378571Y-55510117D01*
X92378571Y-55510117D02*
X92292857Y-55552974D01*
X92292857Y-55552974D02*
X92250000Y-55595831D01*
X92250000Y-55595831D02*
X92164285Y-55724402D01*
X92164285Y-55724402D02*
X92121428Y-55895831D01*
X92121428Y-55895831D02*
X92121428Y-56238688D01*
X92121428Y-56238688D02*
X92164285Y-56324402D01*
X92164285Y-56324402D02*
X92207142Y-56367260D01*
X92207142Y-56367260D02*
X92292857Y-56410117D01*
X92292857Y-56410117D02*
X92464285Y-56410117D01*
X92464285Y-56410117D02*
X92550000Y-56367260D01*
X92550000Y-56367260D02*
X92592857Y-56324402D01*
X92592857Y-56324402D02*
X92635714Y-56238688D01*
X92635714Y-56238688D02*
X92635714Y-56024402D01*
X92635714Y-56024402D02*
X92592857Y-55938688D01*
X92592857Y-55938688D02*
X92550000Y-55895831D01*
X92550000Y-55895831D02*
X92464285Y-55852974D01*
X92464285Y-55852974D02*
X92292857Y-55852974D01*
X92292857Y-55852974D02*
X92207142Y-55895831D01*
X92207142Y-55895831D02*
X92164285Y-55938688D01*
X92164285Y-55938688D02*
X92121428Y-56024402D01*
X170850000Y-48824402D02*
X170807143Y-48867260D01*
X170807143Y-48867260D02*
X170678571Y-48910117D01*
X170678571Y-48910117D02*
X170592857Y-48910117D01*
X170592857Y-48910117D02*
X170464286Y-48867260D01*
X170464286Y-48867260D02*
X170378571Y-48781545D01*
X170378571Y-48781545D02*
X170335714Y-48695831D01*
X170335714Y-48695831D02*
X170292857Y-48524402D01*
X170292857Y-48524402D02*
X170292857Y-48395831D01*
X170292857Y-48395831D02*
X170335714Y-48224402D01*
X170335714Y-48224402D02*
X170378571Y-48138688D01*
X170378571Y-48138688D02*
X170464286Y-48052974D01*
X170464286Y-48052974D02*
X170592857Y-48010117D01*
X170592857Y-48010117D02*
X170678571Y-48010117D01*
X170678571Y-48010117D02*
X170807143Y-48052974D01*
X170807143Y-48052974D02*
X170850000Y-48095831D01*
X171621429Y-48310117D02*
X171621429Y-48910117D01*
X171407143Y-47967260D02*
X171192857Y-48610117D01*
X171192857Y-48610117D02*
X171750000Y-48610117D01*
X187350000Y-76410117D02*
X187050000Y-75981545D01*
X186835714Y-76410117D02*
X186835714Y-75510117D01*
X186835714Y-75510117D02*
X187178571Y-75510117D01*
X187178571Y-75510117D02*
X187264286Y-75552974D01*
X187264286Y-75552974D02*
X187307143Y-75595831D01*
X187307143Y-75595831D02*
X187350000Y-75681545D01*
X187350000Y-75681545D02*
X187350000Y-75810117D01*
X187350000Y-75810117D02*
X187307143Y-75895831D01*
X187307143Y-75895831D02*
X187264286Y-75938688D01*
X187264286Y-75938688D02*
X187178571Y-75981545D01*
X187178571Y-75981545D02*
X186835714Y-75981545D01*
X187778571Y-76410117D02*
X187950000Y-76410117D01*
X187950000Y-76410117D02*
X188035714Y-76367260D01*
X188035714Y-76367260D02*
X188078571Y-76324402D01*
X188078571Y-76324402D02*
X188164286Y-76195831D01*
X188164286Y-76195831D02*
X188207143Y-76024402D01*
X188207143Y-76024402D02*
X188207143Y-75681545D01*
X188207143Y-75681545D02*
X188164286Y-75595831D01*
X188164286Y-75595831D02*
X188121429Y-75552974D01*
X188121429Y-75552974D02*
X188035714Y-75510117D01*
X188035714Y-75510117D02*
X187864286Y-75510117D01*
X187864286Y-75510117D02*
X187778571Y-75552974D01*
X187778571Y-75552974D02*
X187735714Y-75595831D01*
X187735714Y-75595831D02*
X187692857Y-75681545D01*
X187692857Y-75681545D02*
X187692857Y-75895831D01*
X187692857Y-75895831D02*
X187735714Y-75981545D01*
X187735714Y-75981545D02*
X187778571Y-76024402D01*
X187778571Y-76024402D02*
X187864286Y-76067260D01*
X187864286Y-76067260D02*
X188035714Y-76067260D01*
X188035714Y-76067260D02*
X188121429Y-76024402D01*
X188121429Y-76024402D02*
X188164286Y-75981545D01*
X188164286Y-75981545D02*
X188207143Y-75895831D01*
X52421428Y-80470117D02*
X52121428Y-80041545D01*
X51907142Y-80470117D02*
X51907142Y-79570117D01*
X51907142Y-79570117D02*
X52249999Y-79570117D01*
X52249999Y-79570117D02*
X52335714Y-79612974D01*
X52335714Y-79612974D02*
X52378571Y-79655831D01*
X52378571Y-79655831D02*
X52421428Y-79741545D01*
X52421428Y-79741545D02*
X52421428Y-79870117D01*
X52421428Y-79870117D02*
X52378571Y-79955831D01*
X52378571Y-79955831D02*
X52335714Y-79998688D01*
X52335714Y-79998688D02*
X52249999Y-80041545D01*
X52249999Y-80041545D02*
X51907142Y-80041545D01*
X53278571Y-80470117D02*
X52764285Y-80470117D01*
X53021428Y-80470117D02*
X53021428Y-79570117D01*
X53021428Y-79570117D02*
X52935714Y-79698688D01*
X52935714Y-79698688D02*
X52849999Y-79784402D01*
X52849999Y-79784402D02*
X52764285Y-79827260D01*
X54050000Y-79870117D02*
X54050000Y-80470117D01*
X53835714Y-79527260D02*
X53621428Y-80170117D01*
X53621428Y-80170117D02*
X54178571Y-80170117D01*
X69271428Y-99010117D02*
X69271428Y-99652974D01*
X69271428Y-99652974D02*
X69228571Y-99781545D01*
X69228571Y-99781545D02*
X69142857Y-99867260D01*
X69142857Y-99867260D02*
X69014285Y-99910117D01*
X69014285Y-99910117D02*
X68928571Y-99910117D01*
X70171428Y-99910117D02*
X69657142Y-99910117D01*
X69914285Y-99910117D02*
X69914285Y-99010117D01*
X69914285Y-99010117D02*
X69828571Y-99138688D01*
X69828571Y-99138688D02*
X69742856Y-99224402D01*
X69742856Y-99224402D02*
X69657142Y-99267260D01*
X70514285Y-99095831D02*
X70557142Y-99052974D01*
X70557142Y-99052974D02*
X70642857Y-99010117D01*
X70642857Y-99010117D02*
X70857142Y-99010117D01*
X70857142Y-99010117D02*
X70942857Y-99052974D01*
X70942857Y-99052974D02*
X70985714Y-99095831D01*
X70985714Y-99095831D02*
X71028571Y-99181545D01*
X71028571Y-99181545D02*
X71028571Y-99267260D01*
X71028571Y-99267260D02*
X70985714Y-99395831D01*
X70985714Y-99395831D02*
X70471428Y-99910117D01*
X70471428Y-99910117D02*
X71028571Y-99910117D01*
X91700000Y-72010117D02*
X91700000Y-72652974D01*
X91700000Y-72652974D02*
X91657143Y-72781545D01*
X91657143Y-72781545D02*
X91571429Y-72867260D01*
X91571429Y-72867260D02*
X91442857Y-72910117D01*
X91442857Y-72910117D02*
X91357143Y-72910117D01*
X92171428Y-72910117D02*
X92342857Y-72910117D01*
X92342857Y-72910117D02*
X92428571Y-72867260D01*
X92428571Y-72867260D02*
X92471428Y-72824402D01*
X92471428Y-72824402D02*
X92557143Y-72695831D01*
X92557143Y-72695831D02*
X92600000Y-72524402D01*
X92600000Y-72524402D02*
X92600000Y-72181545D01*
X92600000Y-72181545D02*
X92557143Y-72095831D01*
X92557143Y-72095831D02*
X92514286Y-72052974D01*
X92514286Y-72052974D02*
X92428571Y-72010117D01*
X92428571Y-72010117D02*
X92257143Y-72010117D01*
X92257143Y-72010117D02*
X92171428Y-72052974D01*
X92171428Y-72052974D02*
X92128571Y-72095831D01*
X92128571Y-72095831D02*
X92085714Y-72181545D01*
X92085714Y-72181545D02*
X92085714Y-72395831D01*
X92085714Y-72395831D02*
X92128571Y-72481545D01*
X92128571Y-72481545D02*
X92171428Y-72524402D01*
X92171428Y-72524402D02*
X92257143Y-72567260D01*
X92257143Y-72567260D02*
X92428571Y-72567260D01*
X92428571Y-72567260D02*
X92514286Y-72524402D01*
X92514286Y-72524402D02*
X92557143Y-72481545D01*
X92557143Y-72481545D02*
X92600000Y-72395831D01*
X165350000Y-77410117D02*
X165050000Y-76981545D01*
X164835714Y-77410117D02*
X164835714Y-76510117D01*
X164835714Y-76510117D02*
X165178571Y-76510117D01*
X165178571Y-76510117D02*
X165264286Y-76552974D01*
X165264286Y-76552974D02*
X165307143Y-76595831D01*
X165307143Y-76595831D02*
X165350000Y-76681545D01*
X165350000Y-76681545D02*
X165350000Y-76810117D01*
X165350000Y-76810117D02*
X165307143Y-76895831D01*
X165307143Y-76895831D02*
X165264286Y-76938688D01*
X165264286Y-76938688D02*
X165178571Y-76981545D01*
X165178571Y-76981545D02*
X164835714Y-76981545D01*
X166207143Y-77410117D02*
X165692857Y-77410117D01*
X165950000Y-77410117D02*
X165950000Y-76510117D01*
X165950000Y-76510117D02*
X165864286Y-76638688D01*
X165864286Y-76638688D02*
X165778571Y-76724402D01*
X165778571Y-76724402D02*
X165692857Y-76767260D01*
X97271428Y-153510117D02*
X97871428Y-154410117D01*
X97871428Y-153510117D02*
X97271428Y-154410117D01*
X98600000Y-153510117D02*
X98428571Y-153510117D01*
X98428571Y-153510117D02*
X98342857Y-153552974D01*
X98342857Y-153552974D02*
X98300000Y-153595831D01*
X98300000Y-153595831D02*
X98214285Y-153724402D01*
X98214285Y-153724402D02*
X98171428Y-153895831D01*
X98171428Y-153895831D02*
X98171428Y-154238688D01*
X98171428Y-154238688D02*
X98214285Y-154324402D01*
X98214285Y-154324402D02*
X98257142Y-154367260D01*
X98257142Y-154367260D02*
X98342857Y-154410117D01*
X98342857Y-154410117D02*
X98514285Y-154410117D01*
X98514285Y-154410117D02*
X98600000Y-154367260D01*
X98600000Y-154367260D02*
X98642857Y-154324402D01*
X98642857Y-154324402D02*
X98685714Y-154238688D01*
X98685714Y-154238688D02*
X98685714Y-154024402D01*
X98685714Y-154024402D02*
X98642857Y-153938688D01*
X98642857Y-153938688D02*
X98600000Y-153895831D01*
X98600000Y-153895831D02*
X98514285Y-153852974D01*
X98514285Y-153852974D02*
X98342857Y-153852974D01*
X98342857Y-153852974D02*
X98257142Y-153895831D01*
X98257142Y-153895831D02*
X98214285Y-153938688D01*
X98214285Y-153938688D02*
X98171428Y-154024402D01*
X160271428Y-91510117D02*
X160871428Y-92410117D01*
X160871428Y-91510117D02*
X160271428Y-92410117D01*
X161342857Y-91895831D02*
X161257142Y-91852974D01*
X161257142Y-91852974D02*
X161214285Y-91810117D01*
X161214285Y-91810117D02*
X161171428Y-91724402D01*
X161171428Y-91724402D02*
X161171428Y-91681545D01*
X161171428Y-91681545D02*
X161214285Y-91595831D01*
X161214285Y-91595831D02*
X161257142Y-91552974D01*
X161257142Y-91552974D02*
X161342857Y-91510117D01*
X161342857Y-91510117D02*
X161514285Y-91510117D01*
X161514285Y-91510117D02*
X161600000Y-91552974D01*
X161600000Y-91552974D02*
X161642857Y-91595831D01*
X161642857Y-91595831D02*
X161685714Y-91681545D01*
X161685714Y-91681545D02*
X161685714Y-91724402D01*
X161685714Y-91724402D02*
X161642857Y-91810117D01*
X161642857Y-91810117D02*
X161600000Y-91852974D01*
X161600000Y-91852974D02*
X161514285Y-91895831D01*
X161514285Y-91895831D02*
X161342857Y-91895831D01*
X161342857Y-91895831D02*
X161257142Y-91938688D01*
X161257142Y-91938688D02*
X161214285Y-91981545D01*
X161214285Y-91981545D02*
X161171428Y-92067260D01*
X161171428Y-92067260D02*
X161171428Y-92238688D01*
X161171428Y-92238688D02*
X161214285Y-92324402D01*
X161214285Y-92324402D02*
X161257142Y-92367260D01*
X161257142Y-92367260D02*
X161342857Y-92410117D01*
X161342857Y-92410117D02*
X161514285Y-92410117D01*
X161514285Y-92410117D02*
X161600000Y-92367260D01*
X161600000Y-92367260D02*
X161642857Y-92324402D01*
X161642857Y-92324402D02*
X161685714Y-92238688D01*
X161685714Y-92238688D02*
X161685714Y-92067260D01*
X161685714Y-92067260D02*
X161642857Y-91981545D01*
X161642857Y-91981545D02*
X161600000Y-91938688D01*
X161600000Y-91938688D02*
X161514285Y-91895831D01*
X51821428Y-70410117D02*
X51521428Y-69981545D01*
X51307142Y-70410117D02*
X51307142Y-69510117D01*
X51307142Y-69510117D02*
X51649999Y-69510117D01*
X51649999Y-69510117D02*
X51735714Y-69552974D01*
X51735714Y-69552974D02*
X51778571Y-69595831D01*
X51778571Y-69595831D02*
X51821428Y-69681545D01*
X51821428Y-69681545D02*
X51821428Y-69810117D01*
X51821428Y-69810117D02*
X51778571Y-69895831D01*
X51778571Y-69895831D02*
X51735714Y-69938688D01*
X51735714Y-69938688D02*
X51649999Y-69981545D01*
X51649999Y-69981545D02*
X51307142Y-69981545D01*
X52678571Y-70410117D02*
X52164285Y-70410117D01*
X52421428Y-70410117D02*
X52421428Y-69510117D01*
X52421428Y-69510117D02*
X52335714Y-69638688D01*
X52335714Y-69638688D02*
X52249999Y-69724402D01*
X52249999Y-69724402D02*
X52164285Y-69767260D01*
X52978571Y-69510117D02*
X53535714Y-69510117D01*
X53535714Y-69510117D02*
X53235714Y-69852974D01*
X53235714Y-69852974D02*
X53364285Y-69852974D01*
X53364285Y-69852974D02*
X53450000Y-69895831D01*
X53450000Y-69895831D02*
X53492857Y-69938688D01*
X53492857Y-69938688D02*
X53535714Y-70024402D01*
X53535714Y-70024402D02*
X53535714Y-70238688D01*
X53535714Y-70238688D02*
X53492857Y-70324402D01*
X53492857Y-70324402D02*
X53450000Y-70367260D01*
X53450000Y-70367260D02*
X53364285Y-70410117D01*
X53364285Y-70410117D02*
X53107142Y-70410117D01*
X53107142Y-70410117D02*
X53021428Y-70367260D01*
X53021428Y-70367260D02*
X52978571Y-70324402D01*
X52914285Y-134995831D02*
X52828571Y-134952974D01*
X52828571Y-134952974D02*
X52742857Y-134867260D01*
X52742857Y-134867260D02*
X52614285Y-134738688D01*
X52614285Y-134738688D02*
X52528571Y-134695831D01*
X52528571Y-134695831D02*
X52442857Y-134695831D01*
X52485714Y-134910117D02*
X52400000Y-134867260D01*
X52400000Y-134867260D02*
X52314285Y-134781545D01*
X52314285Y-134781545D02*
X52271428Y-134610117D01*
X52271428Y-134610117D02*
X52271428Y-134310117D01*
X52271428Y-134310117D02*
X52314285Y-134138688D01*
X52314285Y-134138688D02*
X52400000Y-134052974D01*
X52400000Y-134052974D02*
X52485714Y-134010117D01*
X52485714Y-134010117D02*
X52657142Y-134010117D01*
X52657142Y-134010117D02*
X52742857Y-134052974D01*
X52742857Y-134052974D02*
X52828571Y-134138688D01*
X52828571Y-134138688D02*
X52871428Y-134310117D01*
X52871428Y-134310117D02*
X52871428Y-134610117D01*
X52871428Y-134610117D02*
X52828571Y-134781545D01*
X52828571Y-134781545D02*
X52742857Y-134867260D01*
X52742857Y-134867260D02*
X52657142Y-134910117D01*
X52657142Y-134910117D02*
X52485714Y-134910117D01*
X53171428Y-134010117D02*
X53728571Y-134010117D01*
X53728571Y-134010117D02*
X53428571Y-134352974D01*
X53428571Y-134352974D02*
X53557142Y-134352974D01*
X53557142Y-134352974D02*
X53642857Y-134395831D01*
X53642857Y-134395831D02*
X53685714Y-134438688D01*
X53685714Y-134438688D02*
X53728571Y-134524402D01*
X53728571Y-134524402D02*
X53728571Y-134738688D01*
X53728571Y-134738688D02*
X53685714Y-134824402D01*
X53685714Y-134824402D02*
X53642857Y-134867260D01*
X53642857Y-134867260D02*
X53557142Y-134910117D01*
X53557142Y-134910117D02*
X53299999Y-134910117D01*
X53299999Y-134910117D02*
X53214285Y-134867260D01*
X53214285Y-134867260D02*
X53171428Y-134824402D01*
X97271428Y-129510117D02*
X97871428Y-130410117D01*
X97871428Y-129510117D02*
X97271428Y-130410117D01*
X98685714Y-130410117D02*
X98171428Y-130410117D01*
X98428571Y-130410117D02*
X98428571Y-129510117D01*
X98428571Y-129510117D02*
X98342857Y-129638688D01*
X98342857Y-129638688D02*
X98257142Y-129724402D01*
X98257142Y-129724402D02*
X98171428Y-129767260D01*
X157350000Y-76410117D02*
X157050000Y-75981545D01*
X156835714Y-76410117D02*
X156835714Y-75510117D01*
X156835714Y-75510117D02*
X157178571Y-75510117D01*
X157178571Y-75510117D02*
X157264286Y-75552974D01*
X157264286Y-75552974D02*
X157307143Y-75595831D01*
X157307143Y-75595831D02*
X157350000Y-75681545D01*
X157350000Y-75681545D02*
X157350000Y-75810117D01*
X157350000Y-75810117D02*
X157307143Y-75895831D01*
X157307143Y-75895831D02*
X157264286Y-75938688D01*
X157264286Y-75938688D02*
X157178571Y-75981545D01*
X157178571Y-75981545D02*
X156835714Y-75981545D01*
X157864286Y-75895831D02*
X157778571Y-75852974D01*
X157778571Y-75852974D02*
X157735714Y-75810117D01*
X157735714Y-75810117D02*
X157692857Y-75724402D01*
X157692857Y-75724402D02*
X157692857Y-75681545D01*
X157692857Y-75681545D02*
X157735714Y-75595831D01*
X157735714Y-75595831D02*
X157778571Y-75552974D01*
X157778571Y-75552974D02*
X157864286Y-75510117D01*
X157864286Y-75510117D02*
X158035714Y-75510117D01*
X158035714Y-75510117D02*
X158121429Y-75552974D01*
X158121429Y-75552974D02*
X158164286Y-75595831D01*
X158164286Y-75595831D02*
X158207143Y-75681545D01*
X158207143Y-75681545D02*
X158207143Y-75724402D01*
X158207143Y-75724402D02*
X158164286Y-75810117D01*
X158164286Y-75810117D02*
X158121429Y-75852974D01*
X158121429Y-75852974D02*
X158035714Y-75895831D01*
X158035714Y-75895831D02*
X157864286Y-75895831D01*
X157864286Y-75895831D02*
X157778571Y-75938688D01*
X157778571Y-75938688D02*
X157735714Y-75981545D01*
X157735714Y-75981545D02*
X157692857Y-76067260D01*
X157692857Y-76067260D02*
X157692857Y-76238688D01*
X157692857Y-76238688D02*
X157735714Y-76324402D01*
X157735714Y-76324402D02*
X157778571Y-76367260D01*
X157778571Y-76367260D02*
X157864286Y-76410117D01*
X157864286Y-76410117D02*
X158035714Y-76410117D01*
X158035714Y-76410117D02*
X158121429Y-76367260D01*
X158121429Y-76367260D02*
X158164286Y-76324402D01*
X158164286Y-76324402D02*
X158207143Y-76238688D01*
X158207143Y-76238688D02*
X158207143Y-76067260D01*
X158207143Y-76067260D02*
X158164286Y-75981545D01*
X158164286Y-75981545D02*
X158121429Y-75938688D01*
X158121429Y-75938688D02*
X158035714Y-75895831D01*
X132271428Y-129510117D02*
X132871428Y-130410117D01*
X132871428Y-129510117D02*
X132271428Y-130410117D01*
X133128571Y-129510117D02*
X133685714Y-129510117D01*
X133685714Y-129510117D02*
X133385714Y-129852974D01*
X133385714Y-129852974D02*
X133514285Y-129852974D01*
X133514285Y-129852974D02*
X133600000Y-129895831D01*
X133600000Y-129895831D02*
X133642857Y-129938688D01*
X133642857Y-129938688D02*
X133685714Y-130024402D01*
X133685714Y-130024402D02*
X133685714Y-130238688D01*
X133685714Y-130238688D02*
X133642857Y-130324402D01*
X133642857Y-130324402D02*
X133600000Y-130367260D01*
X133600000Y-130367260D02*
X133514285Y-130410117D01*
X133514285Y-130410117D02*
X133257142Y-130410117D01*
X133257142Y-130410117D02*
X133171428Y-130367260D01*
X133171428Y-130367260D02*
X133128571Y-130324402D01*
X154700000Y-84010117D02*
X154700000Y-84652974D01*
X154700000Y-84652974D02*
X154657143Y-84781545D01*
X154657143Y-84781545D02*
X154571429Y-84867260D01*
X154571429Y-84867260D02*
X154442857Y-84910117D01*
X154442857Y-84910117D02*
X154357143Y-84910117D01*
X155514286Y-84310117D02*
X155514286Y-84910117D01*
X155300000Y-83967260D02*
X155085714Y-84610117D01*
X155085714Y-84610117D02*
X155642857Y-84610117D01*
X42160000Y-63510117D02*
X42160000Y-64152974D01*
X42160000Y-64152974D02*
X42117143Y-64281545D01*
X42117143Y-64281545D02*
X42031429Y-64367260D01*
X42031429Y-64367260D02*
X41902857Y-64410117D01*
X41902857Y-64410117D02*
X41817143Y-64410117D01*
X42502857Y-63510117D02*
X43102857Y-63510117D01*
X43102857Y-63510117D02*
X42717143Y-64410117D01*
X104271428Y-41510117D02*
X104271428Y-42152974D01*
X104271428Y-42152974D02*
X104228571Y-42281545D01*
X104228571Y-42281545D02*
X104142857Y-42367260D01*
X104142857Y-42367260D02*
X104014285Y-42410117D01*
X104014285Y-42410117D02*
X103928571Y-42410117D01*
X104657142Y-41595831D02*
X104699999Y-41552974D01*
X104699999Y-41552974D02*
X104785714Y-41510117D01*
X104785714Y-41510117D02*
X104999999Y-41510117D01*
X104999999Y-41510117D02*
X105085714Y-41552974D01*
X105085714Y-41552974D02*
X105128571Y-41595831D01*
X105128571Y-41595831D02*
X105171428Y-41681545D01*
X105171428Y-41681545D02*
X105171428Y-41767260D01*
X105171428Y-41767260D02*
X105128571Y-41895831D01*
X105128571Y-41895831D02*
X104614285Y-42410117D01*
X104614285Y-42410117D02*
X105171428Y-42410117D01*
X106028571Y-42410117D02*
X105514285Y-42410117D01*
X105771428Y-42410117D02*
X105771428Y-41510117D01*
X105771428Y-41510117D02*
X105685714Y-41638688D01*
X105685714Y-41638688D02*
X105599999Y-41724402D01*
X105599999Y-41724402D02*
X105514285Y-41767260D01*
X127271428Y-161010117D02*
X127271428Y-161652974D01*
X127271428Y-161652974D02*
X127228571Y-161781545D01*
X127228571Y-161781545D02*
X127142857Y-161867260D01*
X127142857Y-161867260D02*
X127014285Y-161910117D01*
X127014285Y-161910117D02*
X126928571Y-161910117D01*
X127657142Y-161095831D02*
X127699999Y-161052974D01*
X127699999Y-161052974D02*
X127785714Y-161010117D01*
X127785714Y-161010117D02*
X127999999Y-161010117D01*
X127999999Y-161010117D02*
X128085714Y-161052974D01*
X128085714Y-161052974D02*
X128128571Y-161095831D01*
X128128571Y-161095831D02*
X128171428Y-161181545D01*
X128171428Y-161181545D02*
X128171428Y-161267260D01*
X128171428Y-161267260D02*
X128128571Y-161395831D01*
X128128571Y-161395831D02*
X127614285Y-161910117D01*
X127614285Y-161910117D02*
X128171428Y-161910117D01*
X128599999Y-161910117D02*
X128771428Y-161910117D01*
X128771428Y-161910117D02*
X128857142Y-161867260D01*
X128857142Y-161867260D02*
X128899999Y-161824402D01*
X128899999Y-161824402D02*
X128985714Y-161695831D01*
X128985714Y-161695831D02*
X129028571Y-161524402D01*
X129028571Y-161524402D02*
X129028571Y-161181545D01*
X129028571Y-161181545D02*
X128985714Y-161095831D01*
X128985714Y-161095831D02*
X128942857Y-161052974D01*
X128942857Y-161052974D02*
X128857142Y-161010117D01*
X128857142Y-161010117D02*
X128685714Y-161010117D01*
X128685714Y-161010117D02*
X128599999Y-161052974D01*
X128599999Y-161052974D02*
X128557142Y-161095831D01*
X128557142Y-161095831D02*
X128514285Y-161181545D01*
X128514285Y-161181545D02*
X128514285Y-161395831D01*
X128514285Y-161395831D02*
X128557142Y-161481545D01*
X128557142Y-161481545D02*
X128599999Y-161524402D01*
X128599999Y-161524402D02*
X128685714Y-161567260D01*
X128685714Y-161567260D02*
X128857142Y-161567260D01*
X128857142Y-161567260D02*
X128942857Y-161524402D01*
X128942857Y-161524402D02*
X128985714Y-161481545D01*
X128985714Y-161481545D02*
X129028571Y-161395831D01*
X123271428Y-149010117D02*
X123271428Y-149652974D01*
X123271428Y-149652974D02*
X123228571Y-149781545D01*
X123228571Y-149781545D02*
X123142857Y-149867260D01*
X123142857Y-149867260D02*
X123014285Y-149910117D01*
X123014285Y-149910117D02*
X122928571Y-149910117D01*
X123614285Y-149010117D02*
X124171428Y-149010117D01*
X124171428Y-149010117D02*
X123871428Y-149352974D01*
X123871428Y-149352974D02*
X123999999Y-149352974D01*
X123999999Y-149352974D02*
X124085714Y-149395831D01*
X124085714Y-149395831D02*
X124128571Y-149438688D01*
X124128571Y-149438688D02*
X124171428Y-149524402D01*
X124171428Y-149524402D02*
X124171428Y-149738688D01*
X124171428Y-149738688D02*
X124128571Y-149824402D01*
X124128571Y-149824402D02*
X124085714Y-149867260D01*
X124085714Y-149867260D02*
X123999999Y-149910117D01*
X123999999Y-149910117D02*
X123742856Y-149910117D01*
X123742856Y-149910117D02*
X123657142Y-149867260D01*
X123657142Y-149867260D02*
X123614285Y-149824402D01*
X125028571Y-149910117D02*
X124514285Y-149910117D01*
X124771428Y-149910117D02*
X124771428Y-149010117D01*
X124771428Y-149010117D02*
X124685714Y-149138688D01*
X124685714Y-149138688D02*
X124599999Y-149224402D01*
X124599999Y-149224402D02*
X124514285Y-149267260D01*
X191850000Y-57824402D02*
X191807143Y-57867260D01*
X191807143Y-57867260D02*
X191678571Y-57910117D01*
X191678571Y-57910117D02*
X191592857Y-57910117D01*
X191592857Y-57910117D02*
X191464286Y-57867260D01*
X191464286Y-57867260D02*
X191378571Y-57781545D01*
X191378571Y-57781545D02*
X191335714Y-57695831D01*
X191335714Y-57695831D02*
X191292857Y-57524402D01*
X191292857Y-57524402D02*
X191292857Y-57395831D01*
X191292857Y-57395831D02*
X191335714Y-57224402D01*
X191335714Y-57224402D02*
X191378571Y-57138688D01*
X191378571Y-57138688D02*
X191464286Y-57052974D01*
X191464286Y-57052974D02*
X191592857Y-57010117D01*
X191592857Y-57010117D02*
X191678571Y-57010117D01*
X191678571Y-57010117D02*
X191807143Y-57052974D01*
X191807143Y-57052974D02*
X191850000Y-57095831D01*
X192278571Y-57910117D02*
X192450000Y-57910117D01*
X192450000Y-57910117D02*
X192535714Y-57867260D01*
X192535714Y-57867260D02*
X192578571Y-57824402D01*
X192578571Y-57824402D02*
X192664286Y-57695831D01*
X192664286Y-57695831D02*
X192707143Y-57524402D01*
X192707143Y-57524402D02*
X192707143Y-57181545D01*
X192707143Y-57181545D02*
X192664286Y-57095831D01*
X192664286Y-57095831D02*
X192621429Y-57052974D01*
X192621429Y-57052974D02*
X192535714Y-57010117D01*
X192535714Y-57010117D02*
X192364286Y-57010117D01*
X192364286Y-57010117D02*
X192278571Y-57052974D01*
X192278571Y-57052974D02*
X192235714Y-57095831D01*
X192235714Y-57095831D02*
X192192857Y-57181545D01*
X192192857Y-57181545D02*
X192192857Y-57395831D01*
X192192857Y-57395831D02*
X192235714Y-57481545D01*
X192235714Y-57481545D02*
X192278571Y-57524402D01*
X192278571Y-57524402D02*
X192364286Y-57567260D01*
X192364286Y-57567260D02*
X192535714Y-57567260D01*
X192535714Y-57567260D02*
X192621429Y-57524402D01*
X192621429Y-57524402D02*
X192664286Y-57481545D01*
X192664286Y-57481545D02*
X192707143Y-57395831D01*
X57700000Y-39010117D02*
X57700000Y-39652974D01*
X57700000Y-39652974D02*
X57657143Y-39781545D01*
X57657143Y-39781545D02*
X57571429Y-39867260D01*
X57571429Y-39867260D02*
X57442857Y-39910117D01*
X57442857Y-39910117D02*
X57357143Y-39910117D01*
X58600000Y-39910117D02*
X58085714Y-39910117D01*
X58342857Y-39910117D02*
X58342857Y-39010117D01*
X58342857Y-39010117D02*
X58257143Y-39138688D01*
X58257143Y-39138688D02*
X58171428Y-39224402D01*
X58171428Y-39224402D02*
X58085714Y-39267260D01*
X42160000Y-60510117D02*
X42160000Y-61152974D01*
X42160000Y-61152974D02*
X42117143Y-61281545D01*
X42117143Y-61281545D02*
X42031429Y-61367260D01*
X42031429Y-61367260D02*
X41902857Y-61410117D01*
X41902857Y-61410117D02*
X41817143Y-61410117D01*
X42974286Y-60510117D02*
X42802857Y-60510117D01*
X42802857Y-60510117D02*
X42717143Y-60552974D01*
X42717143Y-60552974D02*
X42674286Y-60595831D01*
X42674286Y-60595831D02*
X42588571Y-60724402D01*
X42588571Y-60724402D02*
X42545714Y-60895831D01*
X42545714Y-60895831D02*
X42545714Y-61238688D01*
X42545714Y-61238688D02*
X42588571Y-61324402D01*
X42588571Y-61324402D02*
X42631428Y-61367260D01*
X42631428Y-61367260D02*
X42717143Y-61410117D01*
X42717143Y-61410117D02*
X42888571Y-61410117D01*
X42888571Y-61410117D02*
X42974286Y-61367260D01*
X42974286Y-61367260D02*
X43017143Y-61324402D01*
X43017143Y-61324402D02*
X43060000Y-61238688D01*
X43060000Y-61238688D02*
X43060000Y-61024402D01*
X43060000Y-61024402D02*
X43017143Y-60938688D01*
X43017143Y-60938688D02*
X42974286Y-60895831D01*
X42974286Y-60895831D02*
X42888571Y-60852974D01*
X42888571Y-60852974D02*
X42717143Y-60852974D01*
X42717143Y-60852974D02*
X42631428Y-60895831D01*
X42631428Y-60895831D02*
X42588571Y-60938688D01*
X42588571Y-60938688D02*
X42545714Y-61024402D01*
X67271428Y-134510117D02*
X67271428Y-135152974D01*
X67271428Y-135152974D02*
X67228571Y-135281545D01*
X67228571Y-135281545D02*
X67142857Y-135367260D01*
X67142857Y-135367260D02*
X67014285Y-135410117D01*
X67014285Y-135410117D02*
X66928571Y-135410117D01*
X67657142Y-134595831D02*
X67699999Y-134552974D01*
X67699999Y-134552974D02*
X67785714Y-134510117D01*
X67785714Y-134510117D02*
X67999999Y-134510117D01*
X67999999Y-134510117D02*
X68085714Y-134552974D01*
X68085714Y-134552974D02*
X68128571Y-134595831D01*
X68128571Y-134595831D02*
X68171428Y-134681545D01*
X68171428Y-134681545D02*
X68171428Y-134767260D01*
X68171428Y-134767260D02*
X68128571Y-134895831D01*
X68128571Y-134895831D02*
X67614285Y-135410117D01*
X67614285Y-135410117D02*
X68171428Y-135410117D01*
X68942857Y-134810117D02*
X68942857Y-135410117D01*
X68728571Y-134467260D02*
X68514285Y-135110117D01*
X68514285Y-135110117D02*
X69071428Y-135110117D01*
X135200000Y-156510117D02*
X135200000Y-157152974D01*
X135200000Y-157152974D02*
X135157143Y-157281545D01*
X135157143Y-157281545D02*
X135071429Y-157367260D01*
X135071429Y-157367260D02*
X134942857Y-157410117D01*
X134942857Y-157410117D02*
X134857143Y-157410117D01*
X135757143Y-156895831D02*
X135671428Y-156852974D01*
X135671428Y-156852974D02*
X135628571Y-156810117D01*
X135628571Y-156810117D02*
X135585714Y-156724402D01*
X135585714Y-156724402D02*
X135585714Y-156681545D01*
X135585714Y-156681545D02*
X135628571Y-156595831D01*
X135628571Y-156595831D02*
X135671428Y-156552974D01*
X135671428Y-156552974D02*
X135757143Y-156510117D01*
X135757143Y-156510117D02*
X135928571Y-156510117D01*
X135928571Y-156510117D02*
X136014286Y-156552974D01*
X136014286Y-156552974D02*
X136057143Y-156595831D01*
X136057143Y-156595831D02*
X136100000Y-156681545D01*
X136100000Y-156681545D02*
X136100000Y-156724402D01*
X136100000Y-156724402D02*
X136057143Y-156810117D01*
X136057143Y-156810117D02*
X136014286Y-156852974D01*
X136014286Y-156852974D02*
X135928571Y-156895831D01*
X135928571Y-156895831D02*
X135757143Y-156895831D01*
X135757143Y-156895831D02*
X135671428Y-156938688D01*
X135671428Y-156938688D02*
X135628571Y-156981545D01*
X135628571Y-156981545D02*
X135585714Y-157067260D01*
X135585714Y-157067260D02*
X135585714Y-157238688D01*
X135585714Y-157238688D02*
X135628571Y-157324402D01*
X135628571Y-157324402D02*
X135671428Y-157367260D01*
X135671428Y-157367260D02*
X135757143Y-157410117D01*
X135757143Y-157410117D02*
X135928571Y-157410117D01*
X135928571Y-157410117D02*
X136014286Y-157367260D01*
X136014286Y-157367260D02*
X136057143Y-157324402D01*
X136057143Y-157324402D02*
X136100000Y-157238688D01*
X136100000Y-157238688D02*
X136100000Y-157067260D01*
X136100000Y-157067260D02*
X136057143Y-156981545D01*
X136057143Y-156981545D02*
X136014286Y-156938688D01*
X136014286Y-156938688D02*
X135928571Y-156895831D01*
X98921428Y-56410117D02*
X98621428Y-55981545D01*
X98407142Y-56410117D02*
X98407142Y-55510117D01*
X98407142Y-55510117D02*
X98749999Y-55510117D01*
X98749999Y-55510117D02*
X98835714Y-55552974D01*
X98835714Y-55552974D02*
X98878571Y-55595831D01*
X98878571Y-55595831D02*
X98921428Y-55681545D01*
X98921428Y-55681545D02*
X98921428Y-55810117D01*
X98921428Y-55810117D02*
X98878571Y-55895831D01*
X98878571Y-55895831D02*
X98835714Y-55938688D01*
X98835714Y-55938688D02*
X98749999Y-55981545D01*
X98749999Y-55981545D02*
X98407142Y-55981545D01*
X99778571Y-56410117D02*
X99264285Y-56410117D01*
X99521428Y-56410117D02*
X99521428Y-55510117D01*
X99521428Y-55510117D02*
X99435714Y-55638688D01*
X99435714Y-55638688D02*
X99349999Y-55724402D01*
X99349999Y-55724402D02*
X99264285Y-55767260D01*
X100078571Y-55510117D02*
X100678571Y-55510117D01*
X100678571Y-55510117D02*
X100292857Y-56410117D01*
X46421428Y-129824402D02*
X46378571Y-129867260D01*
X46378571Y-129867260D02*
X46249999Y-129910117D01*
X46249999Y-129910117D02*
X46164285Y-129910117D01*
X46164285Y-129910117D02*
X46035714Y-129867260D01*
X46035714Y-129867260D02*
X45949999Y-129781545D01*
X45949999Y-129781545D02*
X45907142Y-129695831D01*
X45907142Y-129695831D02*
X45864285Y-129524402D01*
X45864285Y-129524402D02*
X45864285Y-129395831D01*
X45864285Y-129395831D02*
X45907142Y-129224402D01*
X45907142Y-129224402D02*
X45949999Y-129138688D01*
X45949999Y-129138688D02*
X46035714Y-129052974D01*
X46035714Y-129052974D02*
X46164285Y-129010117D01*
X46164285Y-129010117D02*
X46249999Y-129010117D01*
X46249999Y-129010117D02*
X46378571Y-129052974D01*
X46378571Y-129052974D02*
X46421428Y-129095831D01*
X47278571Y-129910117D02*
X46764285Y-129910117D01*
X47021428Y-129910117D02*
X47021428Y-129010117D01*
X47021428Y-129010117D02*
X46935714Y-129138688D01*
X46935714Y-129138688D02*
X46849999Y-129224402D01*
X46849999Y-129224402D02*
X46764285Y-129267260D01*
X48135714Y-129910117D02*
X47621428Y-129910117D01*
X47878571Y-129910117D02*
X47878571Y-129010117D01*
X47878571Y-129010117D02*
X47792857Y-129138688D01*
X47792857Y-129138688D02*
X47707142Y-129224402D01*
X47707142Y-129224402D02*
X47621428Y-129267260D01*
X39271428Y-134510117D02*
X39271428Y-135152974D01*
X39271428Y-135152974D02*
X39228571Y-135281545D01*
X39228571Y-135281545D02*
X39142857Y-135367260D01*
X39142857Y-135367260D02*
X39014285Y-135410117D01*
X39014285Y-135410117D02*
X38928571Y-135410117D01*
X39657142Y-134595831D02*
X39699999Y-134552974D01*
X39699999Y-134552974D02*
X39785714Y-134510117D01*
X39785714Y-134510117D02*
X39999999Y-134510117D01*
X39999999Y-134510117D02*
X40085714Y-134552974D01*
X40085714Y-134552974D02*
X40128571Y-134595831D01*
X40128571Y-134595831D02*
X40171428Y-134681545D01*
X40171428Y-134681545D02*
X40171428Y-134767260D01*
X40171428Y-134767260D02*
X40128571Y-134895831D01*
X40128571Y-134895831D02*
X39614285Y-135410117D01*
X39614285Y-135410117D02*
X40171428Y-135410117D01*
X40471428Y-134510117D02*
X41028571Y-134510117D01*
X41028571Y-134510117D02*
X40728571Y-134852974D01*
X40728571Y-134852974D02*
X40857142Y-134852974D01*
X40857142Y-134852974D02*
X40942857Y-134895831D01*
X40942857Y-134895831D02*
X40985714Y-134938688D01*
X40985714Y-134938688D02*
X41028571Y-135024402D01*
X41028571Y-135024402D02*
X41028571Y-135238688D01*
X41028571Y-135238688D02*
X40985714Y-135324402D01*
X40985714Y-135324402D02*
X40942857Y-135367260D01*
X40942857Y-135367260D02*
X40857142Y-135410117D01*
X40857142Y-135410117D02*
X40599999Y-135410117D01*
X40599999Y-135410117D02*
X40514285Y-135367260D01*
X40514285Y-135367260D02*
X40471428Y-135324402D01*
X48421428Y-70310117D02*
X48121428Y-69881545D01*
X47907142Y-70310117D02*
X47907142Y-69410117D01*
X47907142Y-69410117D02*
X48249999Y-69410117D01*
X48249999Y-69410117D02*
X48335714Y-69452974D01*
X48335714Y-69452974D02*
X48378571Y-69495831D01*
X48378571Y-69495831D02*
X48421428Y-69581545D01*
X48421428Y-69581545D02*
X48421428Y-69710117D01*
X48421428Y-69710117D02*
X48378571Y-69795831D01*
X48378571Y-69795831D02*
X48335714Y-69838688D01*
X48335714Y-69838688D02*
X48249999Y-69881545D01*
X48249999Y-69881545D02*
X47907142Y-69881545D01*
X49278571Y-70310117D02*
X48764285Y-70310117D01*
X49021428Y-70310117D02*
X49021428Y-69410117D01*
X49021428Y-69410117D02*
X48935714Y-69538688D01*
X48935714Y-69538688D02*
X48849999Y-69624402D01*
X48849999Y-69624402D02*
X48764285Y-69667260D01*
X49621428Y-69495831D02*
X49664285Y-69452974D01*
X49664285Y-69452974D02*
X49750000Y-69410117D01*
X49750000Y-69410117D02*
X49964285Y-69410117D01*
X49964285Y-69410117D02*
X50050000Y-69452974D01*
X50050000Y-69452974D02*
X50092857Y-69495831D01*
X50092857Y-69495831D02*
X50135714Y-69581545D01*
X50135714Y-69581545D02*
X50135714Y-69667260D01*
X50135714Y-69667260D02*
X50092857Y-69795831D01*
X50092857Y-69795831D02*
X49578571Y-70310117D01*
X49578571Y-70310117D02*
X50135714Y-70310117D01*
X94521428Y-81910117D02*
X94221428Y-81481545D01*
X94007142Y-81910117D02*
X94007142Y-81010117D01*
X94007142Y-81010117D02*
X94349999Y-81010117D01*
X94349999Y-81010117D02*
X94435714Y-81052974D01*
X94435714Y-81052974D02*
X94478571Y-81095831D01*
X94478571Y-81095831D02*
X94521428Y-81181545D01*
X94521428Y-81181545D02*
X94521428Y-81310117D01*
X94521428Y-81310117D02*
X94478571Y-81395831D01*
X94478571Y-81395831D02*
X94435714Y-81438688D01*
X94435714Y-81438688D02*
X94349999Y-81481545D01*
X94349999Y-81481545D02*
X94007142Y-81481545D01*
X95378571Y-81910117D02*
X94864285Y-81910117D01*
X95121428Y-81910117D02*
X95121428Y-81010117D01*
X95121428Y-81010117D02*
X95035714Y-81138688D01*
X95035714Y-81138688D02*
X94949999Y-81224402D01*
X94949999Y-81224402D02*
X94864285Y-81267260D01*
X95892857Y-81395831D02*
X95807142Y-81352974D01*
X95807142Y-81352974D02*
X95764285Y-81310117D01*
X95764285Y-81310117D02*
X95721428Y-81224402D01*
X95721428Y-81224402D02*
X95721428Y-81181545D01*
X95721428Y-81181545D02*
X95764285Y-81095831D01*
X95764285Y-81095831D02*
X95807142Y-81052974D01*
X95807142Y-81052974D02*
X95892857Y-81010117D01*
X95892857Y-81010117D02*
X96064285Y-81010117D01*
X96064285Y-81010117D02*
X96150000Y-81052974D01*
X96150000Y-81052974D02*
X96192857Y-81095831D01*
X96192857Y-81095831D02*
X96235714Y-81181545D01*
X96235714Y-81181545D02*
X96235714Y-81224402D01*
X96235714Y-81224402D02*
X96192857Y-81310117D01*
X96192857Y-81310117D02*
X96150000Y-81352974D01*
X96150000Y-81352974D02*
X96064285Y-81395831D01*
X96064285Y-81395831D02*
X95892857Y-81395831D01*
X95892857Y-81395831D02*
X95807142Y-81438688D01*
X95807142Y-81438688D02*
X95764285Y-81481545D01*
X95764285Y-81481545D02*
X95721428Y-81567260D01*
X95721428Y-81567260D02*
X95721428Y-81738688D01*
X95721428Y-81738688D02*
X95764285Y-81824402D01*
X95764285Y-81824402D02*
X95807142Y-81867260D01*
X95807142Y-81867260D02*
X95892857Y-81910117D01*
X95892857Y-81910117D02*
X96064285Y-81910117D01*
X96064285Y-81910117D02*
X96150000Y-81867260D01*
X96150000Y-81867260D02*
X96192857Y-81824402D01*
X96192857Y-81824402D02*
X96235714Y-81738688D01*
X96235714Y-81738688D02*
X96235714Y-81567260D01*
X96235714Y-81567260D02*
X96192857Y-81481545D01*
X96192857Y-81481545D02*
X96150000Y-81438688D01*
X96150000Y-81438688D02*
X96064285Y-81395831D01*
X48921428Y-91410117D02*
X48621428Y-90981545D01*
X48407142Y-91410117D02*
X48407142Y-90510117D01*
X48407142Y-90510117D02*
X48749999Y-90510117D01*
X48749999Y-90510117D02*
X48835714Y-90552974D01*
X48835714Y-90552974D02*
X48878571Y-90595831D01*
X48878571Y-90595831D02*
X48921428Y-90681545D01*
X48921428Y-90681545D02*
X48921428Y-90810117D01*
X48921428Y-90810117D02*
X48878571Y-90895831D01*
X48878571Y-90895831D02*
X48835714Y-90938688D01*
X48835714Y-90938688D02*
X48749999Y-90981545D01*
X48749999Y-90981545D02*
X48407142Y-90981545D01*
X49778571Y-91410117D02*
X49264285Y-91410117D01*
X49521428Y-91410117D02*
X49521428Y-90510117D01*
X49521428Y-90510117D02*
X49435714Y-90638688D01*
X49435714Y-90638688D02*
X49349999Y-90724402D01*
X49349999Y-90724402D02*
X49264285Y-90767260D01*
X50592857Y-90510117D02*
X50164285Y-90510117D01*
X50164285Y-90510117D02*
X50121428Y-90938688D01*
X50121428Y-90938688D02*
X50164285Y-90895831D01*
X50164285Y-90895831D02*
X50250000Y-90852974D01*
X50250000Y-90852974D02*
X50464285Y-90852974D01*
X50464285Y-90852974D02*
X50550000Y-90895831D01*
X50550000Y-90895831D02*
X50592857Y-90938688D01*
X50592857Y-90938688D02*
X50635714Y-91024402D01*
X50635714Y-91024402D02*
X50635714Y-91238688D01*
X50635714Y-91238688D02*
X50592857Y-91324402D01*
X50592857Y-91324402D02*
X50550000Y-91367260D01*
X50550000Y-91367260D02*
X50464285Y-91410117D01*
X50464285Y-91410117D02*
X50250000Y-91410117D01*
X50250000Y-91410117D02*
X50164285Y-91367260D01*
X50164285Y-91367260D02*
X50121428Y-91324402D01*
X39271428Y-66010117D02*
X39271428Y-66652974D01*
X39271428Y-66652974D02*
X39228571Y-66781545D01*
X39228571Y-66781545D02*
X39142857Y-66867260D01*
X39142857Y-66867260D02*
X39014285Y-66910117D01*
X39014285Y-66910117D02*
X38928571Y-66910117D01*
X40171428Y-66910117D02*
X39657142Y-66910117D01*
X39914285Y-66910117D02*
X39914285Y-66010117D01*
X39914285Y-66010117D02*
X39828571Y-66138688D01*
X39828571Y-66138688D02*
X39742856Y-66224402D01*
X39742856Y-66224402D02*
X39657142Y-66267260D01*
X41028571Y-66910117D02*
X40514285Y-66910117D01*
X40771428Y-66910117D02*
X40771428Y-66010117D01*
X40771428Y-66010117D02*
X40685714Y-66138688D01*
X40685714Y-66138688D02*
X40599999Y-66224402D01*
X40599999Y-66224402D02*
X40514285Y-66267260D01*
X36271428Y-95010117D02*
X36271428Y-95652974D01*
X36271428Y-95652974D02*
X36228571Y-95781545D01*
X36228571Y-95781545D02*
X36142857Y-95867260D01*
X36142857Y-95867260D02*
X36014285Y-95910117D01*
X36014285Y-95910117D02*
X35928571Y-95910117D01*
X36657142Y-95095831D02*
X36699999Y-95052974D01*
X36699999Y-95052974D02*
X36785714Y-95010117D01*
X36785714Y-95010117D02*
X36999999Y-95010117D01*
X36999999Y-95010117D02*
X37085714Y-95052974D01*
X37085714Y-95052974D02*
X37128571Y-95095831D01*
X37128571Y-95095831D02*
X37171428Y-95181545D01*
X37171428Y-95181545D02*
X37171428Y-95267260D01*
X37171428Y-95267260D02*
X37128571Y-95395831D01*
X37128571Y-95395831D02*
X36614285Y-95910117D01*
X36614285Y-95910117D02*
X37171428Y-95910117D01*
X37685714Y-95395831D02*
X37599999Y-95352974D01*
X37599999Y-95352974D02*
X37557142Y-95310117D01*
X37557142Y-95310117D02*
X37514285Y-95224402D01*
X37514285Y-95224402D02*
X37514285Y-95181545D01*
X37514285Y-95181545D02*
X37557142Y-95095831D01*
X37557142Y-95095831D02*
X37599999Y-95052974D01*
X37599999Y-95052974D02*
X37685714Y-95010117D01*
X37685714Y-95010117D02*
X37857142Y-95010117D01*
X37857142Y-95010117D02*
X37942857Y-95052974D01*
X37942857Y-95052974D02*
X37985714Y-95095831D01*
X37985714Y-95095831D02*
X38028571Y-95181545D01*
X38028571Y-95181545D02*
X38028571Y-95224402D01*
X38028571Y-95224402D02*
X37985714Y-95310117D01*
X37985714Y-95310117D02*
X37942857Y-95352974D01*
X37942857Y-95352974D02*
X37857142Y-95395831D01*
X37857142Y-95395831D02*
X37685714Y-95395831D01*
X37685714Y-95395831D02*
X37599999Y-95438688D01*
X37599999Y-95438688D02*
X37557142Y-95481545D01*
X37557142Y-95481545D02*
X37514285Y-95567260D01*
X37514285Y-95567260D02*
X37514285Y-95738688D01*
X37514285Y-95738688D02*
X37557142Y-95824402D01*
X37557142Y-95824402D02*
X37599999Y-95867260D01*
X37599999Y-95867260D02*
X37685714Y-95910117D01*
X37685714Y-95910117D02*
X37857142Y-95910117D01*
X37857142Y-95910117D02*
X37942857Y-95867260D01*
X37942857Y-95867260D02*
X37985714Y-95824402D01*
X37985714Y-95824402D02*
X38028571Y-95738688D01*
X38028571Y-95738688D02*
X38028571Y-95567260D01*
X38028571Y-95567260D02*
X37985714Y-95481545D01*
X37985714Y-95481545D02*
X37942857Y-95438688D01*
X37942857Y-95438688D02*
X37857142Y-95395831D01*
X130271428Y-62010117D02*
X130271428Y-62652974D01*
X130271428Y-62652974D02*
X130228571Y-62781545D01*
X130228571Y-62781545D02*
X130142857Y-62867260D01*
X130142857Y-62867260D02*
X130014285Y-62910117D01*
X130014285Y-62910117D02*
X129928571Y-62910117D01*
X130657142Y-62095831D02*
X130699999Y-62052974D01*
X130699999Y-62052974D02*
X130785714Y-62010117D01*
X130785714Y-62010117D02*
X130999999Y-62010117D01*
X130999999Y-62010117D02*
X131085714Y-62052974D01*
X131085714Y-62052974D02*
X131128571Y-62095831D01*
X131128571Y-62095831D02*
X131171428Y-62181545D01*
X131171428Y-62181545D02*
X131171428Y-62267260D01*
X131171428Y-62267260D02*
X131128571Y-62395831D01*
X131128571Y-62395831D02*
X130614285Y-62910117D01*
X130614285Y-62910117D02*
X131171428Y-62910117D01*
X131985714Y-62010117D02*
X131557142Y-62010117D01*
X131557142Y-62010117D02*
X131514285Y-62438688D01*
X131514285Y-62438688D02*
X131557142Y-62395831D01*
X131557142Y-62395831D02*
X131642857Y-62352974D01*
X131642857Y-62352974D02*
X131857142Y-62352974D01*
X131857142Y-62352974D02*
X131942857Y-62395831D01*
X131942857Y-62395831D02*
X131985714Y-62438688D01*
X131985714Y-62438688D02*
X132028571Y-62524402D01*
X132028571Y-62524402D02*
X132028571Y-62738688D01*
X132028571Y-62738688D02*
X131985714Y-62824402D01*
X131985714Y-62824402D02*
X131942857Y-62867260D01*
X131942857Y-62867260D02*
X131857142Y-62910117D01*
X131857142Y-62910117D02*
X131642857Y-62910117D01*
X131642857Y-62910117D02*
X131557142Y-62867260D01*
X131557142Y-62867260D02*
X131514285Y-62824402D01*
X189700000Y-84010117D02*
X189700000Y-84652974D01*
X189700000Y-84652974D02*
X189657143Y-84781545D01*
X189657143Y-84781545D02*
X189571429Y-84867260D01*
X189571429Y-84867260D02*
X189442857Y-84910117D01*
X189442857Y-84910117D02*
X189357143Y-84910117D01*
X190557143Y-84010117D02*
X190128571Y-84010117D01*
X190128571Y-84010117D02*
X190085714Y-84438688D01*
X190085714Y-84438688D02*
X190128571Y-84395831D01*
X190128571Y-84395831D02*
X190214286Y-84352974D01*
X190214286Y-84352974D02*
X190428571Y-84352974D01*
X190428571Y-84352974D02*
X190514286Y-84395831D01*
X190514286Y-84395831D02*
X190557143Y-84438688D01*
X190557143Y-84438688D02*
X190600000Y-84524402D01*
X190600000Y-84524402D02*
X190600000Y-84738688D01*
X190600000Y-84738688D02*
X190557143Y-84824402D01*
X190557143Y-84824402D02*
X190514286Y-84867260D01*
X190514286Y-84867260D02*
X190428571Y-84910117D01*
X190428571Y-84910117D02*
X190214286Y-84910117D01*
X190214286Y-84910117D02*
X190128571Y-84867260D01*
X190128571Y-84867260D02*
X190085714Y-84824402D01*
M02*
