%TF.GenerationSoftware,KiCad,Pcbnew,10.0.6*%
%TF.CreationDate,2026-09-09T18:40:21+03:00*%
%TF.ProjectId,candidate,63616e64-6964-4617-9465-2e6b69636164,rev?*%
%TF.SameCoordinates,Original*%
%TF.FileFunction,Legend,Top*%
%TF.FilePolarity,Positive*%
%FSLAX46Y46*%
G04 Gerber Fmt 4.6, Leading zero omitted, Abs format (unit mm)*
G04 Created by KiCad (PCBNEW 10.0.6) date 2026-09-09 18:40:21*
%MOMM*%
%LPD*%
G01*
G04 APERTURE LIST*
%ADD10C,0.120000*%
G04 APERTURE END LIST*
D10*
X50821428Y-53010117D02*
X51121428Y-53910117D01*
X51121428Y-53910117D02*
X51421428Y-53010117D01*
X51721428Y-53910117D02*
X51721428Y-53010117D01*
X51721428Y-53010117D02*
X51935714Y-53010117D01*
X51935714Y-53010117D02*
X52064285Y-53052974D01*
X52064285Y-53052974D02*
X52150000Y-53138688D01*
X52150000Y-53138688D02*
X52192857Y-53224402D01*
X52192857Y-53224402D02*
X52235714Y-53395831D01*
X52235714Y-53395831D02*
X52235714Y-53524402D01*
X52235714Y-53524402D02*
X52192857Y-53695831D01*
X52192857Y-53695831D02*
X52150000Y-53781545D01*
X52150000Y-53781545D02*
X52064285Y-53867260D01*
X52064285Y-53867260D02*
X51935714Y-53910117D01*
X51935714Y-53910117D02*
X51721428Y-53910117D01*
X52578571Y-53095831D02*
X52621428Y-53052974D01*
X52621428Y-53052974D02*
X52707143Y-53010117D01*
X52707143Y-53010117D02*
X52921428Y-53010117D01*
X52921428Y-53010117D02*
X53007143Y-53052974D01*
X53007143Y-53052974D02*
X53050000Y-53095831D01*
X53050000Y-53095831D02*
X53092857Y-53181545D01*
X53092857Y-53181545D02*
X53092857Y-53267260D01*
X53092857Y-53267260D02*
X53050000Y-53395831D01*
X53050000Y-53395831D02*
X52535714Y-53910117D01*
X52535714Y-53910117D02*
X53092857Y-53910117D01*
X67271428Y-66010117D02*
X67271428Y-66652974D01*
X67271428Y-66652974D02*
X67228571Y-66781545D01*
X67228571Y-66781545D02*
X67142857Y-66867260D01*
X67142857Y-66867260D02*
X67014285Y-66910117D01*
X67014285Y-66910117D02*
X66928571Y-66910117D01*
X67657142Y-66095831D02*
X67699999Y-66052974D01*
X67699999Y-66052974D02*
X67785714Y-66010117D01*
X67785714Y-66010117D02*
X67999999Y-66010117D01*
X67999999Y-66010117D02*
X68085714Y-66052974D01*
X68085714Y-66052974D02*
X68128571Y-66095831D01*
X68128571Y-66095831D02*
X68171428Y-66181545D01*
X68171428Y-66181545D02*
X68171428Y-66267260D01*
X68171428Y-66267260D02*
X68128571Y-66395831D01*
X68128571Y-66395831D02*
X67614285Y-66910117D01*
X67614285Y-66910117D02*
X68171428Y-66910117D01*
X68599999Y-66910117D02*
X68771428Y-66910117D01*
X68771428Y-66910117D02*
X68857142Y-66867260D01*
X68857142Y-66867260D02*
X68899999Y-66824402D01*
X68899999Y-66824402D02*
X68985714Y-66695831D01*
X68985714Y-66695831D02*
X69028571Y-66524402D01*
X69028571Y-66524402D02*
X69028571Y-66181545D01*
X69028571Y-66181545D02*
X68985714Y-66095831D01*
X68985714Y-66095831D02*
X68942857Y-66052974D01*
X68942857Y-66052974D02*
X68857142Y-66010117D01*
X68857142Y-66010117D02*
X68685714Y-66010117D01*
X68685714Y-66010117D02*
X68599999Y-66052974D01*
X68599999Y-66052974D02*
X68557142Y-66095831D01*
X68557142Y-66095831D02*
X68514285Y-66181545D01*
X68514285Y-66181545D02*
X68514285Y-66395831D01*
X68514285Y-66395831D02*
X68557142Y-66481545D01*
X68557142Y-66481545D02*
X68599999Y-66524402D01*
X68599999Y-66524402D02*
X68685714Y-66567260D01*
X68685714Y-66567260D02*
X68857142Y-66567260D01*
X68857142Y-66567260D02*
X68942857Y-66524402D01*
X68942857Y-66524402D02*
X68985714Y-66481545D01*
X68985714Y-66481545D02*
X69028571Y-66395831D01*
X37271428Y-34510117D02*
X37871428Y-35410117D01*
X37871428Y-34510117D02*
X37271428Y-35410117D01*
X38685714Y-35410117D02*
X38171428Y-35410117D01*
X38428571Y-35410117D02*
X38428571Y-34510117D01*
X38428571Y-34510117D02*
X38342857Y-34638688D01*
X38342857Y-34638688D02*
X38257142Y-34724402D01*
X38257142Y-34724402D02*
X38171428Y-34767260D01*
X42821428Y-48010117D02*
X43121428Y-48910117D01*
X43121428Y-48910117D02*
X43421428Y-48010117D01*
X43721428Y-48910117D02*
X43721428Y-48010117D01*
X43721428Y-48010117D02*
X43935714Y-48010117D01*
X43935714Y-48010117D02*
X44064285Y-48052974D01*
X44064285Y-48052974D02*
X44150000Y-48138688D01*
X44150000Y-48138688D02*
X44192857Y-48224402D01*
X44192857Y-48224402D02*
X44235714Y-48395831D01*
X44235714Y-48395831D02*
X44235714Y-48524402D01*
X44235714Y-48524402D02*
X44192857Y-48695831D01*
X44192857Y-48695831D02*
X44150000Y-48781545D01*
X44150000Y-48781545D02*
X44064285Y-48867260D01*
X44064285Y-48867260D02*
X43935714Y-48910117D01*
X43935714Y-48910117D02*
X43721428Y-48910117D01*
X45092857Y-48910117D02*
X44578571Y-48910117D01*
X44835714Y-48910117D02*
X44835714Y-48010117D01*
X44835714Y-48010117D02*
X44750000Y-48138688D01*
X44750000Y-48138688D02*
X44664285Y-48224402D01*
X44664285Y-48224402D02*
X44578571Y-48267260D01*
X72271428Y-34510117D02*
X72871428Y-35410117D01*
X72871428Y-34510117D02*
X72271428Y-35410117D01*
X73128571Y-34510117D02*
X73685714Y-34510117D01*
X73685714Y-34510117D02*
X73385714Y-34852974D01*
X73385714Y-34852974D02*
X73514285Y-34852974D01*
X73514285Y-34852974D02*
X73600000Y-34895831D01*
X73600000Y-34895831D02*
X73642857Y-34938688D01*
X73642857Y-34938688D02*
X73685714Y-35024402D01*
X73685714Y-35024402D02*
X73685714Y-35238688D01*
X73685714Y-35238688D02*
X73642857Y-35324402D01*
X73642857Y-35324402D02*
X73600000Y-35367260D01*
X73600000Y-35367260D02*
X73514285Y-35410117D01*
X73514285Y-35410117D02*
X73257142Y-35410117D01*
X73257142Y-35410117D02*
X73171428Y-35367260D01*
X73171428Y-35367260D02*
X73128571Y-35324402D01*
X37271428Y-58510117D02*
X37871428Y-59410117D01*
X37871428Y-58510117D02*
X37271428Y-59410117D01*
X38600000Y-58510117D02*
X38428571Y-58510117D01*
X38428571Y-58510117D02*
X38342857Y-58552974D01*
X38342857Y-58552974D02*
X38300000Y-58595831D01*
X38300000Y-58595831D02*
X38214285Y-58724402D01*
X38214285Y-58724402D02*
X38171428Y-58895831D01*
X38171428Y-58895831D02*
X38171428Y-59238688D01*
X38171428Y-59238688D02*
X38214285Y-59324402D01*
X38214285Y-59324402D02*
X38257142Y-59367260D01*
X38257142Y-59367260D02*
X38342857Y-59410117D01*
X38342857Y-59410117D02*
X38514285Y-59410117D01*
X38514285Y-59410117D02*
X38600000Y-59367260D01*
X38600000Y-59367260D02*
X38642857Y-59324402D01*
X38642857Y-59324402D02*
X38685714Y-59238688D01*
X38685714Y-59238688D02*
X38685714Y-59024402D01*
X38685714Y-59024402D02*
X38642857Y-58938688D01*
X38642857Y-58938688D02*
X38600000Y-58895831D01*
X38600000Y-58895831D02*
X38514285Y-58852974D01*
X38514285Y-58852974D02*
X38342857Y-58852974D01*
X38342857Y-58852974D02*
X38257142Y-58895831D01*
X38257142Y-58895831D02*
X38214285Y-58938688D01*
X38214285Y-58938688D02*
X38171428Y-59024402D01*
X56271428Y-34510117D02*
X56871428Y-35410117D01*
X56871428Y-34510117D02*
X56271428Y-35410117D01*
X57171428Y-34595831D02*
X57214285Y-34552974D01*
X57214285Y-34552974D02*
X57300000Y-34510117D01*
X57300000Y-34510117D02*
X57514285Y-34510117D01*
X57514285Y-34510117D02*
X57600000Y-34552974D01*
X57600000Y-34552974D02*
X57642857Y-34595831D01*
X57642857Y-34595831D02*
X57685714Y-34681545D01*
X57685714Y-34681545D02*
X57685714Y-34767260D01*
X57685714Y-34767260D02*
X57642857Y-34895831D01*
X57642857Y-34895831D02*
X57128571Y-35410117D01*
X57128571Y-35410117D02*
X57685714Y-35410117D01*
X75200000Y-61510117D02*
X75200000Y-62152974D01*
X75200000Y-62152974D02*
X75157143Y-62281545D01*
X75157143Y-62281545D02*
X75071429Y-62367260D01*
X75071429Y-62367260D02*
X74942857Y-62410117D01*
X74942857Y-62410117D02*
X74857143Y-62410117D01*
X75757143Y-61895831D02*
X75671428Y-61852974D01*
X75671428Y-61852974D02*
X75628571Y-61810117D01*
X75628571Y-61810117D02*
X75585714Y-61724402D01*
X75585714Y-61724402D02*
X75585714Y-61681545D01*
X75585714Y-61681545D02*
X75628571Y-61595831D01*
X75628571Y-61595831D02*
X75671428Y-61552974D01*
X75671428Y-61552974D02*
X75757143Y-61510117D01*
X75757143Y-61510117D02*
X75928571Y-61510117D01*
X75928571Y-61510117D02*
X76014286Y-61552974D01*
X76014286Y-61552974D02*
X76057143Y-61595831D01*
X76057143Y-61595831D02*
X76100000Y-61681545D01*
X76100000Y-61681545D02*
X76100000Y-61724402D01*
X76100000Y-61724402D02*
X76057143Y-61810117D01*
X76057143Y-61810117D02*
X76014286Y-61852974D01*
X76014286Y-61852974D02*
X75928571Y-61895831D01*
X75928571Y-61895831D02*
X75757143Y-61895831D01*
X75757143Y-61895831D02*
X75671428Y-61938688D01*
X75671428Y-61938688D02*
X75628571Y-61981545D01*
X75628571Y-61981545D02*
X75585714Y-62067260D01*
X75585714Y-62067260D02*
X75585714Y-62238688D01*
X75585714Y-62238688D02*
X75628571Y-62324402D01*
X75628571Y-62324402D02*
X75671428Y-62367260D01*
X75671428Y-62367260D02*
X75757143Y-62410117D01*
X75757143Y-62410117D02*
X75928571Y-62410117D01*
X75928571Y-62410117D02*
X76014286Y-62367260D01*
X76014286Y-62367260D02*
X76057143Y-62324402D01*
X76057143Y-62324402D02*
X76100000Y-62238688D01*
X76100000Y-62238688D02*
X76100000Y-62067260D01*
X76100000Y-62067260D02*
X76057143Y-61981545D01*
X76057143Y-61981545D02*
X76014286Y-61938688D01*
X76014286Y-61938688D02*
X75928571Y-61895831D01*
X63271428Y-48010117D02*
X63271428Y-48652974D01*
X63271428Y-48652974D02*
X63228571Y-48781545D01*
X63228571Y-48781545D02*
X63142857Y-48867260D01*
X63142857Y-48867260D02*
X63014285Y-48910117D01*
X63014285Y-48910117D02*
X62928571Y-48910117D01*
X63657142Y-48095831D02*
X63699999Y-48052974D01*
X63699999Y-48052974D02*
X63785714Y-48010117D01*
X63785714Y-48010117D02*
X63999999Y-48010117D01*
X63999999Y-48010117D02*
X64085714Y-48052974D01*
X64085714Y-48052974D02*
X64128571Y-48095831D01*
X64128571Y-48095831D02*
X64171428Y-48181545D01*
X64171428Y-48181545D02*
X64171428Y-48267260D01*
X64171428Y-48267260D02*
X64128571Y-48395831D01*
X64128571Y-48395831D02*
X63614285Y-48910117D01*
X63614285Y-48910117D02*
X64171428Y-48910117D01*
X64471428Y-48010117D02*
X65071428Y-48010117D01*
X65071428Y-48010117D02*
X64685714Y-48910117D01*
X64421428Y-41824402D02*
X64378571Y-41867260D01*
X64378571Y-41867260D02*
X64249999Y-41910117D01*
X64249999Y-41910117D02*
X64164285Y-41910117D01*
X64164285Y-41910117D02*
X64035714Y-41867260D01*
X64035714Y-41867260D02*
X63949999Y-41781545D01*
X63949999Y-41781545D02*
X63907142Y-41695831D01*
X63907142Y-41695831D02*
X63864285Y-41524402D01*
X63864285Y-41524402D02*
X63864285Y-41395831D01*
X63864285Y-41395831D02*
X63907142Y-41224402D01*
X63907142Y-41224402D02*
X63949999Y-41138688D01*
X63949999Y-41138688D02*
X64035714Y-41052974D01*
X64035714Y-41052974D02*
X64164285Y-41010117D01*
X64164285Y-41010117D02*
X64249999Y-41010117D01*
X64249999Y-41010117D02*
X64378571Y-41052974D01*
X64378571Y-41052974D02*
X64421428Y-41095831D01*
X65278571Y-41910117D02*
X64764285Y-41910117D01*
X65021428Y-41910117D02*
X65021428Y-41010117D01*
X65021428Y-41010117D02*
X64935714Y-41138688D01*
X64935714Y-41138688D02*
X64849999Y-41224402D01*
X64849999Y-41224402D02*
X64764285Y-41267260D01*
X65578571Y-41010117D02*
X66135714Y-41010117D01*
X66135714Y-41010117D02*
X65835714Y-41352974D01*
X65835714Y-41352974D02*
X65964285Y-41352974D01*
X65964285Y-41352974D02*
X66050000Y-41395831D01*
X66050000Y-41395831D02*
X66092857Y-41438688D01*
X66092857Y-41438688D02*
X66135714Y-41524402D01*
X66135714Y-41524402D02*
X66135714Y-41738688D01*
X66135714Y-41738688D02*
X66092857Y-41824402D01*
X66092857Y-41824402D02*
X66050000Y-41867260D01*
X66050000Y-41867260D02*
X65964285Y-41910117D01*
X65964285Y-41910117D02*
X65707142Y-41910117D01*
X65707142Y-41910117D02*
X65621428Y-41867260D01*
X65621428Y-41867260D02*
X65578571Y-41824402D01*
X63271428Y-54010117D02*
X63271428Y-54652974D01*
X63271428Y-54652974D02*
X63228571Y-54781545D01*
X63228571Y-54781545D02*
X63142857Y-54867260D01*
X63142857Y-54867260D02*
X63014285Y-54910117D01*
X63014285Y-54910117D02*
X62928571Y-54910117D01*
X63614285Y-54010117D02*
X64171428Y-54010117D01*
X64171428Y-54010117D02*
X63871428Y-54352974D01*
X63871428Y-54352974D02*
X63999999Y-54352974D01*
X63999999Y-54352974D02*
X64085714Y-54395831D01*
X64085714Y-54395831D02*
X64128571Y-54438688D01*
X64128571Y-54438688D02*
X64171428Y-54524402D01*
X64171428Y-54524402D02*
X64171428Y-54738688D01*
X64171428Y-54738688D02*
X64128571Y-54824402D01*
X64128571Y-54824402D02*
X64085714Y-54867260D01*
X64085714Y-54867260D02*
X63999999Y-54910117D01*
X63999999Y-54910117D02*
X63742856Y-54910117D01*
X63742856Y-54910117D02*
X63657142Y-54867260D01*
X63657142Y-54867260D02*
X63614285Y-54824402D01*
X65028571Y-54910117D02*
X64514285Y-54910117D01*
X64771428Y-54910117D02*
X64771428Y-54010117D01*
X64771428Y-54010117D02*
X64685714Y-54138688D01*
X64685714Y-54138688D02*
X64599999Y-54224402D01*
X64599999Y-54224402D02*
X64514285Y-54267260D01*
M02*
