%TF.GenerationSoftware,KiCad,Pcbnew,10.0.6*%
%TF.CreationDate,2026-09-09T21:24:30+03:00*%
%TF.ProjectId,candidate,63616e64-6964-4617-9465-2e6b69636164,rev?*%
%TF.SameCoordinates,Original*%
%TF.FileFunction,Copper,L2,Bot*%
%TF.FilePolarity,Positive*%
%FSLAX46Y46*%
G04 Gerber Fmt 4.6, Leading zero omitted, Abs format (unit mm)*
G04 Created by KiCad (PCBNEW 10.0.6) date 2026-09-09 21:24:30*
%MOMM*%
%LPD*%
G01*
G04 APERTURE LIST*
%TA.AperFunction,ComponentPad*%
%ADD10C,2.000000*%
%TD*%
%TA.AperFunction,SMDPad,CuDef*%
%ADD11R,1.600000X2.000000*%
%TD*%
%TA.AperFunction,SMDPad,CuDef*%
%ADD12R,2.000000X1.600000*%
%TD*%
%TA.AperFunction,Conductor*%
%ADD13C,1.000000*%
%TD*%
%TA.AperFunction,Conductor*%
%ADD14C,0.800000*%
%TD*%
G04 APERTURE END LIST*
D10*
%TO.P,J30,1*%
%TO.N,+3V3*%
X50000000Y-152000000D03*
%TO.P,J30,2*%
%TO.N,GND*%
X52540000Y-152000000D03*
%TD*%
%TO.P,C12,1*%
%TO.N,+3V3_SENS*%
X61000000Y-151540000D03*
D11*
X61000000Y-150900000D03*
%TO.P,C12,2*%
%TO.N,GND*%
X61000000Y-147100000D03*
D10*
X61000000Y-146460000D03*
%TD*%
D12*
%TO.P,R11,1*%
%TO.N,BASE3*%
X51100000Y-146000000D03*
%TO.P,R11,2*%
%TO.N,+3V3*%
X54900000Y-146000000D03*
%TD*%
%TO.P,R10,1*%
%TO.N,SENS_PWR*%
X44100000Y-143000000D03*
%TO.P,R10,2*%
%TO.N,BASE3*%
X47900000Y-143000000D03*
%TD*%
D10*
%TO.P,Q3,1*%
%TO.N,+3V3_SENS*%
X50460000Y-137000000D03*
%TO.P,Q3,2*%
%TO.N,BASE3*%
X53000000Y-139540000D03*
%TO.P,Q3,3*%
%TO.N,+3V3*%
X55540000Y-137000000D03*
%TD*%
%TO.P,J24,1*%
%TO.N,GND*%
X65000000Y-135000000D03*
%TO.P,J24,2*%
%TO.N,+3V3_SENS*%
X65000000Y-137540000D03*
%TD*%
%TO.P,C11,1*%
%TO.N,+3V3*%
X44460000Y-132000000D03*
D12*
X45100000Y-132000000D03*
%TO.P,C11,2*%
%TO.N,GND*%
X48900000Y-132000000D03*
D10*
X49540000Y-132000000D03*
%TD*%
%TO.P,J23,1*%
%TO.N,+3V3*%
X37000000Y-135000000D03*
%TO.P,J23,2*%
%TO.N,GND*%
X37000000Y-137540000D03*
%TO.P,J23,3*%
%TO.N,SENS_PWR*%
X37000000Y-140080000D03*
%TD*%
%TO.N,+3V3*%
D13*
X45100000Y-132000000D02*
X35478112Y-130639052D01*
X33386199Y-151588726D02*
X52755151Y-149795521D01*
X55204094Y-139759058D02*
X55540000Y-137000000D01*
X44460000Y-132000000D02*
X46685000Y-132800000D01*
X46685000Y-132800000D02*
X45100000Y-132000000D01*
X52755151Y-149795521D02*
X55204094Y-139759058D01*
X50000000Y-152000000D02*
X50000000Y-150900000D01*
X50000000Y-150900000D02*
X54900000Y-146000000D01*
X35478112Y-130639052D02*
X33386199Y-151588726D01*
X37000000Y-135000000D02*
X44460000Y-132000000D01*
X54900000Y-146000000D02*
X55540000Y-137000000D01*
%TO.N,+3V3_SENS*%
X62668624Y-151999400D02*
X61000000Y-151540000D01*
X50864431Y-135241171D02*
X55759058Y-134795906D01*
X55759058Y-134795906D02*
X65000000Y-137540000D01*
X65000000Y-146900000D02*
X65000000Y-137540000D01*
X50460000Y-137000000D02*
X50864431Y-135241171D01*
X61000000Y-150900000D02*
X62668624Y-151999400D01*
X61000000Y-150900000D02*
X65000000Y-146900000D01*
%TO.N,BASE3*%
D14*
X47900000Y-143000000D02*
X53000000Y-139540000D01*
X47900000Y-143000000D02*
X51100000Y-146000000D01*
%TO.N,SENS_PWR*%
X37000000Y-140080000D02*
X44100000Y-143000000D01*
%TD*%
%TA.AperFunction,Conductor*%
%TO.N,GND*%
G36*
X72189320Y-125593909D02*
G01*
X72290360Y-125648589D01*
X72368171Y-125733114D01*
X72414321Y-125838325D01*
X72425000Y-125923999D01*
X72425000Y-157076000D01*
X72406090Y-157189320D01*
X72351410Y-157290360D01*
X72266885Y-157368171D01*
X72161674Y-157414321D01*
X72076000Y-157425000D01*
X30924000Y-157425000D01*
X30810680Y-157406090D01*
X30709640Y-157351410D01*
X30631829Y-157266885D01*
X30585679Y-157161674D01*
X30575000Y-157076000D01*
X30575000Y-128372158D01*
X31549500Y-128372158D01*
X31549500Y-128627841D01*
X31582872Y-128881329D01*
X31582875Y-128881346D01*
X31649050Y-129128313D01*
X31649050Y-129128315D01*
X31726657Y-129315674D01*
X31746896Y-129364535D01*
X31808920Y-129471963D01*
X31874738Y-129585964D01*
X31874739Y-129585966D01*
X31961833Y-129699468D01*
X32030390Y-129788813D01*
X32030396Y-129788819D01*
X32030401Y-129788825D01*
X32211174Y-129969598D01*
X32211180Y-129969603D01*
X32211187Y-129969610D01*
X32334947Y-130064574D01*
X32414033Y-130125260D01*
X32414035Y-130125261D01*
X32635465Y-130253104D01*
X32871687Y-130350950D01*
X33118660Y-130417126D01*
X33372157Y-130450500D01*
X33372159Y-130450500D01*
X33627841Y-130450500D01*
X33627843Y-130450500D01*
X33881340Y-130417126D01*
X33881362Y-130417119D01*
X33891234Y-130415157D01*
X34006065Y-130411592D01*
X34115833Y-130445506D01*
X34208641Y-130513223D01*
X34274432Y-130607407D01*
X34306078Y-130717849D01*
X34306605Y-130792126D01*
X32250515Y-151383041D01*
X32244601Y-151419533D01*
X32243969Y-151423914D01*
X32239795Y-151488279D01*
X32238801Y-151500361D01*
X32232395Y-151564515D01*
X32232302Y-151568962D01*
X32232190Y-151600225D01*
X32232251Y-151604630D01*
X32238195Y-151668840D01*
X32239103Y-151680928D01*
X32242813Y-151745300D01*
X32243418Y-151749721D01*
X32248200Y-151780635D01*
X32248944Y-151784946D01*
X32264860Y-151847435D01*
X32267648Y-151859237D01*
X32281383Y-151922244D01*
X32282657Y-151926463D01*
X32292200Y-151956198D01*
X32293640Y-151960431D01*
X32319135Y-152019660D01*
X32323730Y-152030868D01*
X32326325Y-152037525D01*
X32347161Y-152090970D01*
X32349111Y-152095004D01*
X32363153Y-152122811D01*
X32365242Y-152126775D01*
X32399682Y-152181276D01*
X32405983Y-152191642D01*
X32438516Y-152247321D01*
X32441091Y-152251026D01*
X32459299Y-152276278D01*
X32461980Y-152279863D01*
X32504532Y-152328317D01*
X32512383Y-152337577D01*
X32519214Y-152345924D01*
X32576349Y-152445597D01*
X32598025Y-152558421D01*
X32581892Y-152672169D01*
X32529699Y-152774517D01*
X32447102Y-152854371D01*
X32423641Y-152869192D01*
X32414042Y-152874734D01*
X32414033Y-152874739D01*
X32211192Y-153030386D01*
X32211174Y-153030401D01*
X32030401Y-153211174D01*
X32030386Y-153211192D01*
X31874739Y-153414033D01*
X31874738Y-153414035D01*
X31746897Y-153635463D01*
X31746891Y-153635475D01*
X31649050Y-153871684D01*
X31649050Y-153871686D01*
X31582875Y-154118653D01*
X31582872Y-154118670D01*
X31549500Y-154372158D01*
X31549500Y-154627841D01*
X31582872Y-154881329D01*
X31582875Y-154881346D01*
X31649050Y-155128313D01*
X31649050Y-155128315D01*
X31746891Y-155364524D01*
X31746896Y-155364535D01*
X31746897Y-155364536D01*
X31874738Y-155585964D01*
X31874739Y-155585966D01*
X31961833Y-155699468D01*
X32030390Y-155788813D01*
X32030396Y-155788819D01*
X32030401Y-155788825D01*
X32211174Y-155969598D01*
X32211180Y-155969603D01*
X32211187Y-155969610D01*
X32334947Y-156064574D01*
X32414033Y-156125260D01*
X32414035Y-156125261D01*
X32635465Y-156253104D01*
X32871687Y-156350950D01*
X33118660Y-156417126D01*
X33372157Y-156450500D01*
X33372159Y-156450500D01*
X33627841Y-156450500D01*
X33627843Y-156450500D01*
X33881340Y-156417126D01*
X34128313Y-156350950D01*
X34364535Y-156253104D01*
X34585965Y-156125261D01*
X34788813Y-155969610D01*
X34969610Y-155788813D01*
X35125261Y-155585965D01*
X35253104Y-155364535D01*
X35350950Y-155128313D01*
X35417126Y-154881340D01*
X35450500Y-154627843D01*
X35450500Y-154372158D01*
X67549500Y-154372158D01*
X67549500Y-154627841D01*
X67582872Y-154881329D01*
X67582875Y-154881346D01*
X67649050Y-155128313D01*
X67649050Y-155128315D01*
X67746891Y-155364524D01*
X67746896Y-155364535D01*
X67746897Y-155364536D01*
X67874738Y-155585964D01*
X67874739Y-155585966D01*
X67961833Y-155699468D01*
X68030390Y-155788813D01*
X68030396Y-155788819D01*
X68030401Y-155788825D01*
X68211174Y-155969598D01*
X68211180Y-155969603D01*
X68211187Y-155969610D01*
X68334947Y-156064574D01*
X68414033Y-156125260D01*
X68414035Y-156125261D01*
X68635465Y-156253104D01*
X68871687Y-156350950D01*
X69118660Y-156417126D01*
X69372157Y-156450500D01*
X69372159Y-156450500D01*
X69627841Y-156450500D01*
X69627843Y-156450500D01*
X69881340Y-156417126D01*
X70128313Y-156350950D01*
X70364535Y-156253104D01*
X70585965Y-156125261D01*
X70788813Y-155969610D01*
X70969610Y-155788813D01*
X71125261Y-155585965D01*
X71253104Y-155364535D01*
X71350950Y-155128313D01*
X71417126Y-154881340D01*
X71450500Y-154627843D01*
X71450500Y-154372157D01*
X71417126Y-154118660D01*
X71350950Y-153871687D01*
X71253104Y-153635465D01*
X71125261Y-153414035D01*
X71125260Y-153414033D01*
X71064574Y-153334947D01*
X70969610Y-153211187D01*
X70969603Y-153211180D01*
X70969598Y-153211174D01*
X70788825Y-153030401D01*
X70788819Y-153030396D01*
X70788813Y-153030390D01*
X70699468Y-152961833D01*
X70585966Y-152874739D01*
X70585964Y-152874738D01*
X70433013Y-152786432D01*
X70364535Y-152746896D01*
X70364529Y-152746893D01*
X70364524Y-152746891D01*
X70128314Y-152649050D01*
X69881346Y-152582875D01*
X69881329Y-152582872D01*
X69709726Y-152560280D01*
X69627843Y-152549500D01*
X69372157Y-152549500D01*
X69304396Y-152558421D01*
X69118670Y-152582872D01*
X69118653Y-152582875D01*
X68871686Y-152649050D01*
X68871684Y-152649050D01*
X68635475Y-152746891D01*
X68635463Y-152746897D01*
X68414035Y-152874738D01*
X68414033Y-152874739D01*
X68211192Y-153030386D01*
X68211174Y-153030401D01*
X68030401Y-153211174D01*
X68030386Y-153211192D01*
X67874739Y-153414033D01*
X67874738Y-153414035D01*
X67746897Y-153635463D01*
X67746891Y-153635475D01*
X67649050Y-153871684D01*
X67649050Y-153871686D01*
X67582875Y-154118653D01*
X67582872Y-154118670D01*
X67549500Y-154372158D01*
X35450500Y-154372158D01*
X35450500Y-154372157D01*
X35417126Y-154118660D01*
X35350950Y-153871687D01*
X35253104Y-153635465D01*
X35125261Y-153414035D01*
X35125260Y-153414033D01*
X35064574Y-153334947D01*
X34969610Y-153211187D01*
X34969603Y-153211180D01*
X34969598Y-153211174D01*
X34933723Y-153175299D01*
X34866965Y-153081799D01*
X34834183Y-152971688D01*
X34838931Y-152856899D01*
X34880693Y-152749871D01*
X34954945Y-152662203D01*
X35053639Y-152603394D01*
X35148327Y-152581005D01*
X48138694Y-151378339D01*
X48253273Y-151386722D01*
X48358924Y-151431854D01*
X48444196Y-151508847D01*
X48499848Y-151609355D01*
X48519850Y-151722487D01*
X48515570Y-151780443D01*
X48499500Y-151881908D01*
X48499500Y-151881912D01*
X48499500Y-152118096D01*
X48536445Y-152351361D01*
X48536449Y-152351376D01*
X48609429Y-152575984D01*
X48609436Y-152576000D01*
X48716653Y-152786427D01*
X48716656Y-152786432D01*
X48743474Y-152823343D01*
X48855483Y-152977510D01*
X49022490Y-153144517D01*
X49114253Y-153211187D01*
X49213567Y-153283343D01*
X49213572Y-153283346D01*
X49323411Y-153339311D01*
X49424008Y-153390568D01*
X49648632Y-153463553D01*
X49881908Y-153500500D01*
X49881912Y-153500500D01*
X50118088Y-153500500D01*
X50118092Y-153500500D01*
X50351368Y-153463553D01*
X50575992Y-153390568D01*
X50786433Y-153283343D01*
X50977510Y-153144517D01*
X51144517Y-152977510D01*
X51283343Y-152786433D01*
X51390568Y-152575992D01*
X51463553Y-152351368D01*
X51500500Y-152118092D01*
X51500500Y-151881908D01*
X51463553Y-151648632D01*
X51416078Y-151502519D01*
X51399045Y-151388909D01*
X51419825Y-151275917D01*
X51476167Y-151175795D01*
X51561967Y-151099391D01*
X51667925Y-151054987D01*
X51715821Y-151047163D01*
X52848184Y-150942327D01*
X52854132Y-150941829D01*
X52931457Y-150936033D01*
X52931473Y-150936029D01*
X52941413Y-150934492D01*
X52951357Y-150932776D01*
X52951373Y-150932775D01*
X53009320Y-150918015D01*
X53026400Y-150913665D01*
X53032293Y-150912218D01*
X53107702Y-150894410D01*
X53107722Y-150894401D01*
X53117319Y-150891322D01*
X53126852Y-150888079D01*
X53126863Y-150888077D01*
X53198014Y-150857449D01*
X53203536Y-150855129D01*
X53240521Y-150839971D01*
X53275255Y-150825736D01*
X53275260Y-150825733D01*
X53275266Y-150825731D01*
X53275271Y-150825727D01*
X53284238Y-150821200D01*
X53293193Y-150816481D01*
X53293201Y-150816478D01*
X53293207Y-150816473D01*
X53293213Y-150816471D01*
X53358657Y-150775114D01*
X53363751Y-150771955D01*
X53430022Y-150731683D01*
X53430034Y-150731672D01*
X53438172Y-150725805D01*
X53446269Y-150719750D01*
X53446289Y-150719738D01*
X53504545Y-150668576D01*
X53509031Y-150664706D01*
X53568161Y-150614584D01*
X53568166Y-150614577D01*
X53575344Y-150607452D01*
X53582348Y-150600253D01*
X53582360Y-150600243D01*
X53631897Y-150540595D01*
X53635753Y-150536034D01*
X53686282Y-150477317D01*
X53686294Y-150477296D01*
X53692303Y-150469090D01*
X53698062Y-150460931D01*
X53707917Y-150444339D01*
X53737661Y-150394263D01*
X53740791Y-150389099D01*
X53781474Y-150323262D01*
X53781478Y-150323252D01*
X53786087Y-150314288D01*
X53790534Y-150305254D01*
X53790546Y-150305235D01*
X53819240Y-150233166D01*
X53821517Y-150227593D01*
X53823883Y-150221941D01*
X53851395Y-150156212D01*
X53851399Y-150156191D01*
X53854598Y-150146471D01*
X53857533Y-150136995D01*
X53857536Y-150136988D01*
X53874584Y-150061398D01*
X53875980Y-150055450D01*
X53878667Y-150044440D01*
X54306091Y-148292735D01*
X54351324Y-148187130D01*
X54398358Y-148128693D01*
X55124333Y-147402719D01*
X55217834Y-147335960D01*
X55327945Y-147303179D01*
X55371113Y-147300499D01*
X55947871Y-147300499D01*
X55947872Y-147300499D01*
X56007483Y-147294091D01*
X56142331Y-147243796D01*
X56257546Y-147157546D01*
X56343796Y-147042331D01*
X56394091Y-146907483D01*
X56400500Y-146847873D01*
X56400499Y-145152128D01*
X56394091Y-145092517D01*
X56343796Y-144957669D01*
X56257546Y-144842454D01*
X56257545Y-144842453D01*
X56257542Y-144842449D01*
X56256446Y-144841353D01*
X56250761Y-144833391D01*
X56242588Y-144822473D01*
X56242834Y-144822288D01*
X56189688Y-144747853D01*
X56156906Y-144637742D01*
X56155105Y-144569825D01*
X56610240Y-138169502D01*
X56637140Y-138057809D01*
X56678902Y-137990379D01*
X56676457Y-137988603D01*
X56687646Y-137973204D01*
X56823343Y-137786433D01*
X56930568Y-137575992D01*
X57003553Y-137351368D01*
X57040500Y-137118092D01*
X57040500Y-136881908D01*
X57040499Y-136881907D01*
X57039649Y-136871101D01*
X57049606Y-136756646D01*
X57096187Y-136651626D01*
X57174344Y-136567421D01*
X57275607Y-136513156D01*
X57389004Y-136494711D01*
X57486918Y-136509146D01*
X63599850Y-138324379D01*
X63703097Y-138374764D01*
X63784391Y-138455944D01*
X63834921Y-138559122D01*
X63849500Y-138658939D01*
X63849500Y-146278886D01*
X63830590Y-146392206D01*
X63775910Y-146493246D01*
X63747280Y-146525666D01*
X60975665Y-149297280D01*
X60882165Y-149364038D01*
X60772054Y-149396820D01*
X60728886Y-149399500D01*
X60152129Y-149399500D01*
X60092514Y-149405909D01*
X60092511Y-149405910D01*
X59957671Y-149456202D01*
X59842454Y-149542454D01*
X59756202Y-149657670D01*
X59705909Y-149792515D01*
X59699500Y-149852129D01*
X59699500Y-150703450D01*
X59680590Y-150816770D01*
X59661462Y-150861890D01*
X59609434Y-150964000D01*
X59609432Y-150964007D01*
X59536449Y-151188623D01*
X59536445Y-151188638D01*
X59499500Y-151421903D01*
X59499500Y-151658096D01*
X59536445Y-151891361D01*
X59536449Y-151891376D01*
X59609429Y-152115984D01*
X59609436Y-152116000D01*
X59716653Y-152326427D01*
X59716656Y-152326432D01*
X59770711Y-152400832D01*
X59855483Y-152517510D01*
X60022490Y-152684517D01*
X60112442Y-152749871D01*
X60213567Y-152823343D01*
X60213572Y-152823346D01*
X60314435Y-152874738D01*
X60424008Y-152930568D01*
X60648632Y-153003553D01*
X60881908Y-153040500D01*
X60881912Y-153040500D01*
X61118088Y-153040500D01*
X61118092Y-153040500D01*
X61351368Y-153003553D01*
X61540878Y-152941977D01*
X61654491Y-152924944D01*
X61741354Y-152937414D01*
X62262523Y-153080900D01*
X62263131Y-153081094D01*
X62276194Y-153084687D01*
X62366218Y-153109449D01*
X62450533Y-153132663D01*
X62450661Y-153132677D01*
X62450802Y-153132716D01*
X62543124Y-153143037D01*
X62630499Y-153152828D01*
X62630636Y-153152821D01*
X62630773Y-153152837D01*
X62720830Y-153148715D01*
X62811405Y-153144592D01*
X62811540Y-153144564D01*
X62811676Y-153144558D01*
X62901356Y-153126115D01*
X62988795Y-153108156D01*
X62988918Y-153108109D01*
X62989057Y-153108081D01*
X63073302Y-153076380D01*
X63073378Y-153076365D01*
X63073374Y-153076354D01*
X63087453Y-153071059D01*
X63158300Y-153044421D01*
X63158423Y-153044350D01*
X63158548Y-153044304D01*
X63237121Y-152999631D01*
X63315749Y-152954952D01*
X63315853Y-152954868D01*
X63315976Y-152954799D01*
X63387676Y-152897518D01*
X63457262Y-152841955D01*
X63457354Y-152841853D01*
X63457463Y-152841767D01*
X63517744Y-152775702D01*
X63579358Y-152708212D01*
X63579436Y-152708093D01*
X63579526Y-152707995D01*
X63629752Y-152631763D01*
X63679027Y-152557014D01*
X63679081Y-152556894D01*
X63679160Y-152556775D01*
X63717732Y-152471662D01*
X63753818Y-152392087D01*
X63753853Y-152391957D01*
X63753911Y-152391831D01*
X63778887Y-152301029D01*
X63801887Y-152217491D01*
X63801901Y-152217363D01*
X63801940Y-152217223D01*
X63812523Y-152122554D01*
X63822051Y-152037525D01*
X63822045Y-152037393D01*
X63822061Y-152037251D01*
X63817845Y-151945141D01*
X63813816Y-151856619D01*
X63813788Y-151856483D01*
X63813782Y-151856348D01*
X63795339Y-151766667D01*
X63777380Y-151679229D01*
X63777333Y-151679105D01*
X63777305Y-151678967D01*
X63745149Y-151593512D01*
X63713644Y-151509724D01*
X63713640Y-151509717D01*
X63713529Y-151509479D01*
X63704918Y-151494334D01*
X63668981Y-151431124D01*
X63624176Y-151352275D01*
X63624173Y-151352271D01*
X63624169Y-151352264D01*
X63624026Y-151352054D01*
X63624023Y-151352049D01*
X63568161Y-151282124D01*
X63511179Y-151210761D01*
X63510995Y-151210564D01*
X63445151Y-151150483D01*
X63445092Y-151150430D01*
X63389183Y-151099391D01*
X63377435Y-151088666D01*
X63377432Y-151088664D01*
X63377431Y-151088663D01*
X63377269Y-151088537D01*
X63377218Y-151088497D01*
X63301975Y-151038922D01*
X63301980Y-151038913D01*
X63301905Y-151038876D01*
X63215066Y-150981631D01*
X63214517Y-150981299D01*
X63168826Y-150951195D01*
X63084604Y-150873056D01*
X63030316Y-150771804D01*
X63011847Y-150658412D01*
X63031196Y-150545166D01*
X63086268Y-150444339D01*
X63114056Y-150412995D01*
X65729603Y-147797448D01*
X65729617Y-147797437D01*
X65749501Y-147777553D01*
X65877553Y-147649501D01*
X65983996Y-147502994D01*
X66066211Y-147341639D01*
X66122171Y-147169409D01*
X66133980Y-147094852D01*
X66150501Y-146990547D01*
X66150501Y-146809454D01*
X66150501Y-146797083D01*
X66150500Y-146797053D01*
X66150500Y-138622673D01*
X66169410Y-138509353D01*
X66217153Y-138417535D01*
X66233175Y-138395483D01*
X66283343Y-138326433D01*
X66390568Y-138115992D01*
X66463553Y-137891368D01*
X66500500Y-137658092D01*
X66500500Y-137421908D01*
X66463553Y-137188632D01*
X66390568Y-136964008D01*
X66283343Y-136753567D01*
X66144517Y-136562490D01*
X65977510Y-136395483D01*
X65823163Y-136283343D01*
X65786432Y-136256656D01*
X65786427Y-136256653D01*
X65576000Y-136149436D01*
X65575998Y-136149435D01*
X65575992Y-136149432D01*
X65575987Y-136149430D01*
X65575984Y-136149429D01*
X65351376Y-136076449D01*
X65351361Y-136076445D01*
X65118096Y-136039500D01*
X65118092Y-136039500D01*
X64881908Y-136039500D01*
X64881903Y-136039500D01*
X64648638Y-136076445D01*
X64648626Y-136076448D01*
X64496039Y-136126027D01*
X64382422Y-136143060D01*
X64288845Y-136128669D01*
X56152631Y-133712623D01*
X56122373Y-133702103D01*
X56102286Y-133694069D01*
X56081450Y-133689334D01*
X56061666Y-133684838D01*
X56039673Y-133679080D01*
X55999766Y-133667230D01*
X55999754Y-133667228D01*
X55978321Y-133664391D01*
X55946808Y-133658738D01*
X55925695Y-133653941D01*
X55925685Y-133653940D01*
X55884146Y-133651179D01*
X55861516Y-133648933D01*
X55835771Y-133645526D01*
X55820237Y-133643471D01*
X55820234Y-133643471D01*
X55820233Y-133643470D01*
X55798599Y-133644022D01*
X55766579Y-133643367D01*
X55745006Y-133641933D01*
X55744998Y-133641934D01*
X55703553Y-133645704D01*
X55680840Y-133647025D01*
X55639216Y-133648087D01*
X55639197Y-133648088D01*
X55617918Y-133652017D01*
X55586184Y-133656380D01*
X50761961Y-134095241D01*
X50761066Y-134095321D01*
X50672913Y-134103111D01*
X50672102Y-134103250D01*
X50671226Y-134103399D01*
X50670071Y-134103593D01*
X50584077Y-134125349D01*
X50583212Y-134125567D01*
X50497217Y-134147089D01*
X50496299Y-134147400D01*
X50495366Y-134147714D01*
X50494531Y-134147993D01*
X50413166Y-134182862D01*
X50412350Y-134183210D01*
X50330595Y-134217999D01*
X50329723Y-134218457D01*
X50328893Y-134218892D01*
X50328052Y-134219330D01*
X50252969Y-134266608D01*
X50252215Y-134267082D01*
X50177104Y-134314109D01*
X50176401Y-134314634D01*
X50175605Y-134315226D01*
X50174814Y-134315811D01*
X50138987Y-134347172D01*
X50138984Y-134347175D01*
X50107713Y-134374549D01*
X50040589Y-134433004D01*
X50039633Y-134434144D01*
X50038509Y-134435129D01*
X49981430Y-134503631D01*
X49924306Y-134571831D01*
X49923539Y-134573110D01*
X49922585Y-134574255D01*
X49876974Y-134650761D01*
X49831173Y-134727141D01*
X49830615Y-134728523D01*
X49829853Y-134729803D01*
X49796767Y-134812512D01*
X49781306Y-134850876D01*
X49781301Y-134850884D01*
X49763462Y-134895151D01*
X49763215Y-134895946D01*
X49762936Y-134896837D01*
X49762610Y-134897871D01*
X49742910Y-134984562D01*
X49742711Y-134985431D01*
X49583076Y-135679668D01*
X49539253Y-135785869D01*
X49489734Y-135848238D01*
X49315482Y-136022491D01*
X49176656Y-136213567D01*
X49176653Y-136213572D01*
X49069436Y-136423999D01*
X49069429Y-136424015D01*
X48996449Y-136648623D01*
X48996445Y-136648638D01*
X48959500Y-136881903D01*
X48959500Y-137118096D01*
X48996445Y-137351361D01*
X48996449Y-137351376D01*
X49019368Y-137421912D01*
X49069431Y-137575990D01*
X49069436Y-137576000D01*
X49176653Y-137786427D01*
X49176656Y-137786432D01*
X49176657Y-137786433D01*
X49315483Y-137977510D01*
X49482490Y-138144517D01*
X49636837Y-138256657D01*
X49673567Y-138283343D01*
X49673572Y-138283346D01*
X49690767Y-138292107D01*
X49884008Y-138390568D01*
X50108632Y-138463553D01*
X50341908Y-138500500D01*
X50341912Y-138500500D01*
X50578088Y-138500500D01*
X50578092Y-138500500D01*
X50811368Y-138463553D01*
X51035992Y-138390568D01*
X51246433Y-138283343D01*
X51246437Y-138283339D01*
X51248105Y-138282490D01*
X51357658Y-138247892D01*
X51472510Y-138250741D01*
X51580214Y-138290728D01*
X51669098Y-138363520D01*
X51729531Y-138461228D01*
X51754964Y-138573264D01*
X51742640Y-138687489D01*
X51717510Y-138751893D01*
X51716657Y-138753566D01*
X51716657Y-138753567D01*
X51609432Y-138964008D01*
X51609432Y-138964009D01*
X51609430Y-138964012D01*
X51542222Y-139170856D01*
X51489219Y-139272786D01*
X51406240Y-139351815D01*
X48034502Y-141639308D01*
X47930110Y-141687280D01*
X47838566Y-141699500D01*
X46852129Y-141699500D01*
X46792514Y-141705909D01*
X46792511Y-141705910D01*
X46657671Y-141756202D01*
X46542454Y-141842454D01*
X46456202Y-141957670D01*
X46405909Y-142092515D01*
X46399500Y-142152129D01*
X46399500Y-143847870D01*
X46405909Y-143907485D01*
X46405910Y-143907488D01*
X46456202Y-144042328D01*
X46456203Y-144042329D01*
X46456204Y-144042331D01*
X46542454Y-144157546D01*
X46634523Y-144226469D01*
X46657670Y-144243797D01*
X46725093Y-144268943D01*
X46792517Y-144294091D01*
X46852127Y-144300500D01*
X47613236Y-144300499D01*
X47726556Y-144319409D01*
X47827596Y-144374089D01*
X47851931Y-144394891D01*
X49489195Y-145929826D01*
X49558934Y-146021125D01*
X49595248Y-146130122D01*
X49599500Y-146184433D01*
X49599500Y-146847870D01*
X49605909Y-146907485D01*
X49605910Y-146907488D01*
X49656202Y-147042328D01*
X49656203Y-147042329D01*
X49656204Y-147042331D01*
X49742454Y-147157546D01*
X49834523Y-147226469D01*
X49857670Y-147243797D01*
X49925093Y-147268943D01*
X49992517Y-147294091D01*
X50052127Y-147300500D01*
X51129888Y-147300499D01*
X51243206Y-147319409D01*
X51344246Y-147374089D01*
X51422057Y-147458614D01*
X51468207Y-147563824D01*
X51477694Y-147678319D01*
X51449491Y-147789690D01*
X51386654Y-147885870D01*
X51376666Y-147896279D01*
X50505428Y-148767517D01*
X50411928Y-148834275D01*
X50301817Y-148867057D01*
X50290821Y-148868251D01*
X35091165Y-150275456D01*
X34976585Y-150267073D01*
X34870934Y-150221941D01*
X34785662Y-150144948D01*
X34730010Y-150044440D01*
X34710008Y-149931308D01*
X34711719Y-149893265D01*
X34760383Y-149405910D01*
X35547017Y-141528079D01*
X35577092Y-141417205D01*
X35641541Y-141322098D01*
X35733379Y-141253070D01*
X35842654Y-141217603D01*
X35957525Y-141219539D01*
X36065543Y-141258668D01*
X36099426Y-141280415D01*
X36213561Y-141363339D01*
X36213572Y-141363346D01*
X36319277Y-141417205D01*
X36424008Y-141470568D01*
X36648632Y-141543553D01*
X36881908Y-141580500D01*
X36881912Y-141580500D01*
X37118088Y-141580500D01*
X37118092Y-141580500D01*
X37351368Y-141543553D01*
X37478205Y-141502340D01*
X37591822Y-141485307D01*
X37704814Y-141506087D01*
X37718790Y-141511487D01*
X39276515Y-142152129D01*
X42383244Y-143429826D01*
X42480855Y-143490416D01*
X42553503Y-143579418D01*
X42593316Y-143687186D01*
X42599500Y-143752592D01*
X42599500Y-143847869D01*
X42605909Y-143907485D01*
X42605910Y-143907488D01*
X42656202Y-144042328D01*
X42656203Y-144042329D01*
X42656204Y-144042331D01*
X42742454Y-144157546D01*
X42834523Y-144226469D01*
X42857670Y-144243797D01*
X42925093Y-144268943D01*
X42992517Y-144294091D01*
X43052127Y-144300500D01*
X45147872Y-144300499D01*
X45207483Y-144294091D01*
X45342331Y-144243796D01*
X45457546Y-144157546D01*
X45543796Y-144042331D01*
X45594091Y-143907483D01*
X45600500Y-143847873D01*
X45600499Y-142152128D01*
X45594091Y-142092517D01*
X45543796Y-141957669D01*
X45457546Y-141842454D01*
X45388621Y-141790857D01*
X45342329Y-141756202D01*
X45207483Y-141705909D01*
X45207485Y-141705909D01*
X45177678Y-141702704D01*
X45147873Y-141699500D01*
X45147871Y-141699500D01*
X43768672Y-141699500D01*
X43655352Y-141680590D01*
X43635928Y-141673269D01*
X43553352Y-141639308D01*
X38517848Y-139568369D01*
X38420239Y-139507780D01*
X38347591Y-139418778D01*
X38339646Y-139404068D01*
X38283343Y-139293567D01*
X38144517Y-139102490D01*
X37977510Y-138935483D01*
X37786433Y-138796657D01*
X37786434Y-138796657D01*
X37786432Y-138796656D01*
X37786427Y-138796653D01*
X37576000Y-138689436D01*
X37575998Y-138689435D01*
X37575992Y-138689432D01*
X37575987Y-138689430D01*
X37575984Y-138689429D01*
X37351376Y-138616449D01*
X37351361Y-138616445D01*
X37118096Y-138579500D01*
X37118092Y-138579500D01*
X36881908Y-138579500D01*
X36881903Y-138579500D01*
X36648638Y-138616445D01*
X36648623Y-138616449D01*
X36424015Y-138689429D01*
X36424002Y-138689434D01*
X36367835Y-138718053D01*
X36258281Y-138752649D01*
X36143430Y-138749799D01*
X36035726Y-138709811D01*
X35946843Y-138637018D01*
X35886411Y-138539309D01*
X35860980Y-138427272D01*
X35862122Y-138372422D01*
X36028407Y-136707145D01*
X36058483Y-136596268D01*
X36122932Y-136501161D01*
X36214770Y-136432133D01*
X36324045Y-136396666D01*
X36438916Y-136398602D01*
X36483524Y-136409905D01*
X36648632Y-136463553D01*
X36881908Y-136500500D01*
X36881912Y-136500500D01*
X37118088Y-136500500D01*
X37118092Y-136500500D01*
X37351368Y-136463553D01*
X37575992Y-136390568D01*
X37786433Y-136283343D01*
X37977510Y-136144517D01*
X38144517Y-135977510D01*
X38283343Y-135786433D01*
X38283343Y-135786432D01*
X38288473Y-135779372D01*
X38370379Y-135698809D01*
X38440601Y-135660713D01*
X43878008Y-133474089D01*
X43990200Y-133449354D01*
X44095061Y-133461327D01*
X44095296Y-133460351D01*
X44103261Y-133462263D01*
X44104345Y-133462387D01*
X44106428Y-133463023D01*
X44108626Y-133463551D01*
X44108632Y-133463553D01*
X44341908Y-133500500D01*
X44341912Y-133500500D01*
X44578088Y-133500500D01*
X44578092Y-133500500D01*
X44811368Y-133463553D01*
X44865246Y-133446046D01*
X44978861Y-133429012D01*
X45091178Y-133449547D01*
X45126889Y-133462387D01*
X46209370Y-133851593D01*
X46243362Y-133866219D01*
X46247426Y-133867884D01*
X46247430Y-133867886D01*
X46283292Y-133879387D01*
X46308779Y-133887561D01*
X46320275Y-133891469D01*
X46380940Y-133913282D01*
X46380942Y-133913282D01*
X46380944Y-133913283D01*
X46385193Y-133914443D01*
X46415644Y-133922192D01*
X46419862Y-133923188D01*
X46419867Y-133923188D01*
X46419871Y-133923190D01*
X46483587Y-133933033D01*
X46495522Y-133935090D01*
X46558839Y-133947141D01*
X46558844Y-133947141D01*
X46563280Y-133947629D01*
X46594459Y-133950510D01*
X46598839Y-133950837D01*
X46598841Y-133950838D01*
X46598842Y-133950837D01*
X46598843Y-133950838D01*
X46600372Y-133950832D01*
X46663305Y-133950591D01*
X46675427Y-133950755D01*
X46722632Y-133952220D01*
X46739840Y-133952754D01*
X46739841Y-133952753D01*
X46739845Y-133952754D01*
X46739848Y-133952753D01*
X46744242Y-133952544D01*
X46775568Y-133950507D01*
X46779926Y-133950147D01*
X46779933Y-133950147D01*
X46843615Y-133939811D01*
X46855549Y-133938087D01*
X46919500Y-133929982D01*
X46919514Y-133929977D01*
X46923854Y-133929078D01*
X46954448Y-133922171D01*
X46958668Y-133921139D01*
X46958687Y-133921137D01*
X47019959Y-133900968D01*
X47031478Y-133897398D01*
X47093381Y-133879387D01*
X47093386Y-133879384D01*
X47093388Y-133879384D01*
X47097507Y-133877826D01*
X47126633Y-133866221D01*
X47130694Y-133864521D01*
X47130702Y-133864519D01*
X47188025Y-133835034D01*
X47198862Y-133829696D01*
X47257207Y-133802213D01*
X47257210Y-133802210D01*
X47257212Y-133802210D01*
X47261001Y-133800046D01*
X47287947Y-133784034D01*
X47291726Y-133781697D01*
X47291741Y-133781690D01*
X47343766Y-133743587D01*
X47353631Y-133736623D01*
X47406942Y-133700361D01*
X47406950Y-133700352D01*
X47410382Y-133697602D01*
X47434512Y-133677554D01*
X47437836Y-133674694D01*
X47437838Y-133674691D01*
X47437842Y-133674689D01*
X47483264Y-133628917D01*
X47491926Y-133620488D01*
X47538902Y-133576339D01*
X47538905Y-133576334D01*
X47541893Y-133573048D01*
X47562488Y-133549588D01*
X47565393Y-133546159D01*
X47565404Y-133546149D01*
X47603093Y-133493854D01*
X47610340Y-133484159D01*
X47649834Y-133433201D01*
X47649837Y-133433195D01*
X47652288Y-133429460D01*
X47668977Y-133403038D01*
X47671289Y-133399235D01*
X47700347Y-133341660D01*
X47705984Y-133330960D01*
X47737010Y-133274472D01*
X47737013Y-133274462D01*
X47738846Y-133270398D01*
X47751224Y-133241628D01*
X47752879Y-133237585D01*
X47752887Y-133237571D01*
X47772583Y-133176153D01*
X47776485Y-133164682D01*
X47787100Y-133135160D01*
X47798282Y-133104060D01*
X47798284Y-133104049D01*
X47799437Y-133099828D01*
X47807183Y-133069388D01*
X47808186Y-133065139D01*
X47808190Y-133065129D01*
X47818036Y-133001388D01*
X47820084Y-132989504D01*
X47832141Y-132926161D01*
X47832141Y-132926155D01*
X47832628Y-132921732D01*
X47835508Y-132890565D01*
X47835838Y-132886158D01*
X47835591Y-132821711D01*
X47835756Y-132809546D01*
X47837754Y-132745160D01*
X47837543Y-132740742D01*
X47835506Y-132709421D01*
X47835147Y-132705074D01*
X47835147Y-132705067D01*
X47824814Y-132641404D01*
X47823087Y-132629453D01*
X47814982Y-132565499D01*
X47814977Y-132565484D01*
X47814067Y-132561094D01*
X47807180Y-132530589D01*
X47806137Y-132526316D01*
X47806137Y-132526314D01*
X47785962Y-132465019D01*
X47782393Y-132453505D01*
X47764386Y-132391619D01*
X47764385Y-132391617D01*
X47762812Y-132387461D01*
X47751207Y-132358329D01*
X47749521Y-132354302D01*
X47749520Y-132354301D01*
X47749520Y-132354299D01*
X47720020Y-132296946D01*
X47714664Y-132286069D01*
X47687211Y-132227791D01*
X47685028Y-132223967D01*
X47669010Y-132197013D01*
X47666690Y-132193259D01*
X47628614Y-132141270D01*
X47621608Y-132131346D01*
X47585364Y-132078063D01*
X47585361Y-132078058D01*
X47585354Y-132078050D01*
X47582592Y-132074606D01*
X47562526Y-132050453D01*
X47559691Y-132047160D01*
X47513938Y-132001755D01*
X47505462Y-131993045D01*
X47461341Y-131946100D01*
X47458134Y-131943184D01*
X47434426Y-131922372D01*
X47431153Y-131919598D01*
X47378878Y-131881922D01*
X47369150Y-131874651D01*
X47318201Y-131835165D01*
X47318191Y-131835159D01*
X47314563Y-131832778D01*
X47287965Y-131815977D01*
X47284243Y-131813715D01*
X47279606Y-131811374D01*
X47226694Y-131784668D01*
X47215965Y-131779016D01*
X47159478Y-131747993D01*
X47159474Y-131747991D01*
X47159472Y-131747990D01*
X47159468Y-131747988D01*
X47155482Y-131746191D01*
X47121466Y-131731556D01*
X46792243Y-131565386D01*
X46699599Y-131497444D01*
X46634036Y-131403101D01*
X46602658Y-131292582D01*
X46600499Y-131253823D01*
X46600499Y-131152129D01*
X46600499Y-131152128D01*
X46594091Y-131092517D01*
X46543796Y-130957669D01*
X46457546Y-130842454D01*
X46388621Y-130790857D01*
X46342329Y-130756202D01*
X46207483Y-130705909D01*
X46207485Y-130705909D01*
X46177678Y-130702704D01*
X46147873Y-130699500D01*
X46147871Y-130699500D01*
X45296548Y-130699500D01*
X45183228Y-130680590D01*
X45138109Y-130661463D01*
X45035992Y-130609432D01*
X44980077Y-130591264D01*
X44811376Y-130536449D01*
X44811361Y-130536445D01*
X44578096Y-130499500D01*
X44578092Y-130499500D01*
X44341908Y-130499500D01*
X44341903Y-130499500D01*
X44108638Y-130536445D01*
X44108623Y-130536449D01*
X43884007Y-130609432D01*
X43871335Y-130614681D01*
X43870087Y-130611670D01*
X43785508Y-130638338D01*
X43687901Y-130638317D01*
X35725519Y-129512094D01*
X35685829Y-129504109D01*
X35682529Y-129503243D01*
X35682527Y-129503242D01*
X35682524Y-129503242D01*
X35670487Y-129502040D01*
X35559611Y-129471963D01*
X35464504Y-129407513D01*
X35395478Y-129315674D01*
X35360012Y-129206398D01*
X35361950Y-129091528D01*
X35368059Y-129064461D01*
X35417126Y-128881340D01*
X35450500Y-128627843D01*
X35450500Y-128372158D01*
X67549500Y-128372158D01*
X67549500Y-128627841D01*
X67582872Y-128881329D01*
X67582875Y-128881346D01*
X67649050Y-129128313D01*
X67649050Y-129128315D01*
X67726657Y-129315674D01*
X67746896Y-129364535D01*
X67808920Y-129471963D01*
X67874738Y-129585964D01*
X67874739Y-129585966D01*
X67961833Y-129699468D01*
X68030390Y-129788813D01*
X68030396Y-129788819D01*
X68030401Y-129788825D01*
X68211174Y-129969598D01*
X68211180Y-129969603D01*
X68211187Y-129969610D01*
X68334947Y-130064574D01*
X68414033Y-130125260D01*
X68414035Y-130125261D01*
X68635465Y-130253104D01*
X68871687Y-130350950D01*
X69118660Y-130417126D01*
X69372157Y-130450500D01*
X69372159Y-130450500D01*
X69627841Y-130450500D01*
X69627843Y-130450500D01*
X69881340Y-130417126D01*
X70128313Y-130350950D01*
X70364535Y-130253104D01*
X70585965Y-130125261D01*
X70788813Y-129969610D01*
X70969610Y-129788813D01*
X71125261Y-129585965D01*
X71253104Y-129364535D01*
X71350950Y-129128313D01*
X71417126Y-128881340D01*
X71450500Y-128627843D01*
X71450500Y-128372157D01*
X71417126Y-128118660D01*
X71350950Y-127871687D01*
X71253104Y-127635465D01*
X71125261Y-127414035D01*
X71125260Y-127414033D01*
X71064574Y-127334947D01*
X70969610Y-127211187D01*
X70969603Y-127211180D01*
X70969598Y-127211174D01*
X70788825Y-127030401D01*
X70788819Y-127030396D01*
X70788813Y-127030390D01*
X70699468Y-126961833D01*
X70585966Y-126874739D01*
X70585964Y-126874738D01*
X70475250Y-126810817D01*
X70364535Y-126746896D01*
X70364529Y-126746893D01*
X70364524Y-126746891D01*
X70128314Y-126649050D01*
X69881346Y-126582875D01*
X69881329Y-126582872D01*
X69709726Y-126560280D01*
X69627843Y-126549500D01*
X69372157Y-126549500D01*
X69301660Y-126558781D01*
X69118670Y-126582872D01*
X69118653Y-126582875D01*
X68871686Y-126649050D01*
X68871684Y-126649050D01*
X68635475Y-126746891D01*
X68635463Y-126746897D01*
X68414035Y-126874738D01*
X68414033Y-126874739D01*
X68211192Y-127030386D01*
X68211174Y-127030401D01*
X68030401Y-127211174D01*
X68030386Y-127211192D01*
X67874739Y-127414033D01*
X67874738Y-127414035D01*
X67746897Y-127635463D01*
X67746891Y-127635475D01*
X67649050Y-127871684D01*
X67649050Y-127871686D01*
X67582875Y-128118653D01*
X67582872Y-128118670D01*
X67549500Y-128372158D01*
X35450500Y-128372158D01*
X35450500Y-128372157D01*
X35417126Y-128118660D01*
X35350950Y-127871687D01*
X35253104Y-127635465D01*
X35125261Y-127414035D01*
X35125260Y-127414033D01*
X35064574Y-127334947D01*
X34969610Y-127211187D01*
X34969603Y-127211180D01*
X34969598Y-127211174D01*
X34788825Y-127030401D01*
X34788819Y-127030396D01*
X34788813Y-127030390D01*
X34699468Y-126961833D01*
X34585966Y-126874739D01*
X34585964Y-126874738D01*
X34475250Y-126810817D01*
X34364535Y-126746896D01*
X34364529Y-126746893D01*
X34364524Y-126746891D01*
X34128314Y-126649050D01*
X33881346Y-126582875D01*
X33881329Y-126582872D01*
X33709726Y-126560280D01*
X33627843Y-126549500D01*
X33372157Y-126549500D01*
X33301660Y-126558781D01*
X33118670Y-126582872D01*
X33118653Y-126582875D01*
X32871686Y-126649050D01*
X32871684Y-126649050D01*
X32635475Y-126746891D01*
X32635463Y-126746897D01*
X32414035Y-126874738D01*
X32414033Y-126874739D01*
X32211192Y-127030386D01*
X32211174Y-127030401D01*
X32030401Y-127211174D01*
X32030386Y-127211192D01*
X31874739Y-127414033D01*
X31874738Y-127414035D01*
X31746897Y-127635463D01*
X31746891Y-127635475D01*
X31649050Y-127871684D01*
X31649050Y-127871686D01*
X31582875Y-128118653D01*
X31582872Y-128118670D01*
X31549500Y-128372158D01*
X30575000Y-128372158D01*
X30575000Y-125923999D01*
X30593910Y-125810679D01*
X30648590Y-125709639D01*
X30733115Y-125631828D01*
X30838326Y-125585678D01*
X30924000Y-125574999D01*
X72076000Y-125574999D01*
X72189320Y-125593909D01*
G37*
%TD.AperFunction*%
%TD*%
M02*
