M48
; DRILL file KiCad 10.0.6 date 2026-09-09T17:00:49
; FORMAT={-:-/ absolute / metric / decimal}
; #@! TF.CreationDate,2026-09-09T17:00:49+03:00
; #@! TF.GenerationSoftware,Kicad,Pcbnew,10.0.6
; #@! TF.FileFunction,MixedPlating,1,2
FMAT,2
METRIC
; #@! TA.AperFunction,Plated,PTH,ComponentDrill
T1C0.800
; #@! TA.AperFunction,Plated,PTH,ComponentDrill
T2C1.100
; #@! TA.AperFunction,Plated,PTH,ComponentDrill
T3C1.500
; #@! TA.AperFunction,NonPlated,NPTH,ComponentDrill
T4C3.400
%
G90
G05
T1
X37.0Y-98.0
X37.0Y-135.0
X37.0Y-137.54
X37.0Y-140.08
X39.46Y-79.0
X39.46Y-88.0
X39.54Y-98.0
X42.0Y-81.54
X42.0Y-90.54
X42.08Y-98.0
X44.0Y-54.0
X44.46Y-132.0
X44.54Y-79.0
X44.54Y-88.0
X44.96Y-61.0
X44.96Y-64.0
X46.54Y-54.0
X47.5Y-61.0
X47.5Y-64.0
X48.0Y-69.94
X49.54Y-132.0
X50.0Y-152.0
X50.46Y-137.0
X50.54Y-69.94
X52.54Y-152.0
X53.0Y-139.54
X53.08Y-69.94
X55.54Y-137.0
X58.0Y-42.0
X58.0Y-44.54
X58.0Y-47.08
X58.0Y-49.62
X58.0Y-52.16
X58.0Y-54.7
X58.0Y-57.24
X58.0Y-59.78
X58.0Y-62.32
X58.0Y-64.86
X58.0Y-67.4
X58.0Y-69.94
X58.0Y-72.48
X58.0Y-75.02
X58.0Y-77.56
X58.0Y-80.1
X58.0Y-82.64
X58.0Y-85.18
X58.0Y-87.72
X58.0Y-98.362
X60.54Y-98.362
X61.0Y-146.46
X61.0Y-151.54
X65.0Y-135.0
X65.0Y-137.54
X70.0Y-102.0
X72.54Y-102.0
X75.08Y-102.0
X77.62Y-102.0
X80.16Y-102.0
X82.7Y-102.0
X83.4Y-42.0
X83.4Y-44.54
X83.4Y-47.08
X83.4Y-49.62
X83.4Y-52.16
X83.4Y-54.7
X83.4Y-57.24
X83.4Y-59.78
X83.4Y-62.32
X83.4Y-64.86
X83.4Y-67.4
X83.4Y-69.94
X83.4Y-72.48
X83.4Y-75.02
X83.4Y-77.56
X83.4Y-80.1
X83.4Y-82.64
X83.4Y-85.18
X83.4Y-87.72
X92.0Y-75.0
X92.0Y-77.54
X92.0Y-80.08
X93.0Y-38.0
X94.0Y-42.0
X94.0Y-44.54
X94.0Y-47.08
X94.0Y-49.62
X95.54Y-38.0
X98.08Y-38.0
X100.62Y-38.0
X102.0Y-42.0
X102.0Y-44.54
X102.0Y-47.08
X102.0Y-49.62
X122.46Y-139.0
X122.92Y-159.0
X124.0Y-146.0
X124.0Y-152.0
X125.46Y-159.0
X126.54Y-146.0
X126.54Y-152.0
X127.54Y-139.0
X128.0Y-159.0
X131.0Y-65.0
X132.0Y-80.0
X132.0Y-82.54
X132.0Y-85.08
X133.54Y-65.0
X138.0Y-157.0
X140.54Y-157.0
X143.08Y-157.0
X145.62Y-157.0
X148.16Y-157.0
X149.46Y-66.0
X154.54Y-66.0
X155.0Y-46.0
X155.0Y-87.0
X155.46Y-59.0
X157.54Y-46.0
X157.54Y-87.0
X160.08Y-46.0
X160.08Y-87.0
X160.54Y-59.0
X162.62Y-46.0
X164.46Y-62.0
X165.16Y-46.0
X168.46Y-51.0
X169.54Y-62.0
X173.54Y-51.0
X188.0Y-46.0
X189.46Y-60.0
X190.0Y-87.0
X190.54Y-46.0
X192.54Y-87.0
X193.08Y-46.0
X194.46Y-53.0
X194.54Y-60.0
X195.08Y-87.0
X199.54Y-53.0
T2
X100.19Y-141.0
X107.81Y-141.0
X108.19Y-146.0
X115.81Y-146.0
T3
X90.0Y-89.0
X95.0Y-89.0
X98.0Y-133.0
X98.0Y-157.0
X100.0Y-89.0
X103.0Y-133.0
X103.0Y-157.0
X108.0Y-133.0
X108.0Y-157.0
X117.0Y-133.0
X122.0Y-133.0
X133.0Y-133.0
X138.0Y-133.0
X161.0Y-95.0
X166.0Y-95.0
X171.0Y-95.0
X205.0Y-76.0
T4
X33.5Y-33.5
X33.5Y-104.5
X33.5Y-128.5
X33.5Y-154.5
X69.5Y-128.5
X69.5Y-154.5
X93.5Y-128.5
X93.5Y-161.5
X104.5Y-33.5
X104.5Y-104.5
X128.5Y-33.5
X128.5Y-94.5
X149.5Y-128.5
X149.5Y-161.5
X207.5Y-33.5
X207.5Y-94.5
M30
