%TF.GenerationSoftware,KiCad,Pcbnew,10.0.6*%
%TF.CreationDate,2026-09-09T15:11:57+03:00*%
%TF.ProjectId,candidate,63616e64-6964-4617-9465-2e6b69636164,rev?*%
%TF.SameCoordinates,Original*%
%TF.FileFunction,Copper,L2,Bot*%
%TF.FilePolarity,Positive*%
%FSLAX46Y46*%
G04 Gerber Fmt 4.6, Leading zero omitted, Abs format (unit mm)*
G04 Created by KiCad (PCBNEW 10.0.6) date 2026-09-09 15:11:57*
%MOMM*%
%LPD*%
G01*
G04 APERTURE LIST*
%TA.AperFunction,SMDPad,CuDef*%
%ADD10R,2.000000X1.600000*%
%TD*%
%TA.AperFunction,ComponentPad*%
%ADD11C,2.000000*%
%TD*%
%TA.AperFunction,SMDPad,CuDef*%
%ADD12R,1.600000X2.000000*%
%TD*%
%TA.AperFunction,Conductor*%
%ADD13C,0.700000*%
%TD*%
G04 APERTURE END LIST*
D10*
%TO.P,R10,1*%
%TO.N,SENS_PWR*%
X44100000Y-48000000D03*
%TO.P,R10,2*%
%TO.N,BASE3*%
X47900000Y-48000000D03*
%TD*%
D11*
%TO.P,J30,1*%
%TO.N,+3V3*%
X50000000Y-57000000D03*
%TO.P,J30,2*%
%TO.N,GND*%
X52540000Y-57000000D03*
%TD*%
D10*
%TO.P,R11,1*%
%TO.N,BASE3*%
X51100000Y-51000000D03*
%TO.P,R11,2*%
%TO.N,+3V3*%
X54900000Y-51000000D03*
%TD*%
D11*
%TO.P,C12,1*%
%TO.N,+3V3_SENS*%
X61000000Y-56540000D03*
D12*
X61000000Y-55900000D03*
%TO.P,C12,2*%
%TO.N,GND*%
X61000000Y-52100000D03*
D11*
X61000000Y-51460000D03*
%TD*%
%TO.P,Q3,1*%
%TO.N,+3V3_SENS*%
X50460000Y-42000000D03*
%TO.P,Q3,2*%
%TO.N,BASE3*%
X53000000Y-44540000D03*
%TO.P,Q3,3*%
%TO.N,+3V3*%
X55540000Y-42000000D03*
%TD*%
%TO.P,J24,1*%
%TO.N,GND*%
X65000000Y-40000000D03*
%TO.P,J24,2*%
%TO.N,+3V3_SENS*%
X65000000Y-42540000D03*
%TD*%
%TO.P,J23,1*%
%TO.N,+3V3*%
X37000000Y-40000000D03*
%TO.P,J23,2*%
%TO.N,GND*%
X37000000Y-42540000D03*
%TO.P,J23,3*%
%TO.N,SENS_PWR*%
X37000000Y-45080000D03*
%TD*%
%TO.P,C11,1*%
%TO.N,+3V3*%
X44460000Y-37000000D03*
D10*
X45100000Y-37000000D03*
%TO.P,C11,2*%
%TO.N,GND*%
X48900000Y-37000000D03*
D11*
X49540000Y-37000000D03*
%TD*%
%TO.N,SENS_PWR*%
D13*
X39920000Y-48000000D02*
X37000000Y-45080000D01*
X44100000Y-48000000D02*
X39920000Y-48000000D01*
%TO.N,BASE3*%
X50775000Y-51000000D02*
X49248300Y-51000000D01*
X50775000Y-46765000D02*
X53000000Y-44540000D01*
X50775000Y-51000000D02*
X50775000Y-46765000D01*
X49248300Y-51000000D02*
X47900000Y-49651700D01*
X47900000Y-48000000D02*
X47900000Y-49651700D01*
X51100000Y-51000000D02*
X50775000Y-51000000D01*
%TO.N,+3V3*%
X38905500Y-49651700D02*
X45937500Y-49651700D01*
X54900000Y-42640000D02*
X55540000Y-42000000D01*
X51685000Y-55177500D02*
X46048300Y-49540900D01*
X36886100Y-40000000D02*
X35127500Y-41758600D01*
X54900000Y-52651700D02*
X54210800Y-52651700D01*
X54900000Y-51000000D02*
X54900000Y-42640000D01*
X45937500Y-49651700D02*
X46048300Y-49540900D01*
X35127500Y-45873700D02*
X38905500Y-49651700D01*
X46048300Y-40440000D02*
X44460000Y-38851700D01*
X50000000Y-56862500D02*
X50000000Y-57000000D01*
X46048300Y-49540900D02*
X46048300Y-40440000D01*
X54900000Y-51000000D02*
X54900000Y-52651700D01*
X35127500Y-41758600D02*
X35127500Y-45873700D01*
X51685000Y-55177500D02*
X50000000Y-56862500D01*
X44460000Y-37000000D02*
X44460000Y-38851700D01*
X37000000Y-40000000D02*
X36886100Y-40000000D01*
X54210800Y-52651700D02*
X51685000Y-55177500D01*
%TO.N,GND*%
X53608300Y-57000000D02*
X55884700Y-54723600D01*
X55884700Y-54723600D02*
X59148300Y-51460000D01*
X38851700Y-40803900D02*
X38851700Y-39389900D01*
X59562800Y-58401700D02*
X62720300Y-58401700D01*
X62720300Y-58401700D02*
X66900800Y-54221200D01*
X52540000Y-57000000D02*
X53608300Y-57000000D01*
X37115600Y-42540000D02*
X38851700Y-40803900D01*
X62000000Y-37000000D02*
X49540000Y-37000000D01*
X49540000Y-37000000D02*
X49540000Y-35148300D01*
X66900800Y-54221200D02*
X66900800Y-41822000D01*
X43093300Y-35148300D02*
X49540000Y-35148300D01*
X65078800Y-40000000D02*
X65000000Y-40000000D01*
X61000000Y-51460000D02*
X59148300Y-51460000D01*
X37000000Y-42540000D02*
X37115600Y-42540000D01*
X66900800Y-41822000D02*
X65078800Y-40000000D01*
X38851700Y-39389900D02*
X43093300Y-35148300D01*
X65000000Y-40000000D02*
X62000000Y-37000000D01*
X55884700Y-54723600D02*
X59562800Y-58401700D01*
%TO.N,+3V3_SENS*%
X63625000Y-42540000D02*
X65000000Y-42540000D01*
X63625000Y-55766700D02*
X62851700Y-56540000D01*
X61000000Y-56540000D02*
X62851700Y-56540000D01*
X50460000Y-42000000D02*
X52343800Y-40116200D01*
X52343800Y-40116200D02*
X61201200Y-40116200D01*
X63625000Y-42540000D02*
X63625000Y-55766700D01*
X61201200Y-40116200D02*
X63625000Y-42540000D01*
%TD*%
%TA.AperFunction,Conductor*%
%TO.N,GND*%
G36*
X74189320Y-30593910D02*
G01*
X74290360Y-30648590D01*
X74368171Y-30733115D01*
X74414321Y-30838326D01*
X74425000Y-30924000D01*
X74425000Y-64076000D01*
X74406090Y-64189320D01*
X74351410Y-64290360D01*
X74266885Y-64368171D01*
X74161674Y-64414321D01*
X74076000Y-64425000D01*
X30924000Y-64425000D01*
X30810680Y-64406090D01*
X30709640Y-64351410D01*
X30631829Y-64266885D01*
X30585679Y-64161674D01*
X30575000Y-64076000D01*
X30575000Y-61372158D01*
X31549500Y-61372158D01*
X31549500Y-61627841D01*
X31582872Y-61881329D01*
X31582875Y-61881346D01*
X31649050Y-62128313D01*
X31649050Y-62128315D01*
X31746891Y-62364524D01*
X31746896Y-62364535D01*
X31746897Y-62364536D01*
X31874738Y-62585964D01*
X31874739Y-62585966D01*
X31961833Y-62699468D01*
X32030390Y-62788813D01*
X32030396Y-62788819D01*
X32030401Y-62788825D01*
X32211174Y-62969598D01*
X32211180Y-62969603D01*
X32211187Y-62969610D01*
X32334947Y-63064574D01*
X32414033Y-63125260D01*
X32414035Y-63125261D01*
X32635465Y-63253104D01*
X32871687Y-63350950D01*
X33118660Y-63417126D01*
X33372157Y-63450500D01*
X33372159Y-63450500D01*
X33627841Y-63450500D01*
X33627843Y-63450500D01*
X33881340Y-63417126D01*
X34128313Y-63350950D01*
X34364535Y-63253104D01*
X34585965Y-63125261D01*
X34788813Y-62969610D01*
X34969610Y-62788813D01*
X35125261Y-62585965D01*
X35253104Y-62364535D01*
X35350950Y-62128313D01*
X35417126Y-61881340D01*
X35450500Y-61627843D01*
X35450500Y-61372158D01*
X69549500Y-61372158D01*
X69549500Y-61627841D01*
X69582872Y-61881329D01*
X69582875Y-61881346D01*
X69649050Y-62128313D01*
X69649050Y-62128315D01*
X69746891Y-62364524D01*
X69746896Y-62364535D01*
X69746897Y-62364536D01*
X69874738Y-62585964D01*
X69874739Y-62585966D01*
X69961833Y-62699468D01*
X70030390Y-62788813D01*
X70030396Y-62788819D01*
X70030401Y-62788825D01*
X70211174Y-62969598D01*
X70211180Y-62969603D01*
X70211187Y-62969610D01*
X70334947Y-63064574D01*
X70414033Y-63125260D01*
X70414035Y-63125261D01*
X70635465Y-63253104D01*
X70871687Y-63350950D01*
X71118660Y-63417126D01*
X71372157Y-63450500D01*
X71372159Y-63450500D01*
X71627841Y-63450500D01*
X71627843Y-63450500D01*
X71881340Y-63417126D01*
X72128313Y-63350950D01*
X72364535Y-63253104D01*
X72585965Y-63125261D01*
X72788813Y-62969610D01*
X72969610Y-62788813D01*
X73125261Y-62585965D01*
X73253104Y-62364535D01*
X73350950Y-62128313D01*
X73417126Y-61881340D01*
X73450500Y-61627843D01*
X73450500Y-61372157D01*
X73417126Y-61118660D01*
X73350950Y-60871687D01*
X73253104Y-60635465D01*
X73125261Y-60414035D01*
X73125260Y-60414033D01*
X73064574Y-60334947D01*
X72969610Y-60211187D01*
X72969603Y-60211180D01*
X72969598Y-60211174D01*
X72788825Y-60030401D01*
X72788819Y-60030396D01*
X72788813Y-60030390D01*
X72699468Y-59961833D01*
X72585966Y-59874739D01*
X72585964Y-59874738D01*
X72475250Y-59810817D01*
X72364535Y-59746896D01*
X72364529Y-59746893D01*
X72364524Y-59746891D01*
X72128314Y-59649050D01*
X71881346Y-59582875D01*
X71881329Y-59582872D01*
X71709726Y-59560280D01*
X71627843Y-59549500D01*
X71372157Y-59549500D01*
X71301660Y-59558781D01*
X71118670Y-59582872D01*
X71118653Y-59582875D01*
X70871686Y-59649050D01*
X70871684Y-59649050D01*
X70635475Y-59746891D01*
X70635463Y-59746897D01*
X70414035Y-59874738D01*
X70414033Y-59874739D01*
X70211192Y-60030386D01*
X70211174Y-60030401D01*
X70030401Y-60211174D01*
X70030386Y-60211192D01*
X69874739Y-60414033D01*
X69874738Y-60414035D01*
X69746897Y-60635463D01*
X69746891Y-60635475D01*
X69649050Y-60871684D01*
X69649050Y-60871686D01*
X69582875Y-61118653D01*
X69582872Y-61118670D01*
X69549500Y-61372158D01*
X35450500Y-61372158D01*
X35450500Y-61372157D01*
X35417126Y-61118660D01*
X35350950Y-60871687D01*
X35253104Y-60635465D01*
X35125261Y-60414035D01*
X35125260Y-60414033D01*
X35064574Y-60334947D01*
X34969610Y-60211187D01*
X34969603Y-60211180D01*
X34969598Y-60211174D01*
X34788825Y-60030401D01*
X34788819Y-60030396D01*
X34788813Y-60030390D01*
X34699468Y-59961833D01*
X34585966Y-59874739D01*
X34585964Y-59874738D01*
X34475250Y-59810817D01*
X34364535Y-59746896D01*
X34364529Y-59746893D01*
X34364524Y-59746891D01*
X34128314Y-59649050D01*
X33881346Y-59582875D01*
X33881329Y-59582872D01*
X33709726Y-59560280D01*
X33627843Y-59549500D01*
X33372157Y-59549500D01*
X33301660Y-59558781D01*
X33118670Y-59582872D01*
X33118653Y-59582875D01*
X32871686Y-59649050D01*
X32871684Y-59649050D01*
X32635475Y-59746891D01*
X32635463Y-59746897D01*
X32414035Y-59874738D01*
X32414033Y-59874739D01*
X32211192Y-60030386D01*
X32211174Y-60030401D01*
X32030401Y-60211174D01*
X32030386Y-60211192D01*
X31874739Y-60414033D01*
X31874738Y-60414035D01*
X31746897Y-60635463D01*
X31746891Y-60635475D01*
X31649050Y-60871684D01*
X31649050Y-60871686D01*
X31582875Y-61118653D01*
X31582872Y-61118670D01*
X31549500Y-61372158D01*
X30575000Y-61372158D01*
X30575000Y-41674833D01*
X34277000Y-41674833D01*
X34277000Y-41702137D01*
X34277000Y-45957468D01*
X34306219Y-46104367D01*
X34306220Y-46104367D01*
X34309684Y-46121781D01*
X34309687Y-46121791D01*
X34373794Y-46276560D01*
X34466873Y-46415862D01*
X34466876Y-46415866D01*
X38363332Y-50312322D01*
X38363335Y-50312324D01*
X38363338Y-50312327D01*
X38502637Y-50405404D01*
X38612079Y-50450735D01*
X38612086Y-50450739D01*
X38612086Y-50450738D01*
X38612089Y-50450739D01*
X38657418Y-50469516D01*
X38821732Y-50502200D01*
X38821733Y-50502200D01*
X38989267Y-50502200D01*
X45662260Y-50502200D01*
X45775580Y-50521110D01*
X45876620Y-50575790D01*
X45909038Y-50604418D01*
X50208415Y-54903718D01*
X50275174Y-54997218D01*
X50307956Y-55107328D01*
X50303210Y-55222117D01*
X50261448Y-55329145D01*
X50187198Y-55416814D01*
X50088504Y-55475624D01*
X49976063Y-55499202D01*
X49961637Y-55499500D01*
X49881903Y-55499500D01*
X49648638Y-55536445D01*
X49648623Y-55536449D01*
X49424015Y-55609429D01*
X49423999Y-55609436D01*
X49213572Y-55716653D01*
X49213567Y-55716656D01*
X49022488Y-55855484D01*
X48855484Y-56022488D01*
X48716656Y-56213567D01*
X48716653Y-56213572D01*
X48609436Y-56423999D01*
X48609429Y-56424015D01*
X48536449Y-56648623D01*
X48536445Y-56648638D01*
X48499500Y-56881903D01*
X48499500Y-57118096D01*
X48536445Y-57351361D01*
X48536449Y-57351376D01*
X48609429Y-57575984D01*
X48609436Y-57576000D01*
X48716653Y-57786427D01*
X48716656Y-57786432D01*
X48716657Y-57786433D01*
X48855483Y-57977510D01*
X49022490Y-58144517D01*
X49213567Y-58283343D01*
X49213572Y-58283346D01*
X49323411Y-58339311D01*
X49424008Y-58390568D01*
X49648632Y-58463553D01*
X49881908Y-58500500D01*
X49881912Y-58500500D01*
X50118088Y-58500500D01*
X50118092Y-58500500D01*
X50351368Y-58463553D01*
X50575992Y-58390568D01*
X50786433Y-58283343D01*
X50977510Y-58144517D01*
X51144517Y-57977510D01*
X51283343Y-57786433D01*
X51390568Y-57575992D01*
X51463553Y-57351368D01*
X51500500Y-57118092D01*
X51500500Y-56881908D01*
X51484958Y-56783779D01*
X51485907Y-56668899D01*
X51524108Y-56560549D01*
X51582877Y-56482410D01*
X52207273Y-55858014D01*
X52207281Y-55858008D01*
X52227166Y-55838123D01*
X52227168Y-55838122D01*
X52278992Y-55786297D01*
X52345627Y-55719662D01*
X54460869Y-53604420D01*
X54554369Y-53537662D01*
X54664480Y-53504880D01*
X54707649Y-53502200D01*
X54983767Y-53502200D01*
X55148082Y-53469516D01*
X55302863Y-53405403D01*
X55442162Y-53312326D01*
X55560626Y-53193862D01*
X55653703Y-53054563D01*
X55717816Y-52899782D01*
X55750500Y-52735467D01*
X55750500Y-52630958D01*
X55769410Y-52517638D01*
X55824090Y-52416598D01*
X55908615Y-52338787D01*
X55987883Y-52304016D01*
X55987027Y-52301721D01*
X56142328Y-52243797D01*
X56142327Y-52243797D01*
X56142331Y-52243796D01*
X56257546Y-52157546D01*
X56343796Y-52042331D01*
X56394091Y-51907483D01*
X56400500Y-51847873D01*
X56400499Y-50152128D01*
X56394091Y-50092517D01*
X56343796Y-49957669D01*
X56257546Y-49842454D01*
X56188621Y-49790857D01*
X56142329Y-49756202D01*
X55987029Y-49698280D01*
X55988032Y-49695589D01*
X55913292Y-49664215D01*
X55827539Y-49587760D01*
X55771256Y-49487603D01*
X55750544Y-49374599D01*
X55750500Y-49369041D01*
X55750500Y-43762886D01*
X55769410Y-43649566D01*
X55824090Y-43548526D01*
X55908615Y-43470715D01*
X55991647Y-43430970D01*
X56115992Y-43390568D01*
X56326433Y-43283343D01*
X56517510Y-43144517D01*
X56684517Y-42977510D01*
X56823343Y-42786433D01*
X56930568Y-42575992D01*
X57003553Y-42351368D01*
X57040500Y-42118092D01*
X57040500Y-41881908D01*
X57003553Y-41648632D01*
X56930568Y-41424008D01*
X56930567Y-41424006D01*
X56930418Y-41423547D01*
X56913385Y-41309930D01*
X56934165Y-41196938D01*
X56990509Y-41096816D01*
X57076309Y-41020413D01*
X57182268Y-40976009D01*
X57262337Y-40966700D01*
X60704351Y-40966700D01*
X60817671Y-40985610D01*
X60918711Y-41040290D01*
X60951131Y-41068920D01*
X62672280Y-42790069D01*
X62739038Y-42883569D01*
X62771820Y-42993680D01*
X62774500Y-43036849D01*
X62774500Y-54318030D01*
X62755590Y-54431350D01*
X62700910Y-54532390D01*
X62616385Y-54610201D01*
X62511174Y-54656351D01*
X62396680Y-54665838D01*
X62285308Y-54637635D01*
X62189129Y-54574798D01*
X62175541Y-54559757D01*
X62175196Y-54560103D01*
X62157550Y-54542457D01*
X62042329Y-54456202D01*
X61907483Y-54405909D01*
X61907485Y-54405909D01*
X61883639Y-54403345D01*
X61847873Y-54399500D01*
X61847870Y-54399500D01*
X60152129Y-54399500D01*
X60092514Y-54405909D01*
X60092511Y-54405910D01*
X59957671Y-54456202D01*
X59842454Y-54542454D01*
X59756202Y-54657670D01*
X59705909Y-54792515D01*
X59699500Y-54852129D01*
X59699500Y-55703450D01*
X59680590Y-55816770D01*
X59661462Y-55861890D01*
X59609434Y-55964000D01*
X59609432Y-55964007D01*
X59536449Y-56188623D01*
X59536445Y-56188638D01*
X59499500Y-56421903D01*
X59499500Y-56658096D01*
X59536445Y-56891361D01*
X59536449Y-56891376D01*
X59609429Y-57115984D01*
X59609436Y-57116000D01*
X59716653Y-57326427D01*
X59716656Y-57326432D01*
X59768389Y-57397636D01*
X59855483Y-57517510D01*
X60022490Y-57684517D01*
X60162757Y-57786427D01*
X60213567Y-57823343D01*
X60213572Y-57823346D01*
X60323411Y-57879311D01*
X60424008Y-57930568D01*
X60648632Y-58003553D01*
X60881908Y-58040500D01*
X60881912Y-58040500D01*
X61118088Y-58040500D01*
X61118092Y-58040500D01*
X61351368Y-58003553D01*
X61575992Y-57930568D01*
X61786433Y-57823343D01*
X61977510Y-57684517D01*
X62144517Y-57517510D01*
X62144525Y-57517498D01*
X62148498Y-57512848D01*
X62152752Y-57509274D01*
X62154213Y-57507814D01*
X62154340Y-57507941D01*
X62236471Y-57438958D01*
X62343670Y-57397636D01*
X62413884Y-57390500D01*
X62935467Y-57390500D01*
X63099782Y-57357816D01*
X63099784Y-57357815D01*
X63175546Y-57326434D01*
X63231418Y-57303290D01*
X63254563Y-57293704D01*
X63393862Y-57200627D01*
X64285626Y-56308862D01*
X64378703Y-56169563D01*
X64393390Y-56134106D01*
X64442816Y-56014782D01*
X64475500Y-55850467D01*
X64475500Y-44384757D01*
X64494410Y-44271437D01*
X64549090Y-44170397D01*
X64633615Y-44092586D01*
X64738826Y-44046436D01*
X64853320Y-44036949D01*
X64879077Y-44040051D01*
X64881908Y-44040500D01*
X64881914Y-44040500D01*
X65118088Y-44040500D01*
X65118092Y-44040500D01*
X65351368Y-44003553D01*
X65575992Y-43930568D01*
X65786433Y-43823343D01*
X65977510Y-43684517D01*
X66144517Y-43517510D01*
X66283343Y-43326433D01*
X66390568Y-43115992D01*
X66463553Y-42891368D01*
X66500500Y-42658092D01*
X66500500Y-42421908D01*
X66463553Y-42188632D01*
X66390568Y-41964008D01*
X66283343Y-41753567D01*
X66144517Y-41562490D01*
X65977510Y-41395483D01*
X65786433Y-41256657D01*
X65786434Y-41256657D01*
X65786432Y-41256656D01*
X65786427Y-41256653D01*
X65576000Y-41149436D01*
X65575998Y-41149435D01*
X65575992Y-41149432D01*
X65575987Y-41149430D01*
X65575984Y-41149429D01*
X65351376Y-41076449D01*
X65351361Y-41076445D01*
X65118096Y-41039500D01*
X65118092Y-41039500D01*
X64881908Y-41039500D01*
X64881903Y-41039500D01*
X64648638Y-41076445D01*
X64648623Y-41076449D01*
X64424015Y-41149429D01*
X64423999Y-41149436D01*
X64213572Y-41256653D01*
X64213554Y-41256664D01*
X64067163Y-41363024D01*
X63964371Y-41414334D01*
X63850487Y-41429486D01*
X63737854Y-41406840D01*
X63638677Y-41348848D01*
X63615247Y-41327457D01*
X61743366Y-39455576D01*
X61743362Y-39455573D01*
X61604063Y-39362496D01*
X61513394Y-39324940D01*
X61494613Y-39317161D01*
X61449280Y-39298383D01*
X61284968Y-39265700D01*
X61284967Y-39265700D01*
X52260033Y-39265700D01*
X52095718Y-39298384D01*
X52031603Y-39324941D01*
X51940942Y-39362493D01*
X51940936Y-39362496D01*
X51801638Y-39455572D01*
X51801634Y-39455575D01*
X50858372Y-40398837D01*
X50764871Y-40465596D01*
X50654761Y-40498377D01*
X50584216Y-40499982D01*
X50578093Y-40499500D01*
X50578092Y-40499500D01*
X50341908Y-40499500D01*
X50341903Y-40499500D01*
X50108638Y-40536445D01*
X50108623Y-40536449D01*
X49884015Y-40609429D01*
X49883999Y-40609436D01*
X49673572Y-40716653D01*
X49673567Y-40716656D01*
X49482488Y-40855484D01*
X49315484Y-41022488D01*
X49176656Y-41213567D01*
X49176653Y-41213572D01*
X49069436Y-41423999D01*
X49069432Y-41424009D01*
X48996449Y-41648623D01*
X48996445Y-41648638D01*
X48959500Y-41881903D01*
X48959500Y-42118096D01*
X48996445Y-42351361D01*
X48996449Y-42351376D01*
X49069429Y-42575984D01*
X49069436Y-42576000D01*
X49176653Y-42786427D01*
X49176656Y-42786432D01*
X49203406Y-42823250D01*
X49315483Y-42977510D01*
X49482490Y-43144517D01*
X49636837Y-43256657D01*
X49673567Y-43283343D01*
X49673572Y-43283346D01*
X49690767Y-43292107D01*
X49884008Y-43390568D01*
X50108632Y-43463553D01*
X50341908Y-43500500D01*
X50341912Y-43500500D01*
X50578088Y-43500500D01*
X50578092Y-43500500D01*
X50811368Y-43463553D01*
X51035992Y-43390568D01*
X51246433Y-43283343D01*
X51246437Y-43283339D01*
X51248105Y-43282490D01*
X51357658Y-43247892D01*
X51472510Y-43250741D01*
X51580214Y-43290728D01*
X51669098Y-43363520D01*
X51729531Y-43461228D01*
X51754964Y-43573264D01*
X51742640Y-43687489D01*
X51717510Y-43751893D01*
X51716657Y-43753566D01*
X51716657Y-43753567D01*
X51609432Y-43964008D01*
X51609432Y-43964009D01*
X51609429Y-43964015D01*
X51536449Y-44188623D01*
X51536445Y-44188638D01*
X51499500Y-44421903D01*
X51499500Y-44658090D01*
X51499982Y-44664216D01*
X51499500Y-44669753D01*
X51499500Y-44671804D01*
X51499321Y-44671804D01*
X51490019Y-44778670D01*
X51443433Y-44883688D01*
X51398837Y-44938372D01*
X50114377Y-46222832D01*
X50021294Y-46362139D01*
X49999044Y-46415858D01*
X49999043Y-46415862D01*
X49957184Y-46516918D01*
X49924500Y-46681232D01*
X49924500Y-46684821D01*
X49923636Y-46689995D01*
X49922819Y-46698296D01*
X49922260Y-46698240D01*
X49905590Y-46798141D01*
X49850910Y-46899181D01*
X49766385Y-46976992D01*
X49661174Y-47023142D01*
X49546680Y-47032629D01*
X49435308Y-47004426D01*
X49339129Y-46941589D01*
X49296113Y-46893972D01*
X49257546Y-46842454D01*
X49142329Y-46756202D01*
X49007483Y-46705909D01*
X49007485Y-46705909D01*
X48977678Y-46702704D01*
X48947873Y-46699500D01*
X48947871Y-46699500D01*
X47247800Y-46699500D01*
X47134480Y-46680590D01*
X47033440Y-46625910D01*
X46955629Y-46541385D01*
X46909479Y-46436174D01*
X46898800Y-46350500D01*
X46898800Y-40356232D01*
X46878387Y-40253610D01*
X46866116Y-40191918D01*
X46802003Y-40037137D01*
X46802002Y-40037136D01*
X46802003Y-40037136D01*
X46755304Y-39967248D01*
X46708926Y-39897838D01*
X46590462Y-39779374D01*
X46173581Y-39362493D01*
X45707368Y-38896279D01*
X45640609Y-38802778D01*
X45607828Y-38692668D01*
X45612576Y-38577879D01*
X45654338Y-38470851D01*
X45728590Y-38383183D01*
X45827284Y-38324374D01*
X45939726Y-38300797D01*
X45954148Y-38300499D01*
X46147871Y-38300499D01*
X46147872Y-38300499D01*
X46207483Y-38294091D01*
X46342331Y-38243796D01*
X46457546Y-38157546D01*
X46543796Y-38042331D01*
X46594091Y-37907483D01*
X46600500Y-37847873D01*
X46600499Y-36152128D01*
X46594091Y-36092517D01*
X46543796Y-35957669D01*
X46457546Y-35842454D01*
X46388621Y-35790857D01*
X46342329Y-35756202D01*
X46207483Y-35705909D01*
X46207485Y-35705909D01*
X46177678Y-35702704D01*
X46147873Y-35699500D01*
X46147871Y-35699500D01*
X45296548Y-35699500D01*
X45183228Y-35680590D01*
X45138109Y-35661463D01*
X45035992Y-35609432D01*
X45035983Y-35609429D01*
X44811376Y-35536449D01*
X44811361Y-35536445D01*
X44578096Y-35499500D01*
X44578092Y-35499500D01*
X44341908Y-35499500D01*
X44341903Y-35499500D01*
X44108638Y-35536445D01*
X44108623Y-35536449D01*
X43884015Y-35609429D01*
X43883999Y-35609436D01*
X43673572Y-35716653D01*
X43673567Y-35716656D01*
X43482488Y-35855484D01*
X43315484Y-36022488D01*
X43176656Y-36213567D01*
X43176653Y-36213572D01*
X43069436Y-36423999D01*
X43069429Y-36424015D01*
X42996449Y-36648623D01*
X42996445Y-36648638D01*
X42959500Y-36881903D01*
X42959500Y-37118096D01*
X42996445Y-37351361D01*
X42996449Y-37351376D01*
X43069429Y-37575984D01*
X43069436Y-37576000D01*
X43176653Y-37786427D01*
X43176656Y-37786432D01*
X43176657Y-37786433D01*
X43315483Y-37977510D01*
X43482490Y-38144517D01*
X43482494Y-38144520D01*
X43487152Y-38148498D01*
X43490725Y-38152752D01*
X43492186Y-38154213D01*
X43492058Y-38154340D01*
X43561042Y-38236471D01*
X43602364Y-38343670D01*
X43609500Y-38413884D01*
X43609500Y-38935471D01*
X43642184Y-39099784D01*
X43706294Y-39254560D01*
X43706295Y-39254562D01*
X43706296Y-39254563D01*
X43748123Y-39317162D01*
X43799376Y-39393866D01*
X45095580Y-40690068D01*
X45162338Y-40783568D01*
X45195120Y-40893679D01*
X45197800Y-40936848D01*
X45197800Y-46350500D01*
X45178890Y-46463820D01*
X45124210Y-46564860D01*
X45039685Y-46642671D01*
X44934474Y-46688821D01*
X44848800Y-46699500D01*
X43052129Y-46699500D01*
X42992514Y-46705909D01*
X42992511Y-46705910D01*
X42857671Y-46756202D01*
X42742454Y-46842454D01*
X42656202Y-46957671D01*
X42650696Y-46967756D01*
X42579791Y-47058153D01*
X42483376Y-47120629D01*
X42371900Y-47148414D01*
X42344385Y-47149500D01*
X40416849Y-47149500D01*
X40303529Y-47130590D01*
X40202489Y-47075910D01*
X40170069Y-47047280D01*
X38601162Y-45478373D01*
X38534404Y-45384873D01*
X38501622Y-45274762D01*
X38500019Y-45204201D01*
X38500500Y-45198091D01*
X38500500Y-44961912D01*
X38500499Y-44961903D01*
X38463554Y-44728638D01*
X38463553Y-44728637D01*
X38463553Y-44728632D01*
X38390568Y-44504008D01*
X38283343Y-44293567D01*
X38144517Y-44102490D01*
X37977510Y-43935483D01*
X37786433Y-43796657D01*
X37786434Y-43796657D01*
X37786432Y-43796656D01*
X37786427Y-43796653D01*
X37576000Y-43689436D01*
X37575998Y-43689435D01*
X37575992Y-43689432D01*
X37575987Y-43689430D01*
X37575984Y-43689429D01*
X37351376Y-43616449D01*
X37351361Y-43616445D01*
X37118096Y-43579500D01*
X37118092Y-43579500D01*
X36881908Y-43579500D01*
X36881903Y-43579500D01*
X36648638Y-43616445D01*
X36648630Y-43616447D01*
X36434847Y-43685910D01*
X36321229Y-43702943D01*
X36208237Y-43682162D01*
X36108115Y-43625819D01*
X36031713Y-43540019D01*
X35987309Y-43434060D01*
X35978000Y-43353991D01*
X35978000Y-42255448D01*
X35996910Y-42142128D01*
X36051590Y-42041088D01*
X36080205Y-42008683D01*
X36502785Y-41586102D01*
X36596279Y-41519350D01*
X36706390Y-41486568D01*
X36804153Y-41488184D01*
X36881908Y-41500500D01*
X36881912Y-41500500D01*
X37118088Y-41500500D01*
X37118092Y-41500500D01*
X37351368Y-41463553D01*
X37575992Y-41390568D01*
X37786433Y-41283343D01*
X37977510Y-41144517D01*
X38144517Y-40977510D01*
X38283343Y-40786433D01*
X38390568Y-40575992D01*
X38463553Y-40351368D01*
X38500500Y-40118092D01*
X38500500Y-39881908D01*
X38463553Y-39648632D01*
X38390568Y-39424008D01*
X38336127Y-39317161D01*
X38283346Y-39213572D01*
X38283343Y-39213567D01*
X38144517Y-39022490D01*
X37977510Y-38855483D01*
X37786433Y-38716657D01*
X37786434Y-38716657D01*
X37786432Y-38716656D01*
X37786427Y-38716653D01*
X37576000Y-38609436D01*
X37575998Y-38609435D01*
X37575992Y-38609432D01*
X37575987Y-38609430D01*
X37575984Y-38609429D01*
X37351376Y-38536449D01*
X37351361Y-38536445D01*
X37118096Y-38499500D01*
X37118092Y-38499500D01*
X36881908Y-38499500D01*
X36881903Y-38499500D01*
X36648638Y-38536445D01*
X36648623Y-38536449D01*
X36424015Y-38609429D01*
X36423999Y-38609436D01*
X36213572Y-38716653D01*
X36213567Y-38716656D01*
X36022488Y-38855484D01*
X35855484Y-39022488D01*
X35716656Y-39213567D01*
X35716653Y-39213572D01*
X35609436Y-39423999D01*
X35609429Y-39424015D01*
X35536449Y-39648623D01*
X35536445Y-39648638D01*
X35499500Y-39881903D01*
X35499500Y-40039250D01*
X35480590Y-40152570D01*
X35425910Y-40253610D01*
X35397280Y-40286030D01*
X34466877Y-41216432D01*
X34373794Y-41355738D01*
X34354840Y-41401500D01*
X34354838Y-41401505D01*
X34345518Y-41424008D01*
X34309684Y-41510518D01*
X34277000Y-41674833D01*
X30575000Y-41674833D01*
X30575000Y-33372158D01*
X31549500Y-33372158D01*
X31549500Y-33627841D01*
X31582872Y-33881329D01*
X31582875Y-33881346D01*
X31649050Y-34128313D01*
X31649050Y-34128315D01*
X31746891Y-34364524D01*
X31746896Y-34364535D01*
X31746897Y-34364536D01*
X31874738Y-34585964D01*
X31874739Y-34585966D01*
X31961833Y-34699468D01*
X32030390Y-34788813D01*
X32030396Y-34788819D01*
X32030401Y-34788825D01*
X32211174Y-34969598D01*
X32211180Y-34969603D01*
X32211187Y-34969610D01*
X32334947Y-35064574D01*
X32414033Y-35125260D01*
X32414035Y-35125261D01*
X32635465Y-35253104D01*
X32871687Y-35350950D01*
X33118660Y-35417126D01*
X33372157Y-35450500D01*
X33372159Y-35450500D01*
X33627841Y-35450500D01*
X33627843Y-35450500D01*
X33881340Y-35417126D01*
X34128313Y-35350950D01*
X34364535Y-35253104D01*
X34585965Y-35125261D01*
X34788813Y-34969610D01*
X34969610Y-34788813D01*
X35125261Y-34585965D01*
X35253104Y-34364535D01*
X35350950Y-34128313D01*
X35417126Y-33881340D01*
X35450500Y-33627843D01*
X35450500Y-33372158D01*
X69549500Y-33372158D01*
X69549500Y-33627841D01*
X69582872Y-33881329D01*
X69582875Y-33881346D01*
X69649050Y-34128313D01*
X69649050Y-34128315D01*
X69746891Y-34364524D01*
X69746896Y-34364535D01*
X69746897Y-34364536D01*
X69874738Y-34585964D01*
X69874739Y-34585966D01*
X69961833Y-34699468D01*
X70030390Y-34788813D01*
X70030396Y-34788819D01*
X70030401Y-34788825D01*
X70211174Y-34969598D01*
X70211180Y-34969603D01*
X70211187Y-34969610D01*
X70334947Y-35064574D01*
X70414033Y-35125260D01*
X70414035Y-35125261D01*
X70635465Y-35253104D01*
X70871687Y-35350950D01*
X71118660Y-35417126D01*
X71372157Y-35450500D01*
X71372159Y-35450500D01*
X71627841Y-35450500D01*
X71627843Y-35450500D01*
X71881340Y-35417126D01*
X72128313Y-35350950D01*
X72364535Y-35253104D01*
X72585965Y-35125261D01*
X72788813Y-34969610D01*
X72969610Y-34788813D01*
X73125261Y-34585965D01*
X73253104Y-34364535D01*
X73350950Y-34128313D01*
X73417126Y-33881340D01*
X73450500Y-33627843D01*
X73450500Y-33372157D01*
X73417126Y-33118660D01*
X73350950Y-32871687D01*
X73253104Y-32635465D01*
X73125261Y-32414035D01*
X73125260Y-32414033D01*
X73064574Y-32334947D01*
X72969610Y-32211187D01*
X72969603Y-32211180D01*
X72969598Y-32211174D01*
X72788825Y-32030401D01*
X72788819Y-32030396D01*
X72788813Y-32030390D01*
X72699468Y-31961833D01*
X72585966Y-31874739D01*
X72585964Y-31874738D01*
X72475250Y-31810817D01*
X72364535Y-31746896D01*
X72364529Y-31746893D01*
X72364524Y-31746891D01*
X72128314Y-31649050D01*
X71881346Y-31582875D01*
X71881329Y-31582872D01*
X71709726Y-31560280D01*
X71627843Y-31549500D01*
X71372157Y-31549500D01*
X71301660Y-31558781D01*
X71118670Y-31582872D01*
X71118653Y-31582875D01*
X70871686Y-31649050D01*
X70871684Y-31649050D01*
X70635475Y-31746891D01*
X70635463Y-31746897D01*
X70414035Y-31874738D01*
X70414033Y-31874739D01*
X70211192Y-32030386D01*
X70211174Y-32030401D01*
X70030401Y-32211174D01*
X70030386Y-32211192D01*
X69874739Y-32414033D01*
X69874738Y-32414035D01*
X69746897Y-32635463D01*
X69746891Y-32635475D01*
X69649050Y-32871684D01*
X69649050Y-32871686D01*
X69582875Y-33118653D01*
X69582872Y-33118670D01*
X69549500Y-33372158D01*
X35450500Y-33372158D01*
X35450500Y-33372157D01*
X35417126Y-33118660D01*
X35350950Y-32871687D01*
X35253104Y-32635465D01*
X35125261Y-32414035D01*
X35125260Y-32414033D01*
X35064574Y-32334947D01*
X34969610Y-32211187D01*
X34969603Y-32211180D01*
X34969598Y-32211174D01*
X34788825Y-32030401D01*
X34788819Y-32030396D01*
X34788813Y-32030390D01*
X34699468Y-31961833D01*
X34585966Y-31874739D01*
X34585964Y-31874738D01*
X34475250Y-31810817D01*
X34364535Y-31746896D01*
X34364529Y-31746893D01*
X34364524Y-31746891D01*
X34128314Y-31649050D01*
X33881346Y-31582875D01*
X33881329Y-31582872D01*
X33709726Y-31560280D01*
X33627843Y-31549500D01*
X33372157Y-31549500D01*
X33301660Y-31558781D01*
X33118670Y-31582872D01*
X33118653Y-31582875D01*
X32871686Y-31649050D01*
X32871684Y-31649050D01*
X32635475Y-31746891D01*
X32635463Y-31746897D01*
X32414035Y-31874738D01*
X32414033Y-31874739D01*
X32211192Y-32030386D01*
X32211174Y-32030401D01*
X32030401Y-32211174D01*
X32030386Y-32211192D01*
X31874739Y-32414033D01*
X31874738Y-32414035D01*
X31746897Y-32635463D01*
X31746891Y-32635475D01*
X31649050Y-32871684D01*
X31649050Y-32871686D01*
X31582875Y-33118653D01*
X31582872Y-33118670D01*
X31549500Y-33372158D01*
X30575000Y-33372158D01*
X30575000Y-30924000D01*
X30593910Y-30810680D01*
X30648590Y-30709640D01*
X30733115Y-30631829D01*
X30838326Y-30585679D01*
X30924000Y-30575000D01*
X74076000Y-30575000D01*
X74189320Y-30593910D01*
G37*
%TD.AperFunction*%
%TD*%
M02*
