%TF.GenerationSoftware,KiCad,Pcbnew,10.0.6*%
%TF.CreationDate,2026-09-09T21:24:30+03:00*%
%TF.ProjectId,candidate,63616e64-6964-4617-9465-2e6b69636164,rev?*%
%TF.SameCoordinates,Original*%
%TF.FileFunction,Legend,Top*%
%TF.FilePolarity,Positive*%
%FSLAX46Y46*%
G04 Gerber Fmt 4.6, Leading zero omitted, Abs format (unit mm)*
G04 Created by KiCad (PCBNEW 10.0.6) date 2026-09-09 21:24:30*
%MOMM*%
%LPD*%
G01*
G04 APERTURE LIST*
%ADD10C,0.120000*%
G04 APERTURE END LIST*
D10*
X49271428Y-149010117D02*
X49271428Y-149652974D01*
X49271428Y-149652974D02*
X49228571Y-149781545D01*
X49228571Y-149781545D02*
X49142857Y-149867260D01*
X49142857Y-149867260D02*
X49014285Y-149910117D01*
X49014285Y-149910117D02*
X48928571Y-149910117D01*
X49614285Y-149010117D02*
X50171428Y-149010117D01*
X50171428Y-149010117D02*
X49871428Y-149352974D01*
X49871428Y-149352974D02*
X49999999Y-149352974D01*
X49999999Y-149352974D02*
X50085714Y-149395831D01*
X50085714Y-149395831D02*
X50128571Y-149438688D01*
X50128571Y-149438688D02*
X50171428Y-149524402D01*
X50171428Y-149524402D02*
X50171428Y-149738688D01*
X50171428Y-149738688D02*
X50128571Y-149824402D01*
X50128571Y-149824402D02*
X50085714Y-149867260D01*
X50085714Y-149867260D02*
X49999999Y-149910117D01*
X49999999Y-149910117D02*
X49742856Y-149910117D01*
X49742856Y-149910117D02*
X49657142Y-149867260D01*
X49657142Y-149867260D02*
X49614285Y-149824402D01*
X50728571Y-149010117D02*
X50814285Y-149010117D01*
X50814285Y-149010117D02*
X50899999Y-149052974D01*
X50899999Y-149052974D02*
X50942857Y-149095831D01*
X50942857Y-149095831D02*
X50985714Y-149181545D01*
X50985714Y-149181545D02*
X51028571Y-149352974D01*
X51028571Y-149352974D02*
X51028571Y-149567260D01*
X51028571Y-149567260D02*
X50985714Y-149738688D01*
X50985714Y-149738688D02*
X50942857Y-149824402D01*
X50942857Y-149824402D02*
X50899999Y-149867260D01*
X50899999Y-149867260D02*
X50814285Y-149910117D01*
X50814285Y-149910117D02*
X50728571Y-149910117D01*
X50728571Y-149910117D02*
X50642857Y-149867260D01*
X50642857Y-149867260D02*
X50599999Y-149824402D01*
X50599999Y-149824402D02*
X50557142Y-149738688D01*
X50557142Y-149738688D02*
X50514285Y-149567260D01*
X50514285Y-149567260D02*
X50514285Y-149352974D01*
X50514285Y-149352974D02*
X50557142Y-149181545D01*
X50557142Y-149181545D02*
X50599999Y-149095831D01*
X50599999Y-149095831D02*
X50642857Y-149052974D01*
X50642857Y-149052974D02*
X50728571Y-149010117D01*
X57921428Y-149324402D02*
X57878571Y-149367260D01*
X57878571Y-149367260D02*
X57749999Y-149410117D01*
X57749999Y-149410117D02*
X57664285Y-149410117D01*
X57664285Y-149410117D02*
X57535714Y-149367260D01*
X57535714Y-149367260D02*
X57449999Y-149281545D01*
X57449999Y-149281545D02*
X57407142Y-149195831D01*
X57407142Y-149195831D02*
X57364285Y-149024402D01*
X57364285Y-149024402D02*
X57364285Y-148895831D01*
X57364285Y-148895831D02*
X57407142Y-148724402D01*
X57407142Y-148724402D02*
X57449999Y-148638688D01*
X57449999Y-148638688D02*
X57535714Y-148552974D01*
X57535714Y-148552974D02*
X57664285Y-148510117D01*
X57664285Y-148510117D02*
X57749999Y-148510117D01*
X57749999Y-148510117D02*
X57878571Y-148552974D01*
X57878571Y-148552974D02*
X57921428Y-148595831D01*
X58778571Y-149410117D02*
X58264285Y-149410117D01*
X58521428Y-149410117D02*
X58521428Y-148510117D01*
X58521428Y-148510117D02*
X58435714Y-148638688D01*
X58435714Y-148638688D02*
X58349999Y-148724402D01*
X58349999Y-148724402D02*
X58264285Y-148767260D01*
X59121428Y-148595831D02*
X59164285Y-148552974D01*
X59164285Y-148552974D02*
X59250000Y-148510117D01*
X59250000Y-148510117D02*
X59464285Y-148510117D01*
X59464285Y-148510117D02*
X59550000Y-148552974D01*
X59550000Y-148552974D02*
X59592857Y-148595831D01*
X59592857Y-148595831D02*
X59635714Y-148681545D01*
X59635714Y-148681545D02*
X59635714Y-148767260D01*
X59635714Y-148767260D02*
X59592857Y-148895831D01*
X59592857Y-148895831D02*
X59078571Y-149410117D01*
X59078571Y-149410117D02*
X59635714Y-149410117D01*
X52421428Y-143910117D02*
X52121428Y-143481545D01*
X51907142Y-143910117D02*
X51907142Y-143010117D01*
X51907142Y-143010117D02*
X52249999Y-143010117D01*
X52249999Y-143010117D02*
X52335714Y-143052974D01*
X52335714Y-143052974D02*
X52378571Y-143095831D01*
X52378571Y-143095831D02*
X52421428Y-143181545D01*
X52421428Y-143181545D02*
X52421428Y-143310117D01*
X52421428Y-143310117D02*
X52378571Y-143395831D01*
X52378571Y-143395831D02*
X52335714Y-143438688D01*
X52335714Y-143438688D02*
X52249999Y-143481545D01*
X52249999Y-143481545D02*
X51907142Y-143481545D01*
X53278571Y-143910117D02*
X52764285Y-143910117D01*
X53021428Y-143910117D02*
X53021428Y-143010117D01*
X53021428Y-143010117D02*
X52935714Y-143138688D01*
X52935714Y-143138688D02*
X52849999Y-143224402D01*
X52849999Y-143224402D02*
X52764285Y-143267260D01*
X54135714Y-143910117D02*
X53621428Y-143910117D01*
X53878571Y-143910117D02*
X53878571Y-143010117D01*
X53878571Y-143010117D02*
X53792857Y-143138688D01*
X53792857Y-143138688D02*
X53707142Y-143224402D01*
X53707142Y-143224402D02*
X53621428Y-143267260D01*
X45421428Y-140910117D02*
X45121428Y-140481545D01*
X44907142Y-140910117D02*
X44907142Y-140010117D01*
X44907142Y-140010117D02*
X45249999Y-140010117D01*
X45249999Y-140010117D02*
X45335714Y-140052974D01*
X45335714Y-140052974D02*
X45378571Y-140095831D01*
X45378571Y-140095831D02*
X45421428Y-140181545D01*
X45421428Y-140181545D02*
X45421428Y-140310117D01*
X45421428Y-140310117D02*
X45378571Y-140395831D01*
X45378571Y-140395831D02*
X45335714Y-140438688D01*
X45335714Y-140438688D02*
X45249999Y-140481545D01*
X45249999Y-140481545D02*
X44907142Y-140481545D01*
X46278571Y-140910117D02*
X45764285Y-140910117D01*
X46021428Y-140910117D02*
X46021428Y-140010117D01*
X46021428Y-140010117D02*
X45935714Y-140138688D01*
X45935714Y-140138688D02*
X45849999Y-140224402D01*
X45849999Y-140224402D02*
X45764285Y-140267260D01*
X46835714Y-140010117D02*
X46921428Y-140010117D01*
X46921428Y-140010117D02*
X47007142Y-140052974D01*
X47007142Y-140052974D02*
X47050000Y-140095831D01*
X47050000Y-140095831D02*
X47092857Y-140181545D01*
X47092857Y-140181545D02*
X47135714Y-140352974D01*
X47135714Y-140352974D02*
X47135714Y-140567260D01*
X47135714Y-140567260D02*
X47092857Y-140738688D01*
X47092857Y-140738688D02*
X47050000Y-140824402D01*
X47050000Y-140824402D02*
X47007142Y-140867260D01*
X47007142Y-140867260D02*
X46921428Y-140910117D01*
X46921428Y-140910117D02*
X46835714Y-140910117D01*
X46835714Y-140910117D02*
X46750000Y-140867260D01*
X46750000Y-140867260D02*
X46707142Y-140824402D01*
X46707142Y-140824402D02*
X46664285Y-140738688D01*
X46664285Y-140738688D02*
X46621428Y-140567260D01*
X46621428Y-140567260D02*
X46621428Y-140352974D01*
X46621428Y-140352974D02*
X46664285Y-140181545D01*
X46664285Y-140181545D02*
X46707142Y-140095831D01*
X46707142Y-140095831D02*
X46750000Y-140052974D01*
X46750000Y-140052974D02*
X46835714Y-140010117D01*
X52914285Y-134995831D02*
X52828571Y-134952974D01*
X52828571Y-134952974D02*
X52742857Y-134867260D01*
X52742857Y-134867260D02*
X52614285Y-134738688D01*
X52614285Y-134738688D02*
X52528571Y-134695831D01*
X52528571Y-134695831D02*
X52442857Y-134695831D01*
X52485714Y-134910117D02*
X52400000Y-134867260D01*
X52400000Y-134867260D02*
X52314285Y-134781545D01*
X52314285Y-134781545D02*
X52271428Y-134610117D01*
X52271428Y-134610117D02*
X52271428Y-134310117D01*
X52271428Y-134310117D02*
X52314285Y-134138688D01*
X52314285Y-134138688D02*
X52400000Y-134052974D01*
X52400000Y-134052974D02*
X52485714Y-134010117D01*
X52485714Y-134010117D02*
X52657142Y-134010117D01*
X52657142Y-134010117D02*
X52742857Y-134052974D01*
X52742857Y-134052974D02*
X52828571Y-134138688D01*
X52828571Y-134138688D02*
X52871428Y-134310117D01*
X52871428Y-134310117D02*
X52871428Y-134610117D01*
X52871428Y-134610117D02*
X52828571Y-134781545D01*
X52828571Y-134781545D02*
X52742857Y-134867260D01*
X52742857Y-134867260D02*
X52657142Y-134910117D01*
X52657142Y-134910117D02*
X52485714Y-134910117D01*
X53171428Y-134010117D02*
X53728571Y-134010117D01*
X53728571Y-134010117D02*
X53428571Y-134352974D01*
X53428571Y-134352974D02*
X53557142Y-134352974D01*
X53557142Y-134352974D02*
X53642857Y-134395831D01*
X53642857Y-134395831D02*
X53685714Y-134438688D01*
X53685714Y-134438688D02*
X53728571Y-134524402D01*
X53728571Y-134524402D02*
X53728571Y-134738688D01*
X53728571Y-134738688D02*
X53685714Y-134824402D01*
X53685714Y-134824402D02*
X53642857Y-134867260D01*
X53642857Y-134867260D02*
X53557142Y-134910117D01*
X53557142Y-134910117D02*
X53299999Y-134910117D01*
X53299999Y-134910117D02*
X53214285Y-134867260D01*
X53214285Y-134867260D02*
X53171428Y-134824402D01*
X67271428Y-134510117D02*
X67271428Y-135152974D01*
X67271428Y-135152974D02*
X67228571Y-135281545D01*
X67228571Y-135281545D02*
X67142857Y-135367260D01*
X67142857Y-135367260D02*
X67014285Y-135410117D01*
X67014285Y-135410117D02*
X66928571Y-135410117D01*
X67657142Y-134595831D02*
X67699999Y-134552974D01*
X67699999Y-134552974D02*
X67785714Y-134510117D01*
X67785714Y-134510117D02*
X67999999Y-134510117D01*
X67999999Y-134510117D02*
X68085714Y-134552974D01*
X68085714Y-134552974D02*
X68128571Y-134595831D01*
X68128571Y-134595831D02*
X68171428Y-134681545D01*
X68171428Y-134681545D02*
X68171428Y-134767260D01*
X68171428Y-134767260D02*
X68128571Y-134895831D01*
X68128571Y-134895831D02*
X67614285Y-135410117D01*
X67614285Y-135410117D02*
X68171428Y-135410117D01*
X68942857Y-134810117D02*
X68942857Y-135410117D01*
X68728571Y-134467260D02*
X68514285Y-135110117D01*
X68514285Y-135110117D02*
X69071428Y-135110117D01*
X46421428Y-129824402D02*
X46378571Y-129867260D01*
X46378571Y-129867260D02*
X46249999Y-129910117D01*
X46249999Y-129910117D02*
X46164285Y-129910117D01*
X46164285Y-129910117D02*
X46035714Y-129867260D01*
X46035714Y-129867260D02*
X45949999Y-129781545D01*
X45949999Y-129781545D02*
X45907142Y-129695831D01*
X45907142Y-129695831D02*
X45864285Y-129524402D01*
X45864285Y-129524402D02*
X45864285Y-129395831D01*
X45864285Y-129395831D02*
X45907142Y-129224402D01*
X45907142Y-129224402D02*
X45949999Y-129138688D01*
X45949999Y-129138688D02*
X46035714Y-129052974D01*
X46035714Y-129052974D02*
X46164285Y-129010117D01*
X46164285Y-129010117D02*
X46249999Y-129010117D01*
X46249999Y-129010117D02*
X46378571Y-129052974D01*
X46378571Y-129052974D02*
X46421428Y-129095831D01*
X47278571Y-129910117D02*
X46764285Y-129910117D01*
X47021428Y-129910117D02*
X47021428Y-129010117D01*
X47021428Y-129010117D02*
X46935714Y-129138688D01*
X46935714Y-129138688D02*
X46849999Y-129224402D01*
X46849999Y-129224402D02*
X46764285Y-129267260D01*
X48135714Y-129910117D02*
X47621428Y-129910117D01*
X47878571Y-129910117D02*
X47878571Y-129010117D01*
X47878571Y-129010117D02*
X47792857Y-129138688D01*
X47792857Y-129138688D02*
X47707142Y-129224402D01*
X47707142Y-129224402D02*
X47621428Y-129267260D01*
X39271428Y-134510117D02*
X39271428Y-135152974D01*
X39271428Y-135152974D02*
X39228571Y-135281545D01*
X39228571Y-135281545D02*
X39142857Y-135367260D01*
X39142857Y-135367260D02*
X39014285Y-135410117D01*
X39014285Y-135410117D02*
X38928571Y-135410117D01*
X39657142Y-134595831D02*
X39699999Y-134552974D01*
X39699999Y-134552974D02*
X39785714Y-134510117D01*
X39785714Y-134510117D02*
X39999999Y-134510117D01*
X39999999Y-134510117D02*
X40085714Y-134552974D01*
X40085714Y-134552974D02*
X40128571Y-134595831D01*
X40128571Y-134595831D02*
X40171428Y-134681545D01*
X40171428Y-134681545D02*
X40171428Y-134767260D01*
X40171428Y-134767260D02*
X40128571Y-134895831D01*
X40128571Y-134895831D02*
X39614285Y-135410117D01*
X39614285Y-135410117D02*
X40171428Y-135410117D01*
X40471428Y-134510117D02*
X41028571Y-134510117D01*
X41028571Y-134510117D02*
X40728571Y-134852974D01*
X40728571Y-134852974D02*
X40857142Y-134852974D01*
X40857142Y-134852974D02*
X40942857Y-134895831D01*
X40942857Y-134895831D02*
X40985714Y-134938688D01*
X40985714Y-134938688D02*
X41028571Y-135024402D01*
X41028571Y-135024402D02*
X41028571Y-135238688D01*
X41028571Y-135238688D02*
X40985714Y-135324402D01*
X40985714Y-135324402D02*
X40942857Y-135367260D01*
X40942857Y-135367260D02*
X40857142Y-135410117D01*
X40857142Y-135410117D02*
X40599999Y-135410117D01*
X40599999Y-135410117D02*
X40514285Y-135367260D01*
X40514285Y-135367260D02*
X40471428Y-135324402D01*
M02*
