%TF.GenerationSoftware,KiCad,Pcbnew,10.0.6*%
%TF.CreationDate,2026-09-09T18:40:00+03:00*%
%TF.ProjectId,candidate,63616e64-6964-4617-9465-2e6b69636164,rev?*%
%TF.SameCoordinates,Original*%
%TF.FileFunction,Copper,L2,Bot*%
%TF.FilePolarity,Positive*%
%FSLAX46Y46*%
G04 Gerber Fmt 4.6, Leading zero omitted, Abs format (unit mm)*
G04 Created by KiCad (PCBNEW 10.0.6) date 2026-09-09 18:40:00*
%MOMM*%
%LPD*%
G01*
G04 APERTURE LIST*
%TA.AperFunction,SMDPad,CuDef*%
%ADD10R,2.000000X1.600000*%
%TD*%
%TA.AperFunction,ComponentPad*%
%ADD11C,2.000000*%
%TD*%
%TA.AperFunction,SMDPad,CuDef*%
%ADD12R,1.600000X2.000000*%
%TD*%
%TA.AperFunction,Conductor*%
%ADD13C,0.800000*%
%TD*%
%TA.AperFunction,Conductor*%
%ADD14C,1.000000*%
%TD*%
G04 APERTURE END LIST*
D10*
%TO.P,R11,1*%
%TO.N,BASE3*%
X51100000Y-51000000D03*
%TO.P,R11,2*%
%TO.N,+3V3*%
X54900000Y-51000000D03*
%TD*%
D11*
%TO.P,C12,1*%
%TO.N,+3V3_SENS*%
X61000000Y-56540000D03*
D12*
X61000000Y-55900000D03*
%TO.P,C12,2*%
%TO.N,GND*%
X61000000Y-52100000D03*
D11*
X61000000Y-51460000D03*
%TD*%
%TO.P,C11,1*%
%TO.N,+3V3*%
X44460000Y-37000000D03*
D10*
X45100000Y-37000000D03*
%TO.P,C11,2*%
%TO.N,GND*%
X48900000Y-37000000D03*
D11*
X49540000Y-37000000D03*
%TD*%
%TO.P,J24,1*%
%TO.N,GND*%
X65000000Y-40000000D03*
%TO.P,J24,2*%
%TO.N,+3V3_SENS*%
X65000000Y-42540000D03*
%TD*%
%TO.P,J23,1*%
%TO.N,+3V3*%
X37000000Y-40000000D03*
%TO.P,J23,2*%
%TO.N,GND*%
X37000000Y-42540000D03*
%TO.P,J23,3*%
%TO.N,SENS_PWR*%
X37000000Y-45080000D03*
%TD*%
%TO.P,Q3,1*%
%TO.N,+3V3_SENS*%
X50460000Y-42000000D03*
%TO.P,Q3,2*%
%TO.N,BASE3*%
X53000000Y-44540000D03*
%TO.P,Q3,3*%
%TO.N,+3V3*%
X55540000Y-42000000D03*
%TD*%
%TO.P,J30,1*%
%TO.N,+3V3*%
X50000000Y-57000000D03*
%TO.P,J30,2*%
%TO.N,GND*%
X52540000Y-57000000D03*
%TD*%
D10*
%TO.P,R10,1*%
%TO.N,SENS_PWR*%
X44100000Y-48000000D03*
%TO.P,R10,2*%
%TO.N,BASE3*%
X47900000Y-48000000D03*
%TD*%
%TO.N,BASE3*%
D13*
X47900000Y-48000000D02*
X47900000Y-49851700D01*
X50812500Y-51000000D02*
X49048300Y-51000000D01*
X50812500Y-51000000D02*
X50812500Y-46727500D01*
X50812500Y-46727500D02*
X53000000Y-44540000D01*
X49048300Y-51000000D02*
X47900000Y-49851700D01*
%TO.N,+3V3*%
D14*
X54900000Y-51000000D02*
X54900000Y-52951700D01*
X45307400Y-56450000D02*
X34846100Y-45988700D01*
X50000000Y-56450000D02*
X45307400Y-56450000D01*
X34846100Y-45988700D02*
X34846100Y-41644500D01*
X40000000Y-37000000D02*
X44460000Y-37000000D01*
X53498300Y-52951700D02*
X54900000Y-52951700D01*
X34846100Y-41644500D02*
X36490600Y-40000000D01*
X50000000Y-56450000D02*
X53498300Y-52951700D01*
X54900000Y-51000000D02*
X54900000Y-49048300D01*
X37000000Y-40000000D02*
X40000000Y-37000000D01*
X55540000Y-42000000D02*
X55540000Y-48408300D01*
%TO.N,+3V3_SENS*%
X60913300Y-39790800D02*
X63662500Y-42540000D01*
X63662500Y-42540000D02*
X63662500Y-56029200D01*
X50460000Y-42000000D02*
X52669200Y-39790800D01*
X63662500Y-42540000D02*
X65000000Y-42540000D01*
X52669200Y-39790800D02*
X60913300Y-39790800D01*
X61000000Y-56540000D02*
X63151700Y-56540000D01*
%TO.N,GND*%
X49540000Y-37000000D02*
X49540000Y-39151700D01*
X67161300Y-54932100D02*
X67161300Y-41644200D01*
X55561600Y-54746700D02*
X58848300Y-51460000D01*
X67161300Y-41644200D02*
X65517100Y-40000000D01*
X53308300Y-57000000D02*
X55561600Y-54746700D01*
X62000000Y-37000000D02*
X49540000Y-37000000D01*
X37000000Y-42540000D02*
X46151700Y-42540000D01*
X46151700Y-42540000D02*
X49540000Y-39151700D01*
X65000000Y-40000000D02*
X62000000Y-37000000D01*
X55561600Y-54746700D02*
X59529300Y-58714400D01*
X63379000Y-58714400D02*
X67161300Y-54932100D01*
X59529300Y-58714400D02*
X63379000Y-58714400D01*
X61000000Y-51460000D02*
X58848300Y-51460000D01*
%TO.N,SENS_PWR*%
D13*
X44100000Y-48000000D02*
X39920000Y-48000000D01*
X39920000Y-48000000D02*
X37000000Y-45080000D01*
%TD*%
%TA.AperFunction,Conductor*%
%TO.N,GND*%
G36*
X72189320Y-30593910D02*
G01*
X72290360Y-30648590D01*
X72368171Y-30733115D01*
X72414321Y-30838326D01*
X72425000Y-30924000D01*
X72425000Y-62076000D01*
X72406090Y-62189320D01*
X72351410Y-62290360D01*
X72266885Y-62368171D01*
X72161674Y-62414321D01*
X72076000Y-62425000D01*
X30924000Y-62425000D01*
X30810680Y-62406090D01*
X30709640Y-62351410D01*
X30631829Y-62266885D01*
X30585679Y-62161674D01*
X30575000Y-62076000D01*
X30575000Y-59372158D01*
X31549500Y-59372158D01*
X31549500Y-59627841D01*
X31582872Y-59881329D01*
X31582875Y-59881346D01*
X31649050Y-60128313D01*
X31649050Y-60128315D01*
X31746891Y-60364524D01*
X31746896Y-60364535D01*
X31746897Y-60364536D01*
X31874738Y-60585964D01*
X31874739Y-60585966D01*
X31961833Y-60699468D01*
X32030390Y-60788813D01*
X32030396Y-60788819D01*
X32030401Y-60788825D01*
X32211174Y-60969598D01*
X32211180Y-60969603D01*
X32211187Y-60969610D01*
X32334947Y-61064574D01*
X32414033Y-61125260D01*
X32414035Y-61125261D01*
X32635465Y-61253104D01*
X32871687Y-61350950D01*
X33118660Y-61417126D01*
X33372157Y-61450500D01*
X33372159Y-61450500D01*
X33627841Y-61450500D01*
X33627843Y-61450500D01*
X33881340Y-61417126D01*
X34128313Y-61350950D01*
X34364535Y-61253104D01*
X34585965Y-61125261D01*
X34788813Y-60969610D01*
X34969610Y-60788813D01*
X35125261Y-60585965D01*
X35253104Y-60364535D01*
X35350950Y-60128313D01*
X35417126Y-59881340D01*
X35450500Y-59627843D01*
X35450500Y-59372158D01*
X67549500Y-59372158D01*
X67549500Y-59627841D01*
X67582872Y-59881329D01*
X67582875Y-59881346D01*
X67649050Y-60128313D01*
X67649050Y-60128315D01*
X67746891Y-60364524D01*
X67746896Y-60364535D01*
X67746897Y-60364536D01*
X67874738Y-60585964D01*
X67874739Y-60585966D01*
X67961833Y-60699468D01*
X68030390Y-60788813D01*
X68030396Y-60788819D01*
X68030401Y-60788825D01*
X68211174Y-60969598D01*
X68211180Y-60969603D01*
X68211187Y-60969610D01*
X68334947Y-61064574D01*
X68414033Y-61125260D01*
X68414035Y-61125261D01*
X68635465Y-61253104D01*
X68871687Y-61350950D01*
X69118660Y-61417126D01*
X69372157Y-61450500D01*
X69372159Y-61450500D01*
X69627841Y-61450500D01*
X69627843Y-61450500D01*
X69881340Y-61417126D01*
X70128313Y-61350950D01*
X70364535Y-61253104D01*
X70585965Y-61125261D01*
X70788813Y-60969610D01*
X70969610Y-60788813D01*
X71125261Y-60585965D01*
X71253104Y-60364535D01*
X71350950Y-60128313D01*
X71417126Y-59881340D01*
X71450500Y-59627843D01*
X71450500Y-59372157D01*
X71417126Y-59118660D01*
X71350950Y-58871687D01*
X71253104Y-58635465D01*
X71125261Y-58414035D01*
X71125260Y-58414033D01*
X71064574Y-58334947D01*
X70969610Y-58211187D01*
X70969603Y-58211180D01*
X70969598Y-58211174D01*
X70788825Y-58030401D01*
X70788819Y-58030396D01*
X70788813Y-58030390D01*
X70699468Y-57961833D01*
X70585966Y-57874739D01*
X70585964Y-57874738D01*
X70433013Y-57786432D01*
X70364535Y-57746896D01*
X70364529Y-57746893D01*
X70364524Y-57746891D01*
X70128314Y-57649050D01*
X69881346Y-57582875D01*
X69881329Y-57582872D01*
X69709726Y-57560280D01*
X69627843Y-57549500D01*
X69372157Y-57549500D01*
X69301660Y-57558781D01*
X69118670Y-57582872D01*
X69118653Y-57582875D01*
X68871686Y-57649050D01*
X68871684Y-57649050D01*
X68635475Y-57746891D01*
X68635463Y-57746897D01*
X68414035Y-57874738D01*
X68414033Y-57874739D01*
X68211192Y-58030386D01*
X68211174Y-58030401D01*
X68030401Y-58211174D01*
X68030386Y-58211192D01*
X67874739Y-58414033D01*
X67874738Y-58414035D01*
X67746897Y-58635463D01*
X67746891Y-58635475D01*
X67649050Y-58871684D01*
X67649050Y-58871686D01*
X67582875Y-59118653D01*
X67582872Y-59118670D01*
X67549500Y-59372158D01*
X35450500Y-59372158D01*
X35450500Y-59372157D01*
X35417126Y-59118660D01*
X35350950Y-58871687D01*
X35253104Y-58635465D01*
X35125261Y-58414035D01*
X35125260Y-58414033D01*
X35064574Y-58334947D01*
X34969610Y-58211187D01*
X34969603Y-58211180D01*
X34969598Y-58211174D01*
X34788825Y-58030401D01*
X34788819Y-58030396D01*
X34788813Y-58030390D01*
X34699468Y-57961833D01*
X34585966Y-57874739D01*
X34585964Y-57874738D01*
X34433013Y-57786432D01*
X34364535Y-57746896D01*
X34364529Y-57746893D01*
X34364524Y-57746891D01*
X34128314Y-57649050D01*
X33881346Y-57582875D01*
X33881329Y-57582872D01*
X33709726Y-57560280D01*
X33627843Y-57549500D01*
X33372157Y-57549500D01*
X33301660Y-57558781D01*
X33118670Y-57582872D01*
X33118653Y-57582875D01*
X32871686Y-57649050D01*
X32871684Y-57649050D01*
X32635475Y-57746891D01*
X32635463Y-57746897D01*
X32414035Y-57874738D01*
X32414033Y-57874739D01*
X32211192Y-58030386D01*
X32211174Y-58030401D01*
X32030401Y-58211174D01*
X32030386Y-58211192D01*
X31874739Y-58414033D01*
X31874738Y-58414035D01*
X31746897Y-58635463D01*
X31746891Y-58635475D01*
X31649050Y-58871684D01*
X31649050Y-58871686D01*
X31582875Y-59118653D01*
X31582872Y-59118670D01*
X31549500Y-59372158D01*
X30575000Y-59372158D01*
X30575000Y-41553953D01*
X33695599Y-41553953D01*
X33695599Y-41749450D01*
X33695600Y-41749475D01*
X33695600Y-45885753D01*
X33695599Y-45885783D01*
X33695599Y-46079248D01*
X33719459Y-46229895D01*
X33719460Y-46229895D01*
X33723929Y-46258110D01*
X33723931Y-46258119D01*
X33779885Y-46430329D01*
X33779891Y-46430343D01*
X33862096Y-46591680D01*
X33862100Y-46591687D01*
X33862104Y-46591694D01*
X33968547Y-46738201D01*
X33968550Y-46738204D01*
X34108782Y-46878436D01*
X34108792Y-46878445D01*
X44421082Y-57190735D01*
X44421089Y-57190743D01*
X44429847Y-57199501D01*
X44557899Y-57327553D01*
X44704406Y-57433996D01*
X44704415Y-57434000D01*
X44704419Y-57434003D01*
X44777665Y-57471323D01*
X44865761Y-57516211D01*
X45037991Y-57572171D01*
X45216853Y-57600501D01*
X45216855Y-57600501D01*
X45412351Y-57600501D01*
X45412375Y-57600500D01*
X48408052Y-57600500D01*
X48521372Y-57619410D01*
X48622412Y-57674090D01*
X48700223Y-57758615D01*
X48710793Y-57776865D01*
X48716651Y-57786424D01*
X48716655Y-57786430D01*
X48716657Y-57786433D01*
X48855483Y-57977510D01*
X49022490Y-58144517D01*
X49114253Y-58211187D01*
X49213567Y-58283343D01*
X49213572Y-58283346D01*
X49323411Y-58339311D01*
X49424008Y-58390568D01*
X49648632Y-58463553D01*
X49881908Y-58500500D01*
X49881912Y-58500500D01*
X50118088Y-58500500D01*
X50118092Y-58500500D01*
X50351368Y-58463553D01*
X50575992Y-58390568D01*
X50786433Y-58283343D01*
X50977510Y-58144517D01*
X51144517Y-57977510D01*
X51283343Y-57786433D01*
X51390568Y-57575992D01*
X51463553Y-57351368D01*
X51500500Y-57118092D01*
X51500500Y-56881908D01*
X51486566Y-56793931D01*
X51487515Y-56679057D01*
X51525715Y-56570707D01*
X51584485Y-56492566D01*
X53872633Y-54204420D01*
X53966134Y-54137661D01*
X54076244Y-54104880D01*
X54119413Y-54102200D01*
X54990542Y-54102200D01*
X54990546Y-54102200D01*
X55169409Y-54073871D01*
X55341639Y-54017911D01*
X55502994Y-53935696D01*
X55649501Y-53829253D01*
X55777553Y-53701201D01*
X55883996Y-53554694D01*
X55966211Y-53393339D01*
X56022171Y-53221109D01*
X56050500Y-53042246D01*
X56050500Y-52487236D01*
X56069410Y-52373916D01*
X56124090Y-52272876D01*
X56190350Y-52207848D01*
X56257546Y-52157546D01*
X56343796Y-52042331D01*
X56394091Y-51907483D01*
X56400500Y-51847873D01*
X56400499Y-50152128D01*
X56394091Y-50092517D01*
X56343796Y-49957669D01*
X56257546Y-49842454D01*
X56257545Y-49842453D01*
X56257542Y-49842449D01*
X56239897Y-49824804D01*
X56242802Y-49821898D01*
X56195410Y-49772323D01*
X56147289Y-49668000D01*
X56135648Y-49553704D01*
X56161750Y-49441821D01*
X56222766Y-49344476D01*
X56278801Y-49293626D01*
X56289501Y-49285853D01*
X56417553Y-49157801D01*
X56523996Y-49011294D01*
X56606211Y-48849939D01*
X56662171Y-48677709D01*
X56690500Y-48498846D01*
X56690500Y-43082673D01*
X56709410Y-42969353D01*
X56757153Y-42877535D01*
X56823343Y-42786433D01*
X56930568Y-42575992D01*
X57003553Y-42351368D01*
X57040500Y-42118092D01*
X57040500Y-41881908D01*
X57003553Y-41648632D01*
X56930568Y-41424008D01*
X56930564Y-41424001D01*
X56930503Y-41423852D01*
X56930467Y-41423699D01*
X56926331Y-41410968D01*
X56927439Y-41410607D01*
X56904609Y-41311921D01*
X56916463Y-41197647D01*
X56964778Y-41093413D01*
X57044320Y-41010516D01*
X57146470Y-40957937D01*
X57252939Y-40941300D01*
X60292187Y-40941300D01*
X60405507Y-40960210D01*
X60506547Y-41014890D01*
X60538967Y-41043520D01*
X62409780Y-42914333D01*
X62476538Y-43007833D01*
X62509320Y-43117944D01*
X62512000Y-43161113D01*
X62512000Y-54128725D01*
X62493090Y-54242045D01*
X62438410Y-54343085D01*
X62353885Y-54420896D01*
X62248674Y-54467046D01*
X62134180Y-54476533D01*
X62041040Y-54455722D01*
X61947665Y-54420896D01*
X61907483Y-54405909D01*
X61847873Y-54399500D01*
X61847870Y-54399500D01*
X60152129Y-54399500D01*
X60092514Y-54405909D01*
X60092511Y-54405910D01*
X59957671Y-54456202D01*
X59842454Y-54542454D01*
X59756202Y-54657670D01*
X59705909Y-54792515D01*
X59699500Y-54852129D01*
X59699500Y-55703450D01*
X59680590Y-55816770D01*
X59661462Y-55861890D01*
X59609434Y-55964000D01*
X59609432Y-55964007D01*
X59536449Y-56188623D01*
X59536445Y-56188638D01*
X59499500Y-56421903D01*
X59499500Y-56658096D01*
X59536445Y-56891361D01*
X59536449Y-56891376D01*
X59609429Y-57115984D01*
X59609436Y-57116000D01*
X59716653Y-57326427D01*
X59716656Y-57326432D01*
X59734768Y-57351361D01*
X59855483Y-57517510D01*
X60022490Y-57684517D01*
X60122465Y-57757153D01*
X60213567Y-57823343D01*
X60213572Y-57823346D01*
X60314435Y-57874738D01*
X60424008Y-57930568D01*
X60648632Y-58003553D01*
X60881908Y-58040500D01*
X60881912Y-58040500D01*
X61118088Y-58040500D01*
X61118092Y-58040500D01*
X61351368Y-58003553D01*
X61575992Y-57930568D01*
X61786433Y-57823343D01*
X61877536Y-57757152D01*
X61980328Y-57705844D01*
X62082673Y-57690500D01*
X63242242Y-57690500D01*
X63242246Y-57690500D01*
X63421109Y-57662171D01*
X63593339Y-57606211D01*
X63754694Y-57523996D01*
X63901201Y-57417553D01*
X64029253Y-57289501D01*
X64135696Y-57142994D01*
X64135706Y-57142973D01*
X64141228Y-57133964D01*
X64216558Y-57047221D01*
X64256464Y-57018728D01*
X64265473Y-57013206D01*
X64265494Y-57013196D01*
X64412001Y-56906753D01*
X64540053Y-56778701D01*
X64646496Y-56632194D01*
X64728711Y-56470839D01*
X64784671Y-56298609D01*
X64813000Y-56119746D01*
X64813000Y-44386895D01*
X64831910Y-44273575D01*
X64886590Y-44172535D01*
X64971115Y-44094724D01*
X65076326Y-44048574D01*
X65107406Y-44042192D01*
X65118089Y-44040500D01*
X65118092Y-44040500D01*
X65351368Y-44003553D01*
X65575992Y-43930568D01*
X65786433Y-43823343D01*
X65977510Y-43684517D01*
X66144517Y-43517510D01*
X66283343Y-43326433D01*
X66390568Y-43115992D01*
X66463553Y-42891368D01*
X66500500Y-42658092D01*
X66500500Y-42421908D01*
X66463553Y-42188632D01*
X66390568Y-41964008D01*
X66283343Y-41753567D01*
X66144517Y-41562490D01*
X65977510Y-41395483D01*
X65786433Y-41256657D01*
X65786434Y-41256657D01*
X65786432Y-41256656D01*
X65786427Y-41256653D01*
X65576000Y-41149436D01*
X65575998Y-41149435D01*
X65575992Y-41149432D01*
X65575987Y-41149430D01*
X65575984Y-41149429D01*
X65351376Y-41076449D01*
X65351361Y-41076445D01*
X65118096Y-41039500D01*
X65118092Y-41039500D01*
X64881908Y-41039500D01*
X64881903Y-41039500D01*
X64648638Y-41076445D01*
X64648623Y-41076449D01*
X64424015Y-41149429D01*
X64424010Y-41149431D01*
X64424008Y-41149432D01*
X64302124Y-41211534D01*
X64192573Y-41246131D01*
X64077721Y-41243282D01*
X63970018Y-41203294D01*
X63896905Y-41147352D01*
X61803045Y-39053492D01*
X61803041Y-39053487D01*
X61662804Y-38913250D01*
X61662801Y-38913247D01*
X61516294Y-38806804D01*
X61516287Y-38806800D01*
X61516280Y-38806796D01*
X61354943Y-38724591D01*
X61354937Y-38724588D01*
X61293063Y-38704484D01*
X61182709Y-38668629D01*
X61182705Y-38668628D01*
X61182704Y-38668628D01*
X61182701Y-38668627D01*
X61003846Y-38640299D01*
X60822754Y-38640299D01*
X60808349Y-38640299D01*
X60808325Y-38640300D01*
X52774176Y-38640300D01*
X52774152Y-38640299D01*
X52759747Y-38640299D01*
X52578654Y-38640299D01*
X52578649Y-38640299D01*
X52399797Y-38668626D01*
X52399782Y-38668630D01*
X52227570Y-38724585D01*
X52227551Y-38724593D01*
X52066215Y-38806798D01*
X52066203Y-38806806D01*
X51919699Y-38913247D01*
X51919695Y-38913250D01*
X50412038Y-40420908D01*
X50318538Y-40487666D01*
X50219854Y-40518831D01*
X50108637Y-40536446D01*
X50108623Y-40536449D01*
X49884015Y-40609429D01*
X49883999Y-40609436D01*
X49673572Y-40716653D01*
X49673567Y-40716656D01*
X49482488Y-40855484D01*
X49315484Y-41022488D01*
X49176656Y-41213567D01*
X49176653Y-41213572D01*
X49069436Y-41423999D01*
X49069429Y-41424015D01*
X48996449Y-41648623D01*
X48996445Y-41648638D01*
X48959500Y-41881903D01*
X48959500Y-42118096D01*
X48996445Y-42351361D01*
X48996449Y-42351376D01*
X49069429Y-42575984D01*
X49069436Y-42576000D01*
X49176653Y-42786427D01*
X49176656Y-42786432D01*
X49224664Y-42852509D01*
X49315483Y-42977510D01*
X49482490Y-43144517D01*
X49672393Y-43282490D01*
X49673567Y-43283343D01*
X49673572Y-43283346D01*
X49758124Y-43326427D01*
X49884008Y-43390568D01*
X50108632Y-43463553D01*
X50341908Y-43500500D01*
X50341912Y-43500500D01*
X50578088Y-43500500D01*
X50578092Y-43500500D01*
X50811368Y-43463553D01*
X51035992Y-43390568D01*
X51246433Y-43283343D01*
X51246437Y-43283339D01*
X51248105Y-43282490D01*
X51357658Y-43247892D01*
X51472510Y-43250741D01*
X51580214Y-43290728D01*
X51669098Y-43363520D01*
X51729531Y-43461228D01*
X51754964Y-43573264D01*
X51742640Y-43687489D01*
X51717510Y-43751893D01*
X51716657Y-43753566D01*
X51716657Y-43753567D01*
X51609432Y-43964008D01*
X51609432Y-43964009D01*
X51609429Y-43964015D01*
X51536449Y-44188623D01*
X51536445Y-44188638D01*
X51499500Y-44421903D01*
X51498424Y-44435582D01*
X51495323Y-44435337D01*
X51480590Y-44523628D01*
X51425910Y-44624668D01*
X51397280Y-44657088D01*
X50142844Y-45911524D01*
X49996525Y-46057841D01*
X49881559Y-46229900D01*
X49802370Y-46421078D01*
X49766857Y-46599614D01*
X49726202Y-46707067D01*
X49652860Y-46795498D01*
X49554779Y-46855323D01*
X49442587Y-46880060D01*
X49328441Y-46867028D01*
X49224712Y-46817639D01*
X49215432Y-46810928D01*
X49177871Y-46782809D01*
X49142329Y-46756202D01*
X49007483Y-46705909D01*
X49007485Y-46705909D01*
X48983639Y-46703345D01*
X48947873Y-46699500D01*
X48947870Y-46699500D01*
X46852129Y-46699500D01*
X46792514Y-46705909D01*
X46792511Y-46705910D01*
X46657671Y-46756202D01*
X46542454Y-46842454D01*
X46456202Y-46957670D01*
X46405909Y-47092515D01*
X46399500Y-47152129D01*
X46399500Y-48847870D01*
X46405909Y-48907485D01*
X46405910Y-48907488D01*
X46456202Y-49042328D01*
X46456203Y-49042329D01*
X46456204Y-49042331D01*
X46542454Y-49157546D01*
X46657669Y-49243796D01*
X46657670Y-49243796D01*
X46657671Y-49243797D01*
X46667756Y-49249304D01*
X46758153Y-49320209D01*
X46820629Y-49416624D01*
X46848414Y-49528100D01*
X46849500Y-49555615D01*
X46849500Y-49955165D01*
X46888678Y-50152129D01*
X46889870Y-50158119D01*
X46969059Y-50349299D01*
X47084023Y-50521355D01*
X47230345Y-50667677D01*
X47230347Y-50667678D01*
X47242533Y-50679864D01*
X47242532Y-50679864D01*
X47242538Y-50679869D01*
X48223558Y-51660889D01*
X48223565Y-51660897D01*
X48223566Y-51660897D01*
X48232320Y-51669651D01*
X48232323Y-51669655D01*
X48378645Y-51815977D01*
X48426377Y-51847870D01*
X48550700Y-51930940D01*
X48550701Y-51930940D01*
X48550702Y-51930941D01*
X48741880Y-52010130D01*
X48911161Y-52043802D01*
X48944834Y-52050500D01*
X48944835Y-52050500D01*
X49490848Y-52050500D01*
X49604168Y-52069410D01*
X49705208Y-52124090D01*
X49737634Y-52152725D01*
X49742451Y-52157542D01*
X49742454Y-52157546D01*
X49802103Y-52202199D01*
X49857670Y-52243797D01*
X49925093Y-52268943D01*
X49992517Y-52294091D01*
X50052127Y-52300500D01*
X51679887Y-52300499D01*
X51793206Y-52319409D01*
X51894246Y-52374089D01*
X51972057Y-52458614D01*
X52018207Y-52563824D01*
X52027694Y-52678319D01*
X51999491Y-52789691D01*
X51936654Y-52885870D01*
X51926666Y-52896279D01*
X49625667Y-55197280D01*
X49532167Y-55264038D01*
X49422056Y-55296820D01*
X49378887Y-55299500D01*
X45928513Y-55299500D01*
X45815193Y-55280590D01*
X45714153Y-55225910D01*
X45681733Y-55197280D01*
X40130733Y-49646280D01*
X40063975Y-49552780D01*
X40031193Y-49442669D01*
X40035941Y-49327880D01*
X40077703Y-49220852D01*
X40151955Y-49133184D01*
X40250649Y-49074375D01*
X40363091Y-49050798D01*
X40377513Y-49050500D01*
X42490848Y-49050500D01*
X42604168Y-49069410D01*
X42705208Y-49124090D01*
X42737634Y-49152725D01*
X42742451Y-49157542D01*
X42742454Y-49157546D01*
X42742795Y-49157801D01*
X42857670Y-49243797D01*
X42925093Y-49268943D01*
X42992517Y-49294091D01*
X43052127Y-49300500D01*
X45147872Y-49300499D01*
X45207483Y-49294091D01*
X45342331Y-49243796D01*
X45457546Y-49157546D01*
X45543796Y-49042331D01*
X45594091Y-48907483D01*
X45600500Y-48847873D01*
X45600499Y-47152128D01*
X45594091Y-47092517D01*
X45543796Y-46957669D01*
X45457546Y-46842454D01*
X45388621Y-46790857D01*
X45342329Y-46756202D01*
X45207483Y-46705909D01*
X45207485Y-46705909D01*
X45183639Y-46703345D01*
X45147873Y-46699500D01*
X45147870Y-46699500D01*
X43052129Y-46699500D01*
X42992514Y-46705909D01*
X42992511Y-46705910D01*
X42857671Y-46756202D01*
X42742456Y-46842452D01*
X42737634Y-46847275D01*
X42644135Y-46914035D01*
X42534024Y-46946819D01*
X42490848Y-46949500D01*
X40499692Y-46949500D01*
X40386372Y-46930590D01*
X40285332Y-46875910D01*
X40252912Y-46847280D01*
X38602720Y-45197088D01*
X38535962Y-45103588D01*
X38503180Y-44993477D01*
X38502066Y-44975543D01*
X38501576Y-44975582D01*
X38500500Y-44961915D01*
X38500500Y-44961908D01*
X38463553Y-44728632D01*
X38390568Y-44504008D01*
X38283343Y-44293567D01*
X38144517Y-44102490D01*
X37977510Y-43935483D01*
X37786433Y-43796657D01*
X37786434Y-43796657D01*
X37786432Y-43796656D01*
X37786427Y-43796653D01*
X37576000Y-43689436D01*
X37575998Y-43689435D01*
X37575992Y-43689432D01*
X37575987Y-43689430D01*
X37575984Y-43689429D01*
X37351376Y-43616449D01*
X37351361Y-43616445D01*
X37118096Y-43579500D01*
X37118092Y-43579500D01*
X36881908Y-43579500D01*
X36881903Y-43579500D01*
X36648638Y-43616445D01*
X36648630Y-43616447D01*
X36520767Y-43657992D01*
X36453445Y-43679867D01*
X36339830Y-43696900D01*
X36226838Y-43676120D01*
X36126716Y-43619776D01*
X36050313Y-43533976D01*
X36005909Y-43428017D01*
X35996600Y-43347948D01*
X35996600Y-42265612D01*
X36015510Y-42152292D01*
X36070190Y-42051252D01*
X36098813Y-42018839D01*
X36527611Y-41590040D01*
X36621111Y-41523283D01*
X36731222Y-41490501D01*
X36828986Y-41492117D01*
X36881908Y-41500500D01*
X36881911Y-41500500D01*
X37118088Y-41500500D01*
X37118092Y-41500500D01*
X37351368Y-41463553D01*
X37575992Y-41390568D01*
X37786433Y-41283343D01*
X37977510Y-41144517D01*
X38144517Y-40977510D01*
X38283343Y-40786433D01*
X38390568Y-40575992D01*
X38463553Y-40351368D01*
X38481169Y-40240138D01*
X38517570Y-40131179D01*
X38579088Y-40047962D01*
X40374332Y-38252720D01*
X40467833Y-38185961D01*
X40577943Y-38153180D01*
X40621112Y-38150500D01*
X43377327Y-38150500D01*
X43490647Y-38169410D01*
X43582463Y-38217152D01*
X43619137Y-38243797D01*
X43673567Y-38283343D01*
X43673572Y-38283346D01*
X43781893Y-38338538D01*
X43884008Y-38390568D01*
X44108632Y-38463553D01*
X44341908Y-38500500D01*
X44341912Y-38500500D01*
X44578088Y-38500500D01*
X44578092Y-38500500D01*
X44811368Y-38463553D01*
X45035992Y-38390568D01*
X45099154Y-38358384D01*
X45138107Y-38338538D01*
X45247661Y-38303940D01*
X45296550Y-38300499D01*
X46147871Y-38300499D01*
X46147872Y-38300499D01*
X46207483Y-38294091D01*
X46342331Y-38243796D01*
X46457546Y-38157546D01*
X46543796Y-38042331D01*
X46594091Y-37907483D01*
X46600500Y-37847873D01*
X46600499Y-36152128D01*
X46594091Y-36092517D01*
X46594089Y-36092511D01*
X46543797Y-35957671D01*
X46484028Y-35877830D01*
X46457546Y-35842454D01*
X46388621Y-35790857D01*
X46342329Y-35756202D01*
X46207483Y-35705909D01*
X46207485Y-35705909D01*
X46177678Y-35702704D01*
X46147873Y-35699500D01*
X46147871Y-35699500D01*
X45296548Y-35699500D01*
X45183228Y-35680590D01*
X45138109Y-35661463D01*
X45035992Y-35609432D01*
X45035983Y-35609429D01*
X44811376Y-35536449D01*
X44811361Y-35536445D01*
X44578096Y-35499500D01*
X44578092Y-35499500D01*
X44341908Y-35499500D01*
X44341903Y-35499500D01*
X44108638Y-35536445D01*
X44108623Y-35536449D01*
X43884015Y-35609429D01*
X43883999Y-35609436D01*
X43673572Y-35716653D01*
X43673567Y-35716656D01*
X43582465Y-35782847D01*
X43479672Y-35834156D01*
X43377327Y-35849500D01*
X40104976Y-35849500D01*
X40104952Y-35849499D01*
X40090547Y-35849499D01*
X39909454Y-35849499D01*
X39909449Y-35849499D01*
X39730597Y-35877826D01*
X39730582Y-35877830D01*
X39558370Y-35933785D01*
X39558351Y-35933793D01*
X39397015Y-36015998D01*
X39397003Y-36016006D01*
X39250499Y-36122447D01*
X39250495Y-36122450D01*
X36952038Y-38420908D01*
X36858538Y-38487666D01*
X36759854Y-38518831D01*
X36648637Y-38536446D01*
X36648623Y-38536449D01*
X36424015Y-38609429D01*
X36423999Y-38609436D01*
X36213572Y-38716653D01*
X36213567Y-38716656D01*
X36022488Y-38855484D01*
X35855487Y-39022485D01*
X35846577Y-39032918D01*
X35844438Y-39031091D01*
X35784835Y-39090670D01*
X35741103Y-39122444D01*
X35741093Y-39122452D01*
X33968550Y-40894995D01*
X33968545Y-40895001D01*
X33880632Y-41016001D01*
X33880633Y-41016002D01*
X33862105Y-41041503D01*
X33779888Y-41202861D01*
X33779885Y-41202870D01*
X33723929Y-41375090D01*
X33695599Y-41553953D01*
X30575000Y-41553953D01*
X30575000Y-33372158D01*
X31549500Y-33372158D01*
X31549500Y-33627841D01*
X31582872Y-33881329D01*
X31582875Y-33881346D01*
X31649050Y-34128313D01*
X31649050Y-34128315D01*
X31746891Y-34364524D01*
X31746896Y-34364535D01*
X31746897Y-34364536D01*
X31874738Y-34585964D01*
X31874739Y-34585966D01*
X31961833Y-34699468D01*
X32030390Y-34788813D01*
X32030396Y-34788819D01*
X32030401Y-34788825D01*
X32211174Y-34969598D01*
X32211180Y-34969603D01*
X32211187Y-34969610D01*
X32334947Y-35064574D01*
X32414033Y-35125260D01*
X32414035Y-35125261D01*
X32635465Y-35253104D01*
X32871687Y-35350950D01*
X33118660Y-35417126D01*
X33372157Y-35450500D01*
X33372159Y-35450500D01*
X33627841Y-35450500D01*
X33627843Y-35450500D01*
X33881340Y-35417126D01*
X34128313Y-35350950D01*
X34364535Y-35253104D01*
X34585965Y-35125261D01*
X34788813Y-34969610D01*
X34969610Y-34788813D01*
X35125261Y-34585965D01*
X35253104Y-34364535D01*
X35350950Y-34128313D01*
X35417126Y-33881340D01*
X35450500Y-33627843D01*
X35450500Y-33372158D01*
X67549500Y-33372158D01*
X67549500Y-33627841D01*
X67582872Y-33881329D01*
X67582875Y-33881346D01*
X67649050Y-34128313D01*
X67649050Y-34128315D01*
X67746891Y-34364524D01*
X67746896Y-34364535D01*
X67746897Y-34364536D01*
X67874738Y-34585964D01*
X67874739Y-34585966D01*
X67961833Y-34699468D01*
X68030390Y-34788813D01*
X68030396Y-34788819D01*
X68030401Y-34788825D01*
X68211174Y-34969598D01*
X68211180Y-34969603D01*
X68211187Y-34969610D01*
X68334947Y-35064574D01*
X68414033Y-35125260D01*
X68414035Y-35125261D01*
X68635465Y-35253104D01*
X68871687Y-35350950D01*
X69118660Y-35417126D01*
X69372157Y-35450500D01*
X69372159Y-35450500D01*
X69627841Y-35450500D01*
X69627843Y-35450500D01*
X69881340Y-35417126D01*
X70128313Y-35350950D01*
X70364535Y-35253104D01*
X70585965Y-35125261D01*
X70788813Y-34969610D01*
X70969610Y-34788813D01*
X71125261Y-34585965D01*
X71253104Y-34364535D01*
X71350950Y-34128313D01*
X71417126Y-33881340D01*
X71450500Y-33627843D01*
X71450500Y-33372157D01*
X71417126Y-33118660D01*
X71350950Y-32871687D01*
X71253104Y-32635465D01*
X71125261Y-32414035D01*
X71125260Y-32414033D01*
X71064574Y-32334947D01*
X70969610Y-32211187D01*
X70969603Y-32211180D01*
X70969598Y-32211174D01*
X70788825Y-32030401D01*
X70788819Y-32030396D01*
X70788813Y-32030390D01*
X70699468Y-31961833D01*
X70585966Y-31874739D01*
X70585964Y-31874738D01*
X70475250Y-31810817D01*
X70364535Y-31746896D01*
X70364529Y-31746893D01*
X70364524Y-31746891D01*
X70128314Y-31649050D01*
X69881346Y-31582875D01*
X69881329Y-31582872D01*
X69709726Y-31560280D01*
X69627843Y-31549500D01*
X69372157Y-31549500D01*
X69301660Y-31558781D01*
X69118670Y-31582872D01*
X69118653Y-31582875D01*
X68871686Y-31649050D01*
X68871684Y-31649050D01*
X68635475Y-31746891D01*
X68635463Y-31746897D01*
X68414035Y-31874738D01*
X68414033Y-31874739D01*
X68211192Y-32030386D01*
X68211174Y-32030401D01*
X68030401Y-32211174D01*
X68030386Y-32211192D01*
X67874739Y-32414033D01*
X67874738Y-32414035D01*
X67746897Y-32635463D01*
X67746891Y-32635475D01*
X67649050Y-32871684D01*
X67649050Y-32871686D01*
X67582875Y-33118653D01*
X67582872Y-33118670D01*
X67549500Y-33372158D01*
X35450500Y-33372158D01*
X35450500Y-33372157D01*
X35417126Y-33118660D01*
X35350950Y-32871687D01*
X35253104Y-32635465D01*
X35125261Y-32414035D01*
X35125260Y-32414033D01*
X35064574Y-32334947D01*
X34969610Y-32211187D01*
X34969603Y-32211180D01*
X34969598Y-32211174D01*
X34788825Y-32030401D01*
X34788819Y-32030396D01*
X34788813Y-32030390D01*
X34699468Y-31961833D01*
X34585966Y-31874739D01*
X34585964Y-31874738D01*
X34475250Y-31810817D01*
X34364535Y-31746896D01*
X34364529Y-31746893D01*
X34364524Y-31746891D01*
X34128314Y-31649050D01*
X33881346Y-31582875D01*
X33881329Y-31582872D01*
X33709726Y-31560280D01*
X33627843Y-31549500D01*
X33372157Y-31549500D01*
X33301660Y-31558781D01*
X33118670Y-31582872D01*
X33118653Y-31582875D01*
X32871686Y-31649050D01*
X32871684Y-31649050D01*
X32635475Y-31746891D01*
X32635463Y-31746897D01*
X32414035Y-31874738D01*
X32414033Y-31874739D01*
X32211192Y-32030386D01*
X32211174Y-32030401D01*
X32030401Y-32211174D01*
X32030386Y-32211192D01*
X31874739Y-32414033D01*
X31874738Y-32414035D01*
X31746897Y-32635463D01*
X31746891Y-32635475D01*
X31649050Y-32871684D01*
X31649050Y-32871686D01*
X31582875Y-33118653D01*
X31582872Y-33118670D01*
X31549500Y-33372158D01*
X30575000Y-33372158D01*
X30575000Y-30924000D01*
X30593910Y-30810680D01*
X30648590Y-30709640D01*
X30733115Y-30631829D01*
X30838326Y-30585679D01*
X30924000Y-30575000D01*
X72076000Y-30575000D01*
X72189320Y-30593910D01*
G37*
%TD.AperFunction*%
%TD*%
M02*
