%TF.GenerationSoftware,KiCad,Pcbnew,10.0.6*%
%TF.CreationDate,2026-09-09T21:53:22+03:00*%
%TF.ProjectId,candidate,63616e64-6964-4617-9465-2e6b69636164,rev?*%
%TF.SameCoordinates,Original*%
%TF.FileFunction,Copper,L2,Bot*%
%TF.FilePolarity,Positive*%
%FSLAX46Y46*%
G04 Gerber Fmt 4.6, Leading zero omitted, Abs format (unit mm)*
G04 Created by KiCad (PCBNEW 10.0.6) date 2026-09-09 21:53:22*
%MOMM*%
%LPD*%
G01*
G04 APERTURE LIST*
%TA.AperFunction,ComponentPad*%
%ADD10C,3.500000*%
%TD*%
%TA.AperFunction,ComponentPad*%
%ADD11C,2.000000*%
%TD*%
%TA.AperFunction,SMDPad,CuDef*%
%ADD12C,2.000000*%
%TD*%
%TA.AperFunction,SMDPad,CuDef*%
%ADD13R,1.600000X2.000000*%
%TD*%
%TA.AperFunction,SMDPad,CuDef*%
%ADD14R,2.000000X1.600000*%
%TD*%
%TA.AperFunction,Conductor*%
%ADD15C,0.800000*%
%TD*%
%TA.AperFunction,Conductor*%
%ADD16C,1.000000*%
%TD*%
G04 APERTURE END LIST*
D10*
%TO.P,X4,1*%
%TO.N,OW*%
X90000000Y-89000000D03*
%TO.P,X4,2*%
%TO.N,+3V3*%
X95000000Y-89000000D03*
%TO.P,X4,3*%
%TO.N,GND*%
X100000000Y-89000000D03*
%TD*%
D11*
%TO.P,J20,1*%
%TO.N,+3V3*%
X94000000Y-42000000D03*
%TO.P,J20,2*%
%TO.N,GND*%
X94000000Y-44540000D03*
%TO.P,J20,3*%
%TO.N,SCL*%
X94000000Y-47080000D03*
%TO.P,J20,4*%
%TO.N,SDA*%
X94000000Y-49620000D03*
%TD*%
%TO.P,J10,1*%
%TO.N,+3V3*%
X93000000Y-38000000D03*
%TO.P,J10,2*%
%TO.N,SCL*%
X95540000Y-38000000D03*
%TO.P,J10,3*%
%TO.N,SDA*%
X98080000Y-38000000D03*
%TO.P,J10,4*%
%TO.N,GND*%
X100620000Y-38000000D03*
%TD*%
D12*
%TO.P,WA2,1*%
%TO.N,BTN*%
X42540000Y-69000000D03*
X58000000Y-57240000D03*
%TD*%
%TO.P,WA1,1*%
%TO.N,+3V3*%
X94000000Y-42000000D03*
D13*
X94000000Y-54100000D03*
%TD*%
D11*
%TO.P,Q1,1*%
%TO.N,RELAY_IN1*%
X39460000Y-79000000D03*
%TO.P,Q1,2*%
%TO.N,BASE1*%
X42000000Y-81540000D03*
%TO.P,Q1,3*%
%TO.N,GND*%
X44540000Y-79000000D03*
%TD*%
D12*
%TO.P,WA3,1*%
%TO.N,SCL*%
X94000000Y-47080000D03*
X95540000Y-38000000D03*
%TD*%
D11*
%TO.P,J22,1*%
%TO.N,+3V3*%
X52000000Y-54700000D03*
%TO.P,J22,2*%
%TO.N,GND*%
X52000000Y-57240000D03*
%TO.P,J22,3*%
%TO.N,SENS_PWR*%
X52000000Y-59780000D03*
%TD*%
D12*
%TO.P,WA4,1*%
%TO.N,SCL*%
X102000000Y-47080000D03*
D13*
X102000000Y-57900000D03*
%TD*%
D11*
%TO.P,J26,1*%
%TO.N,+5V*%
X60540000Y-98362500D03*
%TO.P,J26,2*%
%TO.N,GND*%
X58000000Y-98362500D03*
%TD*%
%TO.P,Q2,1*%
%TO.N,RELAY_IN2*%
X39460000Y-88000000D03*
%TO.P,Q2,2*%
%TO.N,BASE2*%
X42000000Y-90540000D03*
%TO.P,Q2,3*%
%TO.N,GND*%
X44540000Y-88000000D03*
%TD*%
D13*
%TO.P,R16,1*%
%TO.N,SDA*%
X94000000Y-57900000D03*
%TO.P,R16,2*%
%TO.N,+3V3*%
X94000000Y-54100000D03*
%TD*%
D14*
%TO.P,R14,1*%
%TO.N,K2*%
X54900000Y-77560000D03*
%TO.P,R14,2*%
%TO.N,BASE2*%
X51100000Y-77560000D03*
%TD*%
D11*
%TO.P,J12,1*%
%TO.N,MOSI*%
X70000000Y-102000000D03*
%TO.P,J12,2*%
%TO.N,GND*%
X72540000Y-102000000D03*
%TO.P,J12,3*%
%TO.N,MISO*%
X75080000Y-102000000D03*
%TO.P,J12,4*%
%TO.N,SCK*%
X77620000Y-102000000D03*
%TO.P,J12,5*%
%TO.N,CS*%
X80160000Y-102000000D03*
%TO.P,J12,6*%
%TO.N,+3V3*%
X82700000Y-102000000D03*
%TD*%
%TO.P,J9,1*%
%TO.N,DPS_TX*%
X92000000Y-75000000D03*
%TO.P,J9,2*%
%TO.N,DPS_RX*%
X92000000Y-77540000D03*
%TO.P,J9,3*%
%TO.N,GND*%
X92000000Y-80080000D03*
%TD*%
D14*
%TO.P,R13,1*%
%TO.N,BASE1*%
X50500000Y-72500000D03*
%TO.P,R13,2*%
%TO.N,GND*%
X54300000Y-72500000D03*
%TD*%
D11*
%TO.P,J7,1*%
%TO.N,GND*%
X44960000Y-64000000D03*
%TO.P,J7,2*%
%TO.N,SW2_ON*%
X47500000Y-64000000D03*
%TD*%
%TO.P,J21,1*%
%TO.N,+3V3*%
X102000000Y-42000000D03*
%TO.P,J21,2*%
%TO.N,GND*%
X102000000Y-44540000D03*
%TO.P,J21,3*%
%TO.N,SCL*%
X102000000Y-47080000D03*
%TO.P,J21,4*%
%TO.N,SDA*%
X102000000Y-49620000D03*
%TD*%
%TO.P,J1,1*%
%TO.N,+3V3*%
X58000000Y-42000000D03*
%TO.P,J1,2*%
%TO.N,unconnected-(J1-EN-Pad2)*%
X58000000Y-44540000D03*
%TO.P,J1,3*%
%TO.N,unconnected-(J1-GPIO36-Pad3)*%
X58000000Y-47080000D03*
%TO.P,J1,4*%
%TO.N,unconnected-(J1-GPIO39-Pad4)*%
X58000000Y-49620000D03*
%TO.P,J1,5*%
%TO.N,unconnected-(J1-GPIO34-Pad5)*%
X58000000Y-52160000D03*
%TO.P,J1,6*%
%TO.N,unconnected-(J1-GPIO35-Pad6)*%
X58000000Y-54700000D03*
%TO.P,J1,7*%
%TO.N,BTN*%
X58000000Y-57240000D03*
%TO.P,J1,8*%
%TO.N,SENS_PWR*%
X58000000Y-59780000D03*
%TO.P,J1,9*%
%TO.N,SW1_ON*%
X58000000Y-62320000D03*
%TO.P,J1,10*%
%TO.N,SW2_ON*%
X58000000Y-64860000D03*
%TO.P,J1,11*%
%TO.N,K1*%
X58000000Y-67400000D03*
%TO.P,J1,12*%
%TO.N,unconnected-(J1-GPIO14-Pad12)*%
X58000000Y-69940000D03*
%TO.P,J1,13*%
%TO.N,unconnected-(J1-GPIO12-Pad13)*%
X58000000Y-72480000D03*
%TO.P,J1,14*%
%TO.N,GND*%
X58000000Y-75020000D03*
%TO.P,J1,15*%
%TO.N,K2*%
X58000000Y-77560000D03*
%TO.P,J1,16*%
%TO.N,unconnected-(J1-GPIO9-Pad16)*%
X58000000Y-80100000D03*
%TO.P,J1,17*%
%TO.N,unconnected-(J1-GPIO10-Pad17)*%
X58000000Y-82640000D03*
%TO.P,J1,18*%
%TO.N,unconnected-(J1-GPIO11-Pad18)*%
X58000000Y-85180000D03*
%TO.P,J1,19*%
%TO.N,+5V*%
X58000000Y-87720000D03*
%TO.P,J1,20*%
%TO.N,GND*%
X83400000Y-42000000D03*
%TO.P,J1,21*%
%TO.N,MOSI*%
X83400000Y-44540000D03*
%TO.P,J1,22*%
%TO.N,SCL*%
X83400000Y-47080000D03*
%TO.P,J1,23*%
%TO.N,unconnected-(J1-GPIO1-Pad23)*%
X83400000Y-49620000D03*
%TO.P,J1,24*%
%TO.N,unconnected-(J1-GPIO3-Pad24)*%
X83400000Y-52160000D03*
%TO.P,J1,25*%
%TO.N,SDA*%
X83400000Y-54700000D03*
%TO.P,J1,26*%
%TO.N,GND*%
X83400000Y-57240000D03*
%TO.P,J1,27*%
%TO.N,MISO*%
X83400000Y-59780000D03*
%TO.P,J1,28*%
%TO.N,SCK*%
X83400000Y-62320000D03*
%TO.P,J1,29*%
%TO.N,CS*%
X83400000Y-64860000D03*
%TO.P,J1,30*%
%TO.N,DPS_TX*%
X83400000Y-67400000D03*
%TO.P,J1,31*%
%TO.N,DPS_RX*%
X83400000Y-69940000D03*
%TO.P,J1,32*%
%TO.N,OW*%
X83400000Y-72480000D03*
%TO.P,J1,33*%
%TO.N,unconnected-(J1-GPIO0-Pad33)*%
X83400000Y-75020000D03*
%TO.P,J1,34*%
%TO.N,unconnected-(J1-GPIO2-Pad34)*%
X83400000Y-77560000D03*
%TO.P,J1,35*%
%TO.N,unconnected-(J1-GPIO15-Pad35)*%
X83400000Y-80100000D03*
%TO.P,J1,36*%
%TO.N,unconnected-(J1-GPIO8-Pad36)*%
X83400000Y-82640000D03*
%TO.P,J1,37*%
%TO.N,unconnected-(J1-GPIO7-Pad37)*%
X83400000Y-85180000D03*
%TO.P,J1,38*%
%TO.N,unconnected-(J1-GPIO6-Pad38)*%
X83400000Y-87720000D03*
%TD*%
%TO.P,J6,1*%
%TO.N,GND*%
X44960000Y-61000000D03*
%TO.P,J6,2*%
%TO.N,SW1_ON*%
X47500000Y-61000000D03*
%TD*%
D13*
%TO.P,R17,1*%
%TO.N,SCL*%
X102000000Y-57900000D03*
%TO.P,R17,2*%
%TO.N,+3V3*%
X102000000Y-54100000D03*
%TD*%
D14*
%TO.P,R12,1*%
%TO.N,K1*%
X54900000Y-67400000D03*
%TO.P,R12,2*%
%TO.N,BASE1*%
X51100000Y-67400000D03*
%TD*%
%TO.P,R18,1*%
%TO.N,OW*%
X91199999Y-84000000D03*
%TO.P,R18,2*%
%TO.N,+3V3*%
X95000000Y-84000000D03*
%TD*%
D13*
%TO.P,R15,1*%
%TO.N,BASE2*%
X47000000Y-89100000D03*
%TO.P,R15,2*%
%TO.N,GND*%
X47000000Y-92900000D03*
%TD*%
D11*
%TO.P,J11,1*%
%TO.N,GND*%
X40000000Y-69000000D03*
%TO.P,J11,2*%
%TO.N,BTN*%
X42540000Y-69000000D03*
%TD*%
%TO.P,J28,1*%
%TO.N,RELAY_IN1*%
X37000000Y-98000000D03*
%TO.P,J28,2*%
%TO.N,RELAY_IN2*%
X39540000Y-98000000D03*
%TO.P,J28,3*%
%TO.N,GND*%
X42080000Y-98000000D03*
%TD*%
%TO.N,OW*%
D15*
X87199999Y-80000000D02*
X91199999Y-84000000D01*
X87199999Y-75279999D02*
X87199999Y-80000000D01*
X91199999Y-87800001D02*
X91199999Y-84000000D01*
X90000000Y-89000000D02*
X91199999Y-87800001D01*
X84400000Y-72480000D02*
X87199999Y-75279999D01*
X83400000Y-72480000D02*
X84400000Y-72480000D01*
%TO.N,+3V3*%
D16*
X104000000Y-64100000D02*
X94000000Y-54100000D01*
X94000000Y-42000000D02*
X102000000Y-42000000D01*
X93000000Y-38000000D02*
X93000000Y-41000000D01*
X105000000Y-94000000D02*
X95000000Y-94000000D01*
X32980000Y-99674000D02*
X39257000Y-105951000D01*
X93000000Y-41000000D02*
X94000000Y-42000000D01*
X82700000Y-102000000D02*
X94000000Y-90700000D01*
X57000000Y-42000000D02*
X32980000Y-66020000D01*
X52000000Y-54700000D02*
X52000000Y-42000000D01*
X94000000Y-90700000D02*
X95000000Y-90700000D01*
X95000000Y-94000000D02*
X95000000Y-84000000D01*
X95000000Y-84000000D02*
X95000000Y-89000000D01*
X94000000Y-54100000D02*
X102000000Y-54100000D01*
X87435000Y-105951000D02*
X104000000Y-89386000D01*
X39257000Y-105951000D02*
X87435000Y-105951000D01*
X32980000Y-66020000D02*
X32980000Y-99674000D01*
X95000000Y-90700000D02*
X95000000Y-89000000D01*
X52000000Y-42000000D02*
X58000000Y-42000000D01*
X94000000Y-54100000D02*
X105000000Y-65100000D01*
X58000000Y-42000000D02*
X57000000Y-42000000D01*
X104000000Y-89386000D02*
X104000000Y-64100000D01*
X105000000Y-65100000D02*
X105000000Y-94000000D01*
%TO.N,SCL*%
D15*
X94000000Y-47080000D02*
X102000000Y-47080000D01*
X83400000Y-47080000D02*
X94000000Y-47080000D01*
%TO.N,SDA*%
X90800000Y-54700000D02*
X94000000Y-57900000D01*
X106000000Y-39920000D02*
X106000000Y-49620000D01*
X98080000Y-38000000D02*
X98080000Y-32000000D01*
X92000000Y-55900000D02*
X94000000Y-57900000D01*
X83400000Y-54700000D02*
X90800000Y-54700000D01*
X106000000Y-49620000D02*
X102000000Y-49620000D01*
X92000000Y-51620000D02*
X92000000Y-55900000D01*
X94000000Y-49620000D02*
X92000000Y-51620000D01*
X98080000Y-32000000D02*
X106000000Y-39920000D01*
X94000000Y-49620000D02*
X102000000Y-49620000D01*
%TO.N,RELAY_IN1*%
X37000000Y-98000000D02*
X37000000Y-87460000D01*
X39460000Y-85000000D02*
X39460000Y-79000000D01*
X37000000Y-87460000D02*
X39460000Y-85000000D01*
%TO.N,BASE1*%
X42000000Y-81540000D02*
X42000000Y-78540000D01*
X42000000Y-78540000D02*
X48040000Y-72500000D01*
X50500000Y-72500000D02*
X52000000Y-71000000D01*
X51100000Y-70100000D02*
X51100000Y-67400000D01*
X48040000Y-72500000D02*
X50500000Y-72500000D01*
X52000000Y-71000000D02*
X51100000Y-70100000D01*
%TO.N,SENS_PWR*%
X52000000Y-59780000D02*
X58000000Y-59780000D01*
%TO.N,+5V*%
D16*
X58000000Y-87720000D02*
X60540000Y-90260000D01*
X60540000Y-90260000D02*
X60540000Y-98362500D01*
%TO.N,RELAY_IN2*%
D15*
X40460000Y-89000000D02*
X39540000Y-89920000D01*
X39540000Y-89920000D02*
X39540000Y-98000000D01*
X39460000Y-88000000D02*
X40460000Y-89000000D01*
%TO.N,BASE2*%
X42000000Y-90540000D02*
X45560000Y-90540000D01*
X47000000Y-89100000D02*
X51100000Y-85000000D01*
X45560000Y-90540000D02*
X47000000Y-89100000D01*
X51100000Y-85000000D02*
X51100000Y-77560000D01*
%TO.N,K2*%
X54900000Y-77560000D02*
X58000000Y-77560000D01*
%TO.N,MOSI*%
X84400000Y-44540000D02*
X83400000Y-44540000D01*
X82779000Y-44540000D02*
X84400000Y-44540000D01*
X70000000Y-57319000D02*
X82779000Y-44540000D01*
X70000000Y-102000000D02*
X70000000Y-57319000D01*
%TO.N,MISO*%
X82400000Y-59780000D02*
X83400000Y-59780000D01*
X75080000Y-67100000D02*
X82400000Y-59780000D01*
X75080000Y-102000000D02*
X75080000Y-67100000D01*
%TO.N,SCK*%
X82830000Y-62320000D02*
X84400000Y-62320000D01*
X77620000Y-102000000D02*
X77620000Y-67530000D01*
X84400000Y-62320000D02*
X83400000Y-62320000D01*
X77620000Y-67530000D02*
X82830000Y-62320000D01*
%TO.N,CS*%
X80160000Y-102000000D02*
X80160000Y-67100000D01*
X80160000Y-67100000D02*
X82400000Y-64860000D01*
X82400000Y-64860000D02*
X83400000Y-64860000D01*
%TO.N,DPS_TX*%
X84400000Y-67400000D02*
X92000000Y-75000000D01*
X83400000Y-67400000D02*
X84400000Y-67400000D01*
%TO.N,DPS_RX*%
X84400000Y-69940000D02*
X89000000Y-74540000D01*
X89000000Y-74540000D02*
X89000000Y-77540000D01*
X89000000Y-77540000D02*
X92000000Y-77540000D01*
X83400000Y-69940000D02*
X84400000Y-69940000D01*
%TO.N,SW2_ON*%
X47500000Y-64000000D02*
X48360000Y-64860000D01*
X48360000Y-64860000D02*
X58000000Y-64860000D01*
%TO.N,SW1_ON*%
X48820000Y-62320000D02*
X58000000Y-62320000D01*
X47500000Y-61000000D02*
X48820000Y-62320000D01*
%TO.N,K1*%
X54900000Y-67400000D02*
X58000000Y-67400000D01*
%TD*%
%TA.AperFunction,Conductor*%
%TO.N,GND*%
G36*
X97290372Y-30593910D02*
G01*
X97391412Y-30648590D01*
X97469223Y-30733115D01*
X97515373Y-30838326D01*
X97524860Y-30952820D01*
X97496657Y-31064192D01*
X97433820Y-31160371D01*
X97422053Y-31171484D01*
X97422468Y-31171899D01*
X97264025Y-31330341D01*
X97149059Y-31502400D01*
X97069870Y-31693580D01*
X97029500Y-31896534D01*
X97029500Y-36542513D01*
X97010590Y-36655833D01*
X96955910Y-36756873D01*
X96871385Y-36834684D01*
X96766174Y-36880834D01*
X96651680Y-36890321D01*
X96540308Y-36862118D01*
X96475364Y-36824860D01*
X96326445Y-36716664D01*
X96326427Y-36716653D01*
X96116000Y-36609436D01*
X96115998Y-36609435D01*
X96115992Y-36609432D01*
X96115987Y-36609430D01*
X96115984Y-36609429D01*
X95891376Y-36536449D01*
X95891361Y-36536445D01*
X95658096Y-36499500D01*
X95658092Y-36499500D01*
X95421908Y-36499500D01*
X95421903Y-36499500D01*
X95188638Y-36536445D01*
X95188623Y-36536449D01*
X94964015Y-36609429D01*
X94963999Y-36609436D01*
X94753572Y-36716653D01*
X94753567Y-36716656D01*
X94562487Y-36855485D01*
X94516778Y-36901194D01*
X94423277Y-36967952D01*
X94313166Y-37000732D01*
X94198377Y-36995984D01*
X94091349Y-36954220D01*
X94023222Y-36901194D01*
X93977512Y-36855485D01*
X93977511Y-36855484D01*
X93977510Y-36855483D01*
X93786433Y-36716657D01*
X93786434Y-36716657D01*
X93786432Y-36716656D01*
X93786427Y-36716653D01*
X93576000Y-36609436D01*
X93575998Y-36609435D01*
X93575992Y-36609432D01*
X93575987Y-36609430D01*
X93575984Y-36609429D01*
X93351376Y-36536449D01*
X93351361Y-36536445D01*
X93118096Y-36499500D01*
X93118092Y-36499500D01*
X92881908Y-36499500D01*
X92881903Y-36499500D01*
X92648638Y-36536445D01*
X92648623Y-36536449D01*
X92424015Y-36609429D01*
X92423999Y-36609436D01*
X92213572Y-36716653D01*
X92213567Y-36716656D01*
X92022488Y-36855484D01*
X91855484Y-37022488D01*
X91716656Y-37213567D01*
X91716653Y-37213572D01*
X91609436Y-37423999D01*
X91609429Y-37424015D01*
X91536449Y-37648623D01*
X91536445Y-37648638D01*
X91499500Y-37881903D01*
X91499500Y-38118096D01*
X91536445Y-38351361D01*
X91536449Y-38351376D01*
X91609429Y-38575984D01*
X91609436Y-38576000D01*
X91716653Y-38786427D01*
X91716656Y-38786432D01*
X91782847Y-38877535D01*
X91834156Y-38980328D01*
X91849500Y-39082673D01*
X91849500Y-40897053D01*
X91849499Y-40897083D01*
X91849499Y-40909454D01*
X91849499Y-41090546D01*
X91874834Y-41250499D01*
X91877829Y-41269409D01*
X91914192Y-41381327D01*
X91933788Y-41441637D01*
X91933791Y-41441643D01*
X92015996Y-41602980D01*
X92016000Y-41602987D01*
X92016004Y-41602994D01*
X92122447Y-41749501D01*
X92122450Y-41749504D01*
X92270383Y-41897438D01*
X92270402Y-41897454D01*
X92420908Y-42047960D01*
X92487666Y-42141460D01*
X92518831Y-42240145D01*
X92536445Y-42351361D01*
X92536449Y-42351376D01*
X92609429Y-42575984D01*
X92609436Y-42576000D01*
X92716653Y-42786427D01*
X92716656Y-42786432D01*
X92716657Y-42786433D01*
X92855483Y-42977510D01*
X93022490Y-43144517D01*
X93176836Y-43256656D01*
X93213567Y-43283343D01*
X93213572Y-43283346D01*
X93323411Y-43339311D01*
X93424008Y-43390568D01*
X93648632Y-43463553D01*
X93881908Y-43500500D01*
X93881912Y-43500500D01*
X94118088Y-43500500D01*
X94118092Y-43500500D01*
X94351368Y-43463553D01*
X94575992Y-43390568D01*
X94786433Y-43283343D01*
X94877536Y-43217152D01*
X94980328Y-43165844D01*
X95082673Y-43150500D01*
X100917327Y-43150500D01*
X101030647Y-43169410D01*
X101122465Y-43217153D01*
X101213567Y-43283343D01*
X101213572Y-43283346D01*
X101323411Y-43339311D01*
X101424008Y-43390568D01*
X101648632Y-43463553D01*
X101881908Y-43500500D01*
X101881912Y-43500500D01*
X102118088Y-43500500D01*
X102118092Y-43500500D01*
X102351368Y-43463553D01*
X102575992Y-43390568D01*
X102786433Y-43283343D01*
X102977510Y-43144517D01*
X103144517Y-42977510D01*
X103283343Y-42786433D01*
X103390568Y-42575992D01*
X103463553Y-42351368D01*
X103500500Y-42118092D01*
X103500500Y-41881908D01*
X103463553Y-41648632D01*
X103390568Y-41424008D01*
X103283343Y-41213567D01*
X103144517Y-41022490D01*
X102977510Y-40855483D01*
X102786436Y-40716659D01*
X102786432Y-40716656D01*
X102786427Y-40716653D01*
X102576000Y-40609436D01*
X102575998Y-40609435D01*
X102575992Y-40609432D01*
X102575987Y-40609430D01*
X102575984Y-40609429D01*
X102351376Y-40536449D01*
X102351361Y-40536445D01*
X102118096Y-40499500D01*
X102118092Y-40499500D01*
X101881908Y-40499500D01*
X101881903Y-40499500D01*
X101648638Y-40536445D01*
X101648623Y-40536449D01*
X101424015Y-40609429D01*
X101423999Y-40609436D01*
X101213572Y-40716653D01*
X101213567Y-40716656D01*
X101141717Y-40768858D01*
X101122468Y-40782845D01*
X101122465Y-40782847D01*
X101019672Y-40834156D01*
X100917327Y-40849500D01*
X95082673Y-40849500D01*
X94969353Y-40830590D01*
X94877535Y-40782847D01*
X94877532Y-40782845D01*
X94786436Y-40716659D01*
X94786432Y-40716656D01*
X94786427Y-40716653D01*
X94576000Y-40609436D01*
X94575998Y-40609435D01*
X94575992Y-40609432D01*
X94575989Y-40609431D01*
X94575987Y-40609430D01*
X94391651Y-40549535D01*
X94289721Y-40496532D01*
X94210524Y-40413305D01*
X94162642Y-40308871D01*
X94150500Y-40217617D01*
X94150500Y-39530140D01*
X94169410Y-39416820D01*
X94224090Y-39315780D01*
X94308615Y-39237969D01*
X94413826Y-39191819D01*
X94528320Y-39182332D01*
X94639692Y-39210535D01*
X94704639Y-39247795D01*
X94724836Y-39262469D01*
X94753567Y-39283343D01*
X94753569Y-39283344D01*
X94753572Y-39283346D01*
X94804357Y-39309222D01*
X94964008Y-39390568D01*
X95188632Y-39463553D01*
X95421908Y-39500500D01*
X95421912Y-39500500D01*
X95658088Y-39500500D01*
X95658092Y-39500500D01*
X95891368Y-39463553D01*
X96115992Y-39390568D01*
X96326433Y-39283343D01*
X96517510Y-39144517D01*
X96563220Y-39098807D01*
X96656720Y-39032049D01*
X96766831Y-38999267D01*
X96881620Y-39004015D01*
X96988648Y-39045777D01*
X97056780Y-39098807D01*
X97102490Y-39144517D01*
X97280458Y-39273819D01*
X97293567Y-39283343D01*
X97293572Y-39283346D01*
X97344357Y-39309222D01*
X97504008Y-39390568D01*
X97728632Y-39463553D01*
X97961908Y-39500500D01*
X97961912Y-39500500D01*
X98198088Y-39500500D01*
X98198092Y-39500500D01*
X98431368Y-39463553D01*
X98655992Y-39390568D01*
X98866433Y-39283343D01*
X99057510Y-39144517D01*
X99224517Y-38977510D01*
X99363343Y-38786433D01*
X99470568Y-38575992D01*
X99543553Y-38351368D01*
X99580500Y-38118092D01*
X99580500Y-37881908D01*
X99543553Y-37648632D01*
X99470568Y-37424008D01*
X99363343Y-37213567D01*
X99224517Y-37022490D01*
X99224514Y-37022487D01*
X99215617Y-37012070D01*
X99217981Y-37010050D01*
X99165962Y-36937193D01*
X99133180Y-36827082D01*
X99130500Y-36783913D01*
X99130500Y-35378691D01*
X99149410Y-35265371D01*
X99204090Y-35164331D01*
X99288615Y-35086520D01*
X99393826Y-35040370D01*
X99508320Y-35030883D01*
X99619692Y-35059086D01*
X99715871Y-35121923D01*
X99726280Y-35131911D01*
X104847280Y-40252911D01*
X104914038Y-40346411D01*
X104946820Y-40456522D01*
X104949500Y-40499691D01*
X104949500Y-48220500D01*
X104930590Y-48333820D01*
X104875910Y-48434860D01*
X104791385Y-48512671D01*
X104686174Y-48558821D01*
X104600500Y-48569500D01*
X103457486Y-48569500D01*
X103344166Y-48550590D01*
X103243126Y-48495910D01*
X103165315Y-48411385D01*
X103119165Y-48306174D01*
X103109678Y-48191680D01*
X103137881Y-48080308D01*
X103175139Y-48015362D01*
X103283343Y-47866433D01*
X103390568Y-47655992D01*
X103463553Y-47431368D01*
X103500500Y-47198092D01*
X103500500Y-46961908D01*
X103463553Y-46728632D01*
X103390568Y-46504008D01*
X103283343Y-46293567D01*
X103144517Y-46102490D01*
X102977510Y-45935483D01*
X102786433Y-45796657D01*
X102786434Y-45796657D01*
X102786432Y-45796656D01*
X102786427Y-45796653D01*
X102576000Y-45689436D01*
X102575998Y-45689435D01*
X102575992Y-45689432D01*
X102575987Y-45689430D01*
X102575984Y-45689429D01*
X102351376Y-45616449D01*
X102351361Y-45616445D01*
X102118096Y-45579500D01*
X102118092Y-45579500D01*
X101881908Y-45579500D01*
X101881903Y-45579500D01*
X101648638Y-45616445D01*
X101648623Y-45616449D01*
X101424015Y-45689429D01*
X101423999Y-45689436D01*
X101213572Y-45796653D01*
X101213567Y-45796656D01*
X101022487Y-45935485D01*
X101012070Y-45944383D01*
X101010050Y-45942018D01*
X100937193Y-45994038D01*
X100827082Y-46026820D01*
X100783913Y-46029500D01*
X95216087Y-46029500D01*
X95102767Y-46010590D01*
X95001727Y-45955910D01*
X94988249Y-45944008D01*
X94987930Y-45944383D01*
X94977512Y-45935485D01*
X94977511Y-45935484D01*
X94977510Y-45935483D01*
X94786433Y-45796657D01*
X94786434Y-45796657D01*
X94786432Y-45796656D01*
X94786427Y-45796653D01*
X94576000Y-45689436D01*
X94575998Y-45689435D01*
X94575992Y-45689432D01*
X94575987Y-45689430D01*
X94575984Y-45689429D01*
X94351376Y-45616449D01*
X94351361Y-45616445D01*
X94118096Y-45579500D01*
X94118092Y-45579500D01*
X93881908Y-45579500D01*
X93881903Y-45579500D01*
X93648638Y-45616445D01*
X93648623Y-45616449D01*
X93424015Y-45689429D01*
X93423999Y-45689436D01*
X93213572Y-45796653D01*
X93213567Y-45796656D01*
X93022487Y-45935485D01*
X93012070Y-45944383D01*
X93010050Y-45942018D01*
X92937193Y-45994038D01*
X92827082Y-46026820D01*
X92783913Y-46029500D01*
X85212155Y-46029500D01*
X85098835Y-46010590D01*
X84997795Y-45955910D01*
X84919984Y-45871385D01*
X84873834Y-45766174D01*
X84864347Y-45651680D01*
X84892550Y-45540308D01*
X84955387Y-45444129D01*
X85018262Y-45390317D01*
X85041179Y-45375003D01*
X85069655Y-45355977D01*
X85069656Y-45355976D01*
X85069658Y-45355975D01*
X85215974Y-45209658D01*
X85215977Y-45209655D01*
X85330941Y-45037598D01*
X85410130Y-44846420D01*
X85450500Y-44643465D01*
X85450500Y-44436535D01*
X85410130Y-44233580D01*
X85330941Y-44042402D01*
X85215977Y-43870345D01*
X85215976Y-43870344D01*
X85215974Y-43870341D01*
X85069658Y-43724025D01*
X84897599Y-43609059D01*
X84706420Y-43529870D01*
X84567429Y-43502223D01*
X84459975Y-43461569D01*
X84388736Y-43406709D01*
X84377511Y-43395484D01*
X84377508Y-43395482D01*
X84186433Y-43256657D01*
X84186434Y-43256657D01*
X84186432Y-43256656D01*
X84186427Y-43256653D01*
X83976000Y-43149436D01*
X83975998Y-43149435D01*
X83975992Y-43149432D01*
X83975987Y-43149430D01*
X83975984Y-43149429D01*
X83751376Y-43076449D01*
X83751361Y-43076445D01*
X83518096Y-43039500D01*
X83518092Y-43039500D01*
X83281908Y-43039500D01*
X83281903Y-43039500D01*
X83048638Y-43076445D01*
X83048623Y-43076449D01*
X82824015Y-43149429D01*
X82823999Y-43149436D01*
X82613572Y-43256653D01*
X82613567Y-43256656D01*
X82422491Y-43395482D01*
X82255481Y-43562491D01*
X82201901Y-43636237D01*
X82119994Y-43716799D01*
X82113457Y-43721275D01*
X82109348Y-43724020D01*
X82109343Y-43724024D01*
X69330345Y-56503023D01*
X69330344Y-56503024D01*
X69184025Y-56649341D01*
X69069059Y-56821400D01*
X68989870Y-57012580D01*
X68949500Y-57215534D01*
X68949500Y-100783913D01*
X68930590Y-100897233D01*
X68875910Y-100998273D01*
X68864008Y-101011750D01*
X68864383Y-101012070D01*
X68855485Y-101022487D01*
X68716656Y-101213567D01*
X68716653Y-101213572D01*
X68609436Y-101423999D01*
X68609429Y-101424015D01*
X68536449Y-101648623D01*
X68536445Y-101648638D01*
X68499500Y-101881903D01*
X68499500Y-102118096D01*
X68536445Y-102351361D01*
X68536449Y-102351376D01*
X68609429Y-102575984D01*
X68609436Y-102576000D01*
X68716653Y-102786427D01*
X68716656Y-102786432D01*
X68716657Y-102786433D01*
X68855483Y-102977510D01*
X69022490Y-103144517D01*
X69114253Y-103211187D01*
X69213567Y-103283343D01*
X69213572Y-103283346D01*
X69323411Y-103339311D01*
X69424008Y-103390568D01*
X69648632Y-103463553D01*
X69881908Y-103500500D01*
X69881912Y-103500500D01*
X70118088Y-103500500D01*
X70118092Y-103500500D01*
X70351368Y-103463553D01*
X70575992Y-103390568D01*
X70786433Y-103283343D01*
X70977510Y-103144517D01*
X71144517Y-102977510D01*
X71283343Y-102786433D01*
X71390568Y-102575992D01*
X71463553Y-102351368D01*
X71500500Y-102118092D01*
X71500500Y-101881908D01*
X71463553Y-101648632D01*
X71390568Y-101424008D01*
X71283343Y-101213567D01*
X71144517Y-101022490D01*
X71144514Y-101022487D01*
X71135617Y-101012070D01*
X71137981Y-101010050D01*
X71085962Y-100937193D01*
X71053180Y-100827082D01*
X71050500Y-100783913D01*
X71050500Y-57898690D01*
X71069410Y-57785370D01*
X71124090Y-57684330D01*
X71152712Y-57651918D01*
X81395627Y-47409002D01*
X81489124Y-47342247D01*
X81599235Y-47309465D01*
X81714024Y-47314213D01*
X81821052Y-47355975D01*
X81908720Y-47430227D01*
X81967529Y-47528921D01*
X81974322Y-47547936D01*
X82009430Y-47655987D01*
X82009436Y-47656000D01*
X82116653Y-47866427D01*
X82116656Y-47866432D01*
X82116657Y-47866433D01*
X82255483Y-48057510D01*
X82255484Y-48057511D01*
X82255485Y-48057512D01*
X82301194Y-48103222D01*
X82367952Y-48196723D01*
X82400732Y-48306834D01*
X82395984Y-48421623D01*
X82354220Y-48528651D01*
X82301194Y-48596778D01*
X82255485Y-48642487D01*
X82116656Y-48833567D01*
X82116653Y-48833572D01*
X82009436Y-49043999D01*
X82009429Y-49044015D01*
X81936449Y-49268623D01*
X81936445Y-49268638D01*
X81899500Y-49501903D01*
X81899500Y-49738096D01*
X81936445Y-49971361D01*
X81936449Y-49971376D01*
X82009429Y-50195984D01*
X82009436Y-50196000D01*
X82116653Y-50406427D01*
X82116656Y-50406432D01*
X82116657Y-50406433D01*
X82255483Y-50597510D01*
X82255484Y-50597511D01*
X82255485Y-50597512D01*
X82301194Y-50643222D01*
X82367952Y-50736723D01*
X82400732Y-50846834D01*
X82395984Y-50961623D01*
X82354220Y-51068651D01*
X82301194Y-51136778D01*
X82255485Y-51182487D01*
X82116656Y-51373567D01*
X82116653Y-51373572D01*
X82009436Y-51583999D01*
X82009429Y-51584015D01*
X81936449Y-51808623D01*
X81936445Y-51808638D01*
X81899500Y-52041903D01*
X81899500Y-52278096D01*
X81936445Y-52511361D01*
X81936449Y-52511376D01*
X82009429Y-52735984D01*
X82009436Y-52736000D01*
X82116653Y-52946427D01*
X82116656Y-52946432D01*
X82116657Y-52946433D01*
X82255483Y-53137510D01*
X82255484Y-53137511D01*
X82255485Y-53137512D01*
X82301194Y-53183222D01*
X82367952Y-53276723D01*
X82400732Y-53386834D01*
X82395984Y-53501623D01*
X82354220Y-53608651D01*
X82301194Y-53676778D01*
X82255485Y-53722487D01*
X82116656Y-53913567D01*
X82116653Y-53913572D01*
X82009436Y-54123999D01*
X82009429Y-54124015D01*
X81936449Y-54348623D01*
X81936445Y-54348638D01*
X81899500Y-54581903D01*
X81899500Y-54818096D01*
X81936445Y-55051361D01*
X81936449Y-55051376D01*
X82009429Y-55275984D01*
X82009436Y-55276000D01*
X82116653Y-55486427D01*
X82116656Y-55486432D01*
X82186070Y-55581971D01*
X82255483Y-55677510D01*
X82422490Y-55844517D01*
X82595202Y-55970000D01*
X82613567Y-55983343D01*
X82613572Y-55983346D01*
X82723411Y-56039311D01*
X82824008Y-56090568D01*
X83048632Y-56163553D01*
X83281908Y-56200500D01*
X83281912Y-56200500D01*
X83518088Y-56200500D01*
X83518092Y-56200500D01*
X83751368Y-56163553D01*
X83975992Y-56090568D01*
X84186433Y-55983343D01*
X84377510Y-55844517D01*
X84377518Y-55844508D01*
X84387930Y-55835617D01*
X84389949Y-55837981D01*
X84462807Y-55785962D01*
X84572918Y-55753180D01*
X84616087Y-55750500D01*
X90220309Y-55750500D01*
X90333629Y-55769410D01*
X90434669Y-55824090D01*
X90467089Y-55852720D01*
X91175258Y-56560889D01*
X91175265Y-56560897D01*
X91342528Y-56728160D01*
X91342538Y-56728169D01*
X92597280Y-57982911D01*
X92664038Y-58076411D01*
X92696820Y-58186522D01*
X92699500Y-58229691D01*
X92699500Y-58947870D01*
X92705909Y-59007485D01*
X92705910Y-59007488D01*
X92756202Y-59142328D01*
X92756203Y-59142329D01*
X92756204Y-59142331D01*
X92842454Y-59257546D01*
X92934523Y-59326469D01*
X92957670Y-59343797D01*
X93025093Y-59368943D01*
X93092517Y-59394091D01*
X93152127Y-59400500D01*
X94847872Y-59400499D01*
X94907483Y-59394091D01*
X95042331Y-59343796D01*
X95157546Y-59257546D01*
X95243796Y-59142331D01*
X95294091Y-59007483D01*
X95300500Y-58947873D01*
X95300499Y-57870109D01*
X95319409Y-57756792D01*
X95374089Y-57655752D01*
X95458614Y-57577941D01*
X95563824Y-57531791D01*
X95678319Y-57522304D01*
X95789690Y-57550507D01*
X95885870Y-57613344D01*
X95896279Y-57623332D01*
X102747280Y-64474333D01*
X102814038Y-64567833D01*
X102846820Y-64677944D01*
X102849500Y-64721113D01*
X102849500Y-88764887D01*
X102830590Y-88878207D01*
X102775910Y-88979247D01*
X102747280Y-89011667D01*
X99011668Y-92747280D01*
X98918168Y-92814038D01*
X98808057Y-92846820D01*
X98764888Y-92849500D01*
X96499500Y-92849500D01*
X96386180Y-92830590D01*
X96285140Y-92775910D01*
X96207329Y-92691385D01*
X96161179Y-92586174D01*
X96150500Y-92500500D01*
X96150500Y-91125992D01*
X96169410Y-91012672D01*
X96224090Y-90911632D01*
X96287042Y-90849112D01*
X96445095Y-90727833D01*
X96487042Y-90695646D01*
X96695646Y-90487042D01*
X96875238Y-90252994D01*
X97022743Y-89997507D01*
X97135639Y-89724952D01*
X97211993Y-89439993D01*
X97236130Y-89256656D01*
X97250500Y-89147510D01*
X97250500Y-88852489D01*
X97211994Y-88560016D01*
X97211993Y-88560007D01*
X97135639Y-88275048D01*
X97108281Y-88209001D01*
X97022744Y-88002495D01*
X97022744Y-88002494D01*
X96939129Y-87857669D01*
X96875238Y-87747006D01*
X96805563Y-87656204D01*
X96695650Y-87512963D01*
X96695634Y-87512945D01*
X96487054Y-87304365D01*
X96487036Y-87304349D01*
X96287042Y-87150888D01*
X96208651Y-87066901D01*
X96161777Y-86962011D01*
X96150500Y-86874008D01*
X96150500Y-85487236D01*
X96169410Y-85373916D01*
X96224090Y-85272876D01*
X96290350Y-85207848D01*
X96357546Y-85157546D01*
X96443796Y-85042331D01*
X96494091Y-84907483D01*
X96500500Y-84847873D01*
X96500499Y-83152128D01*
X96494091Y-83092517D01*
X96460910Y-83003553D01*
X96443797Y-82957671D01*
X96443796Y-82957669D01*
X96357546Y-82842454D01*
X96278294Y-82783126D01*
X96242329Y-82756202D01*
X96107483Y-82705909D01*
X96107485Y-82705909D01*
X96083639Y-82703345D01*
X96047873Y-82699500D01*
X96047870Y-82699500D01*
X93952129Y-82699500D01*
X93892514Y-82705909D01*
X93892511Y-82705910D01*
X93757671Y-82756202D01*
X93642454Y-82842454D01*
X93556202Y-82957670D01*
X93505909Y-83092515D01*
X93499500Y-83152129D01*
X93499500Y-84847870D01*
X93505909Y-84907485D01*
X93505910Y-84907488D01*
X93556202Y-85042328D01*
X93556203Y-85042329D01*
X93556204Y-85042331D01*
X93642454Y-85157546D01*
X93709649Y-85207848D01*
X93789033Y-85290896D01*
X93837151Y-85395220D01*
X93849500Y-85487236D01*
X93849500Y-86874008D01*
X93830590Y-86987328D01*
X93775910Y-87088368D01*
X93712958Y-87150888D01*
X93512963Y-87304349D01*
X93512945Y-87304365D01*
X93304365Y-87512945D01*
X93304349Y-87512963D01*
X93124767Y-87746998D01*
X93124761Y-87747007D01*
X92977255Y-88002494D01*
X92977254Y-88002498D01*
X92897188Y-88195793D01*
X92836352Y-88293250D01*
X92747167Y-88365674D01*
X92639299Y-88405215D01*
X92524437Y-88407589D01*
X92415027Y-88372538D01*
X92322926Y-88303861D01*
X92258115Y-88209001D01*
X92227617Y-88098236D01*
X92232461Y-87994148D01*
X92250500Y-87903466D01*
X92250500Y-87696536D01*
X92250500Y-87682132D01*
X92250499Y-87682106D01*
X92250499Y-85555615D01*
X92269409Y-85442295D01*
X92324089Y-85341255D01*
X92408614Y-85263444D01*
X92432243Y-85249304D01*
X92442327Y-85243797D01*
X92442326Y-85243797D01*
X92442330Y-85243796D01*
X92557545Y-85157546D01*
X92643795Y-85042331D01*
X92694090Y-84907483D01*
X92700499Y-84847873D01*
X92700498Y-83152128D01*
X92694090Y-83092517D01*
X92660909Y-83003553D01*
X92643796Y-82957671D01*
X92643795Y-82957669D01*
X92557545Y-82842454D01*
X92478293Y-82783126D01*
X92442328Y-82756202D01*
X92307482Y-82705909D01*
X92307484Y-82705909D01*
X92277677Y-82702704D01*
X92247872Y-82699500D01*
X92247870Y-82699500D01*
X91529690Y-82699500D01*
X91416370Y-82680590D01*
X91315330Y-82625910D01*
X91282910Y-82597280D01*
X88352719Y-79667089D01*
X88285961Y-79573589D01*
X88253179Y-79463478D01*
X88250499Y-79420309D01*
X88250499Y-78886294D01*
X88269409Y-78772974D01*
X88324089Y-78671934D01*
X88408614Y-78594123D01*
X88513825Y-78547973D01*
X88628319Y-78538486D01*
X88676582Y-78547699D01*
X88676764Y-78546785D01*
X88693579Y-78550129D01*
X88693580Y-78550130D01*
X88896535Y-78590500D01*
X90783913Y-78590500D01*
X90897233Y-78609410D01*
X90998273Y-78664090D01*
X91011750Y-78675991D01*
X91012070Y-78675617D01*
X91022487Y-78684514D01*
X91022490Y-78684517D01*
X91163317Y-78786834D01*
X91213567Y-78823343D01*
X91213572Y-78823346D01*
X91323411Y-78879311D01*
X91424008Y-78930568D01*
X91648632Y-79003553D01*
X91881908Y-79040500D01*
X91881912Y-79040500D01*
X92118088Y-79040500D01*
X92118092Y-79040500D01*
X92351368Y-79003553D01*
X92575992Y-78930568D01*
X92786433Y-78823343D01*
X92977510Y-78684517D01*
X93144517Y-78517510D01*
X93283343Y-78326433D01*
X93390568Y-78115992D01*
X93463553Y-77891368D01*
X93500500Y-77658092D01*
X93500500Y-77421908D01*
X93463553Y-77188632D01*
X93390568Y-76964008D01*
X93283343Y-76753567D01*
X93144517Y-76562490D01*
X93098807Y-76516780D01*
X93032049Y-76423280D01*
X92999267Y-76313169D01*
X93004015Y-76198380D01*
X93045777Y-76091352D01*
X93098807Y-76023220D01*
X93144517Y-75977510D01*
X93283343Y-75786433D01*
X93390568Y-75575992D01*
X93463553Y-75351368D01*
X93500500Y-75118092D01*
X93500500Y-74881908D01*
X93463553Y-74648632D01*
X93390568Y-74424008D01*
X93283343Y-74213567D01*
X93144517Y-74022490D01*
X92977510Y-73855483D01*
X92786433Y-73716657D01*
X92786434Y-73716657D01*
X92786432Y-73716656D01*
X92786427Y-73716653D01*
X92576000Y-73609436D01*
X92575998Y-73609435D01*
X92575992Y-73609432D01*
X92575987Y-73609430D01*
X92575984Y-73609429D01*
X92351376Y-73536449D01*
X92351361Y-73536445D01*
X92118096Y-73499500D01*
X92104418Y-73498424D01*
X92104662Y-73495323D01*
X92016371Y-73480590D01*
X91915331Y-73425910D01*
X91882911Y-73397280D01*
X85228169Y-66742538D01*
X85228164Y-66742532D01*
X85228164Y-66742533D01*
X85215978Y-66730347D01*
X85215977Y-66730345D01*
X85069655Y-66584023D01*
X85021922Y-66552129D01*
X84897599Y-66469059D01*
X84690580Y-66383309D01*
X84691505Y-66381075D01*
X84610805Y-66341107D01*
X84529987Y-66259453D01*
X84480061Y-66155981D01*
X84466438Y-66041904D01*
X84490593Y-65929585D01*
X84538481Y-65850074D01*
X84536457Y-65848603D01*
X84544517Y-65837510D01*
X84683343Y-65646433D01*
X84790568Y-65435992D01*
X84863553Y-65211368D01*
X84900500Y-64978092D01*
X84900500Y-64741908D01*
X84863553Y-64508632D01*
X84790568Y-64284008D01*
X84683343Y-64073567D01*
X84544517Y-63882490D01*
X84544515Y-63882488D01*
X84536457Y-63871397D01*
X84538486Y-63869922D01*
X84490470Y-63790102D01*
X84466423Y-63677760D01*
X84480156Y-63563697D01*
X84530181Y-63460273D01*
X84611077Y-63378696D01*
X84691502Y-63338917D01*
X84690580Y-63336691D01*
X84706419Y-63330130D01*
X84706420Y-63330130D01*
X84897598Y-63250941D01*
X85069655Y-63135977D01*
X85215977Y-62989655D01*
X85330941Y-62817598D01*
X85410130Y-62626420D01*
X85450500Y-62423465D01*
X85450500Y-62216535D01*
X85410130Y-62013580D01*
X85330941Y-61822402D01*
X85306907Y-61786433D01*
X85215974Y-61650341D01*
X85069658Y-61504025D01*
X84897599Y-61389059D01*
X84690580Y-61303309D01*
X84691505Y-61301075D01*
X84610805Y-61261107D01*
X84529987Y-61179453D01*
X84480061Y-61075981D01*
X84466438Y-60961904D01*
X84490593Y-60849585D01*
X84538481Y-60770074D01*
X84536457Y-60768603D01*
X84623617Y-60648638D01*
X84683343Y-60566433D01*
X84790568Y-60355992D01*
X84863553Y-60131368D01*
X84900500Y-59898092D01*
X84900500Y-59661908D01*
X84863553Y-59428632D01*
X84790568Y-59204008D01*
X84683343Y-58993567D01*
X84544517Y-58802490D01*
X84377510Y-58635483D01*
X84204798Y-58510000D01*
X84186432Y-58496656D01*
X84186427Y-58496653D01*
X83976000Y-58389436D01*
X83975998Y-58389435D01*
X83975992Y-58389432D01*
X83975987Y-58389430D01*
X83975984Y-58389429D01*
X83751376Y-58316449D01*
X83751361Y-58316445D01*
X83518096Y-58279500D01*
X83518092Y-58279500D01*
X83281908Y-58279500D01*
X83281903Y-58279500D01*
X83048638Y-58316445D01*
X83048623Y-58316449D01*
X82824015Y-58389429D01*
X82823999Y-58389436D01*
X82613572Y-58496653D01*
X82613567Y-58496656D01*
X82422487Y-58635485D01*
X82411257Y-58646715D01*
X82317755Y-58713471D01*
X82232570Y-58742223D01*
X82093579Y-58769870D01*
X81902400Y-58849059D01*
X81730341Y-58964025D01*
X81584024Y-59110344D01*
X74410344Y-66284024D01*
X74264025Y-66430341D01*
X74149059Y-66602400D01*
X74069870Y-66793580D01*
X74029500Y-66996534D01*
X74029500Y-100783913D01*
X74010590Y-100897233D01*
X73955910Y-100998273D01*
X73944008Y-101011750D01*
X73944383Y-101012070D01*
X73935485Y-101022487D01*
X73796656Y-101213567D01*
X73796653Y-101213572D01*
X73689436Y-101423999D01*
X73689429Y-101424015D01*
X73616449Y-101648623D01*
X73616445Y-101648638D01*
X73579500Y-101881903D01*
X73579500Y-102118096D01*
X73616445Y-102351361D01*
X73616449Y-102351376D01*
X73689429Y-102575984D01*
X73689436Y-102576000D01*
X73796653Y-102786427D01*
X73796656Y-102786432D01*
X73796657Y-102786433D01*
X73935483Y-102977510D01*
X74102490Y-103144517D01*
X74194253Y-103211187D01*
X74293567Y-103283343D01*
X74293572Y-103283346D01*
X74403411Y-103339311D01*
X74504008Y-103390568D01*
X74728632Y-103463553D01*
X74961908Y-103500500D01*
X74961912Y-103500500D01*
X75198088Y-103500500D01*
X75198092Y-103500500D01*
X75431368Y-103463553D01*
X75655992Y-103390568D01*
X75866433Y-103283343D01*
X76057510Y-103144517D01*
X76103220Y-103098807D01*
X76196720Y-103032049D01*
X76306831Y-102999267D01*
X76421620Y-103004015D01*
X76528648Y-103045777D01*
X76596780Y-103098807D01*
X76642490Y-103144517D01*
X76734253Y-103211187D01*
X76833567Y-103283343D01*
X76833572Y-103283346D01*
X76943411Y-103339311D01*
X77044008Y-103390568D01*
X77268632Y-103463553D01*
X77501908Y-103500500D01*
X77501912Y-103500500D01*
X77738088Y-103500500D01*
X77738092Y-103500500D01*
X77971368Y-103463553D01*
X78195992Y-103390568D01*
X78406433Y-103283343D01*
X78597510Y-103144517D01*
X78643220Y-103098807D01*
X78736720Y-103032049D01*
X78846831Y-102999267D01*
X78961620Y-103004015D01*
X79068648Y-103045777D01*
X79136780Y-103098807D01*
X79182490Y-103144517D01*
X79274253Y-103211187D01*
X79373567Y-103283343D01*
X79373572Y-103283346D01*
X79483411Y-103339311D01*
X79584008Y-103390568D01*
X79808632Y-103463553D01*
X80041908Y-103500500D01*
X80041912Y-103500500D01*
X80278088Y-103500500D01*
X80278092Y-103500500D01*
X80511368Y-103463553D01*
X80735992Y-103390568D01*
X80946433Y-103283343D01*
X81137510Y-103144517D01*
X81183220Y-103098807D01*
X81276720Y-103032049D01*
X81386831Y-102999267D01*
X81501620Y-103004015D01*
X81608648Y-103045777D01*
X81676780Y-103098807D01*
X81722490Y-103144517D01*
X81814253Y-103211187D01*
X81913567Y-103283343D01*
X81913572Y-103283346D01*
X82023411Y-103339311D01*
X82124008Y-103390568D01*
X82348632Y-103463553D01*
X82581908Y-103500500D01*
X82581912Y-103500500D01*
X82818088Y-103500500D01*
X82818092Y-103500500D01*
X83051368Y-103463553D01*
X83275992Y-103390568D01*
X83486433Y-103283343D01*
X83677510Y-103144517D01*
X83844517Y-102977510D01*
X83983343Y-102786433D01*
X84090568Y-102575992D01*
X84163553Y-102351368D01*
X84181169Y-102240140D01*
X84217571Y-102131180D01*
X84279088Y-102047963D01*
X93253723Y-93073329D01*
X93347220Y-93006574D01*
X93457331Y-92973792D01*
X93572120Y-92978540D01*
X93679148Y-93020302D01*
X93766816Y-93094554D01*
X93825625Y-93193248D01*
X93849202Y-93305690D01*
X93849500Y-93320112D01*
X93849500Y-94090550D01*
X93877827Y-94269401D01*
X93877831Y-94269418D01*
X93933785Y-94441629D01*
X93933791Y-94441643D01*
X94015996Y-94602980D01*
X94016000Y-94602987D01*
X94016004Y-94602994D01*
X94122447Y-94749501D01*
X94250499Y-94877553D01*
X94397006Y-94983996D01*
X94397015Y-94984000D01*
X94397019Y-94984003D01*
X94470265Y-95021323D01*
X94558361Y-95066211D01*
X94558369Y-95066213D01*
X94558370Y-95066214D01*
X94730581Y-95122168D01*
X94730583Y-95122168D01*
X94730591Y-95122171D01*
X94909454Y-95150500D01*
X95090546Y-95150500D01*
X95765888Y-95150500D01*
X95879208Y-95169410D01*
X95980248Y-95224090D01*
X96058059Y-95308615D01*
X96104209Y-95413826D01*
X96113696Y-95528320D01*
X96085493Y-95639692D01*
X96022656Y-95735871D01*
X96012669Y-95746278D01*
X91481967Y-100276980D01*
X87060667Y-104698280D01*
X86967167Y-104765038D01*
X86857056Y-104797820D01*
X86813887Y-104800500D01*
X39878112Y-104800500D01*
X39764792Y-104781590D01*
X39663752Y-104726910D01*
X39631332Y-104698280D01*
X34232720Y-99299667D01*
X34165962Y-99206167D01*
X34133180Y-99096056D01*
X34130500Y-99052887D01*
X34130500Y-68881903D01*
X41039500Y-68881903D01*
X41039500Y-69118096D01*
X41076445Y-69351361D01*
X41076449Y-69351376D01*
X41149429Y-69575984D01*
X41149436Y-69576000D01*
X41256653Y-69786427D01*
X41256656Y-69786432D01*
X41282431Y-69821908D01*
X41395483Y-69977510D01*
X41562490Y-70144517D01*
X41616867Y-70184024D01*
X41753567Y-70283343D01*
X41753572Y-70283346D01*
X41845804Y-70330340D01*
X41964008Y-70390568D01*
X42188632Y-70463553D01*
X42421908Y-70500500D01*
X42421912Y-70500500D01*
X42658088Y-70500500D01*
X42658092Y-70500500D01*
X42891368Y-70463553D01*
X43115992Y-70390568D01*
X43326433Y-70283343D01*
X43517510Y-70144517D01*
X43684517Y-69977510D01*
X43823343Y-69786433D01*
X43930568Y-69575992D01*
X44003553Y-69351368D01*
X44040500Y-69118092D01*
X44040500Y-68881908D01*
X44003553Y-68648632D01*
X43930568Y-68424008D01*
X43840823Y-68247873D01*
X43823346Y-68213572D01*
X43823343Y-68213567D01*
X43803628Y-68186432D01*
X43684517Y-68022490D01*
X43517510Y-67855483D01*
X43421971Y-67786070D01*
X43326432Y-67716656D01*
X43326427Y-67716653D01*
X43116000Y-67609436D01*
X43115998Y-67609435D01*
X43115992Y-67609432D01*
X43115987Y-67609430D01*
X43115984Y-67609429D01*
X42891376Y-67536449D01*
X42891361Y-67536445D01*
X42658096Y-67499500D01*
X42658092Y-67499500D01*
X42421908Y-67499500D01*
X42421903Y-67499500D01*
X42188638Y-67536445D01*
X42188623Y-67536449D01*
X41964015Y-67609429D01*
X41963999Y-67609436D01*
X41753572Y-67716653D01*
X41753567Y-67716656D01*
X41562488Y-67855484D01*
X41395484Y-68022488D01*
X41256656Y-68213567D01*
X41256653Y-68213572D01*
X41149436Y-68423999D01*
X41149429Y-68424015D01*
X41076449Y-68648623D01*
X41076445Y-68648638D01*
X41039500Y-68881903D01*
X34130500Y-68881903D01*
X34130500Y-66641112D01*
X34149410Y-66527792D01*
X34204090Y-66426752D01*
X34232720Y-66394332D01*
X50253720Y-50373332D01*
X50347220Y-50306574D01*
X50457331Y-50273792D01*
X50572120Y-50278540D01*
X50679148Y-50320302D01*
X50766816Y-50394554D01*
X50825625Y-50493248D01*
X50849202Y-50605690D01*
X50849500Y-50620112D01*
X50849500Y-53617327D01*
X50830590Y-53730647D01*
X50782848Y-53822463D01*
X50716655Y-53913569D01*
X50716653Y-53913572D01*
X50609436Y-54123999D01*
X50609429Y-54124015D01*
X50536449Y-54348623D01*
X50536445Y-54348638D01*
X50499500Y-54581903D01*
X50499500Y-54818096D01*
X50536445Y-55051361D01*
X50536449Y-55051376D01*
X50609429Y-55275984D01*
X50609436Y-55276000D01*
X50716653Y-55486427D01*
X50716656Y-55486432D01*
X50786070Y-55581971D01*
X50855483Y-55677510D01*
X51022490Y-55844517D01*
X51195202Y-55970000D01*
X51213567Y-55983343D01*
X51213572Y-55983346D01*
X51323411Y-56039311D01*
X51424008Y-56090568D01*
X51648632Y-56163553D01*
X51881908Y-56200500D01*
X51881912Y-56200500D01*
X52118088Y-56200500D01*
X52118092Y-56200500D01*
X52351368Y-56163553D01*
X52575992Y-56090568D01*
X52786433Y-55983343D01*
X52977510Y-55844517D01*
X53144517Y-55677510D01*
X53283343Y-55486433D01*
X53390568Y-55275992D01*
X53463553Y-55051368D01*
X53500500Y-54818092D01*
X53500500Y-54581908D01*
X53463553Y-54348632D01*
X53390568Y-54124008D01*
X53283343Y-53913567D01*
X53217151Y-53822462D01*
X53165843Y-53719670D01*
X53150500Y-53617327D01*
X53150500Y-47621111D01*
X53169410Y-47507791D01*
X53224090Y-47406751D01*
X53252712Y-47374339D01*
X55942630Y-44684421D01*
X56036126Y-44617666D01*
X56146237Y-44584884D01*
X56261026Y-44589632D01*
X56368054Y-44631394D01*
X56455722Y-44705646D01*
X56514531Y-44804340D01*
X56534109Y-44876605D01*
X56536447Y-44891367D01*
X56536449Y-44891376D01*
X56609429Y-45115984D01*
X56609436Y-45116000D01*
X56716653Y-45326427D01*
X56716656Y-45326432D01*
X56738122Y-45355977D01*
X56855483Y-45517510D01*
X56855484Y-45517511D01*
X56855485Y-45517512D01*
X56901194Y-45563222D01*
X56967952Y-45656723D01*
X57000732Y-45766834D01*
X56995984Y-45881623D01*
X56954220Y-45988651D01*
X56901194Y-46056778D01*
X56855485Y-46102487D01*
X56716656Y-46293567D01*
X56716653Y-46293572D01*
X56609436Y-46503999D01*
X56609429Y-46504015D01*
X56536449Y-46728623D01*
X56536445Y-46728638D01*
X56499500Y-46961903D01*
X56499500Y-47198096D01*
X56536445Y-47431361D01*
X56536449Y-47431376D01*
X56609429Y-47655984D01*
X56609436Y-47656000D01*
X56716653Y-47866427D01*
X56716656Y-47866432D01*
X56716657Y-47866433D01*
X56855483Y-48057510D01*
X56855484Y-48057511D01*
X56855485Y-48057512D01*
X56901194Y-48103222D01*
X56967952Y-48196723D01*
X57000732Y-48306834D01*
X56995984Y-48421623D01*
X56954220Y-48528651D01*
X56901194Y-48596778D01*
X56855485Y-48642487D01*
X56716656Y-48833567D01*
X56716653Y-48833572D01*
X56609436Y-49043999D01*
X56609429Y-49044015D01*
X56536449Y-49268623D01*
X56536445Y-49268638D01*
X56499500Y-49501903D01*
X56499500Y-49738096D01*
X56536445Y-49971361D01*
X56536449Y-49971376D01*
X56609429Y-50195984D01*
X56609436Y-50196000D01*
X56716653Y-50406427D01*
X56716656Y-50406432D01*
X56716657Y-50406433D01*
X56855483Y-50597510D01*
X56855484Y-50597511D01*
X56855485Y-50597512D01*
X56901194Y-50643222D01*
X56967952Y-50736723D01*
X57000732Y-50846834D01*
X56995984Y-50961623D01*
X56954220Y-51068651D01*
X56901194Y-51136778D01*
X56855485Y-51182487D01*
X56716656Y-51373567D01*
X56716653Y-51373572D01*
X56609436Y-51583999D01*
X56609429Y-51584015D01*
X56536449Y-51808623D01*
X56536445Y-51808638D01*
X56499500Y-52041903D01*
X56499500Y-52278096D01*
X56536445Y-52511361D01*
X56536449Y-52511376D01*
X56609429Y-52735984D01*
X56609436Y-52736000D01*
X56716653Y-52946427D01*
X56716656Y-52946432D01*
X56716657Y-52946433D01*
X56855483Y-53137510D01*
X56855484Y-53137511D01*
X56855485Y-53137512D01*
X56901194Y-53183222D01*
X56967952Y-53276723D01*
X57000732Y-53386834D01*
X56995984Y-53501623D01*
X56954220Y-53608651D01*
X56901194Y-53676778D01*
X56855485Y-53722487D01*
X56716656Y-53913567D01*
X56716653Y-53913572D01*
X56609436Y-54123999D01*
X56609429Y-54124015D01*
X56536449Y-54348623D01*
X56536445Y-54348638D01*
X56499500Y-54581903D01*
X56499500Y-54818096D01*
X56536445Y-55051361D01*
X56536449Y-55051376D01*
X56609429Y-55275984D01*
X56609436Y-55276000D01*
X56716653Y-55486427D01*
X56716656Y-55486432D01*
X56762932Y-55550125D01*
X56855483Y-55677510D01*
X56855484Y-55677511D01*
X56855485Y-55677512D01*
X56901194Y-55723222D01*
X56967952Y-55816723D01*
X57000732Y-55926834D01*
X56995984Y-56041623D01*
X56954220Y-56148651D01*
X56901194Y-56216778D01*
X56855485Y-56262487D01*
X56716656Y-56453567D01*
X56716653Y-56453572D01*
X56609436Y-56663999D01*
X56609429Y-56664015D01*
X56536449Y-56888623D01*
X56536445Y-56888638D01*
X56499500Y-57121903D01*
X56499500Y-57358096D01*
X56536445Y-57591361D01*
X56536449Y-57591376D01*
X56609429Y-57815984D01*
X56609436Y-57816000D01*
X56716653Y-58026427D01*
X56716656Y-58026432D01*
X56824861Y-58175362D01*
X56876170Y-58278155D01*
X56891323Y-58392038D01*
X56868677Y-58504671D01*
X56810686Y-58603848D01*
X56723635Y-58678822D01*
X56616956Y-58721468D01*
X56542514Y-58729500D01*
X53216087Y-58729500D01*
X53102767Y-58710590D01*
X53001727Y-58655910D01*
X52988249Y-58644008D01*
X52987930Y-58644383D01*
X52977512Y-58635485D01*
X52977511Y-58635484D01*
X52977510Y-58635483D01*
X52804798Y-58510000D01*
X52786432Y-58496656D01*
X52786427Y-58496653D01*
X52576000Y-58389436D01*
X52575998Y-58389435D01*
X52575992Y-58389432D01*
X52575987Y-58389430D01*
X52575984Y-58389429D01*
X52351376Y-58316449D01*
X52351361Y-58316445D01*
X52118096Y-58279500D01*
X52118092Y-58279500D01*
X51881908Y-58279500D01*
X51881903Y-58279500D01*
X51648638Y-58316445D01*
X51648623Y-58316449D01*
X51424015Y-58389429D01*
X51423999Y-58389436D01*
X51213572Y-58496653D01*
X51213567Y-58496656D01*
X51022488Y-58635484D01*
X50855484Y-58802488D01*
X50716656Y-58993567D01*
X50716653Y-58993572D01*
X50609436Y-59203999D01*
X50609429Y-59204015D01*
X50536449Y-59428623D01*
X50536445Y-59428638D01*
X50499500Y-59661903D01*
X50499500Y-59898096D01*
X50536445Y-60131361D01*
X50536449Y-60131376D01*
X50609429Y-60355984D01*
X50609436Y-60356000D01*
X50716653Y-60566427D01*
X50716656Y-60566432D01*
X50824861Y-60715362D01*
X50876170Y-60818155D01*
X50891323Y-60932038D01*
X50868677Y-61044671D01*
X50810686Y-61143848D01*
X50723635Y-61218822D01*
X50616956Y-61261468D01*
X50542514Y-61269500D01*
X49399692Y-61269500D01*
X49286372Y-61250590D01*
X49185332Y-61195910D01*
X49152912Y-61167280D01*
X49102720Y-61117088D01*
X49035962Y-61023588D01*
X49003180Y-60913477D01*
X49002066Y-60895543D01*
X49001576Y-60895582D01*
X49000500Y-60881915D01*
X49000500Y-60881908D01*
X48963553Y-60648632D01*
X48890568Y-60424008D01*
X48783343Y-60213567D01*
X48644517Y-60022490D01*
X48477510Y-59855483D01*
X48286433Y-59716657D01*
X48286434Y-59716657D01*
X48286432Y-59716656D01*
X48286427Y-59716653D01*
X48076000Y-59609436D01*
X48075998Y-59609435D01*
X48075992Y-59609432D01*
X48075987Y-59609430D01*
X48075984Y-59609429D01*
X47851376Y-59536449D01*
X47851361Y-59536445D01*
X47618096Y-59499500D01*
X47618092Y-59499500D01*
X47381908Y-59499500D01*
X47381903Y-59499500D01*
X47148638Y-59536445D01*
X47148623Y-59536449D01*
X46924015Y-59609429D01*
X46923999Y-59609436D01*
X46713572Y-59716653D01*
X46713567Y-59716656D01*
X46522488Y-59855484D01*
X46355484Y-60022488D01*
X46216656Y-60213567D01*
X46216653Y-60213572D01*
X46109436Y-60423999D01*
X46109429Y-60424015D01*
X46036449Y-60648623D01*
X46036445Y-60648638D01*
X45999500Y-60881903D01*
X45999500Y-61118096D01*
X46036445Y-61351361D01*
X46036449Y-61351376D01*
X46109429Y-61575984D01*
X46109436Y-61576000D01*
X46216653Y-61786427D01*
X46216656Y-61786432D01*
X46355484Y-61977511D01*
X46522489Y-62144516D01*
X46522495Y-62144521D01*
X46623153Y-62217654D01*
X46703716Y-62299560D01*
X46753318Y-62403187D01*
X46766586Y-62517306D01*
X46742080Y-62629549D01*
X46682457Y-62727753D01*
X46623153Y-62782346D01*
X46522495Y-62855478D01*
X46522489Y-62855483D01*
X46355484Y-63022488D01*
X46216656Y-63213567D01*
X46216653Y-63213572D01*
X46109436Y-63423999D01*
X46109429Y-63424015D01*
X46036449Y-63648623D01*
X46036445Y-63648638D01*
X45999500Y-63881903D01*
X45999500Y-64118096D01*
X46036445Y-64351361D01*
X46036449Y-64351376D01*
X46109429Y-64575984D01*
X46109436Y-64576000D01*
X46216653Y-64786427D01*
X46216656Y-64786432D01*
X46216657Y-64786433D01*
X46355483Y-64977510D01*
X46522490Y-65144517D01*
X46695883Y-65270495D01*
X46713567Y-65283343D01*
X46713572Y-65283346D01*
X46823411Y-65339311D01*
X46924008Y-65390568D01*
X47148632Y-65463553D01*
X47381908Y-65500500D01*
X47381916Y-65500500D01*
X47395582Y-65501576D01*
X47395337Y-65504676D01*
X47483627Y-65519410D01*
X47584667Y-65574090D01*
X47617087Y-65602720D01*
X47690340Y-65675973D01*
X47690343Y-65675975D01*
X47690345Y-65675977D01*
X47862402Y-65790942D01*
X48053580Y-65870130D01*
X48256535Y-65910501D01*
X48256538Y-65910501D01*
X48480693Y-65910501D01*
X48480713Y-65910500D01*
X49320334Y-65910500D01*
X49433654Y-65929410D01*
X49534694Y-65984090D01*
X49612505Y-66068615D01*
X49658655Y-66173826D01*
X49668142Y-66288320D01*
X49647330Y-66381461D01*
X49605909Y-66492515D01*
X49599500Y-66552129D01*
X49599500Y-68247870D01*
X49605909Y-68307485D01*
X49605910Y-68307488D01*
X49656202Y-68442328D01*
X49656203Y-68442329D01*
X49656204Y-68442331D01*
X49742454Y-68557546D01*
X49857669Y-68643796D01*
X49857670Y-68643796D01*
X49857671Y-68643797D01*
X49867756Y-68649304D01*
X49958153Y-68720209D01*
X50020629Y-68816624D01*
X50048414Y-68928100D01*
X50049500Y-68955615D01*
X50049500Y-70203465D01*
X50066986Y-70291376D01*
X50089870Y-70406419D01*
X50169058Y-70597598D01*
X50208487Y-70656607D01*
X50255721Y-70761335D01*
X50266390Y-70875726D01*
X50239339Y-70987383D01*
X50177499Y-71084206D01*
X50087570Y-71155704D01*
X49979299Y-71194128D01*
X49918304Y-71199500D01*
X49452129Y-71199500D01*
X49392514Y-71205909D01*
X49392511Y-71205910D01*
X49257671Y-71256202D01*
X49142456Y-71342452D01*
X49137634Y-71347275D01*
X49044135Y-71414035D01*
X48934024Y-71446819D01*
X48890848Y-71449500D01*
X48160712Y-71449500D01*
X48160692Y-71449499D01*
X48143465Y-71449499D01*
X47936535Y-71449499D01*
X47936531Y-71449499D01*
X47733579Y-71489870D01*
X47542400Y-71569059D01*
X47370341Y-71684025D01*
X41330347Y-77724021D01*
X41330344Y-77724024D01*
X41184027Y-77870339D01*
X41127225Y-77955350D01*
X41048544Y-78039066D01*
X40946944Y-78092699D01*
X40833435Y-78110436D01*
X40720316Y-78090356D01*
X40619847Y-78034635D01*
X40590262Y-78008235D01*
X40437511Y-77855484D01*
X40246432Y-77716656D01*
X40246427Y-77716653D01*
X40036000Y-77609436D01*
X40035998Y-77609435D01*
X40035992Y-77609432D01*
X40035987Y-77609430D01*
X40035984Y-77609429D01*
X39811376Y-77536449D01*
X39811361Y-77536445D01*
X39578096Y-77499500D01*
X39578092Y-77499500D01*
X39341908Y-77499500D01*
X39341903Y-77499500D01*
X39108638Y-77536445D01*
X39108623Y-77536449D01*
X38884015Y-77609429D01*
X38883999Y-77609436D01*
X38673572Y-77716653D01*
X38673567Y-77716656D01*
X38482488Y-77855484D01*
X38315484Y-78022488D01*
X38176656Y-78213567D01*
X38176653Y-78213572D01*
X38069436Y-78423999D01*
X38069429Y-78424015D01*
X37996449Y-78648623D01*
X37996445Y-78648638D01*
X37959500Y-78881903D01*
X37959500Y-79118096D01*
X37996445Y-79351361D01*
X37996449Y-79351376D01*
X38069429Y-79575984D01*
X38069436Y-79576000D01*
X38176653Y-79786427D01*
X38176656Y-79786432D01*
X38176657Y-79786433D01*
X38315483Y-79977510D01*
X38315485Y-79977512D01*
X38324383Y-79987930D01*
X38322018Y-79989949D01*
X38374038Y-80062807D01*
X38406820Y-80172918D01*
X38409500Y-80216087D01*
X38409500Y-84420308D01*
X38390590Y-84533628D01*
X38335910Y-84634668D01*
X38307280Y-84667088D01*
X36330344Y-86644024D01*
X36184025Y-86790341D01*
X36069059Y-86962400D01*
X35989870Y-87153580D01*
X35949500Y-87356534D01*
X35949500Y-96783913D01*
X35930590Y-96897233D01*
X35875910Y-96998273D01*
X35864008Y-97011750D01*
X35864383Y-97012070D01*
X35855485Y-97022487D01*
X35716656Y-97213567D01*
X35716653Y-97213572D01*
X35609436Y-97423999D01*
X35609429Y-97424015D01*
X35536449Y-97648623D01*
X35536445Y-97648638D01*
X35499500Y-97881903D01*
X35499500Y-98118096D01*
X35536445Y-98351361D01*
X35536449Y-98351376D01*
X35609429Y-98575984D01*
X35609436Y-98576000D01*
X35716653Y-98786427D01*
X35716656Y-98786432D01*
X35716657Y-98786433D01*
X35855483Y-98977510D01*
X36022490Y-99144517D01*
X36095342Y-99197447D01*
X36213567Y-99283343D01*
X36213572Y-99283346D01*
X36323411Y-99339311D01*
X36424008Y-99390568D01*
X36648632Y-99463553D01*
X36881908Y-99500500D01*
X36881912Y-99500500D01*
X37118088Y-99500500D01*
X37118092Y-99500500D01*
X37351368Y-99463553D01*
X37575992Y-99390568D01*
X37786433Y-99283343D01*
X37977510Y-99144517D01*
X38023220Y-99098807D01*
X38116720Y-99032049D01*
X38226831Y-98999267D01*
X38341620Y-99004015D01*
X38448648Y-99045777D01*
X38516780Y-99098807D01*
X38562490Y-99144517D01*
X38635342Y-99197447D01*
X38753567Y-99283343D01*
X38753572Y-99283346D01*
X38863411Y-99339311D01*
X38964008Y-99390568D01*
X39188632Y-99463553D01*
X39421908Y-99500500D01*
X39421912Y-99500500D01*
X39658088Y-99500500D01*
X39658092Y-99500500D01*
X39891368Y-99463553D01*
X40115992Y-99390568D01*
X40326433Y-99283343D01*
X40517510Y-99144517D01*
X40684517Y-98977510D01*
X40823343Y-98786433D01*
X40930568Y-98575992D01*
X41003553Y-98351368D01*
X41040500Y-98118092D01*
X41040500Y-97881908D01*
X41003553Y-97648632D01*
X40930568Y-97424008D01*
X40823343Y-97213567D01*
X40684517Y-97022490D01*
X40684514Y-97022487D01*
X40675617Y-97012070D01*
X40677981Y-97010050D01*
X40625962Y-96937193D01*
X40593180Y-96827082D01*
X40590500Y-96783913D01*
X40590500Y-92055609D01*
X40609410Y-91942289D01*
X40664090Y-91841249D01*
X40748615Y-91763438D01*
X40853826Y-91717288D01*
X40968320Y-91707801D01*
X41079692Y-91736004D01*
X41144639Y-91773264D01*
X41213567Y-91823343D01*
X41213569Y-91823344D01*
X41213572Y-91823346D01*
X41323411Y-91879311D01*
X41424008Y-91930568D01*
X41648632Y-92003553D01*
X41881908Y-92040500D01*
X41881912Y-92040500D01*
X42118088Y-92040500D01*
X42118092Y-92040500D01*
X42351368Y-92003553D01*
X42575992Y-91930568D01*
X42786433Y-91823343D01*
X42977510Y-91684517D01*
X42977518Y-91684508D01*
X42987930Y-91675617D01*
X42989949Y-91677981D01*
X43062807Y-91625962D01*
X43172918Y-91593180D01*
X43216087Y-91590500D01*
X45663465Y-91590500D01*
X45866420Y-91550130D01*
X46057598Y-91470941D01*
X46154948Y-91405894D01*
X46229655Y-91355977D01*
X46375977Y-91209655D01*
X46375977Y-91209653D01*
X46404704Y-91180927D01*
X46404707Y-91180922D01*
X46882914Y-90702715D01*
X46976412Y-90635960D01*
X47086523Y-90603179D01*
X47129691Y-90600499D01*
X47847871Y-90600499D01*
X47847872Y-90600499D01*
X47907483Y-90594091D01*
X48042331Y-90543796D01*
X48157546Y-90457546D01*
X48243796Y-90342331D01*
X48294091Y-90207483D01*
X48300500Y-90147873D01*
X48300499Y-89429688D01*
X48319409Y-89316370D01*
X48374089Y-89215330D01*
X48402711Y-89182919D01*
X51915977Y-85669655D01*
X52030942Y-85497598D01*
X52110130Y-85306419D01*
X52111308Y-85300500D01*
X52111365Y-85300217D01*
X52139743Y-85157548D01*
X52139743Y-85157545D01*
X52150501Y-85103465D01*
X52150501Y-84896534D01*
X52150501Y-84882130D01*
X52150500Y-84882104D01*
X52150500Y-79115615D01*
X52169410Y-79002295D01*
X52224090Y-78901255D01*
X52308615Y-78823444D01*
X52332244Y-78809304D01*
X52342328Y-78803797D01*
X52342327Y-78803797D01*
X52342331Y-78803796D01*
X52457546Y-78717546D01*
X52543796Y-78602331D01*
X52546858Y-78594123D01*
X52564513Y-78546785D01*
X52594091Y-78467483D01*
X52600500Y-78407873D01*
X52600499Y-76712129D01*
X53399500Y-76712129D01*
X53399500Y-78407870D01*
X53405909Y-78467485D01*
X53405910Y-78467488D01*
X53456202Y-78602328D01*
X53456203Y-78602329D01*
X53456204Y-78602331D01*
X53542454Y-78717546D01*
X53616496Y-78772974D01*
X53657670Y-78803797D01*
X53710077Y-78823343D01*
X53792517Y-78854091D01*
X53852127Y-78860500D01*
X55947872Y-78860499D01*
X56007483Y-78854091D01*
X56142331Y-78803796D01*
X56257546Y-78717546D01*
X56257551Y-78717538D01*
X56262366Y-78712725D01*
X56355865Y-78645965D01*
X56465976Y-78613181D01*
X56509152Y-78610500D01*
X56542514Y-78610500D01*
X56655834Y-78629410D01*
X56756874Y-78684090D01*
X56834685Y-78768615D01*
X56880835Y-78873826D01*
X56890322Y-78988320D01*
X56862119Y-79099692D01*
X56824861Y-79164638D01*
X56716656Y-79313567D01*
X56716653Y-79313572D01*
X56609436Y-79523999D01*
X56609429Y-79524015D01*
X56536449Y-79748623D01*
X56536445Y-79748638D01*
X56499500Y-79981903D01*
X56499500Y-80218096D01*
X56536445Y-80451361D01*
X56536449Y-80451376D01*
X56609429Y-80675984D01*
X56609436Y-80676000D01*
X56716653Y-80886427D01*
X56716656Y-80886432D01*
X56716657Y-80886433D01*
X56855483Y-81077510D01*
X56855484Y-81077511D01*
X56855485Y-81077512D01*
X56901194Y-81123222D01*
X56967952Y-81216723D01*
X57000732Y-81326834D01*
X56995984Y-81441623D01*
X56954220Y-81548651D01*
X56901194Y-81616778D01*
X56855485Y-81662487D01*
X56716656Y-81853567D01*
X56716653Y-81853572D01*
X56609436Y-82063999D01*
X56609429Y-82064015D01*
X56536449Y-82288623D01*
X56536445Y-82288638D01*
X56499500Y-82521903D01*
X56499500Y-82758096D01*
X56536445Y-82991361D01*
X56536449Y-82991376D01*
X56609429Y-83215984D01*
X56609436Y-83216000D01*
X56716653Y-83426427D01*
X56716656Y-83426432D01*
X56716657Y-83426433D01*
X56855483Y-83617510D01*
X56855484Y-83617511D01*
X56855485Y-83617512D01*
X56901194Y-83663222D01*
X56967952Y-83756723D01*
X57000732Y-83866834D01*
X56995984Y-83981623D01*
X56954220Y-84088651D01*
X56901194Y-84156778D01*
X56855485Y-84202487D01*
X56716656Y-84393567D01*
X56716653Y-84393572D01*
X56609436Y-84603999D01*
X56609429Y-84604015D01*
X56536449Y-84828623D01*
X56536445Y-84828638D01*
X56499500Y-85061903D01*
X56499500Y-85298096D01*
X56536445Y-85531361D01*
X56536449Y-85531376D01*
X56609429Y-85755984D01*
X56609436Y-85756000D01*
X56716653Y-85966427D01*
X56716656Y-85966432D01*
X56716657Y-85966433D01*
X56855483Y-86157510D01*
X56855484Y-86157511D01*
X56855485Y-86157512D01*
X56901194Y-86203222D01*
X56967952Y-86296723D01*
X57000732Y-86406834D01*
X56995984Y-86521623D01*
X56954220Y-86628651D01*
X56901194Y-86696778D01*
X56855485Y-86742487D01*
X56716656Y-86933567D01*
X56716653Y-86933572D01*
X56609436Y-87143999D01*
X56609429Y-87144015D01*
X56536449Y-87368623D01*
X56536445Y-87368638D01*
X56499500Y-87601903D01*
X56499500Y-87838096D01*
X56536445Y-88071361D01*
X56536449Y-88071376D01*
X56609429Y-88295984D01*
X56609436Y-88296000D01*
X56716653Y-88506427D01*
X56716656Y-88506432D01*
X56716657Y-88506433D01*
X56855483Y-88697510D01*
X57022490Y-88864517D01*
X57178011Y-88977510D01*
X57213567Y-89003343D01*
X57213572Y-89003346D01*
X57286641Y-89040576D01*
X57424008Y-89110568D01*
X57648632Y-89183553D01*
X57759858Y-89201169D01*
X57868819Y-89237571D01*
X57952038Y-89299091D01*
X59287280Y-90634333D01*
X59354038Y-90727833D01*
X59386820Y-90837944D01*
X59389500Y-90881113D01*
X59389500Y-97279827D01*
X59370590Y-97393147D01*
X59322848Y-97484963D01*
X59256655Y-97576069D01*
X59256653Y-97576072D01*
X59149436Y-97786499D01*
X59149429Y-97786515D01*
X59076449Y-98011123D01*
X59076445Y-98011138D01*
X59039500Y-98244403D01*
X59039500Y-98480596D01*
X59076445Y-98713861D01*
X59076449Y-98713876D01*
X59149429Y-98938484D01*
X59149436Y-98938500D01*
X59256653Y-99148927D01*
X59256656Y-99148932D01*
X59298240Y-99206167D01*
X59395483Y-99340010D01*
X59562490Y-99507017D01*
X59753567Y-99645843D01*
X59753572Y-99645846D01*
X59863411Y-99701811D01*
X59964008Y-99753068D01*
X60188632Y-99826053D01*
X60421908Y-99863000D01*
X60421912Y-99863000D01*
X60658088Y-99863000D01*
X60658092Y-99863000D01*
X60891368Y-99826053D01*
X61115992Y-99753068D01*
X61326433Y-99645843D01*
X61517510Y-99507017D01*
X61684517Y-99340010D01*
X61823343Y-99148933D01*
X61930568Y-98938492D01*
X62003553Y-98713868D01*
X62040500Y-98480592D01*
X62040500Y-98244408D01*
X62003553Y-98011132D01*
X61930568Y-97786508D01*
X61823343Y-97576067D01*
X61757151Y-97484962D01*
X61705843Y-97382170D01*
X61690500Y-97279827D01*
X61690500Y-90364975D01*
X61690501Y-90364950D01*
X61690501Y-90169454D01*
X61690501Y-90169453D01*
X61662171Y-89990591D01*
X61606211Y-89818361D01*
X61581394Y-89769655D01*
X61558618Y-89724954D01*
X61524001Y-89657015D01*
X61523999Y-89657012D01*
X61523996Y-89657006D01*
X61417553Y-89510499D01*
X61289501Y-89382447D01*
X61280750Y-89373696D01*
X61280735Y-89373682D01*
X59579091Y-87672038D01*
X59512333Y-87578538D01*
X59481169Y-87479858D01*
X59463553Y-87368632D01*
X59390568Y-87144008D01*
X59328652Y-87022490D01*
X59283346Y-86933572D01*
X59283343Y-86933567D01*
X59226611Y-86855483D01*
X59144517Y-86742490D01*
X59098807Y-86696780D01*
X59032049Y-86603280D01*
X58999267Y-86493169D01*
X59004015Y-86378380D01*
X59045777Y-86271352D01*
X59098807Y-86203220D01*
X59144517Y-86157510D01*
X59283343Y-85966433D01*
X59390568Y-85755992D01*
X59463553Y-85531368D01*
X59500500Y-85298092D01*
X59500500Y-85061908D01*
X59463553Y-84828632D01*
X59390568Y-84604008D01*
X59339311Y-84503411D01*
X59283346Y-84393572D01*
X59283343Y-84393567D01*
X59144517Y-84202490D01*
X59098807Y-84156780D01*
X59032049Y-84063280D01*
X58999267Y-83953169D01*
X59004015Y-83838380D01*
X59045777Y-83731352D01*
X59098807Y-83663220D01*
X59144517Y-83617510D01*
X59283343Y-83426433D01*
X59390568Y-83215992D01*
X59463553Y-82991368D01*
X59500500Y-82758092D01*
X59500500Y-82521908D01*
X59463553Y-82288632D01*
X59390568Y-82064008D01*
X59283343Y-81853567D01*
X59144517Y-81662490D01*
X59098807Y-81616780D01*
X59032049Y-81523280D01*
X58999267Y-81413169D01*
X59004015Y-81298380D01*
X59045777Y-81191352D01*
X59098807Y-81123220D01*
X59144517Y-81077510D01*
X59283343Y-80886433D01*
X59390568Y-80675992D01*
X59463553Y-80451368D01*
X59500500Y-80218092D01*
X59500500Y-79981908D01*
X59463553Y-79748632D01*
X59390568Y-79524008D01*
X59283343Y-79313567D01*
X59144517Y-79122490D01*
X59098807Y-79076780D01*
X59032049Y-78983280D01*
X58999267Y-78873169D01*
X59004015Y-78758380D01*
X59045777Y-78651352D01*
X59098807Y-78583220D01*
X59144517Y-78537510D01*
X59283343Y-78346433D01*
X59390568Y-78135992D01*
X59463553Y-77911368D01*
X59500500Y-77678092D01*
X59500500Y-77441908D01*
X59463553Y-77208632D01*
X59390568Y-76984008D01*
X59283343Y-76773567D01*
X59144517Y-76582490D01*
X58977510Y-76415483D01*
X58786433Y-76276657D01*
X58786434Y-76276657D01*
X58786432Y-76276656D01*
X58786427Y-76276653D01*
X58576000Y-76169436D01*
X58575998Y-76169435D01*
X58575992Y-76169432D01*
X58575987Y-76169430D01*
X58575984Y-76169429D01*
X58351376Y-76096449D01*
X58351361Y-76096445D01*
X58118096Y-76059500D01*
X58118092Y-76059500D01*
X57881908Y-76059500D01*
X57881903Y-76059500D01*
X57648638Y-76096445D01*
X57648623Y-76096449D01*
X57424015Y-76169429D01*
X57423999Y-76169436D01*
X57213572Y-76276653D01*
X57213567Y-76276656D01*
X57022487Y-76415485D01*
X57012070Y-76424383D01*
X57010050Y-76422018D01*
X56937193Y-76474038D01*
X56827082Y-76506820D01*
X56783913Y-76509500D01*
X56509152Y-76509500D01*
X56395832Y-76490590D01*
X56294792Y-76435910D01*
X56262366Y-76407275D01*
X56257548Y-76402457D01*
X56257546Y-76402454D01*
X56203003Y-76361623D01*
X56142329Y-76316202D01*
X56007483Y-76265909D01*
X56007485Y-76265909D01*
X55983639Y-76263345D01*
X55947873Y-76259500D01*
X55947870Y-76259500D01*
X53852129Y-76259500D01*
X53792514Y-76265909D01*
X53792511Y-76265910D01*
X53657671Y-76316202D01*
X53542454Y-76402454D01*
X53456202Y-76517670D01*
X53405909Y-76652515D01*
X53399500Y-76712129D01*
X52600499Y-76712129D01*
X52600499Y-76712128D01*
X52594091Y-76652517D01*
X52560513Y-76562490D01*
X52543797Y-76517671D01*
X52543130Y-76516780D01*
X52457546Y-76402454D01*
X52388621Y-76350857D01*
X52342329Y-76316202D01*
X52207483Y-76265909D01*
X52207485Y-76265909D01*
X52183639Y-76263345D01*
X52147873Y-76259500D01*
X52147870Y-76259500D01*
X50052129Y-76259500D01*
X49992514Y-76265909D01*
X49992511Y-76265910D01*
X49857671Y-76316202D01*
X49742454Y-76402454D01*
X49656202Y-76517670D01*
X49605909Y-76652515D01*
X49599500Y-76712129D01*
X49599500Y-78407870D01*
X49605909Y-78467485D01*
X49605910Y-78467488D01*
X49656202Y-78602328D01*
X49656203Y-78602329D01*
X49656204Y-78602331D01*
X49742454Y-78717546D01*
X49857669Y-78803796D01*
X49857670Y-78803796D01*
X49857671Y-78803797D01*
X49867756Y-78809304D01*
X49958153Y-78880209D01*
X50020629Y-78976624D01*
X50048414Y-79088100D01*
X50049500Y-79115615D01*
X50049500Y-84420308D01*
X50030590Y-84533628D01*
X49975910Y-84634668D01*
X49947280Y-84667088D01*
X47117087Y-87497280D01*
X47023587Y-87564038D01*
X46913476Y-87596820D01*
X46870307Y-87599500D01*
X46152129Y-87599500D01*
X46092514Y-87605909D01*
X46092511Y-87605910D01*
X45957671Y-87656202D01*
X45842454Y-87742454D01*
X45756202Y-87857670D01*
X45705909Y-87992515D01*
X45705909Y-87992517D01*
X45702569Y-88023587D01*
X45699500Y-88052129D01*
X45699500Y-88770306D01*
X45680590Y-88883626D01*
X45625910Y-88984666D01*
X45597281Y-89017086D01*
X45503805Y-89110563D01*
X45297999Y-89316370D01*
X45227089Y-89387280D01*
X45133588Y-89454038D01*
X45023478Y-89486820D01*
X44980308Y-89489500D01*
X43216087Y-89489500D01*
X43102767Y-89470590D01*
X43001727Y-89415910D01*
X42988249Y-89404008D01*
X42987930Y-89404383D01*
X42977512Y-89395485D01*
X42977510Y-89395483D01*
X42786433Y-89256657D01*
X42786434Y-89256657D01*
X42786432Y-89256656D01*
X42786427Y-89256653D01*
X42576000Y-89149436D01*
X42575998Y-89149435D01*
X42575992Y-89149432D01*
X42575987Y-89149430D01*
X42575984Y-89149429D01*
X42351376Y-89076449D01*
X42351361Y-89076445D01*
X42118096Y-89039500D01*
X42118092Y-89039500D01*
X41881908Y-89039500D01*
X41881903Y-89039500D01*
X41880828Y-89039671D01*
X41879843Y-89039662D01*
X41868242Y-89040576D01*
X41868162Y-89039565D01*
X41765945Y-89038718D01*
X41657596Y-89000513D01*
X41567523Y-88929198D01*
X41505486Y-88832501D01*
X41483949Y-88763053D01*
X41470130Y-88693581D01*
X41390942Y-88502402D01*
X41275977Y-88330345D01*
X41275975Y-88330343D01*
X41275973Y-88330340D01*
X41062720Y-88117087D01*
X40995962Y-88023587D01*
X40963180Y-87913476D01*
X40962066Y-87895543D01*
X40961576Y-87895582D01*
X40960500Y-87881915D01*
X40960500Y-87881908D01*
X40923553Y-87648632D01*
X40850568Y-87424008D01*
X40743343Y-87213567D01*
X40604517Y-87022490D01*
X40437510Y-86855483D01*
X40291998Y-86749762D01*
X40246432Y-86716656D01*
X40246427Y-86716653D01*
X40035996Y-86609434D01*
X40035995Y-86609433D01*
X40035992Y-86609432D01*
X40035988Y-86609430D01*
X40023711Y-86604345D01*
X39926255Y-86543506D01*
X39853833Y-86454320D01*
X39814294Y-86346452D01*
X39811922Y-86231589D01*
X39846975Y-86122180D01*
X39910491Y-86035138D01*
X40109757Y-85835872D01*
X40109771Y-85835861D01*
X40275974Y-85669658D01*
X40275977Y-85669655D01*
X40390941Y-85497598D01*
X40470130Y-85306420D01*
X40510500Y-85103465D01*
X40510500Y-82997486D01*
X40529410Y-82884166D01*
X40584090Y-82783126D01*
X40668615Y-82705315D01*
X40773826Y-82659165D01*
X40888320Y-82649678D01*
X40999692Y-82677881D01*
X41064635Y-82715137D01*
X41158213Y-82783126D01*
X41213567Y-82823343D01*
X41213572Y-82823346D01*
X41251074Y-82842454D01*
X41424008Y-82930568D01*
X41648632Y-83003553D01*
X41881908Y-83040500D01*
X41881912Y-83040500D01*
X42118088Y-83040500D01*
X42118092Y-83040500D01*
X42351368Y-83003553D01*
X42575992Y-82930568D01*
X42786433Y-82823343D01*
X42977510Y-82684517D01*
X43144517Y-82517510D01*
X43283343Y-82326433D01*
X43390568Y-82115992D01*
X43463553Y-81891368D01*
X43500500Y-81658092D01*
X43500500Y-81421908D01*
X43463553Y-81188632D01*
X43390568Y-80964008D01*
X43321352Y-80828164D01*
X43283346Y-80753572D01*
X43283343Y-80753567D01*
X43222377Y-80669655D01*
X43144517Y-80562490D01*
X43144514Y-80562487D01*
X43135617Y-80552070D01*
X43137981Y-80550050D01*
X43085962Y-80477193D01*
X43053180Y-80367082D01*
X43050500Y-80323913D01*
X43050500Y-79119691D01*
X43069410Y-79006371D01*
X43124090Y-78905331D01*
X43152720Y-78872911D01*
X48372912Y-73652720D01*
X48466412Y-73585962D01*
X48576523Y-73553180D01*
X48619692Y-73550500D01*
X48890848Y-73550500D01*
X49004168Y-73569410D01*
X49105208Y-73624090D01*
X49137634Y-73652725D01*
X49142451Y-73657542D01*
X49142454Y-73657546D01*
X49208294Y-73706834D01*
X49257670Y-73743797D01*
X49310077Y-73763343D01*
X49392517Y-73794091D01*
X49452127Y-73800500D01*
X51547872Y-73800499D01*
X51607483Y-73794091D01*
X51742331Y-73743796D01*
X51857546Y-73657546D01*
X51943796Y-73542331D01*
X51945992Y-73536445D01*
X51975431Y-73457512D01*
X51994091Y-73407483D01*
X52000500Y-73347873D01*
X52000499Y-72629689D01*
X52019409Y-72516371D01*
X52074089Y-72415331D01*
X52102710Y-72382919D01*
X52815976Y-71669655D01*
X52930941Y-71497598D01*
X53010129Y-71306420D01*
X53050500Y-71103466D01*
X53050500Y-70896535D01*
X53010129Y-70693580D01*
X52948881Y-70545713D01*
X52930942Y-70502404D01*
X52929669Y-70500499D01*
X52815976Y-70330345D01*
X52815974Y-70330343D01*
X52815972Y-70330340D01*
X52669656Y-70184025D01*
X52252720Y-69767089D01*
X52185962Y-69673589D01*
X52153180Y-69563478D01*
X52150500Y-69520309D01*
X52150500Y-68955615D01*
X52169410Y-68842295D01*
X52224090Y-68741255D01*
X52308615Y-68663444D01*
X52332244Y-68649304D01*
X52342328Y-68643797D01*
X52342327Y-68643797D01*
X52342331Y-68643796D01*
X52457546Y-68557546D01*
X52543796Y-68442331D01*
X52550628Y-68424015D01*
X52567972Y-68377511D01*
X52594091Y-68307483D01*
X52600500Y-68247873D01*
X52600499Y-66552128D01*
X52594091Y-66492517D01*
X52552669Y-66381460D01*
X52530787Y-66268678D01*
X52546710Y-66154900D01*
X52598714Y-66052457D01*
X52681163Y-65972450D01*
X52785124Y-65923549D01*
X52879666Y-65910500D01*
X53120334Y-65910500D01*
X53233654Y-65929410D01*
X53334694Y-65984090D01*
X53412505Y-66068615D01*
X53458655Y-66173826D01*
X53468142Y-66288320D01*
X53447330Y-66381461D01*
X53405909Y-66492515D01*
X53399500Y-66552129D01*
X53399500Y-68247870D01*
X53405909Y-68307485D01*
X53405910Y-68307488D01*
X53456202Y-68442328D01*
X53456203Y-68442329D01*
X53456204Y-68442331D01*
X53542454Y-68557546D01*
X53634523Y-68626469D01*
X53657670Y-68643797D01*
X53710348Y-68663444D01*
X53792517Y-68694091D01*
X53852127Y-68700500D01*
X55947872Y-68700499D01*
X56007483Y-68694091D01*
X56142331Y-68643796D01*
X56257546Y-68557546D01*
X56257551Y-68557538D01*
X56262366Y-68552725D01*
X56355865Y-68485965D01*
X56465976Y-68453181D01*
X56509152Y-68450500D01*
X56542514Y-68450500D01*
X56655834Y-68469410D01*
X56756874Y-68524090D01*
X56834685Y-68608615D01*
X56880835Y-68713826D01*
X56890322Y-68828320D01*
X56862119Y-68939692D01*
X56824861Y-69004638D01*
X56716656Y-69153567D01*
X56716653Y-69153572D01*
X56609436Y-69363999D01*
X56609429Y-69364015D01*
X56536449Y-69588623D01*
X56536445Y-69588638D01*
X56499500Y-69821903D01*
X56499500Y-70058096D01*
X56536445Y-70291361D01*
X56536449Y-70291376D01*
X56609429Y-70515984D01*
X56609436Y-70516000D01*
X56716653Y-70726427D01*
X56716656Y-70726432D01*
X56716657Y-70726433D01*
X56855483Y-70917510D01*
X56855484Y-70917511D01*
X56855485Y-70917512D01*
X56901194Y-70963222D01*
X56967952Y-71056723D01*
X57000732Y-71166834D01*
X56995984Y-71281623D01*
X56954220Y-71388651D01*
X56901194Y-71456778D01*
X56855485Y-71502487D01*
X56716656Y-71693567D01*
X56716653Y-71693572D01*
X56609436Y-71903999D01*
X56609429Y-71904015D01*
X56536449Y-72128623D01*
X56536445Y-72128638D01*
X56499500Y-72361903D01*
X56499500Y-72598096D01*
X56536445Y-72831361D01*
X56536449Y-72831376D01*
X56609429Y-73055984D01*
X56609436Y-73056000D01*
X56716653Y-73266427D01*
X56716656Y-73266432D01*
X56716657Y-73266433D01*
X56855483Y-73457510D01*
X57022490Y-73624517D01*
X57186663Y-73743796D01*
X57213567Y-73763343D01*
X57213572Y-73763346D01*
X57323411Y-73819311D01*
X57424008Y-73870568D01*
X57648632Y-73943553D01*
X57881908Y-73980500D01*
X57881912Y-73980500D01*
X58118088Y-73980500D01*
X58118092Y-73980500D01*
X58351368Y-73943553D01*
X58575992Y-73870568D01*
X58786433Y-73763343D01*
X58977510Y-73624517D01*
X59144517Y-73457510D01*
X59283343Y-73266433D01*
X59390568Y-73055992D01*
X59463553Y-72831368D01*
X59500500Y-72598092D01*
X59500500Y-72361908D01*
X59463553Y-72128632D01*
X59390568Y-71904008D01*
X59283343Y-71693567D01*
X59144517Y-71502490D01*
X59098807Y-71456780D01*
X59032049Y-71363280D01*
X58999267Y-71253169D01*
X59004015Y-71138380D01*
X59045777Y-71031352D01*
X59098807Y-70963220D01*
X59144517Y-70917510D01*
X59283343Y-70726433D01*
X59390568Y-70515992D01*
X59463553Y-70291368D01*
X59500500Y-70058092D01*
X59500500Y-69821908D01*
X59463553Y-69588632D01*
X59390568Y-69364008D01*
X59283343Y-69153567D01*
X59144517Y-68962490D01*
X59098807Y-68916780D01*
X59032049Y-68823280D01*
X58999267Y-68713169D01*
X59004015Y-68598380D01*
X59045777Y-68491352D01*
X59098807Y-68423220D01*
X59144517Y-68377510D01*
X59283343Y-68186433D01*
X59390568Y-67975992D01*
X59463553Y-67751368D01*
X59500500Y-67518092D01*
X59500500Y-67281908D01*
X59463553Y-67048632D01*
X59390568Y-66824008D01*
X59339311Y-66723411D01*
X59283346Y-66613572D01*
X59283343Y-66613567D01*
X59261878Y-66584023D01*
X59144517Y-66422490D01*
X59098807Y-66376780D01*
X59032049Y-66283280D01*
X58999267Y-66173169D01*
X59004015Y-66058380D01*
X59045777Y-65951352D01*
X59098807Y-65883220D01*
X59111898Y-65870129D01*
X59144517Y-65837510D01*
X59283343Y-65646433D01*
X59390568Y-65435992D01*
X59463553Y-65211368D01*
X59500500Y-64978092D01*
X59500500Y-64741908D01*
X59463553Y-64508632D01*
X59390568Y-64284008D01*
X59283343Y-64073567D01*
X59144517Y-63882490D01*
X59098807Y-63836780D01*
X59032049Y-63743280D01*
X58999267Y-63633169D01*
X59004015Y-63518380D01*
X59045777Y-63411352D01*
X59098807Y-63343220D01*
X59111897Y-63330130D01*
X59144517Y-63297510D01*
X59283343Y-63106433D01*
X59390568Y-62895992D01*
X59463553Y-62671368D01*
X59500500Y-62438092D01*
X59500500Y-62201908D01*
X59463553Y-61968632D01*
X59390568Y-61744008D01*
X59283343Y-61533567D01*
X59144517Y-61342490D01*
X59098807Y-61296780D01*
X59032049Y-61203280D01*
X58999267Y-61093169D01*
X59004015Y-60978380D01*
X59045777Y-60871352D01*
X59098807Y-60803220D01*
X59144517Y-60757510D01*
X59283343Y-60566433D01*
X59390568Y-60355992D01*
X59463553Y-60131368D01*
X59500500Y-59898092D01*
X59500500Y-59661908D01*
X59463553Y-59428632D01*
X59390568Y-59204008D01*
X59283343Y-58993567D01*
X59144517Y-58802490D01*
X59098807Y-58756780D01*
X59032049Y-58663280D01*
X58999267Y-58553169D01*
X59004015Y-58438380D01*
X59045777Y-58331352D01*
X59098807Y-58263220D01*
X59144517Y-58217510D01*
X59283343Y-58026433D01*
X59390568Y-57815992D01*
X59463553Y-57591368D01*
X59500500Y-57358092D01*
X59500500Y-57121908D01*
X59463553Y-56888632D01*
X59390568Y-56664008D01*
X59283343Y-56453567D01*
X59144517Y-56262490D01*
X59098807Y-56216780D01*
X59032049Y-56123280D01*
X58999267Y-56013169D01*
X59004015Y-55898380D01*
X59045777Y-55791352D01*
X59098807Y-55723220D01*
X59144517Y-55677510D01*
X59283343Y-55486433D01*
X59390568Y-55275992D01*
X59463553Y-55051368D01*
X59500500Y-54818092D01*
X59500500Y-54581908D01*
X59463553Y-54348632D01*
X59390568Y-54124008D01*
X59283343Y-53913567D01*
X59144517Y-53722490D01*
X59098807Y-53676780D01*
X59032049Y-53583280D01*
X58999267Y-53473169D01*
X59004015Y-53358380D01*
X59045777Y-53251352D01*
X59098807Y-53183220D01*
X59144517Y-53137510D01*
X59283343Y-52946433D01*
X59390568Y-52735992D01*
X59463553Y-52511368D01*
X59500500Y-52278092D01*
X59500500Y-52041908D01*
X59463553Y-51808632D01*
X59390568Y-51584008D01*
X59283343Y-51373567D01*
X59144517Y-51182490D01*
X59098807Y-51136780D01*
X59032049Y-51043280D01*
X58999267Y-50933169D01*
X59004015Y-50818380D01*
X59045777Y-50711352D01*
X59098807Y-50643220D01*
X59111898Y-50630129D01*
X59144517Y-50597510D01*
X59283343Y-50406433D01*
X59390568Y-50195992D01*
X59463553Y-49971368D01*
X59500500Y-49738092D01*
X59500500Y-49501908D01*
X59463553Y-49268632D01*
X59390568Y-49044008D01*
X59283343Y-48833567D01*
X59144517Y-48642490D01*
X59098807Y-48596780D01*
X59032049Y-48503280D01*
X58999267Y-48393169D01*
X59004015Y-48278380D01*
X59045777Y-48171352D01*
X59098807Y-48103220D01*
X59144517Y-48057510D01*
X59283343Y-47866433D01*
X59390568Y-47655992D01*
X59463553Y-47431368D01*
X59500500Y-47198092D01*
X59500500Y-46961908D01*
X59463553Y-46728632D01*
X59390568Y-46504008D01*
X59283343Y-46293567D01*
X59144517Y-46102490D01*
X59098807Y-46056780D01*
X59032049Y-45963280D01*
X58999267Y-45853169D01*
X59004015Y-45738380D01*
X59045777Y-45631352D01*
X59098807Y-45563220D01*
X59111897Y-45550130D01*
X59144517Y-45517510D01*
X59283343Y-45326433D01*
X59390568Y-45115992D01*
X59463553Y-44891368D01*
X59500500Y-44658092D01*
X59500500Y-44421908D01*
X59463553Y-44188632D01*
X59390568Y-43964008D01*
X59283343Y-43753567D01*
X59144517Y-43562490D01*
X59098807Y-43516780D01*
X59032049Y-43423280D01*
X58999267Y-43313169D01*
X59004015Y-43198380D01*
X59045777Y-43091352D01*
X59098807Y-43023220D01*
X59144517Y-42977510D01*
X59283343Y-42786433D01*
X59390568Y-42575992D01*
X59463553Y-42351368D01*
X59500500Y-42118092D01*
X59500500Y-41881908D01*
X59463553Y-41648632D01*
X59390568Y-41424008D01*
X59283343Y-41213567D01*
X59144517Y-41022490D01*
X58977510Y-40855483D01*
X58786433Y-40716657D01*
X58675157Y-40659959D01*
X58582777Y-40591667D01*
X58517573Y-40497075D01*
X58486617Y-40386437D01*
X58493262Y-40271743D01*
X58536788Y-40165420D01*
X58612478Y-40078991D01*
X58712131Y-40021822D01*
X58824947Y-40000107D01*
X58833603Y-40000000D01*
X87800000Y-40000000D01*
X87800000Y-30924000D01*
X87818910Y-30810680D01*
X87873590Y-30709640D01*
X87958115Y-30631829D01*
X88063326Y-30585679D01*
X88149000Y-30575000D01*
X97177052Y-30575000D01*
X97290372Y-30593910D01*
G37*
%TD.AperFunction*%
%TD*%
M02*
