%TF.GenerationSoftware,KiCad,Pcbnew,10.0.6*%
%TF.CreationDate,2026-09-09T18:39:37+03:00*%
%TF.ProjectId,candidate,63616e64-6964-4617-9465-2e6b69636164,rev?*%
%TF.SameCoordinates,Original*%
%TF.FileFunction,Copper,L2,Bot*%
%TF.FilePolarity,Positive*%
%FSLAX46Y46*%
G04 Gerber Fmt 4.6, Leading zero omitted, Abs format (unit mm)*
G04 Created by KiCad (PCBNEW 10.0.6) date 2026-09-09 18:39:37*
%MOMM*%
%LPD*%
G01*
G04 APERTURE LIST*
%TA.AperFunction,ComponentPad*%
%ADD10C,3.500000*%
%TD*%
%TA.AperFunction,SMDPad,CuDef*%
%ADD11R,1.600000X2.000000*%
%TD*%
%TA.AperFunction,ComponentPad*%
%ADD12C,2.000000*%
%TD*%
%TA.AperFunction,SMDPad,CuDef*%
%ADD13R,2.000000X1.600000*%
%TD*%
%TA.AperFunction,Conductor*%
%ADD14C,1.200000*%
%TD*%
%TA.AperFunction,Conductor*%
%ADD15C,1.000000*%
%TD*%
%TA.AperFunction,Conductor*%
%ADD16C,0.800000*%
%TD*%
G04 APERTURE END LIST*
D10*
%TO.P,X8,1*%
%TO.N,B1*%
X66000000Y-95000000D03*
%TO.P,X8,2*%
%TO.N,B2*%
X71000000Y-95000000D03*
%TO.P,X8,3*%
%TO.N,GND*%
X76000000Y-95000000D03*
%TD*%
D11*
%TO.P,R6,1*%
%TO.N,U_LOAD*%
X107000000Y-61900000D03*
%TO.P,R6,2*%
%TO.N,GND*%
X107000000Y-58100000D03*
%TD*%
%TO.P,R2,1*%
%TO.N,U_B1*%
X72000000Y-70900000D03*
%TO.P,R2,2*%
%TO.N,GND*%
X72000000Y-67100000D03*
%TD*%
D12*
%TO.P,J32,1*%
%TO.N,I_B1*%
X60000000Y-46000000D03*
%TO.P,J32,2*%
%TO.N,I_B2*%
X62540000Y-46000000D03*
%TO.P,J32,3*%
%TO.N,U_B1*%
X65080000Y-46000000D03*
%TO.P,J32,4*%
%TO.N,U_B2*%
X67620000Y-46000000D03*
%TO.P,J32,5*%
%TO.N,GND*%
X70160000Y-46000000D03*
%TD*%
D11*
%TO.P,R4,1*%
%TO.N,U_B2*%
X80000000Y-70900000D03*
%TO.P,R4,2*%
%TO.N,GND*%
X80000000Y-67100000D03*
%TD*%
D12*
%TO.P,C5,1*%
%TO.N,U_LOAD*%
X99460000Y-53000000D03*
D13*
X100100000Y-53000000D03*
%TO.P,C5,2*%
%TO.N,GND*%
X103900000Y-53000000D03*
D12*
X104540000Y-53000000D03*
%TD*%
%TO.P,C9,1*%
%TO.N,I_LOAD*%
X94460000Y-60000000D03*
D13*
X95100000Y-60000000D03*
%TO.P,C9,2*%
%TO.N,GND*%
X98900000Y-60000000D03*
D12*
X99540000Y-60000000D03*
%TD*%
%TO.P,J25,1*%
%TO.N,GND*%
X36000000Y-65000000D03*
%TO.P,J25,2*%
%TO.N,+3V3_SENS*%
X38540000Y-65000000D03*
%TD*%
D11*
%TO.P,R8,1*%
%TO.N,I_RAW2*%
X65000000Y-77900000D03*
%TO.P,R8,2*%
%TO.N,I_B2*%
X65000000Y-74100000D03*
%TD*%
D12*
%TO.P,C8,1*%
%TO.N,I_B2*%
X60460000Y-59000000D03*
D13*
X61100000Y-59000000D03*
%TO.P,C8,2*%
%TO.N,GND*%
X64900000Y-59000000D03*
D12*
X65540000Y-59000000D03*
%TD*%
%TO.P,J5,1*%
%TO.N,+3V3_SENS*%
X95000000Y-87000000D03*
%TO.P,J5,2*%
%TO.N,I_RAW3*%
X97540000Y-87000000D03*
%TO.P,J5,3*%
%TO.N,GND*%
X100080000Y-87000000D03*
%TD*%
%TO.P,J3,1*%
%TO.N,I_RAW1*%
X37000000Y-80000000D03*
%TO.P,J3,2*%
%TO.N,GND*%
X37000000Y-82540000D03*
%TO.P,J3,3*%
%TO.N,+3V3_SENS*%
X37000000Y-85080000D03*
%TD*%
%TO.P,C4,1*%
%TO.N,U_B2*%
X73460000Y-51000000D03*
D13*
X74100000Y-51000000D03*
%TO.P,C4,2*%
%TO.N,GND*%
X77900000Y-51000000D03*
D12*
X78540000Y-51000000D03*
%TD*%
%TO.P,J4,1*%
%TO.N,I_RAW2*%
X60000000Y-87000000D03*
%TO.P,J4,2*%
%TO.N,GND*%
X62540000Y-87000000D03*
%TO.P,J4,3*%
%TO.N,+3V3_SENS*%
X65080000Y-87000000D03*
%TD*%
D10*
%TO.P,X5,1*%
%TO.N,LOAD+*%
X110000000Y-76000000D03*
%TD*%
D12*
%TO.P,C3,1*%
%TO.N,U_B1*%
X69460000Y-62000000D03*
D13*
X70100000Y-62000000D03*
%TO.P,C3,2*%
%TO.N,GND*%
X73900000Y-62000000D03*
D12*
X74540000Y-62000000D03*
%TD*%
D11*
%TO.P,R1,1*%
%TO.N,B1*%
X73000000Y-78900000D03*
%TO.P,R1,2*%
%TO.N,U_B1*%
X73000000Y-75100000D03*
%TD*%
D12*
%TO.P,C7,1*%
%TO.N,I_B1*%
X54460000Y-66000000D03*
D13*
X55100000Y-66000000D03*
%TO.P,C7,2*%
%TO.N,GND*%
X58900000Y-66000000D03*
D12*
X59540000Y-66000000D03*
%TD*%
%TO.P,J33,1*%
%TO.N,I_LOAD*%
X93000000Y-46000000D03*
%TO.P,J33,2*%
%TO.N,U_LOAD*%
X95540000Y-46000000D03*
%TO.P,J33,3*%
%TO.N,GND*%
X98080000Y-46000000D03*
%TD*%
D11*
%TO.P,R9,1*%
%TO.N,I_RAW3*%
X95000000Y-77900000D03*
%TO.P,R9,2*%
%TO.N,I_LOAD*%
X95000000Y-74100000D03*
%TD*%
%TO.P,R3,1*%
%TO.N,B2*%
X81000000Y-78900000D03*
%TO.P,R3,2*%
%TO.N,U_B2*%
X81000000Y-75100000D03*
%TD*%
%TO.P,R5,1*%
%TO.N,LOAD+*%
X107000000Y-69900000D03*
%TO.P,R5,2*%
%TO.N,U_LOAD*%
X107000000Y-66100000D03*
%TD*%
%TO.P,R7,1*%
%TO.N,I_RAW1*%
X50000000Y-74900000D03*
%TO.P,R7,2*%
%TO.N,I_B1*%
X50000000Y-71100000D03*
%TD*%
%TO.N,B1*%
D14*
X66000000Y-95000000D02*
X73000000Y-88000000D01*
X73000000Y-88000000D02*
X73000000Y-78900000D01*
%TO.N,B2*%
X81000000Y-78900000D02*
X78598300Y-78900000D01*
X71000000Y-95000000D02*
X78598300Y-87401700D01*
X78598300Y-87401700D02*
X78598300Y-78900000D01*
%TO.N,GND*%
D15*
X73540000Y-46000000D02*
X78540000Y-51000000D01*
X74540000Y-62000000D02*
X74540000Y-64151700D01*
X68532600Y-43820400D02*
X59088200Y-43820400D01*
X104540000Y-53000000D02*
X104540000Y-50848300D01*
X73951700Y-67099999D02*
X73951700Y-64739999D01*
X37000000Y-82540000D02*
X54230700Y-82540000D01*
X70160000Y-46000000D02*
X73540000Y-46000000D01*
X34846400Y-79049900D02*
X34846400Y-80889400D01*
X54230700Y-82540000D02*
X54230700Y-84284100D01*
X70160000Y-45447800D02*
X68532600Y-43820400D01*
X66990200Y-67099999D02*
X66990200Y-81678300D01*
X111396000Y-79270200D02*
X100080000Y-79270200D01*
X65540000Y-59000000D02*
X65540000Y-61151700D01*
X113284300Y-77381900D02*
X111396000Y-79270200D01*
X102928300Y-50848300D02*
X104540000Y-50848300D01*
X113284300Y-62432600D02*
X113284300Y-77381900D01*
X98080000Y-46000000D02*
X102928300Y-50848300D01*
X59540000Y-77230700D02*
X54230700Y-82540000D01*
X54230700Y-84284100D02*
X59144900Y-89198300D01*
X99540000Y-60000000D02*
X99540000Y-62151700D01*
X72157500Y-67099999D02*
X73951700Y-67099999D01*
X36000000Y-64457600D02*
X37651300Y-62806300D01*
X107000000Y-58100000D02*
X108951700Y-58100000D01*
X80975900Y-55587600D02*
X78540000Y-53151700D01*
X100080000Y-79270200D02*
X100080000Y-62691700D01*
X104540000Y-53000000D02*
X104540000Y-54738300D01*
X59144900Y-89198300D02*
X60844800Y-89198300D01*
X83800600Y-89172300D02*
X98448300Y-89172300D01*
X80975900Y-67099999D02*
X80975900Y-55587600D01*
X100080000Y-87000000D02*
X100080000Y-79270200D01*
X108951700Y-58100000D02*
X113284300Y-62432600D01*
X105048300Y-58100000D02*
X105048300Y-55660000D01*
X66990200Y-81678300D02*
X62540000Y-86128500D01*
X77972900Y-95000000D02*
X83800600Y-89172300D01*
X37651300Y-62806300D02*
X40741200Y-62806300D01*
X60844800Y-89198300D02*
X62540000Y-87503100D01*
X65540000Y-61151700D02*
X66990200Y-62601900D01*
X76000000Y-95000000D02*
X77972900Y-95000000D01*
X83800600Y-89172300D02*
X83800600Y-68948900D01*
X78540000Y-51000000D02*
X78540000Y-53151700D01*
X40741200Y-73155100D02*
X34846400Y-79049900D01*
X66990200Y-67099999D02*
X72000000Y-67099999D01*
X59540000Y-66000000D02*
X59540000Y-77230700D01*
X34846400Y-80889400D02*
X36497000Y-82540000D01*
X107000000Y-58100000D02*
X105048300Y-58100000D01*
X83800600Y-68948900D02*
X81951700Y-67099999D01*
X59088200Y-43820400D02*
X40741200Y-62167400D01*
X40741200Y-62806300D02*
X40741200Y-73155100D01*
X98448300Y-89172300D02*
X100080000Y-87540600D01*
X66990200Y-62601900D02*
X66990200Y-67099999D01*
%TO.N,U_LOAD*%
D16*
X99460000Y-50948300D02*
X95540000Y-47028300D01*
X99460000Y-53000000D02*
X99460000Y-50948300D01*
X99460000Y-56211700D02*
X99460000Y-53000000D01*
X95540000Y-47028300D02*
X95540000Y-46000000D01*
X105148300Y-61900000D02*
X99460000Y-56211700D01*
X107000000Y-61900000D02*
X105148300Y-61900000D01*
X107000000Y-61900000D02*
X107000000Y-66099999D01*
%TO.N,U_B1*%
X76050700Y-59948300D02*
X69460000Y-59948300D01*
X69460000Y-59948300D02*
X69460000Y-62000000D01*
X69460000Y-56265800D02*
X69460000Y-59948300D01*
X73000000Y-72596600D02*
X76627300Y-68969300D01*
X76627300Y-60524900D02*
X75849483Y-59747083D01*
X65080000Y-46000000D02*
X65080000Y-51885800D01*
X73000000Y-75100000D02*
X72548300Y-73048300D01*
X65080000Y-51885800D02*
X69460000Y-56265800D01*
X76627300Y-68969300D02*
X76627300Y-60524900D01*
X72000000Y-70900000D02*
X72000000Y-72951700D01*
%TO.N,I_B1*%
X60000000Y-46000000D02*
X54460000Y-51540000D01*
X54460000Y-51540000D02*
X54460000Y-66000000D01*
X51851700Y-70660000D02*
X54460000Y-68051700D01*
X50000000Y-71100000D02*
X51851700Y-71100000D01*
X54460000Y-66000000D02*
X54460000Y-68051700D01*
%TO.N,I_B2*%
X60460000Y-59000000D02*
X60460000Y-56948300D01*
X60460000Y-59000000D02*
X60460000Y-61051700D01*
X60460000Y-61051700D02*
X65000000Y-65591700D01*
X62540000Y-54868300D02*
X62540000Y-46000000D01*
X60460000Y-56948300D02*
X62540000Y-54868300D01*
X65000000Y-65591700D02*
X65000000Y-74100000D01*
%TO.N,U_B2*%
X81000000Y-75100000D02*
X80096600Y-73048300D01*
X78148300Y-69561200D02*
X78148300Y-57740000D01*
X78148300Y-57740000D02*
X73460000Y-53051700D01*
X67620000Y-46000000D02*
X67620000Y-47211700D01*
X80000000Y-71412900D02*
X78148300Y-69561200D01*
X73460000Y-51000000D02*
X73460000Y-53051700D01*
X73460000Y-51000000D02*
X71408300Y-51000000D01*
X80000000Y-71412900D02*
X80000000Y-72951700D01*
X67620000Y-47211700D02*
X71408300Y-51000000D01*
%TO.N,I_LOAD*%
X93000000Y-46000000D02*
X93000000Y-56488300D01*
X94460000Y-60000000D02*
X94460000Y-57948300D01*
X95000000Y-74100000D02*
X95000000Y-62591700D01*
X93000000Y-56488300D02*
X94460000Y-57948300D01*
X94460000Y-60000000D02*
X94460000Y-62051700D01*
%TO.N,+3V3_SENS*%
D15*
X37000000Y-85080000D02*
X42770000Y-90850000D01*
X42770000Y-90850000D02*
X61741400Y-90850000D01*
X35098200Y-67191500D02*
X33194699Y-69095000D01*
X33845900Y-65939200D02*
X35098200Y-67191500D01*
X33194699Y-81825700D02*
X36449000Y-85080000D01*
X85770000Y-54555400D02*
X73332100Y-42117500D01*
X55803800Y-42117500D02*
X33845900Y-64075400D01*
X95000000Y-87000000D02*
X85770000Y-77770000D01*
X33194699Y-69095000D02*
X33194699Y-81825700D01*
X73332100Y-42117500D02*
X55803800Y-42117500D01*
X35098200Y-67191500D02*
X36896500Y-67191500D01*
X61741400Y-90850000D02*
X65080000Y-87511400D01*
X33845900Y-64075400D02*
X33845900Y-65939200D01*
X36896500Y-67191500D02*
X38540000Y-65548000D01*
X85770000Y-77770000D02*
X85770000Y-54555400D01*
%TO.N,I_RAW2*%
D16*
X63148300Y-77900000D02*
X60000000Y-81048300D01*
X60000000Y-81048300D02*
X60000000Y-87000000D01*
X65000000Y-77900000D02*
X63148300Y-77900000D01*
%TO.N,I_RAW3*%
X96851700Y-77900000D02*
X97540000Y-87000000D01*
X95000000Y-77900000D02*
X96851700Y-77900000D01*
%TO.N,I_RAW1*%
X42100000Y-74900000D02*
X37000000Y-80000000D01*
X50000000Y-74900000D02*
X42100000Y-74900000D01*
%TO.N,LOAD+*%
D14*
X110000000Y-76000000D02*
X107000000Y-73000000D01*
X107000000Y-73000000D02*
X107000000Y-69900000D01*
%TD*%
%TA.AperFunction,Conductor*%
%TO.N,GND*%
G36*
X115189320Y-30593910D02*
G01*
X115290360Y-30648590D01*
X115368171Y-30733115D01*
X115414321Y-30838326D01*
X115425000Y-30924000D01*
X115425000Y-97076000D01*
X115406090Y-97189320D01*
X115351410Y-97290360D01*
X115266885Y-97368171D01*
X115161674Y-97414321D01*
X115076000Y-97425000D01*
X73307354Y-97425000D01*
X73194034Y-97406090D01*
X73092994Y-97351410D01*
X73015183Y-97266885D01*
X72969033Y-97161674D01*
X72959546Y-97047180D01*
X72987749Y-96935808D01*
X73048109Y-96843420D01*
X73047602Y-96842967D01*
X73054108Y-96835685D01*
X73054120Y-96835674D01*
X73246735Y-96594143D01*
X73411095Y-96332565D01*
X73545135Y-96054229D01*
X73647168Y-95762636D01*
X73715911Y-95461452D01*
X73750500Y-95154465D01*
X73750500Y-94845535D01*
X73735639Y-94713640D01*
X73736301Y-94701190D01*
X73733742Y-94688985D01*
X73739338Y-94644091D01*
X73741741Y-94598915D01*
X73746410Y-94587352D01*
X73747953Y-94574981D01*
X73767819Y-94534342D01*
X73784764Y-94492388D01*
X73794160Y-94480461D01*
X73798411Y-94471767D01*
X73835658Y-94427789D01*
X73891289Y-94372158D01*
X110549500Y-94372158D01*
X110549500Y-94627841D01*
X110582872Y-94881329D01*
X110582875Y-94881346D01*
X110649050Y-95128313D01*
X110649050Y-95128315D01*
X110659882Y-95154465D01*
X110746896Y-95364535D01*
X110746897Y-95364536D01*
X110874738Y-95585964D01*
X110874739Y-95585966D01*
X110961833Y-95699468D01*
X111030390Y-95788813D01*
X111030396Y-95788819D01*
X111030401Y-95788825D01*
X111211174Y-95969598D01*
X111211180Y-95969603D01*
X111211187Y-95969610D01*
X111321484Y-96054244D01*
X111414033Y-96125260D01*
X111414035Y-96125261D01*
X111635465Y-96253104D01*
X111871687Y-96350950D01*
X112118660Y-96417126D01*
X112372157Y-96450500D01*
X112372159Y-96450500D01*
X112627841Y-96450500D01*
X112627843Y-96450500D01*
X112881340Y-96417126D01*
X113128313Y-96350950D01*
X113364535Y-96253104D01*
X113585965Y-96125261D01*
X113788813Y-95969610D01*
X113969610Y-95788813D01*
X114125261Y-95585965D01*
X114253104Y-95364535D01*
X114350950Y-95128313D01*
X114417126Y-94881340D01*
X114450500Y-94627843D01*
X114450500Y-94372157D01*
X114417126Y-94118660D01*
X114350950Y-93871687D01*
X114253104Y-93635465D01*
X114125261Y-93414035D01*
X114125260Y-93414033D01*
X114064574Y-93334947D01*
X113969610Y-93211187D01*
X113969603Y-93211180D01*
X113969598Y-93211174D01*
X113788825Y-93030401D01*
X113788819Y-93030396D01*
X113788813Y-93030390D01*
X113678670Y-92945874D01*
X113585966Y-92874739D01*
X113585964Y-92874738D01*
X113475250Y-92810817D01*
X113364535Y-92746896D01*
X113364529Y-92746893D01*
X113364524Y-92746891D01*
X113128314Y-92649050D01*
X112881346Y-92582875D01*
X112881329Y-92582872D01*
X112709726Y-92560280D01*
X112627843Y-92549500D01*
X112372157Y-92549500D01*
X112301660Y-92558781D01*
X112118670Y-92582872D01*
X112118653Y-92582875D01*
X111871686Y-92649050D01*
X111871684Y-92649050D01*
X111635475Y-92746891D01*
X111635463Y-92746897D01*
X111414035Y-92874738D01*
X111414033Y-92874739D01*
X111211192Y-93030386D01*
X111211174Y-93030401D01*
X111030401Y-93211174D01*
X111030386Y-93211192D01*
X110874739Y-93414033D01*
X110874738Y-93414035D01*
X110746897Y-93635463D01*
X110746891Y-93635475D01*
X110649050Y-93871684D01*
X110649050Y-93871686D01*
X110582875Y-94118653D01*
X110582872Y-94118670D01*
X110549500Y-94372158D01*
X73891289Y-94372158D01*
X79819093Y-88444356D01*
X79860128Y-88387875D01*
X79869641Y-88374783D01*
X79967166Y-88240551D01*
X79967167Y-88240548D01*
X79967170Y-88240545D01*
X80081541Y-88016079D01*
X80159390Y-87776485D01*
X80198800Y-87527662D01*
X80198800Y-81249499D01*
X80217710Y-81136179D01*
X80272390Y-81035139D01*
X80356915Y-80957328D01*
X80462126Y-80911178D01*
X80547800Y-80900499D01*
X81858032Y-80900499D01*
X81858036Y-80900499D01*
X81977418Y-80889886D01*
X82173049Y-80833909D01*
X82353407Y-80739698D01*
X82511109Y-80611109D01*
X82639698Y-80453407D01*
X82733909Y-80273049D01*
X82789886Y-80077418D01*
X82800500Y-79958037D01*
X82800499Y-77841964D01*
X82789886Y-77722582D01*
X82733909Y-77526951D01*
X82733908Y-77526950D01*
X82733908Y-77526948D01*
X82639699Y-77346595D01*
X82639697Y-77346592D01*
X82633432Y-77338909D01*
X82599113Y-77296819D01*
X82511109Y-77188890D01*
X82353407Y-77060302D01*
X82353403Y-77060300D01*
X82250075Y-77006326D01*
X82158391Y-76937100D01*
X82094150Y-76841852D01*
X82064316Y-76730906D01*
X82072123Y-76616285D01*
X82116725Y-76510409D01*
X82142865Y-76477734D01*
X82142588Y-76477527D01*
X82157546Y-76457546D01*
X82243796Y-76342331D01*
X82294091Y-76207483D01*
X82300500Y-76147873D01*
X82300499Y-74052128D01*
X82294091Y-73992517D01*
X82276697Y-73945880D01*
X82243797Y-73857671D01*
X82243796Y-73857669D01*
X82157546Y-73742454D01*
X82088621Y-73690857D01*
X82042329Y-73656202D01*
X81907483Y-73605909D01*
X81907485Y-73605909D01*
X81877678Y-73602704D01*
X81847873Y-73599500D01*
X81847871Y-73599500D01*
X81714793Y-73599500D01*
X81601473Y-73580590D01*
X81500433Y-73525910D01*
X81422622Y-73441385D01*
X81395385Y-73391140D01*
X81080092Y-72675080D01*
X81051733Y-72563749D01*
X81050500Y-72534440D01*
X81050500Y-72509152D01*
X81069410Y-72395832D01*
X81124090Y-72294792D01*
X81152720Y-72262372D01*
X81157542Y-72257549D01*
X81157542Y-72257548D01*
X81157546Y-72257546D01*
X81243796Y-72142331D01*
X81294091Y-72007483D01*
X81300500Y-71947873D01*
X81300499Y-69852128D01*
X81294091Y-69792517D01*
X81243796Y-69657669D01*
X81157546Y-69542454D01*
X81088621Y-69490857D01*
X81042329Y-69456202D01*
X80907483Y-69405909D01*
X80907485Y-69405909D01*
X80877678Y-69402704D01*
X80847873Y-69399500D01*
X80847871Y-69399500D01*
X79616791Y-69399500D01*
X79503471Y-69380590D01*
X79402431Y-69325910D01*
X79370011Y-69297280D01*
X79301020Y-69228289D01*
X79234262Y-69134789D01*
X79201480Y-69024678D01*
X79198800Y-68981509D01*
X79198800Y-57636534D01*
X79192102Y-57602861D01*
X79158430Y-57433580D01*
X79079241Y-57242402D01*
X78964277Y-57070345D01*
X78817955Y-56924023D01*
X78817951Y-56924020D01*
X78809197Y-56915266D01*
X78809197Y-56915265D01*
X78809189Y-56915258D01*
X74790210Y-52896279D01*
X74723452Y-52802779D01*
X74690670Y-52692668D01*
X74695418Y-52577879D01*
X74737180Y-52470851D01*
X74811432Y-52383183D01*
X74910126Y-52324374D01*
X75022568Y-52300797D01*
X75036990Y-52300499D01*
X75147871Y-52300499D01*
X75147872Y-52300499D01*
X75207483Y-52294091D01*
X75342331Y-52243796D01*
X75457546Y-52157546D01*
X75543796Y-52042331D01*
X75594091Y-51907483D01*
X75600500Y-51847873D01*
X75600499Y-50152128D01*
X75594091Y-50092517D01*
X75543796Y-49957669D01*
X75457546Y-49842454D01*
X75388621Y-49790857D01*
X75342329Y-49756202D01*
X75207483Y-49705909D01*
X75207485Y-49705909D01*
X75177678Y-49702704D01*
X75147873Y-49699500D01*
X75147871Y-49699500D01*
X74296548Y-49699500D01*
X74183228Y-49680590D01*
X74138109Y-49661463D01*
X74035992Y-49609432D01*
X74035983Y-49609429D01*
X73811376Y-49536449D01*
X73811361Y-49536445D01*
X73578096Y-49499500D01*
X73578092Y-49499500D01*
X73341908Y-49499500D01*
X73341903Y-49499500D01*
X73108638Y-49536445D01*
X73108623Y-49536449D01*
X72884015Y-49609429D01*
X72883999Y-49609436D01*
X72673572Y-49716653D01*
X72673567Y-49716656D01*
X72482487Y-49855485D01*
X72472070Y-49864383D01*
X72470050Y-49862018D01*
X72397193Y-49914038D01*
X72287082Y-49946820D01*
X72243913Y-49949500D01*
X71987991Y-49949500D01*
X71874671Y-49930590D01*
X71773631Y-49875910D01*
X71741211Y-49847280D01*
X69007375Y-47113444D01*
X68940617Y-47019944D01*
X68907835Y-46909833D01*
X68912583Y-46795044D01*
X68943193Y-46708222D01*
X69010568Y-46575992D01*
X69083553Y-46351368D01*
X69120500Y-46118092D01*
X69120500Y-45881908D01*
X69083553Y-45648632D01*
X69010568Y-45424008D01*
X68903343Y-45213567D01*
X68764517Y-45022490D01*
X68597510Y-44855483D01*
X68406433Y-44716657D01*
X68406434Y-44716657D01*
X68406432Y-44716656D01*
X68406427Y-44716653D01*
X68196000Y-44609436D01*
X68195998Y-44609435D01*
X68195992Y-44609432D01*
X68195987Y-44609430D01*
X68195984Y-44609429D01*
X67971376Y-44536449D01*
X67971361Y-44536445D01*
X67738096Y-44499500D01*
X67738092Y-44499500D01*
X67501908Y-44499500D01*
X67501903Y-44499500D01*
X67268638Y-44536445D01*
X67268623Y-44536449D01*
X67044015Y-44609429D01*
X67043999Y-44609436D01*
X66833572Y-44716653D01*
X66833567Y-44716656D01*
X66642487Y-44855485D01*
X66596778Y-44901194D01*
X66503277Y-44967952D01*
X66393166Y-45000732D01*
X66278377Y-44995984D01*
X66171349Y-44954220D01*
X66103222Y-44901194D01*
X66057512Y-44855485D01*
X66057511Y-44855484D01*
X66057510Y-44855483D01*
X65866433Y-44716657D01*
X65866434Y-44716657D01*
X65866432Y-44716656D01*
X65866427Y-44716653D01*
X65656000Y-44609436D01*
X65655998Y-44609435D01*
X65655992Y-44609432D01*
X65655987Y-44609430D01*
X65655984Y-44609429D01*
X65431376Y-44536449D01*
X65431361Y-44536445D01*
X65198096Y-44499500D01*
X65198092Y-44499500D01*
X64961908Y-44499500D01*
X64961903Y-44499500D01*
X64728638Y-44536445D01*
X64728623Y-44536449D01*
X64504015Y-44609429D01*
X64503999Y-44609436D01*
X64293572Y-44716653D01*
X64293567Y-44716656D01*
X64102487Y-44855485D01*
X64056778Y-44901194D01*
X63963277Y-44967952D01*
X63853166Y-45000732D01*
X63738377Y-44995984D01*
X63631349Y-44954220D01*
X63563222Y-44901194D01*
X63517512Y-44855485D01*
X63517511Y-44855484D01*
X63517510Y-44855483D01*
X63326433Y-44716657D01*
X63326434Y-44716657D01*
X63326432Y-44716656D01*
X63326427Y-44716653D01*
X63116000Y-44609436D01*
X63115998Y-44609435D01*
X63115992Y-44609432D01*
X63115987Y-44609430D01*
X63115984Y-44609429D01*
X62891376Y-44536449D01*
X62891361Y-44536445D01*
X62658096Y-44499500D01*
X62658092Y-44499500D01*
X62421908Y-44499500D01*
X62421903Y-44499500D01*
X62188638Y-44536445D01*
X62188623Y-44536449D01*
X61964015Y-44609429D01*
X61963999Y-44609436D01*
X61753572Y-44716653D01*
X61753567Y-44716656D01*
X61562487Y-44855485D01*
X61516778Y-44901194D01*
X61423277Y-44967952D01*
X61313166Y-45000732D01*
X61198377Y-44995984D01*
X61091349Y-44954220D01*
X61023222Y-44901194D01*
X60977512Y-44855485D01*
X60977511Y-44855484D01*
X60977510Y-44855483D01*
X60786433Y-44716657D01*
X60786434Y-44716657D01*
X60786432Y-44716656D01*
X60786427Y-44716653D01*
X60576000Y-44609436D01*
X60575998Y-44609435D01*
X60575992Y-44609432D01*
X60575987Y-44609430D01*
X60575984Y-44609429D01*
X60351376Y-44536449D01*
X60351361Y-44536445D01*
X60118096Y-44499500D01*
X60118092Y-44499500D01*
X59881908Y-44499500D01*
X59881903Y-44499500D01*
X59648638Y-44536445D01*
X59648623Y-44536449D01*
X59424015Y-44609429D01*
X59423999Y-44609436D01*
X59213572Y-44716653D01*
X59213567Y-44716656D01*
X59022488Y-44855484D01*
X58855484Y-45022488D01*
X58716656Y-45213567D01*
X58716653Y-45213572D01*
X58609436Y-45423999D01*
X58609429Y-45424015D01*
X58536449Y-45648623D01*
X58536445Y-45648638D01*
X58499500Y-45881903D01*
X58498424Y-45895582D01*
X58495323Y-45895337D01*
X58480590Y-45983628D01*
X58425910Y-46084668D01*
X58397280Y-46117088D01*
X53790344Y-50724024D01*
X53644025Y-50870341D01*
X53529059Y-51042400D01*
X53449870Y-51233580D01*
X53409500Y-51436534D01*
X53409500Y-64783913D01*
X53390590Y-64897233D01*
X53335910Y-64998273D01*
X53324008Y-65011750D01*
X53324383Y-65012070D01*
X53315485Y-65022487D01*
X53176656Y-65213567D01*
X53176653Y-65213572D01*
X53069436Y-65423999D01*
X53069429Y-65424015D01*
X52996449Y-65648623D01*
X52996445Y-65648638D01*
X52959500Y-65881903D01*
X52959500Y-66118096D01*
X52996445Y-66351361D01*
X52996449Y-66351376D01*
X53069429Y-66575984D01*
X53069436Y-66576000D01*
X53176653Y-66786427D01*
X53176656Y-66786432D01*
X53176657Y-66786433D01*
X53315483Y-66977510D01*
X53315485Y-66977512D01*
X53324383Y-66987930D01*
X53322018Y-66989949D01*
X53374038Y-67062807D01*
X53406820Y-67172918D01*
X53409500Y-67216087D01*
X53409500Y-67472008D01*
X53390590Y-67585328D01*
X53335910Y-67686368D01*
X53307280Y-67718788D01*
X51438921Y-69587146D01*
X51345421Y-69653904D01*
X51235310Y-69686686D01*
X51120521Y-69681938D01*
X51066766Y-69662120D01*
X51065720Y-69664927D01*
X50907483Y-69605909D01*
X50907485Y-69605909D01*
X50883639Y-69603345D01*
X50847873Y-69599500D01*
X50847870Y-69599500D01*
X49152129Y-69599500D01*
X49092514Y-69605909D01*
X49092511Y-69605910D01*
X48957671Y-69656202D01*
X48842454Y-69742454D01*
X48756202Y-69857670D01*
X48705909Y-69992515D01*
X48699500Y-70052129D01*
X48699500Y-72147870D01*
X48705909Y-72207485D01*
X48705910Y-72207488D01*
X48756202Y-72342328D01*
X48756203Y-72342330D01*
X48756204Y-72342331D01*
X48842454Y-72457546D01*
X48911391Y-72509152D01*
X48957670Y-72543797D01*
X49025093Y-72568943D01*
X49092517Y-72594091D01*
X49152127Y-72600500D01*
X50847872Y-72600499D01*
X50907483Y-72594091D01*
X51042331Y-72543796D01*
X51157546Y-72457546D01*
X51243796Y-72342331D01*
X51243797Y-72342327D01*
X51249304Y-72332244D01*
X51320209Y-72241847D01*
X51416624Y-72179371D01*
X51528100Y-72151586D01*
X51555615Y-72150500D01*
X51955165Y-72150500D01*
X52158120Y-72110130D01*
X52349298Y-72030941D01*
X52521355Y-71915977D01*
X52667677Y-71769655D01*
X52782641Y-71597598D01*
X52861830Y-71406420D01*
X52902200Y-71203465D01*
X52905545Y-71186649D01*
X52907343Y-71187006D01*
X52931717Y-71096657D01*
X52996034Y-71001461D01*
X53002298Y-70995032D01*
X55109757Y-68887572D01*
X55109771Y-68887561D01*
X55275974Y-68721358D01*
X55275977Y-68721355D01*
X55390941Y-68549298D01*
X55470130Y-68358120D01*
X55510500Y-68155165D01*
X55510500Y-67649499D01*
X55529410Y-67536179D01*
X55584090Y-67435139D01*
X55668615Y-67357328D01*
X55773826Y-67311178D01*
X55859500Y-67300499D01*
X56147871Y-67300499D01*
X56147872Y-67300499D01*
X56207483Y-67294091D01*
X56342331Y-67243796D01*
X56457546Y-67157546D01*
X56543796Y-67042331D01*
X56594091Y-66907483D01*
X56600500Y-66847873D01*
X56600499Y-65152128D01*
X56594091Y-65092517D01*
X56594089Y-65092511D01*
X56543797Y-64957671D01*
X56543796Y-64957669D01*
X56457546Y-64842454D01*
X56388621Y-64790857D01*
X56342329Y-64756202D01*
X56207483Y-64705909D01*
X56207485Y-64705909D01*
X56177678Y-64702704D01*
X56147873Y-64699500D01*
X56147871Y-64699500D01*
X55859500Y-64699500D01*
X55746180Y-64680590D01*
X55645140Y-64625910D01*
X55567329Y-64541385D01*
X55521179Y-64436174D01*
X55510500Y-64350500D01*
X55510500Y-52119691D01*
X55529410Y-52006371D01*
X55584090Y-51905331D01*
X55612720Y-51872911D01*
X59882911Y-47602720D01*
X59976411Y-47535962D01*
X60086522Y-47503180D01*
X60104456Y-47502066D01*
X60104418Y-47501576D01*
X60118083Y-47500500D01*
X60118092Y-47500500D01*
X60351368Y-47463553D01*
X60575992Y-47390568D01*
X60786433Y-47283343D01*
X60935363Y-47175138D01*
X61038155Y-47123830D01*
X61152038Y-47108677D01*
X61264671Y-47131323D01*
X61363848Y-47189314D01*
X61438822Y-47276365D01*
X61481468Y-47383044D01*
X61489500Y-47457486D01*
X61489500Y-54288608D01*
X61470590Y-54401928D01*
X61415910Y-54502968D01*
X61387280Y-54535388D01*
X59790344Y-56132324D01*
X59644025Y-56278641D01*
X59529059Y-56450700D01*
X59449870Y-56641880D01*
X59409500Y-56844834D01*
X59409500Y-57783913D01*
X59390590Y-57897233D01*
X59335910Y-57998273D01*
X59324008Y-58011750D01*
X59324383Y-58012070D01*
X59315485Y-58022487D01*
X59176656Y-58213567D01*
X59176653Y-58213572D01*
X59069436Y-58423999D01*
X59069429Y-58424015D01*
X58996449Y-58648623D01*
X58996445Y-58648638D01*
X58959500Y-58881903D01*
X58959500Y-59118096D01*
X58996445Y-59351361D01*
X58996449Y-59351376D01*
X59069429Y-59575984D01*
X59069436Y-59576000D01*
X59176653Y-59786427D01*
X59176656Y-59786432D01*
X59176657Y-59786433D01*
X59315483Y-59977510D01*
X59315485Y-59977512D01*
X59324383Y-59987930D01*
X59322018Y-59989949D01*
X59374038Y-60062807D01*
X59406820Y-60172918D01*
X59409500Y-60216087D01*
X59409500Y-61155165D01*
X59449870Y-61358120D01*
X59477158Y-61423999D01*
X59529059Y-61549299D01*
X59644025Y-61721358D01*
X59810231Y-61887564D01*
X59810245Y-61887576D01*
X63847280Y-65924611D01*
X63914038Y-66018111D01*
X63946820Y-66128222D01*
X63949500Y-66171391D01*
X63949500Y-72490847D01*
X63930590Y-72604167D01*
X63875910Y-72705207D01*
X63847280Y-72737627D01*
X63842457Y-72742449D01*
X63756202Y-72857670D01*
X63705909Y-72992515D01*
X63699500Y-73052129D01*
X63699500Y-75147870D01*
X63705909Y-75207485D01*
X63705910Y-75207488D01*
X63756202Y-75342328D01*
X63756203Y-75342329D01*
X63756204Y-75342331D01*
X63842454Y-75457546D01*
X63927597Y-75521284D01*
X63957670Y-75543797D01*
X64025093Y-75568943D01*
X64092517Y-75594091D01*
X64152127Y-75600500D01*
X65847872Y-75600499D01*
X65907483Y-75594091D01*
X66042331Y-75543796D01*
X66157546Y-75457546D01*
X66243796Y-75342331D01*
X66294091Y-75207483D01*
X66300500Y-75147873D01*
X66300499Y-73052128D01*
X66294091Y-72992517D01*
X66243796Y-72857669D01*
X66157546Y-72742454D01*
X66157545Y-72742453D01*
X66157542Y-72742449D01*
X66152720Y-72737627D01*
X66085962Y-72644127D01*
X66053180Y-72534016D01*
X66050500Y-72490847D01*
X66050500Y-65712413D01*
X66050501Y-65712392D01*
X66050501Y-65488236D01*
X66050500Y-65488228D01*
X66016827Y-65318954D01*
X66016824Y-65318938D01*
X66010131Y-65285284D01*
X66010130Y-65285283D01*
X66010130Y-65285280D01*
X65968188Y-65184023D01*
X65930942Y-65094102D01*
X65815977Y-64922045D01*
X65815975Y-64922043D01*
X65815973Y-64922040D01*
X61790211Y-60896279D01*
X61723453Y-60802779D01*
X61690671Y-60692668D01*
X61695419Y-60577879D01*
X61737181Y-60470851D01*
X61811433Y-60383183D01*
X61910127Y-60324374D01*
X62022569Y-60300797D01*
X62036991Y-60300499D01*
X62147871Y-60300499D01*
X62147872Y-60300499D01*
X62207483Y-60294091D01*
X62342331Y-60243796D01*
X62457546Y-60157546D01*
X62543796Y-60042331D01*
X62594091Y-59907483D01*
X62600500Y-59847873D01*
X62600499Y-58152128D01*
X62594091Y-58092517D01*
X62594089Y-58092511D01*
X62543797Y-57957671D01*
X62543796Y-57957669D01*
X62457546Y-57842454D01*
X62388621Y-57790857D01*
X62342329Y-57756202D01*
X62207483Y-57705909D01*
X62207485Y-57705909D01*
X62177678Y-57702704D01*
X62147873Y-57699500D01*
X62147871Y-57699500D01*
X62036991Y-57699500D01*
X61923671Y-57680590D01*
X61822631Y-57625910D01*
X61744820Y-57541385D01*
X61698670Y-57436174D01*
X61689183Y-57321680D01*
X61717386Y-57210308D01*
X61780223Y-57114129D01*
X61790211Y-57103720D01*
X62099212Y-56794719D01*
X63189757Y-55704172D01*
X63189771Y-55704161D01*
X63355974Y-55537958D01*
X63355977Y-55537955D01*
X63470941Y-55365898D01*
X63550130Y-55174720D01*
X63590500Y-54971765D01*
X63590500Y-52697955D01*
X63609410Y-52584635D01*
X63664090Y-52483595D01*
X63748615Y-52405784D01*
X63853826Y-52359634D01*
X63968320Y-52350147D01*
X64079692Y-52378350D01*
X64175871Y-52441187D01*
X64229683Y-52504062D01*
X64264021Y-52555453D01*
X64264022Y-52555454D01*
X64264023Y-52555455D01*
X64410345Y-52701777D01*
X64410347Y-52701778D01*
X64422533Y-52713964D01*
X64422532Y-52713964D01*
X64422538Y-52713969D01*
X68307280Y-56598711D01*
X68374038Y-56692211D01*
X68406820Y-56802322D01*
X68409500Y-56845491D01*
X68409500Y-60783913D01*
X68390590Y-60897233D01*
X68335910Y-60998273D01*
X68324008Y-61011750D01*
X68324383Y-61012070D01*
X68315485Y-61022487D01*
X68176656Y-61213567D01*
X68176653Y-61213572D01*
X68069436Y-61423999D01*
X68069429Y-61424015D01*
X67996449Y-61648623D01*
X67996445Y-61648638D01*
X67959500Y-61881903D01*
X67959500Y-62118096D01*
X67996445Y-62351361D01*
X67996449Y-62351376D01*
X68069429Y-62575984D01*
X68069436Y-62576000D01*
X68176653Y-62786427D01*
X68176656Y-62786432D01*
X68176657Y-62786433D01*
X68315483Y-62977510D01*
X68482490Y-63144517D01*
X68619137Y-63243797D01*
X68673567Y-63283343D01*
X68673572Y-63283346D01*
X68757080Y-63325895D01*
X68884008Y-63390568D01*
X69108632Y-63463553D01*
X69108637Y-63463553D01*
X69108638Y-63463554D01*
X69153611Y-63470676D01*
X69341908Y-63500500D01*
X69341912Y-63500500D01*
X69578088Y-63500500D01*
X69578092Y-63500500D01*
X69811368Y-63463553D01*
X70035992Y-63390568D01*
X70104086Y-63355872D01*
X70138107Y-63338538D01*
X70247661Y-63303940D01*
X70296550Y-63300499D01*
X71147871Y-63300499D01*
X71147872Y-63300499D01*
X71207483Y-63294091D01*
X71342331Y-63243796D01*
X71457546Y-63157546D01*
X71543796Y-63042331D01*
X71550600Y-63024090D01*
X71567972Y-62977511D01*
X71594091Y-62907483D01*
X71600500Y-62847873D01*
X71600499Y-61347799D01*
X71619409Y-61234480D01*
X71674089Y-61133440D01*
X71758614Y-61055629D01*
X71863824Y-61009479D01*
X71949499Y-60998800D01*
X75227800Y-60998800D01*
X75341120Y-61017710D01*
X75442160Y-61072390D01*
X75519971Y-61156915D01*
X75566121Y-61262126D01*
X75576800Y-61347800D01*
X75576800Y-68389608D01*
X75557890Y-68502928D01*
X75503210Y-68603968D01*
X75474580Y-68636388D01*
X73896279Y-70214689D01*
X73802779Y-70281447D01*
X73692668Y-70314229D01*
X73577879Y-70309481D01*
X73470851Y-70267719D01*
X73383183Y-70193467D01*
X73324374Y-70094773D01*
X73300797Y-69982331D01*
X73300499Y-69967909D01*
X73300499Y-69852129D01*
X73300499Y-69852127D01*
X73294091Y-69792517D01*
X73243796Y-69657669D01*
X73157546Y-69542454D01*
X73088621Y-69490857D01*
X73042329Y-69456202D01*
X72907483Y-69405909D01*
X72907485Y-69405909D01*
X72883639Y-69403345D01*
X72847873Y-69399500D01*
X72847870Y-69399500D01*
X71152129Y-69399500D01*
X71092514Y-69405909D01*
X71092511Y-69405910D01*
X70957671Y-69456202D01*
X70842454Y-69542454D01*
X70756202Y-69657670D01*
X70705909Y-69792515D01*
X70699500Y-69852129D01*
X70699500Y-71947870D01*
X70705909Y-72007485D01*
X70705910Y-72007488D01*
X70756202Y-72142329D01*
X70760350Y-72147870D01*
X70842454Y-72257546D01*
X70842455Y-72257547D01*
X70842457Y-72257549D01*
X70847280Y-72262372D01*
X70914038Y-72355872D01*
X70946820Y-72465983D01*
X70949500Y-72509152D01*
X70949500Y-73055165D01*
X70989870Y-73258120D01*
X71000627Y-73284089D01*
X71069059Y-73449299D01*
X71184025Y-73621358D01*
X71330341Y-73767674D01*
X71330344Y-73767676D01*
X71330345Y-73767677D01*
X71502402Y-73882641D01*
X71502403Y-73882641D01*
X71502404Y-73882642D01*
X71515016Y-73889384D01*
X71606042Y-73959479D01*
X71669375Y-74055332D01*
X71698154Y-74166556D01*
X71699500Y-74197175D01*
X71699500Y-76147870D01*
X71705909Y-76207485D01*
X71705910Y-76207488D01*
X71756202Y-76342328D01*
X71756203Y-76342329D01*
X71756204Y-76342331D01*
X71842454Y-76457546D01*
X71857412Y-76477527D01*
X71855592Y-76478888D01*
X71901873Y-76543708D01*
X71934655Y-76653819D01*
X71929907Y-76768608D01*
X71888145Y-76875636D01*
X71813893Y-76963304D01*
X71749922Y-77006327D01*
X71646596Y-77060300D01*
X71646592Y-77060302D01*
X71488890Y-77188890D01*
X71360302Y-77346592D01*
X71360300Y-77346595D01*
X71266091Y-77526948D01*
X71211540Y-77717599D01*
X71210114Y-77722582D01*
X71199500Y-77841963D01*
X71199500Y-77841967D01*
X71199500Y-79958031D01*
X71199501Y-79958039D01*
X71210113Y-80077415D01*
X71266090Y-80273049D01*
X71359840Y-80452522D01*
X71395546Y-80561719D01*
X71399500Y-80614108D01*
X71399500Y-87192490D01*
X71380590Y-87305810D01*
X71325910Y-87406850D01*
X71297280Y-87439270D01*
X66572215Y-92164334D01*
X66478715Y-92231092D01*
X66368604Y-92263874D01*
X66286363Y-92264360D01*
X66154466Y-92249500D01*
X66154465Y-92249500D01*
X65845535Y-92249500D01*
X65538548Y-92284089D01*
X65538545Y-92284089D01*
X65538542Y-92284090D01*
X65237370Y-92352830D01*
X65237353Y-92352835D01*
X64945775Y-92454863D01*
X64945755Y-92454871D01*
X64667450Y-92588897D01*
X64667428Y-92588909D01*
X64405859Y-92753263D01*
X64405854Y-92753267D01*
X64164332Y-92945874D01*
X64164324Y-92945881D01*
X63945881Y-93164324D01*
X63945874Y-93164332D01*
X63753267Y-93405854D01*
X63753263Y-93405859D01*
X63588909Y-93667428D01*
X63588897Y-93667450D01*
X63454871Y-93945755D01*
X63454863Y-93945775D01*
X63352835Y-94237353D01*
X63352830Y-94237370D01*
X63285049Y-94534342D01*
X63284089Y-94538548D01*
X63249500Y-94845535D01*
X63249500Y-95154465D01*
X63284089Y-95461452D01*
X63284090Y-95461457D01*
X63352830Y-95762629D01*
X63352835Y-95762646D01*
X63454863Y-96054224D01*
X63454871Y-96054244D01*
X63550638Y-96253104D01*
X63588905Y-96332565D01*
X63600457Y-96350950D01*
X63753263Y-96594140D01*
X63753267Y-96594145D01*
X63945874Y-96835667D01*
X63952398Y-96842967D01*
X63950470Y-96844689D01*
X64006184Y-96922720D01*
X64038966Y-97032831D01*
X64034218Y-97147620D01*
X63992456Y-97254648D01*
X63918204Y-97342316D01*
X63819510Y-97401125D01*
X63707068Y-97424702D01*
X63692646Y-97425000D01*
X30924000Y-97425000D01*
X30810680Y-97406090D01*
X30709640Y-97351410D01*
X30631829Y-97266885D01*
X30585679Y-97161674D01*
X30575000Y-97076000D01*
X30575000Y-94372158D01*
X31549500Y-94372158D01*
X31549500Y-94627841D01*
X31582872Y-94881329D01*
X31582875Y-94881346D01*
X31649050Y-95128313D01*
X31649050Y-95128315D01*
X31659882Y-95154465D01*
X31746896Y-95364535D01*
X31746897Y-95364536D01*
X31874738Y-95585964D01*
X31874739Y-95585966D01*
X31961833Y-95699468D01*
X32030390Y-95788813D01*
X32030396Y-95788819D01*
X32030401Y-95788825D01*
X32211174Y-95969598D01*
X32211180Y-95969603D01*
X32211187Y-95969610D01*
X32321484Y-96054244D01*
X32414033Y-96125260D01*
X32414035Y-96125261D01*
X32635465Y-96253104D01*
X32871687Y-96350950D01*
X33118660Y-96417126D01*
X33372157Y-96450500D01*
X33372159Y-96450500D01*
X33627841Y-96450500D01*
X33627843Y-96450500D01*
X33881340Y-96417126D01*
X34128313Y-96350950D01*
X34364535Y-96253104D01*
X34585965Y-96125261D01*
X34788813Y-95969610D01*
X34969610Y-95788813D01*
X35125261Y-95585965D01*
X35253104Y-95364535D01*
X35350950Y-95128313D01*
X35417126Y-94881340D01*
X35450500Y-94627843D01*
X35450500Y-94372157D01*
X35417126Y-94118660D01*
X35350950Y-93871687D01*
X35253104Y-93635465D01*
X35125261Y-93414035D01*
X35125260Y-93414033D01*
X35064574Y-93334947D01*
X34969610Y-93211187D01*
X34969603Y-93211180D01*
X34969598Y-93211174D01*
X34788825Y-93030401D01*
X34788819Y-93030396D01*
X34788813Y-93030390D01*
X34678670Y-92945874D01*
X34585966Y-92874739D01*
X34585964Y-92874738D01*
X34475250Y-92810817D01*
X34364535Y-92746896D01*
X34364529Y-92746893D01*
X34364524Y-92746891D01*
X34128314Y-92649050D01*
X33881346Y-92582875D01*
X33881329Y-92582872D01*
X33709726Y-92560280D01*
X33627843Y-92549500D01*
X33372157Y-92549500D01*
X33301660Y-92558781D01*
X33118670Y-92582872D01*
X33118653Y-92582875D01*
X32871686Y-92649050D01*
X32871684Y-92649050D01*
X32635475Y-92746891D01*
X32635463Y-92746897D01*
X32414035Y-92874738D01*
X32414033Y-92874739D01*
X32211192Y-93030386D01*
X32211174Y-93030401D01*
X32030401Y-93211174D01*
X32030386Y-93211192D01*
X31874739Y-93414033D01*
X31874738Y-93414035D01*
X31746897Y-93635463D01*
X31746891Y-93635475D01*
X31649050Y-93871684D01*
X31649050Y-93871686D01*
X31582875Y-94118653D01*
X31582872Y-94118670D01*
X31549500Y-94372158D01*
X30575000Y-94372158D01*
X30575000Y-69004453D01*
X32044198Y-69004453D01*
X32044198Y-69035106D01*
X32044198Y-69199950D01*
X32044199Y-69199975D01*
X32044199Y-81722753D01*
X32044198Y-81722783D01*
X32044198Y-81916247D01*
X32072528Y-82095109D01*
X32128484Y-82267329D01*
X32128490Y-82267343D01*
X32210695Y-82428680D01*
X32210699Y-82428687D01*
X32210703Y-82428694D01*
X32317146Y-82575201D01*
X32317149Y-82575204D01*
X32457381Y-82715436D01*
X32457391Y-82715445D01*
X35699494Y-85957547D01*
X35699495Y-85957547D01*
X35699500Y-85957552D01*
X35846006Y-86063996D01*
X35846012Y-86064000D01*
X35852017Y-86067680D01*
X35916443Y-86118470D01*
X36022490Y-86224517D01*
X36213567Y-86363343D01*
X36213572Y-86363346D01*
X36323411Y-86419311D01*
X36424008Y-86470568D01*
X36648632Y-86543553D01*
X36759858Y-86561169D01*
X36868819Y-86597571D01*
X36952038Y-86659091D01*
X41883682Y-91590735D01*
X41883689Y-91590743D01*
X41892447Y-91599501D01*
X42020499Y-91727553D01*
X42167006Y-91833996D01*
X42167015Y-91834000D01*
X42167019Y-91834003D01*
X42240265Y-91871323D01*
X42328361Y-91916211D01*
X42500591Y-91972171D01*
X42679453Y-92000501D01*
X42679455Y-92000501D01*
X42874951Y-92000501D01*
X42874975Y-92000500D01*
X61636425Y-92000500D01*
X61636449Y-92000501D01*
X61650854Y-92000501D01*
X61831943Y-92000501D01*
X61831946Y-92000501D01*
X62010809Y-91972171D01*
X62183039Y-91916211D01*
X62344394Y-91833996D01*
X62344395Y-91833995D01*
X62490901Y-91727553D01*
X62618953Y-91599501D01*
X62638837Y-91579617D01*
X62638848Y-91579603D01*
X65957552Y-88260901D01*
X65992644Y-88212599D01*
X66048343Y-88152346D01*
X66057496Y-88144526D01*
X66057510Y-88144517D01*
X66224517Y-87977510D01*
X66363343Y-87786433D01*
X66470568Y-87575992D01*
X66543553Y-87351368D01*
X66580500Y-87118092D01*
X66580500Y-86881908D01*
X66543553Y-86648632D01*
X66470568Y-86424008D01*
X66419311Y-86323411D01*
X66363346Y-86213572D01*
X66363343Y-86213567D01*
X66349999Y-86195201D01*
X66224517Y-86022490D01*
X66057510Y-85855483D01*
X65866433Y-85716657D01*
X65866434Y-85716657D01*
X65866432Y-85716656D01*
X65866427Y-85716653D01*
X65656000Y-85609436D01*
X65655998Y-85609435D01*
X65655992Y-85609432D01*
X65655987Y-85609430D01*
X65655984Y-85609429D01*
X65431376Y-85536449D01*
X65431361Y-85536445D01*
X65198096Y-85499500D01*
X65198092Y-85499500D01*
X64961908Y-85499500D01*
X64961903Y-85499500D01*
X64728638Y-85536445D01*
X64728623Y-85536449D01*
X64504015Y-85609429D01*
X64503999Y-85609436D01*
X64293572Y-85716653D01*
X64293567Y-85716656D01*
X64102488Y-85855484D01*
X63935484Y-86022488D01*
X63796656Y-86213567D01*
X63796653Y-86213572D01*
X63689436Y-86423999D01*
X63689429Y-86424015D01*
X63616449Y-86648623D01*
X63616445Y-86648638D01*
X63579500Y-86881903D01*
X63579500Y-87118098D01*
X63588155Y-87172739D01*
X63587205Y-87287622D01*
X63549004Y-87395972D01*
X63490232Y-87474113D01*
X61367067Y-89597280D01*
X61273567Y-89664038D01*
X61163456Y-89696820D01*
X61120287Y-89699500D01*
X43391113Y-89699500D01*
X43277793Y-89680590D01*
X43176753Y-89625910D01*
X43144333Y-89597280D01*
X40428956Y-86881903D01*
X58499500Y-86881903D01*
X58499500Y-87118096D01*
X58536445Y-87351361D01*
X58536449Y-87351376D01*
X58609429Y-87575984D01*
X58609436Y-87576000D01*
X58716653Y-87786427D01*
X58716656Y-87786432D01*
X58716657Y-87786433D01*
X58855483Y-87977510D01*
X59022490Y-88144517D01*
X59188667Y-88265252D01*
X59213567Y-88283343D01*
X59213572Y-88283346D01*
X59313519Y-88334271D01*
X59424008Y-88390568D01*
X59648632Y-88463553D01*
X59881908Y-88500500D01*
X59881912Y-88500500D01*
X60118088Y-88500500D01*
X60118092Y-88500500D01*
X60351368Y-88463553D01*
X60575992Y-88390568D01*
X60786433Y-88283343D01*
X60977510Y-88144517D01*
X61144517Y-87977510D01*
X61283343Y-87786433D01*
X61390568Y-87575992D01*
X61463553Y-87351368D01*
X61500500Y-87118092D01*
X61500500Y-86881908D01*
X61463553Y-86648632D01*
X61390568Y-86424008D01*
X61339311Y-86323411D01*
X61283346Y-86213572D01*
X61283343Y-86213567D01*
X61269999Y-86195201D01*
X61144517Y-86022490D01*
X61144514Y-86022487D01*
X61135617Y-86012070D01*
X61137981Y-86010050D01*
X61085962Y-85937193D01*
X61053180Y-85827082D01*
X61050500Y-85783913D01*
X61050500Y-81627991D01*
X61069410Y-81514671D01*
X61124090Y-81413631D01*
X61152720Y-81381211D01*
X62301610Y-80232321D01*
X63315317Y-79218614D01*
X63408814Y-79151859D01*
X63518925Y-79119077D01*
X63633714Y-79123825D01*
X63740742Y-79165587D01*
X63828410Y-79239839D01*
X63841483Y-79256249D01*
X63842453Y-79257545D01*
X63957670Y-79343797D01*
X64025093Y-79368943D01*
X64092517Y-79394091D01*
X64152127Y-79400500D01*
X65847872Y-79400499D01*
X65907483Y-79394091D01*
X66042331Y-79343796D01*
X66157546Y-79257546D01*
X66243796Y-79142331D01*
X66294091Y-79007483D01*
X66300500Y-78947873D01*
X66300499Y-76852128D01*
X66294091Y-76792517D01*
X66243796Y-76657669D01*
X66157546Y-76542454D01*
X66072633Y-76478888D01*
X66042329Y-76456202D01*
X65907483Y-76405909D01*
X65907485Y-76405909D01*
X65883639Y-76403345D01*
X65847873Y-76399500D01*
X65847870Y-76399500D01*
X64152129Y-76399500D01*
X64092514Y-76405909D01*
X64092511Y-76405910D01*
X63957671Y-76456202D01*
X63842454Y-76542454D01*
X63756202Y-76657671D01*
X63750696Y-76667756D01*
X63679791Y-76758153D01*
X63583376Y-76820629D01*
X63471900Y-76848414D01*
X63444385Y-76849500D01*
X63269013Y-76849500D01*
X63268993Y-76849499D01*
X63251766Y-76849499D01*
X63044835Y-76849499D01*
X63044831Y-76849499D01*
X62875553Y-76883171D01*
X62875553Y-76883172D01*
X62841880Y-76889870D01*
X62841879Y-76889870D01*
X62841876Y-76889871D01*
X62820903Y-76898558D01*
X62818629Y-76899501D01*
X62664594Y-76963304D01*
X62650702Y-76969058D01*
X62478640Y-77084026D01*
X59330347Y-80232321D01*
X59330344Y-80232324D01*
X59184025Y-80378641D01*
X59069059Y-80550700D01*
X58989870Y-80741880D01*
X58949500Y-80944834D01*
X58949500Y-85783913D01*
X58930590Y-85897233D01*
X58875910Y-85998273D01*
X58864008Y-86011750D01*
X58864383Y-86012070D01*
X58855485Y-86022487D01*
X58716656Y-86213567D01*
X58716653Y-86213572D01*
X58609436Y-86423999D01*
X58609429Y-86424015D01*
X58536449Y-86648623D01*
X58536445Y-86648638D01*
X58499500Y-86881903D01*
X40428956Y-86881903D01*
X38579091Y-85032038D01*
X38512333Y-84938538D01*
X38481169Y-84839858D01*
X38463553Y-84728632D01*
X38390568Y-84504008D01*
X38283343Y-84293567D01*
X38144517Y-84102490D01*
X37977510Y-83935483D01*
X37786433Y-83796657D01*
X37786434Y-83796657D01*
X37786432Y-83796656D01*
X37786427Y-83796653D01*
X37576000Y-83689436D01*
X37575998Y-83689435D01*
X37575992Y-83689432D01*
X37575987Y-83689430D01*
X37575984Y-83689429D01*
X37351376Y-83616449D01*
X37351361Y-83616445D01*
X37118096Y-83579500D01*
X37118092Y-83579500D01*
X36881908Y-83579500D01*
X36808217Y-83591171D01*
X36793072Y-83593570D01*
X36678189Y-83592619D01*
X36569839Y-83554417D01*
X36491699Y-83495646D01*
X34447419Y-81451366D01*
X34380661Y-81357866D01*
X34347879Y-81247755D01*
X34345199Y-81204586D01*
X34345199Y-79881903D01*
X35499500Y-79881903D01*
X35499500Y-80118096D01*
X35536445Y-80351361D01*
X35536449Y-80351376D01*
X35609429Y-80575984D01*
X35609436Y-80576000D01*
X35716653Y-80786427D01*
X35716656Y-80786432D01*
X35716657Y-80786433D01*
X35855483Y-80977510D01*
X36022490Y-81144517D01*
X36166985Y-81249499D01*
X36213567Y-81283343D01*
X36213572Y-81283346D01*
X36323411Y-81339311D01*
X36424008Y-81390568D01*
X36648632Y-81463553D01*
X36881908Y-81500500D01*
X36881912Y-81500500D01*
X37118088Y-81500500D01*
X37118092Y-81500500D01*
X37351368Y-81463553D01*
X37575992Y-81390568D01*
X37786433Y-81283343D01*
X37977510Y-81144517D01*
X38144517Y-80977510D01*
X38283343Y-80786433D01*
X38390568Y-80575992D01*
X38463553Y-80351368D01*
X38500500Y-80118092D01*
X38500500Y-80118083D01*
X38501576Y-80104418D01*
X38504676Y-80104662D01*
X38519410Y-80016371D01*
X38574090Y-79915331D01*
X38602720Y-79882911D01*
X42432911Y-76052720D01*
X42526411Y-75985962D01*
X42636522Y-75953180D01*
X42679691Y-75950500D01*
X48444385Y-75950500D01*
X48557705Y-75969410D01*
X48658745Y-76024090D01*
X48736556Y-76108615D01*
X48750696Y-76132244D01*
X48756202Y-76142328D01*
X48756203Y-76142329D01*
X48756204Y-76142331D01*
X48842454Y-76257546D01*
X48934523Y-76326469D01*
X48957670Y-76343797D01*
X49025093Y-76368943D01*
X49092517Y-76394091D01*
X49152127Y-76400500D01*
X50847872Y-76400499D01*
X50907483Y-76394091D01*
X51042331Y-76343796D01*
X51157546Y-76257546D01*
X51243796Y-76142331D01*
X51294091Y-76007483D01*
X51300500Y-75947873D01*
X51300499Y-73852128D01*
X51294091Y-73792517D01*
X51294089Y-73792511D01*
X51243797Y-73657671D01*
X51242699Y-73656204D01*
X51157546Y-73542454D01*
X51088621Y-73490857D01*
X51042329Y-73456202D01*
X50907483Y-73405909D01*
X50907485Y-73405909D01*
X50883639Y-73403345D01*
X50847873Y-73399500D01*
X50847870Y-73399500D01*
X49152129Y-73399500D01*
X49092514Y-73405909D01*
X49092511Y-73405910D01*
X48957671Y-73456202D01*
X48842454Y-73542454D01*
X48756202Y-73657671D01*
X48750696Y-73667756D01*
X48679791Y-73758153D01*
X48583376Y-73820629D01*
X48471900Y-73848414D01*
X48444385Y-73849500D01*
X41996535Y-73849500D01*
X41793580Y-73889870D01*
X41602400Y-73969059D01*
X41430341Y-74084025D01*
X41317193Y-74197175D01*
X41284023Y-74230345D01*
X41284020Y-74230348D01*
X39170572Y-76343797D01*
X37117089Y-78397280D01*
X37023589Y-78464038D01*
X36913478Y-78496820D01*
X36895543Y-78497933D01*
X36895582Y-78498424D01*
X36881903Y-78499500D01*
X36648638Y-78536445D01*
X36648623Y-78536449D01*
X36424015Y-78609429D01*
X36423999Y-78609436D01*
X36213572Y-78716653D01*
X36213567Y-78716656D01*
X36022488Y-78855484D01*
X35855484Y-79022488D01*
X35716656Y-79213567D01*
X35716653Y-79213572D01*
X35609436Y-79423999D01*
X35609429Y-79424015D01*
X35536449Y-79648623D01*
X35536445Y-79648638D01*
X35499500Y-79881903D01*
X34345199Y-79881903D01*
X34345199Y-69716112D01*
X34364109Y-69602792D01*
X34418789Y-69501752D01*
X34447410Y-69469340D01*
X35472535Y-68444216D01*
X35566034Y-68377461D01*
X35676145Y-68344680D01*
X35719313Y-68342000D01*
X36791525Y-68342000D01*
X36791549Y-68342001D01*
X36805954Y-68342001D01*
X36987043Y-68342001D01*
X36987046Y-68342001D01*
X37165909Y-68313671D01*
X37338139Y-68257711D01*
X37499494Y-68175496D01*
X37527477Y-68155165D01*
X37646001Y-68069053D01*
X37774053Y-67941001D01*
X37793937Y-67921117D01*
X37793948Y-67921103D01*
X39417552Y-66297501D01*
X39523996Y-66150994D01*
X39523996Y-66150993D01*
X39532057Y-66139899D01*
X39532688Y-66140357D01*
X39573724Y-66088302D01*
X39621027Y-66041000D01*
X39684517Y-65977510D01*
X39823343Y-65786433D01*
X39930568Y-65575992D01*
X40003553Y-65351368D01*
X40040500Y-65118092D01*
X40040500Y-64881908D01*
X40003553Y-64648632D01*
X39930568Y-64424008D01*
X39823343Y-64213567D01*
X39684517Y-64022490D01*
X39517510Y-63855483D01*
X39326433Y-63716657D01*
X39326434Y-63716657D01*
X39326432Y-63716656D01*
X39326427Y-63716653D01*
X39116000Y-63609436D01*
X39115998Y-63609435D01*
X39115992Y-63609432D01*
X39115987Y-63609430D01*
X39115984Y-63609429D01*
X38891376Y-63536449D01*
X38891361Y-63536445D01*
X38658096Y-63499500D01*
X38658092Y-63499500D01*
X38421908Y-63499500D01*
X38421903Y-63499500D01*
X38188638Y-63536445D01*
X38188623Y-63536449D01*
X37964015Y-63609429D01*
X37963999Y-63609436D01*
X37753572Y-63716653D01*
X37753567Y-63716656D01*
X37562488Y-63855484D01*
X37395484Y-64022488D01*
X37256656Y-64213567D01*
X37256653Y-64213572D01*
X37149436Y-64423999D01*
X37149429Y-64424015D01*
X37076449Y-64648623D01*
X37076445Y-64648638D01*
X37039500Y-64881903D01*
X37039500Y-65118098D01*
X37053159Y-65204335D01*
X37052209Y-65319218D01*
X37014008Y-65427568D01*
X36955236Y-65505709D01*
X36522163Y-65938782D01*
X36428667Y-66005538D01*
X36318557Y-66038320D01*
X36275387Y-66041000D01*
X35719312Y-66041000D01*
X35605992Y-66022090D01*
X35504952Y-65967410D01*
X35472541Y-65938788D01*
X35098616Y-65564864D01*
X35031861Y-65471366D01*
X34999080Y-65361255D01*
X34996400Y-65318087D01*
X34996400Y-64696513D01*
X35015310Y-64583193D01*
X35069990Y-64482153D01*
X35098620Y-64449733D01*
X56178133Y-43370220D01*
X56271633Y-43303462D01*
X56381744Y-43270680D01*
X56424913Y-43268000D01*
X72710987Y-43268000D01*
X72824307Y-43286910D01*
X72925347Y-43341590D01*
X72957767Y-43370220D01*
X84517280Y-54929733D01*
X84584038Y-55023233D01*
X84616820Y-55133344D01*
X84619500Y-55176513D01*
X84619500Y-77667053D01*
X84619499Y-77667083D01*
X84619499Y-77860546D01*
X84642136Y-78003465D01*
X84647829Y-78039408D01*
X84647830Y-78039413D01*
X84703785Y-78211629D01*
X84703791Y-78211643D01*
X84785996Y-78372980D01*
X84786000Y-78372987D01*
X84786004Y-78372994D01*
X84892447Y-78519501D01*
X84892450Y-78519504D01*
X85032682Y-78659736D01*
X85032692Y-78659745D01*
X93420908Y-87047961D01*
X93487666Y-87141461D01*
X93518831Y-87240145D01*
X93536446Y-87351363D01*
X93536449Y-87351376D01*
X93609429Y-87575984D01*
X93609436Y-87576000D01*
X93716653Y-87786427D01*
X93716656Y-87786432D01*
X93716657Y-87786433D01*
X93855483Y-87977510D01*
X94022490Y-88144517D01*
X94188667Y-88265252D01*
X94213567Y-88283343D01*
X94213572Y-88283346D01*
X94313519Y-88334271D01*
X94424008Y-88390568D01*
X94648632Y-88463553D01*
X94881908Y-88500500D01*
X94881912Y-88500500D01*
X95118088Y-88500500D01*
X95118092Y-88500500D01*
X95351368Y-88463553D01*
X95575992Y-88390568D01*
X95786433Y-88283343D01*
X95977510Y-88144517D01*
X96023220Y-88098807D01*
X96116720Y-88032049D01*
X96226831Y-87999267D01*
X96341620Y-88004015D01*
X96448648Y-88045777D01*
X96516780Y-88098807D01*
X96562490Y-88144517D01*
X96728667Y-88265252D01*
X96753567Y-88283343D01*
X96753572Y-88283346D01*
X96853519Y-88334271D01*
X96964008Y-88390568D01*
X97188632Y-88463553D01*
X97421908Y-88500500D01*
X97421912Y-88500500D01*
X97658088Y-88500500D01*
X97658092Y-88500500D01*
X97891368Y-88463553D01*
X98115992Y-88390568D01*
X98326433Y-88283343D01*
X98517510Y-88144517D01*
X98684517Y-87977510D01*
X98823343Y-87786433D01*
X98930568Y-87575992D01*
X99003553Y-87351368D01*
X99040500Y-87118092D01*
X99040500Y-86881908D01*
X99003553Y-86648632D01*
X98930568Y-86424008D01*
X98879311Y-86323411D01*
X98823346Y-86213572D01*
X98823343Y-86213567D01*
X98809999Y-86195201D01*
X98684517Y-86022490D01*
X98597533Y-85935506D01*
X98530776Y-85842005D01*
X98497995Y-85731894D01*
X98496309Y-85715049D01*
X98488320Y-85609432D01*
X97988968Y-79007488D01*
X97903194Y-77873473D01*
X97902200Y-77847151D01*
X97902200Y-77796540D01*
X97902200Y-77796535D01*
X97898531Y-77778094D01*
X97892821Y-77736344D01*
X97891404Y-77717599D01*
X97891401Y-77717588D01*
X97877814Y-77668843D01*
X97871708Y-77643245D01*
X97861830Y-77593580D01*
X97854636Y-77576213D01*
X97840887Y-77536368D01*
X97835842Y-77518267D01*
X97812996Y-77473091D01*
X97802010Y-77449163D01*
X97782641Y-77402402D01*
X97772198Y-77386772D01*
X97750944Y-77350382D01*
X97742461Y-77333608D01*
X97742457Y-77333602D01*
X97711248Y-77293765D01*
X97695796Y-77272428D01*
X97667680Y-77230350D01*
X97667677Y-77230345D01*
X97667672Y-77230340D01*
X97667668Y-77230335D01*
X97654387Y-77217054D01*
X97626434Y-77185501D01*
X97614850Y-77170715D01*
X97614846Y-77170710D01*
X97576455Y-77137718D01*
X97557152Y-77119820D01*
X97521355Y-77084023D01*
X97505728Y-77073581D01*
X97472157Y-77048088D01*
X97457903Y-77035838D01*
X97413812Y-77010969D01*
X97391381Y-76997177D01*
X97349298Y-76969059D01*
X97331926Y-76961863D01*
X97294035Y-76943413D01*
X97277666Y-76934180D01*
X97229582Y-76918395D01*
X97204879Y-76909238D01*
X97158122Y-76889870D01*
X97139686Y-76886203D01*
X97098921Y-76875499D01*
X97081064Y-76869637D01*
X97081061Y-76869636D01*
X97081060Y-76869635D01*
X97081057Y-76869635D01*
X97030806Y-76863532D01*
X97004809Y-76859374D01*
X96999269Y-76858272D01*
X96955165Y-76849500D01*
X96955163Y-76849500D01*
X96936366Y-76849500D01*
X96894306Y-76846955D01*
X96875640Y-76844689D01*
X96875636Y-76844689D01*
X96875635Y-76844689D01*
X96825176Y-76848506D01*
X96798854Y-76849500D01*
X96555615Y-76849500D01*
X96442295Y-76830590D01*
X96341255Y-76775910D01*
X96263444Y-76691385D01*
X96249304Y-76667756D01*
X96243797Y-76657671D01*
X96243796Y-76657669D01*
X96157546Y-76542454D01*
X96072633Y-76478888D01*
X96042329Y-76456202D01*
X95907483Y-76405909D01*
X95907485Y-76405909D01*
X95883639Y-76403345D01*
X95847873Y-76399500D01*
X95847870Y-76399500D01*
X94152129Y-76399500D01*
X94092514Y-76405909D01*
X94092511Y-76405910D01*
X93957671Y-76456202D01*
X93842454Y-76542454D01*
X93756202Y-76657670D01*
X93705909Y-76792515D01*
X93705909Y-76792517D01*
X93699783Y-76849500D01*
X93699500Y-76852129D01*
X93699500Y-78947870D01*
X93705909Y-79007485D01*
X93705910Y-79007488D01*
X93756202Y-79142328D01*
X93756203Y-79142329D01*
X93756204Y-79142331D01*
X93842454Y-79257546D01*
X93934523Y-79326469D01*
X93957670Y-79343797D01*
X94025093Y-79368943D01*
X94092517Y-79394091D01*
X94152127Y-79400500D01*
X95588093Y-79400499D01*
X95701413Y-79419409D01*
X95802453Y-79474089D01*
X95880264Y-79558614D01*
X95926414Y-79663824D01*
X95936099Y-79723177D01*
X96367625Y-85428366D01*
X96357316Y-85542789D01*
X96310412Y-85647666D01*
X96231996Y-85731630D01*
X96130566Y-85785583D01*
X96017113Y-85803679D01*
X95903932Y-85783956D01*
X95814483Y-85737036D01*
X95786437Y-85716659D01*
X95786427Y-85716653D01*
X95576000Y-85609436D01*
X95575998Y-85609435D01*
X95575992Y-85609432D01*
X95575987Y-85609430D01*
X95575984Y-85609429D01*
X95351376Y-85536449D01*
X95351369Y-85536447D01*
X95351368Y-85536447D01*
X95351365Y-85536446D01*
X95351363Y-85536446D01*
X95240145Y-85518831D01*
X95131179Y-85482427D01*
X95047961Y-85420908D01*
X87022720Y-77395667D01*
X86955962Y-77302167D01*
X86923180Y-77192056D01*
X86920500Y-77148887D01*
X86920500Y-54660376D01*
X86920501Y-54660351D01*
X86920501Y-54464857D01*
X86920501Y-54464854D01*
X86892171Y-54285991D01*
X86836211Y-54113761D01*
X86753996Y-53952406D01*
X86753994Y-53952403D01*
X86738402Y-53930942D01*
X86738402Y-53930943D01*
X86738401Y-53930941D01*
X86647553Y-53805899D01*
X86519501Y-53677847D01*
X86510750Y-53669096D01*
X86510735Y-53669082D01*
X78723556Y-45881903D01*
X91499500Y-45881903D01*
X91499500Y-46118096D01*
X91536445Y-46351361D01*
X91536449Y-46351376D01*
X91609429Y-46575984D01*
X91609431Y-46575990D01*
X91609436Y-46576000D01*
X91716653Y-46786427D01*
X91716656Y-46786432D01*
X91762932Y-46850125D01*
X91855483Y-46977510D01*
X91855485Y-46977512D01*
X91864383Y-46987930D01*
X91862018Y-46989949D01*
X91914038Y-47062807D01*
X91946820Y-47172918D01*
X91949500Y-47216087D01*
X91949500Y-56591765D01*
X91989870Y-56794720D01*
X92010900Y-56845491D01*
X92069059Y-56985899D01*
X92184025Y-57157958D01*
X92350231Y-57324164D01*
X92350245Y-57324176D01*
X93307280Y-58281211D01*
X93374038Y-58374711D01*
X93406820Y-58484822D01*
X93409500Y-58527991D01*
X93409500Y-58783913D01*
X93390590Y-58897233D01*
X93335910Y-58998273D01*
X93324008Y-59011750D01*
X93324383Y-59012070D01*
X93315485Y-59022487D01*
X93176656Y-59213567D01*
X93176653Y-59213572D01*
X93069436Y-59423999D01*
X93069429Y-59424015D01*
X92996449Y-59648623D01*
X92996445Y-59648638D01*
X92959500Y-59881903D01*
X92959500Y-60118096D01*
X92996445Y-60351361D01*
X92996449Y-60351376D01*
X93069429Y-60575984D01*
X93069436Y-60576000D01*
X93176653Y-60786427D01*
X93176656Y-60786432D01*
X93176657Y-60786433D01*
X93315483Y-60977510D01*
X93315485Y-60977512D01*
X93324383Y-60987930D01*
X93322018Y-60989949D01*
X93374038Y-61062807D01*
X93406820Y-61172918D01*
X93409500Y-61216087D01*
X93409500Y-62155165D01*
X93449870Y-62358119D01*
X93529059Y-62549299D01*
X93640429Y-62715976D01*
X93644023Y-62721355D01*
X93790345Y-62867677D01*
X93790348Y-62867679D01*
X93794390Y-62870380D01*
X93799566Y-62875244D01*
X93803601Y-62878556D01*
X93803378Y-62878827D01*
X93878108Y-62949059D01*
X93931742Y-63050658D01*
X93949500Y-63160565D01*
X93949500Y-72490847D01*
X93930590Y-72604167D01*
X93875910Y-72705207D01*
X93847280Y-72737627D01*
X93842457Y-72742449D01*
X93756202Y-72857670D01*
X93705909Y-72992515D01*
X93699500Y-73052129D01*
X93699500Y-75147870D01*
X93705909Y-75207485D01*
X93705910Y-75207488D01*
X93756202Y-75342328D01*
X93756203Y-75342329D01*
X93756204Y-75342331D01*
X93842454Y-75457546D01*
X93927597Y-75521284D01*
X93957670Y-75543797D01*
X94025093Y-75568943D01*
X94092517Y-75594091D01*
X94152127Y-75600500D01*
X95847872Y-75600499D01*
X95907483Y-75594091D01*
X96042331Y-75543796D01*
X96157546Y-75457546D01*
X96243796Y-75342331D01*
X96294091Y-75207483D01*
X96300500Y-75147873D01*
X96300499Y-73052128D01*
X96294091Y-72992517D01*
X96243796Y-72857669D01*
X96157546Y-72742454D01*
X96157545Y-72742453D01*
X96157542Y-72742449D01*
X96152720Y-72737627D01*
X96085962Y-72644127D01*
X96053180Y-72534016D01*
X96050500Y-72490847D01*
X96050500Y-62488234D01*
X96043802Y-62454561D01*
X96010130Y-62285280D01*
X95930941Y-62094102D01*
X95815977Y-61922045D01*
X95815976Y-61922044D01*
X95815974Y-61922041D01*
X95790212Y-61896279D01*
X95723454Y-61802779D01*
X95690672Y-61692668D01*
X95695420Y-61577879D01*
X95737182Y-61470851D01*
X95811434Y-61383183D01*
X95910128Y-61324374D01*
X96022570Y-61300797D01*
X96036992Y-61300499D01*
X96147871Y-61300499D01*
X96147872Y-61300499D01*
X96207483Y-61294091D01*
X96342331Y-61243796D01*
X96457546Y-61157546D01*
X96543796Y-61042331D01*
X96594091Y-60907483D01*
X96600500Y-60847873D01*
X96600499Y-59152128D01*
X96594091Y-59092517D01*
X96563967Y-59011750D01*
X96543797Y-58957671D01*
X96543796Y-58957669D01*
X96457546Y-58842454D01*
X96388621Y-58790857D01*
X96342329Y-58756202D01*
X96207483Y-58705909D01*
X96207485Y-58705909D01*
X96177678Y-58702704D01*
X96147873Y-58699500D01*
X96147871Y-58699500D01*
X95859500Y-58699500D01*
X95746180Y-58680590D01*
X95645140Y-58625910D01*
X95567329Y-58541385D01*
X95521179Y-58436174D01*
X95510500Y-58350500D01*
X95510500Y-58069012D01*
X95510501Y-58068991D01*
X95510501Y-57844838D01*
X95510500Y-57844831D01*
X95510027Y-57842454D01*
X95470130Y-57641880D01*
X95390942Y-57450702D01*
X95275977Y-57278645D01*
X95275975Y-57278643D01*
X95275973Y-57278640D01*
X94152720Y-56155387D01*
X94085962Y-56061887D01*
X94053180Y-55951776D01*
X94050500Y-55908607D01*
X94050500Y-47840455D01*
X94069410Y-47727135D01*
X94124090Y-47626095D01*
X94208615Y-47548284D01*
X94313826Y-47502134D01*
X94428320Y-47492647D01*
X94539692Y-47520850D01*
X94635871Y-47583687D01*
X94689683Y-47646562D01*
X94724021Y-47697953D01*
X94724022Y-47697954D01*
X94724023Y-47697955D01*
X94870345Y-47844277D01*
X94870347Y-47844278D01*
X94882533Y-47856464D01*
X94882532Y-47856464D01*
X94882538Y-47856469D01*
X98307280Y-51281211D01*
X98374038Y-51374711D01*
X98406820Y-51484822D01*
X98409500Y-51527991D01*
X98409500Y-51783913D01*
X98390590Y-51897233D01*
X98335910Y-51998273D01*
X98324008Y-52011750D01*
X98324383Y-52012070D01*
X98315485Y-52022487D01*
X98176656Y-52213567D01*
X98176653Y-52213572D01*
X98069436Y-52423999D01*
X98069429Y-52424015D01*
X97996449Y-52648623D01*
X97996445Y-52648638D01*
X97959500Y-52881903D01*
X97959500Y-53118096D01*
X97996445Y-53351361D01*
X97996449Y-53351376D01*
X98069429Y-53575984D01*
X98069436Y-53576000D01*
X98176653Y-53786427D01*
X98176656Y-53786432D01*
X98176657Y-53786433D01*
X98315483Y-53977510D01*
X98315485Y-53977512D01*
X98324383Y-53987930D01*
X98322018Y-53989949D01*
X98374038Y-54062807D01*
X98406820Y-54172918D01*
X98409500Y-54216087D01*
X98409500Y-56315165D01*
X98436459Y-56450700D01*
X98449870Y-56518119D01*
X98529059Y-56709299D01*
X98644023Y-56881355D01*
X98790345Y-57027677D01*
X98790347Y-57027678D01*
X98802533Y-57039864D01*
X98802532Y-57039864D01*
X98802538Y-57039869D01*
X104323558Y-62560889D01*
X104323565Y-62560897D01*
X104323566Y-62560897D01*
X104332320Y-62569651D01*
X104332323Y-62569655D01*
X104478644Y-62715976D01*
X104650700Y-62830940D01*
X104650701Y-62830940D01*
X104650702Y-62830941D01*
X104841880Y-62910130D01*
X105044835Y-62950500D01*
X105444385Y-62950500D01*
X105557705Y-62969410D01*
X105658745Y-63024090D01*
X105736556Y-63108615D01*
X105750696Y-63132244D01*
X105756203Y-63142329D01*
X105756204Y-63142331D01*
X105842454Y-63257546D01*
X105842455Y-63257547D01*
X105842457Y-63257549D01*
X105847280Y-63262372D01*
X105914038Y-63355872D01*
X105946820Y-63465983D01*
X105949500Y-63509152D01*
X105949500Y-64490847D01*
X105930590Y-64604167D01*
X105875910Y-64705207D01*
X105847280Y-64737627D01*
X105842457Y-64742449D01*
X105756202Y-64857670D01*
X105705909Y-64992515D01*
X105699500Y-65052129D01*
X105699500Y-67147870D01*
X105705909Y-67207485D01*
X105705910Y-67207488D01*
X105756202Y-67342328D01*
X105857412Y-67477527D01*
X105855592Y-67478888D01*
X105901873Y-67543708D01*
X105934655Y-67653819D01*
X105929907Y-67768608D01*
X105888145Y-67875636D01*
X105813893Y-67963304D01*
X105749922Y-68006327D01*
X105646596Y-68060300D01*
X105646592Y-68060302D01*
X105488890Y-68188890D01*
X105360302Y-68346592D01*
X105360300Y-68346595D01*
X105266091Y-68526948D01*
X105210465Y-68721355D01*
X105210114Y-68722582D01*
X105199500Y-68841963D01*
X105199500Y-68841967D01*
X105199500Y-70958031D01*
X105199501Y-70958039D01*
X105210113Y-71077415D01*
X105266090Y-71273049D01*
X105359840Y-71452522D01*
X105395546Y-71561719D01*
X105399500Y-71614108D01*
X105399500Y-73125964D01*
X105438909Y-73374779D01*
X105438912Y-73374794D01*
X105516760Y-73614382D01*
X105631129Y-73838843D01*
X105631130Y-73838846D01*
X105662950Y-73882641D01*
X105720483Y-73961828D01*
X105720484Y-73961831D01*
X105779203Y-74042652D01*
X105779209Y-74042659D01*
X107164334Y-75427784D01*
X107231092Y-75521284D01*
X107263874Y-75631395D01*
X107264360Y-75713636D01*
X107249500Y-75845534D01*
X107249500Y-75845535D01*
X107249500Y-76154465D01*
X107283498Y-76456204D01*
X107284090Y-76461457D01*
X107352830Y-76762629D01*
X107352835Y-76762646D01*
X107454863Y-77054224D01*
X107454871Y-77054244D01*
X107574266Y-77302167D01*
X107588905Y-77332565D01*
X107753265Y-77594143D01*
X107848092Y-77713053D01*
X107945874Y-77835667D01*
X107945881Y-77835675D01*
X108164324Y-78054118D01*
X108164332Y-78054125D01*
X108227491Y-78104493D01*
X108405857Y-78246735D01*
X108667435Y-78411095D01*
X108667450Y-78411102D01*
X108945755Y-78545128D01*
X108945763Y-78545131D01*
X108945771Y-78545135D01*
X109237364Y-78647168D01*
X109538548Y-78715911D01*
X109845535Y-78750500D01*
X109845539Y-78750500D01*
X110154461Y-78750500D01*
X110154465Y-78750500D01*
X110461452Y-78715911D01*
X110762636Y-78647168D01*
X111054229Y-78545135D01*
X111107461Y-78519500D01*
X111151225Y-78498424D01*
X111332565Y-78411095D01*
X111594143Y-78246735D01*
X111835674Y-78054120D01*
X112054120Y-77835674D01*
X112246735Y-77594143D01*
X112411095Y-77332565D01*
X112513554Y-77119808D01*
X112545128Y-77054244D01*
X112545129Y-77054241D01*
X112545135Y-77054229D01*
X112647168Y-76762636D01*
X112715911Y-76461452D01*
X112750500Y-76154465D01*
X112750500Y-75845535D01*
X112715911Y-75538548D01*
X112647168Y-75237364D01*
X112545135Y-74945771D01*
X112545131Y-74945763D01*
X112545128Y-74945755D01*
X112411102Y-74667450D01*
X112411095Y-74667435D01*
X112246735Y-74405857D01*
X112080316Y-74197175D01*
X112054125Y-74164332D01*
X112054118Y-74164324D01*
X111835675Y-73945881D01*
X111835667Y-73945874D01*
X111701454Y-73838843D01*
X111594143Y-73753265D01*
X111576937Y-73742454D01*
X111442006Y-73657671D01*
X111332565Y-73588905D01*
X111332553Y-73588899D01*
X111332549Y-73588897D01*
X111054244Y-73454871D01*
X111054224Y-73454863D01*
X110762646Y-73352835D01*
X110762629Y-73352830D01*
X110461457Y-73284090D01*
X110461455Y-73284089D01*
X110461452Y-73284089D01*
X110154465Y-73249500D01*
X109845535Y-73249500D01*
X109713635Y-73264360D01*
X109598910Y-73258256D01*
X109492383Y-73215231D01*
X109427783Y-73164334D01*
X108702720Y-72439271D01*
X108635962Y-72345771D01*
X108603180Y-72235660D01*
X108600500Y-72192491D01*
X108600500Y-71614108D01*
X108619410Y-71500788D01*
X108640160Y-71452522D01*
X108733909Y-71273049D01*
X108753819Y-71203465D01*
X108789886Y-71077418D01*
X108800500Y-70958037D01*
X108800499Y-68841964D01*
X108789886Y-68722582D01*
X108733909Y-68526951D01*
X108733908Y-68526950D01*
X108733908Y-68526948D01*
X108639699Y-68346595D01*
X108639697Y-68346592D01*
X108511109Y-68188890D01*
X108353407Y-68060302D01*
X108353403Y-68060300D01*
X108250075Y-68006326D01*
X108158391Y-67937100D01*
X108094150Y-67841852D01*
X108064316Y-67730906D01*
X108072123Y-67616285D01*
X108116725Y-67510409D01*
X108142865Y-67477734D01*
X108142588Y-67477527D01*
X108174320Y-67435139D01*
X108243796Y-67342331D01*
X108294091Y-67207483D01*
X108300500Y-67147873D01*
X108300499Y-65052128D01*
X108294091Y-64992517D01*
X108294089Y-64992511D01*
X108243797Y-64857671D01*
X108167837Y-64756202D01*
X108157546Y-64742454D01*
X108157545Y-64742453D01*
X108157542Y-64742449D01*
X108152720Y-64737627D01*
X108085962Y-64644127D01*
X108053180Y-64534016D01*
X108050500Y-64490847D01*
X108050500Y-63509152D01*
X108069410Y-63395832D01*
X108124090Y-63294792D01*
X108152720Y-63262372D01*
X108157542Y-63257549D01*
X108157542Y-63257548D01*
X108157546Y-63257546D01*
X108243796Y-63142331D01*
X108294091Y-63007483D01*
X108300500Y-62947873D01*
X108300499Y-60852128D01*
X108294091Y-60792517D01*
X108291822Y-60786433D01*
X108243797Y-60657671D01*
X108217951Y-60623145D01*
X108157546Y-60542454D01*
X108061897Y-60470851D01*
X108042329Y-60456202D01*
X107907483Y-60405909D01*
X107907485Y-60405909D01*
X107883639Y-60403345D01*
X107847873Y-60399500D01*
X107847870Y-60399500D01*
X106152129Y-60399500D01*
X106092514Y-60405909D01*
X106092511Y-60405910D01*
X105957671Y-60456202D01*
X105842450Y-60542457D01*
X105841471Y-60543765D01*
X105834031Y-60550875D01*
X105824804Y-60560103D01*
X105824595Y-60559894D01*
X105758418Y-60623145D01*
X105654091Y-60671258D01*
X105539794Y-60682889D01*
X105427914Y-60656777D01*
X105330574Y-60595753D01*
X105315313Y-60581382D01*
X100612720Y-55878789D01*
X100545962Y-55785289D01*
X100513180Y-55675178D01*
X100510500Y-55632009D01*
X100510500Y-54649499D01*
X100529410Y-54536179D01*
X100584090Y-54435139D01*
X100668615Y-54357328D01*
X100773826Y-54311178D01*
X100859500Y-54300499D01*
X101147871Y-54300499D01*
X101147872Y-54300499D01*
X101207483Y-54294091D01*
X101342331Y-54243796D01*
X101457546Y-54157546D01*
X101543796Y-54042331D01*
X101594091Y-53907483D01*
X101600500Y-53847873D01*
X101600499Y-52152128D01*
X101594091Y-52092517D01*
X101563363Y-52010130D01*
X101543797Y-51957671D01*
X101523787Y-51930941D01*
X101457546Y-51842454D01*
X101388621Y-51790857D01*
X101342329Y-51756202D01*
X101207483Y-51705909D01*
X101207485Y-51705909D01*
X101177678Y-51702704D01*
X101147873Y-51699500D01*
X101147871Y-51699500D01*
X100859500Y-51699500D01*
X100746180Y-51680590D01*
X100645140Y-51625910D01*
X100567329Y-51541385D01*
X100521179Y-51436174D01*
X100510500Y-51350500D01*
X100510500Y-50844834D01*
X100486469Y-50724023D01*
X100470130Y-50641880D01*
X100390941Y-50450702D01*
X100275977Y-50278645D01*
X100129655Y-50132323D01*
X100129651Y-50132320D01*
X100120897Y-50123566D01*
X100120897Y-50123565D01*
X100120889Y-50123558D01*
X96989279Y-46991948D01*
X96922521Y-46898448D01*
X96889739Y-46788337D01*
X96894487Y-46673548D01*
X96925101Y-46586721D01*
X96930568Y-46575992D01*
X97003553Y-46351368D01*
X97040500Y-46118092D01*
X97040500Y-45881908D01*
X97003553Y-45648632D01*
X96930568Y-45424008D01*
X96823343Y-45213567D01*
X96684517Y-45022490D01*
X96517510Y-44855483D01*
X96326433Y-44716657D01*
X96326434Y-44716657D01*
X96326432Y-44716656D01*
X96326427Y-44716653D01*
X96116000Y-44609436D01*
X96115998Y-44609435D01*
X96115992Y-44609432D01*
X96115987Y-44609430D01*
X96115984Y-44609429D01*
X95891376Y-44536449D01*
X95891361Y-44536445D01*
X95658096Y-44499500D01*
X95658092Y-44499500D01*
X95421908Y-44499500D01*
X95421903Y-44499500D01*
X95188638Y-44536445D01*
X95188623Y-44536449D01*
X94964015Y-44609429D01*
X94963999Y-44609436D01*
X94753572Y-44716653D01*
X94753567Y-44716656D01*
X94562487Y-44855485D01*
X94516778Y-44901194D01*
X94423277Y-44967952D01*
X94313166Y-45000732D01*
X94198377Y-44995984D01*
X94091349Y-44954220D01*
X94023222Y-44901194D01*
X93977512Y-44855485D01*
X93977511Y-44855484D01*
X93977510Y-44855483D01*
X93786433Y-44716657D01*
X93786434Y-44716657D01*
X93786432Y-44716656D01*
X93786427Y-44716653D01*
X93576000Y-44609436D01*
X93575998Y-44609435D01*
X93575992Y-44609432D01*
X93575987Y-44609430D01*
X93575984Y-44609429D01*
X93351376Y-44536449D01*
X93351361Y-44536445D01*
X93118096Y-44499500D01*
X93118092Y-44499500D01*
X92881908Y-44499500D01*
X92881903Y-44499500D01*
X92648638Y-44536445D01*
X92648623Y-44536449D01*
X92424015Y-44609429D01*
X92423999Y-44609436D01*
X92213572Y-44716653D01*
X92213567Y-44716656D01*
X92022488Y-44855484D01*
X91855484Y-45022488D01*
X91716656Y-45213567D01*
X91716653Y-45213572D01*
X91609436Y-45423999D01*
X91609429Y-45424015D01*
X91536449Y-45648623D01*
X91536445Y-45648638D01*
X91499500Y-45881903D01*
X78723556Y-45881903D01*
X74221845Y-41380192D01*
X74221841Y-41380187D01*
X74081604Y-41239950D01*
X74081601Y-41239947D01*
X73935094Y-41133504D01*
X73935087Y-41133500D01*
X73935080Y-41133496D01*
X73773743Y-41051291D01*
X73773742Y-41051290D01*
X73773739Y-41051289D01*
X73773736Y-41051288D01*
X73773729Y-41051285D01*
X73601509Y-40995329D01*
X73422646Y-40966999D01*
X73241554Y-40966999D01*
X73227149Y-40966999D01*
X73227125Y-40967000D01*
X55908775Y-40967000D01*
X55908751Y-40966999D01*
X55894346Y-40966999D01*
X55713254Y-40966999D01*
X55713253Y-40966999D01*
X55534390Y-40995329D01*
X55362170Y-41051285D01*
X55362156Y-41051291D01*
X55200819Y-41133496D01*
X55200803Y-41133506D01*
X55054299Y-41239947D01*
X55054295Y-41239950D01*
X32968350Y-63325895D01*
X32968347Y-63325899D01*
X32868335Y-63463554D01*
X32861905Y-63472403D01*
X32861899Y-63472413D01*
X32779691Y-63633756D01*
X32779685Y-63633770D01*
X32723729Y-63805990D01*
X32695399Y-63984853D01*
X32695399Y-64180350D01*
X32695400Y-64180375D01*
X32695400Y-65836253D01*
X32695399Y-65836283D01*
X32695399Y-66029748D01*
X32722911Y-66203451D01*
X32722912Y-66203451D01*
X32723729Y-66208611D01*
X32723730Y-66208614D01*
X32779685Y-66380829D01*
X32779691Y-66380843D01*
X32861896Y-66542180D01*
X32861900Y-66542187D01*
X32861904Y-66542194D01*
X32968347Y-66688701D01*
X32968350Y-66688704D01*
X33108582Y-66828936D01*
X33108592Y-66828945D01*
X33224366Y-66944719D01*
X33291124Y-67038219D01*
X33323906Y-67148330D01*
X33319158Y-67263119D01*
X33277396Y-67370147D01*
X33224366Y-67438279D01*
X32317149Y-68345495D01*
X32317146Y-68345499D01*
X32210705Y-68492003D01*
X32210697Y-68492015D01*
X32157627Y-68596172D01*
X32140259Y-68630259D01*
X32128488Y-68653361D01*
X32072528Y-68825591D01*
X32044198Y-69004453D01*
X30575000Y-69004453D01*
X30575000Y-33372158D01*
X31549500Y-33372158D01*
X31549500Y-33627841D01*
X31582872Y-33881329D01*
X31582875Y-33881346D01*
X31649050Y-34128313D01*
X31649050Y-34128315D01*
X31746891Y-34364524D01*
X31746896Y-34364535D01*
X31746897Y-34364536D01*
X31874738Y-34585964D01*
X31874739Y-34585966D01*
X31961833Y-34699468D01*
X32030390Y-34788813D01*
X32030396Y-34788819D01*
X32030401Y-34788825D01*
X32211174Y-34969598D01*
X32211180Y-34969603D01*
X32211187Y-34969610D01*
X32334947Y-35064574D01*
X32414033Y-35125260D01*
X32414035Y-35125261D01*
X32635465Y-35253104D01*
X32871687Y-35350950D01*
X33118660Y-35417126D01*
X33372157Y-35450500D01*
X33372159Y-35450500D01*
X33627841Y-35450500D01*
X33627843Y-35450500D01*
X33881340Y-35417126D01*
X34128313Y-35350950D01*
X34364535Y-35253104D01*
X34585965Y-35125261D01*
X34788813Y-34969610D01*
X34969610Y-34788813D01*
X35125261Y-34585965D01*
X35253104Y-34364535D01*
X35350950Y-34128313D01*
X35417126Y-33881340D01*
X35450500Y-33627843D01*
X35450500Y-33372158D01*
X110549500Y-33372158D01*
X110549500Y-33627841D01*
X110582872Y-33881329D01*
X110582875Y-33881346D01*
X110649050Y-34128313D01*
X110649050Y-34128315D01*
X110746891Y-34364524D01*
X110746896Y-34364535D01*
X110746897Y-34364536D01*
X110874738Y-34585964D01*
X110874739Y-34585966D01*
X110961833Y-34699468D01*
X111030390Y-34788813D01*
X111030396Y-34788819D01*
X111030401Y-34788825D01*
X111211174Y-34969598D01*
X111211180Y-34969603D01*
X111211187Y-34969610D01*
X111334947Y-35064574D01*
X111414033Y-35125260D01*
X111414035Y-35125261D01*
X111635465Y-35253104D01*
X111871687Y-35350950D01*
X112118660Y-35417126D01*
X112372157Y-35450500D01*
X112372159Y-35450500D01*
X112627841Y-35450500D01*
X112627843Y-35450500D01*
X112881340Y-35417126D01*
X113128313Y-35350950D01*
X113364535Y-35253104D01*
X113585965Y-35125261D01*
X113788813Y-34969610D01*
X113969610Y-34788813D01*
X114125261Y-34585965D01*
X114253104Y-34364535D01*
X114350950Y-34128313D01*
X114417126Y-33881340D01*
X114450500Y-33627843D01*
X114450500Y-33372157D01*
X114417126Y-33118660D01*
X114350950Y-32871687D01*
X114253104Y-32635465D01*
X114125261Y-32414035D01*
X114125260Y-32414033D01*
X114064574Y-32334947D01*
X113969610Y-32211187D01*
X113969603Y-32211180D01*
X113969598Y-32211174D01*
X113788825Y-32030401D01*
X113788819Y-32030396D01*
X113788813Y-32030390D01*
X113699468Y-31961833D01*
X113585966Y-31874739D01*
X113585964Y-31874738D01*
X113475250Y-31810817D01*
X113364535Y-31746896D01*
X113364529Y-31746893D01*
X113364524Y-31746891D01*
X113128314Y-31649050D01*
X112881346Y-31582875D01*
X112881329Y-31582872D01*
X112709726Y-31560280D01*
X112627843Y-31549500D01*
X112372157Y-31549500D01*
X112301660Y-31558781D01*
X112118670Y-31582872D01*
X112118653Y-31582875D01*
X111871686Y-31649050D01*
X111871684Y-31649050D01*
X111635475Y-31746891D01*
X111635463Y-31746897D01*
X111414035Y-31874738D01*
X111414033Y-31874739D01*
X111211192Y-32030386D01*
X111211174Y-32030401D01*
X111030401Y-32211174D01*
X111030386Y-32211192D01*
X110874739Y-32414033D01*
X110874738Y-32414035D01*
X110746897Y-32635463D01*
X110746891Y-32635475D01*
X110649050Y-32871684D01*
X110649050Y-32871686D01*
X110582875Y-33118653D01*
X110582872Y-33118670D01*
X110549500Y-33372158D01*
X35450500Y-33372158D01*
X35450500Y-33372157D01*
X35417126Y-33118660D01*
X35350950Y-32871687D01*
X35253104Y-32635465D01*
X35125261Y-32414035D01*
X35125260Y-32414033D01*
X35064574Y-32334947D01*
X34969610Y-32211187D01*
X34969603Y-32211180D01*
X34969598Y-32211174D01*
X34788825Y-32030401D01*
X34788819Y-32030396D01*
X34788813Y-32030390D01*
X34699468Y-31961833D01*
X34585966Y-31874739D01*
X34585964Y-31874738D01*
X34475250Y-31810817D01*
X34364535Y-31746896D01*
X34364529Y-31746893D01*
X34364524Y-31746891D01*
X34128314Y-31649050D01*
X33881346Y-31582875D01*
X33881329Y-31582872D01*
X33709726Y-31560280D01*
X33627843Y-31549500D01*
X33372157Y-31549500D01*
X33301660Y-31558781D01*
X33118670Y-31582872D01*
X33118653Y-31582875D01*
X32871686Y-31649050D01*
X32871684Y-31649050D01*
X32635475Y-31746891D01*
X32635463Y-31746897D01*
X32414035Y-31874738D01*
X32414033Y-31874739D01*
X32211192Y-32030386D01*
X32211174Y-32030401D01*
X32030401Y-32211174D01*
X32030386Y-32211192D01*
X31874739Y-32414033D01*
X31874738Y-32414035D01*
X31746897Y-32635463D01*
X31746891Y-32635475D01*
X31649050Y-32871684D01*
X31649050Y-32871686D01*
X31582875Y-33118653D01*
X31582872Y-33118670D01*
X31549500Y-33372158D01*
X30575000Y-33372158D01*
X30575000Y-30924000D01*
X30593910Y-30810680D01*
X30648590Y-30709640D01*
X30733115Y-30631829D01*
X30838326Y-30585679D01*
X30924000Y-30575000D01*
X115076000Y-30575000D01*
X115189320Y-30593910D01*
G37*
%TD.AperFunction*%
%TD*%
M02*
