%TF.GenerationSoftware,KiCad,Pcbnew,10.0.6*%
%TF.CreationDate,2026-09-09T21:53:43+03:00*%
%TF.ProjectId,candidate,63616e64-6964-4617-9465-2e6b69636164,rev?*%
%TF.SameCoordinates,Original*%
%TF.FileFunction,Copper,L2,Bot*%
%TF.FilePolarity,Positive*%
%FSLAX46Y46*%
G04 Gerber Fmt 4.6, Leading zero omitted, Abs format (unit mm)*
G04 Created by KiCad (PCBNEW 10.0.6) date 2026-09-09 21:53:43*
%MOMM*%
%LPD*%
G01*
G04 APERTURE LIST*
%TA.AperFunction,ComponentPad*%
%ADD10C,2.000000*%
%TD*%
%TA.AperFunction,SMDPad,CuDef*%
%ADD11R,2.000000X1.600000*%
%TD*%
%TA.AperFunction,SMDPad,CuDef*%
%ADD12R,1.600000X2.000000*%
%TD*%
%TA.AperFunction,ComponentPad*%
%ADD13C,3.500000*%
%TD*%
%TA.AperFunction,Conductor*%
%ADD14C,0.800000*%
%TD*%
%TA.AperFunction,Conductor*%
%ADD15C,1.000000*%
%TD*%
%TA.AperFunction,Conductor*%
%ADD16C,1.200000*%
%TD*%
G04 APERTURE END LIST*
D10*
%TO.P,C5,1*%
%TO.N,U_LOAD*%
X194460000Y-53000000D03*
D11*
X195100000Y-53000000D03*
%TO.P,C5,2*%
%TO.N,GND*%
X198900000Y-53000000D03*
D10*
X199540000Y-53000000D03*
%TD*%
D12*
%TO.P,R6,1*%
%TO.N,U_LOAD*%
X202000000Y-61900000D03*
%TO.P,R6,2*%
%TO.N,GND*%
X202000000Y-58100000D03*
%TD*%
D10*
%TO.P,J32,1*%
%TO.N,I_B1*%
X155000000Y-46000000D03*
%TO.P,J32,2*%
%TO.N,I_B2*%
X157540000Y-46000000D03*
%TO.P,J32,3*%
%TO.N,U_B1*%
X160080000Y-46000000D03*
%TO.P,J32,4*%
%TO.N,U_B2*%
X162620000Y-46000000D03*
%TO.P,J32,5*%
%TO.N,GND*%
X165160000Y-46000000D03*
%TD*%
%TO.P,J3,1*%
%TO.N,I_RAW1*%
X132000000Y-80000000D03*
%TO.P,J3,2*%
%TO.N,GND*%
X132000000Y-82540000D03*
%TO.P,J3,3*%
%TO.N,+3V3_SENS*%
X132000000Y-85080000D03*
%TD*%
D12*
%TO.P,R4,1*%
%TO.N,U_B2*%
X175000000Y-70900000D03*
%TO.P,R4,2*%
%TO.N,GND*%
X175000000Y-67100000D03*
%TD*%
%TO.P,R2,1*%
%TO.N,U_B1*%
X167000000Y-70900000D03*
%TO.P,R2,2*%
%TO.N,GND*%
X167000000Y-67100000D03*
%TD*%
D10*
%TO.P,C3,1*%
%TO.N,U_B1*%
X164460000Y-62000000D03*
D11*
X165100000Y-62000000D03*
%TO.P,C3,2*%
%TO.N,GND*%
X168900000Y-62000000D03*
D10*
X169540000Y-62000000D03*
%TD*%
%TO.P,C8,1*%
%TO.N,I_B2*%
X155460000Y-59000000D03*
D11*
X156100000Y-59000000D03*
%TO.P,C8,2*%
%TO.N,GND*%
X159900000Y-59000000D03*
D10*
X160540000Y-59000000D03*
%TD*%
D13*
%TO.P,X5,1*%
%TO.N,LOAD+*%
X205000000Y-76000000D03*
%TD*%
D12*
%TO.P,R7,1*%
%TO.N,I_RAW1*%
X145000000Y-74900000D03*
%TO.P,R7,2*%
%TO.N,I_B1*%
X145000000Y-71100000D03*
%TD*%
D10*
%TO.P,C7,1*%
%TO.N,I_B1*%
X149460000Y-66000000D03*
D11*
X150100000Y-66000000D03*
%TO.P,C7,2*%
%TO.N,GND*%
X153900000Y-66000000D03*
D10*
X154540000Y-66000000D03*
%TD*%
%TO.P,J33,1*%
%TO.N,I_LOAD*%
X188000000Y-46000000D03*
%TO.P,J33,2*%
%TO.N,U_LOAD*%
X190540000Y-46000000D03*
%TO.P,J33,3*%
%TO.N,GND*%
X193080000Y-46000000D03*
%TD*%
D12*
%TO.P,R3,1*%
%TO.N,B2*%
X176000000Y-78900000D03*
%TO.P,R3,2*%
%TO.N,U_B2*%
X176000000Y-75100000D03*
%TD*%
%TO.P,R5,1*%
%TO.N,LOAD+*%
X202000000Y-69900000D03*
%TO.P,R5,2*%
%TO.N,U_LOAD*%
X202000000Y-66100000D03*
%TD*%
D10*
%TO.P,C4,1*%
%TO.N,U_B2*%
X168460000Y-51000000D03*
D11*
X169100000Y-51000000D03*
%TO.P,C4,2*%
%TO.N,GND*%
X172900000Y-51000000D03*
D10*
X173540000Y-51000000D03*
%TD*%
D12*
%TO.P,R9,1*%
%TO.N,I_RAW3*%
X190000000Y-77900000D03*
%TO.P,R9,2*%
%TO.N,I_LOAD*%
X190000000Y-74100000D03*
%TD*%
%TO.P,R1,1*%
%TO.N,B1*%
X168000000Y-78900000D03*
%TO.P,R1,2*%
%TO.N,U_B1*%
X168000000Y-75100000D03*
%TD*%
D13*
%TO.P,X8,1*%
%TO.N,B1*%
X161000000Y-95000000D03*
%TO.P,X8,2*%
%TO.N,B2*%
X166000000Y-95000000D03*
%TO.P,X8,3*%
%TO.N,GND*%
X171000000Y-95000000D03*
%TD*%
D12*
%TO.P,R8,1*%
%TO.N,I_RAW2*%
X160000000Y-77900000D03*
%TO.P,R8,2*%
%TO.N,I_B2*%
X160000000Y-74100000D03*
%TD*%
D10*
%TO.P,J4,1*%
%TO.N,I_RAW2*%
X155000000Y-87000000D03*
%TO.P,J4,2*%
%TO.N,GND*%
X157540000Y-87000000D03*
%TO.P,J4,3*%
%TO.N,+3V3_SENS*%
X160080000Y-87000000D03*
%TD*%
%TO.P,C9,1*%
%TO.N,I_LOAD*%
X189460000Y-60000000D03*
D11*
X190100000Y-60000000D03*
%TO.P,C9,2*%
%TO.N,GND*%
X193900000Y-60000000D03*
D10*
X194540000Y-60000000D03*
%TD*%
%TO.P,J25,1*%
%TO.N,GND*%
X131000000Y-65000000D03*
%TO.P,J25,2*%
%TO.N,+3V3_SENS*%
X133540000Y-65000000D03*
%TD*%
%TO.P,J5,1*%
%TO.N,+3V3_SENS*%
X190000000Y-87000000D03*
%TO.P,J5,2*%
%TO.N,I_RAW3*%
X192540000Y-87000000D03*
%TO.P,J5,3*%
%TO.N,GND*%
X195080000Y-87000000D03*
%TD*%
%TO.N,U_LOAD*%
D14*
X195100000Y-53000000D02*
X195100000Y-56000000D01*
X190540000Y-46000000D02*
X190540000Y-49080000D01*
X194460000Y-53000000D02*
X193460000Y-53000000D01*
X201000000Y-61900000D02*
X202000000Y-61900000D01*
X202000000Y-61900000D02*
X202000000Y-66100000D01*
X190540000Y-49080000D02*
X194460000Y-53000000D01*
X195100000Y-56000000D02*
X201000000Y-61900000D01*
X193460000Y-53000000D02*
X195100000Y-53000000D01*
%TO.N,I_B1*%
X149460000Y-66000000D02*
X148460000Y-66000000D01*
X150100000Y-50900000D02*
X155000000Y-46000000D01*
X149460000Y-67640000D02*
X149460000Y-66000000D01*
X148460000Y-66000000D02*
X150100000Y-66000000D01*
X145000000Y-71100000D02*
X148460000Y-67640000D01*
X150100000Y-66000000D02*
X150100000Y-50900000D01*
X148460000Y-67640000D02*
X149460000Y-67640000D01*
%TO.N,I_B2*%
X156100000Y-59000000D02*
X160000000Y-62900000D01*
X157540000Y-57560000D02*
X157540000Y-46000000D01*
X160000000Y-62900000D02*
X160000000Y-74100000D01*
X155460000Y-59000000D02*
X154460000Y-59000000D01*
X156100000Y-59000000D02*
X157540000Y-57560000D01*
X154460000Y-59000000D02*
X156100000Y-59000000D01*
%TO.N,U_B1*%
X168000000Y-73000000D02*
X168000000Y-75100000D01*
X171627300Y-69372700D02*
X168000000Y-73000000D01*
X160080000Y-51885800D02*
X164460000Y-56265800D01*
X164460000Y-59948300D02*
X164460000Y-62000000D01*
X164460000Y-56265800D02*
X164460000Y-59948300D01*
X167000000Y-70900000D02*
X167000000Y-72000000D01*
X164460000Y-59948300D02*
X170627300Y-59948300D01*
X167000000Y-72000000D02*
X168000000Y-73000000D01*
X171627300Y-60948300D02*
X171627300Y-69372700D01*
X170627300Y-59948300D02*
X171627300Y-60948300D01*
X160080000Y-46000000D02*
X160080000Y-51885800D01*
%TO.N,U_B2*%
X162620000Y-46000000D02*
X162620000Y-47211700D01*
X175000000Y-73000000D02*
X176000000Y-74000000D01*
X176000000Y-74000000D02*
X176000000Y-75100000D01*
X175000000Y-71412900D02*
X173148300Y-69561200D01*
X175000000Y-70900000D02*
X175000000Y-73000000D01*
X173148300Y-69561200D02*
X173148300Y-57740000D01*
X168460000Y-51000000D02*
X166408300Y-51000000D01*
X162620000Y-47211700D02*
X166408300Y-51000000D01*
X168460000Y-51000000D02*
X168460000Y-53051700D01*
X173148300Y-57740000D02*
X168460000Y-53051700D01*
%TO.N,I_RAW1*%
X137100000Y-74900000D02*
X145000000Y-74900000D01*
X132000000Y-80000000D02*
X137100000Y-74900000D01*
%TO.N,+3V3_SENS*%
D15*
X186996000Y-60968000D02*
X186996000Y-83996000D01*
X186996000Y-83996000D02*
X190000000Y-87000000D01*
X160080000Y-88000000D02*
X156589000Y-91491000D01*
X160080000Y-87000000D02*
X160080000Y-88000000D01*
X127980000Y-64829000D02*
X150761000Y-42048000D01*
X133540000Y-66000000D02*
X133540000Y-65000000D01*
X150761000Y-42048000D02*
X168076000Y-42048000D01*
X132000000Y-85080000D02*
X128000000Y-85080000D01*
X128000000Y-85080000D02*
X128000000Y-71540000D01*
X127980000Y-91491000D02*
X127980000Y-64829000D01*
X132000000Y-85080000D02*
X137920000Y-91000000D01*
X156589000Y-91491000D02*
X127980000Y-91491000D01*
X137920000Y-91000000D02*
X160080000Y-91000000D01*
X128000000Y-71540000D02*
X133540000Y-66000000D01*
X160080000Y-91000000D02*
X160080000Y-87000000D01*
X168076000Y-42048000D02*
X186996000Y-60968000D01*
%TO.N,LOAD+*%
D16*
X205000000Y-72900000D02*
X205000000Y-76000000D01*
X202000000Y-69900000D02*
X205000000Y-72900000D01*
%TO.N,I_LOAD*%
D14*
X188460000Y-60000000D02*
X190100000Y-60000000D01*
X189460000Y-60000000D02*
X188460000Y-60000000D01*
X188000000Y-46000000D02*
X188000000Y-58540000D01*
X190100000Y-72200000D02*
X190100000Y-60000000D01*
X191000000Y-73100000D02*
X190100000Y-72200000D01*
X188000000Y-58540000D02*
X189460000Y-60000000D01*
X190000000Y-74100000D02*
X191000000Y-73100000D01*
%TO.N,B2*%
D16*
X176000000Y-85000000D02*
X176000000Y-78900000D01*
X166000000Y-95000000D02*
X176000000Y-85000000D01*
%TO.N,I_RAW3*%
D14*
X190000000Y-77900000D02*
X192540000Y-80440000D01*
X192540000Y-80440000D02*
X192540000Y-87000000D01*
%TO.N,B1*%
D16*
X168000000Y-88000000D02*
X168000000Y-78900000D01*
X161000000Y-95000000D02*
X168000000Y-88000000D01*
%TO.N,I_RAW2*%
D14*
X155000000Y-87000000D02*
X155000000Y-82900000D01*
X155000000Y-82900000D02*
X160000000Y-77900000D01*
%TD*%
%TA.AperFunction,Conductor*%
%TO.N,GND*%
G36*
X210189320Y-30593910D02*
G01*
X210290360Y-30648590D01*
X210368171Y-30733115D01*
X210414321Y-30838326D01*
X210425000Y-30924000D01*
X210425000Y-97076000D01*
X210406090Y-97189320D01*
X210351410Y-97290360D01*
X210266885Y-97368171D01*
X210161674Y-97414321D01*
X210076000Y-97425000D01*
X168307354Y-97425000D01*
X168194034Y-97406090D01*
X168092994Y-97351410D01*
X168015183Y-97266885D01*
X167969033Y-97161674D01*
X167959546Y-97047180D01*
X167987749Y-96935808D01*
X168048109Y-96843420D01*
X168047602Y-96842967D01*
X168054108Y-96835685D01*
X168054120Y-96835674D01*
X168246735Y-96594143D01*
X168411095Y-96332565D01*
X168545135Y-96054229D01*
X168647168Y-95762636D01*
X168715911Y-95461452D01*
X168750500Y-95154465D01*
X168750500Y-94845535D01*
X168735639Y-94713640D01*
X168736301Y-94701190D01*
X168733742Y-94688985D01*
X168739338Y-94644091D01*
X168741741Y-94598915D01*
X168746410Y-94587352D01*
X168747953Y-94574981D01*
X168767819Y-94534342D01*
X168784764Y-94492388D01*
X168794160Y-94480461D01*
X168798411Y-94471767D01*
X168835658Y-94427789D01*
X168891289Y-94372158D01*
X205549500Y-94372158D01*
X205549500Y-94627841D01*
X205582872Y-94881329D01*
X205582875Y-94881346D01*
X205649050Y-95128313D01*
X205649050Y-95128315D01*
X205659882Y-95154465D01*
X205746896Y-95364535D01*
X205746897Y-95364536D01*
X205874738Y-95585964D01*
X205874739Y-95585966D01*
X205961833Y-95699468D01*
X206030390Y-95788813D01*
X206030396Y-95788819D01*
X206030401Y-95788825D01*
X206211174Y-95969598D01*
X206211180Y-95969603D01*
X206211187Y-95969610D01*
X206321484Y-96054244D01*
X206414033Y-96125260D01*
X206414035Y-96125261D01*
X206635465Y-96253104D01*
X206871687Y-96350950D01*
X207118660Y-96417126D01*
X207372157Y-96450500D01*
X207372159Y-96450500D01*
X207627841Y-96450500D01*
X207627843Y-96450500D01*
X207881340Y-96417126D01*
X208128313Y-96350950D01*
X208364535Y-96253104D01*
X208585965Y-96125261D01*
X208788813Y-95969610D01*
X208969610Y-95788813D01*
X209125261Y-95585965D01*
X209253104Y-95364535D01*
X209350950Y-95128313D01*
X209417126Y-94881340D01*
X209450500Y-94627843D01*
X209450500Y-94372157D01*
X209417126Y-94118660D01*
X209350950Y-93871687D01*
X209253104Y-93635465D01*
X209125261Y-93414035D01*
X209125260Y-93414033D01*
X209064574Y-93334947D01*
X208969610Y-93211187D01*
X208969603Y-93211180D01*
X208969598Y-93211174D01*
X208788825Y-93030401D01*
X208788819Y-93030396D01*
X208788813Y-93030390D01*
X208678670Y-92945874D01*
X208585966Y-92874739D01*
X208585964Y-92874738D01*
X208375566Y-92753265D01*
X208364535Y-92746896D01*
X208364529Y-92746893D01*
X208364524Y-92746891D01*
X208128314Y-92649050D01*
X207881346Y-92582875D01*
X207881329Y-92582872D01*
X207709726Y-92560280D01*
X207627843Y-92549500D01*
X207372157Y-92549500D01*
X207301660Y-92558781D01*
X207118670Y-92582872D01*
X207118653Y-92582875D01*
X206871686Y-92649050D01*
X206871684Y-92649050D01*
X206635475Y-92746891D01*
X206635463Y-92746897D01*
X206414035Y-92874738D01*
X206414033Y-92874739D01*
X206211192Y-93030386D01*
X206211174Y-93030401D01*
X206030401Y-93211174D01*
X206030386Y-93211192D01*
X205874739Y-93414033D01*
X205874738Y-93414035D01*
X205746897Y-93635463D01*
X205746891Y-93635475D01*
X205649050Y-93871684D01*
X205649050Y-93871686D01*
X205582875Y-94118653D01*
X205582872Y-94118670D01*
X205549500Y-94372158D01*
X168891289Y-94372158D01*
X177220793Y-86042656D01*
X177368871Y-85838844D01*
X177483242Y-85614378D01*
X177561091Y-85374784D01*
X177600500Y-85125962D01*
X177600500Y-84874038D01*
X177600500Y-80614108D01*
X177619410Y-80500788D01*
X177640160Y-80452522D01*
X177733909Y-80273049D01*
X177789886Y-80077418D01*
X177800500Y-79958037D01*
X177800499Y-77841964D01*
X177789886Y-77722582D01*
X177733909Y-77526951D01*
X177733908Y-77526950D01*
X177733908Y-77526948D01*
X177639699Y-77346595D01*
X177639697Y-77346592D01*
X177628264Y-77332571D01*
X177615958Y-77317479D01*
X177511109Y-77188890D01*
X177353407Y-77060302D01*
X177353403Y-77060300D01*
X177250075Y-77006326D01*
X177158391Y-76937100D01*
X177094150Y-76841852D01*
X177064316Y-76730906D01*
X177072123Y-76616285D01*
X177116725Y-76510409D01*
X177142865Y-76477734D01*
X177142588Y-76477527D01*
X177157546Y-76457546D01*
X177243796Y-76342331D01*
X177294091Y-76207483D01*
X177300500Y-76147873D01*
X177300499Y-74052128D01*
X177294091Y-73992517D01*
X177276696Y-73945879D01*
X177243797Y-73857671D01*
X177243794Y-73857667D01*
X177157546Y-73742454D01*
X177049861Y-73661841D01*
X176970479Y-73578795D01*
X176936579Y-73516012D01*
X176930942Y-73502402D01*
X176815977Y-73330345D01*
X176815975Y-73330343D01*
X176815973Y-73330340D01*
X176193986Y-72708354D01*
X176127228Y-72614854D01*
X176094446Y-72504743D01*
X176099194Y-72389954D01*
X176140956Y-72282926D01*
X176161373Y-72252432D01*
X176243796Y-72142331D01*
X176294091Y-72007483D01*
X176300500Y-71947873D01*
X176300499Y-69852128D01*
X176294091Y-69792517D01*
X176243796Y-69657669D01*
X176157546Y-69542454D01*
X176088621Y-69490857D01*
X176042329Y-69456202D01*
X175907483Y-69405909D01*
X175907485Y-69405909D01*
X175877678Y-69402704D01*
X175847873Y-69399500D01*
X175847871Y-69399500D01*
X174616791Y-69399500D01*
X174503471Y-69380590D01*
X174402431Y-69325910D01*
X174370011Y-69297280D01*
X174301020Y-69228289D01*
X174234262Y-69134789D01*
X174201480Y-69024678D01*
X174198800Y-68981509D01*
X174198800Y-57636534D01*
X174191894Y-57601816D01*
X174158430Y-57433580D01*
X174079241Y-57242402D01*
X174069009Y-57227089D01*
X173964276Y-57070344D01*
X173817955Y-56924023D01*
X173817951Y-56924020D01*
X173809197Y-56915266D01*
X173809197Y-56915265D01*
X173809189Y-56915258D01*
X169790210Y-52896279D01*
X169723452Y-52802779D01*
X169690670Y-52692668D01*
X169695418Y-52577879D01*
X169737180Y-52470851D01*
X169811432Y-52383183D01*
X169910126Y-52324374D01*
X170022568Y-52300797D01*
X170036990Y-52300499D01*
X170147871Y-52300499D01*
X170147872Y-52300499D01*
X170207483Y-52294091D01*
X170342331Y-52243796D01*
X170457546Y-52157546D01*
X170543796Y-52042331D01*
X170594091Y-51907483D01*
X170600500Y-51847873D01*
X170600499Y-50152128D01*
X170594091Y-50092517D01*
X170594089Y-50092511D01*
X170543797Y-49957671D01*
X170543796Y-49957669D01*
X170457546Y-49842454D01*
X170372562Y-49778835D01*
X170342329Y-49756202D01*
X170207483Y-49705909D01*
X170207485Y-49705909D01*
X170177678Y-49702704D01*
X170147873Y-49699500D01*
X170147871Y-49699500D01*
X169296548Y-49699500D01*
X169183228Y-49680590D01*
X169138109Y-49661463D01*
X169035992Y-49609432D01*
X169006914Y-49599984D01*
X168811376Y-49536449D01*
X168811361Y-49536445D01*
X168578096Y-49499500D01*
X168578092Y-49499500D01*
X168341908Y-49499500D01*
X168341903Y-49499500D01*
X168108638Y-49536445D01*
X168108623Y-49536449D01*
X167884015Y-49609429D01*
X167883999Y-49609436D01*
X167673572Y-49716653D01*
X167673567Y-49716656D01*
X167482487Y-49855485D01*
X167472070Y-49864383D01*
X167470050Y-49862018D01*
X167397193Y-49914038D01*
X167287082Y-49946820D01*
X167243913Y-49949500D01*
X166987991Y-49949500D01*
X166874671Y-49930590D01*
X166773631Y-49875910D01*
X166741211Y-49847280D01*
X164007375Y-47113444D01*
X163940617Y-47019944D01*
X163907835Y-46909833D01*
X163912583Y-46795044D01*
X163943193Y-46708222D01*
X164010568Y-46575992D01*
X164083553Y-46351368D01*
X164120500Y-46118092D01*
X164120500Y-45881908D01*
X164083553Y-45648632D01*
X164010568Y-45424008D01*
X163903343Y-45213567D01*
X163764517Y-45022490D01*
X163597510Y-44855483D01*
X163406433Y-44716657D01*
X163406434Y-44716657D01*
X163406432Y-44716656D01*
X163406427Y-44716653D01*
X163196000Y-44609436D01*
X163195998Y-44609435D01*
X163195992Y-44609432D01*
X163195987Y-44609430D01*
X163195984Y-44609429D01*
X162971376Y-44536449D01*
X162971361Y-44536445D01*
X162738096Y-44499500D01*
X162738092Y-44499500D01*
X162501908Y-44499500D01*
X162501903Y-44499500D01*
X162268638Y-44536445D01*
X162268623Y-44536449D01*
X162044015Y-44609429D01*
X162043999Y-44609436D01*
X161833572Y-44716653D01*
X161833567Y-44716656D01*
X161642487Y-44855485D01*
X161596778Y-44901194D01*
X161503277Y-44967952D01*
X161393166Y-45000732D01*
X161278377Y-44995984D01*
X161171349Y-44954220D01*
X161103222Y-44901194D01*
X161057512Y-44855485D01*
X161057511Y-44855484D01*
X161057510Y-44855483D01*
X160866433Y-44716657D01*
X160866434Y-44716657D01*
X160866432Y-44716656D01*
X160866427Y-44716653D01*
X160656000Y-44609436D01*
X160655998Y-44609435D01*
X160655992Y-44609432D01*
X160655987Y-44609430D01*
X160655984Y-44609429D01*
X160431376Y-44536449D01*
X160431361Y-44536445D01*
X160198096Y-44499500D01*
X160198092Y-44499500D01*
X159961908Y-44499500D01*
X159961903Y-44499500D01*
X159728638Y-44536445D01*
X159728623Y-44536449D01*
X159504015Y-44609429D01*
X159503999Y-44609436D01*
X159293572Y-44716653D01*
X159293567Y-44716656D01*
X159102487Y-44855485D01*
X159056778Y-44901194D01*
X158963277Y-44967952D01*
X158853166Y-45000732D01*
X158738377Y-44995984D01*
X158631349Y-44954220D01*
X158563222Y-44901194D01*
X158517512Y-44855485D01*
X158517511Y-44855484D01*
X158517510Y-44855483D01*
X158326433Y-44716657D01*
X158326434Y-44716657D01*
X158326432Y-44716656D01*
X158326427Y-44716653D01*
X158116000Y-44609436D01*
X158115998Y-44609435D01*
X158115992Y-44609432D01*
X158115987Y-44609430D01*
X158115984Y-44609429D01*
X157891376Y-44536449D01*
X157891361Y-44536445D01*
X157658096Y-44499500D01*
X157658092Y-44499500D01*
X157421908Y-44499500D01*
X157421903Y-44499500D01*
X157188638Y-44536445D01*
X157188623Y-44536449D01*
X156964015Y-44609429D01*
X156963999Y-44609436D01*
X156753572Y-44716653D01*
X156753567Y-44716656D01*
X156562487Y-44855485D01*
X156516778Y-44901194D01*
X156423277Y-44967952D01*
X156313166Y-45000732D01*
X156198377Y-44995984D01*
X156091349Y-44954220D01*
X156023222Y-44901194D01*
X155977512Y-44855485D01*
X155977511Y-44855484D01*
X155977510Y-44855483D01*
X155786433Y-44716657D01*
X155786434Y-44716657D01*
X155786432Y-44716656D01*
X155786427Y-44716653D01*
X155576000Y-44609436D01*
X155575998Y-44609435D01*
X155575992Y-44609432D01*
X155575987Y-44609430D01*
X155575984Y-44609429D01*
X155351376Y-44536449D01*
X155351361Y-44536445D01*
X155118096Y-44499500D01*
X155118092Y-44499500D01*
X154881908Y-44499500D01*
X154881903Y-44499500D01*
X154648638Y-44536445D01*
X154648623Y-44536449D01*
X154424015Y-44609429D01*
X154423999Y-44609436D01*
X154213572Y-44716653D01*
X154213567Y-44716656D01*
X154022488Y-44855484D01*
X153855484Y-45022488D01*
X153716656Y-45213567D01*
X153716653Y-45213572D01*
X153609436Y-45423999D01*
X153609429Y-45424015D01*
X153536449Y-45648623D01*
X153536445Y-45648638D01*
X153499500Y-45881903D01*
X153498424Y-45895582D01*
X153495323Y-45895337D01*
X153480590Y-45983628D01*
X153425910Y-46084668D01*
X153397280Y-46117088D01*
X149430344Y-50084024D01*
X149284025Y-50230341D01*
X149169059Y-50402400D01*
X149089870Y-50593580D01*
X149049500Y-50796534D01*
X149049500Y-64311242D01*
X149030590Y-64424562D01*
X148975910Y-64525602D01*
X148891385Y-64603413D01*
X148858943Y-64622203D01*
X148673568Y-64716656D01*
X148673567Y-64716656D01*
X148482487Y-64855485D01*
X148471257Y-64866715D01*
X148377755Y-64933471D01*
X148292570Y-64962223D01*
X148153579Y-64989870D01*
X147962400Y-65069059D01*
X147790341Y-65184025D01*
X147644025Y-65330341D01*
X147529059Y-65502400D01*
X147449870Y-65693580D01*
X147409500Y-65896534D01*
X147409500Y-66103465D01*
X147449870Y-66306419D01*
X147529058Y-66497598D01*
X147605338Y-66611759D01*
X147652572Y-66716487D01*
X147663241Y-66830878D01*
X147636190Y-66942535D01*
X147574350Y-67039358D01*
X147561934Y-67052432D01*
X145117087Y-69497280D01*
X145023587Y-69564038D01*
X144913476Y-69596820D01*
X144870307Y-69599500D01*
X144152129Y-69599500D01*
X144092514Y-69605909D01*
X144092511Y-69605910D01*
X143957671Y-69656202D01*
X143842454Y-69742454D01*
X143756202Y-69857670D01*
X143705909Y-69992515D01*
X143699500Y-70052129D01*
X143699500Y-72147870D01*
X143705909Y-72207485D01*
X143705910Y-72207488D01*
X143756202Y-72342328D01*
X143756203Y-72342329D01*
X143756204Y-72342331D01*
X143842454Y-72457546D01*
X143911391Y-72509152D01*
X143957670Y-72543797D01*
X144014166Y-72564868D01*
X144092517Y-72594091D01*
X144152127Y-72600500D01*
X145847872Y-72600499D01*
X145907483Y-72594091D01*
X146042331Y-72543796D01*
X146157546Y-72457546D01*
X146243796Y-72342331D01*
X146245353Y-72338158D01*
X146265543Y-72284023D01*
X146294091Y-72207483D01*
X146300500Y-72147873D01*
X146300499Y-71429688D01*
X146319409Y-71316370D01*
X146374089Y-71215330D01*
X146402710Y-71182919D01*
X148792912Y-68792720D01*
X148886413Y-68725961D01*
X148996523Y-68693180D01*
X149039692Y-68690500D01*
X149563465Y-68690500D01*
X149766420Y-68650130D01*
X149957598Y-68570941D01*
X150129655Y-68455977D01*
X150275977Y-68309655D01*
X150390941Y-68137598D01*
X150470130Y-67946420D01*
X150510500Y-67743465D01*
X150510500Y-67649499D01*
X150529410Y-67536179D01*
X150584090Y-67435139D01*
X150668615Y-67357328D01*
X150773826Y-67311178D01*
X150859500Y-67300499D01*
X151147871Y-67300499D01*
X151147872Y-67300499D01*
X151207483Y-67294091D01*
X151342331Y-67243796D01*
X151457546Y-67157546D01*
X151543796Y-67042331D01*
X151594091Y-66907483D01*
X151600500Y-66847873D01*
X151600499Y-65152128D01*
X151594091Y-65092517D01*
X151585342Y-65069059D01*
X151543797Y-64957671D01*
X151543796Y-64957669D01*
X151457546Y-64842454D01*
X151342331Y-64756204D01*
X151342327Y-64756201D01*
X151332236Y-64750691D01*
X151241842Y-64679784D01*
X151179368Y-64583368D01*
X151151586Y-64471891D01*
X151150500Y-64444384D01*
X151150500Y-51479691D01*
X151169410Y-51366371D01*
X151224090Y-51265331D01*
X151252720Y-51232911D01*
X154882911Y-47602720D01*
X154976411Y-47535962D01*
X155086522Y-47503180D01*
X155104456Y-47502066D01*
X155104418Y-47501576D01*
X155118083Y-47500500D01*
X155118092Y-47500500D01*
X155351368Y-47463553D01*
X155575992Y-47390568D01*
X155786433Y-47283343D01*
X155935363Y-47175138D01*
X156038155Y-47123830D01*
X156152038Y-47108677D01*
X156264671Y-47131323D01*
X156363848Y-47189314D01*
X156438822Y-47276365D01*
X156481468Y-47383044D01*
X156489500Y-47457486D01*
X156489500Y-56980308D01*
X156470590Y-57093628D01*
X156415910Y-57194668D01*
X156387287Y-57227080D01*
X156180788Y-57433580D01*
X156163779Y-57450589D01*
X156070278Y-57517347D01*
X155960167Y-57550128D01*
X155845378Y-57545380D01*
X155816285Y-57537628D01*
X155811361Y-57536445D01*
X155578096Y-57499500D01*
X155578092Y-57499500D01*
X155341908Y-57499500D01*
X155341903Y-57499500D01*
X155108638Y-57536445D01*
X155108623Y-57536449D01*
X154884015Y-57609429D01*
X154883999Y-57609436D01*
X154673572Y-57716653D01*
X154673567Y-57716656D01*
X154482487Y-57855485D01*
X154471257Y-57866715D01*
X154377755Y-57933471D01*
X154292570Y-57962223D01*
X154153579Y-57989870D01*
X153962400Y-58069059D01*
X153790341Y-58184025D01*
X153644025Y-58330341D01*
X153529059Y-58502400D01*
X153449870Y-58693580D01*
X153428763Y-58799695D01*
X153409500Y-58896535D01*
X153409500Y-59103465D01*
X153449870Y-59306420D01*
X153470398Y-59355978D01*
X153529059Y-59497599D01*
X153644025Y-59669658D01*
X153790341Y-59815974D01*
X153790344Y-59815976D01*
X153790345Y-59815977D01*
X153875198Y-59872673D01*
X153962400Y-59930940D01*
X153962401Y-59930940D01*
X153962402Y-59930941D01*
X154153580Y-60010130D01*
X154153579Y-60010130D01*
X154214567Y-60022261D01*
X154292569Y-60037776D01*
X154400022Y-60078429D01*
X154471263Y-60133290D01*
X154482490Y-60144517D01*
X154673567Y-60283343D01*
X154673572Y-60283346D01*
X154780129Y-60337639D01*
X154884008Y-60390568D01*
X155108632Y-60463553D01*
X155341908Y-60500500D01*
X155341912Y-60500500D01*
X155578088Y-60500500D01*
X155578092Y-60500500D01*
X155811368Y-60463553D01*
X155811371Y-60463551D01*
X155824708Y-60460351D01*
X155825076Y-60461887D01*
X155922749Y-60447238D01*
X156035742Y-60468012D01*
X156135868Y-60524349D01*
X156163780Y-60549411D01*
X158847280Y-63232911D01*
X158914038Y-63326411D01*
X158946820Y-63436522D01*
X158949500Y-63479691D01*
X158949500Y-72490847D01*
X158930590Y-72604167D01*
X158875910Y-72705207D01*
X158847280Y-72737627D01*
X158842457Y-72742449D01*
X158756202Y-72857670D01*
X158705909Y-72992515D01*
X158699500Y-73052129D01*
X158699500Y-75147870D01*
X158705909Y-75207485D01*
X158705910Y-75207488D01*
X158756202Y-75342328D01*
X158756203Y-75342329D01*
X158756204Y-75342331D01*
X158842454Y-75457546D01*
X158934523Y-75526469D01*
X158957670Y-75543797D01*
X159025093Y-75568943D01*
X159092517Y-75594091D01*
X159152127Y-75600500D01*
X160847872Y-75600499D01*
X160907483Y-75594091D01*
X161042331Y-75543796D01*
X161157546Y-75457546D01*
X161243796Y-75342331D01*
X161294091Y-75207483D01*
X161300500Y-75147873D01*
X161300499Y-73052128D01*
X161294091Y-72992517D01*
X161243796Y-72857669D01*
X161157546Y-72742454D01*
X161157545Y-72742453D01*
X161157542Y-72742449D01*
X161152720Y-72737627D01*
X161085962Y-72644127D01*
X161053180Y-72534016D01*
X161050500Y-72490847D01*
X161050500Y-63020712D01*
X161050501Y-63020691D01*
X161050501Y-62796538D01*
X161050500Y-62796531D01*
X161010130Y-62593580D01*
X160930942Y-62402402D01*
X160815977Y-62230345D01*
X160815975Y-62230343D01*
X160815973Y-62230340D01*
X157832411Y-59246780D01*
X157765653Y-59153280D01*
X157732871Y-59043169D01*
X157737619Y-58928380D01*
X157779381Y-58821352D01*
X157832406Y-58753224D01*
X158355977Y-58229655D01*
X158470942Y-58057598D01*
X158550130Y-57866419D01*
X158590501Y-57663465D01*
X158590501Y-57456534D01*
X158590501Y-57442130D01*
X158590500Y-57442104D01*
X158590500Y-52697955D01*
X158609410Y-52584635D01*
X158664090Y-52483595D01*
X158748615Y-52405784D01*
X158853826Y-52359634D01*
X158968320Y-52350147D01*
X159079692Y-52378350D01*
X159175871Y-52441187D01*
X159229683Y-52504062D01*
X159264021Y-52555453D01*
X159264022Y-52555454D01*
X159264023Y-52555455D01*
X159410345Y-52701777D01*
X159410347Y-52701778D01*
X159422533Y-52713964D01*
X159422532Y-52713964D01*
X159422538Y-52713969D01*
X163307280Y-56598711D01*
X163374038Y-56692211D01*
X163406820Y-56802322D01*
X163409500Y-56845491D01*
X163409500Y-60783913D01*
X163390590Y-60897233D01*
X163335910Y-60998273D01*
X163324008Y-61011750D01*
X163324383Y-61012070D01*
X163315485Y-61022487D01*
X163176656Y-61213567D01*
X163176653Y-61213572D01*
X163069436Y-61423999D01*
X163069429Y-61424015D01*
X162996449Y-61648623D01*
X162996445Y-61648638D01*
X162959500Y-61881903D01*
X162959500Y-62118096D01*
X162996445Y-62351361D01*
X162996449Y-62351376D01*
X163069429Y-62575984D01*
X163069436Y-62576000D01*
X163176653Y-62786427D01*
X163176656Y-62786432D01*
X163198117Y-62815970D01*
X163315483Y-62977510D01*
X163482490Y-63144517D01*
X163619137Y-63243797D01*
X163673567Y-63283343D01*
X163673572Y-63283346D01*
X163758093Y-63326411D01*
X163884008Y-63390568D01*
X164108632Y-63463553D01*
X164108637Y-63463553D01*
X164108638Y-63463554D01*
X164153611Y-63470676D01*
X164341908Y-63500500D01*
X164341912Y-63500500D01*
X164578088Y-63500500D01*
X164578092Y-63500500D01*
X164811368Y-63463553D01*
X165035992Y-63390568D01*
X165104086Y-63355872D01*
X165138107Y-63338538D01*
X165247661Y-63303940D01*
X165296550Y-63300499D01*
X166147871Y-63300499D01*
X166147872Y-63300499D01*
X166207483Y-63294091D01*
X166342331Y-63243796D01*
X166457546Y-63157546D01*
X166543796Y-63042331D01*
X166594091Y-62907483D01*
X166600500Y-62847873D01*
X166600499Y-61347799D01*
X166619409Y-61234480D01*
X166674089Y-61133440D01*
X166758614Y-61055629D01*
X166863824Y-61009479D01*
X166949499Y-60998800D01*
X170047609Y-60998800D01*
X170160929Y-61017710D01*
X170261969Y-61072390D01*
X170294389Y-61101020D01*
X170474580Y-61281211D01*
X170541338Y-61374711D01*
X170574120Y-61484822D01*
X170576800Y-61527991D01*
X170576800Y-68793008D01*
X170557890Y-68906328D01*
X170503210Y-69007368D01*
X170474580Y-69039788D01*
X168896279Y-70618089D01*
X168802779Y-70684847D01*
X168692668Y-70717629D01*
X168577879Y-70712881D01*
X168470851Y-70671119D01*
X168383183Y-70596867D01*
X168324374Y-70498173D01*
X168300797Y-70385731D01*
X168300499Y-70371309D01*
X168300499Y-69852129D01*
X168300499Y-69852127D01*
X168294091Y-69792517D01*
X168243796Y-69657669D01*
X168157546Y-69542454D01*
X168088621Y-69490857D01*
X168042329Y-69456202D01*
X167907483Y-69405909D01*
X167907485Y-69405909D01*
X167883639Y-69403345D01*
X167847873Y-69399500D01*
X167847870Y-69399500D01*
X166152129Y-69399500D01*
X166092514Y-69405909D01*
X166092511Y-69405910D01*
X165957671Y-69456202D01*
X165842454Y-69542454D01*
X165756202Y-69657670D01*
X165705909Y-69792515D01*
X165699500Y-69852129D01*
X165699500Y-71947870D01*
X165705909Y-72007485D01*
X165705910Y-72007488D01*
X165756202Y-72142328D01*
X165756203Y-72142329D01*
X165756204Y-72142331D01*
X165842454Y-72257546D01*
X165949499Y-72337680D01*
X165950138Y-72338158D01*
X166029522Y-72421207D01*
X166063419Y-72483982D01*
X166069060Y-72497601D01*
X166184025Y-72669658D01*
X166350231Y-72835864D01*
X166350245Y-72835876D01*
X166806013Y-73291644D01*
X166872771Y-73385144D01*
X166905553Y-73495255D01*
X166900805Y-73610044D01*
X166859043Y-73717072D01*
X166838621Y-73747573D01*
X166756204Y-73857667D01*
X166756203Y-73857670D01*
X166705909Y-73992515D01*
X166699500Y-74052129D01*
X166699500Y-76147870D01*
X166705909Y-76207485D01*
X166705910Y-76207488D01*
X166756202Y-76342328D01*
X166756203Y-76342329D01*
X166756204Y-76342331D01*
X166842454Y-76457546D01*
X166857412Y-76477527D01*
X166855592Y-76478888D01*
X166901873Y-76543708D01*
X166934655Y-76653819D01*
X166929907Y-76768608D01*
X166888145Y-76875636D01*
X166813893Y-76963304D01*
X166749922Y-77006327D01*
X166646596Y-77060300D01*
X166646592Y-77060302D01*
X166488890Y-77188890D01*
X166360302Y-77346592D01*
X166360300Y-77346595D01*
X166266091Y-77526948D01*
X166212321Y-77714868D01*
X166210114Y-77722582D01*
X166199500Y-77841963D01*
X166199500Y-77841967D01*
X166199500Y-79958031D01*
X166199501Y-79958039D01*
X166210113Y-80077415D01*
X166266090Y-80273049D01*
X166359840Y-80452522D01*
X166395546Y-80561719D01*
X166399500Y-80614108D01*
X166399500Y-87192490D01*
X166380590Y-87305810D01*
X166325910Y-87406850D01*
X166297280Y-87439270D01*
X161572215Y-92164334D01*
X161478715Y-92231092D01*
X161368604Y-92263874D01*
X161286362Y-92264360D01*
X161232202Y-92258258D01*
X161121711Y-92226780D01*
X161027428Y-92161131D01*
X160959570Y-92068426D01*
X160925489Y-91958710D01*
X160928880Y-91843873D01*
X160969375Y-91736359D01*
X160988920Y-91706327D01*
X161063996Y-91602994D01*
X161146211Y-91441639D01*
X161202171Y-91269409D01*
X161230500Y-91090546D01*
X161230500Y-88104975D01*
X161230501Y-88104950D01*
X161230501Y-88082670D01*
X161249411Y-87969350D01*
X161297155Y-87877532D01*
X161303533Y-87868754D01*
X161363343Y-87786433D01*
X161470568Y-87575992D01*
X161543553Y-87351368D01*
X161580500Y-87118092D01*
X161580500Y-86881908D01*
X161543553Y-86648632D01*
X161470568Y-86424008D01*
X161363343Y-86213567D01*
X161224517Y-86022490D01*
X161057510Y-85855483D01*
X160959003Y-85783913D01*
X160866432Y-85716656D01*
X160866427Y-85716653D01*
X160656000Y-85609436D01*
X160655998Y-85609435D01*
X160655992Y-85609432D01*
X160655987Y-85609430D01*
X160655984Y-85609429D01*
X160431376Y-85536449D01*
X160431361Y-85536445D01*
X160198096Y-85499500D01*
X160198092Y-85499500D01*
X159961908Y-85499500D01*
X159961903Y-85499500D01*
X159728638Y-85536445D01*
X159728623Y-85536449D01*
X159504015Y-85609429D01*
X159503999Y-85609436D01*
X159293572Y-85716653D01*
X159293567Y-85716656D01*
X159102488Y-85855484D01*
X158935484Y-86022488D01*
X158796656Y-86213567D01*
X158796653Y-86213572D01*
X158689436Y-86423999D01*
X158689429Y-86424015D01*
X158616449Y-86648623D01*
X158616445Y-86648638D01*
X158579500Y-86881903D01*
X158579500Y-87118096D01*
X158616445Y-87351361D01*
X158616447Y-87351369D01*
X158669331Y-87514127D01*
X158686364Y-87627744D01*
X158665584Y-87740736D01*
X158609240Y-87840858D01*
X158584192Y-87868754D01*
X156705667Y-89747280D01*
X156612167Y-89814038D01*
X156502056Y-89846820D01*
X156458887Y-89849500D01*
X138541113Y-89849500D01*
X138427793Y-89830590D01*
X138326753Y-89775910D01*
X138294333Y-89747280D01*
X135428956Y-86881903D01*
X153499500Y-86881903D01*
X153499500Y-87118096D01*
X153536445Y-87351361D01*
X153536449Y-87351376D01*
X153609429Y-87575984D01*
X153609431Y-87575990D01*
X153609436Y-87576000D01*
X153716653Y-87786427D01*
X153716656Y-87786432D01*
X153786070Y-87881971D01*
X153855483Y-87977510D01*
X154022490Y-88144517D01*
X154188667Y-88265252D01*
X154213567Y-88283343D01*
X154213572Y-88283346D01*
X154313519Y-88334271D01*
X154424008Y-88390568D01*
X154648632Y-88463553D01*
X154881908Y-88500500D01*
X154881912Y-88500500D01*
X155118088Y-88500500D01*
X155118092Y-88500500D01*
X155351368Y-88463553D01*
X155575992Y-88390568D01*
X155786433Y-88283343D01*
X155977510Y-88144517D01*
X156144517Y-87977510D01*
X156283343Y-87786433D01*
X156390568Y-87575992D01*
X156463553Y-87351368D01*
X156500500Y-87118092D01*
X156500500Y-86881908D01*
X156463553Y-86648632D01*
X156390568Y-86424008D01*
X156283343Y-86213567D01*
X156144517Y-86022490D01*
X156144514Y-86022487D01*
X156135617Y-86012070D01*
X156137981Y-86010050D01*
X156085962Y-85937193D01*
X156053180Y-85827082D01*
X156050500Y-85783913D01*
X156050500Y-83479691D01*
X156069410Y-83366371D01*
X156124090Y-83265331D01*
X156152720Y-83232911D01*
X159882912Y-79502719D01*
X159976412Y-79435961D01*
X160086523Y-79403179D01*
X160129692Y-79400499D01*
X160847871Y-79400499D01*
X160847872Y-79400499D01*
X160907483Y-79394091D01*
X161042331Y-79343796D01*
X161157546Y-79257546D01*
X161243796Y-79142331D01*
X161294091Y-79007483D01*
X161300500Y-78947873D01*
X161300499Y-76852128D01*
X161294091Y-76792517D01*
X161243796Y-76657669D01*
X161157546Y-76542454D01*
X161072633Y-76478888D01*
X161042329Y-76456202D01*
X160907483Y-76405909D01*
X160907485Y-76405909D01*
X160883639Y-76403345D01*
X160847873Y-76399500D01*
X160847870Y-76399500D01*
X159152129Y-76399500D01*
X159092514Y-76405909D01*
X159092511Y-76405910D01*
X158957671Y-76456202D01*
X158842454Y-76542454D01*
X158756202Y-76657670D01*
X158705909Y-76792515D01*
X158699500Y-76852129D01*
X158699500Y-77570307D01*
X158680590Y-77683627D01*
X158625910Y-77784667D01*
X158597280Y-77817087D01*
X154330347Y-82084021D01*
X154330344Y-82084024D01*
X154184025Y-82230341D01*
X154069059Y-82402400D01*
X153989870Y-82593580D01*
X153949500Y-82796534D01*
X153949500Y-85783913D01*
X153930590Y-85897233D01*
X153875910Y-85998273D01*
X153864008Y-86011750D01*
X153864383Y-86012070D01*
X153855485Y-86022487D01*
X153716656Y-86213567D01*
X153716653Y-86213572D01*
X153609436Y-86423999D01*
X153609429Y-86424015D01*
X153536449Y-86648623D01*
X153536445Y-86648638D01*
X153499500Y-86881903D01*
X135428956Y-86881903D01*
X133579091Y-85032038D01*
X133512333Y-84938538D01*
X133481169Y-84839858D01*
X133463553Y-84728632D01*
X133390568Y-84504008D01*
X133305499Y-84337051D01*
X133283346Y-84293572D01*
X133283343Y-84293567D01*
X133209906Y-84192490D01*
X133144517Y-84102490D01*
X132977510Y-83935483D01*
X132786433Y-83796657D01*
X132786434Y-83796657D01*
X132786432Y-83796656D01*
X132786427Y-83796653D01*
X132576000Y-83689436D01*
X132575998Y-83689435D01*
X132575992Y-83689432D01*
X132575987Y-83689430D01*
X132575984Y-83689429D01*
X132351376Y-83616449D01*
X132351361Y-83616445D01*
X132118096Y-83579500D01*
X132118092Y-83579500D01*
X131881908Y-83579500D01*
X131881903Y-83579500D01*
X131648638Y-83616445D01*
X131648623Y-83616449D01*
X131424015Y-83689429D01*
X131423999Y-83689436D01*
X131213572Y-83796653D01*
X131213567Y-83796656D01*
X131122465Y-83862847D01*
X131019672Y-83914156D01*
X130917327Y-83929500D01*
X129499500Y-83929500D01*
X129386180Y-83910590D01*
X129285140Y-83855910D01*
X129207329Y-83771385D01*
X129161179Y-83666174D01*
X129150500Y-83580500D01*
X129150500Y-79881903D01*
X130499500Y-79881903D01*
X130499500Y-80118096D01*
X130536445Y-80351361D01*
X130536449Y-80351376D01*
X130609429Y-80575984D01*
X130609436Y-80576000D01*
X130716653Y-80786427D01*
X130716656Y-80786432D01*
X130716657Y-80786433D01*
X130855483Y-80977510D01*
X131022490Y-81144517D01*
X131213567Y-81283343D01*
X131213572Y-81283346D01*
X131323411Y-81339311D01*
X131424008Y-81390568D01*
X131648632Y-81463553D01*
X131881908Y-81500500D01*
X131881912Y-81500500D01*
X132118088Y-81500500D01*
X132118092Y-81500500D01*
X132351368Y-81463553D01*
X132575992Y-81390568D01*
X132786433Y-81283343D01*
X132977510Y-81144517D01*
X133144517Y-80977510D01*
X133283343Y-80786433D01*
X133390568Y-80575992D01*
X133463553Y-80351368D01*
X133500500Y-80118092D01*
X133500500Y-80118083D01*
X133501576Y-80104418D01*
X133504676Y-80104662D01*
X133519410Y-80016371D01*
X133574090Y-79915331D01*
X133602720Y-79882911D01*
X137432911Y-76052720D01*
X137526411Y-75985962D01*
X137636522Y-75953180D01*
X137679691Y-75950500D01*
X143444385Y-75950500D01*
X143557705Y-75969410D01*
X143658745Y-76024090D01*
X143736556Y-76108615D01*
X143750696Y-76132244D01*
X143756202Y-76142328D01*
X143756203Y-76142329D01*
X143756204Y-76142331D01*
X143842454Y-76257546D01*
X143934523Y-76326469D01*
X143957670Y-76343797D01*
X144025093Y-76368943D01*
X144092517Y-76394091D01*
X144152127Y-76400500D01*
X145847872Y-76400499D01*
X145907483Y-76394091D01*
X146042331Y-76343796D01*
X146157546Y-76257546D01*
X146243796Y-76142331D01*
X146294091Y-76007483D01*
X146300500Y-75947873D01*
X146300499Y-73852128D01*
X146294091Y-73792517D01*
X146294089Y-73792511D01*
X146243797Y-73657671D01*
X146242699Y-73656204D01*
X146157546Y-73542454D01*
X146086142Y-73489001D01*
X146042329Y-73456202D01*
X145907483Y-73405909D01*
X145907485Y-73405909D01*
X145883639Y-73403345D01*
X145847873Y-73399500D01*
X145847870Y-73399500D01*
X144152129Y-73399500D01*
X144092514Y-73405909D01*
X144092511Y-73405910D01*
X143957671Y-73456202D01*
X143842454Y-73542454D01*
X143756202Y-73657671D01*
X143750696Y-73667756D01*
X143679791Y-73758153D01*
X143583376Y-73820629D01*
X143471900Y-73848414D01*
X143444385Y-73849500D01*
X136996535Y-73849500D01*
X136793580Y-73889870D01*
X136602400Y-73969059D01*
X136430341Y-74084025D01*
X136299036Y-74215332D01*
X136284023Y-74230345D01*
X136284020Y-74230348D01*
X134170572Y-76343797D01*
X132117089Y-78397280D01*
X132023589Y-78464038D01*
X131913478Y-78496820D01*
X131895543Y-78497933D01*
X131895582Y-78498424D01*
X131881903Y-78499500D01*
X131648638Y-78536445D01*
X131648623Y-78536449D01*
X131424015Y-78609429D01*
X131423999Y-78609436D01*
X131213572Y-78716653D01*
X131213567Y-78716656D01*
X131022488Y-78855484D01*
X130855484Y-79022488D01*
X130716656Y-79213567D01*
X130716653Y-79213572D01*
X130609436Y-79423999D01*
X130609429Y-79424015D01*
X130536449Y-79648623D01*
X130536445Y-79648638D01*
X130499500Y-79881903D01*
X129150500Y-79881903D01*
X129150500Y-72161112D01*
X129169410Y-72047792D01*
X129224090Y-71946752D01*
X129252712Y-71914340D01*
X134269603Y-66897448D01*
X134269617Y-66897437D01*
X134343031Y-66824023D01*
X134417553Y-66749501D01*
X134523996Y-66602994D01*
X134606211Y-66441639D01*
X134662171Y-66269409D01*
X134662650Y-66266383D01*
X134663240Y-66262663D01*
X134672622Y-66203422D01*
X134690501Y-66090547D01*
X134690501Y-66082670D01*
X134709411Y-65969350D01*
X134757155Y-65877532D01*
X134823343Y-65786433D01*
X134930568Y-65575992D01*
X135003553Y-65351368D01*
X135040500Y-65118092D01*
X135040500Y-64881908D01*
X135003553Y-64648632D01*
X134930568Y-64424008D01*
X134823343Y-64213567D01*
X134684517Y-64022490D01*
X134517510Y-63855483D01*
X134326433Y-63716657D01*
X134326434Y-63716657D01*
X134326432Y-63716656D01*
X134326427Y-63716653D01*
X134116000Y-63609436D01*
X134115998Y-63609435D01*
X134115992Y-63609432D01*
X134115987Y-63609430D01*
X134115984Y-63609429D01*
X133891376Y-63536449D01*
X133891361Y-63536445D01*
X133658096Y-63499500D01*
X133658092Y-63499500D01*
X133421908Y-63499500D01*
X133421903Y-63499500D01*
X133188638Y-63536445D01*
X133188623Y-63536449D01*
X132964015Y-63609429D01*
X132963999Y-63609436D01*
X132753572Y-63716653D01*
X132753567Y-63716656D01*
X132562488Y-63855484D01*
X132395484Y-64022488D01*
X132256656Y-64213567D01*
X132256653Y-64213572D01*
X132149436Y-64423999D01*
X132149429Y-64424015D01*
X132076449Y-64648623D01*
X132076445Y-64648638D01*
X132039500Y-64881903D01*
X132039500Y-65118096D01*
X132076445Y-65351361D01*
X132076449Y-65351377D01*
X132129330Y-65514125D01*
X132146364Y-65627743D01*
X132125584Y-65740735D01*
X132069241Y-65840857D01*
X132044192Y-65868753D01*
X129726280Y-68186666D01*
X129632780Y-68253424D01*
X129522669Y-68286206D01*
X129407880Y-68281458D01*
X129300852Y-68239696D01*
X129213184Y-68165444D01*
X129154375Y-68066750D01*
X129130798Y-67954308D01*
X129130500Y-67939886D01*
X129130500Y-65450113D01*
X129149410Y-65336793D01*
X129204090Y-65235753D01*
X129232720Y-65203333D01*
X151135333Y-43300720D01*
X151228833Y-43233962D01*
X151338944Y-43201180D01*
X151382113Y-43198500D01*
X167454887Y-43198500D01*
X167568207Y-43217410D01*
X167669247Y-43272090D01*
X167701667Y-43300720D01*
X185743280Y-61342332D01*
X185810038Y-61435832D01*
X185842820Y-61545943D01*
X185845500Y-61589112D01*
X185845500Y-83893053D01*
X185845499Y-83893083D01*
X185845499Y-84086544D01*
X185845498Y-84086544D01*
X185863857Y-84202448D01*
X185873828Y-84265406D01*
X185873831Y-84265418D01*
X185929785Y-84437629D01*
X185929791Y-84437643D01*
X186011996Y-84598980D01*
X186012000Y-84598987D01*
X186012004Y-84598994D01*
X186118447Y-84745501D01*
X186118450Y-84745504D01*
X186258682Y-84885736D01*
X186258692Y-84885745D01*
X187371220Y-85998273D01*
X188420908Y-87047960D01*
X188487666Y-87141460D01*
X188518831Y-87240145D01*
X188536445Y-87351361D01*
X188536449Y-87351376D01*
X188609429Y-87575984D01*
X188609431Y-87575990D01*
X188609436Y-87576000D01*
X188716653Y-87786427D01*
X188716656Y-87786432D01*
X188786070Y-87881971D01*
X188855483Y-87977510D01*
X189022490Y-88144517D01*
X189188667Y-88265252D01*
X189213567Y-88283343D01*
X189213572Y-88283346D01*
X189313519Y-88334271D01*
X189424008Y-88390568D01*
X189648632Y-88463553D01*
X189881908Y-88500500D01*
X189881912Y-88500500D01*
X190118088Y-88500500D01*
X190118092Y-88500500D01*
X190351368Y-88463553D01*
X190575992Y-88390568D01*
X190786433Y-88283343D01*
X190977510Y-88144517D01*
X191023220Y-88098807D01*
X191116720Y-88032049D01*
X191226831Y-87999267D01*
X191341620Y-88004015D01*
X191448648Y-88045777D01*
X191516780Y-88098807D01*
X191562490Y-88144517D01*
X191728667Y-88265252D01*
X191753567Y-88283343D01*
X191753572Y-88283346D01*
X191853519Y-88334271D01*
X191964008Y-88390568D01*
X192188632Y-88463553D01*
X192421908Y-88500500D01*
X192421912Y-88500500D01*
X192658088Y-88500500D01*
X192658092Y-88500500D01*
X192891368Y-88463553D01*
X193115992Y-88390568D01*
X193326433Y-88283343D01*
X193517510Y-88144517D01*
X193684517Y-87977510D01*
X193823343Y-87786433D01*
X193930568Y-87575992D01*
X194003553Y-87351368D01*
X194040500Y-87118092D01*
X194040500Y-86881908D01*
X194003553Y-86648632D01*
X193930568Y-86424008D01*
X193823343Y-86213567D01*
X193684517Y-86022490D01*
X193684514Y-86022487D01*
X193675617Y-86012070D01*
X193677981Y-86010050D01*
X193625962Y-85937193D01*
X193593180Y-85827082D01*
X193590500Y-85783913D01*
X193590500Y-80336534D01*
X193577872Y-80273049D01*
X193550130Y-80133580D01*
X193470941Y-79942402D01*
X193430520Y-79881908D01*
X193355976Y-79770344D01*
X193209655Y-79624023D01*
X193209651Y-79624020D01*
X193200897Y-79615266D01*
X193200897Y-79615265D01*
X193200889Y-79615258D01*
X191402719Y-77817088D01*
X191335961Y-77723588D01*
X191303179Y-77613477D01*
X191300499Y-77570308D01*
X191300499Y-76852129D01*
X191299394Y-76841852D01*
X191294091Y-76792517D01*
X191243796Y-76657669D01*
X191157546Y-76542454D01*
X191072633Y-76478888D01*
X191042329Y-76456202D01*
X190907483Y-76405909D01*
X190907485Y-76405909D01*
X190883639Y-76403345D01*
X190847873Y-76399500D01*
X190847870Y-76399500D01*
X189152129Y-76399500D01*
X189092514Y-76405909D01*
X189092511Y-76405910D01*
X188957671Y-76456202D01*
X188842453Y-76542454D01*
X188774887Y-76632711D01*
X188691838Y-76712095D01*
X188587513Y-76760212D01*
X188473216Y-76771848D01*
X188361335Y-76745741D01*
X188263992Y-76684721D01*
X188191737Y-76595400D01*
X188152399Y-76487458D01*
X188146500Y-76423560D01*
X188146500Y-75576439D01*
X188165410Y-75463119D01*
X188220090Y-75362079D01*
X188304615Y-75284268D01*
X188409826Y-75238118D01*
X188524320Y-75228631D01*
X188635692Y-75256834D01*
X188731871Y-75319671D01*
X188774888Y-75367290D01*
X188842452Y-75457544D01*
X188842453Y-75457544D01*
X188842454Y-75457546D01*
X188849899Y-75463119D01*
X188957670Y-75543797D01*
X189025093Y-75568943D01*
X189092517Y-75594091D01*
X189152127Y-75600500D01*
X190847872Y-75600499D01*
X190907483Y-75594091D01*
X191042331Y-75543796D01*
X191157546Y-75457546D01*
X191243796Y-75342331D01*
X191294091Y-75207483D01*
X191300500Y-75147873D01*
X191300499Y-74429690D01*
X191319409Y-74316372D01*
X191374089Y-74215332D01*
X191402719Y-74182911D01*
X191421306Y-74164324D01*
X191815977Y-73769655D01*
X191930942Y-73597598D01*
X192010130Y-73406419D01*
X192050501Y-73203465D01*
X192050501Y-72996534D01*
X192010130Y-72793580D01*
X191930942Y-72602402D01*
X191815977Y-72430345D01*
X191669655Y-72284023D01*
X191669651Y-72284020D01*
X191660897Y-72275266D01*
X191660897Y-72275265D01*
X191660889Y-72275258D01*
X191252720Y-71867089D01*
X191185962Y-71773589D01*
X191153180Y-71663478D01*
X191150500Y-71620309D01*
X191150500Y-61555615D01*
X191169410Y-61442295D01*
X191224090Y-61341255D01*
X191308615Y-61263444D01*
X191332244Y-61249304D01*
X191342328Y-61243797D01*
X191342327Y-61243797D01*
X191342331Y-61243796D01*
X191457546Y-61157546D01*
X191543796Y-61042331D01*
X191594091Y-60907483D01*
X191600500Y-60847873D01*
X191600499Y-59152128D01*
X191594091Y-59092517D01*
X191593379Y-59090608D01*
X191543797Y-58957671D01*
X191543796Y-58957669D01*
X191457546Y-58842454D01*
X191362753Y-58771492D01*
X191342329Y-58756202D01*
X191207483Y-58705909D01*
X191207485Y-58705909D01*
X191177678Y-58702704D01*
X191147873Y-58699500D01*
X191147871Y-58699500D01*
X190296548Y-58699500D01*
X190183228Y-58680590D01*
X190138109Y-58661463D01*
X190035992Y-58609432D01*
X189811376Y-58536449D01*
X189811361Y-58536445D01*
X189578096Y-58499500D01*
X189564418Y-58498424D01*
X189564662Y-58495323D01*
X189476372Y-58480590D01*
X189375332Y-58425910D01*
X189342911Y-58397280D01*
X189152719Y-58207087D01*
X189085961Y-58113586D01*
X189053180Y-58003475D01*
X189050500Y-57960307D01*
X189050500Y-49892155D01*
X189069410Y-49778835D01*
X189124090Y-49677795D01*
X189208615Y-49599984D01*
X189313826Y-49553834D01*
X189428320Y-49544347D01*
X189539692Y-49572550D01*
X189635871Y-49635387D01*
X189689683Y-49698262D01*
X189724021Y-49749653D01*
X189724022Y-49749654D01*
X189724023Y-49749655D01*
X189870345Y-49895977D01*
X189870347Y-49895978D01*
X189882533Y-49908164D01*
X189882532Y-49908164D01*
X189882538Y-49908169D01*
X192354144Y-52379775D01*
X192420902Y-52473275D01*
X192453684Y-52583386D01*
X192449658Y-52694640D01*
X192409500Y-52896533D01*
X192409500Y-53103465D01*
X192449870Y-53306419D01*
X192529059Y-53497599D01*
X192644025Y-53669658D01*
X192790341Y-53815974D01*
X192962400Y-53930940D01*
X192962401Y-53930940D01*
X192962402Y-53930941D01*
X193153580Y-54010130D01*
X193153579Y-54010130D01*
X193214567Y-54022261D01*
X193292569Y-54037776D01*
X193400022Y-54078429D01*
X193471263Y-54133290D01*
X193482490Y-54144517D01*
X193673567Y-54283343D01*
X193858943Y-54377797D01*
X193951327Y-54446092D01*
X194016530Y-54540684D01*
X194047486Y-54651322D01*
X194049500Y-54688758D01*
X194049500Y-56103465D01*
X194089870Y-56306419D01*
X194169059Y-56497599D01*
X194236620Y-56598711D01*
X194284023Y-56669655D01*
X194430345Y-56815977D01*
X194430347Y-56815978D01*
X194442533Y-56828164D01*
X194442532Y-56828164D01*
X194442538Y-56828169D01*
X200175258Y-62560889D01*
X200175265Y-62560897D01*
X200330344Y-62715976D01*
X200330348Y-62715979D01*
X200479996Y-62815970D01*
X200480000Y-62815972D01*
X200480007Y-62815977D01*
X200502402Y-62830941D01*
X200524864Y-62840245D01*
X200622322Y-62901081D01*
X200694746Y-62990265D01*
X200718304Y-63040717D01*
X200756203Y-63142330D01*
X200756204Y-63142331D01*
X200842454Y-63257546D01*
X200842455Y-63257547D01*
X200842457Y-63257549D01*
X200847280Y-63262372D01*
X200914038Y-63355872D01*
X200946820Y-63465983D01*
X200949500Y-63509152D01*
X200949500Y-64490847D01*
X200930590Y-64604167D01*
X200875910Y-64705207D01*
X200847280Y-64737627D01*
X200842457Y-64742449D01*
X200756202Y-64857670D01*
X200705909Y-64992515D01*
X200699500Y-65052129D01*
X200699500Y-67147870D01*
X200705909Y-67207485D01*
X200705910Y-67207488D01*
X200756202Y-67342328D01*
X200857412Y-67477527D01*
X200855592Y-67478888D01*
X200901873Y-67543708D01*
X200934655Y-67653819D01*
X200929907Y-67768608D01*
X200888145Y-67875636D01*
X200813893Y-67963304D01*
X200749922Y-68006327D01*
X200646596Y-68060300D01*
X200646592Y-68060302D01*
X200488890Y-68188890D01*
X200360302Y-68346592D01*
X200360300Y-68346595D01*
X200266091Y-68526948D01*
X200230845Y-68650129D01*
X200210114Y-68722582D01*
X200199500Y-68841963D01*
X200199500Y-68841967D01*
X200199500Y-70958031D01*
X200199501Y-70958039D01*
X200210113Y-71077415D01*
X200266091Y-71273051D01*
X200360300Y-71453404D01*
X200360302Y-71453407D01*
X200488890Y-71611109D01*
X200646592Y-71739697D01*
X200646595Y-71739699D01*
X200826948Y-71833908D01*
X200826950Y-71833908D01*
X200826951Y-71833909D01*
X201022582Y-71889886D01*
X201141963Y-71900500D01*
X201592490Y-71900499D01*
X201705809Y-71919409D01*
X201806850Y-71974088D01*
X201839270Y-72002719D01*
X203232052Y-73395501D01*
X203298810Y-73489001D01*
X203331592Y-73599112D01*
X203326844Y-73713901D01*
X203285082Y-73820929D01*
X203210830Y-73908597D01*
X203202876Y-73915135D01*
X203164337Y-73945869D01*
X203164324Y-73945881D01*
X202945881Y-74164324D01*
X202945874Y-74164332D01*
X202753267Y-74405854D01*
X202753263Y-74405859D01*
X202588909Y-74667428D01*
X202588897Y-74667450D01*
X202454871Y-74945755D01*
X202454863Y-74945775D01*
X202352835Y-75237353D01*
X202352830Y-75237370D01*
X202302577Y-75457545D01*
X202284089Y-75538548D01*
X202249500Y-75845535D01*
X202249500Y-76154465D01*
X202283498Y-76456204D01*
X202284090Y-76461457D01*
X202352830Y-76762629D01*
X202352835Y-76762646D01*
X202454863Y-77054224D01*
X202454871Y-77054244D01*
X202588897Y-77332549D01*
X202588905Y-77332565D01*
X202597721Y-77346595D01*
X202738288Y-77570308D01*
X202753265Y-77594143D01*
X202824626Y-77683627D01*
X202855693Y-77722584D01*
X202945880Y-77835674D01*
X203164326Y-78054120D01*
X203405857Y-78246735D01*
X203667435Y-78411095D01*
X203667450Y-78411102D01*
X203945755Y-78545128D01*
X203945763Y-78545131D01*
X203945771Y-78545135D01*
X204237364Y-78647168D01*
X204538548Y-78715911D01*
X204845535Y-78750500D01*
X204845539Y-78750500D01*
X205154461Y-78750500D01*
X205154465Y-78750500D01*
X205461452Y-78715911D01*
X205762636Y-78647168D01*
X206054229Y-78545135D01*
X206332565Y-78411095D01*
X206594143Y-78246735D01*
X206835674Y-78054120D01*
X207054120Y-77835674D01*
X207246735Y-77594143D01*
X207411095Y-77332565D01*
X207512858Y-77121251D01*
X207545128Y-77054244D01*
X207545129Y-77054241D01*
X207545135Y-77054229D01*
X207647168Y-76762636D01*
X207715911Y-76461452D01*
X207750500Y-76154465D01*
X207750500Y-75845535D01*
X207715911Y-75538548D01*
X207647168Y-75237364D01*
X207545135Y-74945771D01*
X207545131Y-74945763D01*
X207545128Y-74945755D01*
X207411102Y-74667450D01*
X207411095Y-74667435D01*
X207246735Y-74405857D01*
X207094796Y-74215332D01*
X207054125Y-74164332D01*
X207054118Y-74164324D01*
X206835673Y-73945879D01*
X206731900Y-73863122D01*
X206655094Y-73777683D01*
X206610191Y-73671935D01*
X206600500Y-73590264D01*
X206600500Y-72774040D01*
X206600500Y-72774038D01*
X206561090Y-72525215D01*
X206502158Y-72343841D01*
X206502143Y-72343796D01*
X206483244Y-72285628D01*
X206483243Y-72285627D01*
X206483242Y-72285622D01*
X206368871Y-72061156D01*
X206220793Y-71857344D01*
X203902719Y-69539270D01*
X203835961Y-69445770D01*
X203803179Y-69335659D01*
X203800499Y-69292490D01*
X203800499Y-68841968D01*
X203800499Y-68841964D01*
X203789886Y-68722582D01*
X203733909Y-68526951D01*
X203733908Y-68526950D01*
X203733908Y-68526948D01*
X203639699Y-68346595D01*
X203639697Y-68346592D01*
X203511109Y-68188890D01*
X203353407Y-68060302D01*
X203353403Y-68060300D01*
X203250075Y-68006326D01*
X203158391Y-67937100D01*
X203094150Y-67841852D01*
X203064316Y-67730906D01*
X203072123Y-67616285D01*
X203116725Y-67510409D01*
X203142865Y-67477734D01*
X203142588Y-67477527D01*
X203243797Y-67342329D01*
X203261789Y-67294089D01*
X203294091Y-67207483D01*
X203300500Y-67147873D01*
X203300499Y-65052128D01*
X203294091Y-64992517D01*
X203282792Y-64962223D01*
X203243797Y-64857671D01*
X203242159Y-64855483D01*
X203157546Y-64742454D01*
X203157545Y-64742453D01*
X203157542Y-64742449D01*
X203152720Y-64737627D01*
X203085962Y-64644127D01*
X203053180Y-64534016D01*
X203050500Y-64490847D01*
X203050500Y-63509152D01*
X203069410Y-63395832D01*
X203124090Y-63294792D01*
X203152720Y-63262372D01*
X203157542Y-63257549D01*
X203157542Y-63257548D01*
X203157546Y-63257546D01*
X203243796Y-63142331D01*
X203294091Y-63007483D01*
X203300500Y-62947873D01*
X203300499Y-60852128D01*
X203294091Y-60792517D01*
X203243796Y-60657669D01*
X203157546Y-60542454D01*
X203088621Y-60490857D01*
X203042329Y-60456202D01*
X202907483Y-60405909D01*
X202907485Y-60405909D01*
X202883639Y-60403345D01*
X202847873Y-60399500D01*
X202847870Y-60399500D01*
X201152110Y-60399500D01*
X201149009Y-60399667D01*
X201147531Y-60399500D01*
X201142782Y-60399501D01*
X201142782Y-60398967D01*
X201034840Y-60386841D01*
X200931022Y-60337639D01*
X200883577Y-60297946D01*
X196252720Y-55667089D01*
X196185962Y-55573589D01*
X196153180Y-55463478D01*
X196150500Y-55420309D01*
X196150500Y-54555615D01*
X196169410Y-54442295D01*
X196224090Y-54341255D01*
X196308615Y-54263444D01*
X196332244Y-54249304D01*
X196342328Y-54243797D01*
X196342327Y-54243797D01*
X196342331Y-54243796D01*
X196457546Y-54157546D01*
X196543796Y-54042331D01*
X196594091Y-53907483D01*
X196600500Y-53847873D01*
X196600499Y-52152128D01*
X196594091Y-52092517D01*
X196563363Y-52010130D01*
X196543797Y-51957671D01*
X196523787Y-51930941D01*
X196457546Y-51842454D01*
X196388621Y-51790857D01*
X196342329Y-51756202D01*
X196207483Y-51705909D01*
X196207485Y-51705909D01*
X196177678Y-51702704D01*
X196147873Y-51699500D01*
X196147871Y-51699500D01*
X195296548Y-51699500D01*
X195183228Y-51680590D01*
X195138109Y-51661463D01*
X195035992Y-51609432D01*
X194811376Y-51536449D01*
X194811361Y-51536445D01*
X194578096Y-51499500D01*
X194564418Y-51498424D01*
X194564662Y-51495323D01*
X194476371Y-51480590D01*
X194375331Y-51425910D01*
X194342911Y-51397280D01*
X191692720Y-48747089D01*
X191625962Y-48653589D01*
X191593180Y-48543478D01*
X191590500Y-48500309D01*
X191590500Y-47216087D01*
X191609410Y-47102767D01*
X191664090Y-47001727D01*
X191675991Y-46988249D01*
X191675617Y-46987930D01*
X191684508Y-46977518D01*
X191684517Y-46977510D01*
X191823343Y-46786433D01*
X191930568Y-46575992D01*
X192003553Y-46351368D01*
X192040500Y-46118092D01*
X192040500Y-45881908D01*
X192003553Y-45648632D01*
X191930568Y-45424008D01*
X191823343Y-45213567D01*
X191684517Y-45022490D01*
X191517510Y-44855483D01*
X191326433Y-44716657D01*
X191326434Y-44716657D01*
X191326432Y-44716656D01*
X191326427Y-44716653D01*
X191116000Y-44609436D01*
X191115998Y-44609435D01*
X191115992Y-44609432D01*
X191115987Y-44609430D01*
X191115984Y-44609429D01*
X190891376Y-44536449D01*
X190891361Y-44536445D01*
X190658096Y-44499500D01*
X190658092Y-44499500D01*
X190421908Y-44499500D01*
X190421903Y-44499500D01*
X190188638Y-44536445D01*
X190188623Y-44536449D01*
X189964015Y-44609429D01*
X189963999Y-44609436D01*
X189753572Y-44716653D01*
X189753567Y-44716656D01*
X189562487Y-44855485D01*
X189516778Y-44901194D01*
X189423277Y-44967952D01*
X189313166Y-45000732D01*
X189198377Y-44995984D01*
X189091349Y-44954220D01*
X189023222Y-44901194D01*
X188977512Y-44855485D01*
X188977511Y-44855484D01*
X188977510Y-44855483D01*
X188786433Y-44716657D01*
X188786434Y-44716657D01*
X188786432Y-44716656D01*
X188786427Y-44716653D01*
X188576000Y-44609436D01*
X188575998Y-44609435D01*
X188575992Y-44609432D01*
X188575987Y-44609430D01*
X188575984Y-44609429D01*
X188351376Y-44536449D01*
X188351361Y-44536445D01*
X188118096Y-44499500D01*
X188118092Y-44499500D01*
X187881908Y-44499500D01*
X187881903Y-44499500D01*
X187648638Y-44536445D01*
X187648623Y-44536449D01*
X187424015Y-44609429D01*
X187423999Y-44609436D01*
X187213572Y-44716653D01*
X187213567Y-44716656D01*
X187022488Y-44855484D01*
X186855484Y-45022488D01*
X186716656Y-45213567D01*
X186716653Y-45213572D01*
X186609436Y-45423999D01*
X186609429Y-45424015D01*
X186536449Y-45648623D01*
X186536445Y-45648638D01*
X186499500Y-45881903D01*
X186499500Y-46118096D01*
X186536445Y-46351361D01*
X186536449Y-46351376D01*
X186609429Y-46575984D01*
X186609431Y-46575990D01*
X186609436Y-46576000D01*
X186716653Y-46786427D01*
X186716656Y-46786432D01*
X186716657Y-46786433D01*
X186855483Y-46977510D01*
X186855485Y-46977512D01*
X186864383Y-46987930D01*
X186862018Y-46989949D01*
X186914038Y-47062807D01*
X186946820Y-47172918D01*
X186949500Y-47216087D01*
X186949500Y-58451887D01*
X186930590Y-58565207D01*
X186875910Y-58666247D01*
X186791385Y-58744058D01*
X186686174Y-58790208D01*
X186571680Y-58799695D01*
X186460308Y-58771492D01*
X186364129Y-58708655D01*
X186353720Y-58698667D01*
X168965745Y-41310692D01*
X168965741Y-41310687D01*
X168825504Y-41170450D01*
X168825501Y-41170447D01*
X168678994Y-41064004D01*
X168678987Y-41064000D01*
X168678980Y-41063996D01*
X168517643Y-40981791D01*
X168517642Y-40981790D01*
X168517639Y-40981789D01*
X168517636Y-40981788D01*
X168517629Y-40981785D01*
X168345409Y-40925829D01*
X168166546Y-40897499D01*
X167985454Y-40897499D01*
X167971049Y-40897499D01*
X167971025Y-40897500D01*
X150865975Y-40897500D01*
X150865951Y-40897499D01*
X150851546Y-40897499D01*
X150670453Y-40897499D01*
X150670452Y-40897499D01*
X150491590Y-40925829D01*
X150319370Y-40981785D01*
X150319356Y-40981791D01*
X150158019Y-41063996D01*
X150158003Y-41064006D01*
X150011499Y-41170447D01*
X150011495Y-41170450D01*
X127230499Y-63951447D01*
X127230498Y-63951448D01*
X127102449Y-64079496D01*
X127102448Y-64079496D01*
X127013455Y-64201987D01*
X127013454Y-64201989D01*
X126995999Y-64226012D01*
X126913791Y-64387356D01*
X126913785Y-64387370D01*
X126857829Y-64559590D01*
X126829499Y-64738453D01*
X126829499Y-64933950D01*
X126829500Y-64933975D01*
X126829500Y-91581550D01*
X126857827Y-91760401D01*
X126857831Y-91760418D01*
X126913785Y-91932629D01*
X126913791Y-91932643D01*
X126995996Y-92093980D01*
X126996000Y-92093987D01*
X126996004Y-92093994D01*
X127102447Y-92240501D01*
X127230499Y-92368553D01*
X127285508Y-92408519D01*
X127366068Y-92490422D01*
X127415672Y-92594049D01*
X127428940Y-92708167D01*
X127404435Y-92820410D01*
X127344813Y-92918615D01*
X127292829Y-92967742D01*
X127211197Y-93030381D01*
X127211174Y-93030401D01*
X127030401Y-93211174D01*
X127030386Y-93211192D01*
X126874739Y-93414033D01*
X126874738Y-93414035D01*
X126746897Y-93635463D01*
X126746891Y-93635475D01*
X126649050Y-93871684D01*
X126649050Y-93871686D01*
X126582875Y-94118653D01*
X126582872Y-94118670D01*
X126549500Y-94372158D01*
X126549500Y-94627841D01*
X126582872Y-94881329D01*
X126582875Y-94881346D01*
X126649050Y-95128313D01*
X126649050Y-95128315D01*
X126659882Y-95154465D01*
X126746896Y-95364535D01*
X126746897Y-95364536D01*
X126874738Y-95585964D01*
X126874739Y-95585966D01*
X126961833Y-95699468D01*
X127030390Y-95788813D01*
X127030396Y-95788819D01*
X127030401Y-95788825D01*
X127211174Y-95969598D01*
X127211180Y-95969603D01*
X127211187Y-95969610D01*
X127321484Y-96054244D01*
X127414033Y-96125260D01*
X127414035Y-96125261D01*
X127635465Y-96253104D01*
X127871687Y-96350950D01*
X128118660Y-96417126D01*
X128372157Y-96450500D01*
X128372159Y-96450500D01*
X128627841Y-96450500D01*
X128627843Y-96450500D01*
X128881340Y-96417126D01*
X129128313Y-96350950D01*
X129364535Y-96253104D01*
X129585965Y-96125261D01*
X129788813Y-95969610D01*
X129969610Y-95788813D01*
X130125261Y-95585965D01*
X130253104Y-95364535D01*
X130350950Y-95128313D01*
X130417126Y-94881340D01*
X130450500Y-94627843D01*
X130450500Y-94372157D01*
X130417126Y-94118660D01*
X130350950Y-93871687D01*
X130253104Y-93635465D01*
X130125261Y-93414035D01*
X129969610Y-93211187D01*
X129963296Y-93202958D01*
X129909313Y-93101543D01*
X129891184Y-92988095D01*
X129910874Y-92874908D01*
X129966249Y-92774247D01*
X130051309Y-92697021D01*
X130156835Y-92651597D01*
X130240176Y-92641500D01*
X156484025Y-92641500D01*
X156484049Y-92641501D01*
X156498454Y-92641501D01*
X156679543Y-92641501D01*
X156679546Y-92641501D01*
X156858409Y-92613171D01*
X157030639Y-92557211D01*
X157161719Y-92490422D01*
X157191989Y-92474999D01*
X157191991Y-92474997D01*
X157191994Y-92474996D01*
X157205848Y-92464930D01*
X157219700Y-92454867D01*
X157219702Y-92454865D01*
X157338501Y-92368553D01*
X157423876Y-92283178D01*
X157454336Y-92252719D01*
X157547837Y-92185961D01*
X157657948Y-92153180D01*
X157701115Y-92150500D01*
X159164316Y-92150500D01*
X159277636Y-92169410D01*
X159378676Y-92224090D01*
X159456487Y-92308615D01*
X159502637Y-92413826D01*
X159512124Y-92528320D01*
X159483921Y-92639692D01*
X159421084Y-92735871D01*
X159381914Y-92772358D01*
X159373388Y-92779157D01*
X159164332Y-92945874D01*
X159164324Y-92945881D01*
X158945881Y-93164324D01*
X158945874Y-93164332D01*
X158753267Y-93405854D01*
X158753263Y-93405859D01*
X158588909Y-93667428D01*
X158588897Y-93667450D01*
X158454871Y-93945755D01*
X158454863Y-93945775D01*
X158352835Y-94237353D01*
X158352830Y-94237370D01*
X158285049Y-94534342D01*
X158284089Y-94538548D01*
X158249500Y-94845535D01*
X158249500Y-95154465D01*
X158284089Y-95461452D01*
X158284090Y-95461457D01*
X158352830Y-95762629D01*
X158352835Y-95762646D01*
X158454863Y-96054224D01*
X158454871Y-96054244D01*
X158550638Y-96253104D01*
X158588905Y-96332565D01*
X158600457Y-96350950D01*
X158753263Y-96594140D01*
X158753267Y-96594145D01*
X158945874Y-96835667D01*
X158952398Y-96842967D01*
X158950470Y-96844689D01*
X159006184Y-96922720D01*
X159038966Y-97032831D01*
X159034218Y-97147620D01*
X158992456Y-97254648D01*
X158918204Y-97342316D01*
X158819510Y-97401125D01*
X158707068Y-97424702D01*
X158692646Y-97425000D01*
X125923999Y-97425000D01*
X125810679Y-97406090D01*
X125709639Y-97351410D01*
X125631828Y-97266885D01*
X125585678Y-97161674D01*
X125574999Y-97076000D01*
X125574999Y-33372158D01*
X126549500Y-33372158D01*
X126549500Y-33627841D01*
X126582872Y-33881329D01*
X126582875Y-33881346D01*
X126649050Y-34128313D01*
X126649050Y-34128315D01*
X126746891Y-34364524D01*
X126746896Y-34364535D01*
X126746897Y-34364536D01*
X126874738Y-34585964D01*
X126874739Y-34585966D01*
X126961833Y-34699468D01*
X127030390Y-34788813D01*
X127030396Y-34788819D01*
X127030401Y-34788825D01*
X127211174Y-34969598D01*
X127211180Y-34969603D01*
X127211187Y-34969610D01*
X127334947Y-35064574D01*
X127414033Y-35125260D01*
X127414035Y-35125261D01*
X127635465Y-35253104D01*
X127871687Y-35350950D01*
X128118660Y-35417126D01*
X128372157Y-35450500D01*
X128372159Y-35450500D01*
X128627841Y-35450500D01*
X128627843Y-35450500D01*
X128881340Y-35417126D01*
X129128313Y-35350950D01*
X129364535Y-35253104D01*
X129585965Y-35125261D01*
X129788813Y-34969610D01*
X129969610Y-34788813D01*
X130125261Y-34585965D01*
X130253104Y-34364535D01*
X130350950Y-34128313D01*
X130417126Y-33881340D01*
X130450500Y-33627843D01*
X130450500Y-33372158D01*
X205549500Y-33372158D01*
X205549500Y-33627841D01*
X205582872Y-33881329D01*
X205582875Y-33881346D01*
X205649050Y-34128313D01*
X205649050Y-34128315D01*
X205746891Y-34364524D01*
X205746896Y-34364535D01*
X205746897Y-34364536D01*
X205874738Y-34585964D01*
X205874739Y-34585966D01*
X205961833Y-34699468D01*
X206030390Y-34788813D01*
X206030396Y-34788819D01*
X206030401Y-34788825D01*
X206211174Y-34969598D01*
X206211180Y-34969603D01*
X206211187Y-34969610D01*
X206334947Y-35064574D01*
X206414033Y-35125260D01*
X206414035Y-35125261D01*
X206635465Y-35253104D01*
X206871687Y-35350950D01*
X207118660Y-35417126D01*
X207372157Y-35450500D01*
X207372159Y-35450500D01*
X207627841Y-35450500D01*
X207627843Y-35450500D01*
X207881340Y-35417126D01*
X208128313Y-35350950D01*
X208364535Y-35253104D01*
X208585965Y-35125261D01*
X208788813Y-34969610D01*
X208969610Y-34788813D01*
X209125261Y-34585965D01*
X209253104Y-34364535D01*
X209350950Y-34128313D01*
X209417126Y-33881340D01*
X209450500Y-33627843D01*
X209450500Y-33372157D01*
X209417126Y-33118660D01*
X209350950Y-32871687D01*
X209253104Y-32635465D01*
X209125261Y-32414035D01*
X209125260Y-32414033D01*
X209064574Y-32334947D01*
X208969610Y-32211187D01*
X208969603Y-32211180D01*
X208969598Y-32211174D01*
X208788825Y-32030401D01*
X208788819Y-32030396D01*
X208788813Y-32030390D01*
X208699468Y-31961833D01*
X208585966Y-31874739D01*
X208585964Y-31874738D01*
X208475250Y-31810817D01*
X208364535Y-31746896D01*
X208364529Y-31746893D01*
X208364524Y-31746891D01*
X208128314Y-31649050D01*
X207881346Y-31582875D01*
X207881329Y-31582872D01*
X207709726Y-31560280D01*
X207627843Y-31549500D01*
X207372157Y-31549500D01*
X207301660Y-31558781D01*
X207118670Y-31582872D01*
X207118653Y-31582875D01*
X206871686Y-31649050D01*
X206871684Y-31649050D01*
X206635475Y-31746891D01*
X206635463Y-31746897D01*
X206414035Y-31874738D01*
X206414033Y-31874739D01*
X206211192Y-32030386D01*
X206211174Y-32030401D01*
X206030401Y-32211174D01*
X206030386Y-32211192D01*
X205874739Y-32414033D01*
X205874738Y-32414035D01*
X205746897Y-32635463D01*
X205746891Y-32635475D01*
X205649050Y-32871684D01*
X205649050Y-32871686D01*
X205582875Y-33118653D01*
X205582872Y-33118670D01*
X205549500Y-33372158D01*
X130450500Y-33372158D01*
X130450500Y-33372157D01*
X130417126Y-33118660D01*
X130350950Y-32871687D01*
X130253104Y-32635465D01*
X130125261Y-32414035D01*
X130125260Y-32414033D01*
X130064574Y-32334947D01*
X129969610Y-32211187D01*
X129969603Y-32211180D01*
X129969598Y-32211174D01*
X129788825Y-32030401D01*
X129788819Y-32030396D01*
X129788813Y-32030390D01*
X129699468Y-31961833D01*
X129585966Y-31874739D01*
X129585964Y-31874738D01*
X129475250Y-31810817D01*
X129364535Y-31746896D01*
X129364529Y-31746893D01*
X129364524Y-31746891D01*
X129128314Y-31649050D01*
X128881346Y-31582875D01*
X128881329Y-31582872D01*
X128709726Y-31560280D01*
X128627843Y-31549500D01*
X128372157Y-31549500D01*
X128301660Y-31558781D01*
X128118670Y-31582872D01*
X128118653Y-31582875D01*
X127871686Y-31649050D01*
X127871684Y-31649050D01*
X127635475Y-31746891D01*
X127635463Y-31746897D01*
X127414035Y-31874738D01*
X127414033Y-31874739D01*
X127211192Y-32030386D01*
X127211174Y-32030401D01*
X127030401Y-32211174D01*
X127030386Y-32211192D01*
X126874739Y-32414033D01*
X126874738Y-32414035D01*
X126746897Y-32635463D01*
X126746891Y-32635475D01*
X126649050Y-32871684D01*
X126649050Y-32871686D01*
X126582875Y-33118653D01*
X126582872Y-33118670D01*
X126549500Y-33372158D01*
X125574999Y-33372158D01*
X125574999Y-30924000D01*
X125593909Y-30810680D01*
X125648589Y-30709640D01*
X125733114Y-30631829D01*
X125838325Y-30585679D01*
X125923999Y-30575000D01*
X210076000Y-30575000D01*
X210189320Y-30593910D01*
G37*
%TD.AperFunction*%
%TD*%
M02*
