%TF.GenerationSoftware,KiCad,Pcbnew,10.0.6*%
%TF.CreationDate,2026-09-09T17:01:33+03:00*%
%TF.ProjectId,candidate,63616e64-6964-4617-9465-2e6b69636164,rev?*%
%TF.SameCoordinates,Original*%
%TF.FileFunction,Legend,Top*%
%TF.FilePolarity,Positive*%
%FSLAX46Y46*%
G04 Gerber Fmt 4.6, Leading zero omitted, Abs format (unit mm)*
G04 Created by KiCad (PCBNEW 10.0.6) date 2026-09-09 17:01:33*
%MOMM*%
%LPD*%
G01*
G04 APERTURE LIST*
%ADD10C,0.120000*%
G04 APERTURE END LIST*
D10*
X65271428Y-91510117D02*
X65871428Y-92410117D01*
X65871428Y-91510117D02*
X65271428Y-92410117D01*
X66342857Y-91895831D02*
X66257142Y-91852974D01*
X66257142Y-91852974D02*
X66214285Y-91810117D01*
X66214285Y-91810117D02*
X66171428Y-91724402D01*
X66171428Y-91724402D02*
X66171428Y-91681545D01*
X66171428Y-91681545D02*
X66214285Y-91595831D01*
X66214285Y-91595831D02*
X66257142Y-91552974D01*
X66257142Y-91552974D02*
X66342857Y-91510117D01*
X66342857Y-91510117D02*
X66514285Y-91510117D01*
X66514285Y-91510117D02*
X66600000Y-91552974D01*
X66600000Y-91552974D02*
X66642857Y-91595831D01*
X66642857Y-91595831D02*
X66685714Y-91681545D01*
X66685714Y-91681545D02*
X66685714Y-91724402D01*
X66685714Y-91724402D02*
X66642857Y-91810117D01*
X66642857Y-91810117D02*
X66600000Y-91852974D01*
X66600000Y-91852974D02*
X66514285Y-91895831D01*
X66514285Y-91895831D02*
X66342857Y-91895831D01*
X66342857Y-91895831D02*
X66257142Y-91938688D01*
X66257142Y-91938688D02*
X66214285Y-91981545D01*
X66214285Y-91981545D02*
X66171428Y-92067260D01*
X66171428Y-92067260D02*
X66171428Y-92238688D01*
X66171428Y-92238688D02*
X66214285Y-92324402D01*
X66214285Y-92324402D02*
X66257142Y-92367260D01*
X66257142Y-92367260D02*
X66342857Y-92410117D01*
X66342857Y-92410117D02*
X66514285Y-92410117D01*
X66514285Y-92410117D02*
X66600000Y-92367260D01*
X66600000Y-92367260D02*
X66642857Y-92324402D01*
X66642857Y-92324402D02*
X66685714Y-92238688D01*
X66685714Y-92238688D02*
X66685714Y-92067260D01*
X66685714Y-92067260D02*
X66642857Y-91981545D01*
X66642857Y-91981545D02*
X66600000Y-91938688D01*
X66600000Y-91938688D02*
X66514285Y-91895831D01*
X104350000Y-60410117D02*
X104050000Y-59981545D01*
X103835714Y-60410117D02*
X103835714Y-59510117D01*
X103835714Y-59510117D02*
X104178571Y-59510117D01*
X104178571Y-59510117D02*
X104264286Y-59552974D01*
X104264286Y-59552974D02*
X104307143Y-59595831D01*
X104307143Y-59595831D02*
X104350000Y-59681545D01*
X104350000Y-59681545D02*
X104350000Y-59810117D01*
X104350000Y-59810117D02*
X104307143Y-59895831D01*
X104307143Y-59895831D02*
X104264286Y-59938688D01*
X104264286Y-59938688D02*
X104178571Y-59981545D01*
X104178571Y-59981545D02*
X103835714Y-59981545D01*
X105121429Y-59510117D02*
X104950000Y-59510117D01*
X104950000Y-59510117D02*
X104864286Y-59552974D01*
X104864286Y-59552974D02*
X104821429Y-59595831D01*
X104821429Y-59595831D02*
X104735714Y-59724402D01*
X104735714Y-59724402D02*
X104692857Y-59895831D01*
X104692857Y-59895831D02*
X104692857Y-60238688D01*
X104692857Y-60238688D02*
X104735714Y-60324402D01*
X104735714Y-60324402D02*
X104778571Y-60367260D01*
X104778571Y-60367260D02*
X104864286Y-60410117D01*
X104864286Y-60410117D02*
X105035714Y-60410117D01*
X105035714Y-60410117D02*
X105121429Y-60367260D01*
X105121429Y-60367260D02*
X105164286Y-60324402D01*
X105164286Y-60324402D02*
X105207143Y-60238688D01*
X105207143Y-60238688D02*
X105207143Y-60024402D01*
X105207143Y-60024402D02*
X105164286Y-59938688D01*
X105164286Y-59938688D02*
X105121429Y-59895831D01*
X105121429Y-59895831D02*
X105035714Y-59852974D01*
X105035714Y-59852974D02*
X104864286Y-59852974D01*
X104864286Y-59852974D02*
X104778571Y-59895831D01*
X104778571Y-59895831D02*
X104735714Y-59938688D01*
X104735714Y-59938688D02*
X104692857Y-60024402D01*
X69350000Y-69410117D02*
X69050000Y-68981545D01*
X68835714Y-69410117D02*
X68835714Y-68510117D01*
X68835714Y-68510117D02*
X69178571Y-68510117D01*
X69178571Y-68510117D02*
X69264286Y-68552974D01*
X69264286Y-68552974D02*
X69307143Y-68595831D01*
X69307143Y-68595831D02*
X69350000Y-68681545D01*
X69350000Y-68681545D02*
X69350000Y-68810117D01*
X69350000Y-68810117D02*
X69307143Y-68895831D01*
X69307143Y-68895831D02*
X69264286Y-68938688D01*
X69264286Y-68938688D02*
X69178571Y-68981545D01*
X69178571Y-68981545D02*
X68835714Y-68981545D01*
X69692857Y-68595831D02*
X69735714Y-68552974D01*
X69735714Y-68552974D02*
X69821429Y-68510117D01*
X69821429Y-68510117D02*
X70035714Y-68510117D01*
X70035714Y-68510117D02*
X70121429Y-68552974D01*
X70121429Y-68552974D02*
X70164286Y-68595831D01*
X70164286Y-68595831D02*
X70207143Y-68681545D01*
X70207143Y-68681545D02*
X70207143Y-68767260D01*
X70207143Y-68767260D02*
X70164286Y-68895831D01*
X70164286Y-68895831D02*
X69650000Y-69410117D01*
X69650000Y-69410117D02*
X70207143Y-69410117D01*
X59271428Y-43010117D02*
X59271428Y-43652974D01*
X59271428Y-43652974D02*
X59228571Y-43781545D01*
X59228571Y-43781545D02*
X59142857Y-43867260D01*
X59142857Y-43867260D02*
X59014285Y-43910117D01*
X59014285Y-43910117D02*
X58928571Y-43910117D01*
X59614285Y-43010117D02*
X60171428Y-43010117D01*
X60171428Y-43010117D02*
X59871428Y-43352974D01*
X59871428Y-43352974D02*
X59999999Y-43352974D01*
X59999999Y-43352974D02*
X60085714Y-43395831D01*
X60085714Y-43395831D02*
X60128571Y-43438688D01*
X60128571Y-43438688D02*
X60171428Y-43524402D01*
X60171428Y-43524402D02*
X60171428Y-43738688D01*
X60171428Y-43738688D02*
X60128571Y-43824402D01*
X60128571Y-43824402D02*
X60085714Y-43867260D01*
X60085714Y-43867260D02*
X59999999Y-43910117D01*
X59999999Y-43910117D02*
X59742856Y-43910117D01*
X59742856Y-43910117D02*
X59657142Y-43867260D01*
X59657142Y-43867260D02*
X59614285Y-43824402D01*
X60514285Y-43095831D02*
X60557142Y-43052974D01*
X60557142Y-43052974D02*
X60642857Y-43010117D01*
X60642857Y-43010117D02*
X60857142Y-43010117D01*
X60857142Y-43010117D02*
X60942857Y-43052974D01*
X60942857Y-43052974D02*
X60985714Y-43095831D01*
X60985714Y-43095831D02*
X61028571Y-43181545D01*
X61028571Y-43181545D02*
X61028571Y-43267260D01*
X61028571Y-43267260D02*
X60985714Y-43395831D01*
X60985714Y-43395831D02*
X60471428Y-43910117D01*
X60471428Y-43910117D02*
X61028571Y-43910117D01*
X77350000Y-69410117D02*
X77050000Y-68981545D01*
X76835714Y-69410117D02*
X76835714Y-68510117D01*
X76835714Y-68510117D02*
X77178571Y-68510117D01*
X77178571Y-68510117D02*
X77264286Y-68552974D01*
X77264286Y-68552974D02*
X77307143Y-68595831D01*
X77307143Y-68595831D02*
X77350000Y-68681545D01*
X77350000Y-68681545D02*
X77350000Y-68810117D01*
X77350000Y-68810117D02*
X77307143Y-68895831D01*
X77307143Y-68895831D02*
X77264286Y-68938688D01*
X77264286Y-68938688D02*
X77178571Y-68981545D01*
X77178571Y-68981545D02*
X76835714Y-68981545D01*
X78121429Y-68810117D02*
X78121429Y-69410117D01*
X77907143Y-68467260D02*
X77692857Y-69110117D01*
X77692857Y-69110117D02*
X78250000Y-69110117D01*
X101850000Y-50824402D02*
X101807143Y-50867260D01*
X101807143Y-50867260D02*
X101678571Y-50910117D01*
X101678571Y-50910117D02*
X101592857Y-50910117D01*
X101592857Y-50910117D02*
X101464286Y-50867260D01*
X101464286Y-50867260D02*
X101378571Y-50781545D01*
X101378571Y-50781545D02*
X101335714Y-50695831D01*
X101335714Y-50695831D02*
X101292857Y-50524402D01*
X101292857Y-50524402D02*
X101292857Y-50395831D01*
X101292857Y-50395831D02*
X101335714Y-50224402D01*
X101335714Y-50224402D02*
X101378571Y-50138688D01*
X101378571Y-50138688D02*
X101464286Y-50052974D01*
X101464286Y-50052974D02*
X101592857Y-50010117D01*
X101592857Y-50010117D02*
X101678571Y-50010117D01*
X101678571Y-50010117D02*
X101807143Y-50052974D01*
X101807143Y-50052974D02*
X101850000Y-50095831D01*
X102664286Y-50010117D02*
X102235714Y-50010117D01*
X102235714Y-50010117D02*
X102192857Y-50438688D01*
X102192857Y-50438688D02*
X102235714Y-50395831D01*
X102235714Y-50395831D02*
X102321429Y-50352974D01*
X102321429Y-50352974D02*
X102535714Y-50352974D01*
X102535714Y-50352974D02*
X102621429Y-50395831D01*
X102621429Y-50395831D02*
X102664286Y-50438688D01*
X102664286Y-50438688D02*
X102707143Y-50524402D01*
X102707143Y-50524402D02*
X102707143Y-50738688D01*
X102707143Y-50738688D02*
X102664286Y-50824402D01*
X102664286Y-50824402D02*
X102621429Y-50867260D01*
X102621429Y-50867260D02*
X102535714Y-50910117D01*
X102535714Y-50910117D02*
X102321429Y-50910117D01*
X102321429Y-50910117D02*
X102235714Y-50867260D01*
X102235714Y-50867260D02*
X102192857Y-50824402D01*
X96850000Y-57824402D02*
X96807143Y-57867260D01*
X96807143Y-57867260D02*
X96678571Y-57910117D01*
X96678571Y-57910117D02*
X96592857Y-57910117D01*
X96592857Y-57910117D02*
X96464286Y-57867260D01*
X96464286Y-57867260D02*
X96378571Y-57781545D01*
X96378571Y-57781545D02*
X96335714Y-57695831D01*
X96335714Y-57695831D02*
X96292857Y-57524402D01*
X96292857Y-57524402D02*
X96292857Y-57395831D01*
X96292857Y-57395831D02*
X96335714Y-57224402D01*
X96335714Y-57224402D02*
X96378571Y-57138688D01*
X96378571Y-57138688D02*
X96464286Y-57052974D01*
X96464286Y-57052974D02*
X96592857Y-57010117D01*
X96592857Y-57010117D02*
X96678571Y-57010117D01*
X96678571Y-57010117D02*
X96807143Y-57052974D01*
X96807143Y-57052974D02*
X96850000Y-57095831D01*
X97278571Y-57910117D02*
X97450000Y-57910117D01*
X97450000Y-57910117D02*
X97535714Y-57867260D01*
X97535714Y-57867260D02*
X97578571Y-57824402D01*
X97578571Y-57824402D02*
X97664286Y-57695831D01*
X97664286Y-57695831D02*
X97707143Y-57524402D01*
X97707143Y-57524402D02*
X97707143Y-57181545D01*
X97707143Y-57181545D02*
X97664286Y-57095831D01*
X97664286Y-57095831D02*
X97621429Y-57052974D01*
X97621429Y-57052974D02*
X97535714Y-57010117D01*
X97535714Y-57010117D02*
X97364286Y-57010117D01*
X97364286Y-57010117D02*
X97278571Y-57052974D01*
X97278571Y-57052974D02*
X97235714Y-57095831D01*
X97235714Y-57095831D02*
X97192857Y-57181545D01*
X97192857Y-57181545D02*
X97192857Y-57395831D01*
X97192857Y-57395831D02*
X97235714Y-57481545D01*
X97235714Y-57481545D02*
X97278571Y-57524402D01*
X97278571Y-57524402D02*
X97364286Y-57567260D01*
X97364286Y-57567260D02*
X97535714Y-57567260D01*
X97535714Y-57567260D02*
X97621429Y-57524402D01*
X97621429Y-57524402D02*
X97664286Y-57481545D01*
X97664286Y-57481545D02*
X97707143Y-57395831D01*
X35271428Y-62010117D02*
X35271428Y-62652974D01*
X35271428Y-62652974D02*
X35228571Y-62781545D01*
X35228571Y-62781545D02*
X35142857Y-62867260D01*
X35142857Y-62867260D02*
X35014285Y-62910117D01*
X35014285Y-62910117D02*
X34928571Y-62910117D01*
X35657142Y-62095831D02*
X35699999Y-62052974D01*
X35699999Y-62052974D02*
X35785714Y-62010117D01*
X35785714Y-62010117D02*
X35999999Y-62010117D01*
X35999999Y-62010117D02*
X36085714Y-62052974D01*
X36085714Y-62052974D02*
X36128571Y-62095831D01*
X36128571Y-62095831D02*
X36171428Y-62181545D01*
X36171428Y-62181545D02*
X36171428Y-62267260D01*
X36171428Y-62267260D02*
X36128571Y-62395831D01*
X36128571Y-62395831D02*
X35614285Y-62910117D01*
X35614285Y-62910117D02*
X36171428Y-62910117D01*
X36985714Y-62010117D02*
X36557142Y-62010117D01*
X36557142Y-62010117D02*
X36514285Y-62438688D01*
X36514285Y-62438688D02*
X36557142Y-62395831D01*
X36557142Y-62395831D02*
X36642857Y-62352974D01*
X36642857Y-62352974D02*
X36857142Y-62352974D01*
X36857142Y-62352974D02*
X36942857Y-62395831D01*
X36942857Y-62395831D02*
X36985714Y-62438688D01*
X36985714Y-62438688D02*
X37028571Y-62524402D01*
X37028571Y-62524402D02*
X37028571Y-62738688D01*
X37028571Y-62738688D02*
X36985714Y-62824402D01*
X36985714Y-62824402D02*
X36942857Y-62867260D01*
X36942857Y-62867260D02*
X36857142Y-62910117D01*
X36857142Y-62910117D02*
X36642857Y-62910117D01*
X36642857Y-62910117D02*
X36557142Y-62867260D01*
X36557142Y-62867260D02*
X36514285Y-62824402D01*
X62350000Y-76410117D02*
X62050000Y-75981545D01*
X61835714Y-76410117D02*
X61835714Y-75510117D01*
X61835714Y-75510117D02*
X62178571Y-75510117D01*
X62178571Y-75510117D02*
X62264286Y-75552974D01*
X62264286Y-75552974D02*
X62307143Y-75595831D01*
X62307143Y-75595831D02*
X62350000Y-75681545D01*
X62350000Y-75681545D02*
X62350000Y-75810117D01*
X62350000Y-75810117D02*
X62307143Y-75895831D01*
X62307143Y-75895831D02*
X62264286Y-75938688D01*
X62264286Y-75938688D02*
X62178571Y-75981545D01*
X62178571Y-75981545D02*
X61835714Y-75981545D01*
X62864286Y-75895831D02*
X62778571Y-75852974D01*
X62778571Y-75852974D02*
X62735714Y-75810117D01*
X62735714Y-75810117D02*
X62692857Y-75724402D01*
X62692857Y-75724402D02*
X62692857Y-75681545D01*
X62692857Y-75681545D02*
X62735714Y-75595831D01*
X62735714Y-75595831D02*
X62778571Y-75552974D01*
X62778571Y-75552974D02*
X62864286Y-75510117D01*
X62864286Y-75510117D02*
X63035714Y-75510117D01*
X63035714Y-75510117D02*
X63121429Y-75552974D01*
X63121429Y-75552974D02*
X63164286Y-75595831D01*
X63164286Y-75595831D02*
X63207143Y-75681545D01*
X63207143Y-75681545D02*
X63207143Y-75724402D01*
X63207143Y-75724402D02*
X63164286Y-75810117D01*
X63164286Y-75810117D02*
X63121429Y-75852974D01*
X63121429Y-75852974D02*
X63035714Y-75895831D01*
X63035714Y-75895831D02*
X62864286Y-75895831D01*
X62864286Y-75895831D02*
X62778571Y-75938688D01*
X62778571Y-75938688D02*
X62735714Y-75981545D01*
X62735714Y-75981545D02*
X62692857Y-76067260D01*
X62692857Y-76067260D02*
X62692857Y-76238688D01*
X62692857Y-76238688D02*
X62735714Y-76324402D01*
X62735714Y-76324402D02*
X62778571Y-76367260D01*
X62778571Y-76367260D02*
X62864286Y-76410117D01*
X62864286Y-76410117D02*
X63035714Y-76410117D01*
X63035714Y-76410117D02*
X63121429Y-76367260D01*
X63121429Y-76367260D02*
X63164286Y-76324402D01*
X63164286Y-76324402D02*
X63207143Y-76238688D01*
X63207143Y-76238688D02*
X63207143Y-76067260D01*
X63207143Y-76067260D02*
X63164286Y-75981545D01*
X63164286Y-75981545D02*
X63121429Y-75938688D01*
X63121429Y-75938688D02*
X63035714Y-75895831D01*
X62850000Y-56824402D02*
X62807143Y-56867260D01*
X62807143Y-56867260D02*
X62678571Y-56910117D01*
X62678571Y-56910117D02*
X62592857Y-56910117D01*
X62592857Y-56910117D02*
X62464286Y-56867260D01*
X62464286Y-56867260D02*
X62378571Y-56781545D01*
X62378571Y-56781545D02*
X62335714Y-56695831D01*
X62335714Y-56695831D02*
X62292857Y-56524402D01*
X62292857Y-56524402D02*
X62292857Y-56395831D01*
X62292857Y-56395831D02*
X62335714Y-56224402D01*
X62335714Y-56224402D02*
X62378571Y-56138688D01*
X62378571Y-56138688D02*
X62464286Y-56052974D01*
X62464286Y-56052974D02*
X62592857Y-56010117D01*
X62592857Y-56010117D02*
X62678571Y-56010117D01*
X62678571Y-56010117D02*
X62807143Y-56052974D01*
X62807143Y-56052974D02*
X62850000Y-56095831D01*
X63364286Y-56395831D02*
X63278571Y-56352974D01*
X63278571Y-56352974D02*
X63235714Y-56310117D01*
X63235714Y-56310117D02*
X63192857Y-56224402D01*
X63192857Y-56224402D02*
X63192857Y-56181545D01*
X63192857Y-56181545D02*
X63235714Y-56095831D01*
X63235714Y-56095831D02*
X63278571Y-56052974D01*
X63278571Y-56052974D02*
X63364286Y-56010117D01*
X63364286Y-56010117D02*
X63535714Y-56010117D01*
X63535714Y-56010117D02*
X63621429Y-56052974D01*
X63621429Y-56052974D02*
X63664286Y-56095831D01*
X63664286Y-56095831D02*
X63707143Y-56181545D01*
X63707143Y-56181545D02*
X63707143Y-56224402D01*
X63707143Y-56224402D02*
X63664286Y-56310117D01*
X63664286Y-56310117D02*
X63621429Y-56352974D01*
X63621429Y-56352974D02*
X63535714Y-56395831D01*
X63535714Y-56395831D02*
X63364286Y-56395831D01*
X63364286Y-56395831D02*
X63278571Y-56438688D01*
X63278571Y-56438688D02*
X63235714Y-56481545D01*
X63235714Y-56481545D02*
X63192857Y-56567260D01*
X63192857Y-56567260D02*
X63192857Y-56738688D01*
X63192857Y-56738688D02*
X63235714Y-56824402D01*
X63235714Y-56824402D02*
X63278571Y-56867260D01*
X63278571Y-56867260D02*
X63364286Y-56910117D01*
X63364286Y-56910117D02*
X63535714Y-56910117D01*
X63535714Y-56910117D02*
X63621429Y-56867260D01*
X63621429Y-56867260D02*
X63664286Y-56824402D01*
X63664286Y-56824402D02*
X63707143Y-56738688D01*
X63707143Y-56738688D02*
X63707143Y-56567260D01*
X63707143Y-56567260D02*
X63664286Y-56481545D01*
X63664286Y-56481545D02*
X63621429Y-56438688D01*
X63621429Y-56438688D02*
X63535714Y-56395831D01*
X94700000Y-84010117D02*
X94700000Y-84652974D01*
X94700000Y-84652974D02*
X94657143Y-84781545D01*
X94657143Y-84781545D02*
X94571429Y-84867260D01*
X94571429Y-84867260D02*
X94442857Y-84910117D01*
X94442857Y-84910117D02*
X94357143Y-84910117D01*
X95557143Y-84010117D02*
X95128571Y-84010117D01*
X95128571Y-84010117D02*
X95085714Y-84438688D01*
X95085714Y-84438688D02*
X95128571Y-84395831D01*
X95128571Y-84395831D02*
X95214286Y-84352974D01*
X95214286Y-84352974D02*
X95428571Y-84352974D01*
X95428571Y-84352974D02*
X95514286Y-84395831D01*
X95514286Y-84395831D02*
X95557143Y-84438688D01*
X95557143Y-84438688D02*
X95600000Y-84524402D01*
X95600000Y-84524402D02*
X95600000Y-84738688D01*
X95600000Y-84738688D02*
X95557143Y-84824402D01*
X95557143Y-84824402D02*
X95514286Y-84867260D01*
X95514286Y-84867260D02*
X95428571Y-84910117D01*
X95428571Y-84910117D02*
X95214286Y-84910117D01*
X95214286Y-84910117D02*
X95128571Y-84867260D01*
X95128571Y-84867260D02*
X95085714Y-84824402D01*
X39200000Y-79510117D02*
X39200000Y-80152974D01*
X39200000Y-80152974D02*
X39157143Y-80281545D01*
X39157143Y-80281545D02*
X39071429Y-80367260D01*
X39071429Y-80367260D02*
X38942857Y-80410117D01*
X38942857Y-80410117D02*
X38857143Y-80410117D01*
X39542857Y-79510117D02*
X40100000Y-79510117D01*
X40100000Y-79510117D02*
X39800000Y-79852974D01*
X39800000Y-79852974D02*
X39928571Y-79852974D01*
X39928571Y-79852974D02*
X40014286Y-79895831D01*
X40014286Y-79895831D02*
X40057143Y-79938688D01*
X40057143Y-79938688D02*
X40100000Y-80024402D01*
X40100000Y-80024402D02*
X40100000Y-80238688D01*
X40100000Y-80238688D02*
X40057143Y-80324402D01*
X40057143Y-80324402D02*
X40014286Y-80367260D01*
X40014286Y-80367260D02*
X39928571Y-80410117D01*
X39928571Y-80410117D02*
X39671428Y-80410117D01*
X39671428Y-80410117D02*
X39585714Y-80367260D01*
X39585714Y-80367260D02*
X39542857Y-80324402D01*
X75850000Y-48824402D02*
X75807143Y-48867260D01*
X75807143Y-48867260D02*
X75678571Y-48910117D01*
X75678571Y-48910117D02*
X75592857Y-48910117D01*
X75592857Y-48910117D02*
X75464286Y-48867260D01*
X75464286Y-48867260D02*
X75378571Y-48781545D01*
X75378571Y-48781545D02*
X75335714Y-48695831D01*
X75335714Y-48695831D02*
X75292857Y-48524402D01*
X75292857Y-48524402D02*
X75292857Y-48395831D01*
X75292857Y-48395831D02*
X75335714Y-48224402D01*
X75335714Y-48224402D02*
X75378571Y-48138688D01*
X75378571Y-48138688D02*
X75464286Y-48052974D01*
X75464286Y-48052974D02*
X75592857Y-48010117D01*
X75592857Y-48010117D02*
X75678571Y-48010117D01*
X75678571Y-48010117D02*
X75807143Y-48052974D01*
X75807143Y-48052974D02*
X75850000Y-48095831D01*
X76621429Y-48310117D02*
X76621429Y-48910117D01*
X76407143Y-47967260D02*
X76192857Y-48610117D01*
X76192857Y-48610117D02*
X76750000Y-48610117D01*
X59700000Y-84010117D02*
X59700000Y-84652974D01*
X59700000Y-84652974D02*
X59657143Y-84781545D01*
X59657143Y-84781545D02*
X59571429Y-84867260D01*
X59571429Y-84867260D02*
X59442857Y-84910117D01*
X59442857Y-84910117D02*
X59357143Y-84910117D01*
X60514286Y-84310117D02*
X60514286Y-84910117D01*
X60300000Y-83967260D02*
X60085714Y-84610117D01*
X60085714Y-84610117D02*
X60642857Y-84610117D01*
X109271428Y-72510117D02*
X109871428Y-73410117D01*
X109871428Y-72510117D02*
X109271428Y-73410117D01*
X110642857Y-72510117D02*
X110214285Y-72510117D01*
X110214285Y-72510117D02*
X110171428Y-72938688D01*
X110171428Y-72938688D02*
X110214285Y-72895831D01*
X110214285Y-72895831D02*
X110300000Y-72852974D01*
X110300000Y-72852974D02*
X110514285Y-72852974D01*
X110514285Y-72852974D02*
X110600000Y-72895831D01*
X110600000Y-72895831D02*
X110642857Y-72938688D01*
X110642857Y-72938688D02*
X110685714Y-73024402D01*
X110685714Y-73024402D02*
X110685714Y-73238688D01*
X110685714Y-73238688D02*
X110642857Y-73324402D01*
X110642857Y-73324402D02*
X110600000Y-73367260D01*
X110600000Y-73367260D02*
X110514285Y-73410117D01*
X110514285Y-73410117D02*
X110300000Y-73410117D01*
X110300000Y-73410117D02*
X110214285Y-73367260D01*
X110214285Y-73367260D02*
X110171428Y-73324402D01*
X71850000Y-59824402D02*
X71807143Y-59867260D01*
X71807143Y-59867260D02*
X71678571Y-59910117D01*
X71678571Y-59910117D02*
X71592857Y-59910117D01*
X71592857Y-59910117D02*
X71464286Y-59867260D01*
X71464286Y-59867260D02*
X71378571Y-59781545D01*
X71378571Y-59781545D02*
X71335714Y-59695831D01*
X71335714Y-59695831D02*
X71292857Y-59524402D01*
X71292857Y-59524402D02*
X71292857Y-59395831D01*
X71292857Y-59395831D02*
X71335714Y-59224402D01*
X71335714Y-59224402D02*
X71378571Y-59138688D01*
X71378571Y-59138688D02*
X71464286Y-59052974D01*
X71464286Y-59052974D02*
X71592857Y-59010117D01*
X71592857Y-59010117D02*
X71678571Y-59010117D01*
X71678571Y-59010117D02*
X71807143Y-59052974D01*
X71807143Y-59052974D02*
X71850000Y-59095831D01*
X72150000Y-59010117D02*
X72707143Y-59010117D01*
X72707143Y-59010117D02*
X72407143Y-59352974D01*
X72407143Y-59352974D02*
X72535714Y-59352974D01*
X72535714Y-59352974D02*
X72621429Y-59395831D01*
X72621429Y-59395831D02*
X72664286Y-59438688D01*
X72664286Y-59438688D02*
X72707143Y-59524402D01*
X72707143Y-59524402D02*
X72707143Y-59738688D01*
X72707143Y-59738688D02*
X72664286Y-59824402D01*
X72664286Y-59824402D02*
X72621429Y-59867260D01*
X72621429Y-59867260D02*
X72535714Y-59910117D01*
X72535714Y-59910117D02*
X72278571Y-59910117D01*
X72278571Y-59910117D02*
X72192857Y-59867260D01*
X72192857Y-59867260D02*
X72150000Y-59824402D01*
X70350000Y-77410117D02*
X70050000Y-76981545D01*
X69835714Y-77410117D02*
X69835714Y-76510117D01*
X69835714Y-76510117D02*
X70178571Y-76510117D01*
X70178571Y-76510117D02*
X70264286Y-76552974D01*
X70264286Y-76552974D02*
X70307143Y-76595831D01*
X70307143Y-76595831D02*
X70350000Y-76681545D01*
X70350000Y-76681545D02*
X70350000Y-76810117D01*
X70350000Y-76810117D02*
X70307143Y-76895831D01*
X70307143Y-76895831D02*
X70264286Y-76938688D01*
X70264286Y-76938688D02*
X70178571Y-76981545D01*
X70178571Y-76981545D02*
X69835714Y-76981545D01*
X71207143Y-77410117D02*
X70692857Y-77410117D01*
X70950000Y-77410117D02*
X70950000Y-76510117D01*
X70950000Y-76510117D02*
X70864286Y-76638688D01*
X70864286Y-76638688D02*
X70778571Y-76724402D01*
X70778571Y-76724402D02*
X70692857Y-76767260D01*
X56850000Y-63824402D02*
X56807143Y-63867260D01*
X56807143Y-63867260D02*
X56678571Y-63910117D01*
X56678571Y-63910117D02*
X56592857Y-63910117D01*
X56592857Y-63910117D02*
X56464286Y-63867260D01*
X56464286Y-63867260D02*
X56378571Y-63781545D01*
X56378571Y-63781545D02*
X56335714Y-63695831D01*
X56335714Y-63695831D02*
X56292857Y-63524402D01*
X56292857Y-63524402D02*
X56292857Y-63395831D01*
X56292857Y-63395831D02*
X56335714Y-63224402D01*
X56335714Y-63224402D02*
X56378571Y-63138688D01*
X56378571Y-63138688D02*
X56464286Y-63052974D01*
X56464286Y-63052974D02*
X56592857Y-63010117D01*
X56592857Y-63010117D02*
X56678571Y-63010117D01*
X56678571Y-63010117D02*
X56807143Y-63052974D01*
X56807143Y-63052974D02*
X56850000Y-63095831D01*
X57150000Y-63010117D02*
X57750000Y-63010117D01*
X57750000Y-63010117D02*
X57364286Y-63910117D01*
X92271428Y-43010117D02*
X92271428Y-43652974D01*
X92271428Y-43652974D02*
X92228571Y-43781545D01*
X92228571Y-43781545D02*
X92142857Y-43867260D01*
X92142857Y-43867260D02*
X92014285Y-43910117D01*
X92014285Y-43910117D02*
X91928571Y-43910117D01*
X92614285Y-43010117D02*
X93171428Y-43010117D01*
X93171428Y-43010117D02*
X92871428Y-43352974D01*
X92871428Y-43352974D02*
X92999999Y-43352974D01*
X92999999Y-43352974D02*
X93085714Y-43395831D01*
X93085714Y-43395831D02*
X93128571Y-43438688D01*
X93128571Y-43438688D02*
X93171428Y-43524402D01*
X93171428Y-43524402D02*
X93171428Y-43738688D01*
X93171428Y-43738688D02*
X93128571Y-43824402D01*
X93128571Y-43824402D02*
X93085714Y-43867260D01*
X93085714Y-43867260D02*
X92999999Y-43910117D01*
X92999999Y-43910117D02*
X92742856Y-43910117D01*
X92742856Y-43910117D02*
X92657142Y-43867260D01*
X92657142Y-43867260D02*
X92614285Y-43824402D01*
X93471428Y-43010117D02*
X94028571Y-43010117D01*
X94028571Y-43010117D02*
X93728571Y-43352974D01*
X93728571Y-43352974D02*
X93857142Y-43352974D01*
X93857142Y-43352974D02*
X93942857Y-43395831D01*
X93942857Y-43395831D02*
X93985714Y-43438688D01*
X93985714Y-43438688D02*
X94028571Y-43524402D01*
X94028571Y-43524402D02*
X94028571Y-43738688D01*
X94028571Y-43738688D02*
X93985714Y-43824402D01*
X93985714Y-43824402D02*
X93942857Y-43867260D01*
X93942857Y-43867260D02*
X93857142Y-43910117D01*
X93857142Y-43910117D02*
X93599999Y-43910117D01*
X93599999Y-43910117D02*
X93514285Y-43867260D01*
X93514285Y-43867260D02*
X93471428Y-43824402D01*
X92350000Y-76410117D02*
X92050000Y-75981545D01*
X91835714Y-76410117D02*
X91835714Y-75510117D01*
X91835714Y-75510117D02*
X92178571Y-75510117D01*
X92178571Y-75510117D02*
X92264286Y-75552974D01*
X92264286Y-75552974D02*
X92307143Y-75595831D01*
X92307143Y-75595831D02*
X92350000Y-75681545D01*
X92350000Y-75681545D02*
X92350000Y-75810117D01*
X92350000Y-75810117D02*
X92307143Y-75895831D01*
X92307143Y-75895831D02*
X92264286Y-75938688D01*
X92264286Y-75938688D02*
X92178571Y-75981545D01*
X92178571Y-75981545D02*
X91835714Y-75981545D01*
X92778571Y-76410117D02*
X92950000Y-76410117D01*
X92950000Y-76410117D02*
X93035714Y-76367260D01*
X93035714Y-76367260D02*
X93078571Y-76324402D01*
X93078571Y-76324402D02*
X93164286Y-76195831D01*
X93164286Y-76195831D02*
X93207143Y-76024402D01*
X93207143Y-76024402D02*
X93207143Y-75681545D01*
X93207143Y-75681545D02*
X93164286Y-75595831D01*
X93164286Y-75595831D02*
X93121429Y-75552974D01*
X93121429Y-75552974D02*
X93035714Y-75510117D01*
X93035714Y-75510117D02*
X92864286Y-75510117D01*
X92864286Y-75510117D02*
X92778571Y-75552974D01*
X92778571Y-75552974D02*
X92735714Y-75595831D01*
X92735714Y-75595831D02*
X92692857Y-75681545D01*
X92692857Y-75681545D02*
X92692857Y-75895831D01*
X92692857Y-75895831D02*
X92735714Y-75981545D01*
X92735714Y-75981545D02*
X92778571Y-76024402D01*
X92778571Y-76024402D02*
X92864286Y-76067260D01*
X92864286Y-76067260D02*
X93035714Y-76067260D01*
X93035714Y-76067260D02*
X93121429Y-76024402D01*
X93121429Y-76024402D02*
X93164286Y-75981545D01*
X93164286Y-75981545D02*
X93207143Y-75895831D01*
X78350000Y-77410117D02*
X78050000Y-76981545D01*
X77835714Y-77410117D02*
X77835714Y-76510117D01*
X77835714Y-76510117D02*
X78178571Y-76510117D01*
X78178571Y-76510117D02*
X78264286Y-76552974D01*
X78264286Y-76552974D02*
X78307143Y-76595831D01*
X78307143Y-76595831D02*
X78350000Y-76681545D01*
X78350000Y-76681545D02*
X78350000Y-76810117D01*
X78350000Y-76810117D02*
X78307143Y-76895831D01*
X78307143Y-76895831D02*
X78264286Y-76938688D01*
X78264286Y-76938688D02*
X78178571Y-76981545D01*
X78178571Y-76981545D02*
X77835714Y-76981545D01*
X78650000Y-76510117D02*
X79207143Y-76510117D01*
X79207143Y-76510117D02*
X78907143Y-76852974D01*
X78907143Y-76852974D02*
X79035714Y-76852974D01*
X79035714Y-76852974D02*
X79121429Y-76895831D01*
X79121429Y-76895831D02*
X79164286Y-76938688D01*
X79164286Y-76938688D02*
X79207143Y-77024402D01*
X79207143Y-77024402D02*
X79207143Y-77238688D01*
X79207143Y-77238688D02*
X79164286Y-77324402D01*
X79164286Y-77324402D02*
X79121429Y-77367260D01*
X79121429Y-77367260D02*
X79035714Y-77410117D01*
X79035714Y-77410117D02*
X78778571Y-77410117D01*
X78778571Y-77410117D02*
X78692857Y-77367260D01*
X78692857Y-77367260D02*
X78650000Y-77324402D01*
X104350000Y-68410117D02*
X104050000Y-67981545D01*
X103835714Y-68410117D02*
X103835714Y-67510117D01*
X103835714Y-67510117D02*
X104178571Y-67510117D01*
X104178571Y-67510117D02*
X104264286Y-67552974D01*
X104264286Y-67552974D02*
X104307143Y-67595831D01*
X104307143Y-67595831D02*
X104350000Y-67681545D01*
X104350000Y-67681545D02*
X104350000Y-67810117D01*
X104350000Y-67810117D02*
X104307143Y-67895831D01*
X104307143Y-67895831D02*
X104264286Y-67938688D01*
X104264286Y-67938688D02*
X104178571Y-67981545D01*
X104178571Y-67981545D02*
X103835714Y-67981545D01*
X105164286Y-67510117D02*
X104735714Y-67510117D01*
X104735714Y-67510117D02*
X104692857Y-67938688D01*
X104692857Y-67938688D02*
X104735714Y-67895831D01*
X104735714Y-67895831D02*
X104821429Y-67852974D01*
X104821429Y-67852974D02*
X105035714Y-67852974D01*
X105035714Y-67852974D02*
X105121429Y-67895831D01*
X105121429Y-67895831D02*
X105164286Y-67938688D01*
X105164286Y-67938688D02*
X105207143Y-68024402D01*
X105207143Y-68024402D02*
X105207143Y-68238688D01*
X105207143Y-68238688D02*
X105164286Y-68324402D01*
X105164286Y-68324402D02*
X105121429Y-68367260D01*
X105121429Y-68367260D02*
X105035714Y-68410117D01*
X105035714Y-68410117D02*
X104821429Y-68410117D01*
X104821429Y-68410117D02*
X104735714Y-68367260D01*
X104735714Y-68367260D02*
X104692857Y-68324402D01*
X47350000Y-73410117D02*
X47050000Y-72981545D01*
X46835714Y-73410117D02*
X46835714Y-72510117D01*
X46835714Y-72510117D02*
X47178571Y-72510117D01*
X47178571Y-72510117D02*
X47264286Y-72552974D01*
X47264286Y-72552974D02*
X47307143Y-72595831D01*
X47307143Y-72595831D02*
X47350000Y-72681545D01*
X47350000Y-72681545D02*
X47350000Y-72810117D01*
X47350000Y-72810117D02*
X47307143Y-72895831D01*
X47307143Y-72895831D02*
X47264286Y-72938688D01*
X47264286Y-72938688D02*
X47178571Y-72981545D01*
X47178571Y-72981545D02*
X46835714Y-72981545D01*
X47650000Y-72510117D02*
X48250000Y-72510117D01*
X48250000Y-72510117D02*
X47864286Y-73410117D01*
M02*
