M48
; DRILL file KiCad 10.0.6 date 2026-09-09T21:53:21
; FORMAT={-:-/ absolute / metric / decimal}
; #@! TF.CreationDate,2026-09-09T21:53:21+03:00
; #@! TF.GenerationSoftware,Kicad,Pcbnew,10.0.6
; #@! TF.FileFunction,MixedPlating,1,2
FMAT,2
METRIC
; #@! TA.AperFunction,Plated,PTH,ComponentDrill
T1C0.800
; #@! TA.AperFunction,Plated,PTH,ComponentDrill
T2C1.500
; #@! TA.AperFunction,NonPlated,NPTH,ComponentDrill
T3C3.400
%
G90
G05
T1
X37.0Y-98.0
X39.46Y-79.0
X39.46Y-88.0
X39.54Y-98.0
X40.0Y-69.0
X42.0Y-81.54
X42.0Y-90.54
X42.08Y-98.0
X42.54Y-69.0
X44.54Y-79.0
X44.54Y-88.0
X44.96Y-61.0
X44.96Y-64.0
X47.5Y-61.0
X47.5Y-64.0
X52.0Y-54.7
X52.0Y-57.24
X52.0Y-59.78
X58.0Y-42.0
X58.0Y-44.54
X58.0Y-47.08
X58.0Y-49.62
X58.0Y-52.16
X58.0Y-54.7
X58.0Y-57.24
X58.0Y-59.78
X58.0Y-62.32
X58.0Y-64.86
X58.0Y-67.4
X58.0Y-69.94
X58.0Y-72.48
X58.0Y-75.02
X58.0Y-77.56
X58.0Y-80.1
X58.0Y-82.64
X58.0Y-85.18
X58.0Y-87.72
X58.0Y-98.362
X60.54Y-98.362
X70.0Y-102.0
X72.54Y-102.0
X75.08Y-102.0
X77.62Y-102.0
X80.16Y-102.0
X82.7Y-102.0
X83.4Y-42.0
X83.4Y-44.54
X83.4Y-47.08
X83.4Y-49.62
X83.4Y-52.16
X83.4Y-54.7
X83.4Y-57.24
X83.4Y-59.78
X83.4Y-62.32
X83.4Y-64.86
X83.4Y-67.4
X83.4Y-69.94
X83.4Y-72.48
X83.4Y-75.02
X83.4Y-77.56
X83.4Y-80.1
X83.4Y-82.64
X83.4Y-85.18
X83.4Y-87.72
X92.0Y-75.0
X92.0Y-77.54
X92.0Y-80.08
X93.0Y-38.0
X94.0Y-42.0
X94.0Y-44.54
X94.0Y-47.08
X94.0Y-49.62
X95.54Y-38.0
X98.08Y-38.0
X100.62Y-38.0
X102.0Y-42.0
X102.0Y-44.54
X102.0Y-47.08
X102.0Y-49.62
T2
X90.0Y-89.0
X95.0Y-89.0
X100.0Y-89.0
T3
X33.5Y-33.5
X33.5Y-104.5
X104.5Y-33.5
X104.5Y-104.5
M30
