%TF.GenerationSoftware,KiCad,Pcbnew,10.0.6*%
%TF.CreationDate,2026-09-09T17:01:11+03:00*%
%TF.ProjectId,candidate,63616e64-6964-4617-9465-2e6b69636164,rev?*%
%TF.SameCoordinates,Original*%
%TF.FileFunction,Copper,L2,Bot*%
%TF.FilePolarity,Positive*%
%FSLAX46Y46*%
G04 Gerber Fmt 4.6, Leading zero omitted, Abs format (unit mm)*
G04 Created by KiCad (PCBNEW 10.0.6) date 2026-09-09 17:01:11*
%MOMM*%
%LPD*%
G01*
G04 APERTURE LIST*
%TA.AperFunction,ComponentPad*%
%ADD10C,2.000000*%
%TD*%
%TA.AperFunction,SMDPad,CuDef*%
%ADD11C,2.000000*%
%TD*%
%TA.AperFunction,SMDPad,CuDef*%
%ADD12R,2.000000X1.600000*%
%TD*%
%TA.AperFunction,SMDPad,CuDef*%
%ADD13R,1.600000X2.000000*%
%TD*%
%TA.AperFunction,ComponentPad*%
%ADD14C,3.500000*%
%TD*%
%TA.AperFunction,Conductor*%
%ADD15C,1.000000*%
%TD*%
%TA.AperFunction,Conductor*%
%ADD16C,0.800000*%
%TD*%
G04 APERTURE END LIST*
D10*
%TO.P,J20,1*%
%TO.N,+3V3*%
X94000000Y-42000000D03*
%TO.P,J20,2*%
%TO.N,GND*%
X94000000Y-44540000D03*
%TO.P,J20,3*%
%TO.N,SCL*%
X94000000Y-47080000D03*
%TO.P,J20,4*%
%TO.N,SDA*%
X94000000Y-49620000D03*
%TD*%
%TO.P,J9,1*%
%TO.N,DPS_TX*%
X92000000Y-75000000D03*
%TO.P,J9,2*%
%TO.N,DPS_RX*%
X92000000Y-77540000D03*
%TO.P,J9,3*%
%TO.N,GND*%
X92000000Y-80080000D03*
%TD*%
D11*
%TO.P,WA1,1*%
%TO.N,+3V3*%
X48000000Y-69940000D03*
X58000000Y-42000000D03*
%TD*%
D10*
%TO.P,J7,1*%
%TO.N,GND*%
X44960000Y-64000000D03*
%TO.P,J7,2*%
%TO.N,SW2_ON*%
X47500000Y-64000000D03*
%TD*%
%TO.P,J1,1*%
%TO.N,+3V3*%
X58000000Y-42000000D03*
%TO.P,J1,2*%
%TO.N,unconnected-(J1-EN-Pad2)*%
X58000000Y-44540000D03*
%TO.P,J1,3*%
%TO.N,unconnected-(J1-GPIO36-Pad3)*%
X58000000Y-47080000D03*
%TO.P,J1,4*%
%TO.N,unconnected-(J1-GPIO39-Pad4)*%
X58000000Y-49620000D03*
%TO.P,J1,5*%
%TO.N,unconnected-(J1-GPIO34-Pad5)*%
X58000000Y-52160000D03*
%TO.P,J1,6*%
%TO.N,unconnected-(J1-GPIO35-Pad6)*%
X58000000Y-54700000D03*
%TO.P,J1,7*%
%TO.N,BTN*%
X58000000Y-57240000D03*
%TO.P,J1,8*%
%TO.N,unconnected-(J1-GPIO33-Pad8)*%
X58000000Y-59780000D03*
%TO.P,J1,9*%
%TO.N,SW1_ON*%
X58000000Y-62320000D03*
%TO.P,J1,10*%
%TO.N,SW2_ON*%
X58000000Y-64860000D03*
%TO.P,J1,11*%
%TO.N,K1*%
X58000000Y-67400000D03*
%TO.P,J1,12*%
%TO.N,SENS_PWR*%
X58000000Y-69940000D03*
%TO.P,J1,13*%
%TO.N,unconnected-(J1-GPIO12-Pad13)*%
X58000000Y-72480000D03*
%TO.P,J1,14*%
%TO.N,GND*%
X58000000Y-75020000D03*
%TO.P,J1,15*%
%TO.N,K2*%
X58000000Y-77560000D03*
%TO.P,J1,16*%
%TO.N,unconnected-(J1-GPIO9-Pad16)*%
X58000000Y-80100000D03*
%TO.P,J1,17*%
%TO.N,unconnected-(J1-GPIO10-Pad17)*%
X58000000Y-82640000D03*
%TO.P,J1,18*%
%TO.N,unconnected-(J1-GPIO11-Pad18)*%
X58000000Y-85180000D03*
%TO.P,J1,19*%
%TO.N,+5V*%
X58000000Y-87720000D03*
%TO.P,J1,20*%
%TO.N,GND*%
X83400000Y-42000000D03*
%TO.P,J1,21*%
%TO.N,MOSI*%
X83400000Y-44540000D03*
%TO.P,J1,22*%
%TO.N,SCL*%
X83400000Y-47080000D03*
%TO.P,J1,23*%
%TO.N,unconnected-(J1-GPIO1-Pad23)*%
X83400000Y-49620000D03*
%TO.P,J1,24*%
%TO.N,unconnected-(J1-GPIO3-Pad24)*%
X83400000Y-52160000D03*
%TO.P,J1,25*%
%TO.N,SDA*%
X83400000Y-54700000D03*
%TO.P,J1,26*%
%TO.N,GND*%
X83400000Y-57240000D03*
%TO.P,J1,27*%
%TO.N,MISO*%
X83400000Y-59780000D03*
%TO.P,J1,28*%
%TO.N,SCK*%
X83400000Y-62320000D03*
%TO.P,J1,29*%
%TO.N,CS*%
X83400000Y-64860000D03*
%TO.P,J1,30*%
%TO.N,DPS_TX*%
X83400000Y-67400000D03*
%TO.P,J1,31*%
%TO.N,DPS_RX*%
X83400000Y-69940000D03*
%TO.P,J1,32*%
%TO.N,OW*%
X83400000Y-72480000D03*
%TO.P,J1,33*%
%TO.N,unconnected-(J1-GPIO0-Pad33)*%
X83400000Y-75020000D03*
%TO.P,J1,34*%
%TO.N,unconnected-(J1-GPIO2-Pad34)*%
X83400000Y-77560000D03*
%TO.P,J1,35*%
%TO.N,unconnected-(J1-GPIO15-Pad35)*%
X83400000Y-80100000D03*
%TO.P,J1,36*%
%TO.N,unconnected-(J1-GPIO8-Pad36)*%
X83400000Y-82640000D03*
%TO.P,J1,37*%
%TO.N,unconnected-(J1-GPIO7-Pad37)*%
X83400000Y-85180000D03*
%TO.P,J1,38*%
%TO.N,unconnected-(J1-GPIO6-Pad38)*%
X83400000Y-87720000D03*
%TD*%
%TO.P,J22,1*%
%TO.N,+3V3*%
X48000000Y-69940000D03*
%TO.P,J22,2*%
%TO.N,GND*%
X50540000Y-69940000D03*
%TO.P,J22,3*%
%TO.N,SENS_PWR*%
X53080000Y-69940000D03*
%TD*%
D12*
%TO.P,R14,1*%
%TO.N,K2*%
X54900000Y-77560000D03*
%TO.P,R14,2*%
%TO.N,BASE2*%
X51100000Y-77560000D03*
%TD*%
D10*
%TO.P,J21,1*%
%TO.N,+3V3*%
X102000000Y-42000000D03*
%TO.P,J21,2*%
%TO.N,GND*%
X102000000Y-44540000D03*
%TO.P,J21,3*%
%TO.N,SCL*%
X102000000Y-47080000D03*
%TO.P,J21,4*%
%TO.N,SDA*%
X102000000Y-49620000D03*
%TD*%
%TO.P,J10,1*%
%TO.N,+3V3*%
X93000000Y-38000000D03*
%TO.P,J10,2*%
%TO.N,SCL*%
X95540000Y-38000000D03*
%TO.P,J10,3*%
%TO.N,SDA*%
X98080000Y-38000000D03*
%TO.P,J10,4*%
%TO.N,GND*%
X100620000Y-38000000D03*
%TD*%
%TO.P,J26,1*%
%TO.N,+5V*%
X60540000Y-98362500D03*
%TO.P,J26,2*%
%TO.N,GND*%
X58000000Y-98362500D03*
%TD*%
%TO.P,Q1,1*%
%TO.N,RELAY_IN1*%
X39460000Y-79000000D03*
%TO.P,Q1,2*%
%TO.N,BASE1*%
X42000000Y-81540000D03*
%TO.P,Q1,3*%
%TO.N,GND*%
X44540000Y-79000000D03*
%TD*%
D13*
%TO.P,R15,1*%
%TO.N,BASE2*%
X47000000Y-89100000D03*
%TO.P,R15,2*%
%TO.N,GND*%
X47000000Y-92900000D03*
%TD*%
D11*
%TO.P,WA3,1*%
%TO.N,GND*%
X44960000Y-64000000D03*
X50540000Y-69940000D03*
%TD*%
D13*
%TO.P,R17,1*%
%TO.N,SCL*%
X102000000Y-57900000D03*
%TO.P,R17,2*%
%TO.N,+3V3*%
X102000000Y-54100000D03*
%TD*%
D10*
%TO.P,J6,1*%
%TO.N,GND*%
X44960000Y-61000000D03*
%TO.P,J6,2*%
%TO.N,SW1_ON*%
X47500000Y-61000000D03*
%TD*%
D12*
%TO.P,R13,1*%
%TO.N,BASE1*%
X50500000Y-72500000D03*
%TO.P,R13,2*%
%TO.N,GND*%
X54300000Y-72500000D03*
%TD*%
D10*
%TO.P,J12,1*%
%TO.N,MOSI*%
X70000000Y-102000000D03*
%TO.P,J12,2*%
%TO.N,GND*%
X72540000Y-102000000D03*
%TO.P,J12,3*%
%TO.N,MISO*%
X75080000Y-102000000D03*
%TO.P,J12,4*%
%TO.N,SCK*%
X77620000Y-102000000D03*
%TO.P,J12,5*%
%TO.N,CS*%
X80160000Y-102000000D03*
%TO.P,J12,6*%
%TO.N,+3V3*%
X82700000Y-102000000D03*
%TD*%
D11*
%TO.P,WA5,1*%
%TO.N,SCL*%
X102000000Y-47080000D03*
D13*
X102000000Y-57900000D03*
%TD*%
D14*
%TO.P,X4,1*%
%TO.N,OW*%
X90000000Y-89000000D03*
%TO.P,X4,2*%
%TO.N,+3V3*%
X95000000Y-89000000D03*
%TO.P,X4,3*%
%TO.N,GND*%
X100000000Y-89000000D03*
%TD*%
D10*
%TO.P,J28,1*%
%TO.N,RELAY_IN1*%
X37000000Y-98000000D03*
%TO.P,J28,2*%
%TO.N,RELAY_IN2*%
X39540000Y-98000000D03*
%TO.P,J28,3*%
%TO.N,GND*%
X42080000Y-98000000D03*
%TD*%
%TO.P,Q2,1*%
%TO.N,RELAY_IN2*%
X39460000Y-88000000D03*
%TO.P,Q2,2*%
%TO.N,BASE2*%
X42000000Y-90540000D03*
%TO.P,Q2,3*%
%TO.N,GND*%
X44540000Y-88000000D03*
%TD*%
%TO.P,J11,1*%
%TO.N,GND*%
X44000000Y-54000000D03*
%TO.P,J11,2*%
%TO.N,BTN*%
X46540000Y-54000000D03*
%TD*%
D12*
%TO.P,R18,1*%
%TO.N,OW*%
X91199999Y-84000000D03*
%TO.P,R18,2*%
%TO.N,+3V3*%
X95000000Y-84000000D03*
%TD*%
D11*
%TO.P,WA4,1*%
%TO.N,SCL*%
X94000000Y-47080000D03*
X102000000Y-47080000D03*
%TD*%
D12*
%TO.P,R12,1*%
%TO.N,K1*%
X54900000Y-67400000D03*
%TO.P,R12,2*%
%TO.N,BASE1*%
X51100000Y-67400000D03*
%TD*%
D11*
%TO.P,WA2,1*%
%TO.N,GND*%
X94000000Y-44540000D03*
X102000000Y-44540000D03*
%TD*%
D13*
%TO.P,R16,1*%
%TO.N,SDA*%
X94000000Y-57900000D03*
%TO.P,R16,2*%
%TO.N,+3V3*%
X94000000Y-54100000D03*
%TD*%
%TO.N,+3V3*%
D15*
X52933500Y-42000000D02*
X58000000Y-42000000D01*
X33169700Y-61763800D02*
X52933500Y-42000000D01*
X95951700Y-55929700D02*
X95951700Y-54100000D01*
X104151700Y-43648600D02*
X102503100Y-42000000D01*
X93000000Y-37466400D02*
X94636200Y-35830200D01*
X102000000Y-54100000D02*
X103638400Y-54100000D01*
X95000000Y-91924500D02*
X95000000Y-89000000D01*
X92775500Y-91924500D02*
X82700000Y-102000000D01*
X103951700Y-59468400D02*
X103173883Y-60246217D01*
X95000000Y-91924500D02*
X101179200Y-91924500D01*
X33169700Y-99612100D02*
X33169700Y-61763800D01*
X102922500Y-90181200D02*
X102922500Y-60111600D01*
X95000000Y-89000000D02*
X95000000Y-84000000D01*
X93000000Y-41000000D02*
X93000000Y-38000000D01*
X95000000Y-91924500D02*
X92775500Y-91924500D01*
X103951700Y-54100000D02*
X103951700Y-59468400D01*
X102922500Y-60111600D02*
X100133600Y-60111600D01*
X94000000Y-54100000D02*
X95951700Y-54100000D01*
X82700000Y-102572100D02*
X79447900Y-105824200D01*
X94000000Y-42000000D02*
X93000000Y-41000000D01*
X104151700Y-53900000D02*
X104151700Y-43648600D01*
X79447900Y-105824200D02*
X39381800Y-105824200D01*
X94636200Y-35830200D02*
X101555000Y-35830200D01*
X39381800Y-105824200D02*
X33169700Y-99612100D01*
X101555000Y-35830200D02*
X102811300Y-37086500D01*
X100133600Y-60111600D02*
X95951700Y-55929700D01*
X102811300Y-37086500D02*
X102811300Y-41691800D01*
X101179200Y-91924500D02*
X102922500Y-90181200D01*
%TO.N,GND*%
X61457500Y-100533700D02*
X59600000Y-100533700D01*
X58517700Y-75020000D02*
X62728400Y-79230700D01*
X59600000Y-100533700D02*
X58000000Y-98933700D01*
X54300000Y-72500000D02*
X54300000Y-74451700D01*
X82854300Y-57240000D02*
X72540000Y-67554300D01*
X69114600Y-104172500D02*
X67539500Y-102597400D01*
X58000000Y-98362000D02*
X52538000Y-92900000D01*
X94154600Y-80080000D02*
X92000000Y-80080000D01*
X62728400Y-99262800D02*
X61457500Y-100533700D01*
X44000000Y-60040000D02*
X44000000Y-54000000D01*
X42080000Y-98567500D02*
X40444800Y-100202700D01*
X89976600Y-41047300D02*
X89023900Y-42000000D01*
X70871900Y-104172500D02*
X69114600Y-104172500D01*
X93469200Y-44540000D02*
X89976600Y-41047300D01*
X36109400Y-100202700D02*
X34845600Y-98938900D01*
X40444800Y-100202700D02*
X36109400Y-100202700D01*
X45048300Y-92900000D02*
X42080000Y-95868300D01*
X47000000Y-92900000D02*
X45048300Y-92900000D01*
X99848100Y-40231900D02*
X100620000Y-39460000D01*
X42080000Y-95868300D02*
X42080000Y-98000000D01*
X34845600Y-98938900D02*
X34845600Y-74114400D01*
X47000000Y-92900000D02*
X48951700Y-92900000D01*
X100000000Y-85535700D02*
X94544300Y-80080000D01*
X34845600Y-74114400D02*
X44960000Y-64000000D01*
X100620000Y-39460000D02*
X100620000Y-38000000D01*
X94154600Y-80080000D02*
X94154600Y-67457500D01*
X62728400Y-99262800D02*
X67539500Y-99262800D01*
X94154600Y-67457500D02*
X83937100Y-57240000D01*
X101459900Y-44540000D02*
X99848100Y-42928200D01*
X62728400Y-79230700D02*
X62728400Y-99262800D01*
X44540000Y-79000000D02*
X49088300Y-74451700D01*
X72540000Y-102504400D02*
X70871900Y-104172500D01*
X100000000Y-89000000D02*
X100000000Y-85535700D01*
X72540000Y-67554300D02*
X72540000Y-102000000D01*
X54868300Y-75020000D02*
X58000000Y-75020000D01*
X49088300Y-74451700D02*
X54300000Y-74451700D01*
X44540000Y-79000000D02*
X44540000Y-88000000D01*
X67539500Y-102597400D02*
X67539500Y-99262800D01*
X44960000Y-64000000D02*
X44960000Y-61000000D01*
X44960000Y-61000000D02*
X44000000Y-60040000D01*
X99848100Y-42928200D02*
X99848100Y-40231900D01*
X89023900Y-42000000D02*
X83400000Y-42000000D01*
X52538000Y-92900000D02*
X48951700Y-92900000D01*
X67539500Y-99262800D02*
X67539500Y-57330600D01*
X67539500Y-57330600D02*
X82870100Y-42000000D01*
%TO.N,SCL*%
D16*
X96051700Y-45413100D02*
X94384800Y-47080000D01*
X94000000Y-47080000D02*
X83400000Y-47080000D01*
X95540000Y-38000000D02*
X95540000Y-40638300D01*
X96051700Y-41150000D02*
X96051700Y-45413100D01*
%TO.N,SDA*%
X92148300Y-54700000D02*
X83400000Y-54700000D01*
X98080000Y-49620000D02*
X102000000Y-49620000D01*
X92148300Y-54700000D02*
X92148300Y-51471700D01*
X92148300Y-57900000D02*
X92148300Y-54700000D01*
X94000000Y-57900000D02*
X92148300Y-57900000D01*
X92148300Y-51471700D02*
X94000000Y-49620000D01*
X94000000Y-49620000D02*
X98080000Y-49620000D01*
X98080000Y-38000000D02*
X98080000Y-49620000D01*
%TO.N,DPS_TX*%
X92000000Y-75000000D02*
X84400000Y-67400000D01*
X84400000Y-67400000D02*
X83400000Y-67400000D01*
%TO.N,DPS_RX*%
X91581400Y-77540000D02*
X83981400Y-69940000D01*
%TO.N,SW2_ON*%
X47500000Y-64000000D02*
X48360000Y-64860000D01*
X48360000Y-64860000D02*
X58000000Y-64860000D01*
%TO.N,BTN*%
X49780000Y-57240000D02*
X58000000Y-57240000D01*
X46540000Y-54000000D02*
X49780000Y-57240000D01*
%TO.N,SW1_ON*%
X47500000Y-61000000D02*
X48820000Y-62320000D01*
X48820000Y-62320000D02*
X58000000Y-62320000D01*
%TO.N,K1*%
X54900000Y-67400000D02*
X58000000Y-67400000D01*
%TO.N,SENS_PWR*%
X53080000Y-69940000D02*
X58000000Y-69940000D01*
%TO.N,K2*%
X54900000Y-77560000D02*
X58000000Y-77560000D01*
%TO.N,+5V*%
D15*
X60540000Y-98362000D02*
X60540000Y-90260000D01*
X60540000Y-90260000D02*
X58000000Y-87720000D01*
%TO.N,MOSI*%
D16*
X70000000Y-102000000D02*
X70000000Y-57568000D01*
X70000000Y-57568000D02*
X83028000Y-44540000D01*
%TO.N,MISO*%
X75080000Y-102000000D02*
X75080000Y-67730100D01*
X75080000Y-67730100D02*
X83030100Y-59780000D01*
%TO.N,SCK*%
X77620000Y-102000000D02*
X77620000Y-67648300D01*
X77620000Y-67648300D02*
X82948300Y-62320000D01*
%TO.N,CS*%
X80160000Y-67694900D02*
X82994900Y-64860000D01*
X80160000Y-102000000D02*
X80160000Y-67694900D01*
%TO.N,OW*%
X83875000Y-72480000D02*
X89348300Y-77953300D01*
X91200000Y-84000000D02*
X91200000Y-82148300D01*
X89348300Y-80412500D02*
X91084100Y-82148300D01*
X89348300Y-77953300D02*
X89348300Y-80412500D01*
X91200000Y-87800000D02*
X91200000Y-84000000D01*
X90000000Y-89000000D02*
X91200000Y-87800000D01*
%TO.N,BASE2*%
X47000000Y-89100000D02*
X45560000Y-90540000D01*
X51100000Y-77560000D02*
X51100000Y-79411700D01*
X48851700Y-81660000D02*
X51100000Y-79411700D01*
X45560000Y-90540000D02*
X42000000Y-90540000D01*
X47000000Y-89100000D02*
X48851700Y-89100000D01*
X48851700Y-89100000D02*
X48851700Y-81660000D01*
%TO.N,RELAY_IN1*%
X37000000Y-81460000D02*
X37000000Y-98000000D01*
X39460000Y-79000000D02*
X37000000Y-81460000D01*
%TO.N,BASE1*%
X45948300Y-70840700D02*
X45948300Y-69090100D01*
X47638400Y-67400000D02*
X51100000Y-67400000D01*
X45948300Y-69090100D02*
X47638400Y-67400000D01*
X42000000Y-78635700D02*
X42000000Y-81540000D01*
X47871700Y-72764000D02*
X42000000Y-78635700D01*
X50500000Y-72500000D02*
X48135700Y-72500000D01*
X47871700Y-72764000D02*
X45948300Y-70840700D01*
%TO.N,RELAY_IN2*%
X39460000Y-88000000D02*
X39460000Y-97920000D01*
%TD*%
%TA.AperFunction,Conductor*%
%TO.N,GND*%
G36*
X107189320Y-30593910D02*
G01*
X107290360Y-30648590D01*
X107368171Y-30733115D01*
X107414321Y-30838326D01*
X107425000Y-30924000D01*
X107425000Y-107076000D01*
X107406090Y-107189320D01*
X107351410Y-107290360D01*
X107266885Y-107368171D01*
X107161674Y-107414321D01*
X107076000Y-107425000D01*
X80276047Y-107425000D01*
X80162727Y-107406090D01*
X80061687Y-107351410D01*
X79983876Y-107266885D01*
X79937726Y-107161674D01*
X79928239Y-107047180D01*
X79956442Y-106935808D01*
X80019279Y-106839629D01*
X80070905Y-106793656D01*
X80197401Y-106701753D01*
X80325453Y-106573701D01*
X80325453Y-106573700D01*
X80345337Y-106553817D01*
X80345348Y-106553803D01*
X82526995Y-104372157D01*
X102549500Y-104372157D01*
X102549500Y-104627843D01*
X102555537Y-104673700D01*
X102582872Y-104881329D01*
X102582875Y-104881346D01*
X102649050Y-105128313D01*
X102649050Y-105128315D01*
X102746891Y-105364524D01*
X102746896Y-105364535D01*
X102746897Y-105364536D01*
X102874738Y-105585964D01*
X102874739Y-105585966D01*
X102961833Y-105699468D01*
X103030390Y-105788813D01*
X103030396Y-105788819D01*
X103030401Y-105788825D01*
X103211174Y-105969598D01*
X103211180Y-105969603D01*
X103211187Y-105969610D01*
X103334947Y-106064574D01*
X103414033Y-106125260D01*
X103414035Y-106125261D01*
X103635465Y-106253104D01*
X103871687Y-106350950D01*
X104118660Y-106417126D01*
X104372157Y-106450500D01*
X104372159Y-106450500D01*
X104627841Y-106450500D01*
X104627843Y-106450500D01*
X104881340Y-106417126D01*
X105128313Y-106350950D01*
X105364535Y-106253104D01*
X105585965Y-106125261D01*
X105788813Y-105969610D01*
X105969610Y-105788813D01*
X106125261Y-105585965D01*
X106253104Y-105364535D01*
X106350950Y-105128313D01*
X106417126Y-104881340D01*
X106450500Y-104627843D01*
X106450500Y-104372157D01*
X106417126Y-104118660D01*
X106350950Y-103871687D01*
X106253104Y-103635465D01*
X106125261Y-103414035D01*
X106125260Y-103414033D01*
X106054330Y-103321596D01*
X105969610Y-103211187D01*
X105969603Y-103211180D01*
X105969598Y-103211174D01*
X105788825Y-103030401D01*
X105788819Y-103030396D01*
X105788813Y-103030390D01*
X105699468Y-102961833D01*
X105585966Y-102874739D01*
X105585964Y-102874738D01*
X105433013Y-102786432D01*
X105364535Y-102746896D01*
X105364529Y-102746893D01*
X105364524Y-102746891D01*
X105128314Y-102649050D01*
X104881346Y-102582875D01*
X104881329Y-102582872D01*
X104709726Y-102560280D01*
X104627843Y-102549500D01*
X104372157Y-102549500D01*
X104301660Y-102558781D01*
X104118670Y-102582872D01*
X104118653Y-102582875D01*
X103871686Y-102649050D01*
X103871684Y-102649050D01*
X103635475Y-102746891D01*
X103635463Y-102746897D01*
X103414035Y-102874738D01*
X103414033Y-102874739D01*
X103211192Y-103030386D01*
X103211174Y-103030401D01*
X103030401Y-103211174D01*
X103030386Y-103211192D01*
X102874739Y-103414033D01*
X102874738Y-103414035D01*
X102746897Y-103635463D01*
X102746891Y-103635475D01*
X102649050Y-103871684D01*
X102649050Y-103871686D01*
X102582875Y-104118653D01*
X102582872Y-104118670D01*
X102554890Y-104331215D01*
X102549500Y-104372157D01*
X82526995Y-104372157D01*
X83577552Y-103321601D01*
X83683996Y-103175094D01*
X83697405Y-103148778D01*
X83761583Y-103060442D01*
X83844517Y-102977510D01*
X83983343Y-102786433D01*
X84090568Y-102575992D01*
X84163553Y-102351368D01*
X84181169Y-102240140D01*
X84217571Y-102131180D01*
X84279088Y-102047963D01*
X93149832Y-93177220D01*
X93243332Y-93110462D01*
X93353443Y-93077680D01*
X93396612Y-93075000D01*
X94909454Y-93075000D01*
X101074225Y-93075000D01*
X101074249Y-93075001D01*
X101088654Y-93075001D01*
X101269743Y-93075001D01*
X101269746Y-93075001D01*
X101448609Y-93046671D01*
X101620839Y-92990711D01*
X101782194Y-92908496D01*
X101928701Y-92802053D01*
X102056753Y-92674001D01*
X102056753Y-92674000D01*
X102076637Y-92654117D01*
X102076648Y-92654103D01*
X103657983Y-91072767D01*
X103658011Y-91072743D01*
X103708013Y-91022741D01*
X103800053Y-90930701D01*
X103906496Y-90784194D01*
X103988711Y-90622839D01*
X103998052Y-90594091D01*
X104044672Y-90450609D01*
X104073001Y-90271746D01*
X104073001Y-90090653D01*
X104073001Y-90078282D01*
X104073000Y-90078252D01*
X104073000Y-61118712D01*
X104091910Y-61005392D01*
X104146590Y-60904352D01*
X104175205Y-60871947D01*
X104681308Y-60365843D01*
X104681321Y-60365833D01*
X104701201Y-60345953D01*
X104829253Y-60217901D01*
X104935696Y-60071394D01*
X105017911Y-59910039D01*
X105073871Y-59737809D01*
X105084617Y-59669961D01*
X105102201Y-59558947D01*
X105102201Y-59377854D01*
X105102201Y-59365483D01*
X105102200Y-59365453D01*
X105102200Y-54652521D01*
X105121110Y-54539201D01*
X105140239Y-54494078D01*
X105146192Y-54482393D01*
X105217911Y-54341639D01*
X105273871Y-54169409D01*
X105302200Y-53990546D01*
X105302200Y-43753563D01*
X105302201Y-43753550D01*
X105302201Y-43558054D01*
X105302201Y-43558053D01*
X105273871Y-43379191D01*
X105217911Y-43206961D01*
X105189143Y-43150501D01*
X105135696Y-43045606D01*
X105029253Y-42899099D01*
X104901201Y-42771047D01*
X104892450Y-42762296D01*
X104892435Y-42762282D01*
X104064020Y-41933867D01*
X103997262Y-41840367D01*
X103964480Y-41730256D01*
X103961800Y-41687087D01*
X103961800Y-37191475D01*
X103961801Y-37191450D01*
X103961801Y-36995954D01*
X103961801Y-36995953D01*
X103933471Y-36817091D01*
X103877511Y-36644861D01*
X103877507Y-36644853D01*
X103844320Y-36579719D01*
X103844308Y-36579698D01*
X103795300Y-36483514D01*
X103795296Y-36483506D01*
X103688853Y-36336999D01*
X103560801Y-36208947D01*
X103552050Y-36200196D01*
X103552035Y-36200182D01*
X103071737Y-35719884D01*
X103004979Y-35626384D01*
X102972197Y-35516273D01*
X102976945Y-35401484D01*
X103018707Y-35294456D01*
X103092959Y-35206788D01*
X103191653Y-35147979D01*
X103304095Y-35124402D01*
X103418099Y-35138613D01*
X103493014Y-35170859D01*
X103635465Y-35253104D01*
X103871687Y-35350950D01*
X104118660Y-35417126D01*
X104372157Y-35450500D01*
X104372159Y-35450500D01*
X104627841Y-35450500D01*
X104627843Y-35450500D01*
X104881340Y-35417126D01*
X105128313Y-35350950D01*
X105364535Y-35253104D01*
X105585965Y-35125261D01*
X105788813Y-34969610D01*
X105969610Y-34788813D01*
X106125261Y-34585965D01*
X106253104Y-34364535D01*
X106350950Y-34128313D01*
X106417126Y-33881340D01*
X106450500Y-33627843D01*
X106450500Y-33372157D01*
X106417126Y-33118660D01*
X106350950Y-32871687D01*
X106253104Y-32635465D01*
X106125261Y-32414035D01*
X106125260Y-32414033D01*
X106064574Y-32334947D01*
X105969610Y-32211187D01*
X105969603Y-32211180D01*
X105969598Y-32211174D01*
X105788825Y-32030401D01*
X105788819Y-32030396D01*
X105788813Y-32030390D01*
X105699468Y-31961833D01*
X105585966Y-31874739D01*
X105585964Y-31874738D01*
X105475250Y-31810817D01*
X105364535Y-31746896D01*
X105364529Y-31746893D01*
X105364524Y-31746891D01*
X105128314Y-31649050D01*
X104881346Y-31582875D01*
X104881329Y-31582872D01*
X104709726Y-31560280D01*
X104627843Y-31549500D01*
X104372157Y-31549500D01*
X104301660Y-31558781D01*
X104118670Y-31582872D01*
X104118653Y-31582875D01*
X103871686Y-31649050D01*
X103871684Y-31649050D01*
X103635475Y-31746891D01*
X103635463Y-31746897D01*
X103414035Y-31874738D01*
X103414033Y-31874739D01*
X103211192Y-32030386D01*
X103211174Y-32030401D01*
X103030401Y-32211174D01*
X103030386Y-32211192D01*
X102874739Y-32414033D01*
X102874738Y-32414035D01*
X102746897Y-32635463D01*
X102746891Y-32635475D01*
X102649050Y-32871684D01*
X102649050Y-32871686D01*
X102582875Y-33118653D01*
X102582872Y-33118670D01*
X102549500Y-33372158D01*
X102549500Y-33627841D01*
X102582872Y-33881329D01*
X102582875Y-33881346D01*
X102649050Y-34128313D01*
X102649050Y-34128315D01*
X102746891Y-34364524D01*
X102746900Y-34364544D01*
X102831578Y-34511210D01*
X102871862Y-34618803D01*
X102875027Y-34733646D01*
X102840731Y-34843295D01*
X102772691Y-34935867D01*
X102678279Y-35001330D01*
X102567727Y-35032591D01*
X102453014Y-35026262D01*
X102346572Y-34983028D01*
X102315698Y-34960563D01*
X102315594Y-34960707D01*
X102304502Y-34952648D01*
X102304501Y-34952647D01*
X102157994Y-34846204D01*
X102157987Y-34846200D01*
X102157980Y-34846196D01*
X101996643Y-34763991D01*
X101996642Y-34763990D01*
X101996639Y-34763989D01*
X101996636Y-34763988D01*
X101996629Y-34763985D01*
X101824409Y-34708029D01*
X101645546Y-34679699D01*
X101464454Y-34679699D01*
X101450049Y-34679699D01*
X101450025Y-34679700D01*
X94741175Y-34679700D01*
X94741151Y-34679699D01*
X94726746Y-34679699D01*
X94545653Y-34679699D01*
X94545652Y-34679699D01*
X94366790Y-34708029D01*
X94194570Y-34763985D01*
X94194556Y-34763991D01*
X94033219Y-34846196D01*
X94033203Y-34846206D01*
X93886699Y-34952647D01*
X93886695Y-34952650D01*
X92122452Y-36716893D01*
X92122446Y-36716900D01*
X92035962Y-36835933D01*
X92000400Y-36877571D01*
X91855484Y-37022487D01*
X91716656Y-37213567D01*
X91716653Y-37213572D01*
X91609436Y-37423999D01*
X91609429Y-37424015D01*
X91536449Y-37648623D01*
X91536445Y-37648638D01*
X91499500Y-37881903D01*
X91499500Y-38118096D01*
X91536445Y-38351361D01*
X91536449Y-38351376D01*
X91609429Y-38575984D01*
X91609436Y-38576000D01*
X91716653Y-38786427D01*
X91716656Y-38786432D01*
X91782847Y-38877535D01*
X91834156Y-38980328D01*
X91849500Y-39082673D01*
X91849500Y-40897053D01*
X91849499Y-40897083D01*
X91849499Y-40909454D01*
X91849499Y-41090546D01*
X91874834Y-41250499D01*
X91877829Y-41269409D01*
X91914192Y-41381327D01*
X91933788Y-41441637D01*
X91933791Y-41441643D01*
X92015996Y-41602980D01*
X92016000Y-41602987D01*
X92016004Y-41602994D01*
X92122447Y-41749501D01*
X92122450Y-41749504D01*
X92270383Y-41897438D01*
X92270402Y-41897454D01*
X92420908Y-42047960D01*
X92487666Y-42141460D01*
X92518831Y-42240145D01*
X92536445Y-42351361D01*
X92536449Y-42351376D01*
X92609429Y-42575984D01*
X92609436Y-42576000D01*
X92716653Y-42786427D01*
X92716656Y-42786432D01*
X92716657Y-42786433D01*
X92855483Y-42977510D01*
X93022490Y-43144517D01*
X93176836Y-43256656D01*
X93213567Y-43283343D01*
X93213572Y-43283346D01*
X93323411Y-43339311D01*
X93424008Y-43390568D01*
X93648632Y-43463553D01*
X93881908Y-43500500D01*
X93881912Y-43500500D01*
X94118088Y-43500500D01*
X94118092Y-43500500D01*
X94351368Y-43463553D01*
X94544355Y-43400847D01*
X94657969Y-43383814D01*
X94770961Y-43404594D01*
X94871083Y-43460937D01*
X94947486Y-43546737D01*
X94991891Y-43652695D01*
X95001200Y-43732766D01*
X95001200Y-44833408D01*
X94982290Y-44946728D01*
X94927610Y-45047768D01*
X94898987Y-45080180D01*
X94652741Y-45326427D01*
X94486909Y-45492259D01*
X94393408Y-45559017D01*
X94283297Y-45591798D01*
X94185537Y-45590182D01*
X94163366Y-45586670D01*
X94118092Y-45579500D01*
X93881908Y-45579500D01*
X93881903Y-45579500D01*
X93648638Y-45616445D01*
X93648623Y-45616449D01*
X93424015Y-45689429D01*
X93423999Y-45689436D01*
X93213572Y-45796653D01*
X93213567Y-45796656D01*
X93022487Y-45935485D01*
X93012070Y-45944383D01*
X93010050Y-45942018D01*
X92937193Y-45994038D01*
X92827082Y-46026820D01*
X92783913Y-46029500D01*
X84857486Y-46029500D01*
X84744166Y-46010590D01*
X84643126Y-45955910D01*
X84565315Y-45871385D01*
X84519165Y-45766174D01*
X84509678Y-45651680D01*
X84537881Y-45540308D01*
X84575139Y-45475362D01*
X84683343Y-45326433D01*
X84790568Y-45115992D01*
X84863553Y-44891368D01*
X84900500Y-44658092D01*
X84900500Y-44421908D01*
X84863553Y-44188632D01*
X84790568Y-43964008D01*
X84739311Y-43863411D01*
X84683346Y-43753572D01*
X84683340Y-43753563D01*
X84610055Y-43652695D01*
X84544517Y-43562490D01*
X84377510Y-43395483D01*
X84186433Y-43256657D01*
X84186434Y-43256657D01*
X84186432Y-43256656D01*
X84186427Y-43256653D01*
X83976000Y-43149436D01*
X83975998Y-43149435D01*
X83975992Y-43149432D01*
X83975987Y-43149430D01*
X83975984Y-43149429D01*
X83751376Y-43076449D01*
X83751361Y-43076445D01*
X83518096Y-43039500D01*
X83518092Y-43039500D01*
X83281908Y-43039500D01*
X83281903Y-43039500D01*
X83048638Y-43076445D01*
X83048623Y-43076449D01*
X82824015Y-43149429D01*
X82823999Y-43149436D01*
X82613572Y-43256653D01*
X82613567Y-43256656D01*
X82422488Y-43395484D01*
X82255484Y-43562488D01*
X82116660Y-43753563D01*
X82116653Y-43753572D01*
X82009435Y-43964000D01*
X82009427Y-43964019D01*
X81982893Y-44045682D01*
X81929890Y-44147612D01*
X81897756Y-44184611D01*
X69330348Y-56752020D01*
X69330344Y-56752024D01*
X69184025Y-56898341D01*
X69069059Y-57070400D01*
X68989870Y-57261580D01*
X68949500Y-57464534D01*
X68949500Y-100783913D01*
X68930590Y-100897233D01*
X68875910Y-100998273D01*
X68864008Y-101011750D01*
X68864383Y-101012070D01*
X68855485Y-101022487D01*
X68716656Y-101213567D01*
X68716653Y-101213572D01*
X68609436Y-101423999D01*
X68609429Y-101424015D01*
X68536449Y-101648623D01*
X68536445Y-101648638D01*
X68499500Y-101881903D01*
X68499500Y-102118096D01*
X68536445Y-102351361D01*
X68536449Y-102351376D01*
X68609429Y-102575984D01*
X68609436Y-102576000D01*
X68716653Y-102786427D01*
X68716656Y-102786432D01*
X68716657Y-102786433D01*
X68855483Y-102977510D01*
X69022490Y-103144517D01*
X69114253Y-103211187D01*
X69213567Y-103283343D01*
X69213572Y-103283346D01*
X69323411Y-103339311D01*
X69424008Y-103390568D01*
X69648632Y-103463553D01*
X69881908Y-103500500D01*
X69881912Y-103500500D01*
X70118088Y-103500500D01*
X70118092Y-103500500D01*
X70351368Y-103463553D01*
X70575992Y-103390568D01*
X70786433Y-103283343D01*
X70977510Y-103144517D01*
X71144517Y-102977510D01*
X71283343Y-102786433D01*
X71390568Y-102575992D01*
X71463553Y-102351368D01*
X71500500Y-102118092D01*
X71500500Y-101881908D01*
X71463553Y-101648632D01*
X71390568Y-101424008D01*
X71283343Y-101213567D01*
X71144517Y-101022490D01*
X71144514Y-101022487D01*
X71135617Y-101012070D01*
X71137981Y-101010050D01*
X71085962Y-100937193D01*
X71053180Y-100827082D01*
X71050500Y-100783913D01*
X71050500Y-58147691D01*
X71069410Y-58034371D01*
X71124090Y-57933331D01*
X71152720Y-57900911D01*
X76243981Y-52809650D01*
X81463266Y-47590364D01*
X81556763Y-47523609D01*
X81666874Y-47490827D01*
X81781663Y-47495575D01*
X81888691Y-47537337D01*
X81976359Y-47611589D01*
X82021004Y-47678704D01*
X82116657Y-47866433D01*
X82255483Y-48057510D01*
X82255484Y-48057511D01*
X82255485Y-48057512D01*
X82301194Y-48103222D01*
X82367952Y-48196723D01*
X82400732Y-48306834D01*
X82395984Y-48421623D01*
X82354220Y-48528651D01*
X82301194Y-48596778D01*
X82255485Y-48642487D01*
X82116656Y-48833567D01*
X82116653Y-48833572D01*
X82009436Y-49043999D01*
X82009429Y-49044015D01*
X81936449Y-49268623D01*
X81936445Y-49268638D01*
X81899500Y-49501903D01*
X81899500Y-49738096D01*
X81936445Y-49971361D01*
X81936449Y-49971376D01*
X82009429Y-50195984D01*
X82009436Y-50196000D01*
X82116653Y-50406427D01*
X82116656Y-50406432D01*
X82116657Y-50406433D01*
X82255483Y-50597510D01*
X82255484Y-50597511D01*
X82255485Y-50597512D01*
X82301194Y-50643222D01*
X82367952Y-50736723D01*
X82400732Y-50846834D01*
X82395984Y-50961623D01*
X82354220Y-51068651D01*
X82301194Y-51136778D01*
X82255485Y-51182487D01*
X82116656Y-51373567D01*
X82116653Y-51373572D01*
X82009436Y-51583999D01*
X82009429Y-51584015D01*
X81936449Y-51808623D01*
X81936445Y-51808638D01*
X81899500Y-52041903D01*
X81899500Y-52278096D01*
X81936445Y-52511361D01*
X81936449Y-52511376D01*
X82009429Y-52735984D01*
X82009436Y-52736000D01*
X82116653Y-52946427D01*
X82116656Y-52946432D01*
X82139469Y-52977831D01*
X82255483Y-53137510D01*
X82255484Y-53137511D01*
X82255485Y-53137512D01*
X82301194Y-53183222D01*
X82367952Y-53276723D01*
X82400732Y-53386834D01*
X82395984Y-53501623D01*
X82354220Y-53608651D01*
X82301194Y-53676778D01*
X82255485Y-53722487D01*
X82116656Y-53913567D01*
X82116653Y-53913572D01*
X82009436Y-54123999D01*
X82009429Y-54124015D01*
X81936449Y-54348623D01*
X81936445Y-54348638D01*
X81899500Y-54581903D01*
X81899500Y-54818096D01*
X81936445Y-55051361D01*
X81936449Y-55051376D01*
X82009429Y-55275984D01*
X82009436Y-55276000D01*
X82116653Y-55486427D01*
X82116656Y-55486432D01*
X82166741Y-55555367D01*
X82255483Y-55677510D01*
X82422490Y-55844517D01*
X82496626Y-55898380D01*
X82613567Y-55983343D01*
X82613572Y-55983346D01*
X82723411Y-56039311D01*
X82824008Y-56090568D01*
X83048632Y-56163553D01*
X83048637Y-56163553D01*
X83048638Y-56163554D01*
X83093062Y-56170590D01*
X83281908Y-56200500D01*
X83281912Y-56200500D01*
X83518088Y-56200500D01*
X83518092Y-56200500D01*
X83751368Y-56163553D01*
X83975992Y-56090568D01*
X84186433Y-55983343D01*
X84377510Y-55844517D01*
X84377518Y-55844508D01*
X84387930Y-55835617D01*
X84389949Y-55837981D01*
X84462807Y-55785962D01*
X84572918Y-55753180D01*
X84616087Y-55750500D01*
X90748800Y-55750500D01*
X90862120Y-55769410D01*
X90963160Y-55824090D01*
X91040971Y-55908615D01*
X91087121Y-56013826D01*
X91097800Y-56099500D01*
X91097800Y-57796535D01*
X91097800Y-58003465D01*
X91138170Y-58206420D01*
X91168441Y-58279500D01*
X91217359Y-58397599D01*
X91332325Y-58569658D01*
X91478641Y-58715974D01*
X91478644Y-58715976D01*
X91478645Y-58715977D01*
X91563498Y-58772673D01*
X91650700Y-58830940D01*
X91650701Y-58830940D01*
X91650702Y-58830941D01*
X91841880Y-58910130D01*
X92044835Y-58950500D01*
X92444385Y-58950500D01*
X92557705Y-58969410D01*
X92658745Y-59024090D01*
X92736556Y-59108615D01*
X92750696Y-59132244D01*
X92756202Y-59142328D01*
X92756203Y-59142329D01*
X92756204Y-59142331D01*
X92842454Y-59257546D01*
X92934523Y-59326469D01*
X92957670Y-59343797D01*
X93015734Y-59365453D01*
X93092517Y-59394091D01*
X93152127Y-59400500D01*
X94847872Y-59400499D01*
X94907483Y-59394091D01*
X95042331Y-59343796D01*
X95157546Y-59257546D01*
X95243796Y-59142331D01*
X95294091Y-59007483D01*
X95300500Y-58947873D01*
X95300499Y-57748108D01*
X95319409Y-57634791D01*
X95374089Y-57533751D01*
X95458614Y-57455940D01*
X95563824Y-57409790D01*
X95678319Y-57400303D01*
X95789690Y-57428506D01*
X95885870Y-57491343D01*
X95896279Y-57501331D01*
X99247275Y-60852327D01*
X99247304Y-60852358D01*
X99256047Y-60861101D01*
X99384099Y-60989153D01*
X99460513Y-61044671D01*
X99521097Y-61088688D01*
X99521098Y-61088688D01*
X99530603Y-61095594D01*
X99530615Y-61095601D01*
X99574764Y-61118096D01*
X99691961Y-61177811D01*
X99864191Y-61233772D01*
X100043054Y-61262101D01*
X100043058Y-61262101D01*
X100238552Y-61262101D01*
X100238576Y-61262100D01*
X101423000Y-61262100D01*
X101536320Y-61281010D01*
X101637360Y-61335690D01*
X101715171Y-61420215D01*
X101761321Y-61525426D01*
X101772000Y-61611100D01*
X101772000Y-89560087D01*
X101753090Y-89673407D01*
X101698410Y-89774447D01*
X101669780Y-89806867D01*
X100804867Y-90671780D01*
X100711367Y-90738538D01*
X100601256Y-90771320D01*
X100558087Y-90774000D01*
X97178920Y-90774000D01*
X97065600Y-90755090D01*
X96964560Y-90700410D01*
X96886749Y-90615885D01*
X96840599Y-90510674D01*
X96831112Y-90396180D01*
X96859315Y-90284808D01*
X96876670Y-90250512D01*
X97022743Y-89997507D01*
X97135639Y-89724952D01*
X97211993Y-89439993D01*
X97236130Y-89256656D01*
X97250500Y-89147510D01*
X97250500Y-88852489D01*
X97211994Y-88560016D01*
X97211993Y-88560007D01*
X97135639Y-88275048D01*
X97108281Y-88209001D01*
X97022744Y-88002495D01*
X97022744Y-88002494D01*
X96939129Y-87857669D01*
X96875238Y-87747006D01*
X96805563Y-87656204D01*
X96695650Y-87512963D01*
X96695634Y-87512945D01*
X96487054Y-87304365D01*
X96487036Y-87304349D01*
X96287042Y-87150888D01*
X96208651Y-87066901D01*
X96161777Y-86962011D01*
X96150500Y-86874008D01*
X96150500Y-85487236D01*
X96169410Y-85373916D01*
X96224090Y-85272876D01*
X96290350Y-85207848D01*
X96357546Y-85157546D01*
X96443796Y-85042331D01*
X96494091Y-84907483D01*
X96500500Y-84847873D01*
X96500499Y-83152128D01*
X96494091Y-83092517D01*
X96460910Y-83003553D01*
X96443797Y-82957671D01*
X96443796Y-82957669D01*
X96357546Y-82842454D01*
X96288621Y-82790857D01*
X96242329Y-82756202D01*
X96107483Y-82705909D01*
X96107485Y-82705909D01*
X96083639Y-82703345D01*
X96047873Y-82699500D01*
X96047870Y-82699500D01*
X93952129Y-82699500D01*
X93892514Y-82705909D01*
X93892511Y-82705910D01*
X93757671Y-82756202D01*
X93642454Y-82842454D01*
X93556202Y-82957670D01*
X93505909Y-83092515D01*
X93499500Y-83152129D01*
X93499500Y-84847870D01*
X93505909Y-84907485D01*
X93505910Y-84907488D01*
X93556202Y-85042328D01*
X93556203Y-85042329D01*
X93556204Y-85042331D01*
X93642454Y-85157546D01*
X93709649Y-85207848D01*
X93789033Y-85290896D01*
X93837151Y-85395220D01*
X93849500Y-85487236D01*
X93849500Y-86874008D01*
X93830590Y-86987328D01*
X93775910Y-87088368D01*
X93712958Y-87150888D01*
X93512963Y-87304349D01*
X93512945Y-87304365D01*
X93304365Y-87512945D01*
X93304349Y-87512963D01*
X93124767Y-87746998D01*
X93124761Y-87747007D01*
X92977255Y-88002494D01*
X92977254Y-88002498D01*
X92897188Y-88195793D01*
X92836352Y-88293250D01*
X92747167Y-88365674D01*
X92639299Y-88405215D01*
X92524437Y-88407589D01*
X92415027Y-88372538D01*
X92322926Y-88303861D01*
X92258115Y-88209001D01*
X92227617Y-88098236D01*
X92232460Y-87994156D01*
X92250500Y-87903465D01*
X92250500Y-85555614D01*
X92269410Y-85442294D01*
X92324090Y-85341254D01*
X92408615Y-85263443D01*
X92432247Y-85249301D01*
X92442321Y-85243799D01*
X92442330Y-85243796D01*
X92557545Y-85157546D01*
X92643795Y-85042331D01*
X92694090Y-84907483D01*
X92700499Y-84847873D01*
X92700498Y-83152128D01*
X92694090Y-83092517D01*
X92660909Y-83003553D01*
X92643796Y-82957671D01*
X92643795Y-82957669D01*
X92557545Y-82842454D01*
X92442330Y-82756204D01*
X92442326Y-82756201D01*
X92432240Y-82750694D01*
X92341844Y-82679788D01*
X92279369Y-82583372D01*
X92251586Y-82471895D01*
X92250500Y-82444385D01*
X92250500Y-82044834D01*
X92243802Y-82011161D01*
X92210130Y-81841880D01*
X92130941Y-81650702D01*
X92015977Y-81478645D01*
X92015976Y-81478644D01*
X92015974Y-81478641D01*
X91869659Y-81332326D01*
X91818855Y-81298380D01*
X91697598Y-81217359D01*
X91697594Y-81217357D01*
X91697592Y-81217356D01*
X91697593Y-81217356D01*
X91661339Y-81202339D01*
X91563882Y-81141502D01*
X91548119Y-81126687D01*
X90501020Y-80079588D01*
X90434262Y-79986088D01*
X90401480Y-79875977D01*
X90398800Y-79832808D01*
X90398800Y-78903387D01*
X90417710Y-78790067D01*
X90472390Y-78689027D01*
X90556915Y-78611216D01*
X90662126Y-78565066D01*
X90776620Y-78555579D01*
X90887992Y-78583782D01*
X90984171Y-78646619D01*
X90994580Y-78656607D01*
X91022490Y-78684517D01*
X91138241Y-78768615D01*
X91213567Y-78823343D01*
X91213572Y-78823346D01*
X91323411Y-78879311D01*
X91424008Y-78930568D01*
X91648632Y-79003553D01*
X91881908Y-79040500D01*
X91881912Y-79040500D01*
X92118088Y-79040500D01*
X92118092Y-79040500D01*
X92351368Y-79003553D01*
X92575992Y-78930568D01*
X92786433Y-78823343D01*
X92977510Y-78684517D01*
X93144517Y-78517510D01*
X93283343Y-78326433D01*
X93390568Y-78115992D01*
X93463553Y-77891368D01*
X93500500Y-77658092D01*
X93500500Y-77421908D01*
X93463553Y-77188632D01*
X93390568Y-76964008D01*
X93283343Y-76753567D01*
X93144517Y-76562490D01*
X93098807Y-76516780D01*
X93032049Y-76423280D01*
X92999267Y-76313169D01*
X93004015Y-76198380D01*
X93045777Y-76091352D01*
X93098807Y-76023220D01*
X93144517Y-75977510D01*
X93283343Y-75786433D01*
X93390568Y-75575992D01*
X93463553Y-75351368D01*
X93500500Y-75118092D01*
X93500500Y-74881908D01*
X93463553Y-74648632D01*
X93390568Y-74424008D01*
X93283343Y-74213567D01*
X93144517Y-74022490D01*
X92977510Y-73855483D01*
X92786433Y-73716657D01*
X92786434Y-73716657D01*
X92786432Y-73716656D01*
X92786427Y-73716653D01*
X92576000Y-73609436D01*
X92575998Y-73609435D01*
X92575992Y-73609432D01*
X92575987Y-73609430D01*
X92575984Y-73609429D01*
X92351376Y-73536449D01*
X92351361Y-73536445D01*
X92118096Y-73499500D01*
X92104418Y-73498424D01*
X92104662Y-73495323D01*
X92016371Y-73480590D01*
X91915331Y-73425910D01*
X91882911Y-73397280D01*
X85228169Y-66742538D01*
X85228164Y-66742532D01*
X85228164Y-66742533D01*
X85215978Y-66730347D01*
X85215977Y-66730345D01*
X85069655Y-66584023D01*
X85021922Y-66552129D01*
X84897599Y-66469059D01*
X84690580Y-66383309D01*
X84691505Y-66381075D01*
X84610805Y-66341107D01*
X84529987Y-66259453D01*
X84480061Y-66155981D01*
X84466438Y-66041904D01*
X84490593Y-65929585D01*
X84538481Y-65850074D01*
X84536457Y-65848603D01*
X84544517Y-65837510D01*
X84683343Y-65646433D01*
X84790568Y-65435992D01*
X84863553Y-65211368D01*
X84900500Y-64978092D01*
X84900500Y-64741908D01*
X84863553Y-64508632D01*
X84790568Y-64284008D01*
X84683343Y-64073567D01*
X84544517Y-63882490D01*
X84498807Y-63836780D01*
X84432049Y-63743280D01*
X84399267Y-63633169D01*
X84404015Y-63518380D01*
X84445777Y-63411352D01*
X84498807Y-63343220D01*
X84544517Y-63297510D01*
X84683343Y-63106433D01*
X84790568Y-62895992D01*
X84863553Y-62671368D01*
X84900500Y-62438092D01*
X84900500Y-62201908D01*
X84863553Y-61968632D01*
X84790568Y-61744008D01*
X84683343Y-61533567D01*
X84544517Y-61342490D01*
X84498807Y-61296780D01*
X84432049Y-61203280D01*
X84399267Y-61093169D01*
X84404015Y-60978380D01*
X84445777Y-60871352D01*
X84498807Y-60803220D01*
X84544517Y-60757510D01*
X84683343Y-60566433D01*
X84790568Y-60355992D01*
X84863553Y-60131368D01*
X84900500Y-59898092D01*
X84900500Y-59661908D01*
X84863553Y-59428632D01*
X84790568Y-59204008D01*
X84739311Y-59103411D01*
X84683346Y-58993572D01*
X84683343Y-58993567D01*
X84650144Y-58947873D01*
X84544517Y-58802490D01*
X84377510Y-58635483D01*
X84204798Y-58510000D01*
X84186432Y-58496656D01*
X84186427Y-58496653D01*
X83976000Y-58389436D01*
X83975998Y-58389435D01*
X83975992Y-58389432D01*
X83975987Y-58389430D01*
X83975984Y-58389429D01*
X83751376Y-58316449D01*
X83751361Y-58316445D01*
X83518096Y-58279500D01*
X83518092Y-58279500D01*
X83281908Y-58279500D01*
X83281903Y-58279500D01*
X83048638Y-58316445D01*
X83048623Y-58316449D01*
X82824015Y-58389429D01*
X82823999Y-58389436D01*
X82613572Y-58496653D01*
X82613567Y-58496656D01*
X82422488Y-58635484D01*
X82255484Y-58802488D01*
X82116656Y-58993567D01*
X82116653Y-58993572D01*
X82009432Y-59204006D01*
X82009431Y-59204009D01*
X81981883Y-59288792D01*
X81928880Y-59390722D01*
X81896745Y-59427722D01*
X74410348Y-66914120D01*
X74410344Y-66914124D01*
X74264025Y-67060441D01*
X74149059Y-67232500D01*
X74069870Y-67423680D01*
X74029500Y-67626634D01*
X74029500Y-100783913D01*
X74010590Y-100897233D01*
X73955910Y-100998273D01*
X73944008Y-101011750D01*
X73944383Y-101012070D01*
X73935485Y-101022487D01*
X73796656Y-101213567D01*
X73796653Y-101213572D01*
X73689436Y-101423999D01*
X73689429Y-101424015D01*
X73616449Y-101648623D01*
X73616445Y-101648638D01*
X73579500Y-101881903D01*
X73579500Y-102118096D01*
X73616445Y-102351361D01*
X73616449Y-102351376D01*
X73689429Y-102575984D01*
X73689436Y-102576000D01*
X73796653Y-102786427D01*
X73796656Y-102786432D01*
X73796657Y-102786433D01*
X73935483Y-102977510D01*
X74102490Y-103144517D01*
X74194253Y-103211187D01*
X74293567Y-103283343D01*
X74293572Y-103283346D01*
X74403411Y-103339311D01*
X74504008Y-103390568D01*
X74728632Y-103463553D01*
X74961908Y-103500500D01*
X74961912Y-103500500D01*
X75198088Y-103500500D01*
X75198092Y-103500500D01*
X75431368Y-103463553D01*
X75655992Y-103390568D01*
X75866433Y-103283343D01*
X76057510Y-103144517D01*
X76103220Y-103098807D01*
X76196720Y-103032049D01*
X76306831Y-102999267D01*
X76421620Y-103004015D01*
X76528648Y-103045777D01*
X76596780Y-103098807D01*
X76642490Y-103144517D01*
X76734253Y-103211187D01*
X76833567Y-103283343D01*
X76833572Y-103283346D01*
X76943411Y-103339311D01*
X77044008Y-103390568D01*
X77268632Y-103463553D01*
X77501908Y-103500500D01*
X77501912Y-103500500D01*
X77738088Y-103500500D01*
X77738092Y-103500500D01*
X77971368Y-103463553D01*
X78195992Y-103390568D01*
X78406433Y-103283343D01*
X78597510Y-103144517D01*
X78643220Y-103098807D01*
X78736720Y-103032049D01*
X78846831Y-102999267D01*
X78961620Y-103004015D01*
X79068648Y-103045777D01*
X79136780Y-103098807D01*
X79182490Y-103144517D01*
X79274253Y-103211187D01*
X79373567Y-103283343D01*
X79373572Y-103283346D01*
X79596225Y-103396793D01*
X79594994Y-103399207D01*
X79672973Y-103447870D01*
X79745407Y-103537046D01*
X79784962Y-103644909D01*
X79787350Y-103759771D01*
X79752313Y-103869185D01*
X79688770Y-103956276D01*
X79073567Y-104571480D01*
X78980067Y-104638238D01*
X78869956Y-104671020D01*
X78826787Y-104673700D01*
X40002913Y-104673700D01*
X39889593Y-104654790D01*
X39788553Y-104600110D01*
X39756133Y-104571480D01*
X34422420Y-99237767D01*
X34355662Y-99144267D01*
X34322880Y-99034156D01*
X34320200Y-98990987D01*
X34320200Y-62384913D01*
X34339110Y-62271593D01*
X34393790Y-62170553D01*
X34422420Y-62138133D01*
X53307833Y-43252720D01*
X53401333Y-43185962D01*
X53511444Y-43153180D01*
X53554613Y-43150500D01*
X56469859Y-43150500D01*
X56583179Y-43169410D01*
X56684219Y-43224090D01*
X56762030Y-43308615D01*
X56808180Y-43413826D01*
X56817667Y-43528320D01*
X56789464Y-43639692D01*
X56752207Y-43704636D01*
X56716659Y-43753563D01*
X56716653Y-43753572D01*
X56609436Y-43963999D01*
X56609429Y-43964015D01*
X56536449Y-44188623D01*
X56536445Y-44188638D01*
X56499500Y-44421903D01*
X56499500Y-44658096D01*
X56536445Y-44891361D01*
X56536449Y-44891376D01*
X56609429Y-45115984D01*
X56609436Y-45116000D01*
X56716653Y-45326427D01*
X56716656Y-45326432D01*
X56716657Y-45326433D01*
X56855483Y-45517510D01*
X56855484Y-45517511D01*
X56855485Y-45517512D01*
X56901194Y-45563222D01*
X56967952Y-45656723D01*
X57000732Y-45766834D01*
X56995984Y-45881623D01*
X56954220Y-45988651D01*
X56901194Y-46056778D01*
X56855485Y-46102487D01*
X56716656Y-46293567D01*
X56716653Y-46293572D01*
X56609436Y-46503999D01*
X56609429Y-46504015D01*
X56536449Y-46728623D01*
X56536445Y-46728638D01*
X56499500Y-46961903D01*
X56499500Y-47198096D01*
X56536445Y-47431361D01*
X56536449Y-47431376D01*
X56609429Y-47655984D01*
X56609436Y-47656000D01*
X56716653Y-47866427D01*
X56716656Y-47866432D01*
X56716657Y-47866433D01*
X56855483Y-48057510D01*
X56855484Y-48057511D01*
X56855485Y-48057512D01*
X56901194Y-48103222D01*
X56967952Y-48196723D01*
X57000732Y-48306834D01*
X56995984Y-48421623D01*
X56954220Y-48528651D01*
X56901194Y-48596778D01*
X56855485Y-48642487D01*
X56716656Y-48833567D01*
X56716653Y-48833572D01*
X56609436Y-49043999D01*
X56609429Y-49044015D01*
X56536449Y-49268623D01*
X56536445Y-49268638D01*
X56499500Y-49501903D01*
X56499500Y-49738096D01*
X56536445Y-49971361D01*
X56536449Y-49971376D01*
X56609429Y-50195984D01*
X56609436Y-50196000D01*
X56716653Y-50406427D01*
X56716656Y-50406432D01*
X56716657Y-50406433D01*
X56855483Y-50597510D01*
X56855484Y-50597511D01*
X56855485Y-50597512D01*
X56901194Y-50643222D01*
X56967952Y-50736723D01*
X57000732Y-50846834D01*
X56995984Y-50961623D01*
X56954220Y-51068651D01*
X56901194Y-51136778D01*
X56855485Y-51182487D01*
X56716656Y-51373567D01*
X56716653Y-51373572D01*
X56609436Y-51583999D01*
X56609429Y-51584015D01*
X56536449Y-51808623D01*
X56536445Y-51808638D01*
X56499500Y-52041903D01*
X56499500Y-52278096D01*
X56536445Y-52511361D01*
X56536449Y-52511376D01*
X56609429Y-52735984D01*
X56609436Y-52736000D01*
X56716653Y-52946427D01*
X56716656Y-52946432D01*
X56739469Y-52977831D01*
X56855483Y-53137510D01*
X56855484Y-53137511D01*
X56855485Y-53137512D01*
X56901194Y-53183222D01*
X56967952Y-53276723D01*
X57000732Y-53386834D01*
X56995984Y-53501623D01*
X56954220Y-53608651D01*
X56901194Y-53676778D01*
X56855485Y-53722487D01*
X56716656Y-53913567D01*
X56716653Y-53913572D01*
X56609436Y-54123999D01*
X56609429Y-54124015D01*
X56536449Y-54348623D01*
X56536445Y-54348638D01*
X56499500Y-54581903D01*
X56499500Y-54818096D01*
X56536445Y-55051361D01*
X56536449Y-55051376D01*
X56609429Y-55275984D01*
X56609436Y-55276000D01*
X56716653Y-55486427D01*
X56716656Y-55486432D01*
X56726877Y-55500500D01*
X56794875Y-55594091D01*
X56824861Y-55635362D01*
X56876170Y-55738155D01*
X56891323Y-55852038D01*
X56868677Y-55964671D01*
X56810686Y-56063848D01*
X56723635Y-56138822D01*
X56616956Y-56181468D01*
X56542514Y-56189500D01*
X50359692Y-56189500D01*
X50246372Y-56170590D01*
X50145332Y-56115910D01*
X50112912Y-56087280D01*
X48142720Y-54117088D01*
X48075962Y-54023588D01*
X48043180Y-53913477D01*
X48042066Y-53895543D01*
X48041576Y-53895582D01*
X48040500Y-53881915D01*
X48040500Y-53881908D01*
X48005093Y-53658356D01*
X48003554Y-53648638D01*
X48003553Y-53648637D01*
X48003553Y-53648632D01*
X47930568Y-53424008D01*
X47852953Y-53271680D01*
X47823346Y-53213572D01*
X47823343Y-53213567D01*
X47801296Y-53183222D01*
X47684517Y-53022490D01*
X47517510Y-52855483D01*
X47361941Y-52742455D01*
X47326432Y-52716656D01*
X47326427Y-52716653D01*
X47116000Y-52609436D01*
X47115998Y-52609435D01*
X47115992Y-52609432D01*
X47115987Y-52609430D01*
X47115984Y-52609429D01*
X46891376Y-52536449D01*
X46891361Y-52536445D01*
X46658096Y-52499500D01*
X46658092Y-52499500D01*
X46421908Y-52499500D01*
X46421903Y-52499500D01*
X46188638Y-52536445D01*
X46188623Y-52536449D01*
X45964015Y-52609429D01*
X45963999Y-52609436D01*
X45753572Y-52716653D01*
X45753567Y-52716656D01*
X45562488Y-52855484D01*
X45395484Y-53022488D01*
X45256656Y-53213567D01*
X45256653Y-53213572D01*
X45149436Y-53423999D01*
X45149429Y-53424015D01*
X45076449Y-53648623D01*
X45076445Y-53648638D01*
X45039500Y-53881903D01*
X45039500Y-54118096D01*
X45076445Y-54351361D01*
X45076449Y-54351376D01*
X45149429Y-54575984D01*
X45149436Y-54576000D01*
X45256653Y-54786427D01*
X45256656Y-54786432D01*
X45326070Y-54881971D01*
X45395483Y-54977510D01*
X45562490Y-55144517D01*
X45567108Y-55147872D01*
X45753567Y-55283343D01*
X45753572Y-55283346D01*
X45803111Y-55308587D01*
X45964008Y-55390568D01*
X46188632Y-55463553D01*
X46421908Y-55500500D01*
X46421916Y-55500500D01*
X46435582Y-55501576D01*
X46435337Y-55504676D01*
X46523629Y-55519410D01*
X46624669Y-55574090D01*
X46657089Y-55602720D01*
X49110341Y-58055974D01*
X49282400Y-58170940D01*
X49282401Y-58170940D01*
X49282402Y-58170941D01*
X49473580Y-58250130D01*
X49676535Y-58290501D01*
X49676538Y-58290501D01*
X49900692Y-58290501D01*
X49900712Y-58290500D01*
X56542514Y-58290500D01*
X56655834Y-58309410D01*
X56756874Y-58364090D01*
X56834685Y-58448615D01*
X56880835Y-58553826D01*
X56890322Y-58668320D01*
X56862119Y-58779692D01*
X56824861Y-58844638D01*
X56716656Y-58993567D01*
X56716653Y-58993572D01*
X56609436Y-59203999D01*
X56609429Y-59204015D01*
X56536449Y-59428623D01*
X56536445Y-59428638D01*
X56499500Y-59661903D01*
X56499500Y-59898096D01*
X56536445Y-60131361D01*
X56536449Y-60131376D01*
X56609429Y-60355984D01*
X56609436Y-60356000D01*
X56716653Y-60566427D01*
X56716656Y-60566432D01*
X56824861Y-60715362D01*
X56876170Y-60818155D01*
X56891323Y-60932038D01*
X56868677Y-61044671D01*
X56810686Y-61143848D01*
X56723635Y-61218822D01*
X56616956Y-61261468D01*
X56542514Y-61269500D01*
X49399692Y-61269500D01*
X49286372Y-61250590D01*
X49185332Y-61195910D01*
X49152912Y-61167280D01*
X49102720Y-61117088D01*
X49035962Y-61023588D01*
X49003180Y-60913477D01*
X49002066Y-60895543D01*
X49001576Y-60895582D01*
X49000500Y-60881915D01*
X49000500Y-60881908D01*
X48963553Y-60648632D01*
X48890568Y-60424008D01*
X48785553Y-60217904D01*
X48783346Y-60213572D01*
X48783343Y-60213567D01*
X48644517Y-60022490D01*
X48477510Y-59855483D01*
X48286433Y-59716657D01*
X48286434Y-59716657D01*
X48286432Y-59716656D01*
X48286427Y-59716653D01*
X48076000Y-59609436D01*
X48075998Y-59609435D01*
X48075992Y-59609432D01*
X48075987Y-59609430D01*
X48075984Y-59609429D01*
X47851376Y-59536449D01*
X47851361Y-59536445D01*
X47618096Y-59499500D01*
X47618092Y-59499500D01*
X47381908Y-59499500D01*
X47381903Y-59499500D01*
X47148638Y-59536445D01*
X47148623Y-59536449D01*
X46924015Y-59609429D01*
X46923999Y-59609436D01*
X46713572Y-59716653D01*
X46713567Y-59716656D01*
X46522488Y-59855484D01*
X46355484Y-60022488D01*
X46216656Y-60213567D01*
X46216653Y-60213572D01*
X46109436Y-60423999D01*
X46109429Y-60424015D01*
X46036449Y-60648623D01*
X46036445Y-60648638D01*
X45999500Y-60881903D01*
X45999500Y-61118096D01*
X46036445Y-61351361D01*
X46036449Y-61351376D01*
X46109429Y-61575984D01*
X46109436Y-61576000D01*
X46216653Y-61786427D01*
X46216656Y-61786432D01*
X46355484Y-61977511D01*
X46522489Y-62144516D01*
X46522495Y-62144521D01*
X46623153Y-62217654D01*
X46703716Y-62299560D01*
X46753318Y-62403187D01*
X46766586Y-62517306D01*
X46742080Y-62629549D01*
X46682457Y-62727753D01*
X46623153Y-62782346D01*
X46522495Y-62855478D01*
X46522489Y-62855483D01*
X46355484Y-63022488D01*
X46216656Y-63213567D01*
X46216653Y-63213572D01*
X46109436Y-63423999D01*
X46109429Y-63424015D01*
X46036449Y-63648623D01*
X46036445Y-63648638D01*
X45999500Y-63881903D01*
X45999500Y-64118096D01*
X46036445Y-64351361D01*
X46036449Y-64351376D01*
X46109429Y-64575984D01*
X46109436Y-64576000D01*
X46216653Y-64786427D01*
X46216656Y-64786432D01*
X46216657Y-64786433D01*
X46355483Y-64977510D01*
X46522490Y-65144517D01*
X46713567Y-65283343D01*
X46713572Y-65283346D01*
X46823411Y-65339311D01*
X46924008Y-65390568D01*
X47148632Y-65463553D01*
X47381908Y-65500500D01*
X47381916Y-65500500D01*
X47395582Y-65501576D01*
X47395337Y-65504676D01*
X47483627Y-65519410D01*
X47584667Y-65574090D01*
X47617087Y-65602720D01*
X47690340Y-65675973D01*
X47690343Y-65675975D01*
X47690345Y-65675977D01*
X47741740Y-65710318D01*
X47825456Y-65788998D01*
X47879089Y-65890597D01*
X47896826Y-66004107D01*
X47876746Y-66117225D01*
X47821025Y-66217695D01*
X47735700Y-66294628D01*
X47630018Y-66339688D01*
X47547845Y-66349500D01*
X47534931Y-66349500D01*
X47501265Y-66356195D01*
X47501266Y-66356196D01*
X47331980Y-66389869D01*
X47140800Y-66469059D01*
X46968741Y-66584025D01*
X46822424Y-66730344D01*
X45278644Y-68274124D01*
X45132325Y-68420441D01*
X45017359Y-68592500D01*
X44938170Y-68783680D01*
X44897800Y-68986634D01*
X44897800Y-70721052D01*
X44897797Y-70721118D01*
X44897800Y-70861421D01*
X44897800Y-70944166D01*
X44897801Y-70944187D01*
X44897802Y-70944198D01*
X44920326Y-71057418D01*
X44920326Y-71057423D01*
X44920327Y-71057423D01*
X44938172Y-71147131D01*
X44938177Y-71147144D01*
X44938178Y-71147146D01*
X44975807Y-71237985D01*
X44975809Y-71237991D01*
X44975810Y-71237991D01*
X45017358Y-71338297D01*
X45017372Y-71338323D01*
X45026085Y-71351362D01*
X45067206Y-71412900D01*
X45127068Y-71502490D01*
X45132329Y-71510364D01*
X45132340Y-71510375D01*
X45132341Y-71510376D01*
X45189833Y-71567865D01*
X45265501Y-71643533D01*
X45289716Y-71667748D01*
X45289769Y-71667797D01*
X46139255Y-72517238D01*
X46206015Y-72610737D01*
X46238800Y-72720847D01*
X46234055Y-72835636D01*
X46192296Y-72942665D01*
X46139261Y-73010805D01*
X41330347Y-77819721D01*
X41330344Y-77819724D01*
X41184024Y-77966042D01*
X41164634Y-77995062D01*
X41085953Y-78078777D01*
X40984353Y-78132410D01*
X40870843Y-78150146D01*
X40757725Y-78130065D01*
X40657256Y-78074343D01*
X40609076Y-78027828D01*
X40604515Y-78022488D01*
X40437511Y-77855484D01*
X40246432Y-77716656D01*
X40246427Y-77716653D01*
X40036000Y-77609436D01*
X40035998Y-77609435D01*
X40035992Y-77609432D01*
X40035987Y-77609430D01*
X40035984Y-77609429D01*
X39811376Y-77536449D01*
X39811361Y-77536445D01*
X39578096Y-77499500D01*
X39578092Y-77499500D01*
X39341908Y-77499500D01*
X39341903Y-77499500D01*
X39108638Y-77536445D01*
X39108623Y-77536449D01*
X38884015Y-77609429D01*
X38883999Y-77609436D01*
X38673572Y-77716653D01*
X38673567Y-77716656D01*
X38482488Y-77855484D01*
X38315484Y-78022488D01*
X38176656Y-78213567D01*
X38176653Y-78213572D01*
X38069436Y-78423999D01*
X38069429Y-78424015D01*
X37996449Y-78648623D01*
X37996445Y-78648638D01*
X37959500Y-78881903D01*
X37958424Y-78895582D01*
X37955323Y-78895337D01*
X37940590Y-78983628D01*
X37885910Y-79084668D01*
X37857280Y-79117088D01*
X36330344Y-80644024D01*
X36184025Y-80790341D01*
X36069059Y-80962400D01*
X35989870Y-81153580D01*
X35949500Y-81356534D01*
X35949500Y-96783913D01*
X35930590Y-96897233D01*
X35875910Y-96998273D01*
X35864008Y-97011750D01*
X35864383Y-97012070D01*
X35855485Y-97022487D01*
X35716656Y-97213567D01*
X35716653Y-97213572D01*
X35609436Y-97423999D01*
X35609429Y-97424015D01*
X35536449Y-97648623D01*
X35536445Y-97648638D01*
X35499500Y-97881903D01*
X35499500Y-98118096D01*
X35536445Y-98351361D01*
X35536449Y-98351376D01*
X35609429Y-98575984D01*
X35609436Y-98576000D01*
X35716653Y-98786427D01*
X35716656Y-98786432D01*
X35716657Y-98786433D01*
X35855483Y-98977510D01*
X36022490Y-99144517D01*
X36150837Y-99237767D01*
X36213567Y-99283343D01*
X36213572Y-99283346D01*
X36323411Y-99339311D01*
X36424008Y-99390568D01*
X36648632Y-99463553D01*
X36881908Y-99500500D01*
X36881912Y-99500500D01*
X37118088Y-99500500D01*
X37118092Y-99500500D01*
X37351368Y-99463553D01*
X37575992Y-99390568D01*
X37786433Y-99283343D01*
X37977510Y-99144517D01*
X38023220Y-99098807D01*
X38116720Y-99032049D01*
X38226831Y-98999267D01*
X38341620Y-99004015D01*
X38448648Y-99045777D01*
X38516780Y-99098807D01*
X38562490Y-99144517D01*
X38690837Y-99237767D01*
X38753567Y-99283343D01*
X38753572Y-99283346D01*
X38863411Y-99339311D01*
X38964008Y-99390568D01*
X39188632Y-99463553D01*
X39421908Y-99500500D01*
X39421912Y-99500500D01*
X39658088Y-99500500D01*
X39658092Y-99500500D01*
X39891368Y-99463553D01*
X40115992Y-99390568D01*
X40326433Y-99283343D01*
X40517510Y-99144517D01*
X40684517Y-98977510D01*
X40823343Y-98786433D01*
X40930568Y-98575992D01*
X41003553Y-98351368D01*
X41040500Y-98118092D01*
X41040500Y-97881908D01*
X41003553Y-97648632D01*
X40930568Y-97424008D01*
X40823343Y-97213567D01*
X40684517Y-97022490D01*
X40612718Y-96950691D01*
X40545961Y-96857190D01*
X40513180Y-96747079D01*
X40510500Y-96703912D01*
X40510500Y-91997486D01*
X40529410Y-91884166D01*
X40584090Y-91783126D01*
X40668615Y-91705315D01*
X40773826Y-91659165D01*
X40888320Y-91649678D01*
X40999692Y-91677881D01*
X41064635Y-91715137D01*
X41158213Y-91783126D01*
X41213567Y-91823343D01*
X41213572Y-91823346D01*
X41323411Y-91879311D01*
X41424008Y-91930568D01*
X41648632Y-92003553D01*
X41881908Y-92040500D01*
X41881912Y-92040500D01*
X42118088Y-92040500D01*
X42118092Y-92040500D01*
X42351368Y-92003553D01*
X42575992Y-91930568D01*
X42786433Y-91823343D01*
X42977510Y-91684517D01*
X42977518Y-91684508D01*
X42987930Y-91675617D01*
X42989949Y-91677981D01*
X43062807Y-91625962D01*
X43172918Y-91593180D01*
X43216087Y-91590500D01*
X45663465Y-91590500D01*
X45866420Y-91550130D01*
X46057598Y-91470941D01*
X46154948Y-91405894D01*
X46229655Y-91355977D01*
X46375977Y-91209655D01*
X46375977Y-91209653D01*
X46404704Y-91180927D01*
X46404707Y-91180922D01*
X46882914Y-90702715D01*
X46976412Y-90635960D01*
X47086523Y-90603179D01*
X47129691Y-90600499D01*
X47847871Y-90600499D01*
X47847872Y-90600499D01*
X47907483Y-90594091D01*
X48042331Y-90543796D01*
X48157546Y-90457546D01*
X48243796Y-90342331D01*
X48243797Y-90342327D01*
X48249304Y-90332244D01*
X48320209Y-90241847D01*
X48416624Y-90179371D01*
X48528100Y-90151586D01*
X48555615Y-90150500D01*
X48955165Y-90150500D01*
X49158120Y-90110130D01*
X49349298Y-90030941D01*
X49521355Y-89915977D01*
X49521358Y-89915974D01*
X49667676Y-89769657D01*
X49667677Y-89769655D01*
X49782640Y-89597599D01*
X49782641Y-89597598D01*
X49861830Y-89406420D01*
X49902200Y-89203465D01*
X49902200Y-82239690D01*
X49921110Y-82126370D01*
X49975790Y-82025330D01*
X50004412Y-81992918D01*
X51749757Y-80247572D01*
X51749771Y-80247561D01*
X51915974Y-80081358D01*
X51915977Y-80081355D01*
X52030941Y-79909298D01*
X52110130Y-79718120D01*
X52150500Y-79515165D01*
X52150500Y-79115615D01*
X52169410Y-79002295D01*
X52224090Y-78901255D01*
X52308615Y-78823444D01*
X52332244Y-78809304D01*
X52342328Y-78803797D01*
X52342327Y-78803797D01*
X52342331Y-78803796D01*
X52457546Y-78717546D01*
X52543796Y-78602331D01*
X52594091Y-78467483D01*
X52600500Y-78407873D01*
X52600499Y-76712129D01*
X53399500Y-76712129D01*
X53399500Y-78407870D01*
X53405909Y-78467485D01*
X53405910Y-78467488D01*
X53456202Y-78602328D01*
X53456203Y-78602329D01*
X53456204Y-78602331D01*
X53542454Y-78717546D01*
X53634523Y-78786469D01*
X53657670Y-78803797D01*
X53710077Y-78823343D01*
X53792517Y-78854091D01*
X53852127Y-78860500D01*
X55947872Y-78860499D01*
X56007483Y-78854091D01*
X56142331Y-78803796D01*
X56257546Y-78717546D01*
X56257551Y-78717538D01*
X56262366Y-78712725D01*
X56355865Y-78645965D01*
X56465976Y-78613181D01*
X56509152Y-78610500D01*
X56542514Y-78610500D01*
X56655834Y-78629410D01*
X56756874Y-78684090D01*
X56834685Y-78768615D01*
X56880835Y-78873826D01*
X56890322Y-78988320D01*
X56862119Y-79099692D01*
X56824861Y-79164638D01*
X56716656Y-79313567D01*
X56716653Y-79313572D01*
X56609436Y-79523999D01*
X56609429Y-79524015D01*
X56536449Y-79748623D01*
X56536445Y-79748638D01*
X56499500Y-79981903D01*
X56499500Y-80218096D01*
X56536445Y-80451361D01*
X56536449Y-80451376D01*
X56609429Y-80675984D01*
X56609436Y-80676000D01*
X56716653Y-80886427D01*
X56716656Y-80886432D01*
X56716657Y-80886433D01*
X56855483Y-81077510D01*
X56855484Y-81077511D01*
X56855485Y-81077512D01*
X56901194Y-81123222D01*
X56967952Y-81216723D01*
X57000732Y-81326834D01*
X56995984Y-81441623D01*
X56954220Y-81548651D01*
X56901194Y-81616778D01*
X56855485Y-81662487D01*
X56716656Y-81853567D01*
X56716653Y-81853572D01*
X56609436Y-82063999D01*
X56609429Y-82064015D01*
X56536449Y-82288623D01*
X56536445Y-82288638D01*
X56499500Y-82521903D01*
X56499500Y-82758096D01*
X56536445Y-82991361D01*
X56536449Y-82991376D01*
X56609429Y-83215984D01*
X56609436Y-83216000D01*
X56716653Y-83426427D01*
X56716656Y-83426432D01*
X56716657Y-83426433D01*
X56855483Y-83617510D01*
X56855484Y-83617511D01*
X56855485Y-83617512D01*
X56901194Y-83663222D01*
X56967952Y-83756723D01*
X57000732Y-83866834D01*
X56995984Y-83981623D01*
X56954220Y-84088651D01*
X56901194Y-84156778D01*
X56855485Y-84202487D01*
X56716656Y-84393567D01*
X56716653Y-84393572D01*
X56609436Y-84603999D01*
X56609429Y-84604015D01*
X56536449Y-84828623D01*
X56536445Y-84828638D01*
X56499500Y-85061903D01*
X56499500Y-85298096D01*
X56536445Y-85531361D01*
X56536449Y-85531376D01*
X56609429Y-85755984D01*
X56609436Y-85756000D01*
X56716653Y-85966427D01*
X56716656Y-85966432D01*
X56716657Y-85966433D01*
X56855483Y-86157510D01*
X56855484Y-86157511D01*
X56855485Y-86157512D01*
X56901194Y-86203222D01*
X56967952Y-86296723D01*
X57000732Y-86406834D01*
X56995984Y-86521623D01*
X56954220Y-86628651D01*
X56901194Y-86696778D01*
X56855485Y-86742487D01*
X56716656Y-86933567D01*
X56716653Y-86933572D01*
X56609436Y-87143999D01*
X56609429Y-87144015D01*
X56536449Y-87368623D01*
X56536445Y-87368638D01*
X56499500Y-87601903D01*
X56499500Y-87838096D01*
X56536445Y-88071361D01*
X56536449Y-88071376D01*
X56609429Y-88295984D01*
X56609436Y-88296000D01*
X56716653Y-88506427D01*
X56716656Y-88506432D01*
X56716657Y-88506433D01*
X56855483Y-88697510D01*
X57022490Y-88864517D01*
X57091791Y-88914867D01*
X57213567Y-89003343D01*
X57213572Y-89003346D01*
X57284529Y-89039500D01*
X57424008Y-89110568D01*
X57648632Y-89183553D01*
X57759858Y-89201169D01*
X57868819Y-89237571D01*
X57952038Y-89299091D01*
X59287280Y-90634333D01*
X59354038Y-90727833D01*
X59386820Y-90837944D01*
X59389500Y-90881113D01*
X59389500Y-97279827D01*
X59370590Y-97393147D01*
X59322848Y-97484963D01*
X59256655Y-97576069D01*
X59256653Y-97576072D01*
X59149436Y-97786499D01*
X59149429Y-97786515D01*
X59076449Y-98011123D01*
X59076445Y-98011138D01*
X59039500Y-98244403D01*
X59039500Y-98480596D01*
X59076445Y-98713861D01*
X59076449Y-98713876D01*
X59149429Y-98938484D01*
X59149436Y-98938500D01*
X59256653Y-99148927D01*
X59256656Y-99148932D01*
X59256657Y-99148933D01*
X59395483Y-99340010D01*
X59562490Y-99507017D01*
X59753567Y-99645843D01*
X59753572Y-99645846D01*
X59863411Y-99701811D01*
X59964008Y-99753068D01*
X60188632Y-99826053D01*
X60421908Y-99863000D01*
X60421912Y-99863000D01*
X60658088Y-99863000D01*
X60658092Y-99863000D01*
X60891368Y-99826053D01*
X61115992Y-99753068D01*
X61326433Y-99645843D01*
X61517510Y-99507017D01*
X61684517Y-99340010D01*
X61823343Y-99148933D01*
X61930568Y-98938492D01*
X62003553Y-98713868D01*
X62040500Y-98480592D01*
X62040500Y-98244408D01*
X62003553Y-98011132D01*
X61930568Y-97786508D01*
X61823343Y-97576067D01*
X61757151Y-97484962D01*
X61705843Y-97382170D01*
X61690500Y-97279827D01*
X61690500Y-90364975D01*
X61690501Y-90364950D01*
X61690501Y-90169454D01*
X61690501Y-90169453D01*
X61662171Y-89990591D01*
X61606211Y-89818361D01*
X61581394Y-89769655D01*
X61558618Y-89724954D01*
X61524001Y-89657015D01*
X61523999Y-89657012D01*
X61523996Y-89657006D01*
X61417553Y-89510499D01*
X61289501Y-89382447D01*
X61280750Y-89373696D01*
X61280735Y-89373682D01*
X59579091Y-87672038D01*
X59512333Y-87578538D01*
X59481169Y-87479858D01*
X59463553Y-87368632D01*
X59390568Y-87144008D01*
X59328652Y-87022490D01*
X59283346Y-86933572D01*
X59283343Y-86933567D01*
X59210421Y-86833199D01*
X59144517Y-86742490D01*
X59098807Y-86696780D01*
X59032049Y-86603280D01*
X58999267Y-86493169D01*
X59004015Y-86378380D01*
X59045777Y-86271352D01*
X59098807Y-86203220D01*
X59144517Y-86157510D01*
X59283343Y-85966433D01*
X59390568Y-85755992D01*
X59463553Y-85531368D01*
X59500500Y-85298092D01*
X59500500Y-85061908D01*
X59463553Y-84828632D01*
X59390568Y-84604008D01*
X59283343Y-84393567D01*
X59144517Y-84202490D01*
X59098807Y-84156780D01*
X59032049Y-84063280D01*
X58999267Y-83953169D01*
X59004015Y-83838380D01*
X59045777Y-83731352D01*
X59098807Y-83663220D01*
X59144517Y-83617510D01*
X59283343Y-83426433D01*
X59390568Y-83215992D01*
X59463553Y-82991368D01*
X59500500Y-82758092D01*
X59500500Y-82521908D01*
X59463553Y-82288632D01*
X59390568Y-82064008D01*
X59339311Y-81963411D01*
X59283346Y-81853572D01*
X59283343Y-81853567D01*
X59239274Y-81792911D01*
X59144517Y-81662490D01*
X59098807Y-81616780D01*
X59032049Y-81523280D01*
X58999267Y-81413169D01*
X59004015Y-81298380D01*
X59045777Y-81191352D01*
X59098807Y-81123220D01*
X59144517Y-81077510D01*
X59283343Y-80886433D01*
X59390568Y-80675992D01*
X59463553Y-80451368D01*
X59500500Y-80218092D01*
X59500500Y-79981908D01*
X59463553Y-79748632D01*
X59390568Y-79524008D01*
X59283343Y-79313567D01*
X59144517Y-79122490D01*
X59098807Y-79076780D01*
X59032049Y-78983280D01*
X58999267Y-78873169D01*
X59004015Y-78758380D01*
X59045777Y-78651352D01*
X59098807Y-78583220D01*
X59116961Y-78565066D01*
X59144517Y-78537510D01*
X59283343Y-78346433D01*
X59390568Y-78135992D01*
X59463553Y-77911368D01*
X59500500Y-77678092D01*
X59500500Y-77441908D01*
X59463553Y-77208632D01*
X59390568Y-76984008D01*
X59283343Y-76773567D01*
X59144517Y-76582490D01*
X58977510Y-76415483D01*
X58786433Y-76276657D01*
X58786434Y-76276657D01*
X58786432Y-76276656D01*
X58786427Y-76276653D01*
X58576000Y-76169436D01*
X58575998Y-76169435D01*
X58575992Y-76169432D01*
X58575987Y-76169430D01*
X58575984Y-76169429D01*
X58351376Y-76096449D01*
X58351361Y-76096445D01*
X58118096Y-76059500D01*
X58118092Y-76059500D01*
X57881908Y-76059500D01*
X57881903Y-76059500D01*
X57648638Y-76096445D01*
X57648623Y-76096449D01*
X57424015Y-76169429D01*
X57423999Y-76169436D01*
X57213572Y-76276653D01*
X57213567Y-76276656D01*
X57022487Y-76415485D01*
X57012070Y-76424383D01*
X57010050Y-76422018D01*
X56937193Y-76474038D01*
X56827082Y-76506820D01*
X56783913Y-76509500D01*
X56509152Y-76509500D01*
X56395832Y-76490590D01*
X56294792Y-76435910D01*
X56262366Y-76407275D01*
X56257548Y-76402457D01*
X56257546Y-76402454D01*
X56203003Y-76361623D01*
X56142329Y-76316202D01*
X56007483Y-76265909D01*
X56007485Y-76265909D01*
X55983639Y-76263345D01*
X55947873Y-76259500D01*
X55947870Y-76259500D01*
X53852129Y-76259500D01*
X53792514Y-76265909D01*
X53792511Y-76265910D01*
X53657671Y-76316202D01*
X53542454Y-76402454D01*
X53456202Y-76517670D01*
X53405909Y-76652515D01*
X53399500Y-76712129D01*
X52600499Y-76712129D01*
X52600499Y-76712128D01*
X52594091Y-76652517D01*
X52560513Y-76562490D01*
X52543797Y-76517671D01*
X52543130Y-76516780D01*
X52457546Y-76402454D01*
X52388621Y-76350857D01*
X52342329Y-76316202D01*
X52207483Y-76265909D01*
X52207485Y-76265909D01*
X52183639Y-76263345D01*
X52147873Y-76259500D01*
X52147870Y-76259500D01*
X50052129Y-76259500D01*
X49992514Y-76265909D01*
X49992511Y-76265910D01*
X49857671Y-76316202D01*
X49742454Y-76402454D01*
X49656202Y-76517670D01*
X49605909Y-76652515D01*
X49599500Y-76712129D01*
X49599500Y-78407870D01*
X49605909Y-78467485D01*
X49605910Y-78467488D01*
X49656202Y-78602328D01*
X49656203Y-78602329D01*
X49656204Y-78602331D01*
X49676475Y-78629410D01*
X49742456Y-78717549D01*
X49743756Y-78718522D01*
X49750834Y-78725927D01*
X49760103Y-78735196D01*
X49759893Y-78735405D01*
X49823139Y-78801572D01*
X49871255Y-78905898D01*
X49882890Y-79020194D01*
X49856781Y-79132075D01*
X49795760Y-79229417D01*
X49781382Y-79244686D01*
X48182044Y-80844024D01*
X48035725Y-80990341D01*
X47920759Y-81162400D01*
X47841570Y-81353580D01*
X47801200Y-81556534D01*
X47801200Y-87250500D01*
X47782290Y-87363820D01*
X47727610Y-87464860D01*
X47643085Y-87542671D01*
X47537874Y-87588821D01*
X47452200Y-87599500D01*
X46152129Y-87599500D01*
X46092514Y-87605909D01*
X46092511Y-87605910D01*
X45957671Y-87656202D01*
X45842454Y-87742454D01*
X45756202Y-87857670D01*
X45705909Y-87992515D01*
X45699500Y-88052129D01*
X45699500Y-88770306D01*
X45680590Y-88883626D01*
X45625910Y-88984666D01*
X45597281Y-89017086D01*
X45503805Y-89110563D01*
X45315278Y-89299091D01*
X45227089Y-89387280D01*
X45133588Y-89454038D01*
X45023478Y-89486820D01*
X44980308Y-89489500D01*
X43216087Y-89489500D01*
X43102767Y-89470590D01*
X43001727Y-89415910D01*
X42988249Y-89404008D01*
X42987930Y-89404383D01*
X42977512Y-89395485D01*
X42977510Y-89395483D01*
X42786433Y-89256657D01*
X42786434Y-89256657D01*
X42786432Y-89256656D01*
X42786427Y-89256653D01*
X42576000Y-89149436D01*
X42575998Y-89149435D01*
X42575992Y-89149432D01*
X42575987Y-89149430D01*
X42575984Y-89149429D01*
X42351376Y-89076449D01*
X42351361Y-89076445D01*
X42118096Y-89039500D01*
X42118092Y-89039500D01*
X41881908Y-89039500D01*
X41881903Y-89039500D01*
X41648638Y-89076445D01*
X41648623Y-89076449D01*
X41424015Y-89149429D01*
X41424010Y-89149431D01*
X41424008Y-89149432D01*
X41228065Y-89249270D01*
X41211893Y-89257510D01*
X41102339Y-89292107D01*
X40987487Y-89289257D01*
X40879784Y-89249270D01*
X40790900Y-89176478D01*
X40730467Y-89078770D01*
X40705035Y-88966733D01*
X40717359Y-88852509D01*
X40742490Y-88788105D01*
X40743339Y-88786437D01*
X40743343Y-88786433D01*
X40850568Y-88575992D01*
X40923553Y-88351368D01*
X40960500Y-88118092D01*
X40960500Y-87881908D01*
X40923553Y-87648632D01*
X40850568Y-87424008D01*
X40789599Y-87304349D01*
X40743346Y-87213572D01*
X40743343Y-87213567D01*
X40652380Y-87088368D01*
X40604517Y-87022490D01*
X40437510Y-86855483D01*
X40291998Y-86749762D01*
X40246432Y-86716656D01*
X40246427Y-86716653D01*
X40036000Y-86609436D01*
X40035998Y-86609435D01*
X40035992Y-86609432D01*
X40035987Y-86609430D01*
X40035984Y-86609429D01*
X39811376Y-86536449D01*
X39811361Y-86536445D01*
X39578096Y-86499500D01*
X39578092Y-86499500D01*
X39341908Y-86499500D01*
X39341903Y-86499500D01*
X39108638Y-86536445D01*
X39108623Y-86536449D01*
X38884015Y-86609429D01*
X38883999Y-86609436D01*
X38673572Y-86716653D01*
X38673560Y-86716660D01*
X38604637Y-86766737D01*
X38501844Y-86818047D01*
X38387961Y-86833199D01*
X38275328Y-86810553D01*
X38176151Y-86752562D01*
X38101177Y-86665510D01*
X38058532Y-86558831D01*
X38050500Y-86484390D01*
X38050500Y-82039691D01*
X38069410Y-81926371D01*
X38124090Y-81825331D01*
X38152720Y-81792911D01*
X39342911Y-80602720D01*
X39436411Y-80535962D01*
X39546522Y-80503180D01*
X39564456Y-80502066D01*
X39564418Y-80501576D01*
X39578083Y-80500500D01*
X39578092Y-80500500D01*
X39811368Y-80463553D01*
X40035992Y-80390568D01*
X40246433Y-80283343D01*
X40246437Y-80283339D01*
X40248105Y-80282490D01*
X40357658Y-80247892D01*
X40472510Y-80250741D01*
X40580214Y-80290728D01*
X40669098Y-80363520D01*
X40729531Y-80461228D01*
X40754964Y-80573264D01*
X40742640Y-80687489D01*
X40717510Y-80751893D01*
X40716657Y-80753566D01*
X40716657Y-80753567D01*
X40609432Y-80964008D01*
X40609432Y-80964009D01*
X40609429Y-80964015D01*
X40536449Y-81188623D01*
X40536445Y-81188638D01*
X40499500Y-81421903D01*
X40499500Y-81658096D01*
X40536445Y-81891361D01*
X40536449Y-81891376D01*
X40609429Y-82115984D01*
X40609436Y-82116000D01*
X40716653Y-82326427D01*
X40716656Y-82326432D01*
X40716657Y-82326433D01*
X40855483Y-82517510D01*
X41022490Y-82684517D01*
X41176756Y-82796598D01*
X41213567Y-82823343D01*
X41213572Y-82823346D01*
X41251074Y-82842454D01*
X41424008Y-82930568D01*
X41648632Y-83003553D01*
X41881908Y-83040500D01*
X41881912Y-83040500D01*
X42118088Y-83040500D01*
X42118092Y-83040500D01*
X42351368Y-83003553D01*
X42575992Y-82930568D01*
X42786433Y-82823343D01*
X42977510Y-82684517D01*
X43144517Y-82517510D01*
X43283343Y-82326433D01*
X43390568Y-82115992D01*
X43463553Y-81891368D01*
X43500500Y-81658092D01*
X43500500Y-81421908D01*
X43463553Y-81188632D01*
X43390568Y-80964008D01*
X43329431Y-80844020D01*
X43283346Y-80753572D01*
X43283343Y-80753567D01*
X43203752Y-80644020D01*
X43144517Y-80562490D01*
X43144514Y-80562487D01*
X43135617Y-80552070D01*
X43137981Y-80550050D01*
X43085962Y-80477193D01*
X43053180Y-80367082D01*
X43050500Y-80323913D01*
X43050500Y-79215391D01*
X43069410Y-79102071D01*
X43124090Y-79001031D01*
X43152720Y-78968611D01*
X48468611Y-73652720D01*
X48562111Y-73585962D01*
X48672222Y-73553180D01*
X48715391Y-73550500D01*
X48890848Y-73550500D01*
X49004168Y-73569410D01*
X49105208Y-73624090D01*
X49137634Y-73652725D01*
X49142451Y-73657542D01*
X49142454Y-73657546D01*
X49208294Y-73706834D01*
X49257670Y-73743797D01*
X49310077Y-73763343D01*
X49392517Y-73794091D01*
X49452127Y-73800500D01*
X51547872Y-73800499D01*
X51607483Y-73794091D01*
X51742331Y-73743796D01*
X51857546Y-73657546D01*
X51943796Y-73542331D01*
X51945992Y-73536445D01*
X51975431Y-73457512D01*
X51994091Y-73407483D01*
X52000500Y-73347873D01*
X52000499Y-71652128D01*
X52000499Y-71643533D01*
X52019409Y-71530213D01*
X52074089Y-71429173D01*
X52158614Y-71351362D01*
X52263824Y-71305212D01*
X52378319Y-71295725D01*
X52489691Y-71323928D01*
X52501625Y-71329580D01*
X52503998Y-71330563D01*
X52504008Y-71330568D01*
X52728632Y-71403553D01*
X52961908Y-71440500D01*
X52961912Y-71440500D01*
X53198088Y-71440500D01*
X53198092Y-71440500D01*
X53431368Y-71403553D01*
X53655992Y-71330568D01*
X53866433Y-71223343D01*
X54057510Y-71084517D01*
X54057518Y-71084508D01*
X54067930Y-71075617D01*
X54069949Y-71077981D01*
X54142807Y-71025962D01*
X54252918Y-70993180D01*
X54296087Y-70990500D01*
X56542514Y-70990500D01*
X56655834Y-71009410D01*
X56756874Y-71064090D01*
X56834685Y-71148615D01*
X56880835Y-71253826D01*
X56890322Y-71368320D01*
X56862119Y-71479692D01*
X56824862Y-71544635D01*
X56807985Y-71567865D01*
X56716656Y-71693567D01*
X56716653Y-71693572D01*
X56609436Y-71903999D01*
X56609429Y-71904015D01*
X56536449Y-72128623D01*
X56536445Y-72128638D01*
X56499500Y-72361903D01*
X56499500Y-72598096D01*
X56536445Y-72831361D01*
X56536449Y-72831376D01*
X56609429Y-73055984D01*
X56609436Y-73056000D01*
X56716653Y-73266427D01*
X56716656Y-73266432D01*
X56716657Y-73266433D01*
X56855483Y-73457510D01*
X57022490Y-73624517D01*
X57186663Y-73743796D01*
X57213567Y-73763343D01*
X57213572Y-73763346D01*
X57323411Y-73819311D01*
X57424008Y-73870568D01*
X57648632Y-73943553D01*
X57881908Y-73980500D01*
X57881912Y-73980500D01*
X58118088Y-73980500D01*
X58118092Y-73980500D01*
X58351368Y-73943553D01*
X58575992Y-73870568D01*
X58786433Y-73763343D01*
X58977510Y-73624517D01*
X59144517Y-73457510D01*
X59283343Y-73266433D01*
X59390568Y-73055992D01*
X59463553Y-72831368D01*
X59500500Y-72598092D01*
X59500500Y-72361908D01*
X59463553Y-72128632D01*
X59390568Y-71904008D01*
X59283343Y-71693567D01*
X59144517Y-71502490D01*
X59098807Y-71456780D01*
X59032049Y-71363280D01*
X58999267Y-71253169D01*
X59004015Y-71138380D01*
X59045777Y-71031352D01*
X59098807Y-70963220D01*
X59117862Y-70944165D01*
X59144517Y-70917510D01*
X59283343Y-70726433D01*
X59390568Y-70515992D01*
X59463553Y-70291368D01*
X59500500Y-70058092D01*
X59500500Y-69821908D01*
X59463553Y-69588632D01*
X59390568Y-69364008D01*
X59339311Y-69263411D01*
X59283346Y-69153572D01*
X59283343Y-69153567D01*
X59162059Y-68986635D01*
X59144517Y-68962490D01*
X59098807Y-68916780D01*
X59032049Y-68823280D01*
X58999267Y-68713169D01*
X59004015Y-68598380D01*
X59045777Y-68491352D01*
X59098807Y-68423220D01*
X59101586Y-68420441D01*
X59144517Y-68377510D01*
X59283343Y-68186433D01*
X59390568Y-67975992D01*
X59463553Y-67751368D01*
X59500500Y-67518092D01*
X59500500Y-67281908D01*
X59463553Y-67048632D01*
X59390568Y-66824008D01*
X59283343Y-66613567D01*
X59144517Y-66422490D01*
X59098807Y-66376780D01*
X59032049Y-66283280D01*
X58999267Y-66173169D01*
X59004015Y-66058380D01*
X59045777Y-65951352D01*
X59098807Y-65883220D01*
X59111897Y-65870130D01*
X59144517Y-65837510D01*
X59283343Y-65646433D01*
X59390568Y-65435992D01*
X59463553Y-65211368D01*
X59500500Y-64978092D01*
X59500500Y-64741908D01*
X59463553Y-64508632D01*
X59390568Y-64284008D01*
X59283343Y-64073567D01*
X59144517Y-63882490D01*
X59098807Y-63836780D01*
X59032049Y-63743280D01*
X58999267Y-63633169D01*
X59004015Y-63518380D01*
X59045777Y-63411352D01*
X59098807Y-63343220D01*
X59144517Y-63297510D01*
X59283343Y-63106433D01*
X59390568Y-62895992D01*
X59463553Y-62671368D01*
X59500500Y-62438092D01*
X59500500Y-62201908D01*
X59463553Y-61968632D01*
X59390568Y-61744008D01*
X59283343Y-61533567D01*
X59144517Y-61342490D01*
X59098807Y-61296780D01*
X59032049Y-61203280D01*
X58999267Y-61093169D01*
X59004015Y-60978380D01*
X59045777Y-60871352D01*
X59098807Y-60803220D01*
X59144517Y-60757510D01*
X59283343Y-60566433D01*
X59390568Y-60355992D01*
X59463553Y-60131368D01*
X59500500Y-59898092D01*
X59500500Y-59661908D01*
X59463553Y-59428632D01*
X59390568Y-59204008D01*
X59339311Y-59103411D01*
X59283346Y-58993572D01*
X59283343Y-58993567D01*
X59250144Y-58947873D01*
X59144517Y-58802490D01*
X59098807Y-58756780D01*
X59032049Y-58663280D01*
X58999267Y-58553169D01*
X59004015Y-58438380D01*
X59045777Y-58331352D01*
X59098807Y-58263220D01*
X59111898Y-58250129D01*
X59144517Y-58217510D01*
X59283343Y-58026433D01*
X59390568Y-57815992D01*
X59463553Y-57591368D01*
X59500500Y-57358092D01*
X59500500Y-57121908D01*
X59463553Y-56888632D01*
X59390568Y-56664008D01*
X59283343Y-56453567D01*
X59144517Y-56262490D01*
X59098807Y-56216780D01*
X59032049Y-56123280D01*
X58999267Y-56013169D01*
X59004015Y-55898380D01*
X59045777Y-55791352D01*
X59098807Y-55723220D01*
X59144517Y-55677510D01*
X59283343Y-55486433D01*
X59390568Y-55275992D01*
X59463553Y-55051368D01*
X59500500Y-54818092D01*
X59500500Y-54581908D01*
X59463553Y-54348632D01*
X59390568Y-54124008D01*
X59283343Y-53913567D01*
X59144517Y-53722490D01*
X59098807Y-53676780D01*
X59032049Y-53583280D01*
X58999267Y-53473169D01*
X59004015Y-53358380D01*
X59045777Y-53251352D01*
X59098807Y-53183220D01*
X59144517Y-53137510D01*
X59283343Y-52946433D01*
X59390568Y-52735992D01*
X59463553Y-52511368D01*
X59500500Y-52278092D01*
X59500500Y-52041908D01*
X59463553Y-51808632D01*
X59390568Y-51584008D01*
X59283343Y-51373567D01*
X59144517Y-51182490D01*
X59098807Y-51136780D01*
X59032049Y-51043280D01*
X58999267Y-50933169D01*
X59004015Y-50818380D01*
X59045777Y-50711352D01*
X59098807Y-50643220D01*
X59144517Y-50597510D01*
X59283343Y-50406433D01*
X59390568Y-50195992D01*
X59463553Y-49971368D01*
X59500500Y-49738092D01*
X59500500Y-49501908D01*
X59463553Y-49268632D01*
X59390568Y-49044008D01*
X59283343Y-48833567D01*
X59144517Y-48642490D01*
X59098807Y-48596780D01*
X59032049Y-48503280D01*
X58999267Y-48393169D01*
X59004015Y-48278380D01*
X59045777Y-48171352D01*
X59098807Y-48103220D01*
X59144517Y-48057510D01*
X59283343Y-47866433D01*
X59390568Y-47655992D01*
X59463553Y-47431368D01*
X59500500Y-47198092D01*
X59500500Y-46961908D01*
X59463553Y-46728632D01*
X59390568Y-46504008D01*
X59283343Y-46293567D01*
X59144517Y-46102490D01*
X59098807Y-46056780D01*
X59032049Y-45963280D01*
X58999267Y-45853169D01*
X59004015Y-45738380D01*
X59045777Y-45631352D01*
X59098807Y-45563220D01*
X59103010Y-45559017D01*
X59144517Y-45517510D01*
X59283343Y-45326433D01*
X59390568Y-45115992D01*
X59463553Y-44891368D01*
X59500500Y-44658092D01*
X59500500Y-44421908D01*
X59463553Y-44188632D01*
X59390568Y-43964008D01*
X59339311Y-43863411D01*
X59283346Y-43753572D01*
X59283340Y-43753563D01*
X59210055Y-43652695D01*
X59144517Y-43562490D01*
X59098807Y-43516780D01*
X59032049Y-43423280D01*
X58999267Y-43313169D01*
X59004015Y-43198380D01*
X59045777Y-43091352D01*
X59098807Y-43023220D01*
X59144517Y-42977510D01*
X59283343Y-42786433D01*
X59390568Y-42575992D01*
X59463553Y-42351368D01*
X59500500Y-42118092D01*
X59500500Y-41881908D01*
X59463553Y-41648632D01*
X59390568Y-41424008D01*
X59311795Y-41269407D01*
X59283346Y-41213572D01*
X59283343Y-41213567D01*
X59217140Y-41122447D01*
X59144517Y-41022490D01*
X58977510Y-40855483D01*
X58786433Y-40716657D01*
X58675157Y-40659959D01*
X58582777Y-40591667D01*
X58517573Y-40497075D01*
X58486617Y-40386437D01*
X58493262Y-40271743D01*
X58536788Y-40165420D01*
X58612478Y-40078991D01*
X58712131Y-40021822D01*
X58824947Y-40000107D01*
X58833603Y-40000000D01*
X87800000Y-40000000D01*
X87800000Y-30924000D01*
X87818910Y-30810680D01*
X87873590Y-30709640D01*
X87958115Y-30631829D01*
X88063326Y-30585679D01*
X88149000Y-30575000D01*
X107076000Y-30575000D01*
X107189320Y-30593910D01*
G37*
%TD.AperFunction*%
%TA.AperFunction,Conductor*%
G36*
X49604168Y-68469410D02*
G01*
X49705208Y-68524090D01*
X49737634Y-68552725D01*
X49742451Y-68557542D01*
X49742454Y-68557546D01*
X49810005Y-68608115D01*
X49857670Y-68643797D01*
X49914694Y-68665065D01*
X49992517Y-68694091D01*
X50052127Y-68700500D01*
X51457991Y-68700499D01*
X51571310Y-68719409D01*
X51672350Y-68774089D01*
X51750161Y-68858614D01*
X51796311Y-68963824D01*
X51805798Y-69078319D01*
X51777595Y-69189690D01*
X51768952Y-69207940D01*
X51689434Y-69364003D01*
X51689429Y-69364015D01*
X51616449Y-69588623D01*
X51616445Y-69588638D01*
X51579500Y-69821903D01*
X51579500Y-70058096D01*
X51616445Y-70291361D01*
X51616449Y-70291376D01*
X51689429Y-70515984D01*
X51689434Y-70515996D01*
X51779142Y-70692059D01*
X51813739Y-70801613D01*
X51810889Y-70916464D01*
X51770902Y-71024168D01*
X51698110Y-71113052D01*
X51600401Y-71173484D01*
X51488364Y-71198916D01*
X51468180Y-71199500D01*
X49611818Y-71199500D01*
X49498498Y-71180590D01*
X49397458Y-71125910D01*
X49319647Y-71041385D01*
X49273497Y-70936174D01*
X49264010Y-70821680D01*
X49292213Y-70710308D01*
X49300831Y-70692110D01*
X49390568Y-70515992D01*
X49463553Y-70291368D01*
X49500500Y-70058092D01*
X49500500Y-69821908D01*
X49463553Y-69588632D01*
X49390568Y-69364008D01*
X49339311Y-69263411D01*
X49283346Y-69153572D01*
X49283343Y-69153567D01*
X49175139Y-69004638D01*
X49123830Y-68901845D01*
X49108677Y-68787962D01*
X49131323Y-68675329D01*
X49189314Y-68576152D01*
X49276365Y-68501178D01*
X49383044Y-68458532D01*
X49457486Y-68450500D01*
X49490848Y-68450500D01*
X49604168Y-68469410D01*
G37*
%TD.AperFunction*%
%TA.AperFunction,Conductor*%
G36*
X101047207Y-36999610D02*
G01*
X101148247Y-37054290D01*
X101180667Y-37082920D01*
X101558580Y-37460833D01*
X101625338Y-37554333D01*
X101658120Y-37664444D01*
X101660800Y-37707613D01*
X101660800Y-40278930D01*
X101641890Y-40392250D01*
X101587210Y-40493290D01*
X101502685Y-40571101D01*
X101436163Y-40602945D01*
X101436677Y-40604185D01*
X101424011Y-40609431D01*
X101424008Y-40609432D01*
X101424005Y-40609433D01*
X101423999Y-40609436D01*
X101213572Y-40716653D01*
X101213567Y-40716656D01*
X101022488Y-40855484D01*
X100855484Y-41022488D01*
X100716656Y-41213567D01*
X100716653Y-41213572D01*
X100609436Y-41423999D01*
X100609429Y-41424015D01*
X100536449Y-41648623D01*
X100536445Y-41648638D01*
X100499500Y-41881903D01*
X100499500Y-42118096D01*
X100536445Y-42351361D01*
X100536449Y-42351376D01*
X100609429Y-42575984D01*
X100609436Y-42576000D01*
X100716653Y-42786427D01*
X100716656Y-42786432D01*
X100716657Y-42786433D01*
X100855483Y-42977510D01*
X101022490Y-43144517D01*
X101176836Y-43256656D01*
X101213567Y-43283343D01*
X101213572Y-43283346D01*
X101323411Y-43339311D01*
X101424008Y-43390568D01*
X101648632Y-43463553D01*
X101881908Y-43500500D01*
X101881912Y-43500500D01*
X102118087Y-43500500D01*
X102118092Y-43500500D01*
X102165577Y-43492979D01*
X102280453Y-43493928D01*
X102388804Y-43532128D01*
X102466949Y-43590902D01*
X102898980Y-44022933D01*
X102965738Y-44116433D01*
X102998520Y-44226544D01*
X103001200Y-44269713D01*
X103001200Y-45347233D01*
X102982290Y-45460553D01*
X102927610Y-45561593D01*
X102843085Y-45639404D01*
X102737874Y-45685554D01*
X102623380Y-45695041D01*
X102544354Y-45679152D01*
X102459804Y-45651680D01*
X102351369Y-45616447D01*
X102351361Y-45616445D01*
X102118096Y-45579500D01*
X102118092Y-45579500D01*
X101881908Y-45579500D01*
X101881903Y-45579500D01*
X101648638Y-45616445D01*
X101648623Y-45616449D01*
X101424015Y-45689429D01*
X101423999Y-45689436D01*
X101213572Y-45796653D01*
X101213567Y-45796656D01*
X101022488Y-45935484D01*
X100855484Y-46102488D01*
X100716656Y-46293567D01*
X100716653Y-46293572D01*
X100609436Y-46503999D01*
X100609429Y-46504015D01*
X100536449Y-46728623D01*
X100536445Y-46728638D01*
X100499500Y-46961903D01*
X100499500Y-47198096D01*
X100536445Y-47431361D01*
X100536449Y-47431376D01*
X100609429Y-47655984D01*
X100609436Y-47656000D01*
X100716653Y-47866427D01*
X100716656Y-47866432D01*
X100824861Y-48015362D01*
X100876170Y-48118155D01*
X100891323Y-48232038D01*
X100868677Y-48344671D01*
X100810686Y-48443848D01*
X100723635Y-48518822D01*
X100616956Y-48561468D01*
X100542514Y-48569500D01*
X99479500Y-48569500D01*
X99366180Y-48550590D01*
X99265140Y-48495910D01*
X99187329Y-48411385D01*
X99141179Y-48306174D01*
X99130500Y-48220500D01*
X99130500Y-39216087D01*
X99149410Y-39102767D01*
X99204090Y-39001727D01*
X99215991Y-38988249D01*
X99215617Y-38987930D01*
X99224508Y-38977518D01*
X99224517Y-38977510D01*
X99363343Y-38786433D01*
X99470568Y-38575992D01*
X99543553Y-38351368D01*
X99580500Y-38118092D01*
X99580500Y-37881908D01*
X99543553Y-37648632D01*
X99474966Y-37437545D01*
X99457933Y-37323931D01*
X99478713Y-37210939D01*
X99535056Y-37110817D01*
X99620856Y-37034414D01*
X99726815Y-36990009D01*
X99806885Y-36980700D01*
X100933887Y-36980700D01*
X101047207Y-36999610D01*
G37*
%TD.AperFunction*%
%TD*%
M02*
