M48
; DRILL file KiCad 10.0.6 date 2026-09-09T21:24:07
; FORMAT={-:-/ absolute / metric / decimal}
; #@! TF.CreationDate,2026-09-09T21:24:07+03:00
; #@! TF.GenerationSoftware,Kicad,Pcbnew,10.0.6
; #@! TF.FileFunction,MixedPlating,1,2
FMAT,2
METRIC
; #@! TA.AperFunction,Plated,PTH,ComponentDrill
T1C0.800
; #@! TA.AperFunction,Plated,PTH,ComponentDrill
T2C1.500
; #@! TA.AperFunction,NonPlated,NPTH,ComponentDrill
T3C3.400
%
G90
G05
T1
X131.0Y-65.0
X132.0Y-80.0
X132.0Y-82.54
X132.0Y-85.08
X133.54Y-65.0
X149.46Y-66.0
X154.54Y-66.0
X155.0Y-46.0
X155.0Y-87.0
X155.46Y-59.0
X157.54Y-46.0
X157.54Y-87.0
X160.08Y-46.0
X160.08Y-87.0
X160.54Y-59.0
X162.62Y-46.0
X164.46Y-62.0
X165.16Y-46.0
X168.46Y-51.0
X169.54Y-62.0
X173.54Y-51.0
X188.0Y-46.0
X189.46Y-60.0
X190.0Y-87.0
X190.54Y-46.0
X192.54Y-87.0
X193.08Y-46.0
X194.46Y-53.0
X194.54Y-60.0
X195.08Y-87.0
X199.54Y-53.0
T2
X161.0Y-95.0
X166.0Y-95.0
X171.0Y-95.0
X205.0Y-76.0
T3
X128.5Y-33.5
X128.5Y-94.5
X207.5Y-33.5
X207.5Y-94.5
M30
