%TF.GenerationSoftware,KiCad,Pcbnew,10.0.6*%
%TF.CreationDate,2026-09-09T18:39:15+03:00*%
%TF.ProjectId,candidate,63616e64-6964-4617-9465-2e6b69636164,rev?*%
%TF.SameCoordinates,Original*%
%TF.FileFunction,Copper,L2,Bot*%
%TF.FilePolarity,Positive*%
%FSLAX46Y46*%
G04 Gerber Fmt 4.6, Leading zero omitted, Abs format (unit mm)*
G04 Created by KiCad (PCBNEW 10.0.6) date 2026-09-09 18:39:15*
%MOMM*%
%LPD*%
G01*
G04 APERTURE LIST*
%TA.AperFunction,SMDPad,CuDef*%
%ADD10R,1.600000X2.000000*%
%TD*%
%TA.AperFunction,ComponentPad*%
%ADD11C,2.000000*%
%TD*%
%TA.AperFunction,SMDPad,CuDef*%
%ADD12R,2.000000X1.600000*%
%TD*%
%TA.AperFunction,SMDPad,CuDef*%
%ADD13C,2.000000*%
%TD*%
%TA.AperFunction,ComponentPad*%
%ADD14C,3.500000*%
%TD*%
%TA.AperFunction,Conductor*%
%ADD15C,0.800000*%
%TD*%
%TA.AperFunction,Conductor*%
%ADD16C,1.000000*%
%TD*%
G04 APERTURE END LIST*
D10*
%TO.P,R16,1*%
%TO.N,SDA*%
X94000000Y-57900000D03*
%TO.P,R16,2*%
%TO.N,+3V3*%
X94000000Y-54100000D03*
%TD*%
D11*
%TO.P,J21,1*%
%TO.N,+3V3*%
X102000000Y-42000000D03*
%TO.P,J21,2*%
%TO.N,GND*%
X102000000Y-44540000D03*
%TO.P,J21,3*%
%TO.N,SCL*%
X102000000Y-47080000D03*
%TO.P,J21,4*%
%TO.N,SDA*%
X102000000Y-49620000D03*
%TD*%
D12*
%TO.P,R14,1*%
%TO.N,K2*%
X54900000Y-77560000D03*
%TO.P,R14,2*%
%TO.N,BASE2*%
X51100000Y-77560000D03*
%TD*%
%TO.P,R13,1*%
%TO.N,BASE1*%
X50500000Y-72500000D03*
%TO.P,R13,2*%
%TO.N,GND*%
X54300000Y-72500000D03*
%TD*%
D11*
%TO.P,J10,1*%
%TO.N,+3V3*%
X93000000Y-38000000D03*
%TO.P,J10,2*%
%TO.N,SCL*%
X95540000Y-38000000D03*
%TO.P,J10,3*%
%TO.N,SDA*%
X98080000Y-38000000D03*
%TO.P,J10,4*%
%TO.N,GND*%
X100620000Y-38000000D03*
%TD*%
%TO.P,J28,1*%
%TO.N,RELAY_IN1*%
X37000000Y-98000000D03*
%TO.P,J28,2*%
%TO.N,RELAY_IN2*%
X39540000Y-98000000D03*
%TO.P,J28,3*%
%TO.N,GND*%
X42080000Y-98000000D03*
%TD*%
%TO.P,J22,1*%
%TO.N,+3V3*%
X52000000Y-54700000D03*
%TO.P,J22,2*%
%TO.N,GND*%
X52000000Y-57240000D03*
%TO.P,J22,3*%
%TO.N,SENS_PWR*%
X52000000Y-59780000D03*
%TD*%
%TO.P,J11,1*%
%TO.N,GND*%
X40000000Y-69000000D03*
%TO.P,J11,2*%
%TO.N,BTN*%
X42540000Y-69000000D03*
%TD*%
%TO.P,J26,1*%
%TO.N,+5V*%
X60540000Y-98362500D03*
%TO.P,J26,2*%
%TO.N,GND*%
X58000000Y-98362500D03*
%TD*%
%TO.P,J12,1*%
%TO.N,MOSI*%
X70000000Y-102000000D03*
%TO.P,J12,2*%
%TO.N,GND*%
X72540000Y-102000000D03*
%TO.P,J12,3*%
%TO.N,MISO*%
X75080000Y-102000000D03*
%TO.P,J12,4*%
%TO.N,SCK*%
X77620000Y-102000000D03*
%TO.P,J12,5*%
%TO.N,CS*%
X80160000Y-102000000D03*
%TO.P,J12,6*%
%TO.N,+3V3*%
X82700000Y-102000000D03*
%TD*%
%TO.P,Q1,1*%
%TO.N,RELAY_IN1*%
X39460000Y-79000000D03*
%TO.P,Q1,2*%
%TO.N,BASE1*%
X42000000Y-81540000D03*
%TO.P,Q1,3*%
%TO.N,GND*%
X44540000Y-79000000D03*
%TD*%
%TO.P,J1,1*%
%TO.N,+3V3*%
X58000000Y-42000000D03*
%TO.P,J1,2*%
%TO.N,unconnected-(J1-EN-Pad2)*%
X58000000Y-44540000D03*
%TO.P,J1,3*%
%TO.N,unconnected-(J1-GPIO36-Pad3)*%
X58000000Y-47080000D03*
%TO.P,J1,4*%
%TO.N,unconnected-(J1-GPIO39-Pad4)*%
X58000000Y-49620000D03*
%TO.P,J1,5*%
%TO.N,unconnected-(J1-GPIO34-Pad5)*%
X58000000Y-52160000D03*
%TO.P,J1,6*%
%TO.N,unconnected-(J1-GPIO35-Pad6)*%
X58000000Y-54700000D03*
%TO.P,J1,7*%
%TO.N,BTN*%
X58000000Y-57240000D03*
%TO.P,J1,8*%
%TO.N,SENS_PWR*%
X58000000Y-59780000D03*
%TO.P,J1,9*%
%TO.N,SW1_ON*%
X58000000Y-62320000D03*
%TO.P,J1,10*%
%TO.N,SW2_ON*%
X58000000Y-64860000D03*
%TO.P,J1,11*%
%TO.N,K1*%
X58000000Y-67400000D03*
%TO.P,J1,12*%
%TO.N,unconnected-(J1-GPIO14-Pad12)*%
X58000000Y-69940000D03*
%TO.P,J1,13*%
%TO.N,unconnected-(J1-GPIO12-Pad13)*%
X58000000Y-72480000D03*
%TO.P,J1,14*%
%TO.N,GND*%
X58000000Y-75020000D03*
%TO.P,J1,15*%
%TO.N,K2*%
X58000000Y-77560000D03*
%TO.P,J1,16*%
%TO.N,unconnected-(J1-GPIO9-Pad16)*%
X58000000Y-80100000D03*
%TO.P,J1,17*%
%TO.N,unconnected-(J1-GPIO10-Pad17)*%
X58000000Y-82640000D03*
%TO.P,J1,18*%
%TO.N,unconnected-(J1-GPIO11-Pad18)*%
X58000000Y-85180000D03*
%TO.P,J1,19*%
%TO.N,+5V*%
X58000000Y-87720000D03*
%TO.P,J1,20*%
%TO.N,GND*%
X83400000Y-42000000D03*
%TO.P,J1,21*%
%TO.N,MOSI*%
X83400000Y-44540000D03*
%TO.P,J1,22*%
%TO.N,SCL*%
X83400000Y-47080000D03*
%TO.P,J1,23*%
%TO.N,unconnected-(J1-GPIO1-Pad23)*%
X83400000Y-49620000D03*
%TO.P,J1,24*%
%TO.N,unconnected-(J1-GPIO3-Pad24)*%
X83400000Y-52160000D03*
%TO.P,J1,25*%
%TO.N,SDA*%
X83400000Y-54700000D03*
%TO.P,J1,26*%
%TO.N,GND*%
X83400000Y-57240000D03*
%TO.P,J1,27*%
%TO.N,MISO*%
X83400000Y-59780000D03*
%TO.P,J1,28*%
%TO.N,SCK*%
X83400000Y-62320000D03*
%TO.P,J1,29*%
%TO.N,CS*%
X83400000Y-64860000D03*
%TO.P,J1,30*%
%TO.N,DPS_TX*%
X83400000Y-67400000D03*
%TO.P,J1,31*%
%TO.N,DPS_RX*%
X83400000Y-69940000D03*
%TO.P,J1,32*%
%TO.N,OW*%
X83400000Y-72480000D03*
%TO.P,J1,33*%
%TO.N,unconnected-(J1-GPIO0-Pad33)*%
X83400000Y-75020000D03*
%TO.P,J1,34*%
%TO.N,unconnected-(J1-GPIO2-Pad34)*%
X83400000Y-77560000D03*
%TO.P,J1,35*%
%TO.N,unconnected-(J1-GPIO15-Pad35)*%
X83400000Y-80100000D03*
%TO.P,J1,36*%
%TO.N,unconnected-(J1-GPIO8-Pad36)*%
X83400000Y-82640000D03*
%TO.P,J1,37*%
%TO.N,unconnected-(J1-GPIO7-Pad37)*%
X83400000Y-85180000D03*
%TO.P,J1,38*%
%TO.N,unconnected-(J1-GPIO6-Pad38)*%
X83400000Y-87720000D03*
%TD*%
D13*
%TO.P,WA2,1*%
%TO.N,BTN*%
X42540000Y-69000000D03*
X58000000Y-57240000D03*
%TD*%
D11*
%TO.P,J7,1*%
%TO.N,GND*%
X44960000Y-64000000D03*
%TO.P,J7,2*%
%TO.N,SW2_ON*%
X47500000Y-64000000D03*
%TD*%
%TO.P,J6,1*%
%TO.N,GND*%
X44960000Y-61000000D03*
%TO.P,J6,2*%
%TO.N,SW1_ON*%
X47500000Y-61000000D03*
%TD*%
D13*
%TO.P,WA1,1*%
%TO.N,+3V3*%
X94000000Y-42000000D03*
D10*
X94000000Y-54100000D03*
%TD*%
D11*
%TO.P,J20,1*%
%TO.N,+3V3*%
X94000000Y-42000000D03*
%TO.P,J20,2*%
%TO.N,GND*%
X94000000Y-44540000D03*
%TO.P,J20,3*%
%TO.N,SCL*%
X94000000Y-47080000D03*
%TO.P,J20,4*%
%TO.N,SDA*%
X94000000Y-49620000D03*
%TD*%
%TO.P,J9,1*%
%TO.N,DPS_TX*%
X92000000Y-75000000D03*
%TO.P,J9,2*%
%TO.N,DPS_RX*%
X92000000Y-77540000D03*
%TO.P,J9,3*%
%TO.N,GND*%
X92000000Y-80080000D03*
%TD*%
D10*
%TO.P,R15,1*%
%TO.N,BASE2*%
X47000000Y-89100000D03*
%TO.P,R15,2*%
%TO.N,GND*%
X47000000Y-92900000D03*
%TD*%
D11*
%TO.P,Q2,1*%
%TO.N,RELAY_IN2*%
X39460000Y-88000000D03*
%TO.P,Q2,2*%
%TO.N,BASE2*%
X42000000Y-90540000D03*
%TO.P,Q2,3*%
%TO.N,GND*%
X44540000Y-88000000D03*
%TD*%
D13*
%TO.P,WA4,1*%
%TO.N,SCL*%
X102000000Y-47080000D03*
D10*
X102000000Y-57900000D03*
%TD*%
%TO.P,R17,1*%
%TO.N,SCL*%
X102000000Y-57900000D03*
%TO.P,R17,2*%
%TO.N,+3V3*%
X102000000Y-54100000D03*
%TD*%
D14*
%TO.P,X4,1*%
%TO.N,OW*%
X90000000Y-89000000D03*
%TO.P,X4,2*%
%TO.N,+3V3*%
X95000000Y-89000000D03*
%TO.P,X4,3*%
%TO.N,GND*%
X100000000Y-89000000D03*
%TD*%
D12*
%TO.P,R12,1*%
%TO.N,K1*%
X54900000Y-67400000D03*
%TO.P,R12,2*%
%TO.N,BASE1*%
X51100000Y-67400000D03*
%TD*%
%TO.P,R18,1*%
%TO.N,OW*%
X91199999Y-84000000D03*
%TO.P,R18,2*%
%TO.N,+3V3*%
X95000000Y-84000000D03*
%TD*%
D13*
%TO.P,WA3,1*%
%TO.N,SCL*%
X94000000Y-47080000D03*
X95540000Y-38000000D03*
%TD*%
%TO.N,SDA*%
D15*
X94000000Y-49620000D02*
X102000000Y-49620000D01*
X105724100Y-40159400D02*
X105724100Y-46257600D01*
X99710600Y-35939300D02*
X101504000Y-35939300D01*
X92148300Y-54700000D02*
X92148300Y-51471700D01*
X98080000Y-37569900D02*
X99710600Y-35939300D01*
X92148300Y-54700000D02*
X83400000Y-54700000D01*
X92148300Y-57900000D02*
X92148300Y-54700000D01*
X101504000Y-35939300D02*
X105724100Y-40159400D01*
X94000000Y-57900000D02*
X92148300Y-57900000D01*
X105724100Y-46257600D02*
X102361700Y-49620000D01*
X92148300Y-51471700D02*
X94000000Y-49620000D01*
%TO.N,+3V3*%
D16*
X100048300Y-54100000D02*
X95951700Y-54100000D01*
X52000000Y-47492100D02*
X57492100Y-42000000D01*
X58000000Y-102000000D02*
X35250000Y-102000000D01*
X33000000Y-99750000D02*
X33000000Y-42000000D01*
X33250000Y-100850000D02*
X33250000Y-99750000D01*
X72850000Y-105750000D02*
X71750000Y-105750000D01*
X95000000Y-89700000D02*
X82700000Y-102000000D01*
X94000000Y-42000000D02*
X102000000Y-42000000D01*
X103000000Y-87750000D02*
X103000000Y-90250000D01*
X82350000Y-104000000D02*
X81250000Y-104000000D01*
X82500000Y-92000000D02*
X82500000Y-103000000D01*
X101250000Y-92000000D02*
X82500000Y-92000000D01*
X94000000Y-55500000D02*
X96250000Y-55500000D01*
X82250000Y-103000000D02*
X82250000Y-104100000D01*
X100048300Y-59401800D02*
X100048300Y-54100000D01*
X95000000Y-89700000D02*
X97219200Y-91919200D01*
X102750000Y-90250000D02*
X102750000Y-91350000D01*
X71750000Y-106000000D02*
X58000000Y-106000000D01*
X94000000Y-54100000D02*
X94000000Y-55500000D01*
X73000000Y-104750000D02*
X73000000Y-105850000D01*
X93000000Y-41000000D02*
X93000000Y-38000000D01*
X96250000Y-55500000D02*
X96500000Y-79250000D01*
X101226900Y-91919200D02*
X102935100Y-90211000D01*
X95000000Y-89000000D02*
X95000000Y-84000000D01*
X98111091Y-80986091D02*
X98888909Y-81763909D01*
X52000000Y-54700000D02*
X52000000Y-47492100D01*
X102000000Y-54100000D02*
X100048300Y-54100000D01*
X97219200Y-91919200D02*
X101226900Y-91919200D01*
X102250000Y-87000000D02*
X103350000Y-87000000D01*
X101750000Y-84500000D02*
X101750000Y-86500000D01*
X102935100Y-62288600D02*
X100048300Y-59401800D01*
X58000000Y-106000000D02*
X58000000Y-102000000D01*
X100000000Y-81900000D02*
X100000000Y-83000000D01*
X99250000Y-82250000D02*
X100350000Y-82250000D01*
X100500000Y-82400000D02*
X100500000Y-83500000D01*
X101500000Y-83400000D02*
X101500000Y-84500000D01*
X102935100Y-90211000D02*
X102935100Y-62288600D01*
X34000000Y-100750000D02*
X32900000Y-100750000D01*
X81250000Y-104250000D02*
X73500000Y-104250000D01*
X96472183Y-79472183D02*
X97250000Y-80250000D01*
X33000000Y-42000000D02*
X58000000Y-42000000D01*
X98000000Y-79900000D02*
X98000000Y-81000000D01*
X94000000Y-42000000D02*
X93000000Y-41000000D01*
X103350000Y-91000000D02*
X102250000Y-91000000D01*
X34111091Y-100986091D02*
X34888909Y-101763909D01*
X94000000Y-54100000D02*
X95951700Y-54100000D01*
X100750000Y-83750000D02*
X101850000Y-83750000D01*
%TO.N,GND*%
X52538000Y-92900000D02*
X48951700Y-92900000D01*
X44540000Y-79000000D02*
X49088300Y-74451700D01*
X94154600Y-80080000D02*
X94154600Y-67457500D01*
X104163800Y-42918600D02*
X102542400Y-44540000D01*
X49088300Y-74451700D02*
X54300000Y-74451700D01*
X101137600Y-38000000D02*
X104163800Y-41026200D01*
X91992100Y-44540000D02*
X89452100Y-42000000D01*
X62772600Y-100520600D02*
X62772600Y-75020000D01*
X52000000Y-57240000D02*
X48164300Y-57240000D01*
X44960000Y-64000000D02*
X42795300Y-66164700D01*
X42080000Y-98567500D02*
X40452300Y-100195200D01*
X36471900Y-78160900D02*
X44691700Y-69941100D01*
X40452300Y-100195200D02*
X36112600Y-100195200D01*
X102000000Y-44540000D02*
X94000000Y-44540000D01*
X94154600Y-80080000D02*
X92000000Y-80080000D01*
X36471900Y-85168300D02*
X36471900Y-78160900D01*
X44540000Y-79000000D02*
X44540000Y-88000000D01*
X72540000Y-102537500D02*
X70902000Y-104175500D01*
X47000000Y-92900000D02*
X45048300Y-92900000D01*
X48164300Y-57240000D02*
X44960000Y-60444300D01*
X42080000Y-95868300D02*
X42080000Y-98000000D01*
X100000000Y-85535700D02*
X94544300Y-80080000D01*
X47000000Y-92900000D02*
X48951700Y-92900000D01*
X94000000Y-44540000D02*
X91992100Y-44540000D01*
X70902000Y-104175500D02*
X66427499Y-104175500D01*
X54300000Y-72500000D02*
X54300000Y-74451700D01*
X62772600Y-75020000D02*
X62772600Y-62064600D01*
X59586900Y-100520600D02*
X58000000Y-98933700D01*
X58000000Y-98362000D02*
X52538000Y-92900000D01*
X45048300Y-92900000D02*
X42080000Y-95868300D01*
X34824700Y-98907300D02*
X34824700Y-86815500D01*
X62772600Y-75020000D02*
X58000000Y-75020000D01*
X44691700Y-68061200D02*
X42795300Y-66164700D01*
X34824700Y-86815500D02*
X36471900Y-85168300D01*
X100000000Y-89000000D02*
X100000000Y-85535700D01*
X54868300Y-75020000D02*
X58000000Y-75020000D01*
X82854300Y-57240000D02*
X72540000Y-67554300D01*
X36112600Y-100195200D02*
X34824700Y-98907300D01*
X104163800Y-41026200D02*
X104163800Y-42918600D01*
X89452100Y-42000000D02*
X83400000Y-42000000D01*
X44691700Y-69941100D02*
X44691700Y-68061200D01*
X94154600Y-67457500D02*
X83937100Y-57240000D01*
X62772600Y-62064600D02*
X82837200Y-42000000D01*
X44960000Y-64000000D02*
X44960000Y-61000000D01*
X72540000Y-67554300D02*
X72540000Y-102000000D01*
X62772600Y-100520600D02*
X59586900Y-100520600D01*
X66427499Y-104175500D02*
X62772600Y-100520600D01*
X40000000Y-68434900D02*
X42270200Y-66164700D01*
%TO.N,SCL*%
D15*
X102000000Y-47080000D02*
X94000000Y-47080000D01*
X94000000Y-47080000D02*
X83400000Y-47080000D01*
%TO.N,K2*%
X54900000Y-77560000D02*
X58000000Y-77560000D01*
%TO.N,BASE2*%
X51100000Y-77560000D02*
X51100000Y-79411700D01*
X47000000Y-89100000D02*
X48851700Y-89100000D01*
X48851700Y-81660000D02*
X51100000Y-79411700D01*
X48851700Y-89100000D02*
X48851700Y-81660000D01*
X45560000Y-90540000D02*
X42000000Y-90540000D01*
X47000000Y-89100000D02*
X45560000Y-90540000D01*
%TO.N,BASE1*%
X50500000Y-72500000D02*
X50500000Y-69851700D01*
X48136500Y-72500000D02*
X42000000Y-78636500D01*
X50500000Y-72500000D02*
X48136500Y-72500000D01*
X51100000Y-67400000D02*
X50500000Y-69851700D01*
X42000000Y-78636500D02*
X42000000Y-81540000D01*
%TO.N,RELAY_IN1*%
X37000000Y-98000000D02*
X37000000Y-86834600D01*
X39460000Y-84374600D02*
X39460000Y-79000000D01*
X37000000Y-86834600D02*
X39460000Y-84374600D01*
%TO.N,RELAY_IN2*%
X39460000Y-88000000D02*
X39460000Y-97920000D01*
%TO.N,SENS_PWR*%
X52000000Y-59780000D02*
X58000000Y-59780000D01*
%TO.N,+5V*%
D16*
X60540000Y-90260000D02*
X58000000Y-87720000D01*
X60540000Y-98362000D02*
X60540000Y-90260000D01*
%TO.N,MOSI*%
D15*
X70000000Y-57568000D02*
X83028000Y-44540000D01*
X70000000Y-102000000D02*
X70000000Y-57568000D01*
%TO.N,MISO*%
X75080000Y-67730100D02*
X83030100Y-59780000D01*
X75080000Y-102000000D02*
X75080000Y-67730100D01*
%TO.N,SCK*%
X77620000Y-67648300D02*
X82948300Y-62320000D01*
X77620000Y-102000000D02*
X77620000Y-67648300D01*
%TO.N,CS*%
X80160000Y-102000000D02*
X80160000Y-67694900D01*
X80160000Y-67694900D02*
X82994900Y-64860000D01*
%TO.N,SW1_ON*%
X47500000Y-61000000D02*
X48820000Y-62320000D01*
X48820000Y-62320000D02*
X58000000Y-62320000D01*
%TO.N,SW2_ON*%
X48360000Y-64860000D02*
X58000000Y-64860000D01*
X47500000Y-64000000D02*
X48360000Y-64860000D01*
%TO.N,K1*%
X54900000Y-67400000D02*
X58000000Y-67400000D01*
%TO.N,DPS_TX*%
X84400000Y-67400000D02*
X83400000Y-67400000D01*
X92000000Y-75000000D02*
X84400000Y-67400000D01*
%TO.N,DPS_RX*%
X91581400Y-77540000D02*
X83981400Y-69940000D01*
%TO.N,OW*%
X90000000Y-89000000D02*
X91200000Y-87800000D01*
X91200000Y-84000000D02*
X91200000Y-82148300D01*
X89348300Y-77953300D02*
X89348300Y-80412500D01*
X83875000Y-72480000D02*
X89348300Y-77953300D01*
X89348300Y-80412500D02*
X91084100Y-82148300D01*
X91200000Y-87800000D02*
X91200000Y-84000000D01*
%TD*%
%TA.AperFunction,Conductor*%
%TO.N,GND*%
G36*
X107189320Y-30593910D02*
G01*
X107290360Y-30648590D01*
X107368171Y-30733115D01*
X107414321Y-30838326D01*
X107425000Y-30924000D01*
X107425000Y-39782258D01*
X107406090Y-39895578D01*
X107351410Y-39996618D01*
X107266885Y-40074429D01*
X107161674Y-40120579D01*
X107047180Y-40130066D01*
X106935808Y-40101863D01*
X106839629Y-40039026D01*
X106769064Y-39948364D01*
X106740440Y-39869015D01*
X106739208Y-39869389D01*
X106734231Y-39852982D01*
X106655043Y-39661804D01*
X106547263Y-39500500D01*
X106540077Y-39489745D01*
X106540075Y-39489743D01*
X106540073Y-39489740D01*
X102339876Y-35289545D01*
X102339864Y-35289531D01*
X102173658Y-35123325D01*
X102001599Y-35008359D01*
X101906009Y-34968764D01*
X101810420Y-34929170D01*
X101607465Y-34888800D01*
X99831313Y-34888800D01*
X99831293Y-34888799D01*
X99814066Y-34888799D01*
X99607135Y-34888799D01*
X99607131Y-34888799D01*
X99404179Y-34929170D01*
X99213004Y-35008356D01*
X99040940Y-35123326D01*
X97638546Y-36525721D01*
X97545046Y-36592479D01*
X97516588Y-36603993D01*
X97516669Y-36604188D01*
X97504005Y-36609433D01*
X97293567Y-36716656D01*
X97102487Y-36855485D01*
X97056778Y-36901194D01*
X96963277Y-36967952D01*
X96853166Y-37000732D01*
X96738377Y-36995984D01*
X96631349Y-36954220D01*
X96563222Y-36901194D01*
X96517512Y-36855485D01*
X96517511Y-36855484D01*
X96517510Y-36855483D01*
X96326433Y-36716657D01*
X96326434Y-36716657D01*
X96326432Y-36716656D01*
X96326427Y-36716653D01*
X96116000Y-36609436D01*
X96115998Y-36609435D01*
X96115992Y-36609432D01*
X96115987Y-36609430D01*
X96115984Y-36609429D01*
X95891376Y-36536449D01*
X95891361Y-36536445D01*
X95658096Y-36499500D01*
X95658092Y-36499500D01*
X95421908Y-36499500D01*
X95421903Y-36499500D01*
X95188638Y-36536445D01*
X95188623Y-36536449D01*
X94964015Y-36609429D01*
X94963999Y-36609436D01*
X94753572Y-36716653D01*
X94753567Y-36716656D01*
X94562487Y-36855485D01*
X94516778Y-36901194D01*
X94423277Y-36967952D01*
X94313166Y-37000732D01*
X94198377Y-36995984D01*
X94091349Y-36954220D01*
X94023222Y-36901194D01*
X93977512Y-36855485D01*
X93977511Y-36855484D01*
X93977510Y-36855483D01*
X93786433Y-36716657D01*
X93786434Y-36716657D01*
X93786432Y-36716656D01*
X93786427Y-36716653D01*
X93576000Y-36609436D01*
X93575998Y-36609435D01*
X93575992Y-36609432D01*
X93575987Y-36609430D01*
X93575984Y-36609429D01*
X93351376Y-36536449D01*
X93351361Y-36536445D01*
X93118096Y-36499500D01*
X93118092Y-36499500D01*
X92881908Y-36499500D01*
X92881903Y-36499500D01*
X92648638Y-36536445D01*
X92648623Y-36536449D01*
X92424015Y-36609429D01*
X92423999Y-36609436D01*
X92213572Y-36716653D01*
X92213567Y-36716656D01*
X92022488Y-36855484D01*
X91855484Y-37022488D01*
X91716656Y-37213567D01*
X91716653Y-37213572D01*
X91609436Y-37423999D01*
X91609429Y-37424015D01*
X91536449Y-37648623D01*
X91536445Y-37648638D01*
X91499500Y-37881903D01*
X91499500Y-38118096D01*
X91536445Y-38351361D01*
X91536449Y-38351376D01*
X91609429Y-38575984D01*
X91609436Y-38576000D01*
X91716653Y-38786427D01*
X91716656Y-38786432D01*
X91782847Y-38877535D01*
X91834156Y-38980328D01*
X91849500Y-39082673D01*
X91849500Y-40897053D01*
X91849499Y-40897083D01*
X91849499Y-40909454D01*
X91849499Y-41090546D01*
X91874834Y-41250499D01*
X91877829Y-41269409D01*
X91914192Y-41381327D01*
X91933788Y-41441637D01*
X91933791Y-41441643D01*
X92015996Y-41602980D01*
X92016000Y-41602987D01*
X92016004Y-41602994D01*
X92122447Y-41749501D01*
X92122450Y-41749504D01*
X92270383Y-41897438D01*
X92270402Y-41897454D01*
X92420908Y-42047960D01*
X92487666Y-42141460D01*
X92518831Y-42240145D01*
X92536445Y-42351361D01*
X92536449Y-42351376D01*
X92609429Y-42575984D01*
X92609436Y-42576000D01*
X92716653Y-42786427D01*
X92716656Y-42786432D01*
X92716657Y-42786433D01*
X92855483Y-42977510D01*
X93022490Y-43144517D01*
X93176836Y-43256656D01*
X93213567Y-43283343D01*
X93213572Y-43283346D01*
X93323411Y-43339311D01*
X93424008Y-43390568D01*
X93648632Y-43463553D01*
X93881908Y-43500500D01*
X93881912Y-43500500D01*
X94118088Y-43500500D01*
X94118092Y-43500500D01*
X94351368Y-43463553D01*
X94575992Y-43390568D01*
X94786433Y-43283343D01*
X94877536Y-43217152D01*
X94980328Y-43165844D01*
X95082673Y-43150500D01*
X100917327Y-43150500D01*
X101030647Y-43169410D01*
X101122465Y-43217153D01*
X101213567Y-43283343D01*
X101213572Y-43283346D01*
X101323411Y-43339311D01*
X101424008Y-43390568D01*
X101648632Y-43463553D01*
X101881908Y-43500500D01*
X101881912Y-43500500D01*
X102118088Y-43500500D01*
X102118092Y-43500500D01*
X102351368Y-43463553D01*
X102575992Y-43390568D01*
X102786433Y-43283343D01*
X102977510Y-43144517D01*
X103144517Y-42977510D01*
X103283343Y-42786433D01*
X103390568Y-42575992D01*
X103463553Y-42351368D01*
X103500500Y-42118092D01*
X103500500Y-41881908D01*
X103463553Y-41648632D01*
X103390568Y-41424008D01*
X103283343Y-41213567D01*
X103144517Y-41022490D01*
X102977510Y-40855483D01*
X102817311Y-40739091D01*
X102786432Y-40716656D01*
X102786427Y-40716653D01*
X102576000Y-40609436D01*
X102575998Y-40609435D01*
X102575992Y-40609432D01*
X102575987Y-40609430D01*
X102575984Y-40609429D01*
X102351376Y-40536449D01*
X102351361Y-40536445D01*
X102118096Y-40499500D01*
X102118092Y-40499500D01*
X101881908Y-40499500D01*
X101881903Y-40499500D01*
X101648638Y-40536445D01*
X101648623Y-40536449D01*
X101424015Y-40609429D01*
X101423999Y-40609436D01*
X101213572Y-40716653D01*
X101213567Y-40716656D01*
X101122465Y-40782847D01*
X101019672Y-40834156D01*
X100917327Y-40849500D01*
X95082673Y-40849500D01*
X94969353Y-40830590D01*
X94877535Y-40782847D01*
X94786432Y-40716656D01*
X94786427Y-40716653D01*
X94576000Y-40609436D01*
X94575998Y-40609435D01*
X94575992Y-40609432D01*
X94575989Y-40609431D01*
X94575987Y-40609430D01*
X94391651Y-40549535D01*
X94289721Y-40496532D01*
X94210524Y-40413305D01*
X94162642Y-40308871D01*
X94150500Y-40217617D01*
X94150500Y-39530140D01*
X94169410Y-39416820D01*
X94224090Y-39315780D01*
X94308615Y-39237969D01*
X94413826Y-39191819D01*
X94528320Y-39182332D01*
X94639692Y-39210535D01*
X94704639Y-39247795D01*
X94753557Y-39283336D01*
X94753567Y-39283343D01*
X94753569Y-39283344D01*
X94753572Y-39283346D01*
X94817228Y-39315780D01*
X94964008Y-39390568D01*
X95188632Y-39463553D01*
X95421908Y-39500500D01*
X95421912Y-39500500D01*
X95658088Y-39500500D01*
X95658092Y-39500500D01*
X95891368Y-39463553D01*
X96115992Y-39390568D01*
X96326433Y-39283343D01*
X96517510Y-39144517D01*
X96563220Y-39098807D01*
X96656720Y-39032049D01*
X96766831Y-38999267D01*
X96881620Y-39004015D01*
X96988648Y-39045777D01*
X97056780Y-39098807D01*
X97102490Y-39144517D01*
X97193356Y-39210535D01*
X97293567Y-39283343D01*
X97293572Y-39283346D01*
X97357228Y-39315780D01*
X97504008Y-39390568D01*
X97728632Y-39463553D01*
X97961908Y-39500500D01*
X97961912Y-39500500D01*
X98198088Y-39500500D01*
X98198092Y-39500500D01*
X98431368Y-39463553D01*
X98655992Y-39390568D01*
X98866433Y-39283343D01*
X99057510Y-39144517D01*
X99224517Y-38977510D01*
X99363343Y-38786433D01*
X99470568Y-38575992D01*
X99543553Y-38351368D01*
X99580500Y-38118092D01*
X99580500Y-37881908D01*
X99563624Y-37775356D01*
X99564574Y-37660476D01*
X99602774Y-37552126D01*
X99661540Y-37473990D01*
X100043514Y-37092016D01*
X100137013Y-37025261D01*
X100247124Y-36992480D01*
X100290292Y-36989800D01*
X100924309Y-36989800D01*
X101037629Y-37008710D01*
X101138669Y-37063390D01*
X101171089Y-37092020D01*
X104571380Y-40492311D01*
X104638138Y-40585811D01*
X104670920Y-40695922D01*
X104673600Y-40739091D01*
X104673600Y-45677908D01*
X104654690Y-45791228D01*
X104600010Y-45892268D01*
X104571380Y-45924688D01*
X103933259Y-46562808D01*
X103839758Y-46629567D01*
X103729647Y-46662348D01*
X103614859Y-46657600D01*
X103507831Y-46615838D01*
X103420162Y-46541586D01*
X103375518Y-46474471D01*
X103283343Y-46293567D01*
X103277996Y-46286207D01*
X103144517Y-46102490D01*
X102977510Y-45935483D01*
X102786433Y-45796657D01*
X102786434Y-45796657D01*
X102786432Y-45796656D01*
X102786427Y-45796653D01*
X102576000Y-45689436D01*
X102575998Y-45689435D01*
X102575992Y-45689432D01*
X102575987Y-45689430D01*
X102575984Y-45689429D01*
X102351376Y-45616449D01*
X102351361Y-45616445D01*
X102118096Y-45579500D01*
X102118092Y-45579500D01*
X101881908Y-45579500D01*
X101881903Y-45579500D01*
X101648638Y-45616445D01*
X101648623Y-45616449D01*
X101424015Y-45689429D01*
X101423999Y-45689436D01*
X101213572Y-45796653D01*
X101213567Y-45796656D01*
X101022487Y-45935485D01*
X101012070Y-45944383D01*
X101010050Y-45942018D01*
X100937193Y-45994038D01*
X100827082Y-46026820D01*
X100783913Y-46029500D01*
X95216087Y-46029500D01*
X95102767Y-46010590D01*
X95001727Y-45955910D01*
X94988249Y-45944008D01*
X94987930Y-45944383D01*
X94977512Y-45935485D01*
X94977511Y-45935484D01*
X94977510Y-45935483D01*
X94786433Y-45796657D01*
X94786434Y-45796657D01*
X94786432Y-45796656D01*
X94786427Y-45796653D01*
X94576000Y-45689436D01*
X94575998Y-45689435D01*
X94575992Y-45689432D01*
X94575987Y-45689430D01*
X94575984Y-45689429D01*
X94351376Y-45616449D01*
X94351361Y-45616445D01*
X94118096Y-45579500D01*
X94118092Y-45579500D01*
X93881908Y-45579500D01*
X93881903Y-45579500D01*
X93648638Y-45616445D01*
X93648623Y-45616449D01*
X93424015Y-45689429D01*
X93423999Y-45689436D01*
X93213572Y-45796653D01*
X93213567Y-45796656D01*
X93022487Y-45935485D01*
X93012070Y-45944383D01*
X93010050Y-45942018D01*
X92937193Y-45994038D01*
X92827082Y-46026820D01*
X92783913Y-46029500D01*
X84857486Y-46029500D01*
X84744166Y-46010590D01*
X84643126Y-45955910D01*
X84565315Y-45871385D01*
X84519165Y-45766174D01*
X84509678Y-45651680D01*
X84537881Y-45540308D01*
X84575139Y-45475362D01*
X84683343Y-45326433D01*
X84790568Y-45115992D01*
X84863553Y-44891368D01*
X84900500Y-44658092D01*
X84900500Y-44421908D01*
X84863553Y-44188632D01*
X84790568Y-43964008D01*
X84683343Y-43753567D01*
X84544517Y-43562490D01*
X84377510Y-43395483D01*
X84257947Y-43308615D01*
X84186432Y-43256656D01*
X84186427Y-43256653D01*
X83976000Y-43149436D01*
X83975998Y-43149435D01*
X83975992Y-43149432D01*
X83975987Y-43149430D01*
X83975984Y-43149429D01*
X83751376Y-43076449D01*
X83751361Y-43076445D01*
X83518096Y-43039500D01*
X83518092Y-43039500D01*
X83281908Y-43039500D01*
X83281903Y-43039500D01*
X83048638Y-43076445D01*
X83048623Y-43076449D01*
X82824015Y-43149429D01*
X82823999Y-43149436D01*
X82613572Y-43256653D01*
X82613567Y-43256656D01*
X82422488Y-43395484D01*
X82255484Y-43562488D01*
X82116656Y-43753567D01*
X82116653Y-43753572D01*
X82009435Y-43964000D01*
X82009427Y-43964019D01*
X81982893Y-44045682D01*
X81929890Y-44147612D01*
X81897756Y-44184611D01*
X69330348Y-56752020D01*
X69330344Y-56752024D01*
X69184025Y-56898341D01*
X69069059Y-57070400D01*
X68989870Y-57261580D01*
X68949500Y-57464534D01*
X68949500Y-100783913D01*
X68930590Y-100897233D01*
X68875910Y-100998273D01*
X68864008Y-101011750D01*
X68864383Y-101012070D01*
X68855485Y-101022487D01*
X68716656Y-101213567D01*
X68716653Y-101213572D01*
X68609436Y-101423999D01*
X68609429Y-101424015D01*
X68536449Y-101648623D01*
X68536445Y-101648638D01*
X68499500Y-101881903D01*
X68499500Y-102118096D01*
X68536445Y-102351361D01*
X68536449Y-102351376D01*
X68609429Y-102575984D01*
X68609436Y-102576000D01*
X68716653Y-102786427D01*
X68716656Y-102786432D01*
X68780815Y-102874738D01*
X68855483Y-102977510D01*
X69022490Y-103144517D01*
X69176441Y-103256369D01*
X69213567Y-103283343D01*
X69213572Y-103283346D01*
X69251392Y-103302616D01*
X69424008Y-103390568D01*
X69648632Y-103463553D01*
X69881908Y-103500500D01*
X69881912Y-103500500D01*
X70118088Y-103500500D01*
X70118092Y-103500500D01*
X70351368Y-103463553D01*
X70575992Y-103390568D01*
X70786433Y-103283343D01*
X70977510Y-103144517D01*
X71144517Y-102977510D01*
X71283343Y-102786433D01*
X71390568Y-102575992D01*
X71463553Y-102351368D01*
X71500500Y-102118092D01*
X71500500Y-101881908D01*
X71463553Y-101648632D01*
X71390568Y-101424008D01*
X71283343Y-101213567D01*
X71144517Y-101022490D01*
X71144514Y-101022487D01*
X71135617Y-101012070D01*
X71137981Y-101010050D01*
X71085962Y-100937193D01*
X71053180Y-100827082D01*
X71050500Y-100783913D01*
X71050500Y-58147691D01*
X71069410Y-58034371D01*
X71124090Y-57933331D01*
X71152720Y-57900911D01*
X76243981Y-52809650D01*
X81463266Y-47590364D01*
X81556763Y-47523609D01*
X81666874Y-47490827D01*
X81781663Y-47495575D01*
X81888691Y-47537337D01*
X81976359Y-47611589D01*
X82021004Y-47678704D01*
X82116656Y-47866431D01*
X82116656Y-47866432D01*
X82162932Y-47930125D01*
X82255483Y-48057510D01*
X82255484Y-48057511D01*
X82255485Y-48057512D01*
X82301194Y-48103222D01*
X82367952Y-48196723D01*
X82400732Y-48306834D01*
X82395984Y-48421623D01*
X82354220Y-48528651D01*
X82301194Y-48596778D01*
X82255485Y-48642487D01*
X82116656Y-48833567D01*
X82116653Y-48833572D01*
X82009436Y-49043999D01*
X82009429Y-49044015D01*
X81936449Y-49268623D01*
X81936445Y-49268638D01*
X81899500Y-49501903D01*
X81899500Y-49738096D01*
X81936445Y-49971361D01*
X81936449Y-49971376D01*
X82009429Y-50195984D01*
X82009436Y-50196000D01*
X82116653Y-50406427D01*
X82116656Y-50406432D01*
X82116657Y-50406433D01*
X82255483Y-50597510D01*
X82255484Y-50597511D01*
X82255485Y-50597512D01*
X82301194Y-50643222D01*
X82367952Y-50736723D01*
X82400732Y-50846834D01*
X82395984Y-50961623D01*
X82354220Y-51068651D01*
X82301194Y-51136778D01*
X82255485Y-51182487D01*
X82116656Y-51373567D01*
X82116653Y-51373572D01*
X82009436Y-51583999D01*
X82009429Y-51584015D01*
X81936449Y-51808623D01*
X81936445Y-51808638D01*
X81899500Y-52041903D01*
X81899500Y-52278096D01*
X81936445Y-52511361D01*
X81936449Y-52511376D01*
X82009429Y-52735984D01*
X82009436Y-52736000D01*
X82116653Y-52946427D01*
X82116656Y-52946432D01*
X82116657Y-52946433D01*
X82255483Y-53137510D01*
X82255484Y-53137511D01*
X82255485Y-53137512D01*
X82301194Y-53183222D01*
X82367952Y-53276723D01*
X82400732Y-53386834D01*
X82395984Y-53501623D01*
X82354220Y-53608651D01*
X82301194Y-53676778D01*
X82255485Y-53722487D01*
X82116656Y-53913567D01*
X82116653Y-53913572D01*
X82009436Y-54123999D01*
X82009429Y-54124015D01*
X81936449Y-54348623D01*
X81936445Y-54348638D01*
X81899500Y-54581903D01*
X81899500Y-54818096D01*
X81936445Y-55051361D01*
X81936449Y-55051376D01*
X82009429Y-55275984D01*
X82009436Y-55276000D01*
X82116653Y-55486427D01*
X82116656Y-55486432D01*
X82186070Y-55581971D01*
X82255483Y-55677510D01*
X82422490Y-55844517D01*
X82566985Y-55949499D01*
X82613567Y-55983343D01*
X82613572Y-55983346D01*
X82673393Y-56013826D01*
X82824008Y-56090568D01*
X83048632Y-56163553D01*
X83281908Y-56200500D01*
X83281912Y-56200500D01*
X83518088Y-56200500D01*
X83518092Y-56200500D01*
X83751368Y-56163553D01*
X83975992Y-56090568D01*
X84186433Y-55983343D01*
X84377510Y-55844517D01*
X84377518Y-55844508D01*
X84387930Y-55835617D01*
X84389949Y-55837981D01*
X84462807Y-55785962D01*
X84572918Y-55753180D01*
X84616087Y-55750500D01*
X90748800Y-55750500D01*
X90862120Y-55769410D01*
X90963160Y-55824090D01*
X91040971Y-55908615D01*
X91087121Y-56013826D01*
X91097800Y-56099500D01*
X91097800Y-57796535D01*
X91097800Y-58003465D01*
X91138170Y-58206420D01*
X91167884Y-58278155D01*
X91217359Y-58397599D01*
X91332325Y-58569658D01*
X91478641Y-58715974D01*
X91478644Y-58715976D01*
X91478645Y-58715977D01*
X91563498Y-58772673D01*
X91650700Y-58830940D01*
X91650701Y-58830940D01*
X91650702Y-58830941D01*
X91841880Y-58910130D01*
X92044835Y-58950500D01*
X92444385Y-58950500D01*
X92557705Y-58969410D01*
X92658745Y-59024090D01*
X92736556Y-59108615D01*
X92750696Y-59132244D01*
X92756202Y-59142328D01*
X92756203Y-59142329D01*
X92756204Y-59142331D01*
X92842454Y-59257546D01*
X92914189Y-59311247D01*
X92957670Y-59343797D01*
X93023840Y-59368476D01*
X93092517Y-59394091D01*
X93152127Y-59400500D01*
X94795147Y-59400499D01*
X94908467Y-59419409D01*
X95009507Y-59474089D01*
X95087318Y-59558614D01*
X95133468Y-59663824D01*
X95144128Y-59745826D01*
X95348697Y-79179811D01*
X95344419Y-79238079D01*
X95321682Y-79381631D01*
X95321682Y-79562729D01*
X95350012Y-79741592D01*
X95405968Y-79913812D01*
X95405974Y-79913826D01*
X95488182Y-80075170D01*
X95488186Y-80075176D01*
X95488187Y-80075177D01*
X95594631Y-80221684D01*
X96500499Y-81127552D01*
X96647006Y-81233995D01*
X96790415Y-81307067D01*
X96882799Y-81375362D01*
X96942932Y-81459583D01*
X96990686Y-81553306D01*
X97016004Y-81602994D01*
X97122447Y-81749501D01*
X97250499Y-81877553D01*
X97397006Y-81983996D01*
X97397012Y-81983999D01*
X97397015Y-81984001D01*
X97520930Y-82047139D01*
X97609267Y-82111320D01*
X98138678Y-82640730D01*
X98202859Y-82729066D01*
X98260633Y-82842454D01*
X98266004Y-82852994D01*
X98372447Y-82999501D01*
X98500499Y-83127553D01*
X98647006Y-83233996D01*
X98790417Y-83307068D01*
X98882797Y-83375360D01*
X98942931Y-83459582D01*
X99016004Y-83602994D01*
X99122447Y-83749501D01*
X99250499Y-83877553D01*
X99335720Y-83939469D01*
X99397006Y-83983996D01*
X99399348Y-83985431D01*
X99401224Y-83987060D01*
X99408100Y-83992056D01*
X99407665Y-83992654D01*
X99486089Y-84060764D01*
X99514569Y-84100652D01*
X99516003Y-84102993D01*
X99516004Y-84102994D01*
X99622447Y-84249501D01*
X99622450Y-84249504D01*
X99750496Y-84377550D01*
X99750496Y-84377551D01*
X99776413Y-84396381D01*
X99853617Y-84473585D01*
X99872442Y-84499495D01*
X99872445Y-84499498D01*
X99872447Y-84499501D01*
X100000499Y-84627553D01*
X100147006Y-84733996D01*
X100290417Y-84807068D01*
X100382797Y-84875360D01*
X100442932Y-84959583D01*
X100495071Y-85061912D01*
X100516004Y-85102994D01*
X100532849Y-85126179D01*
X100584157Y-85228970D01*
X100599500Y-85331313D01*
X100599500Y-86590550D01*
X100627827Y-86769401D01*
X100627831Y-86769418D01*
X100683785Y-86941629D01*
X100683791Y-86941643D01*
X100765996Y-87102980D01*
X100766000Y-87102987D01*
X100766004Y-87102994D01*
X100872447Y-87249501D01*
X101000499Y-87377553D01*
X101141302Y-87479852D01*
X101147006Y-87483996D01*
X101149348Y-87485431D01*
X101151224Y-87487060D01*
X101158100Y-87492056D01*
X101157665Y-87492654D01*
X101236089Y-87560764D01*
X101264569Y-87600652D01*
X101266003Y-87602993D01*
X101295111Y-87643057D01*
X101372447Y-87749501D01*
X101500499Y-87877553D01*
X101640737Y-87979441D01*
X101721300Y-88061347D01*
X101770903Y-88164974D01*
X101784600Y-88261788D01*
X101784600Y-89526721D01*
X101765690Y-89640041D01*
X101746561Y-89685165D01*
X101680941Y-89813950D01*
X101616760Y-89902286D01*
X100852567Y-90666480D01*
X100759067Y-90733238D01*
X100648956Y-90766020D01*
X100605787Y-90768700D01*
X97840312Y-90768700D01*
X97726992Y-90749790D01*
X97625952Y-90695110D01*
X97593540Y-90666488D01*
X97158876Y-90231823D01*
X97092120Y-90138325D01*
X97059339Y-90028214D01*
X97064087Y-89913425D01*
X97083223Y-89851495D01*
X97135639Y-89724952D01*
X97211993Y-89439993D01*
X97236130Y-89256656D01*
X97250500Y-89147510D01*
X97250500Y-88852489D01*
X97211994Y-88560016D01*
X97211993Y-88560007D01*
X97135639Y-88275048D01*
X97108281Y-88209001D01*
X97022744Y-88002495D01*
X97022744Y-88002494D01*
X96950609Y-87877553D01*
X96875238Y-87747006D01*
X96805563Y-87656204D01*
X96695650Y-87512963D01*
X96695634Y-87512945D01*
X96487054Y-87304365D01*
X96487036Y-87304349D01*
X96287042Y-87150888D01*
X96208651Y-87066901D01*
X96161777Y-86962011D01*
X96150500Y-86874008D01*
X96150500Y-85487236D01*
X96169410Y-85373916D01*
X96224090Y-85272876D01*
X96290350Y-85207848D01*
X96357546Y-85157546D01*
X96443796Y-85042331D01*
X96494091Y-84907483D01*
X96500500Y-84847873D01*
X96500499Y-83152128D01*
X96494091Y-83092517D01*
X96460910Y-83003553D01*
X96443797Y-82957671D01*
X96443796Y-82957669D01*
X96357546Y-82842454D01*
X96278294Y-82783126D01*
X96242329Y-82756202D01*
X96107483Y-82705909D01*
X96107485Y-82705909D01*
X96083639Y-82703345D01*
X96047873Y-82699500D01*
X96047870Y-82699500D01*
X93952129Y-82699500D01*
X93892514Y-82705909D01*
X93892511Y-82705910D01*
X93757671Y-82756202D01*
X93642454Y-82842454D01*
X93556202Y-82957670D01*
X93505909Y-83092515D01*
X93499500Y-83152129D01*
X93499500Y-84847870D01*
X93505909Y-84907485D01*
X93505910Y-84907488D01*
X93556202Y-85042328D01*
X93556203Y-85042329D01*
X93556204Y-85042331D01*
X93642454Y-85157546D01*
X93709649Y-85207848D01*
X93789033Y-85290896D01*
X93837151Y-85395220D01*
X93849500Y-85487236D01*
X93849500Y-86874008D01*
X93830590Y-86987328D01*
X93775910Y-87088368D01*
X93712958Y-87150888D01*
X93512963Y-87304349D01*
X93512945Y-87304365D01*
X93304365Y-87512945D01*
X93304349Y-87512963D01*
X93124767Y-87746998D01*
X93124761Y-87747007D01*
X92977255Y-88002494D01*
X92977254Y-88002498D01*
X92897188Y-88195793D01*
X92836352Y-88293250D01*
X92747167Y-88365674D01*
X92639299Y-88405215D01*
X92524437Y-88407589D01*
X92415027Y-88372538D01*
X92322926Y-88303861D01*
X92258115Y-88209001D01*
X92227617Y-88098236D01*
X92232460Y-87994156D01*
X92250500Y-87903465D01*
X92250500Y-85555614D01*
X92269410Y-85442294D01*
X92324090Y-85341254D01*
X92408615Y-85263443D01*
X92432247Y-85249301D01*
X92442321Y-85243799D01*
X92442330Y-85243796D01*
X92557545Y-85157546D01*
X92643795Y-85042331D01*
X92694090Y-84907483D01*
X92700499Y-84847873D01*
X92700498Y-83152128D01*
X92694090Y-83092517D01*
X92660909Y-83003553D01*
X92643796Y-82957671D01*
X92643795Y-82957669D01*
X92557545Y-82842454D01*
X92442330Y-82756204D01*
X92442326Y-82756201D01*
X92432240Y-82750694D01*
X92341844Y-82679788D01*
X92279369Y-82583372D01*
X92251586Y-82471895D01*
X92250500Y-82444385D01*
X92250500Y-82044834D01*
X92243802Y-82011161D01*
X92210130Y-81841880D01*
X92130941Y-81650702D01*
X92130805Y-81650499D01*
X92068020Y-81556534D01*
X92015977Y-81478645D01*
X92015976Y-81478644D01*
X92015974Y-81478641D01*
X91869659Y-81332326D01*
X91869655Y-81332323D01*
X91697598Y-81217359D01*
X91697594Y-81217357D01*
X91697592Y-81217356D01*
X91697593Y-81217356D01*
X91661339Y-81202339D01*
X91563882Y-81141502D01*
X91548119Y-81126687D01*
X90501020Y-80079588D01*
X90434262Y-79986088D01*
X90401480Y-79875977D01*
X90398800Y-79832808D01*
X90398800Y-78903387D01*
X90417710Y-78790067D01*
X90472390Y-78689027D01*
X90556915Y-78611216D01*
X90662126Y-78565066D01*
X90776620Y-78555579D01*
X90887992Y-78583782D01*
X90984171Y-78646619D01*
X90994580Y-78656607D01*
X91022490Y-78684517D01*
X91163317Y-78786834D01*
X91213567Y-78823343D01*
X91213572Y-78823346D01*
X91323411Y-78879311D01*
X91424008Y-78930568D01*
X91648632Y-79003553D01*
X91881908Y-79040500D01*
X91881912Y-79040500D01*
X92118088Y-79040500D01*
X92118092Y-79040500D01*
X92351368Y-79003553D01*
X92575992Y-78930568D01*
X92786433Y-78823343D01*
X92977510Y-78684517D01*
X93144517Y-78517510D01*
X93283343Y-78326433D01*
X93390568Y-78115992D01*
X93463553Y-77891368D01*
X93500500Y-77658092D01*
X93500500Y-77421908D01*
X93463553Y-77188632D01*
X93390568Y-76964008D01*
X93283343Y-76753567D01*
X93144517Y-76562490D01*
X93098807Y-76516780D01*
X93032049Y-76423280D01*
X92999267Y-76313169D01*
X93004015Y-76198380D01*
X93045777Y-76091352D01*
X93098807Y-76023220D01*
X93144517Y-75977510D01*
X93283343Y-75786433D01*
X93390568Y-75575992D01*
X93463553Y-75351368D01*
X93500500Y-75118092D01*
X93500500Y-74881908D01*
X93463553Y-74648632D01*
X93390568Y-74424008D01*
X93283343Y-74213567D01*
X93144517Y-74022490D01*
X92977510Y-73855483D01*
X92786433Y-73716657D01*
X92786434Y-73716657D01*
X92786432Y-73716656D01*
X92786427Y-73716653D01*
X92576000Y-73609436D01*
X92575998Y-73609435D01*
X92575992Y-73609432D01*
X92575987Y-73609430D01*
X92575984Y-73609429D01*
X92351376Y-73536449D01*
X92351361Y-73536445D01*
X92118096Y-73499500D01*
X92104418Y-73498424D01*
X92104662Y-73495323D01*
X92016371Y-73480590D01*
X91915331Y-73425910D01*
X91882911Y-73397280D01*
X85228169Y-66742538D01*
X85228164Y-66742532D01*
X85228164Y-66742533D01*
X85215978Y-66730347D01*
X85215977Y-66730345D01*
X85069655Y-66584023D01*
X85021922Y-66552129D01*
X84897599Y-66469059D01*
X84690580Y-66383309D01*
X84691505Y-66381075D01*
X84610805Y-66341107D01*
X84529987Y-66259453D01*
X84480061Y-66155981D01*
X84466438Y-66041904D01*
X84490593Y-65929585D01*
X84538481Y-65850074D01*
X84536457Y-65848603D01*
X84544517Y-65837510D01*
X84683343Y-65646433D01*
X84790568Y-65435992D01*
X84863553Y-65211368D01*
X84900500Y-64978092D01*
X84900500Y-64741908D01*
X84863553Y-64508632D01*
X84790568Y-64284008D01*
X84683343Y-64073567D01*
X84544517Y-63882490D01*
X84498807Y-63836780D01*
X84432049Y-63743280D01*
X84399267Y-63633169D01*
X84404015Y-63518380D01*
X84445777Y-63411352D01*
X84498807Y-63343220D01*
X84544517Y-63297510D01*
X84683343Y-63106433D01*
X84790568Y-62895992D01*
X84863553Y-62671368D01*
X84900500Y-62438092D01*
X84900500Y-62201908D01*
X84863553Y-61968632D01*
X84790568Y-61744008D01*
X84683343Y-61533567D01*
X84544517Y-61342490D01*
X84498807Y-61296780D01*
X84432049Y-61203280D01*
X84399267Y-61093169D01*
X84404015Y-60978380D01*
X84445777Y-60871352D01*
X84498807Y-60803220D01*
X84544517Y-60757510D01*
X84683343Y-60566433D01*
X84790568Y-60355992D01*
X84863553Y-60131368D01*
X84900500Y-59898092D01*
X84900500Y-59661908D01*
X84863553Y-59428632D01*
X84790568Y-59204008D01*
X84739311Y-59103411D01*
X84683346Y-58993572D01*
X84683343Y-58993567D01*
X84622722Y-58910130D01*
X84544517Y-58802490D01*
X84377510Y-58635483D01*
X84204798Y-58510000D01*
X84186432Y-58496656D01*
X84186427Y-58496653D01*
X83976000Y-58389436D01*
X83975998Y-58389435D01*
X83975992Y-58389432D01*
X83975987Y-58389430D01*
X83975984Y-58389429D01*
X83751376Y-58316449D01*
X83751361Y-58316445D01*
X83518096Y-58279500D01*
X83518092Y-58279500D01*
X83281908Y-58279500D01*
X83281903Y-58279500D01*
X83048638Y-58316445D01*
X83048623Y-58316449D01*
X82824015Y-58389429D01*
X82823999Y-58389436D01*
X82613572Y-58496653D01*
X82613567Y-58496656D01*
X82422488Y-58635484D01*
X82255484Y-58802488D01*
X82116656Y-58993567D01*
X82116653Y-58993572D01*
X82009432Y-59204006D01*
X82009431Y-59204009D01*
X81981883Y-59288792D01*
X81928880Y-59390722D01*
X81896745Y-59427722D01*
X74410348Y-66914120D01*
X74410344Y-66914124D01*
X74264025Y-67060441D01*
X74149059Y-67232500D01*
X74069870Y-67423680D01*
X74029500Y-67626634D01*
X74029500Y-100783913D01*
X74010590Y-100897233D01*
X73955910Y-100998273D01*
X73944008Y-101011750D01*
X73944383Y-101012070D01*
X73935485Y-101022487D01*
X73796656Y-101213567D01*
X73796653Y-101213572D01*
X73689436Y-101423999D01*
X73689429Y-101424015D01*
X73616449Y-101648623D01*
X73616445Y-101648638D01*
X73579500Y-101881903D01*
X73579500Y-102118096D01*
X73616445Y-102351361D01*
X73616449Y-102351376D01*
X73641950Y-102429858D01*
X73689432Y-102575992D01*
X73697968Y-102592744D01*
X73732566Y-102702298D01*
X73729717Y-102817149D01*
X73689730Y-102924853D01*
X73616938Y-103013737D01*
X73519230Y-103074170D01*
X73422952Y-103097075D01*
X73422997Y-103097355D01*
X73419355Y-103097931D01*
X73414403Y-103099110D01*
X73409457Y-103099499D01*
X73230598Y-103127827D01*
X73230581Y-103127831D01*
X73058370Y-103183785D01*
X73058356Y-103183791D01*
X72897019Y-103265996D01*
X72897003Y-103266006D01*
X72750499Y-103372447D01*
X72750495Y-103372450D01*
X72622450Y-103500495D01*
X72622447Y-103500499D01*
X72515997Y-103647015D01*
X72514553Y-103649372D01*
X72512916Y-103651256D01*
X72507944Y-103658100D01*
X72507347Y-103657666D01*
X72439213Y-103736107D01*
X72399372Y-103764553D01*
X72397015Y-103765997D01*
X72250499Y-103872447D01*
X72250495Y-103872450D01*
X72122450Y-104000495D01*
X72122447Y-104000499D01*
X72016006Y-104147003D01*
X72015996Y-104147019D01*
X71933791Y-104308356D01*
X71933788Y-104308362D01*
X71915034Y-104366085D01*
X71862032Y-104468016D01*
X71778806Y-104547215D01*
X71674373Y-104595098D01*
X71637711Y-104602943D01*
X71585739Y-104611175D01*
X71480596Y-104627828D01*
X71480581Y-104627831D01*
X71308370Y-104683785D01*
X71308356Y-104683791D01*
X71147019Y-104765996D01*
X71147007Y-104766003D01*
X71147006Y-104766004D01*
X71123822Y-104782847D01*
X71021031Y-104834156D01*
X70918687Y-104849500D01*
X59499500Y-104849500D01*
X59386180Y-104830590D01*
X59285140Y-104775910D01*
X59207329Y-104691385D01*
X59161179Y-104586174D01*
X59150500Y-104500500D01*
X59150500Y-101909458D01*
X59150499Y-101909449D01*
X59147919Y-101893162D01*
X59122171Y-101730591D01*
X59095541Y-101648632D01*
X59066214Y-101558370D01*
X59066213Y-101558369D01*
X59066211Y-101558361D01*
X58997758Y-101424015D01*
X58984003Y-101397019D01*
X58984000Y-101397015D01*
X58983996Y-101397006D01*
X58877553Y-101250499D01*
X58749501Y-101122447D01*
X58602994Y-101016004D01*
X58602987Y-101016000D01*
X58602980Y-101015996D01*
X58441643Y-100933791D01*
X58441642Y-100933790D01*
X58441639Y-100933789D01*
X58441636Y-100933788D01*
X58441629Y-100933785D01*
X58269418Y-100877831D01*
X58269401Y-100877827D01*
X58090550Y-100849500D01*
X58090546Y-100849500D01*
X35746112Y-100849500D01*
X35632792Y-100830590D01*
X35531752Y-100775910D01*
X35499341Y-100747289D01*
X35111316Y-100359263D01*
X35047139Y-100270930D01*
X34984001Y-100147015D01*
X34983999Y-100147012D01*
X34983996Y-100147006D01*
X34877553Y-100000499D01*
X34749501Y-99872447D01*
X34602994Y-99766004D01*
X34602989Y-99766001D01*
X34602984Y-99765998D01*
X34559523Y-99743854D01*
X34467139Y-99675559D01*
X34401936Y-99580967D01*
X34373262Y-99487482D01*
X34372171Y-99480591D01*
X34366635Y-99463554D01*
X34316214Y-99308370D01*
X34316213Y-99308369D01*
X34316211Y-99308361D01*
X34234978Y-99148933D01*
X34234003Y-99147019D01*
X34234000Y-99147014D01*
X34233996Y-99147006D01*
X34217150Y-99123819D01*
X34165842Y-99021026D01*
X34150500Y-98918686D01*
X34150500Y-68881903D01*
X41039500Y-68881903D01*
X41039500Y-69118096D01*
X41076445Y-69351361D01*
X41076449Y-69351376D01*
X41149429Y-69575984D01*
X41149436Y-69576000D01*
X41256653Y-69786427D01*
X41256656Y-69786432D01*
X41282431Y-69821908D01*
X41395483Y-69977510D01*
X41562490Y-70144517D01*
X41753567Y-70283343D01*
X41753572Y-70283346D01*
X41863411Y-70339311D01*
X41964008Y-70390568D01*
X42188632Y-70463553D01*
X42421908Y-70500500D01*
X42421912Y-70500500D01*
X42658088Y-70500500D01*
X42658092Y-70500500D01*
X42891368Y-70463553D01*
X43115992Y-70390568D01*
X43326433Y-70283343D01*
X43517510Y-70144517D01*
X43684517Y-69977510D01*
X43823343Y-69786433D01*
X43930568Y-69575992D01*
X44003553Y-69351368D01*
X44040500Y-69118092D01*
X44040500Y-68881908D01*
X44003553Y-68648632D01*
X43930568Y-68424008D01*
X43854436Y-68274591D01*
X43823346Y-68213572D01*
X43823343Y-68213567D01*
X43803628Y-68186432D01*
X43684517Y-68022490D01*
X43517510Y-67855483D01*
X43421971Y-67786070D01*
X43326432Y-67716656D01*
X43326427Y-67716653D01*
X43116000Y-67609436D01*
X43115998Y-67609435D01*
X43115992Y-67609432D01*
X43115987Y-67609430D01*
X43115984Y-67609429D01*
X42891376Y-67536449D01*
X42891361Y-67536445D01*
X42658096Y-67499500D01*
X42658092Y-67499500D01*
X42421908Y-67499500D01*
X42421903Y-67499500D01*
X42188638Y-67536445D01*
X42188623Y-67536449D01*
X41964015Y-67609429D01*
X41963999Y-67609436D01*
X41753572Y-67716653D01*
X41753567Y-67716656D01*
X41562488Y-67855484D01*
X41395484Y-68022488D01*
X41256656Y-68213567D01*
X41256653Y-68213572D01*
X41149436Y-68423999D01*
X41149429Y-68424015D01*
X41076449Y-68648623D01*
X41076445Y-68648638D01*
X41039500Y-68881903D01*
X34150500Y-68881903D01*
X34150500Y-43499500D01*
X34169410Y-43386180D01*
X34224090Y-43285140D01*
X34308615Y-43207329D01*
X34413826Y-43161179D01*
X34499500Y-43150500D01*
X53871987Y-43150500D01*
X53985307Y-43169410D01*
X54086347Y-43224090D01*
X54164158Y-43308615D01*
X54210308Y-43413826D01*
X54219795Y-43528320D01*
X54191592Y-43639692D01*
X54128755Y-43735871D01*
X54118771Y-43746275D01*
X52538619Y-45326427D01*
X51250502Y-46614544D01*
X51122450Y-46742595D01*
X51122447Y-46742599D01*
X51016006Y-46889103D01*
X51015996Y-46889119D01*
X50933791Y-47050456D01*
X50933785Y-47050470D01*
X50877829Y-47222690D01*
X50849499Y-47401553D01*
X50849499Y-47597050D01*
X50849500Y-47597075D01*
X50849500Y-53617327D01*
X50830590Y-53730647D01*
X50782848Y-53822463D01*
X50716655Y-53913569D01*
X50716653Y-53913572D01*
X50609436Y-54123999D01*
X50609429Y-54124015D01*
X50536449Y-54348623D01*
X50536445Y-54348638D01*
X50499500Y-54581903D01*
X50499500Y-54818096D01*
X50536445Y-55051361D01*
X50536449Y-55051376D01*
X50609429Y-55275984D01*
X50609436Y-55276000D01*
X50716653Y-55486427D01*
X50716656Y-55486432D01*
X50786070Y-55581971D01*
X50855483Y-55677510D01*
X51022490Y-55844517D01*
X51166985Y-55949499D01*
X51213567Y-55983343D01*
X51213572Y-55983346D01*
X51273393Y-56013826D01*
X51424008Y-56090568D01*
X51648632Y-56163553D01*
X51881908Y-56200500D01*
X51881912Y-56200500D01*
X52118088Y-56200500D01*
X52118092Y-56200500D01*
X52351368Y-56163553D01*
X52575992Y-56090568D01*
X52786433Y-55983343D01*
X52977510Y-55844517D01*
X53144517Y-55677510D01*
X53283343Y-55486433D01*
X53390568Y-55275992D01*
X53463553Y-55051368D01*
X53500500Y-54818092D01*
X53500500Y-54581908D01*
X53463553Y-54348632D01*
X53390568Y-54124008D01*
X53283343Y-53913567D01*
X53217151Y-53822462D01*
X53165843Y-53719670D01*
X53150500Y-53617327D01*
X53150500Y-48113213D01*
X53169410Y-47999893D01*
X53224090Y-47898853D01*
X53252720Y-47866433D01*
X54644682Y-46474471D01*
X56065130Y-45054022D01*
X56158627Y-44987267D01*
X56268738Y-44954485D01*
X56383527Y-44959233D01*
X56490555Y-45000995D01*
X56578223Y-45075247D01*
X56622868Y-45142362D01*
X56716653Y-45326427D01*
X56716657Y-45326433D01*
X56855483Y-45517510D01*
X56855484Y-45517511D01*
X56855485Y-45517512D01*
X56901194Y-45563222D01*
X56967952Y-45656723D01*
X57000732Y-45766834D01*
X56995984Y-45881623D01*
X56954220Y-45988651D01*
X56901194Y-46056778D01*
X56855485Y-46102487D01*
X56716656Y-46293567D01*
X56716653Y-46293572D01*
X56609436Y-46503999D01*
X56609429Y-46504015D01*
X56536449Y-46728623D01*
X56536445Y-46728638D01*
X56499500Y-46961903D01*
X56499500Y-47198096D01*
X56536445Y-47431361D01*
X56536449Y-47431376D01*
X56609429Y-47655984D01*
X56609436Y-47656000D01*
X56716653Y-47866427D01*
X56716656Y-47866432D01*
X56762932Y-47930125D01*
X56855483Y-48057510D01*
X56855484Y-48057511D01*
X56855485Y-48057512D01*
X56901194Y-48103222D01*
X56967952Y-48196723D01*
X57000732Y-48306834D01*
X56995984Y-48421623D01*
X56954220Y-48528651D01*
X56901194Y-48596778D01*
X56855485Y-48642487D01*
X56716656Y-48833567D01*
X56716653Y-48833572D01*
X56609436Y-49043999D01*
X56609429Y-49044015D01*
X56536449Y-49268623D01*
X56536445Y-49268638D01*
X56499500Y-49501903D01*
X56499500Y-49738096D01*
X56536445Y-49971361D01*
X56536449Y-49971376D01*
X56609429Y-50195984D01*
X56609436Y-50196000D01*
X56716653Y-50406427D01*
X56716656Y-50406432D01*
X56716657Y-50406433D01*
X56855483Y-50597510D01*
X56855484Y-50597511D01*
X56855485Y-50597512D01*
X56901194Y-50643222D01*
X56967952Y-50736723D01*
X57000732Y-50846834D01*
X56995984Y-50961623D01*
X56954220Y-51068651D01*
X56901194Y-51136778D01*
X56855485Y-51182487D01*
X56716656Y-51373567D01*
X56716653Y-51373572D01*
X56609436Y-51583999D01*
X56609429Y-51584015D01*
X56536449Y-51808623D01*
X56536445Y-51808638D01*
X56499500Y-52041903D01*
X56499500Y-52278096D01*
X56536445Y-52511361D01*
X56536449Y-52511376D01*
X56609429Y-52735984D01*
X56609436Y-52736000D01*
X56716653Y-52946427D01*
X56716656Y-52946432D01*
X56716657Y-52946433D01*
X56855483Y-53137510D01*
X56855484Y-53137511D01*
X56855485Y-53137512D01*
X56901194Y-53183222D01*
X56967952Y-53276723D01*
X57000732Y-53386834D01*
X56995984Y-53501623D01*
X56954220Y-53608651D01*
X56901194Y-53676778D01*
X56855485Y-53722487D01*
X56716656Y-53913567D01*
X56716653Y-53913572D01*
X56609436Y-54123999D01*
X56609429Y-54124015D01*
X56536449Y-54348623D01*
X56536445Y-54348638D01*
X56499500Y-54581903D01*
X56499500Y-54818096D01*
X56536445Y-55051361D01*
X56536449Y-55051376D01*
X56609429Y-55275984D01*
X56609436Y-55276000D01*
X56716653Y-55486427D01*
X56716656Y-55486432D01*
X56762932Y-55550125D01*
X56855483Y-55677510D01*
X56855484Y-55677511D01*
X56855485Y-55677512D01*
X56901194Y-55723222D01*
X56967952Y-55816723D01*
X57000732Y-55926834D01*
X56995984Y-56041623D01*
X56954220Y-56148651D01*
X56901194Y-56216778D01*
X56855485Y-56262487D01*
X56716656Y-56453567D01*
X56716653Y-56453572D01*
X56609436Y-56663999D01*
X56609429Y-56664015D01*
X56536449Y-56888623D01*
X56536445Y-56888638D01*
X56499500Y-57121903D01*
X56499500Y-57358096D01*
X56536445Y-57591361D01*
X56536449Y-57591376D01*
X56609429Y-57815984D01*
X56609436Y-57816000D01*
X56716653Y-58026427D01*
X56716656Y-58026432D01*
X56716657Y-58026433D01*
X56804756Y-58147691D01*
X56824861Y-58175362D01*
X56876170Y-58278155D01*
X56891323Y-58392038D01*
X56868677Y-58504671D01*
X56810686Y-58603848D01*
X56723635Y-58678822D01*
X56616956Y-58721468D01*
X56542514Y-58729500D01*
X53216087Y-58729500D01*
X53102767Y-58710590D01*
X53001727Y-58655910D01*
X52988249Y-58644008D01*
X52987930Y-58644383D01*
X52977512Y-58635485D01*
X52977511Y-58635484D01*
X52977510Y-58635483D01*
X52804798Y-58510000D01*
X52786432Y-58496656D01*
X52786427Y-58496653D01*
X52576000Y-58389436D01*
X52575998Y-58389435D01*
X52575992Y-58389432D01*
X52575987Y-58389430D01*
X52575984Y-58389429D01*
X52351376Y-58316449D01*
X52351361Y-58316445D01*
X52118096Y-58279500D01*
X52118092Y-58279500D01*
X51881908Y-58279500D01*
X51881903Y-58279500D01*
X51648638Y-58316445D01*
X51648623Y-58316449D01*
X51424015Y-58389429D01*
X51423999Y-58389436D01*
X51213572Y-58496653D01*
X51213567Y-58496656D01*
X51022488Y-58635484D01*
X50855484Y-58802488D01*
X50716656Y-58993567D01*
X50716653Y-58993572D01*
X50609436Y-59203999D01*
X50609429Y-59204015D01*
X50536449Y-59428623D01*
X50536445Y-59428638D01*
X50499500Y-59661903D01*
X50499500Y-59898096D01*
X50536445Y-60131361D01*
X50536449Y-60131376D01*
X50609429Y-60355984D01*
X50609436Y-60356000D01*
X50716653Y-60566427D01*
X50716656Y-60566432D01*
X50824861Y-60715362D01*
X50876170Y-60818155D01*
X50891323Y-60932038D01*
X50868677Y-61044671D01*
X50810686Y-61143848D01*
X50723635Y-61218822D01*
X50616956Y-61261468D01*
X50542514Y-61269500D01*
X49399692Y-61269500D01*
X49286372Y-61250590D01*
X49185332Y-61195910D01*
X49152912Y-61167280D01*
X49102720Y-61117088D01*
X49035962Y-61023588D01*
X49003180Y-60913477D01*
X49002066Y-60895543D01*
X49001576Y-60895582D01*
X49000500Y-60881915D01*
X49000500Y-60881908D01*
X48963553Y-60648632D01*
X48890568Y-60424008D01*
X48783343Y-60213567D01*
X48644517Y-60022490D01*
X48477510Y-59855483D01*
X48286433Y-59716657D01*
X48286434Y-59716657D01*
X48286432Y-59716656D01*
X48286427Y-59716653D01*
X48076000Y-59609436D01*
X48075998Y-59609435D01*
X48075992Y-59609432D01*
X48075987Y-59609430D01*
X48075984Y-59609429D01*
X47851376Y-59536449D01*
X47851361Y-59536445D01*
X47618096Y-59499500D01*
X47618092Y-59499500D01*
X47381908Y-59499500D01*
X47381903Y-59499500D01*
X47148638Y-59536445D01*
X47148623Y-59536449D01*
X46924015Y-59609429D01*
X46923999Y-59609436D01*
X46713572Y-59716653D01*
X46713567Y-59716656D01*
X46522488Y-59855484D01*
X46355484Y-60022488D01*
X46216656Y-60213567D01*
X46216653Y-60213572D01*
X46109436Y-60423999D01*
X46109429Y-60424015D01*
X46036449Y-60648623D01*
X46036445Y-60648638D01*
X45999500Y-60881903D01*
X45999500Y-61118096D01*
X46036445Y-61351361D01*
X46036449Y-61351376D01*
X46109429Y-61575984D01*
X46109436Y-61576000D01*
X46216653Y-61786427D01*
X46216656Y-61786432D01*
X46355484Y-61977511D01*
X46522489Y-62144516D01*
X46522495Y-62144521D01*
X46623153Y-62217654D01*
X46703716Y-62299560D01*
X46753318Y-62403187D01*
X46766586Y-62517306D01*
X46742080Y-62629549D01*
X46682457Y-62727753D01*
X46623153Y-62782346D01*
X46522495Y-62855478D01*
X46522489Y-62855483D01*
X46355484Y-63022488D01*
X46216656Y-63213567D01*
X46216653Y-63213572D01*
X46109436Y-63423999D01*
X46109429Y-63424015D01*
X46036449Y-63648623D01*
X46036445Y-63648638D01*
X45999500Y-63881903D01*
X45999500Y-64118096D01*
X46036445Y-64351361D01*
X46036449Y-64351376D01*
X46109429Y-64575984D01*
X46109436Y-64576000D01*
X46216653Y-64786427D01*
X46216656Y-64786432D01*
X46216657Y-64786433D01*
X46355483Y-64977510D01*
X46522490Y-65144517D01*
X46713567Y-65283343D01*
X46713572Y-65283346D01*
X46823411Y-65339311D01*
X46924008Y-65390568D01*
X47148632Y-65463553D01*
X47381908Y-65500500D01*
X47381916Y-65500500D01*
X47395582Y-65501576D01*
X47395337Y-65504676D01*
X47483627Y-65519410D01*
X47584667Y-65574090D01*
X47617087Y-65602720D01*
X47690340Y-65675973D01*
X47690343Y-65675975D01*
X47690345Y-65675977D01*
X47862402Y-65790942D01*
X48053580Y-65870130D01*
X48256535Y-65910501D01*
X48256538Y-65910501D01*
X48480693Y-65910501D01*
X48480713Y-65910500D01*
X49320334Y-65910500D01*
X49433654Y-65929410D01*
X49534694Y-65984090D01*
X49612505Y-66068615D01*
X49658655Y-66173826D01*
X49668142Y-66288320D01*
X49647330Y-66381461D01*
X49605909Y-66492515D01*
X49599500Y-66552129D01*
X49599500Y-68247870D01*
X49605909Y-68307485D01*
X49605910Y-68307488D01*
X49656202Y-68442328D01*
X49665376Y-68459128D01*
X49703088Y-68567649D01*
X49703521Y-68682535D01*
X49698063Y-68709350D01*
X49505056Y-69498006D01*
X49493496Y-69533324D01*
X49489867Y-69545288D01*
X49475643Y-69616796D01*
X49472347Y-69631664D01*
X49455016Y-69702481D01*
X49453254Y-69714821D01*
X49450721Y-69735835D01*
X49449500Y-69748234D01*
X49449500Y-69821147D01*
X49449167Y-69836382D01*
X49445984Y-69909212D01*
X49446667Y-69921720D01*
X49449500Y-69958750D01*
X49449500Y-70944384D01*
X49430590Y-71057704D01*
X49375910Y-71158744D01*
X49291385Y-71236555D01*
X49267764Y-71250691D01*
X49257672Y-71256201D01*
X49142456Y-71342452D01*
X49137634Y-71347275D01*
X49044135Y-71414035D01*
X48934024Y-71446819D01*
X48890848Y-71449500D01*
X48257213Y-71449500D01*
X48257193Y-71449499D01*
X48239966Y-71449499D01*
X48033035Y-71449499D01*
X48033031Y-71449499D01*
X47863753Y-71483171D01*
X47863753Y-71483172D01*
X47830080Y-71489870D01*
X47830079Y-71489870D01*
X47830076Y-71489871D01*
X47799615Y-71502489D01*
X47799613Y-71502490D01*
X47638902Y-71569058D01*
X47466840Y-71684026D01*
X41330347Y-77820521D01*
X41330344Y-77820524D01*
X41184024Y-77966842D01*
X41164934Y-77995413D01*
X41086253Y-78079129D01*
X40984653Y-78132761D01*
X40871143Y-78150497D01*
X40758025Y-78130416D01*
X40657556Y-78074694D01*
X40609378Y-78028181D01*
X40604518Y-78022491D01*
X40437511Y-77855484D01*
X40246432Y-77716656D01*
X40246427Y-77716653D01*
X40036000Y-77609436D01*
X40035998Y-77609435D01*
X40035992Y-77609432D01*
X40035987Y-77609430D01*
X40035984Y-77609429D01*
X39811376Y-77536449D01*
X39811361Y-77536445D01*
X39578096Y-77499500D01*
X39578092Y-77499500D01*
X39341908Y-77499500D01*
X39341903Y-77499500D01*
X39108638Y-77536445D01*
X39108623Y-77536449D01*
X38884015Y-77609429D01*
X38883999Y-77609436D01*
X38673572Y-77716653D01*
X38673567Y-77716656D01*
X38482488Y-77855484D01*
X38315484Y-78022488D01*
X38176656Y-78213567D01*
X38176653Y-78213572D01*
X38069436Y-78423999D01*
X38069429Y-78424015D01*
X37996449Y-78648623D01*
X37996445Y-78648638D01*
X37959500Y-78881903D01*
X37959500Y-79118096D01*
X37996445Y-79351361D01*
X37996449Y-79351376D01*
X38069429Y-79575984D01*
X38069436Y-79576000D01*
X38176653Y-79786427D01*
X38176656Y-79786432D01*
X38222932Y-79850125D01*
X38315483Y-79977510D01*
X38315485Y-79977512D01*
X38324383Y-79987930D01*
X38322018Y-79989949D01*
X38374038Y-80062807D01*
X38406820Y-80172918D01*
X38409500Y-80216087D01*
X38409500Y-83794908D01*
X38390590Y-83908228D01*
X38335910Y-84009268D01*
X38307280Y-84041688D01*
X36330344Y-86018624D01*
X36184025Y-86164941D01*
X36069059Y-86337000D01*
X35989870Y-86528180D01*
X35949500Y-86731134D01*
X35949500Y-96783913D01*
X35930590Y-96897233D01*
X35875910Y-96998273D01*
X35864008Y-97011750D01*
X35864383Y-97012070D01*
X35855485Y-97022487D01*
X35716656Y-97213567D01*
X35716653Y-97213572D01*
X35609436Y-97423999D01*
X35609429Y-97424015D01*
X35536449Y-97648623D01*
X35536445Y-97648638D01*
X35499500Y-97881903D01*
X35499500Y-98118096D01*
X35536445Y-98351361D01*
X35536449Y-98351376D01*
X35609429Y-98575984D01*
X35609436Y-98576000D01*
X35716653Y-98786427D01*
X35716656Y-98786432D01*
X35716657Y-98786433D01*
X35855483Y-98977510D01*
X36022490Y-99144517D01*
X36213567Y-99283343D01*
X36213572Y-99283346D01*
X36262685Y-99308370D01*
X36424008Y-99390568D01*
X36648632Y-99463553D01*
X36881908Y-99500500D01*
X36881912Y-99500500D01*
X37118088Y-99500500D01*
X37118092Y-99500500D01*
X37351368Y-99463553D01*
X37575992Y-99390568D01*
X37786433Y-99283343D01*
X37977510Y-99144517D01*
X38023220Y-99098807D01*
X38116720Y-99032049D01*
X38226831Y-98999267D01*
X38341620Y-99004015D01*
X38448648Y-99045777D01*
X38516780Y-99098807D01*
X38562490Y-99144517D01*
X38753567Y-99283343D01*
X38753572Y-99283346D01*
X38802685Y-99308370D01*
X38964008Y-99390568D01*
X39188632Y-99463553D01*
X39421908Y-99500500D01*
X39421912Y-99500500D01*
X39658088Y-99500500D01*
X39658092Y-99500500D01*
X39891368Y-99463553D01*
X40115992Y-99390568D01*
X40326433Y-99283343D01*
X40517510Y-99144517D01*
X40684517Y-98977510D01*
X40823343Y-98786433D01*
X40930568Y-98575992D01*
X41003553Y-98351368D01*
X41040500Y-98118092D01*
X41040500Y-97881908D01*
X41003553Y-97648632D01*
X40930568Y-97424008D01*
X40823343Y-97213567D01*
X40684517Y-97022490D01*
X40612718Y-96950691D01*
X40545961Y-96857190D01*
X40513180Y-96747079D01*
X40510500Y-96703912D01*
X40510500Y-91997486D01*
X40529410Y-91884166D01*
X40584090Y-91783126D01*
X40668615Y-91705315D01*
X40773826Y-91659165D01*
X40888320Y-91649678D01*
X40999692Y-91677881D01*
X41064635Y-91715137D01*
X41111933Y-91749501D01*
X41213567Y-91823343D01*
X41213572Y-91823346D01*
X41319952Y-91877549D01*
X41424008Y-91930568D01*
X41648632Y-92003553D01*
X41881908Y-92040500D01*
X41881912Y-92040500D01*
X42118088Y-92040500D01*
X42118092Y-92040500D01*
X42351368Y-92003553D01*
X42575992Y-91930568D01*
X42786433Y-91823343D01*
X42977510Y-91684517D01*
X42977518Y-91684508D01*
X42987930Y-91675617D01*
X42989949Y-91677981D01*
X43062807Y-91625962D01*
X43172918Y-91593180D01*
X43216087Y-91590500D01*
X45663465Y-91590500D01*
X45866420Y-91550130D01*
X46057598Y-91470941D01*
X46229655Y-91355977D01*
X46375977Y-91209655D01*
X46404702Y-91180930D01*
X46404708Y-91180921D01*
X46882914Y-90702715D01*
X46976412Y-90635960D01*
X47086523Y-90603179D01*
X47129691Y-90600499D01*
X47847871Y-90600499D01*
X47847872Y-90600499D01*
X47907483Y-90594091D01*
X48042331Y-90543796D01*
X48157546Y-90457546D01*
X48243796Y-90342331D01*
X48243797Y-90342327D01*
X48249304Y-90332244D01*
X48320209Y-90241847D01*
X48416624Y-90179371D01*
X48528100Y-90151586D01*
X48555615Y-90150500D01*
X48955165Y-90150500D01*
X49158120Y-90110130D01*
X49349298Y-90030941D01*
X49521355Y-89915977D01*
X49667677Y-89769655D01*
X49782641Y-89597598D01*
X49861830Y-89406420D01*
X49902200Y-89203465D01*
X49902200Y-82239690D01*
X49921110Y-82126370D01*
X49975790Y-82025330D01*
X50004412Y-81992918D01*
X51749757Y-80247572D01*
X51749771Y-80247561D01*
X51915974Y-80081358D01*
X51915977Y-80081355D01*
X52030941Y-79909298D01*
X52110130Y-79718120D01*
X52150500Y-79515165D01*
X52150500Y-79115615D01*
X52169410Y-79002295D01*
X52224090Y-78901255D01*
X52308615Y-78823444D01*
X52332244Y-78809304D01*
X52342328Y-78803797D01*
X52342327Y-78803797D01*
X52342331Y-78803796D01*
X52457546Y-78717546D01*
X52543796Y-78602331D01*
X52594091Y-78467483D01*
X52600500Y-78407873D01*
X52600499Y-76712129D01*
X53399500Y-76712129D01*
X53399500Y-78407870D01*
X53405909Y-78467485D01*
X53405910Y-78467488D01*
X53456202Y-78602328D01*
X53456203Y-78602329D01*
X53456204Y-78602331D01*
X53542454Y-78717546D01*
X53622979Y-78777827D01*
X53657670Y-78803797D01*
X53710077Y-78823343D01*
X53792517Y-78854091D01*
X53852127Y-78860500D01*
X55947872Y-78860499D01*
X56007483Y-78854091D01*
X56142331Y-78803796D01*
X56257546Y-78717546D01*
X56257551Y-78717538D01*
X56262366Y-78712725D01*
X56355865Y-78645965D01*
X56465976Y-78613181D01*
X56509152Y-78610500D01*
X56542514Y-78610500D01*
X56655834Y-78629410D01*
X56756874Y-78684090D01*
X56834685Y-78768615D01*
X56880835Y-78873826D01*
X56890322Y-78988320D01*
X56862119Y-79099692D01*
X56824861Y-79164638D01*
X56716656Y-79313567D01*
X56716653Y-79313572D01*
X56609436Y-79523999D01*
X56609429Y-79524015D01*
X56536449Y-79748623D01*
X56536445Y-79748638D01*
X56499500Y-79981903D01*
X56499500Y-80218096D01*
X56536445Y-80451361D01*
X56536449Y-80451376D01*
X56609429Y-80675984D01*
X56609436Y-80676000D01*
X56716653Y-80886427D01*
X56716656Y-80886432D01*
X56716657Y-80886433D01*
X56855483Y-81077510D01*
X56855484Y-81077511D01*
X56855485Y-81077512D01*
X56901194Y-81123222D01*
X56967952Y-81216723D01*
X57000732Y-81326834D01*
X56995984Y-81441623D01*
X56954220Y-81548651D01*
X56901194Y-81616778D01*
X56855485Y-81662487D01*
X56716656Y-81853567D01*
X56716653Y-81853572D01*
X56609436Y-82063999D01*
X56609429Y-82064015D01*
X56536449Y-82288623D01*
X56536445Y-82288638D01*
X56499500Y-82521903D01*
X56499500Y-82758096D01*
X56536445Y-82991361D01*
X56536449Y-82991376D01*
X56609429Y-83215984D01*
X56609436Y-83216000D01*
X56716653Y-83426427D01*
X56716656Y-83426432D01*
X56716657Y-83426433D01*
X56855483Y-83617510D01*
X56855484Y-83617511D01*
X56855485Y-83617512D01*
X56901194Y-83663222D01*
X56967952Y-83756723D01*
X57000732Y-83866834D01*
X56995984Y-83981623D01*
X56954220Y-84088651D01*
X56901194Y-84156778D01*
X56855485Y-84202487D01*
X56716656Y-84393567D01*
X56716653Y-84393572D01*
X56609436Y-84603999D01*
X56609429Y-84604015D01*
X56536449Y-84828623D01*
X56536445Y-84828638D01*
X56499500Y-85061903D01*
X56499500Y-85298096D01*
X56536445Y-85531361D01*
X56536449Y-85531376D01*
X56609429Y-85755984D01*
X56609436Y-85756000D01*
X56716653Y-85966427D01*
X56716656Y-85966432D01*
X56746243Y-86007155D01*
X56855483Y-86157510D01*
X56855484Y-86157511D01*
X56855485Y-86157512D01*
X56901194Y-86203222D01*
X56967952Y-86296723D01*
X57000732Y-86406834D01*
X56995984Y-86521623D01*
X56954220Y-86628651D01*
X56901194Y-86696778D01*
X56855485Y-86742487D01*
X56716656Y-86933567D01*
X56716653Y-86933572D01*
X56609436Y-87143999D01*
X56609429Y-87144015D01*
X56536449Y-87368623D01*
X56536445Y-87368638D01*
X56499500Y-87601903D01*
X56499500Y-87838096D01*
X56536445Y-88071361D01*
X56536449Y-88071376D01*
X56609429Y-88295984D01*
X56609436Y-88296000D01*
X56716653Y-88506427D01*
X56716656Y-88506432D01*
X56716657Y-88506433D01*
X56855483Y-88697510D01*
X57022490Y-88864517D01*
X57091791Y-88914867D01*
X57213567Y-89003343D01*
X57213572Y-89003346D01*
X57284529Y-89039500D01*
X57424008Y-89110568D01*
X57648632Y-89183553D01*
X57759858Y-89201169D01*
X57868819Y-89237571D01*
X57952038Y-89299091D01*
X59287280Y-90634333D01*
X59354038Y-90727833D01*
X59386820Y-90837944D01*
X59389500Y-90881113D01*
X59389500Y-97279827D01*
X59370590Y-97393147D01*
X59322848Y-97484963D01*
X59256655Y-97576069D01*
X59256653Y-97576072D01*
X59149436Y-97786499D01*
X59149429Y-97786515D01*
X59076449Y-98011123D01*
X59076445Y-98011138D01*
X59039500Y-98244403D01*
X59039500Y-98480596D01*
X59076445Y-98713861D01*
X59076449Y-98713876D01*
X59149429Y-98938484D01*
X59149436Y-98938500D01*
X59256653Y-99148927D01*
X59256656Y-99148932D01*
X59256657Y-99148933D01*
X59395483Y-99340010D01*
X59562490Y-99507017D01*
X59664273Y-99580967D01*
X59753567Y-99645843D01*
X59753572Y-99645846D01*
X59801806Y-99670422D01*
X59964008Y-99753068D01*
X60188632Y-99826053D01*
X60421908Y-99863000D01*
X60421912Y-99863000D01*
X60658088Y-99863000D01*
X60658092Y-99863000D01*
X60891368Y-99826053D01*
X61115992Y-99753068D01*
X61326433Y-99645843D01*
X61517510Y-99507017D01*
X61684517Y-99340010D01*
X61823343Y-99148933D01*
X61930568Y-98938492D01*
X62003553Y-98713868D01*
X62040500Y-98480592D01*
X62040500Y-98244408D01*
X62003553Y-98011132D01*
X61930568Y-97786508D01*
X61823343Y-97576067D01*
X61757151Y-97484962D01*
X61705843Y-97382170D01*
X61690500Y-97279827D01*
X61690500Y-90364975D01*
X61690501Y-90364950D01*
X61690501Y-90169454D01*
X61690501Y-90169453D01*
X61662171Y-89990591D01*
X61606211Y-89818361D01*
X61581244Y-89769361D01*
X61523996Y-89657006D01*
X61417553Y-89510499D01*
X61289501Y-89382447D01*
X61280750Y-89373696D01*
X61280735Y-89373682D01*
X59579091Y-87672038D01*
X59512333Y-87578538D01*
X59481169Y-87479858D01*
X59463553Y-87368632D01*
X59390568Y-87144008D01*
X59328652Y-87022490D01*
X59283346Y-86933572D01*
X59283343Y-86933567D01*
X59226611Y-86855483D01*
X59144517Y-86742490D01*
X59098807Y-86696780D01*
X59032049Y-86603280D01*
X58999267Y-86493169D01*
X59004015Y-86378380D01*
X59045777Y-86271352D01*
X59098807Y-86203220D01*
X59111940Y-86190087D01*
X59144517Y-86157510D01*
X59283343Y-85966433D01*
X59390568Y-85755992D01*
X59463553Y-85531368D01*
X59500500Y-85298092D01*
X59500500Y-85061908D01*
X59463553Y-84828632D01*
X59390568Y-84604008D01*
X59324114Y-84473585D01*
X59283346Y-84393572D01*
X59283343Y-84393567D01*
X59271706Y-84377550D01*
X59144517Y-84202490D01*
X59098807Y-84156780D01*
X59032049Y-84063280D01*
X58999267Y-83953169D01*
X59004015Y-83838380D01*
X59045777Y-83731352D01*
X59098807Y-83663220D01*
X59144517Y-83617510D01*
X59283343Y-83426433D01*
X59390568Y-83215992D01*
X59463553Y-82991368D01*
X59500500Y-82758092D01*
X59500500Y-82521908D01*
X59463553Y-82288632D01*
X59390568Y-82064008D01*
X59302600Y-81891361D01*
X59283346Y-81853572D01*
X59283343Y-81853567D01*
X59242249Y-81797006D01*
X59144517Y-81662490D01*
X59098807Y-81616780D01*
X59032049Y-81523280D01*
X58999267Y-81413169D01*
X59004015Y-81298380D01*
X59045777Y-81191352D01*
X59098807Y-81123220D01*
X59144517Y-81077510D01*
X59283343Y-80886433D01*
X59390568Y-80675992D01*
X59463553Y-80451368D01*
X59500500Y-80218092D01*
X59500500Y-79981908D01*
X59463553Y-79748632D01*
X59390568Y-79524008D01*
X59339311Y-79423411D01*
X59283346Y-79313572D01*
X59283343Y-79313567D01*
X59271311Y-79297006D01*
X59144517Y-79122490D01*
X59098807Y-79076780D01*
X59032049Y-78983280D01*
X58999267Y-78873169D01*
X59004015Y-78758380D01*
X59045777Y-78651352D01*
X59098807Y-78583220D01*
X59116961Y-78565066D01*
X59144517Y-78537510D01*
X59283343Y-78346433D01*
X59390568Y-78135992D01*
X59463553Y-77911368D01*
X59500500Y-77678092D01*
X59500500Y-77441908D01*
X59463553Y-77208632D01*
X59390568Y-76984008D01*
X59283343Y-76773567D01*
X59144517Y-76582490D01*
X58977510Y-76415483D01*
X58786433Y-76276657D01*
X58786434Y-76276657D01*
X58786432Y-76276656D01*
X58786427Y-76276653D01*
X58576000Y-76169436D01*
X58575998Y-76169435D01*
X58575992Y-76169432D01*
X58575987Y-76169430D01*
X58575984Y-76169429D01*
X58351376Y-76096449D01*
X58351361Y-76096445D01*
X58118096Y-76059500D01*
X58118092Y-76059500D01*
X57881908Y-76059500D01*
X57881903Y-76059500D01*
X57648638Y-76096445D01*
X57648623Y-76096449D01*
X57424015Y-76169429D01*
X57423999Y-76169436D01*
X57213572Y-76276653D01*
X57213567Y-76276656D01*
X57022487Y-76415485D01*
X57012070Y-76424383D01*
X57010050Y-76422018D01*
X56937193Y-76474038D01*
X56827082Y-76506820D01*
X56783913Y-76509500D01*
X56509152Y-76509500D01*
X56395832Y-76490590D01*
X56294792Y-76435910D01*
X56262366Y-76407275D01*
X56257548Y-76402457D01*
X56257546Y-76402454D01*
X56203003Y-76361623D01*
X56142329Y-76316202D01*
X56007483Y-76265909D01*
X56007485Y-76265909D01*
X55983639Y-76263345D01*
X55947873Y-76259500D01*
X55947870Y-76259500D01*
X53852129Y-76259500D01*
X53792514Y-76265909D01*
X53792511Y-76265910D01*
X53657671Y-76316202D01*
X53542454Y-76402454D01*
X53456202Y-76517670D01*
X53405909Y-76652515D01*
X53399500Y-76712129D01*
X52600499Y-76712129D01*
X52600499Y-76712128D01*
X52594091Y-76652517D01*
X52560513Y-76562490D01*
X52543797Y-76517671D01*
X52543130Y-76516780D01*
X52457546Y-76402454D01*
X52388621Y-76350857D01*
X52342329Y-76316202D01*
X52207483Y-76265909D01*
X52207485Y-76265909D01*
X52183639Y-76263345D01*
X52147873Y-76259500D01*
X52147870Y-76259500D01*
X50052129Y-76259500D01*
X49992514Y-76265909D01*
X49992511Y-76265910D01*
X49857671Y-76316202D01*
X49742454Y-76402454D01*
X49656202Y-76517670D01*
X49605909Y-76652515D01*
X49599500Y-76712129D01*
X49599500Y-78407870D01*
X49605909Y-78467485D01*
X49605910Y-78467488D01*
X49656202Y-78602328D01*
X49656203Y-78602329D01*
X49656204Y-78602331D01*
X49676475Y-78629410D01*
X49742456Y-78717549D01*
X49743756Y-78718522D01*
X49750834Y-78725927D01*
X49760103Y-78735196D01*
X49759893Y-78735405D01*
X49823139Y-78801572D01*
X49871255Y-78905898D01*
X49882890Y-79020194D01*
X49856781Y-79132075D01*
X49795760Y-79229417D01*
X49781382Y-79244686D01*
X48182044Y-80844024D01*
X48035725Y-80990341D01*
X47920759Y-81162400D01*
X47841570Y-81353580D01*
X47801200Y-81556534D01*
X47801200Y-87250500D01*
X47782290Y-87363820D01*
X47727610Y-87464860D01*
X47643085Y-87542671D01*
X47537874Y-87588821D01*
X47452200Y-87599500D01*
X46152129Y-87599500D01*
X46092514Y-87605909D01*
X46092511Y-87605910D01*
X45957671Y-87656202D01*
X45842454Y-87742454D01*
X45756202Y-87857670D01*
X45705909Y-87992515D01*
X45699500Y-88052129D01*
X45699500Y-88770306D01*
X45680590Y-88883626D01*
X45625910Y-88984666D01*
X45597281Y-89017086D01*
X45503805Y-89110563D01*
X45315278Y-89299091D01*
X45227089Y-89387280D01*
X45133588Y-89454038D01*
X45023478Y-89486820D01*
X44980308Y-89489500D01*
X43216087Y-89489500D01*
X43102767Y-89470590D01*
X43001727Y-89415910D01*
X42988249Y-89404008D01*
X42987930Y-89404383D01*
X42977512Y-89395485D01*
X42977510Y-89395483D01*
X42786433Y-89256657D01*
X42786434Y-89256657D01*
X42786432Y-89256656D01*
X42786427Y-89256653D01*
X42576000Y-89149436D01*
X42575998Y-89149435D01*
X42575992Y-89149432D01*
X42575987Y-89149430D01*
X42575984Y-89149429D01*
X42351376Y-89076449D01*
X42351361Y-89076445D01*
X42118096Y-89039500D01*
X42118092Y-89039500D01*
X41881908Y-89039500D01*
X41881903Y-89039500D01*
X41648638Y-89076445D01*
X41648623Y-89076449D01*
X41424015Y-89149429D01*
X41424010Y-89149431D01*
X41424008Y-89149432D01*
X41228065Y-89249270D01*
X41211893Y-89257510D01*
X41102339Y-89292107D01*
X40987487Y-89289257D01*
X40879784Y-89249270D01*
X40790900Y-89176478D01*
X40730467Y-89078770D01*
X40705035Y-88966733D01*
X40717359Y-88852509D01*
X40742490Y-88788105D01*
X40743339Y-88786437D01*
X40743343Y-88786433D01*
X40850568Y-88575992D01*
X40923553Y-88351368D01*
X40960500Y-88118092D01*
X40960500Y-87881908D01*
X40923553Y-87648632D01*
X40850568Y-87424008D01*
X40771960Y-87269731D01*
X40743346Y-87213572D01*
X40743343Y-87213567D01*
X40663008Y-87102996D01*
X40604517Y-87022490D01*
X40437510Y-86855483D01*
X40291998Y-86749762D01*
X40246432Y-86716656D01*
X40246427Y-86716653D01*
X40036000Y-86609436D01*
X40035998Y-86609435D01*
X40035992Y-86609432D01*
X40035987Y-86609430D01*
X40035984Y-86609429D01*
X39811376Y-86536449D01*
X39811370Y-86536447D01*
X39811368Y-86536447D01*
X39811362Y-86536446D01*
X39600800Y-86503096D01*
X39491833Y-86466692D01*
X39400591Y-86396879D01*
X39336961Y-86301222D01*
X39307838Y-86190087D01*
X39316379Y-86075518D01*
X39361657Y-85969930D01*
X39408610Y-85911619D01*
X40109757Y-85210472D01*
X40109771Y-85210461D01*
X40275974Y-85044258D01*
X40275977Y-85044255D01*
X40390941Y-84872198D01*
X40470130Y-84681020D01*
X40509320Y-84483996D01*
X40509325Y-84483997D01*
X40509326Y-84483962D01*
X40510500Y-84478066D01*
X40510500Y-84271135D01*
X40510500Y-82997486D01*
X40529410Y-82884166D01*
X40584090Y-82783126D01*
X40668615Y-82705315D01*
X40773826Y-82659165D01*
X40888320Y-82649678D01*
X40999692Y-82677881D01*
X41064635Y-82715137D01*
X41158213Y-82783126D01*
X41213567Y-82823343D01*
X41213572Y-82823346D01*
X41271760Y-82852994D01*
X41424008Y-82930568D01*
X41648632Y-83003553D01*
X41881908Y-83040500D01*
X41881912Y-83040500D01*
X42118088Y-83040500D01*
X42118092Y-83040500D01*
X42351368Y-83003553D01*
X42575992Y-82930568D01*
X42786433Y-82823343D01*
X42977510Y-82684517D01*
X43144517Y-82517510D01*
X43283343Y-82326433D01*
X43390568Y-82115992D01*
X43463553Y-81891368D01*
X43500500Y-81658092D01*
X43500500Y-81421908D01*
X43463553Y-81188632D01*
X43390568Y-80964008D01*
X43295514Y-80777454D01*
X43283346Y-80753572D01*
X43283343Y-80753567D01*
X43258170Y-80718919D01*
X43144517Y-80562490D01*
X43144514Y-80562487D01*
X43135617Y-80552070D01*
X43137981Y-80550050D01*
X43085962Y-80477193D01*
X43053180Y-80367082D01*
X43050500Y-80323913D01*
X43050500Y-79216191D01*
X43069410Y-79102871D01*
X43124090Y-79001831D01*
X43152720Y-78969411D01*
X48469412Y-73652720D01*
X48562912Y-73585962D01*
X48673023Y-73553180D01*
X48716192Y-73550500D01*
X48890848Y-73550500D01*
X49004168Y-73569410D01*
X49105208Y-73624090D01*
X49137634Y-73652725D01*
X49142451Y-73657542D01*
X49142454Y-73657546D01*
X49208294Y-73706834D01*
X49257670Y-73743797D01*
X49310077Y-73763343D01*
X49392517Y-73794091D01*
X49452127Y-73800500D01*
X51547872Y-73800499D01*
X51607483Y-73794091D01*
X51742331Y-73743796D01*
X51857546Y-73657546D01*
X51943796Y-73542331D01*
X51945992Y-73536445D01*
X51975431Y-73457512D01*
X51994091Y-73407483D01*
X52000500Y-73347873D01*
X52000499Y-71652128D01*
X51994091Y-71592517D01*
X51994089Y-71592511D01*
X51943797Y-71457671D01*
X51943130Y-71456780D01*
X51857546Y-71342454D01*
X51742331Y-71256204D01*
X51742327Y-71256201D01*
X51732236Y-71250691D01*
X51641842Y-71179784D01*
X51579368Y-71083368D01*
X51551586Y-70971891D01*
X51550500Y-70944384D01*
X51550500Y-70020458D01*
X51560504Y-69937496D01*
X51561836Y-69932056D01*
X51798125Y-68966536D01*
X51843430Y-68860960D01*
X51920562Y-68775815D01*
X52021161Y-68720327D01*
X52134326Y-68700510D01*
X52137121Y-68700499D01*
X52147871Y-68700499D01*
X52147872Y-68700499D01*
X52207483Y-68694091D01*
X52342331Y-68643796D01*
X52457546Y-68557546D01*
X52543796Y-68442331D01*
X52550628Y-68424015D01*
X52567972Y-68377511D01*
X52594091Y-68307483D01*
X52600500Y-68247873D01*
X52600499Y-66552128D01*
X52594091Y-66492517D01*
X52552669Y-66381460D01*
X52530787Y-66268678D01*
X52546710Y-66154900D01*
X52598714Y-66052457D01*
X52681163Y-65972450D01*
X52785124Y-65923549D01*
X52879666Y-65910500D01*
X53120334Y-65910500D01*
X53233654Y-65929410D01*
X53334694Y-65984090D01*
X53412505Y-66068615D01*
X53458655Y-66173826D01*
X53468142Y-66288320D01*
X53447330Y-66381461D01*
X53405909Y-66492515D01*
X53399500Y-66552129D01*
X53399500Y-68247870D01*
X53405909Y-68307485D01*
X53405910Y-68307488D01*
X53456202Y-68442328D01*
X53456203Y-68442329D01*
X53456204Y-68442331D01*
X53542454Y-68557546D01*
X53634523Y-68626469D01*
X53657670Y-68643797D01*
X53714694Y-68665065D01*
X53792517Y-68694091D01*
X53852127Y-68700500D01*
X55947872Y-68700499D01*
X56007483Y-68694091D01*
X56142331Y-68643796D01*
X56257546Y-68557546D01*
X56257551Y-68557538D01*
X56262366Y-68552725D01*
X56355865Y-68485965D01*
X56465976Y-68453181D01*
X56509152Y-68450500D01*
X56542514Y-68450500D01*
X56655834Y-68469410D01*
X56756874Y-68524090D01*
X56834685Y-68608615D01*
X56880835Y-68713826D01*
X56890322Y-68828320D01*
X56862119Y-68939692D01*
X56824861Y-69004638D01*
X56716656Y-69153567D01*
X56716653Y-69153572D01*
X56609436Y-69363999D01*
X56609429Y-69364015D01*
X56536449Y-69588623D01*
X56536445Y-69588638D01*
X56499500Y-69821903D01*
X56499500Y-70058096D01*
X56536445Y-70291361D01*
X56536449Y-70291376D01*
X56609429Y-70515984D01*
X56609436Y-70516000D01*
X56716653Y-70726427D01*
X56716656Y-70726432D01*
X56716657Y-70726433D01*
X56855483Y-70917510D01*
X56855484Y-70917511D01*
X56855485Y-70917512D01*
X56901194Y-70963222D01*
X56967952Y-71056723D01*
X57000732Y-71166834D01*
X56995984Y-71281623D01*
X56954220Y-71388651D01*
X56901194Y-71456778D01*
X56855485Y-71502487D01*
X56716656Y-71693567D01*
X56716653Y-71693572D01*
X56609436Y-71903999D01*
X56609429Y-71904015D01*
X56536449Y-72128623D01*
X56536445Y-72128638D01*
X56499500Y-72361903D01*
X56499500Y-72598096D01*
X56536445Y-72831361D01*
X56536449Y-72831376D01*
X56609429Y-73055984D01*
X56609436Y-73056000D01*
X56716653Y-73266427D01*
X56716656Y-73266432D01*
X56716657Y-73266433D01*
X56855483Y-73457510D01*
X57022490Y-73624517D01*
X57186663Y-73743796D01*
X57213567Y-73763343D01*
X57213572Y-73763346D01*
X57323411Y-73819311D01*
X57424008Y-73870568D01*
X57648632Y-73943553D01*
X57881908Y-73980500D01*
X57881912Y-73980500D01*
X58118088Y-73980500D01*
X58118092Y-73980500D01*
X58351368Y-73943553D01*
X58575992Y-73870568D01*
X58786433Y-73763343D01*
X58977510Y-73624517D01*
X59144517Y-73457510D01*
X59283343Y-73266433D01*
X59390568Y-73055992D01*
X59463553Y-72831368D01*
X59500500Y-72598092D01*
X59500500Y-72361908D01*
X59463553Y-72128632D01*
X59390568Y-71904008D01*
X59283343Y-71693567D01*
X59144517Y-71502490D01*
X59098807Y-71456780D01*
X59032049Y-71363280D01*
X58999267Y-71253169D01*
X59004015Y-71138380D01*
X59045777Y-71031352D01*
X59098807Y-70963220D01*
X59117643Y-70944384D01*
X59144517Y-70917510D01*
X59283343Y-70726433D01*
X59390568Y-70515992D01*
X59463553Y-70291368D01*
X59500500Y-70058092D01*
X59500500Y-69821908D01*
X59463553Y-69588632D01*
X59390568Y-69364008D01*
X59283343Y-69153567D01*
X59144517Y-68962490D01*
X59098807Y-68916780D01*
X59032049Y-68823280D01*
X58999267Y-68713169D01*
X59004015Y-68598380D01*
X59045777Y-68491352D01*
X59098807Y-68423220D01*
X59144517Y-68377510D01*
X59283343Y-68186433D01*
X59390568Y-67975992D01*
X59463553Y-67751368D01*
X59500500Y-67518092D01*
X59500500Y-67281908D01*
X59463553Y-67048632D01*
X59390568Y-66824008D01*
X59283343Y-66613567D01*
X59144517Y-66422490D01*
X59098807Y-66376780D01*
X59032049Y-66283280D01*
X58999267Y-66173169D01*
X59004015Y-66058380D01*
X59045777Y-65951352D01*
X59098807Y-65883220D01*
X59111898Y-65870129D01*
X59144517Y-65837510D01*
X59283343Y-65646433D01*
X59390568Y-65435992D01*
X59463553Y-65211368D01*
X59500500Y-64978092D01*
X59500500Y-64741908D01*
X59463553Y-64508632D01*
X59390568Y-64284008D01*
X59283343Y-64073567D01*
X59144517Y-63882490D01*
X59098807Y-63836780D01*
X59032049Y-63743280D01*
X58999267Y-63633169D01*
X59004015Y-63518380D01*
X59045777Y-63411352D01*
X59098807Y-63343220D01*
X59144517Y-63297510D01*
X59283343Y-63106433D01*
X59390568Y-62895992D01*
X59463553Y-62671368D01*
X59500500Y-62438092D01*
X59500500Y-62201908D01*
X59463553Y-61968632D01*
X59390568Y-61744008D01*
X59283343Y-61533567D01*
X59144517Y-61342490D01*
X59098807Y-61296780D01*
X59032049Y-61203280D01*
X58999267Y-61093169D01*
X59004015Y-60978380D01*
X59045777Y-60871352D01*
X59098807Y-60803220D01*
X59144517Y-60757510D01*
X59283343Y-60566433D01*
X59390568Y-60355992D01*
X59463553Y-60131368D01*
X59500500Y-59898092D01*
X59500500Y-59661908D01*
X59463553Y-59428632D01*
X59390568Y-59204008D01*
X59339311Y-59103411D01*
X59283346Y-58993572D01*
X59283343Y-58993567D01*
X59222722Y-58910130D01*
X59144517Y-58802490D01*
X59098807Y-58756780D01*
X59032049Y-58663280D01*
X58999267Y-58553169D01*
X59004015Y-58438380D01*
X59045777Y-58331352D01*
X59098807Y-58263220D01*
X59144517Y-58217510D01*
X59283343Y-58026433D01*
X59390568Y-57815992D01*
X59463553Y-57591368D01*
X59500500Y-57358092D01*
X59500500Y-57121908D01*
X59463553Y-56888632D01*
X59390568Y-56664008D01*
X59283343Y-56453567D01*
X59144517Y-56262490D01*
X59098807Y-56216780D01*
X59032049Y-56123280D01*
X58999267Y-56013169D01*
X59004015Y-55898380D01*
X59045777Y-55791352D01*
X59098807Y-55723220D01*
X59144517Y-55677510D01*
X59283343Y-55486433D01*
X59390568Y-55275992D01*
X59463553Y-55051368D01*
X59500500Y-54818092D01*
X59500500Y-54581908D01*
X59463553Y-54348632D01*
X59390568Y-54124008D01*
X59283343Y-53913567D01*
X59144517Y-53722490D01*
X59098807Y-53676780D01*
X59032049Y-53583280D01*
X58999267Y-53473169D01*
X59004015Y-53358380D01*
X59045777Y-53251352D01*
X59098807Y-53183220D01*
X59144517Y-53137510D01*
X59283343Y-52946433D01*
X59390568Y-52735992D01*
X59463553Y-52511368D01*
X59500500Y-52278092D01*
X59500500Y-52041908D01*
X59463553Y-51808632D01*
X59390568Y-51584008D01*
X59283343Y-51373567D01*
X59144517Y-51182490D01*
X59098807Y-51136780D01*
X59032049Y-51043280D01*
X58999267Y-50933169D01*
X59004015Y-50818380D01*
X59045777Y-50711352D01*
X59098807Y-50643220D01*
X59144517Y-50597510D01*
X59283343Y-50406433D01*
X59390568Y-50195992D01*
X59463553Y-49971368D01*
X59500500Y-49738092D01*
X59500500Y-49501908D01*
X59463553Y-49268632D01*
X59390568Y-49044008D01*
X59283343Y-48833567D01*
X59144517Y-48642490D01*
X59098807Y-48596780D01*
X59032049Y-48503280D01*
X58999267Y-48393169D01*
X59004015Y-48278380D01*
X59045777Y-48171352D01*
X59098807Y-48103220D01*
X59144517Y-48057510D01*
X59283343Y-47866433D01*
X59390568Y-47655992D01*
X59463553Y-47431368D01*
X59500500Y-47198092D01*
X59500500Y-46961908D01*
X59463553Y-46728632D01*
X59390568Y-46504008D01*
X59339311Y-46403411D01*
X59283346Y-46293572D01*
X59283343Y-46293567D01*
X59277996Y-46286207D01*
X59144517Y-46102490D01*
X59098807Y-46056780D01*
X59032049Y-45963280D01*
X58999267Y-45853169D01*
X59004015Y-45738380D01*
X59045777Y-45631352D01*
X59098807Y-45563220D01*
X59144517Y-45517510D01*
X59283343Y-45326433D01*
X59390568Y-45115992D01*
X59463553Y-44891368D01*
X59500500Y-44658092D01*
X59500500Y-44421908D01*
X59463553Y-44188632D01*
X59390568Y-43964008D01*
X59283343Y-43753567D01*
X59144517Y-43562490D01*
X59098807Y-43516780D01*
X59032049Y-43423280D01*
X58999267Y-43313169D01*
X59004015Y-43198380D01*
X59045777Y-43091352D01*
X59098807Y-43023220D01*
X59144517Y-42977510D01*
X59283343Y-42786433D01*
X59390568Y-42575992D01*
X59463553Y-42351368D01*
X59500500Y-42118092D01*
X59500500Y-41881908D01*
X59463553Y-41648632D01*
X59390568Y-41424008D01*
X59283343Y-41213567D01*
X59144517Y-41022490D01*
X58977510Y-40855483D01*
X58786433Y-40716657D01*
X58675157Y-40659959D01*
X58582777Y-40591667D01*
X58517573Y-40497075D01*
X58486617Y-40386437D01*
X58493262Y-40271743D01*
X58536788Y-40165420D01*
X58612478Y-40078991D01*
X58712131Y-40021822D01*
X58824947Y-40000107D01*
X58833603Y-40000000D01*
X87800000Y-40000000D01*
X87800000Y-33372158D01*
X102549500Y-33372158D01*
X102549500Y-33627841D01*
X102582872Y-33881329D01*
X102582875Y-33881346D01*
X102649050Y-34128313D01*
X102649050Y-34128315D01*
X102746891Y-34364524D01*
X102746896Y-34364535D01*
X102746897Y-34364536D01*
X102874738Y-34585964D01*
X102874739Y-34585966D01*
X102961833Y-34699468D01*
X103030390Y-34788813D01*
X103030396Y-34788819D01*
X103030401Y-34788825D01*
X103211174Y-34969598D01*
X103211180Y-34969603D01*
X103211187Y-34969610D01*
X103261686Y-35008359D01*
X103414033Y-35125260D01*
X103414035Y-35125261D01*
X103635465Y-35253104D01*
X103871687Y-35350950D01*
X104118660Y-35417126D01*
X104372157Y-35450500D01*
X104372159Y-35450500D01*
X104627841Y-35450500D01*
X104627843Y-35450500D01*
X104881340Y-35417126D01*
X105128313Y-35350950D01*
X105364535Y-35253104D01*
X105585965Y-35125261D01*
X105788813Y-34969610D01*
X105969610Y-34788813D01*
X106125261Y-34585965D01*
X106253104Y-34364535D01*
X106350950Y-34128313D01*
X106417126Y-33881340D01*
X106450500Y-33627843D01*
X106450500Y-33372157D01*
X106417126Y-33118660D01*
X106350950Y-32871687D01*
X106253104Y-32635465D01*
X106125261Y-32414035D01*
X106125260Y-32414033D01*
X106064574Y-32334947D01*
X105969610Y-32211187D01*
X105969603Y-32211180D01*
X105969598Y-32211174D01*
X105788825Y-32030401D01*
X105788819Y-32030396D01*
X105788813Y-32030390D01*
X105699468Y-31961833D01*
X105585966Y-31874739D01*
X105585964Y-31874738D01*
X105475250Y-31810817D01*
X105364535Y-31746896D01*
X105364529Y-31746893D01*
X105364524Y-31746891D01*
X105128314Y-31649050D01*
X104881346Y-31582875D01*
X104881329Y-31582872D01*
X104709726Y-31560280D01*
X104627843Y-31549500D01*
X104372157Y-31549500D01*
X104301660Y-31558781D01*
X104118670Y-31582872D01*
X104118653Y-31582875D01*
X103871686Y-31649050D01*
X103871684Y-31649050D01*
X103635475Y-31746891D01*
X103635463Y-31746897D01*
X103414035Y-31874738D01*
X103414033Y-31874739D01*
X103211192Y-32030386D01*
X103211174Y-32030401D01*
X103030401Y-32211174D01*
X103030386Y-32211192D01*
X102874739Y-32414033D01*
X102874738Y-32414035D01*
X102746897Y-32635463D01*
X102746891Y-32635475D01*
X102649050Y-32871684D01*
X102649050Y-32871686D01*
X102582875Y-33118653D01*
X102582872Y-33118670D01*
X102549500Y-33372158D01*
X87800000Y-33372158D01*
X87800000Y-30924000D01*
X87818910Y-30810680D01*
X87873590Y-30709640D01*
X87958115Y-30631829D01*
X88063326Y-30585679D01*
X88149000Y-30575000D01*
X107076000Y-30575000D01*
X107189320Y-30593910D01*
G37*
%TD.AperFunction*%
%TD*%
M02*
